%TF.GenerationSoftware,KiCad,Pcbnew,9.0.1*%
%TF.CreationDate,2025-05-06T09:52:03+02:00*%
%TF.ProjectId,ESP32 adon V3,45535033-3220-4616-946f-6e2056332e6b,rev?*%
%TF.SameCoordinates,Original*%
%TF.FileFunction,Soldermask,Top*%
%TF.FilePolarity,Negative*%
%FSLAX46Y46*%
G04 Gerber Fmt 4.6, Leading zero omitted, Abs format (unit mm)*
G04 Created by KiCad (PCBNEW 9.0.1) date 2025-05-06 09:52:03*
%MOMM*%
%LPD*%
G01*
G04 APERTURE LIST*
G04 Aperture macros list*
%AMRoundRect*
0 Rectangle with rounded corners*
0 $1 Rounding radius*
0 $2 $3 $4 $5 $6 $7 $8 $9 X,Y pos of 4 corners*
0 Add a 4 corners polygon primitive as box body*
4,1,4,$2,$3,$4,$5,$6,$7,$8,$9,$2,$3,0*
0 Add four circle primitives for the rounded corners*
1,1,$1+$1,$2,$3*
1,1,$1+$1,$4,$5*
1,1,$1+$1,$6,$7*
1,1,$1+$1,$8,$9*
0 Add four rect primitives between the rounded corners*
20,1,$1+$1,$2,$3,$4,$5,0*
20,1,$1+$1,$4,$5,$6,$7,0*
20,1,$1+$1,$6,$7,$8,$9,0*
20,1,$1+$1,$8,$9,$2,$3,0*%
G04 Aperture macros list end*
%ADD10RoundRect,0.200000X-0.275000X0.200000X-0.275000X-0.200000X0.275000X-0.200000X0.275000X0.200000X0*%
%ADD11R,1.700000X1.700000*%
%ADD12O,1.700000X1.700000*%
%ADD13RoundRect,0.150000X0.512500X0.150000X-0.512500X0.150000X-0.512500X-0.150000X0.512500X-0.150000X0*%
%ADD14RoundRect,0.250000X-0.300000X-0.300000X0.300000X-0.300000X0.300000X0.300000X-0.300000X0.300000X0*%
%ADD15RoundRect,0.200000X0.275000X-0.200000X0.275000X0.200000X-0.275000X0.200000X-0.275000X-0.200000X0*%
%ADD16R,0.250000X1.100000*%
%ADD17R,0.250000X0.675000*%
%ADD18R,0.675000X0.250000*%
%ADD19RoundRect,0.250000X0.750000X-0.250000X0.750000X0.250000X-0.750000X0.250000X-0.750000X-0.250000X0*%
%ADD20C,2.000000*%
%ADD21RoundRect,0.225000X-0.250000X0.225000X-0.250000X-0.225000X0.250000X-0.225000X0.250000X0.225000X0*%
%ADD22RoundRect,0.090000X0.485000X-0.210000X0.485000X0.210000X-0.485000X0.210000X-0.485000X-0.210000X0*%
%ADD23RoundRect,0.045000X0.530000X-0.105000X0.530000X0.105000X-0.530000X0.105000X-0.530000X-0.105000X0*%
%ADD24RoundRect,0.150000X0.750000X-0.350000X0.750000X0.350000X-0.750000X0.350000X-0.750000X-0.350000X0*%
%ADD25RoundRect,0.150000X0.950000X-0.350000X0.950000X0.350000X-0.950000X0.350000X-0.950000X-0.350000X0*%
%ADD26RoundRect,0.225000X-0.225000X-0.250000X0.225000X-0.250000X0.225000X0.250000X-0.225000X0.250000X0*%
%ADD27RoundRect,0.200000X-0.200000X-0.275000X0.200000X-0.275000X0.200000X0.275000X-0.200000X0.275000X0*%
%ADD28RoundRect,0.162500X-0.447500X-0.162500X0.447500X-0.162500X0.447500X0.162500X-0.447500X0.162500X0*%
%ADD29RoundRect,0.150000X0.150000X-0.512500X0.150000X0.512500X-0.150000X0.512500X-0.150000X-0.512500X0*%
%ADD30RoundRect,0.200000X0.200000X0.275000X-0.200000X0.275000X-0.200000X-0.275000X0.200000X-0.275000X0*%
%ADD31RoundRect,0.225000X0.225000X0.250000X-0.225000X0.250000X-0.225000X-0.250000X0.225000X-0.250000X0*%
%ADD32RoundRect,0.150000X-0.825000X-0.150000X0.825000X-0.150000X0.825000X0.150000X-0.825000X0.150000X0*%
%ADD33RoundRect,0.100000X-0.100000X0.637500X-0.100000X-0.637500X0.100000X-0.637500X0.100000X0.637500X0*%
%ADD34RoundRect,0.225000X0.250000X-0.225000X0.250000X0.225000X-0.250000X0.225000X-0.250000X-0.225000X0*%
%ADD35RoundRect,0.250000X0.250000X0.750000X-0.250000X0.750000X-0.250000X-0.750000X0.250000X-0.750000X0*%
%ADD36RoundRect,0.250000X-0.250000X-0.750000X0.250000X-0.750000X0.250000X0.750000X-0.250000X0.750000X0*%
%ADD37R,1.500000X0.900000*%
%ADD38R,0.800000X0.800000*%
G04 APERTURE END LIST*
D10*
%TO.C,R18*%
X58400000Y-31275000D03*
X58400000Y-32925000D03*
%TD*%
D11*
%TO.C,J1*%
X51800000Y-31300000D03*
D12*
X51800000Y-33840000D03*
X51800000Y-36380000D03*
X51800000Y-38920000D03*
X51800000Y-41460000D03*
X51800000Y-44000000D03*
X51800000Y-46540000D03*
X51800000Y-49080000D03*
%TD*%
D10*
%TO.C,R8*%
X79900000Y-72975000D03*
X79900000Y-74625000D03*
%TD*%
D13*
%TO.C,U5*%
X82237500Y-59520000D03*
X82237500Y-58570000D03*
X82237500Y-57620000D03*
X79962500Y-57620000D03*
X79962500Y-58570000D03*
X79962500Y-59520000D03*
%TD*%
D14*
%TO.C,D1*%
X70900000Y-69100000D03*
X73700000Y-69100000D03*
%TD*%
%TO.C,D2*%
X70900000Y-66800000D03*
X73700000Y-66800000D03*
%TD*%
D15*
%TO.C,R16*%
X82420000Y-62575000D03*
X82420000Y-60925000D03*
%TD*%
D16*
%TO.C,U3*%
X85500000Y-37260000D03*
X86000000Y-37260000D03*
X86500000Y-37260000D03*
X87000000Y-37260000D03*
X87500000Y-37260000D03*
X87500000Y-32960000D03*
X87000000Y-32960000D03*
X86500000Y-32960000D03*
X86000000Y-32960000D03*
X85500000Y-32960000D03*
%TD*%
D17*
%TO.C,MT1*%
X59750000Y-85862500D03*
X60250000Y-85862500D03*
X60750000Y-85862500D03*
X61250000Y-85862500D03*
D18*
X61512500Y-85100000D03*
X61512500Y-84600000D03*
X61512500Y-84100000D03*
D17*
X61250000Y-83337500D03*
X60750000Y-83337500D03*
X60250000Y-83337500D03*
X59750000Y-83337500D03*
D18*
X59487500Y-84100000D03*
X59487500Y-84600000D03*
X59487500Y-85100000D03*
%TD*%
D19*
%TO.C,J14*%
X60830000Y-82110000D03*
%TD*%
D11*
%TO.C,J7*%
X71550000Y-75000000D03*
D12*
X71550000Y-77540000D03*
X71550000Y-80080000D03*
X71550000Y-82620000D03*
%TD*%
D10*
%TO.C,R3*%
X86690000Y-78065000D03*
X86690000Y-79715000D03*
%TD*%
D20*
%TO.C,SW2*%
X57320000Y-41830000D03*
X57320000Y-35330000D03*
X61820000Y-41830000D03*
X61820000Y-35330000D03*
%TD*%
D21*
%TO.C,C2*%
X60600000Y-31325000D03*
X60600000Y-32875000D03*
%TD*%
D11*
%TO.C,J3*%
X72320000Y-92400000D03*
D12*
X69780000Y-92400000D03*
%TD*%
D15*
%TO.C,R5*%
X78800000Y-81225000D03*
X78800000Y-79575000D03*
%TD*%
D22*
%TO.C,J6*%
X85375000Y-61770000D03*
X85375000Y-60970000D03*
D23*
X85375000Y-59820000D03*
X85375000Y-58820000D03*
X85375000Y-58320000D03*
X85375000Y-57320000D03*
D22*
X85375000Y-55370000D03*
X85375000Y-56170000D03*
D23*
X85375000Y-56820000D03*
X85375000Y-57820000D03*
X85375000Y-59320000D03*
X85375000Y-60320000D03*
D24*
X85950000Y-62890000D03*
X85950000Y-54250000D03*
D25*
X89950000Y-54250000D03*
X89950000Y-62890000D03*
%TD*%
D15*
%TO.C,R2*%
X86690000Y-76715000D03*
X86690000Y-75065000D03*
%TD*%
D26*
%TO.C,C3*%
X70825000Y-64900000D03*
X72375000Y-64900000D03*
%TD*%
D27*
%TO.C,R1*%
X82475000Y-80300000D03*
X84125000Y-80300000D03*
%TD*%
D19*
%TO.C,J12*%
X55530000Y-92500000D03*
%TD*%
D28*
%TO.C,Q3*%
X74190000Y-75650000D03*
X74190000Y-77550000D03*
X76810000Y-76600000D03*
%TD*%
D29*
%TO.C,U4*%
X71050000Y-63137500D03*
X72000000Y-63137500D03*
X72950000Y-63137500D03*
X72950000Y-60862500D03*
X71050000Y-60862500D03*
%TD*%
D28*
%TO.C,Q1*%
X81490000Y-72850000D03*
X81490000Y-74750000D03*
X84110000Y-73800000D03*
%TD*%
D11*
%TO.C,J2*%
X51800000Y-69580000D03*
D12*
X51800000Y-72120000D03*
X51800000Y-74660000D03*
X51800000Y-77200000D03*
X51800000Y-79740000D03*
X51800000Y-82280000D03*
X51800000Y-84820000D03*
X51800000Y-87360000D03*
%TD*%
D30*
%TO.C,R6*%
X65545000Y-80080000D03*
X63895000Y-80080000D03*
%TD*%
D11*
%TO.C,J4*%
X90300000Y-69580000D03*
D12*
X90300000Y-72120000D03*
X90300000Y-74660000D03*
X90300000Y-77200000D03*
X90300000Y-79740000D03*
X90300000Y-82280000D03*
X90300000Y-84820000D03*
X90300000Y-87360000D03*
%TD*%
D19*
%TO.C,J13*%
X60830000Y-80850000D03*
%TD*%
D31*
%TO.C,C5*%
X85825000Y-39130000D03*
X84275000Y-39130000D03*
%TD*%
D32*
%TO.C,U6*%
X58025000Y-88695000D03*
X58025000Y-89965000D03*
X58025000Y-91235000D03*
X58025000Y-92505000D03*
X62975000Y-92505000D03*
X62975000Y-91235000D03*
X62975000Y-89965000D03*
X62975000Y-88695000D03*
%TD*%
D28*
%TO.C,Q2*%
X74190000Y-79050000D03*
X74190000Y-80950000D03*
X76810000Y-80000000D03*
%TD*%
D11*
%TO.C,J9*%
X68000000Y-75000000D03*
D12*
X68000000Y-77540000D03*
X68000000Y-80080000D03*
X68000000Y-82620000D03*
%TD*%
D11*
%TO.C,J5*%
X90300000Y-31300000D03*
D12*
X90300000Y-33840000D03*
X90300000Y-36380000D03*
X90300000Y-38920000D03*
X90300000Y-41460000D03*
X90300000Y-44000000D03*
X90300000Y-46540000D03*
X90300000Y-49080000D03*
%TD*%
D30*
%TO.C,R7*%
X65535000Y-77540000D03*
X63885000Y-77540000D03*
%TD*%
D10*
%TO.C,R17*%
X82420000Y-54565000D03*
X82420000Y-56215000D03*
%TD*%
D33*
%TO.C,U2*%
X58575000Y-55717500D03*
X57925000Y-55717500D03*
X57275000Y-55717500D03*
X56625000Y-55717500D03*
X55975000Y-55717500D03*
X55325000Y-55717500D03*
X54675000Y-55717500D03*
X54025000Y-55717500D03*
X53375000Y-55717500D03*
X52725000Y-55717500D03*
X52075000Y-55717500D03*
X51425000Y-55717500D03*
X51425000Y-61442500D03*
X52075000Y-61442500D03*
X52725000Y-61442500D03*
X53375000Y-61442500D03*
X54025000Y-61442500D03*
X54675000Y-61442500D03*
X55325000Y-61442500D03*
X55975000Y-61442500D03*
X56625000Y-61442500D03*
X57275000Y-61442500D03*
X57925000Y-61442500D03*
X58575000Y-61442500D03*
%TD*%
D34*
%TO.C,C6*%
X64930000Y-91375000D03*
X64930000Y-89825000D03*
%TD*%
D21*
%TO.C,C4*%
X62350000Y-31325000D03*
X62350000Y-32875000D03*
%TD*%
%TO.C,C1*%
X69570000Y-61075000D03*
X69570000Y-62625000D03*
%TD*%
D35*
%TO.C,J11*%
X87480000Y-39770000D03*
%TD*%
D36*
%TO.C,J10*%
X59780000Y-55980000D03*
%TD*%
D10*
%TO.C,R4*%
X78800000Y-76600000D03*
X78800000Y-78250000D03*
%TD*%
D37*
%TO.C,U1*%
X64410000Y-30990000D03*
X64410000Y-32260000D03*
X64410000Y-33530000D03*
X64410000Y-34800000D03*
X64410000Y-36070000D03*
X64410000Y-37340000D03*
X64410000Y-38610000D03*
X64410000Y-39880000D03*
X64410000Y-41150000D03*
X64410000Y-42420000D03*
X64410000Y-43690000D03*
X64410000Y-44960000D03*
X64410000Y-46230000D03*
X64410000Y-47500000D03*
X81910000Y-47500000D03*
X81910000Y-46230000D03*
X81910000Y-44960000D03*
X81910000Y-43690000D03*
X81910000Y-42420000D03*
X81910000Y-41150000D03*
X81910000Y-39880000D03*
X81910000Y-38610000D03*
X81910000Y-37340000D03*
X81910000Y-36070000D03*
X81910000Y-34800000D03*
X81910000Y-33530000D03*
X81910000Y-32260000D03*
X81910000Y-30990000D03*
D38*
X70405000Y-35460000D03*
X70405000Y-36710000D03*
X70405000Y-37960000D03*
X71655000Y-35460000D03*
X71655000Y-36710000D03*
X71655000Y-37960000D03*
X72905000Y-35460000D03*
X72905000Y-36710000D03*
X72905000Y-37960000D03*
%TD*%
M02*
