%TF.GenerationSoftware,KiCad,Pcbnew,9.0.1*%
%TF.CreationDate,2025-05-06T09:52:03+02:00*%
%TF.ProjectId,ESP32 adon V3,45535033-3220-4616-946f-6e2056332e6b,rev?*%
%TF.SameCoordinates,Original*%
%TF.FileFunction,Soldermask,Bot*%
%TF.FilePolarity,Negative*%
%FSLAX46Y46*%
G04 Gerber Fmt 4.6, Leading zero omitted, Abs format (unit mm)*
G04 Created by KiCad (PCBNEW 9.0.1) date 2025-05-06 09:52:03*
%MOMM*%
%LPD*%
G01*
G04 APERTURE LIST*
G04 Aperture macros list*
%AMRoundRect*
0 Rectangle with rounded corners*
0 $1 Rounding radius*
0 $2 $3 $4 $5 $6 $7 $8 $9 X,Y pos of 4 corners*
0 Add a 4 corners polygon primitive as box body*
4,1,4,$2,$3,$4,$5,$6,$7,$8,$9,$2,$3,0*
0 Add four circle primitives for the rounded corners*
1,1,$1+$1,$2,$3*
1,1,$1+$1,$4,$5*
1,1,$1+$1,$6,$7*
1,1,$1+$1,$8,$9*
0 Add four rect primitives between the rounded corners*
20,1,$1+$1,$2,$3,$4,$5,0*
20,1,$1+$1,$4,$5,$6,$7,0*
20,1,$1+$1,$6,$7,$8,$9,0*
20,1,$1+$1,$8,$9,$2,$3,0*%
G04 Aperture macros list end*
%ADD10R,1.700000X1.700000*%
%ADD11O,1.700000X1.700000*%
%ADD12C,2.000000*%
%ADD13RoundRect,0.150000X0.750000X-0.350000X0.750000X0.350000X-0.750000X0.350000X-0.750000X-0.350000X0*%
%ADD14RoundRect,0.150000X0.950000X-0.350000X0.950000X0.350000X-0.950000X0.350000X-0.950000X-0.350000X0*%
G04 APERTURE END LIST*
D10*
%TO.C,J1*%
X51800000Y-31300000D03*
D11*
X51800000Y-33840000D03*
X51800000Y-36380000D03*
X51800000Y-38920000D03*
X51800000Y-41460000D03*
X51800000Y-44000000D03*
X51800000Y-46540000D03*
X51800000Y-49080000D03*
%TD*%
D10*
%TO.C,J7*%
X71550000Y-75000000D03*
D11*
X71550000Y-77540000D03*
X71550000Y-80080000D03*
X71550000Y-82620000D03*
%TD*%
D12*
%TO.C,SW2*%
X57320000Y-41830000D03*
X57320000Y-35330000D03*
X61820000Y-41830000D03*
X61820000Y-35330000D03*
%TD*%
D10*
%TO.C,J3*%
X72320000Y-92400000D03*
D11*
X69780000Y-92400000D03*
%TD*%
D13*
%TO.C,J6*%
X85950000Y-62890000D03*
X85950000Y-54250000D03*
D14*
X89950000Y-54250000D03*
X89950000Y-62890000D03*
%TD*%
D10*
%TO.C,J2*%
X51800000Y-69580000D03*
D11*
X51800000Y-72120000D03*
X51800000Y-74660000D03*
X51800000Y-77200000D03*
X51800000Y-79740000D03*
X51800000Y-82280000D03*
X51800000Y-84820000D03*
X51800000Y-87360000D03*
%TD*%
D10*
%TO.C,J4*%
X90300000Y-69580000D03*
D11*
X90300000Y-72120000D03*
X90300000Y-74660000D03*
X90300000Y-77200000D03*
X90300000Y-79740000D03*
X90300000Y-82280000D03*
X90300000Y-84820000D03*
X90300000Y-87360000D03*
%TD*%
D10*
%TO.C,J9*%
X68000000Y-75000000D03*
D11*
X68000000Y-77540000D03*
X68000000Y-80080000D03*
X68000000Y-82620000D03*
%TD*%
D10*
%TO.C,J5*%
X90300000Y-31300000D03*
D11*
X90300000Y-33840000D03*
X90300000Y-36380000D03*
X90300000Y-38920000D03*
X90300000Y-41460000D03*
X90300000Y-44000000D03*
X90300000Y-46540000D03*
X90300000Y-49080000D03*
%TD*%
M02*
