M48
; DRILL file {KiCad 9.0.1} date 2025-05-06T09:51:50+0200
; FORMAT={-:-/ absolute / metric / decimal}
; #@! TF.CreationDate,2025-05-06T09:51:50+02:00
; #@! TF.GenerationSoftware,Kicad,Pcbnew,9.0.1
; #@! TF.FileFunction,Plated,1,2,PTH
FMAT,2
METRIC
; #@! TA.AperFunction,Plated,PTH,ViaDrill
T1C0.300
; #@! TA.AperFunction,Plated,PTH,ComponentDrill
T2C0.600
; #@! TA.AperFunction,Plated,PTH,ComponentDrill
T3C1.000
; #@! TA.AperFunction,Plated,PTH,ComponentDrill
T4C1.100
%
G90
G05
T1
X50.8Y-54.5
X50.8Y-55.1
X50.8Y-55.7
X50.8Y-56.3
X50.8Y-56.9
X50.81Y-68.2
X50.83Y-50.62
X50.84Y-88.41
X51.4Y-54.5
X51.4Y-56.9
X52.5Y-57.5
X52.5Y-60.0
X52.5Y-90.0
X52.5Y-92.5
X53.42Y-31.21
X55.0Y-32.5
X55.0Y-57.5
X55.0Y-60.0
X55.0Y-87.5
X55.0Y-90.0
X56.6Y-60.3
X56.7Y-62.5
X57.5Y-32.0
X57.5Y-37.5
X57.5Y-40.0
X57.5Y-45.0
X57.5Y-47.5
X57.5Y-50.0
X57.5Y-52.5
X57.5Y-57.5
X57.5Y-65.0
X57.5Y-67.5
X57.5Y-70.0
X57.5Y-72.5
X57.59Y-56.75
X57.62Y-54.65
X58.574Y-85.035
X58.65Y-84.1
X59.125Y-85.671
X59.8Y-30.7
X59.8Y-31.3
X60.0Y-37.0
X60.0Y-39.5
X60.0Y-42.0
X60.0Y-45.0
X60.0Y-47.5
X60.0Y-50.0
X60.0Y-52.5
X60.0Y-57.5
X60.0Y-65.0
X60.0Y-67.5
X60.0Y-70.0
X60.0Y-75.0
X60.0Y-77.5
X60.0Y-90.0
X60.0Y-92.5
X60.4Y-30.5
X61.0Y-30.5
X61.09Y-61.28
X61.48Y-31.3
X61.6Y-30.7
X61.607Y-58.99
X61.607Y-59.79
X61.68Y-85.725
X62.2Y-30.5
X62.257Y-63.76
X62.296Y-66.225
X62.3Y-81.479
X62.31Y-86.5
X62.5Y-72.5
X62.5Y-75.0
X62.5Y-77.5
X62.8Y-30.5
X62.907Y-64.713
X62.961Y-66.889
X63.0Y-37.0
X63.0Y-39.5
X63.16Y-31.02
X63.557Y-58.98
X63.557Y-59.78
X64.93Y-92.13
X65.0Y-50.0
X65.0Y-52.5
X65.0Y-55.0
X65.0Y-57.5
X65.0Y-62.5
X65.0Y-65.0
X65.0Y-70.0
X65.0Y-72.5
X65.0Y-82.5
X65.0Y-85.0
X65.0Y-87.5
X65.23Y-63.86
X65.715Y-91.375
X65.86Y-78.9
X66.0Y-35.0
X66.0Y-37.5
X66.0Y-40.0
X66.0Y-42.5
X66.0Y-45.0
X66.561Y-46.425
X66.561Y-47.175
X66.87Y-59.047
X67.207Y-59.772
X67.25Y-68.22
X67.5Y-32.5
X67.5Y-85.0
X67.5Y-87.5
X67.5Y-90.0
X67.5Y-92.5
X68.336Y-46.2
X68.386Y-58.295
X68.617Y-59.061
X68.8Y-67.4
X68.8Y-69.0
X69.086Y-46.2
X69.4Y-67.4
X69.5Y-69.0
X69.77Y-34.83
X69.77Y-35.455
X69.77Y-36.08
X69.77Y-36.7
X69.77Y-37.335
X69.77Y-37.96
X69.77Y-38.58
X69.97Y-56.59
X70.0Y-32.5
X70.0Y-40.0
X70.0Y-42.5
X70.0Y-45.0
X70.0Y-47.5
X70.0Y-50.0
X70.0Y-60.0
X70.0Y-70.0
X70.0Y-72.5
X70.0Y-82.5
X70.0Y-85.0
X70.0Y-87.5
X70.0Y-90.0
X70.395Y-36.08
X70.395Y-37.335
X70.395Y-38.58
X70.405Y-34.83
X71.02Y-34.83
X71.02Y-35.455
X71.02Y-36.08
X71.02Y-36.71
X71.02Y-37.335
X71.02Y-37.96
X71.02Y-38.58
X71.645Y-34.83
X71.645Y-36.08
X71.645Y-37.335
X71.645Y-38.58
X71.9Y-59.81
X71.955Y-67.49
X71.955Y-68.99
X72.275Y-34.83
X72.275Y-35.455
X72.275Y-36.08
X72.275Y-36.7
X72.275Y-37.335
X72.275Y-37.96
X72.275Y-38.58
X72.37Y-65.7
X72.5Y-32.5
X72.5Y-40.0
X72.5Y-42.5
X72.5Y-45.0
X72.5Y-47.5
X72.5Y-50.0
X72.5Y-52.5
X72.5Y-72.5
X72.5Y-85.0
X72.5Y-87.5
X72.5Y-90.0
X72.65Y-68.99
X72.75Y-67.49
X72.765Y-59.085
X72.88Y-37.335
X72.9Y-34.83
X72.9Y-36.08
X72.9Y-38.58
X73.04Y-65.7
X73.094Y-58.296
X73.17Y-65.1
X73.18Y-64.46
X73.41Y-61.97
X73.525Y-34.83
X73.525Y-35.455
X73.525Y-36.08
X73.525Y-36.71
X73.525Y-37.335
X73.525Y-37.96
X73.525Y-38.58
X73.63Y-74.58
X73.7Y-68.24
X73.92Y-76.64
X73.95Y-55.62
X74.373Y-56.726
X74.45Y-67.73
X74.939Y-57.291
X74.999Y-73.1
X75.0Y-32.5
X75.0Y-35.0
X75.0Y-37.5
X75.0Y-40.0
X75.0Y-42.5
X75.0Y-45.0
X75.0Y-47.5
X75.0Y-50.0
X75.0Y-52.5
X75.0Y-55.0
X75.0Y-92.5
X75.068Y-66.048
X75.7Y-68.0
X76.51Y-77.47
X76.72Y-63.04
X76.819Y-66.419
X76.82Y-75.74
X77.17Y-79.0
X77.368Y-62.571
X77.37Y-60.56
X77.5Y-32.5
X77.5Y-35.0
X77.5Y-37.5
X77.5Y-40.0
X77.5Y-42.5
X77.5Y-45.0
X77.5Y-47.5
X77.5Y-50.0
X77.5Y-52.5
X77.5Y-57.5
X77.5Y-82.5
X77.5Y-85.0
X77.5Y-87.5
X77.5Y-90.0
X77.5Y-92.5
X77.549Y-65.689
X77.81Y-56.65
X77.85Y-77.4
X78.199Y-73.1
X79.04Y-70.58
X79.513Y-56.819
X80.0Y-32.5
X80.0Y-35.0
X80.0Y-65.0
X80.0Y-67.5
X80.0Y-70.0
X80.0Y-85.0
X80.0Y-87.5
X80.0Y-90.0
X80.0Y-92.5
X80.26Y-60.74
X80.324Y-56.82
X80.614Y-62.624
X80.63Y-45.99
X80.66Y-34.4
X80.66Y-44.99
X80.76Y-31.49
X81.25Y-78.86
X81.56Y-51.17
X82.5Y-87.5
X82.5Y-90.0
X82.5Y-92.5
X83.06Y-31.5
X83.16Y-33.6
X83.16Y-34.4
X83.18Y-58.83
X83.21Y-84.2
X83.29Y-48.18
X83.3Y-42.4
X83.4Y-46.2
X83.46Y-58.32
X83.475Y-43.7
X83.475Y-45.0
X83.78Y-58.82
X84.3Y-32.9
X85.0Y-52.5
X85.0Y-65.0
X85.0Y-67.5
X85.0Y-70.0
X85.0Y-72.5
X85.0Y-75.0
X85.0Y-77.5
X85.0Y-85.0
X85.0Y-90.0
X85.0Y-92.5
X85.16Y-49.04
X85.18Y-40.0
X85.38Y-38.34
X85.4Y-34.4
X85.58Y-49.46
X85.8Y-40.0
X86.0Y-49.88
X86.45Y-39.8
X86.71Y-74.11
X86.799Y-49.758
X86.847Y-48.887
X87.5Y-34.5
X87.5Y-42.5
X87.5Y-45.0
X87.5Y-90.0
X87.5Y-92.5
X88.12Y-83.53
X88.73Y-31.07
X90.0Y-52.5
X90.0Y-55.0
X90.0Y-57.5
X90.0Y-60.0
X90.0Y-65.0
X90.0Y-67.5
X90.0Y-90.0
X90.0Y-92.5
T3
X51.8Y-31.3
X51.8Y-33.84
X51.8Y-36.38
X51.8Y-38.92
X51.8Y-41.46
X51.8Y-44.0
X51.8Y-46.54
X51.8Y-49.08
X51.8Y-69.58
X51.8Y-72.12
X51.8Y-74.66
X51.8Y-77.2
X51.8Y-79.74
X51.8Y-82.28
X51.8Y-84.82
X51.8Y-87.36
X68.0Y-75.0
X68.0Y-77.54
X68.0Y-80.08
X68.0Y-82.62
X69.78Y-92.4
X71.55Y-75.0
X71.55Y-77.54
X71.55Y-80.08
X71.55Y-82.62
X72.32Y-92.4
X90.3Y-31.3
X90.3Y-33.84
X90.3Y-36.38
X90.3Y-38.92
X90.3Y-41.46
X90.3Y-44.0
X90.3Y-46.54
X90.3Y-49.08
X90.3Y-69.58
X90.3Y-72.12
X90.3Y-74.66
X90.3Y-77.2
X90.3Y-79.74
X90.3Y-82.28
X90.3Y-84.82
X90.3Y-87.36
T4
X57.32Y-35.33
X57.32Y-41.83
X61.82Y-35.33
X61.82Y-41.83
T2
G00X85.55Y-54.25
M15
G01X86.35Y-54.25
M16
G05
G00X85.55Y-62.89
M15
G01X86.35Y-62.89
M16
G05
G00X89.35Y-54.25
M15
G01X90.55Y-54.25
M16
G05
G00X89.35Y-62.89
M15
G01X90.55Y-62.89
M16
G05
M30
