M48
; DRILL file {KiCad 9.0.1} date 2025-05-06T09:48:11+0200
; FORMAT={-:-/ absolute / metric / decimal}
; #@! TF.CreationDate,2025-05-06T09:48:11+02:00
; #@! TF.GenerationSoftware,Kicad,Pcbnew,9.0.1
; #@! TF.FileFunction,Plated,1,2,PTH
FMAT,2
METRIC
; #@! TA.AperFunction,Plated,PTH,ViaDrill
T1C0.300
; #@! TA.AperFunction,Plated,PTH,ComponentDrill
T2C1.000
%
G90
G05
T1
X53.0Y-137.5
X53.0Y-142.5
X53.0Y-145.0
X54.725Y-107.6
X55.5Y-110.0
X55.5Y-112.5
X55.5Y-115.0
X55.5Y-117.5
X55.5Y-120.0
X55.5Y-122.5
X55.5Y-125.0
X55.5Y-127.5
X55.5Y-130.0
X55.5Y-132.5
X55.5Y-135.0
X55.5Y-145.0
X55.5Y-155.0
X56.0Y-141.9
X56.1Y-109.9
X56.6Y-142.0
X56.7Y-110.0
X57.2Y-141.9
X57.288Y-106.175
X57.3Y-109.8
X57.5Y-108.6
X57.5Y-109.2
X57.5Y-140.7
X57.5Y-141.3
X58.0Y-102.5
X58.0Y-145.0
X60.5Y-100.0
X60.5Y-107.5
X60.5Y-110.0
X60.5Y-112.5
X60.5Y-115.0
X60.5Y-117.5
X60.5Y-120.0
X60.5Y-122.5
X60.5Y-125.0
X60.5Y-127.5
X60.5Y-130.0
X60.5Y-132.5
X60.5Y-135.0
X60.5Y-137.5
X60.5Y-140.0
X60.5Y-142.5
X60.5Y-145.0
X60.5Y-147.5
X60.5Y-152.5
X63.0Y-95.0
X63.0Y-97.5
X63.0Y-105.0
X63.0Y-107.5
X63.0Y-110.0
X65.5Y-92.5
X65.5Y-95.0
X65.5Y-102.5
X65.5Y-105.0
X68.0Y-90.0
X68.0Y-92.5
X68.0Y-100.0
X68.0Y-102.5
X70.5Y-87.5
X70.5Y-90.0
X70.5Y-97.5
X70.5Y-100.0
X72.327Y-83.407
X73.0Y-85.0
X73.0Y-87.5
X73.0Y-95.0
X73.0Y-97.5
X74.0Y-84.9
X74.6Y-85.0
X75.2Y-84.9
X75.5Y-82.5
X75.5Y-83.8
X75.5Y-84.4
X75.5Y-92.5
X76.0Y-81.5
X76.54Y-76.3
X78.0Y-80.0
X78.0Y-82.5
X78.0Y-90.0
X80.5Y-77.5
X80.5Y-80.0
X80.5Y-87.5
X83.0Y-75.0
X83.0Y-77.5
X83.62Y-69.06
X85.5Y-55.0
X85.5Y-57.5
X85.5Y-60.0
X85.5Y-62.5
X85.5Y-65.0
X85.5Y-75.0
X85.5Y-77.5
X88.0Y-52.5
X88.0Y-55.0
X88.0Y-60.0
X88.0Y-62.5
X88.0Y-72.5
X88.0Y-75.0
X90.5Y-52.5
X90.5Y-60.0
X93.0Y-52.5
X93.0Y-55.0
X93.0Y-62.5
X93.0Y-67.5
X93.0Y-75.0
X95.5Y-52.5
X95.5Y-55.0
X95.5Y-60.0
X95.5Y-62.5
X95.5Y-67.5
X95.5Y-72.5
X95.5Y-75.0
X98.0Y-52.5
X98.0Y-55.0
X98.0Y-60.0
X98.0Y-62.5
X98.0Y-70.0
X98.0Y-72.5
X98.0Y-75.0
X99.438Y-57.737
X100.5Y-52.5
X100.5Y-60.0
X100.5Y-62.5
X100.5Y-70.0
X100.5Y-72.5
X100.5Y-75.0
X101.6Y-60.0
X102.2Y-60.0
X102.388Y-56.365
X102.4Y-59.4
X102.5Y-58.8
X103.0Y-52.5
X103.0Y-55.0
X103.0Y-57.5
X103.0Y-60.0
X103.0Y-67.5
X103.0Y-70.0
X103.0Y-72.5
X103.0Y-75.0
X105.5Y-52.5
X105.5Y-55.0
X105.5Y-57.5
X105.5Y-65.0
X105.5Y-67.5
X105.5Y-70.0
X105.5Y-72.5
X105.5Y-75.0
X108.0Y-52.5
X108.0Y-55.0
X108.0Y-62.5
X108.0Y-65.0
X108.0Y-67.5
X108.0Y-70.0
X108.0Y-72.5
X108.0Y-75.0
X110.5Y-52.5
X110.5Y-55.0
X110.5Y-62.5
X110.5Y-65.0
X110.5Y-67.5
X110.5Y-70.0
X110.5Y-72.5
X110.5Y-75.0
X113.0Y-52.5
X113.0Y-55.0
X113.0Y-62.5
X113.0Y-65.0
X113.0Y-67.5
X113.0Y-70.0
X113.0Y-75.0
X114.0Y-60.9
X115.5Y-52.5
X115.5Y-55.0
X115.5Y-70.0
X115.5Y-75.0
X116.2Y-60.9
X117.5Y-69.6
X117.5Y-70.2
X118.0Y-52.5
X118.0Y-69.3
X118.0Y-69.9
X118.0Y-70.5
X118.0Y-72.5
X118.0Y-75.0
X118.5Y-69.6
X118.5Y-70.2
X119.6Y-55.0
X119.6Y-55.6
X119.6Y-56.2
X119.6Y-62.2
X120.2Y-55.0
X120.5Y-52.5
X120.5Y-70.0
X120.5Y-72.5
X120.5Y-75.0
X120.8Y-55.0
X121.4Y-55.0
X121.7Y-68.0
X122.0Y-55.0
X122.0Y-55.6
X122.0Y-62.3
X122.6Y-66.2
X122.7Y-68.6
X123.0Y-52.5
X123.0Y-55.0
X123.0Y-70.0
X123.0Y-72.5
X123.0Y-75.0
X123.1Y-64.599
X123.8Y-67.7
X123.9Y-64.1
X125.5Y-52.5
X125.5Y-55.0
X125.5Y-62.5
X125.5Y-65.0
X125.5Y-70.0
X125.5Y-72.5
X125.5Y-75.0
X125.9Y-67.6
X126.9Y-69.1
X127.8Y-68.2
X128.0Y-52.5
X128.0Y-55.0
X128.0Y-62.5
X128.0Y-65.0
X128.0Y-67.5
X128.0Y-70.0
X128.0Y-72.5
X128.0Y-75.0
X130.5Y-52.5
X130.5Y-55.0
X130.5Y-62.5
X130.5Y-65.0
X130.5Y-67.5
X130.5Y-70.0
X130.5Y-72.5
X130.5Y-75.0
X131.859Y-57.441
X133.0Y-52.5
X133.0Y-55.0
X133.0Y-65.0
X133.0Y-67.5
X133.0Y-70.0
X133.0Y-72.5
X133.0Y-75.0
X135.5Y-52.5
X135.5Y-67.5
X135.5Y-70.0
X135.5Y-72.5
X135.5Y-75.0
X136.0Y-59.8
X136.4Y-56.0
X136.6Y-60.0
X137.2Y-59.9
X137.5Y-58.8
X137.5Y-59.4
X138.0Y-52.5
X138.0Y-55.0
X138.0Y-57.5
X138.0Y-60.0
X138.0Y-62.5
X138.0Y-70.0
X138.0Y-72.5
X138.0Y-75.0
X140.5Y-52.5
X140.5Y-55.0
X140.5Y-57.5
X140.5Y-60.0
X140.5Y-62.5
X140.5Y-70.0
X140.5Y-72.5
X140.5Y-75.0
X143.0Y-52.5
X143.0Y-60.0
X143.0Y-62.5
X143.0Y-75.0
X145.5Y-52.5
X145.5Y-60.0
X145.5Y-62.5
X145.5Y-75.0
X148.0Y-52.5
X148.0Y-57.5
X148.0Y-60.0
X148.0Y-62.5
X148.0Y-70.0
X148.0Y-72.5
X148.0Y-75.0
X148.0Y-77.5
X150.5Y-55.0
X150.5Y-60.0
X150.5Y-62.5
X150.5Y-65.0
X150.5Y-80.0
X153.0Y-75.0
X153.0Y-77.5
X153.0Y-82.5
X155.5Y-77.5
X155.5Y-80.0
X155.5Y-85.0
X155.5Y-87.5
X158.0Y-80.0
X158.0Y-82.5
X158.0Y-87.5
X158.0Y-90.0
X159.05Y-79.214
X159.66Y-81.4
X160.5Y-90.0
X160.5Y-92.5
X161.6Y-82.7
X161.675Y-79.291
X163.0Y-84.9
X163.0Y-92.5
X163.0Y-95.0
X163.6Y-85.0
X164.2Y-85.0
X164.5Y-83.9
X164.5Y-84.5
X165.5Y-85.0
X165.5Y-87.5
X165.5Y-95.0
X165.5Y-97.5
X165.5Y-100.0
X168.0Y-90.0
X168.0Y-97.5
X168.0Y-100.0
X168.0Y-102.5
X170.5Y-92.5
X170.5Y-100.0
X170.5Y-102.5
X170.5Y-105.0
X173.0Y-95.0
X173.0Y-102.5
X173.0Y-105.0
X173.0Y-107.5
X173.0Y-110.0
X175.5Y-97.5
X175.5Y-105.0
X175.5Y-107.5
X175.5Y-110.0
X175.5Y-112.5
X175.5Y-115.0
X177.915Y-136.835
X177.931Y-104.75
X178.0Y-100.0
X178.0Y-142.5
X178.0Y-145.0
X178.822Y-104.878
X179.6Y-107.9
X179.8Y-140.4
X180.5Y-110.0
X180.5Y-112.5
X180.5Y-115.0
X180.5Y-117.5
X180.5Y-120.0
X180.5Y-122.5
X180.5Y-125.0
X180.5Y-127.5
X180.5Y-130.0
X180.5Y-132.5
X180.5Y-135.0
X180.5Y-142.5
X180.5Y-145.0
X181.0Y-141.9
X181.2Y-105.0
X181.4Y-137.2
X181.6Y-110.0
X181.6Y-142.0
X182.2Y-109.9
X182.2Y-141.9
X182.4Y-141.3
X182.5Y-108.8
X182.5Y-109.4
X182.5Y-140.7
X183.0Y-107.5
X183.0Y-110.0
X183.0Y-112.5
X183.0Y-115.0
X183.0Y-117.5
X183.0Y-120.0
X183.0Y-122.5
X183.0Y-125.0
X183.0Y-127.5
X183.0Y-130.0
X183.0Y-132.5
X183.0Y-135.0
X183.0Y-137.5
X183.0Y-140.0
X183.0Y-142.5
X183.0Y-145.0
X185.5Y-112.5
X185.5Y-115.0
X185.5Y-117.5
X185.5Y-120.0
X185.5Y-122.5
X185.5Y-125.0
X185.5Y-127.5
X185.5Y-130.0
X185.5Y-132.5
X185.5Y-135.0
X185.5Y-137.5
X185.5Y-140.0
X185.5Y-142.5
X185.5Y-145.0
X185.5Y-147.5
T2
X114.2Y-71.5
X116.74Y-71.5
X119.28Y-71.5
X121.82Y-71.5
M30
