%TF.GenerationSoftware,KiCad,Pcbnew,9.0.1*%
%TF.CreationDate,2025-05-06T09:48:22+02:00*%
%TF.ProjectId,lijnsensor V2,6c696a6e-7365-46e7-936f-722056322e6b,rev?*%
%TF.SameCoordinates,Original*%
%TF.FileFunction,Legend,Top*%
%TF.FilePolarity,Positive*%
%FSLAX46Y46*%
G04 Gerber Fmt 4.6, Leading zero omitted, Abs format (unit mm)*
G04 Created by KiCad (PCBNEW 9.0.1) date 2025-05-06 09:48:22*
%MOMM*%
%LPD*%
G01*
G04 APERTURE LIST*
%ADD10C,0.150000*%
%ADD11C,0.120000*%
G04 APERTURE END LIST*
D10*
X54354819Y-111142857D02*
X53878628Y-111476190D01*
X54354819Y-111714285D02*
X53354819Y-111714285D01*
X53354819Y-111714285D02*
X53354819Y-111333333D01*
X53354819Y-111333333D02*
X53402438Y-111238095D01*
X53402438Y-111238095D02*
X53450057Y-111190476D01*
X53450057Y-111190476D02*
X53545295Y-111142857D01*
X53545295Y-111142857D02*
X53688152Y-111142857D01*
X53688152Y-111142857D02*
X53783390Y-111190476D01*
X53783390Y-111190476D02*
X53831009Y-111238095D01*
X53831009Y-111238095D02*
X53878628Y-111333333D01*
X53878628Y-111333333D02*
X53878628Y-111714285D01*
X54354819Y-110190476D02*
X54354819Y-110761904D01*
X54354819Y-110476190D02*
X53354819Y-110476190D01*
X53354819Y-110476190D02*
X53497676Y-110571428D01*
X53497676Y-110571428D02*
X53592914Y-110666666D01*
X53592914Y-110666666D02*
X53640533Y-110761904D01*
X53354819Y-109333333D02*
X53354819Y-109523809D01*
X53354819Y-109523809D02*
X53402438Y-109619047D01*
X53402438Y-109619047D02*
X53450057Y-109666666D01*
X53450057Y-109666666D02*
X53592914Y-109761904D01*
X53592914Y-109761904D02*
X53783390Y-109809523D01*
X53783390Y-109809523D02*
X54164342Y-109809523D01*
X54164342Y-109809523D02*
X54259580Y-109761904D01*
X54259580Y-109761904D02*
X54307200Y-109714285D01*
X54307200Y-109714285D02*
X54354819Y-109619047D01*
X54354819Y-109619047D02*
X54354819Y-109428571D01*
X54354819Y-109428571D02*
X54307200Y-109333333D01*
X54307200Y-109333333D02*
X54259580Y-109285714D01*
X54259580Y-109285714D02*
X54164342Y-109238095D01*
X54164342Y-109238095D02*
X53926247Y-109238095D01*
X53926247Y-109238095D02*
X53831009Y-109285714D01*
X53831009Y-109285714D02*
X53783390Y-109333333D01*
X53783390Y-109333333D02*
X53735771Y-109428571D01*
X53735771Y-109428571D02*
X53735771Y-109619047D01*
X53735771Y-109619047D02*
X53783390Y-109714285D01*
X53783390Y-109714285D02*
X53831009Y-109761904D01*
X53831009Y-109761904D02*
X53926247Y-109809523D01*
X71079819Y-85537857D02*
X70603628Y-85871190D01*
X71079819Y-86109285D02*
X70079819Y-86109285D01*
X70079819Y-86109285D02*
X70079819Y-85728333D01*
X70079819Y-85728333D02*
X70127438Y-85633095D01*
X70127438Y-85633095D02*
X70175057Y-85585476D01*
X70175057Y-85585476D02*
X70270295Y-85537857D01*
X70270295Y-85537857D02*
X70413152Y-85537857D01*
X70413152Y-85537857D02*
X70508390Y-85585476D01*
X70508390Y-85585476D02*
X70556009Y-85633095D01*
X70556009Y-85633095D02*
X70603628Y-85728333D01*
X70603628Y-85728333D02*
X70603628Y-86109285D01*
X71079819Y-84585476D02*
X71079819Y-85156904D01*
X71079819Y-84871190D02*
X70079819Y-84871190D01*
X70079819Y-84871190D02*
X70222676Y-84966428D01*
X70222676Y-84966428D02*
X70317914Y-85061666D01*
X70317914Y-85061666D02*
X70365533Y-85156904D01*
X70413152Y-83728333D02*
X71079819Y-83728333D01*
X70032200Y-83966428D02*
X70746485Y-84204523D01*
X70746485Y-84204523D02*
X70746485Y-83585476D01*
X164438095Y-83354819D02*
X164438095Y-84164342D01*
X164438095Y-84164342D02*
X164485714Y-84259580D01*
X164485714Y-84259580D02*
X164533333Y-84307200D01*
X164533333Y-84307200D02*
X164628571Y-84354819D01*
X164628571Y-84354819D02*
X164819047Y-84354819D01*
X164819047Y-84354819D02*
X164914285Y-84307200D01*
X164914285Y-84307200D02*
X164961904Y-84259580D01*
X164961904Y-84259580D02*
X165009523Y-84164342D01*
X165009523Y-84164342D02*
X165009523Y-83354819D01*
X165961904Y-83354819D02*
X165485714Y-83354819D01*
X165485714Y-83354819D02*
X165438095Y-83831009D01*
X165438095Y-83831009D02*
X165485714Y-83783390D01*
X165485714Y-83783390D02*
X165580952Y-83735771D01*
X165580952Y-83735771D02*
X165819047Y-83735771D01*
X165819047Y-83735771D02*
X165914285Y-83783390D01*
X165914285Y-83783390D02*
X165961904Y-83831009D01*
X165961904Y-83831009D02*
X166009523Y-83926247D01*
X166009523Y-83926247D02*
X166009523Y-84164342D01*
X166009523Y-84164342D02*
X165961904Y-84259580D01*
X165961904Y-84259580D02*
X165914285Y-84307200D01*
X165914285Y-84307200D02*
X165819047Y-84354819D01*
X165819047Y-84354819D02*
X165580952Y-84354819D01*
X165580952Y-84354819D02*
X165485714Y-84307200D01*
X165485714Y-84307200D02*
X165438095Y-84259580D01*
X137588095Y-57454819D02*
X137588095Y-58264342D01*
X137588095Y-58264342D02*
X137635714Y-58359580D01*
X137635714Y-58359580D02*
X137683333Y-58407200D01*
X137683333Y-58407200D02*
X137778571Y-58454819D01*
X137778571Y-58454819D02*
X137969047Y-58454819D01*
X137969047Y-58454819D02*
X138064285Y-58407200D01*
X138064285Y-58407200D02*
X138111904Y-58359580D01*
X138111904Y-58359580D02*
X138159523Y-58264342D01*
X138159523Y-58264342D02*
X138159523Y-57454819D01*
X139064285Y-57788152D02*
X139064285Y-58454819D01*
X138826190Y-57407200D02*
X138588095Y-58121485D01*
X138588095Y-58121485D02*
X139207142Y-58121485D01*
X75463095Y-82454819D02*
X75463095Y-83264342D01*
X75463095Y-83264342D02*
X75510714Y-83359580D01*
X75510714Y-83359580D02*
X75558333Y-83407200D01*
X75558333Y-83407200D02*
X75653571Y-83454819D01*
X75653571Y-83454819D02*
X75844047Y-83454819D01*
X75844047Y-83454819D02*
X75939285Y-83407200D01*
X75939285Y-83407200D02*
X75986904Y-83359580D01*
X75986904Y-83359580D02*
X76034523Y-83264342D01*
X76034523Y-83264342D02*
X76034523Y-82454819D01*
X76558333Y-83454819D02*
X76748809Y-83454819D01*
X76748809Y-83454819D02*
X76844047Y-83407200D01*
X76844047Y-83407200D02*
X76891666Y-83359580D01*
X76891666Y-83359580D02*
X76986904Y-83216723D01*
X76986904Y-83216723D02*
X77034523Y-83026247D01*
X77034523Y-83026247D02*
X77034523Y-82645295D01*
X77034523Y-82645295D02*
X76986904Y-82550057D01*
X76986904Y-82550057D02*
X76939285Y-82502438D01*
X76939285Y-82502438D02*
X76844047Y-82454819D01*
X76844047Y-82454819D02*
X76653571Y-82454819D01*
X76653571Y-82454819D02*
X76558333Y-82502438D01*
X76558333Y-82502438D02*
X76510714Y-82550057D01*
X76510714Y-82550057D02*
X76463095Y-82645295D01*
X76463095Y-82645295D02*
X76463095Y-82883390D01*
X76463095Y-82883390D02*
X76510714Y-82978628D01*
X76510714Y-82978628D02*
X76558333Y-83026247D01*
X76558333Y-83026247D02*
X76653571Y-83073866D01*
X76653571Y-83073866D02*
X76844047Y-83073866D01*
X76844047Y-83073866D02*
X76939285Y-83026247D01*
X76939285Y-83026247D02*
X76986904Y-82978628D01*
X76986904Y-82978628D02*
X77034523Y-82883390D01*
X182438095Y-107454819D02*
X182438095Y-108264342D01*
X182438095Y-108264342D02*
X182485714Y-108359580D01*
X182485714Y-108359580D02*
X182533333Y-108407200D01*
X182533333Y-108407200D02*
X182628571Y-108454819D01*
X182628571Y-108454819D02*
X182819047Y-108454819D01*
X182819047Y-108454819D02*
X182914285Y-108407200D01*
X182914285Y-108407200D02*
X182961904Y-108359580D01*
X182961904Y-108359580D02*
X183009523Y-108264342D01*
X183009523Y-108264342D02*
X183009523Y-107454819D01*
X183914285Y-107454819D02*
X183723809Y-107454819D01*
X183723809Y-107454819D02*
X183628571Y-107502438D01*
X183628571Y-107502438D02*
X183580952Y-107550057D01*
X183580952Y-107550057D02*
X183485714Y-107692914D01*
X183485714Y-107692914D02*
X183438095Y-107883390D01*
X183438095Y-107883390D02*
X183438095Y-108264342D01*
X183438095Y-108264342D02*
X183485714Y-108359580D01*
X183485714Y-108359580D02*
X183533333Y-108407200D01*
X183533333Y-108407200D02*
X183628571Y-108454819D01*
X183628571Y-108454819D02*
X183819047Y-108454819D01*
X183819047Y-108454819D02*
X183914285Y-108407200D01*
X183914285Y-108407200D02*
X183961904Y-108359580D01*
X183961904Y-108359580D02*
X184009523Y-108264342D01*
X184009523Y-108264342D02*
X184009523Y-108026247D01*
X184009523Y-108026247D02*
X183961904Y-107931009D01*
X183961904Y-107931009D02*
X183914285Y-107883390D01*
X183914285Y-107883390D02*
X183819047Y-107835771D01*
X183819047Y-107835771D02*
X183628571Y-107835771D01*
X183628571Y-107835771D02*
X183533333Y-107883390D01*
X183533333Y-107883390D02*
X183485714Y-107931009D01*
X183485714Y-107931009D02*
X183438095Y-108026247D01*
X182538095Y-139454819D02*
X182538095Y-140264342D01*
X182538095Y-140264342D02*
X182585714Y-140359580D01*
X182585714Y-140359580D02*
X182633333Y-140407200D01*
X182633333Y-140407200D02*
X182728571Y-140454819D01*
X182728571Y-140454819D02*
X182919047Y-140454819D01*
X182919047Y-140454819D02*
X183014285Y-140407200D01*
X183014285Y-140407200D02*
X183061904Y-140359580D01*
X183061904Y-140359580D02*
X183109523Y-140264342D01*
X183109523Y-140264342D02*
X183109523Y-139454819D01*
X183490476Y-139454819D02*
X184157142Y-139454819D01*
X184157142Y-139454819D02*
X183728571Y-140454819D01*
X177864819Y-107666666D02*
X177388628Y-107999999D01*
X177864819Y-108238094D02*
X176864819Y-108238094D01*
X176864819Y-108238094D02*
X176864819Y-107857142D01*
X176864819Y-107857142D02*
X176912438Y-107761904D01*
X176912438Y-107761904D02*
X176960057Y-107714285D01*
X176960057Y-107714285D02*
X177055295Y-107666666D01*
X177055295Y-107666666D02*
X177198152Y-107666666D01*
X177198152Y-107666666D02*
X177293390Y-107714285D01*
X177293390Y-107714285D02*
X177341009Y-107761904D01*
X177341009Y-107761904D02*
X177388628Y-107857142D01*
X177388628Y-107857142D02*
X177388628Y-108238094D01*
X177293390Y-107095237D02*
X177245771Y-107190475D01*
X177245771Y-107190475D02*
X177198152Y-107238094D01*
X177198152Y-107238094D02*
X177102914Y-107285713D01*
X177102914Y-107285713D02*
X177055295Y-107285713D01*
X177055295Y-107285713D02*
X176960057Y-107238094D01*
X176960057Y-107238094D02*
X176912438Y-107190475D01*
X176912438Y-107190475D02*
X176864819Y-107095237D01*
X176864819Y-107095237D02*
X176864819Y-106904761D01*
X176864819Y-106904761D02*
X176912438Y-106809523D01*
X176912438Y-106809523D02*
X176960057Y-106761904D01*
X176960057Y-106761904D02*
X177055295Y-106714285D01*
X177055295Y-106714285D02*
X177102914Y-106714285D01*
X177102914Y-106714285D02*
X177198152Y-106761904D01*
X177198152Y-106761904D02*
X177245771Y-106809523D01*
X177245771Y-106809523D02*
X177293390Y-106904761D01*
X177293390Y-106904761D02*
X177293390Y-107095237D01*
X177293390Y-107095237D02*
X177341009Y-107190475D01*
X177341009Y-107190475D02*
X177388628Y-107238094D01*
X177388628Y-107238094D02*
X177483866Y-107285713D01*
X177483866Y-107285713D02*
X177674342Y-107285713D01*
X177674342Y-107285713D02*
X177769580Y-107238094D01*
X177769580Y-107238094D02*
X177817200Y-107190475D01*
X177817200Y-107190475D02*
X177864819Y-107095237D01*
X177864819Y-107095237D02*
X177864819Y-106904761D01*
X177864819Y-106904761D02*
X177817200Y-106809523D01*
X177817200Y-106809523D02*
X177769580Y-106761904D01*
X177769580Y-106761904D02*
X177674342Y-106714285D01*
X177674342Y-106714285D02*
X177483866Y-106714285D01*
X177483866Y-106714285D02*
X177388628Y-106761904D01*
X177388628Y-106761904D02*
X177341009Y-106809523D01*
X177341009Y-106809523D02*
X177293390Y-106904761D01*
X128689580Y-67566666D02*
X128737200Y-67614285D01*
X128737200Y-67614285D02*
X128784819Y-67757142D01*
X128784819Y-67757142D02*
X128784819Y-67852380D01*
X128784819Y-67852380D02*
X128737200Y-67995237D01*
X128737200Y-67995237D02*
X128641961Y-68090475D01*
X128641961Y-68090475D02*
X128546723Y-68138094D01*
X128546723Y-68138094D02*
X128356247Y-68185713D01*
X128356247Y-68185713D02*
X128213390Y-68185713D01*
X128213390Y-68185713D02*
X128022914Y-68138094D01*
X128022914Y-68138094D02*
X127927676Y-68090475D01*
X127927676Y-68090475D02*
X127832438Y-67995237D01*
X127832438Y-67995237D02*
X127784819Y-67852380D01*
X127784819Y-67852380D02*
X127784819Y-67757142D01*
X127784819Y-67757142D02*
X127832438Y-67614285D01*
X127832438Y-67614285D02*
X127880057Y-67566666D01*
X127880057Y-67185713D02*
X127832438Y-67138094D01*
X127832438Y-67138094D02*
X127784819Y-67042856D01*
X127784819Y-67042856D02*
X127784819Y-66804761D01*
X127784819Y-66804761D02*
X127832438Y-66709523D01*
X127832438Y-66709523D02*
X127880057Y-66661904D01*
X127880057Y-66661904D02*
X127975295Y-66614285D01*
X127975295Y-66614285D02*
X128070533Y-66614285D01*
X128070533Y-66614285D02*
X128213390Y-66661904D01*
X128213390Y-66661904D02*
X128784819Y-67233332D01*
X128784819Y-67233332D02*
X128784819Y-66614285D01*
X111324819Y-71833333D02*
X112039104Y-71833333D01*
X112039104Y-71833333D02*
X112181961Y-71880952D01*
X112181961Y-71880952D02*
X112277200Y-71976190D01*
X112277200Y-71976190D02*
X112324819Y-72119047D01*
X112324819Y-72119047D02*
X112324819Y-72214285D01*
X112324819Y-70833333D02*
X112324819Y-71404761D01*
X112324819Y-71119047D02*
X111324819Y-71119047D01*
X111324819Y-71119047D02*
X111467676Y-71214285D01*
X111467676Y-71214285D02*
X111562914Y-71309523D01*
X111562914Y-71309523D02*
X111610533Y-71404761D01*
X57461905Y-107454819D02*
X57461905Y-108264342D01*
X57461905Y-108264342D02*
X57509524Y-108359580D01*
X57509524Y-108359580D02*
X57557143Y-108407200D01*
X57557143Y-108407200D02*
X57652381Y-108454819D01*
X57652381Y-108454819D02*
X57842857Y-108454819D01*
X57842857Y-108454819D02*
X57938095Y-108407200D01*
X57938095Y-108407200D02*
X57985714Y-108359580D01*
X57985714Y-108359580D02*
X58033333Y-108264342D01*
X58033333Y-108264342D02*
X58033333Y-107454819D01*
X59033333Y-108454819D02*
X58461905Y-108454819D01*
X58747619Y-108454819D02*
X58747619Y-107454819D01*
X58747619Y-107454819D02*
X58652381Y-107597676D01*
X58652381Y-107597676D02*
X58557143Y-107692914D01*
X58557143Y-107692914D02*
X58461905Y-107740533D01*
X59652381Y-107454819D02*
X59747619Y-107454819D01*
X59747619Y-107454819D02*
X59842857Y-107502438D01*
X59842857Y-107502438D02*
X59890476Y-107550057D01*
X59890476Y-107550057D02*
X59938095Y-107645295D01*
X59938095Y-107645295D02*
X59985714Y-107835771D01*
X59985714Y-107835771D02*
X59985714Y-108073866D01*
X59985714Y-108073866D02*
X59938095Y-108264342D01*
X59938095Y-108264342D02*
X59890476Y-108359580D01*
X59890476Y-108359580D02*
X59842857Y-108407200D01*
X59842857Y-108407200D02*
X59747619Y-108454819D01*
X59747619Y-108454819D02*
X59652381Y-108454819D01*
X59652381Y-108454819D02*
X59557143Y-108407200D01*
X59557143Y-108407200D02*
X59509524Y-108359580D01*
X59509524Y-108359580D02*
X59461905Y-108264342D01*
X59461905Y-108264342D02*
X59414286Y-108073866D01*
X59414286Y-108073866D02*
X59414286Y-107835771D01*
X59414286Y-107835771D02*
X59461905Y-107645295D01*
X59461905Y-107645295D02*
X59509524Y-107550057D01*
X59509524Y-107550057D02*
X59557143Y-107502438D01*
X59557143Y-107502438D02*
X59652381Y-107454819D01*
X52901819Y-139766666D02*
X52425628Y-140099999D01*
X52901819Y-140338094D02*
X51901819Y-140338094D01*
X51901819Y-140338094D02*
X51901819Y-139957142D01*
X51901819Y-139957142D02*
X51949438Y-139861904D01*
X51949438Y-139861904D02*
X51997057Y-139814285D01*
X51997057Y-139814285D02*
X52092295Y-139766666D01*
X52092295Y-139766666D02*
X52235152Y-139766666D01*
X52235152Y-139766666D02*
X52330390Y-139814285D01*
X52330390Y-139814285D02*
X52378009Y-139861904D01*
X52378009Y-139861904D02*
X52425628Y-139957142D01*
X52425628Y-139957142D02*
X52425628Y-140338094D01*
X51997057Y-139385713D02*
X51949438Y-139338094D01*
X51949438Y-139338094D02*
X51901819Y-139242856D01*
X51901819Y-139242856D02*
X51901819Y-139004761D01*
X51901819Y-139004761D02*
X51949438Y-138909523D01*
X51949438Y-138909523D02*
X51997057Y-138861904D01*
X51997057Y-138861904D02*
X52092295Y-138814285D01*
X52092295Y-138814285D02*
X52187533Y-138814285D01*
X52187533Y-138814285D02*
X52330390Y-138861904D01*
X52330390Y-138861904D02*
X52901819Y-139433332D01*
X52901819Y-139433332D02*
X52901819Y-138814285D01*
X123138095Y-64654819D02*
X123138095Y-65464342D01*
X123138095Y-65464342D02*
X123185714Y-65559580D01*
X123185714Y-65559580D02*
X123233333Y-65607200D01*
X123233333Y-65607200D02*
X123328571Y-65654819D01*
X123328571Y-65654819D02*
X123519047Y-65654819D01*
X123519047Y-65654819D02*
X123614285Y-65607200D01*
X123614285Y-65607200D02*
X123661904Y-65559580D01*
X123661904Y-65559580D02*
X123709523Y-65464342D01*
X123709523Y-65464342D02*
X123709523Y-64654819D01*
X124090476Y-64654819D02*
X124709523Y-64654819D01*
X124709523Y-64654819D02*
X124376190Y-65035771D01*
X124376190Y-65035771D02*
X124519047Y-65035771D01*
X124519047Y-65035771D02*
X124614285Y-65083390D01*
X124614285Y-65083390D02*
X124661904Y-65131009D01*
X124661904Y-65131009D02*
X124709523Y-65226247D01*
X124709523Y-65226247D02*
X124709523Y-65464342D01*
X124709523Y-65464342D02*
X124661904Y-65559580D01*
X124661904Y-65559580D02*
X124614285Y-65607200D01*
X124614285Y-65607200D02*
X124519047Y-65654819D01*
X124519047Y-65654819D02*
X124233333Y-65654819D01*
X124233333Y-65654819D02*
X124138095Y-65607200D01*
X124138095Y-65607200D02*
X124090476Y-65559580D01*
X55557142Y-104354819D02*
X55223809Y-103878628D01*
X54985714Y-104354819D02*
X54985714Y-103354819D01*
X54985714Y-103354819D02*
X55366666Y-103354819D01*
X55366666Y-103354819D02*
X55461904Y-103402438D01*
X55461904Y-103402438D02*
X55509523Y-103450057D01*
X55509523Y-103450057D02*
X55557142Y-103545295D01*
X55557142Y-103545295D02*
X55557142Y-103688152D01*
X55557142Y-103688152D02*
X55509523Y-103783390D01*
X55509523Y-103783390D02*
X55461904Y-103831009D01*
X55461904Y-103831009D02*
X55366666Y-103878628D01*
X55366666Y-103878628D02*
X54985714Y-103878628D01*
X56509523Y-104354819D02*
X55938095Y-104354819D01*
X56223809Y-104354819D02*
X56223809Y-103354819D01*
X56223809Y-103354819D02*
X56128571Y-103497676D01*
X56128571Y-103497676D02*
X56033333Y-103592914D01*
X56033333Y-103592914D02*
X55938095Y-103640533D01*
X57414285Y-103354819D02*
X56938095Y-103354819D01*
X56938095Y-103354819D02*
X56890476Y-103831009D01*
X56890476Y-103831009D02*
X56938095Y-103783390D01*
X56938095Y-103783390D02*
X57033333Y-103735771D01*
X57033333Y-103735771D02*
X57271428Y-103735771D01*
X57271428Y-103735771D02*
X57366666Y-103783390D01*
X57366666Y-103783390D02*
X57414285Y-103831009D01*
X57414285Y-103831009D02*
X57461904Y-103926247D01*
X57461904Y-103926247D02*
X57461904Y-104164342D01*
X57461904Y-104164342D02*
X57414285Y-104259580D01*
X57414285Y-104259580D02*
X57366666Y-104307200D01*
X57366666Y-104307200D02*
X57271428Y-104354819D01*
X57271428Y-104354819D02*
X57033333Y-104354819D01*
X57033333Y-104354819D02*
X56938095Y-104307200D01*
X56938095Y-104307200D02*
X56890476Y-104259580D01*
X56033333Y-136224819D02*
X55700000Y-135748628D01*
X55461905Y-136224819D02*
X55461905Y-135224819D01*
X55461905Y-135224819D02*
X55842857Y-135224819D01*
X55842857Y-135224819D02*
X55938095Y-135272438D01*
X55938095Y-135272438D02*
X55985714Y-135320057D01*
X55985714Y-135320057D02*
X56033333Y-135415295D01*
X56033333Y-135415295D02*
X56033333Y-135558152D01*
X56033333Y-135558152D02*
X55985714Y-135653390D01*
X55985714Y-135653390D02*
X55938095Y-135701009D01*
X55938095Y-135701009D02*
X55842857Y-135748628D01*
X55842857Y-135748628D02*
X55461905Y-135748628D01*
X56985714Y-136224819D02*
X56414286Y-136224819D01*
X56700000Y-136224819D02*
X56700000Y-135224819D01*
X56700000Y-135224819D02*
X56604762Y-135367676D01*
X56604762Y-135367676D02*
X56509524Y-135462914D01*
X56509524Y-135462914D02*
X56414286Y-135510533D01*
X75037142Y-79494819D02*
X74703809Y-79018628D01*
X74465714Y-79494819D02*
X74465714Y-78494819D01*
X74465714Y-78494819D02*
X74846666Y-78494819D01*
X74846666Y-78494819D02*
X74941904Y-78542438D01*
X74941904Y-78542438D02*
X74989523Y-78590057D01*
X74989523Y-78590057D02*
X75037142Y-78685295D01*
X75037142Y-78685295D02*
X75037142Y-78828152D01*
X75037142Y-78828152D02*
X74989523Y-78923390D01*
X74989523Y-78923390D02*
X74941904Y-78971009D01*
X74941904Y-78971009D02*
X74846666Y-79018628D01*
X74846666Y-79018628D02*
X74465714Y-79018628D01*
X75989523Y-79494819D02*
X75418095Y-79494819D01*
X75703809Y-79494819D02*
X75703809Y-78494819D01*
X75703809Y-78494819D02*
X75608571Y-78637676D01*
X75608571Y-78637676D02*
X75513333Y-78732914D01*
X75513333Y-78732914D02*
X75418095Y-78780533D01*
X76322857Y-78494819D02*
X76941904Y-78494819D01*
X76941904Y-78494819D02*
X76608571Y-78875771D01*
X76608571Y-78875771D02*
X76751428Y-78875771D01*
X76751428Y-78875771D02*
X76846666Y-78923390D01*
X76846666Y-78923390D02*
X76894285Y-78971009D01*
X76894285Y-78971009D02*
X76941904Y-79066247D01*
X76941904Y-79066247D02*
X76941904Y-79304342D01*
X76941904Y-79304342D02*
X76894285Y-79399580D01*
X76894285Y-79399580D02*
X76846666Y-79447200D01*
X76846666Y-79447200D02*
X76751428Y-79494819D01*
X76751428Y-79494819D02*
X76465714Y-79494819D01*
X76465714Y-79494819D02*
X76370476Y-79447200D01*
X76370476Y-79447200D02*
X76322857Y-79399580D01*
X115054819Y-67961904D02*
X115864342Y-67961904D01*
X115864342Y-67961904D02*
X115959580Y-67914285D01*
X115959580Y-67914285D02*
X116007200Y-67866666D01*
X116007200Y-67866666D02*
X116054819Y-67771428D01*
X116054819Y-67771428D02*
X116054819Y-67580952D01*
X116054819Y-67580952D02*
X116007200Y-67485714D01*
X116007200Y-67485714D02*
X115959580Y-67438095D01*
X115959580Y-67438095D02*
X115864342Y-67390476D01*
X115864342Y-67390476D02*
X115054819Y-67390476D01*
X116054819Y-66390476D02*
X116054819Y-66961904D01*
X116054819Y-66676190D02*
X115054819Y-66676190D01*
X115054819Y-66676190D02*
X115197676Y-66771428D01*
X115197676Y-66771428D02*
X115292914Y-66866666D01*
X115292914Y-66866666D02*
X115340533Y-66961904D01*
X181020333Y-136174819D02*
X180687000Y-135698628D01*
X180448905Y-136174819D02*
X180448905Y-135174819D01*
X180448905Y-135174819D02*
X180829857Y-135174819D01*
X180829857Y-135174819D02*
X180925095Y-135222438D01*
X180925095Y-135222438D02*
X180972714Y-135270057D01*
X180972714Y-135270057D02*
X181020333Y-135365295D01*
X181020333Y-135365295D02*
X181020333Y-135508152D01*
X181020333Y-135508152D02*
X180972714Y-135603390D01*
X180972714Y-135603390D02*
X180925095Y-135651009D01*
X180925095Y-135651009D02*
X180829857Y-135698628D01*
X180829857Y-135698628D02*
X180448905Y-135698628D01*
X181496524Y-136174819D02*
X181687000Y-136174819D01*
X181687000Y-136174819D02*
X181782238Y-136127200D01*
X181782238Y-136127200D02*
X181829857Y-136079580D01*
X181829857Y-136079580D02*
X181925095Y-135936723D01*
X181925095Y-135936723D02*
X181972714Y-135746247D01*
X181972714Y-135746247D02*
X181972714Y-135365295D01*
X181972714Y-135365295D02*
X181925095Y-135270057D01*
X181925095Y-135270057D02*
X181877476Y-135222438D01*
X181877476Y-135222438D02*
X181782238Y-135174819D01*
X181782238Y-135174819D02*
X181591762Y-135174819D01*
X181591762Y-135174819D02*
X181496524Y-135222438D01*
X181496524Y-135222438D02*
X181448905Y-135270057D01*
X181448905Y-135270057D02*
X181401286Y-135365295D01*
X181401286Y-135365295D02*
X181401286Y-135603390D01*
X181401286Y-135603390D02*
X181448905Y-135698628D01*
X181448905Y-135698628D02*
X181496524Y-135746247D01*
X181496524Y-135746247D02*
X181591762Y-135793866D01*
X181591762Y-135793866D02*
X181782238Y-135793866D01*
X181782238Y-135793866D02*
X181877476Y-135746247D01*
X181877476Y-135746247D02*
X181925095Y-135698628D01*
X181925095Y-135698628D02*
X181972714Y-135603390D01*
X125154819Y-63142857D02*
X124678628Y-63476190D01*
X125154819Y-63714285D02*
X124154819Y-63714285D01*
X124154819Y-63714285D02*
X124154819Y-63333333D01*
X124154819Y-63333333D02*
X124202438Y-63238095D01*
X124202438Y-63238095D02*
X124250057Y-63190476D01*
X124250057Y-63190476D02*
X124345295Y-63142857D01*
X124345295Y-63142857D02*
X124488152Y-63142857D01*
X124488152Y-63142857D02*
X124583390Y-63190476D01*
X124583390Y-63190476D02*
X124631009Y-63238095D01*
X124631009Y-63238095D02*
X124678628Y-63333333D01*
X124678628Y-63333333D02*
X124678628Y-63714285D01*
X125154819Y-62190476D02*
X125154819Y-62761904D01*
X125154819Y-62476190D02*
X124154819Y-62476190D01*
X124154819Y-62476190D02*
X124297676Y-62571428D01*
X124297676Y-62571428D02*
X124392914Y-62666666D01*
X124392914Y-62666666D02*
X124440533Y-62761904D01*
X124154819Y-61857142D02*
X124154819Y-61190476D01*
X124154819Y-61190476D02*
X125154819Y-61619047D01*
X120533333Y-65959580D02*
X120485714Y-66007200D01*
X120485714Y-66007200D02*
X120342857Y-66054819D01*
X120342857Y-66054819D02*
X120247619Y-66054819D01*
X120247619Y-66054819D02*
X120104762Y-66007200D01*
X120104762Y-66007200D02*
X120009524Y-65911961D01*
X120009524Y-65911961D02*
X119961905Y-65816723D01*
X119961905Y-65816723D02*
X119914286Y-65626247D01*
X119914286Y-65626247D02*
X119914286Y-65483390D01*
X119914286Y-65483390D02*
X119961905Y-65292914D01*
X119961905Y-65292914D02*
X120009524Y-65197676D01*
X120009524Y-65197676D02*
X120104762Y-65102438D01*
X120104762Y-65102438D02*
X120247619Y-65054819D01*
X120247619Y-65054819D02*
X120342857Y-65054819D01*
X120342857Y-65054819D02*
X120485714Y-65102438D01*
X120485714Y-65102438D02*
X120533333Y-65150057D01*
X121485714Y-66054819D02*
X120914286Y-66054819D01*
X121200000Y-66054819D02*
X121200000Y-65054819D01*
X121200000Y-65054819D02*
X121104762Y-65197676D01*
X121104762Y-65197676D02*
X121009524Y-65292914D01*
X121009524Y-65292914D02*
X120914286Y-65340533D01*
X132792819Y-57741666D02*
X132316628Y-58074999D01*
X132792819Y-58313094D02*
X131792819Y-58313094D01*
X131792819Y-58313094D02*
X131792819Y-57932142D01*
X131792819Y-57932142D02*
X131840438Y-57836904D01*
X131840438Y-57836904D02*
X131888057Y-57789285D01*
X131888057Y-57789285D02*
X131983295Y-57741666D01*
X131983295Y-57741666D02*
X132126152Y-57741666D01*
X132126152Y-57741666D02*
X132221390Y-57789285D01*
X132221390Y-57789285D02*
X132269009Y-57836904D01*
X132269009Y-57836904D02*
X132316628Y-57932142D01*
X132316628Y-57932142D02*
X132316628Y-58313094D01*
X132126152Y-56884523D02*
X132792819Y-56884523D01*
X131745200Y-57122618D02*
X132459485Y-57360713D01*
X132459485Y-57360713D02*
X132459485Y-56741666D01*
X102463095Y-57454819D02*
X102463095Y-58264342D01*
X102463095Y-58264342D02*
X102510714Y-58359580D01*
X102510714Y-58359580D02*
X102558333Y-58407200D01*
X102558333Y-58407200D02*
X102653571Y-58454819D01*
X102653571Y-58454819D02*
X102844047Y-58454819D01*
X102844047Y-58454819D02*
X102939285Y-58407200D01*
X102939285Y-58407200D02*
X102986904Y-58359580D01*
X102986904Y-58359580D02*
X103034523Y-58264342D01*
X103034523Y-58264342D02*
X103034523Y-57454819D01*
X103653571Y-57883390D02*
X103558333Y-57835771D01*
X103558333Y-57835771D02*
X103510714Y-57788152D01*
X103510714Y-57788152D02*
X103463095Y-57692914D01*
X103463095Y-57692914D02*
X103463095Y-57645295D01*
X103463095Y-57645295D02*
X103510714Y-57550057D01*
X103510714Y-57550057D02*
X103558333Y-57502438D01*
X103558333Y-57502438D02*
X103653571Y-57454819D01*
X103653571Y-57454819D02*
X103844047Y-57454819D01*
X103844047Y-57454819D02*
X103939285Y-57502438D01*
X103939285Y-57502438D02*
X103986904Y-57550057D01*
X103986904Y-57550057D02*
X104034523Y-57645295D01*
X104034523Y-57645295D02*
X104034523Y-57692914D01*
X104034523Y-57692914D02*
X103986904Y-57788152D01*
X103986904Y-57788152D02*
X103939285Y-57835771D01*
X103939285Y-57835771D02*
X103844047Y-57883390D01*
X103844047Y-57883390D02*
X103653571Y-57883390D01*
X103653571Y-57883390D02*
X103558333Y-57931009D01*
X103558333Y-57931009D02*
X103510714Y-57978628D01*
X103510714Y-57978628D02*
X103463095Y-58073866D01*
X103463095Y-58073866D02*
X103463095Y-58264342D01*
X103463095Y-58264342D02*
X103510714Y-58359580D01*
X103510714Y-58359580D02*
X103558333Y-58407200D01*
X103558333Y-58407200D02*
X103653571Y-58454819D01*
X103653571Y-58454819D02*
X103844047Y-58454819D01*
X103844047Y-58454819D02*
X103939285Y-58407200D01*
X103939285Y-58407200D02*
X103986904Y-58359580D01*
X103986904Y-58359580D02*
X104034523Y-58264342D01*
X104034523Y-58264342D02*
X104034523Y-58073866D01*
X104034523Y-58073866D02*
X103986904Y-57978628D01*
X103986904Y-57978628D02*
X103939285Y-57931009D01*
X103939285Y-57931009D02*
X103844047Y-57883390D01*
X57461905Y-139454819D02*
X57461905Y-140264342D01*
X57461905Y-140264342D02*
X57509524Y-140359580D01*
X57509524Y-140359580D02*
X57557143Y-140407200D01*
X57557143Y-140407200D02*
X57652381Y-140454819D01*
X57652381Y-140454819D02*
X57842857Y-140454819D01*
X57842857Y-140454819D02*
X57938095Y-140407200D01*
X57938095Y-140407200D02*
X57985714Y-140359580D01*
X57985714Y-140359580D02*
X58033333Y-140264342D01*
X58033333Y-140264342D02*
X58033333Y-139454819D01*
X59033333Y-140454819D02*
X58461905Y-140454819D01*
X58747619Y-140454819D02*
X58747619Y-139454819D01*
X58747619Y-139454819D02*
X58652381Y-139597676D01*
X58652381Y-139597676D02*
X58557143Y-139692914D01*
X58557143Y-139692914D02*
X58461905Y-139740533D01*
X59985714Y-140454819D02*
X59414286Y-140454819D01*
X59700000Y-140454819D02*
X59700000Y-139454819D01*
X59700000Y-139454819D02*
X59604762Y-139597676D01*
X59604762Y-139597676D02*
X59509524Y-139692914D01*
X59509524Y-139692914D02*
X59414286Y-139740533D01*
X177691819Y-140267857D02*
X177215628Y-140601190D01*
X177691819Y-140839285D02*
X176691819Y-140839285D01*
X176691819Y-140839285D02*
X176691819Y-140458333D01*
X176691819Y-140458333D02*
X176739438Y-140363095D01*
X176739438Y-140363095D02*
X176787057Y-140315476D01*
X176787057Y-140315476D02*
X176882295Y-140267857D01*
X176882295Y-140267857D02*
X177025152Y-140267857D01*
X177025152Y-140267857D02*
X177120390Y-140315476D01*
X177120390Y-140315476D02*
X177168009Y-140363095D01*
X177168009Y-140363095D02*
X177215628Y-140458333D01*
X177215628Y-140458333D02*
X177215628Y-140839285D01*
X177691819Y-139315476D02*
X177691819Y-139886904D01*
X177691819Y-139601190D02*
X176691819Y-139601190D01*
X176691819Y-139601190D02*
X176834676Y-139696428D01*
X176834676Y-139696428D02*
X176929914Y-139791666D01*
X176929914Y-139791666D02*
X176977533Y-139886904D01*
X176691819Y-138696428D02*
X176691819Y-138601190D01*
X176691819Y-138601190D02*
X176739438Y-138505952D01*
X176739438Y-138505952D02*
X176787057Y-138458333D01*
X176787057Y-138458333D02*
X176882295Y-138410714D01*
X176882295Y-138410714D02*
X177072771Y-138363095D01*
X177072771Y-138363095D02*
X177310866Y-138363095D01*
X177310866Y-138363095D02*
X177501342Y-138410714D01*
X177501342Y-138410714D02*
X177596580Y-138458333D01*
X177596580Y-138458333D02*
X177644200Y-138505952D01*
X177644200Y-138505952D02*
X177691819Y-138601190D01*
X177691819Y-138601190D02*
X177691819Y-138696428D01*
X177691819Y-138696428D02*
X177644200Y-138791666D01*
X177644200Y-138791666D02*
X177596580Y-138839285D01*
X177596580Y-138839285D02*
X177501342Y-138886904D01*
X177501342Y-138886904D02*
X177310866Y-138934523D01*
X177310866Y-138934523D02*
X177072771Y-138934523D01*
X177072771Y-138934523D02*
X176882295Y-138886904D01*
X176882295Y-138886904D02*
X176787057Y-138839285D01*
X176787057Y-138839285D02*
X176739438Y-138791666D01*
X176739438Y-138791666D02*
X176691819Y-138696428D01*
X180523333Y-104304819D02*
X180190000Y-103828628D01*
X179951905Y-104304819D02*
X179951905Y-103304819D01*
X179951905Y-103304819D02*
X180332857Y-103304819D01*
X180332857Y-103304819D02*
X180428095Y-103352438D01*
X180428095Y-103352438D02*
X180475714Y-103400057D01*
X180475714Y-103400057D02*
X180523333Y-103495295D01*
X180523333Y-103495295D02*
X180523333Y-103638152D01*
X180523333Y-103638152D02*
X180475714Y-103733390D01*
X180475714Y-103733390D02*
X180428095Y-103781009D01*
X180428095Y-103781009D02*
X180332857Y-103828628D01*
X180332857Y-103828628D02*
X179951905Y-103828628D01*
X180856667Y-103304819D02*
X181523333Y-103304819D01*
X181523333Y-103304819D02*
X181094762Y-104304819D01*
X100507142Y-54224819D02*
X100173809Y-53748628D01*
X99935714Y-54224819D02*
X99935714Y-53224819D01*
X99935714Y-53224819D02*
X100316666Y-53224819D01*
X100316666Y-53224819D02*
X100411904Y-53272438D01*
X100411904Y-53272438D02*
X100459523Y-53320057D01*
X100459523Y-53320057D02*
X100507142Y-53415295D01*
X100507142Y-53415295D02*
X100507142Y-53558152D01*
X100507142Y-53558152D02*
X100459523Y-53653390D01*
X100459523Y-53653390D02*
X100411904Y-53701009D01*
X100411904Y-53701009D02*
X100316666Y-53748628D01*
X100316666Y-53748628D02*
X99935714Y-53748628D01*
X101459523Y-54224819D02*
X100888095Y-54224819D01*
X101173809Y-54224819D02*
X101173809Y-53224819D01*
X101173809Y-53224819D02*
X101078571Y-53367676D01*
X101078571Y-53367676D02*
X100983333Y-53462914D01*
X100983333Y-53462914D02*
X100888095Y-53510533D01*
X102411904Y-54224819D02*
X101840476Y-54224819D01*
X102126190Y-54224819D02*
X102126190Y-53224819D01*
X102126190Y-53224819D02*
X102030952Y-53367676D01*
X102030952Y-53367676D02*
X101935714Y-53462914D01*
X101935714Y-53462914D02*
X101840476Y-53510533D01*
X160833333Y-79174819D02*
X160500000Y-78698628D01*
X160261905Y-79174819D02*
X160261905Y-78174819D01*
X160261905Y-78174819D02*
X160642857Y-78174819D01*
X160642857Y-78174819D02*
X160738095Y-78222438D01*
X160738095Y-78222438D02*
X160785714Y-78270057D01*
X160785714Y-78270057D02*
X160833333Y-78365295D01*
X160833333Y-78365295D02*
X160833333Y-78508152D01*
X160833333Y-78508152D02*
X160785714Y-78603390D01*
X160785714Y-78603390D02*
X160738095Y-78651009D01*
X160738095Y-78651009D02*
X160642857Y-78698628D01*
X160642857Y-78698628D02*
X160261905Y-78698628D01*
X161738095Y-78174819D02*
X161261905Y-78174819D01*
X161261905Y-78174819D02*
X161214286Y-78651009D01*
X161214286Y-78651009D02*
X161261905Y-78603390D01*
X161261905Y-78603390D02*
X161357143Y-78555771D01*
X161357143Y-78555771D02*
X161595238Y-78555771D01*
X161595238Y-78555771D02*
X161690476Y-78603390D01*
X161690476Y-78603390D02*
X161738095Y-78651009D01*
X161738095Y-78651009D02*
X161785714Y-78746247D01*
X161785714Y-78746247D02*
X161785714Y-78984342D01*
X161785714Y-78984342D02*
X161738095Y-79079580D01*
X161738095Y-79079580D02*
X161690476Y-79127200D01*
X161690476Y-79127200D02*
X161595238Y-79174819D01*
X161595238Y-79174819D02*
X161357143Y-79174819D01*
X161357143Y-79174819D02*
X161261905Y-79127200D01*
X161261905Y-79127200D02*
X161214286Y-79079580D01*
X159866819Y-82591666D02*
X159390628Y-82924999D01*
X159866819Y-83163094D02*
X158866819Y-83163094D01*
X158866819Y-83163094D02*
X158866819Y-82782142D01*
X158866819Y-82782142D02*
X158914438Y-82686904D01*
X158914438Y-82686904D02*
X158962057Y-82639285D01*
X158962057Y-82639285D02*
X159057295Y-82591666D01*
X159057295Y-82591666D02*
X159200152Y-82591666D01*
X159200152Y-82591666D02*
X159295390Y-82639285D01*
X159295390Y-82639285D02*
X159343009Y-82686904D01*
X159343009Y-82686904D02*
X159390628Y-82782142D01*
X159390628Y-82782142D02*
X159390628Y-83163094D01*
X158866819Y-81734523D02*
X158866819Y-81924999D01*
X158866819Y-81924999D02*
X158914438Y-82020237D01*
X158914438Y-82020237D02*
X158962057Y-82067856D01*
X158962057Y-82067856D02*
X159104914Y-82163094D01*
X159104914Y-82163094D02*
X159295390Y-82210713D01*
X159295390Y-82210713D02*
X159676342Y-82210713D01*
X159676342Y-82210713D02*
X159771580Y-82163094D01*
X159771580Y-82163094D02*
X159819200Y-82115475D01*
X159819200Y-82115475D02*
X159866819Y-82020237D01*
X159866819Y-82020237D02*
X159866819Y-81829761D01*
X159866819Y-81829761D02*
X159819200Y-81734523D01*
X159819200Y-81734523D02*
X159771580Y-81686904D01*
X159771580Y-81686904D02*
X159676342Y-81639285D01*
X159676342Y-81639285D02*
X159438247Y-81639285D01*
X159438247Y-81639285D02*
X159343009Y-81686904D01*
X159343009Y-81686904D02*
X159295390Y-81734523D01*
X159295390Y-81734523D02*
X159247771Y-81829761D01*
X159247771Y-81829761D02*
X159247771Y-82020237D01*
X159247771Y-82020237D02*
X159295390Y-82115475D01*
X159295390Y-82115475D02*
X159343009Y-82163094D01*
X159343009Y-82163094D02*
X159438247Y-82210713D01*
X135983333Y-54174819D02*
X135650000Y-53698628D01*
X135411905Y-54174819D02*
X135411905Y-53174819D01*
X135411905Y-53174819D02*
X135792857Y-53174819D01*
X135792857Y-53174819D02*
X135888095Y-53222438D01*
X135888095Y-53222438D02*
X135935714Y-53270057D01*
X135935714Y-53270057D02*
X135983333Y-53365295D01*
X135983333Y-53365295D02*
X135983333Y-53508152D01*
X135983333Y-53508152D02*
X135935714Y-53603390D01*
X135935714Y-53603390D02*
X135888095Y-53651009D01*
X135888095Y-53651009D02*
X135792857Y-53698628D01*
X135792857Y-53698628D02*
X135411905Y-53698628D01*
X136316667Y-53174819D02*
X136935714Y-53174819D01*
X136935714Y-53174819D02*
X136602381Y-53555771D01*
X136602381Y-53555771D02*
X136745238Y-53555771D01*
X136745238Y-53555771D02*
X136840476Y-53603390D01*
X136840476Y-53603390D02*
X136888095Y-53651009D01*
X136888095Y-53651009D02*
X136935714Y-53746247D01*
X136935714Y-53746247D02*
X136935714Y-53984342D01*
X136935714Y-53984342D02*
X136888095Y-54079580D01*
X136888095Y-54079580D02*
X136840476Y-54127200D01*
X136840476Y-54127200D02*
X136745238Y-54174819D01*
X136745238Y-54174819D02*
X136459524Y-54174819D01*
X136459524Y-54174819D02*
X136364286Y-54127200D01*
X136364286Y-54127200D02*
X136316667Y-54079580D01*
X97842819Y-58192857D02*
X97366628Y-58526190D01*
X97842819Y-58764285D02*
X96842819Y-58764285D01*
X96842819Y-58764285D02*
X96842819Y-58383333D01*
X96842819Y-58383333D02*
X96890438Y-58288095D01*
X96890438Y-58288095D02*
X96938057Y-58240476D01*
X96938057Y-58240476D02*
X97033295Y-58192857D01*
X97033295Y-58192857D02*
X97176152Y-58192857D01*
X97176152Y-58192857D02*
X97271390Y-58240476D01*
X97271390Y-58240476D02*
X97319009Y-58288095D01*
X97319009Y-58288095D02*
X97366628Y-58383333D01*
X97366628Y-58383333D02*
X97366628Y-58764285D01*
X97842819Y-57240476D02*
X97842819Y-57811904D01*
X97842819Y-57526190D02*
X96842819Y-57526190D01*
X96842819Y-57526190D02*
X96985676Y-57621428D01*
X96985676Y-57621428D02*
X97080914Y-57716666D01*
X97080914Y-57716666D02*
X97128533Y-57811904D01*
X96938057Y-56859523D02*
X96890438Y-56811904D01*
X96890438Y-56811904D02*
X96842819Y-56716666D01*
X96842819Y-56716666D02*
X96842819Y-56478571D01*
X96842819Y-56478571D02*
X96890438Y-56383333D01*
X96890438Y-56383333D02*
X96938057Y-56335714D01*
X96938057Y-56335714D02*
X97033295Y-56288095D01*
X97033295Y-56288095D02*
X97128533Y-56288095D01*
X97128533Y-56288095D02*
X97271390Y-56335714D01*
X97271390Y-56335714D02*
X97842819Y-56907142D01*
X97842819Y-56907142D02*
X97842819Y-56288095D01*
X117238095Y-63604819D02*
X117238095Y-64414342D01*
X117238095Y-64414342D02*
X117285714Y-64509580D01*
X117285714Y-64509580D02*
X117333333Y-64557200D01*
X117333333Y-64557200D02*
X117428571Y-64604819D01*
X117428571Y-64604819D02*
X117619047Y-64604819D01*
X117619047Y-64604819D02*
X117714285Y-64557200D01*
X117714285Y-64557200D02*
X117761904Y-64509580D01*
X117761904Y-64509580D02*
X117809523Y-64414342D01*
X117809523Y-64414342D02*
X117809523Y-63604819D01*
X118238095Y-63700057D02*
X118285714Y-63652438D01*
X118285714Y-63652438D02*
X118380952Y-63604819D01*
X118380952Y-63604819D02*
X118619047Y-63604819D01*
X118619047Y-63604819D02*
X118714285Y-63652438D01*
X118714285Y-63652438D02*
X118761904Y-63700057D01*
X118761904Y-63700057D02*
X118809523Y-63795295D01*
X118809523Y-63795295D02*
X118809523Y-63890533D01*
X118809523Y-63890533D02*
X118761904Y-64033390D01*
X118761904Y-64033390D02*
X118190476Y-64604819D01*
X118190476Y-64604819D02*
X118809523Y-64604819D01*
D11*
%TO.C,R16*%
X53377500Y-107362742D02*
X53377500Y-107837258D01*
X54422500Y-107362742D02*
X54422500Y-107837258D01*
%TO.C,R14*%
X71502500Y-83077742D02*
X71502500Y-83552258D01*
X72547500Y-83077742D02*
X72547500Y-83552258D01*
%TO.C,U5*%
X162000000Y-84710000D02*
X164000000Y-84710000D01*
X162200000Y-81290000D02*
X164000000Y-81290000D01*
X162000000Y-81290000D02*
X161640000Y-81290000D01*
X162000000Y-80930000D01*
X162000000Y-81290000D01*
G36*
X162000000Y-81290000D02*
G01*
X161640000Y-81290000D01*
X162000000Y-80930000D01*
X162000000Y-81290000D01*
G37*
%TO.C,U4*%
X135000000Y-59710000D02*
X137000000Y-59710000D01*
X135200000Y-56290000D02*
X137000000Y-56290000D01*
X135000000Y-56290000D02*
X134640000Y-56290000D01*
X135000000Y-55930000D01*
X135000000Y-56290000D01*
G36*
X135000000Y-56290000D02*
G01*
X134640000Y-56290000D01*
X135000000Y-55930000D01*
X135000000Y-56290000D01*
G37*
%TO.C,U9*%
X73000000Y-84710000D02*
X75000000Y-84710000D01*
X73200000Y-81290000D02*
X75000000Y-81290000D01*
X73000000Y-81290000D02*
X72640000Y-81290000D01*
X73000000Y-80930000D01*
X73000000Y-81290000D01*
G36*
X73000000Y-81290000D02*
G01*
X72640000Y-81290000D01*
X73000000Y-80930000D01*
X73000000Y-81290000D01*
G37*
%TO.C,U6*%
X180000000Y-109710000D02*
X182000000Y-109710000D01*
X180200000Y-106290000D02*
X182000000Y-106290000D01*
X180000000Y-106290000D02*
X179640000Y-106290000D01*
X180000000Y-105930000D01*
X180000000Y-106290000D01*
G36*
X180000000Y-106290000D02*
G01*
X179640000Y-106290000D01*
X180000000Y-105930000D01*
X180000000Y-106290000D01*
G37*
%TO.C,U7*%
X180000000Y-141710000D02*
X182000000Y-141710000D01*
X180200000Y-138290000D02*
X182000000Y-138290000D01*
X180000000Y-138290000D02*
X179640000Y-138290000D01*
X180000000Y-137930000D01*
X180000000Y-138290000D01*
G36*
X180000000Y-138290000D02*
G01*
X179640000Y-138290000D01*
X180000000Y-137930000D01*
X180000000Y-138290000D01*
G37*
%TO.C,R8*%
X178277500Y-107262742D02*
X178277500Y-107737258D01*
X179322500Y-107262742D02*
X179322500Y-107737258D01*
%TO.C,C2*%
X126390000Y-67259420D02*
X126390000Y-67540580D01*
X127410000Y-67259420D02*
X127410000Y-67540580D01*
%TO.C,J1*%
X112870000Y-72830000D02*
X112870000Y-71500000D01*
X114200000Y-72830000D02*
X112870000Y-72830000D01*
X115470000Y-70170000D02*
X123150000Y-70170000D01*
X115470000Y-72830000D02*
X115470000Y-70170000D01*
X115470000Y-72830000D02*
X123150000Y-72830000D01*
X123150000Y-72830000D02*
X123150000Y-70170000D01*
%TO.C,U10*%
X55000000Y-109710000D02*
X57000000Y-109710000D01*
X55200000Y-106290000D02*
X57000000Y-106290000D01*
X55000000Y-106290000D02*
X54640000Y-106290000D01*
X55000000Y-105930000D01*
X55000000Y-106290000D01*
G36*
X55000000Y-106290000D02*
G01*
X54640000Y-106290000D01*
X55000000Y-105930000D01*
X55000000Y-106290000D01*
G37*
%TO.C,R2*%
X53277500Y-139362742D02*
X53277500Y-139837258D01*
X54322500Y-139362742D02*
X54322500Y-139837258D01*
%TO.C,U3*%
X123900000Y-66040000D02*
X123100000Y-66040000D01*
X123900000Y-66040000D02*
X124700000Y-66040000D01*
X123900000Y-69160000D02*
X123100000Y-69160000D01*
X123900000Y-69160000D02*
X124700000Y-69160000D01*
X122600000Y-66090000D02*
X122360000Y-65760000D01*
X122840000Y-65760000D01*
X122600000Y-66090000D01*
G36*
X122600000Y-66090000D02*
G01*
X122360000Y-65760000D01*
X122840000Y-65760000D01*
X122600000Y-66090000D01*
G37*
%TO.C,R15*%
X55962742Y-104677500D02*
X56437258Y-104677500D01*
X55962742Y-105722500D02*
X56437258Y-105722500D01*
%TO.C,R1*%
X55962742Y-136677500D02*
X56437258Y-136677500D01*
X55962742Y-137722500D02*
X56437258Y-137722500D01*
%TO.C,R13*%
X74192742Y-79947500D02*
X74667258Y-79947500D01*
X74192742Y-80992500D02*
X74667258Y-80992500D01*
%TO.C,U1*%
X116440000Y-67200000D02*
X116440000Y-66400000D01*
X116440000Y-67200000D02*
X116440000Y-68000000D01*
X119560000Y-67200000D02*
X119560000Y-66400000D01*
X119560000Y-67200000D02*
X119560000Y-68000000D01*
X116490000Y-68500000D02*
X116160000Y-68740000D01*
X116160000Y-68260000D01*
X116490000Y-68500000D01*
G36*
X116490000Y-68500000D02*
G01*
X116160000Y-68740000D01*
X116160000Y-68260000D01*
X116490000Y-68500000D01*
G37*
%TO.C,R9*%
X180949742Y-136627500D02*
X181424258Y-136627500D01*
X180949742Y-137672500D02*
X181424258Y-137672500D01*
%TO.C,R17*%
X122577500Y-62737258D02*
X122577500Y-62262742D01*
X123622500Y-62737258D02*
X123622500Y-62262742D01*
%TO.C,C1*%
X120190000Y-67659420D02*
X120190000Y-67940580D01*
X121210000Y-67659420D02*
X121210000Y-67940580D01*
%TO.C,R4*%
X133215500Y-57337742D02*
X133215500Y-57812258D01*
X134260500Y-57337742D02*
X134260500Y-57812258D01*
%TO.C,U8*%
X100000000Y-59710000D02*
X102000000Y-59710000D01*
X100200000Y-56290000D02*
X102000000Y-56290000D01*
X100000000Y-56290000D02*
X99640000Y-56290000D01*
X100000000Y-55930000D01*
X100000000Y-56290000D01*
G36*
X100000000Y-56290000D02*
G01*
X99640000Y-56290000D01*
X100000000Y-55930000D01*
X100000000Y-56290000D01*
G37*
%TO.C,U11*%
X55000000Y-141710000D02*
X57000000Y-141710000D01*
X55200000Y-138290000D02*
X57000000Y-138290000D01*
X55000000Y-138290000D02*
X54640000Y-138290000D01*
X55000000Y-137930000D01*
X55000000Y-138290000D01*
G36*
X55000000Y-138290000D02*
G01*
X54640000Y-138290000D01*
X55000000Y-137930000D01*
X55000000Y-138290000D01*
G37*
%TO.C,R10*%
X178214500Y-139387742D02*
X178214500Y-139862258D01*
X179259500Y-139387742D02*
X179259500Y-139862258D01*
%TO.C,R7*%
X180862742Y-104677500D02*
X181337258Y-104677500D01*
X180862742Y-105722500D02*
X181337258Y-105722500D01*
%TO.C,R11*%
X100912742Y-54677500D02*
X101387258Y-54677500D01*
X100912742Y-55722500D02*
X101387258Y-55722500D01*
%TO.C,R5*%
X161162742Y-79627500D02*
X161637258Y-79627500D01*
X161162742Y-80672500D02*
X161637258Y-80672500D01*
%TO.C,R6*%
X160277500Y-82187742D02*
X160277500Y-82662258D01*
X161322500Y-82187742D02*
X161322500Y-82662258D01*
%TO.C,R3*%
X135912742Y-54627500D02*
X136387258Y-54627500D01*
X135912742Y-55672500D02*
X136387258Y-55672500D01*
%TO.C,R12*%
X98277500Y-57312742D02*
X98277500Y-57787258D01*
X99322500Y-57312742D02*
X99322500Y-57787258D01*
%TO.C,U2*%
X118000000Y-55265000D02*
X115800000Y-55265000D01*
X118000000Y-55265000D02*
X120200000Y-55265000D01*
X118000000Y-63335000D02*
X115800000Y-63335000D01*
X118000000Y-63335000D02*
X120200000Y-63335000D01*
X122190000Y-63115000D02*
X121860000Y-62875000D01*
X122190000Y-62635000D01*
X122190000Y-63115000D01*
G36*
X122190000Y-63115000D02*
G01*
X121860000Y-62875000D01*
X122190000Y-62635000D01*
X122190000Y-63115000D01*
G37*
%TD*%
M02*
