%TF.GenerationSoftware,KiCad,Pcbnew,9.0.1*%
%TF.CreationDate,2025-05-06T09:48:18+02:00*%
%TF.ProjectId,lijnsensor V2,6c696a6e-7365-46e7-936f-722056322e6b,rev?*%
%TF.SameCoordinates,Original*%
%TF.FileFunction,Copper,L1,Top*%
%TF.FilePolarity,Positive*%
%FSLAX46Y46*%
G04 Gerber Fmt 4.6, Leading zero omitted, Abs format (unit mm)*
G04 Created by KiCad (PCBNEW 9.0.1) date 2025-05-06 09:48:18*
%MOMM*%
%LPD*%
G01*
G04 APERTURE LIST*
G04 Aperture macros list*
%AMRoundRect*
0 Rectangle with rounded corners*
0 $1 Rounding radius*
0 $2 $3 $4 $5 $6 $7 $8 $9 X,Y pos of 4 corners*
0 Add a 4 corners polygon primitive as box body*
4,1,4,$2,$3,$4,$5,$6,$7,$8,$9,$2,$3,0*
0 Add four circle primitives for the rounded corners*
1,1,$1+$1,$2,$3*
1,1,$1+$1,$4,$5*
1,1,$1+$1,$6,$7*
1,1,$1+$1,$8,$9*
0 Add four rect primitives between the rounded corners*
20,1,$1+$1,$2,$3,$4,$5,0*
20,1,$1+$1,$4,$5,$6,$7,0*
20,1,$1+$1,$6,$7,$8,$9,0*
20,1,$1+$1,$8,$9,$2,$3,0*%
%AMOutline5P*
0 Free polygon, 5 corners , with rotation*
0 The origin of the aperture is its center*
0 number of corners: always 5*
0 $1 to $10 corner X, Y*
0 $11 Rotation angle, in degrees counterclockwise*
0 create outline with 5 corners*
4,1,5,$1,$2,$3,$4,$5,$6,$7,$8,$9,$10,$1,$2,$11*%
%AMOutline6P*
0 Free polygon, 6 corners , with rotation*
0 The origin of the aperture is its center*
0 number of corners: always 6*
0 $1 to $12 corner X, Y*
0 $13 Rotation angle, in degrees counterclockwise*
0 create outline with 6 corners*
4,1,6,$1,$2,$3,$4,$5,$6,$7,$8,$9,$10,$11,$12,$1,$2,$13*%
%AMOutline7P*
0 Free polygon, 7 corners , with rotation*
0 The origin of the aperture is its center*
0 number of corners: always 7*
0 $1 to $14 corner X, Y*
0 $15 Rotation angle, in degrees counterclockwise*
0 create outline with 7 corners*
4,1,7,$1,$2,$3,$4,$5,$6,$7,$8,$9,$10,$11,$12,$13,$14,$1,$2,$15*%
%AMOutline8P*
0 Free polygon, 8 corners , with rotation*
0 The origin of the aperture is its center*
0 number of corners: always 8*
0 $1 to $16 corner X, Y*
0 $17 Rotation angle, in degrees counterclockwise*
0 create outline with 8 corners*
4,1,8,$1,$2,$3,$4,$5,$6,$7,$8,$9,$10,$11,$12,$13,$14,$15,$16,$1,$2,$17*%
G04 Aperture macros list end*
%TA.AperFunction,SMDPad,CuDef*%
%ADD10RoundRect,0.200000X-0.275000X0.200000X-0.275000X-0.200000X0.275000X-0.200000X0.275000X0.200000X0*%
%TD*%
%TA.AperFunction,SMDPad,CuDef*%
%ADD11Outline5P,-0.287500X0.244000X0.287500X0.244000X0.287500X-0.067100X0.110600X-0.244000X-0.287500X-0.244000X0.000000*%
%TD*%
%TA.AperFunction,SMDPad,CuDef*%
%ADD12R,0.575000X0.488000*%
%TD*%
%TA.AperFunction,SMDPad,CuDef*%
%ADD13RoundRect,0.225000X-0.250000X0.225000X-0.250000X-0.225000X0.250000X-0.225000X0.250000X0.225000X0*%
%TD*%
%TA.AperFunction,ComponentPad*%
%ADD14R,1.700000X1.700000*%
%TD*%
%TA.AperFunction,ComponentPad*%
%ADD15O,1.700000X1.700000*%
%TD*%
%TA.AperFunction,SMDPad,CuDef*%
%ADD16RoundRect,0.150000X-0.512500X-0.150000X0.512500X-0.150000X0.512500X0.150000X-0.512500X0.150000X0*%
%TD*%
%TA.AperFunction,SMDPad,CuDef*%
%ADD17RoundRect,0.200000X-0.200000X-0.275000X0.200000X-0.275000X0.200000X0.275000X-0.200000X0.275000X0*%
%TD*%
%TA.AperFunction,SMDPad,CuDef*%
%ADD18RoundRect,0.150000X0.150000X-0.512500X0.150000X0.512500X-0.150000X0.512500X-0.150000X-0.512500X0*%
%TD*%
%TA.AperFunction,SMDPad,CuDef*%
%ADD19RoundRect,0.200000X0.275000X-0.200000X0.275000X0.200000X-0.275000X0.200000X-0.275000X-0.200000X0*%
%TD*%
%TA.AperFunction,SMDPad,CuDef*%
%ADD20RoundRect,0.100000X0.637500X0.100000X-0.637500X0.100000X-0.637500X-0.100000X0.637500X-0.100000X0*%
%TD*%
%TA.AperFunction,ViaPad*%
%ADD21C,0.600000*%
%TD*%
%TA.AperFunction,ViaPad*%
%ADD22C,0.500000*%
%TD*%
%TA.AperFunction,Conductor*%
%ADD23C,0.300000*%
%TD*%
%TA.AperFunction,Conductor*%
%ADD24C,0.600000*%
%TD*%
%TA.AperFunction,Conductor*%
%ADD25C,0.250000*%
%TD*%
G04 APERTURE END LIST*
D10*
%TO.P,R16,1*%
%TO.N,+1V8*%
X53900000Y-106775000D03*
%TO.P,R16,2*%
%TO.N,Net-(U10-SCL)*%
X53900000Y-108425000D03*
%TD*%
%TO.P,R14,1*%
%TO.N,+1V8*%
X72025000Y-82490000D03*
%TO.P,R14,2*%
%TO.N,Net-(U2-SC5)*%
X72025000Y-84140000D03*
%TD*%
D11*
%TO.P,U5,1,VDD*%
%TO.N,+1V8*%
X162362000Y-81800000D03*
D12*
%TO.P,U5,2,SCL*%
%TO.N,Net-(U2-SC2)*%
X162362000Y-82600000D03*
%TO.P,U5,3,GND*%
%TO.N,GND*%
X162362000Y-83400000D03*
%TO.P,U5,4,LDR*%
%TO.N,unconnected-(U5-LDR-Pad4)*%
X162362000Y-84200000D03*
%TO.P,U5,5,PGND*%
%TO.N,GND*%
X163638000Y-84200000D03*
%TO.P,U5,6,GPIO*%
%TO.N,unconnected-(U5-GPIO-Pad6)*%
X163638000Y-83400000D03*
%TO.P,U5,7,INT*%
%TO.N,unconnected-(U5-INT-Pad7)*%
X163638000Y-82600000D03*
%TO.P,U5,8,SDA*%
%TO.N,Net-(U2-SD2)*%
X163638000Y-81800000D03*
%TD*%
D11*
%TO.P,U4,1,VDD*%
%TO.N,+1V8*%
X135362000Y-56800000D03*
D12*
%TO.P,U4,2,SCL*%
%TO.N,Net-(U2-SC3)*%
X135362000Y-57600000D03*
%TO.P,U4,3,GND*%
%TO.N,GND*%
X135362000Y-58400000D03*
%TO.P,U4,4,LDR*%
%TO.N,unconnected-(U4-LDR-Pad4)*%
X135362000Y-59200000D03*
%TO.P,U4,5,PGND*%
%TO.N,GND*%
X136638000Y-59200000D03*
%TO.P,U4,6,GPIO*%
%TO.N,unconnected-(U4-GPIO-Pad6)*%
X136638000Y-58400000D03*
%TO.P,U4,7,INT*%
%TO.N,unconnected-(U4-INT-Pad7)*%
X136638000Y-57600000D03*
%TO.P,U4,8,SDA*%
%TO.N,Net-(U2-SD3)*%
X136638000Y-56800000D03*
%TD*%
D11*
%TO.P,U9,1,VDD*%
%TO.N,+1V8*%
X73362000Y-81800000D03*
D12*
%TO.P,U9,2,SCL*%
%TO.N,Net-(U2-SC5)*%
X73362000Y-82600000D03*
%TO.P,U9,3,GND*%
%TO.N,GND*%
X73362000Y-83400000D03*
%TO.P,U9,4,LDR*%
%TO.N,unconnected-(U9-LDR-Pad4)*%
X73362000Y-84200000D03*
%TO.P,U9,5,PGND*%
%TO.N,GND*%
X74638000Y-84200000D03*
%TO.P,U9,6,GPIO*%
%TO.N,unconnected-(U9-GPIO-Pad6)*%
X74638000Y-83400000D03*
%TO.P,U9,7,INT*%
%TO.N,unconnected-(U9-INT-Pad7)*%
X74638000Y-82600000D03*
%TO.P,U9,8,SDA*%
%TO.N,Net-(U2-SD5)*%
X74638000Y-81800000D03*
%TD*%
D11*
%TO.P,U6,1,VDD*%
%TO.N,+1V8*%
X180362000Y-106800000D03*
D12*
%TO.P,U6,2,SCL*%
%TO.N,Net-(U2-SC1)*%
X180362000Y-107600000D03*
%TO.P,U6,3,GND*%
%TO.N,GND*%
X180362000Y-108400000D03*
%TO.P,U6,4,LDR*%
%TO.N,unconnected-(U6-LDR-Pad4)*%
X180362000Y-109200000D03*
%TO.P,U6,5,PGND*%
%TO.N,GND*%
X181638000Y-109200000D03*
%TO.P,U6,6,GPIO*%
%TO.N,unconnected-(U6-GPIO-Pad6)*%
X181638000Y-108400000D03*
%TO.P,U6,7,INT*%
%TO.N,unconnected-(U6-INT-Pad7)*%
X181638000Y-107600000D03*
%TO.P,U6,8,SDA*%
%TO.N,Net-(U2-SD1)*%
X181638000Y-106800000D03*
%TD*%
D11*
%TO.P,U7,1,VDD*%
%TO.N,+1V8*%
X180362000Y-138800000D03*
D12*
%TO.P,U7,2,SCL*%
%TO.N,Net-(U2-SC0)*%
X180362000Y-139600000D03*
%TO.P,U7,3,GND*%
%TO.N,GND*%
X180362000Y-140400000D03*
%TO.P,U7,4,LDR*%
%TO.N,unconnected-(U7-LDR-Pad4)*%
X180362000Y-141200000D03*
%TO.P,U7,5,PGND*%
%TO.N,GND*%
X181638000Y-141200000D03*
%TO.P,U7,6,GPIO*%
%TO.N,unconnected-(U7-GPIO-Pad6)*%
X181638000Y-140400000D03*
%TO.P,U7,7,INT*%
%TO.N,unconnected-(U7-INT-Pad7)*%
X181638000Y-139600000D03*
%TO.P,U7,8,SDA*%
%TO.N,Net-(U2-SD0)*%
X181638000Y-138800000D03*
%TD*%
D10*
%TO.P,R8,1*%
%TO.N,+1V8*%
X178800000Y-106675000D03*
%TO.P,R8,2*%
%TO.N,Net-(U2-SC1)*%
X178800000Y-108325000D03*
%TD*%
D13*
%TO.P,C2,1*%
%TO.N,+1V8*%
X126900000Y-66625000D03*
%TO.P,C2,2*%
%TO.N,GND*%
X126900000Y-68175000D03*
%TD*%
D14*
%TO.P,J1,1,Pin_1*%
%TO.N,+3.3V*%
X114200000Y-71500000D03*
D15*
%TO.P,J1,2,Pin_2*%
%TO.N,Net-(J1-Pin_2)*%
X116740000Y-71500000D03*
%TO.P,J1,3,Pin_3*%
%TO.N,Net-(J1-Pin_3)*%
X119280000Y-71500000D03*
%TO.P,J1,4,Pin_4*%
%TO.N,GND*%
X121820000Y-71500000D03*
%TD*%
D11*
%TO.P,U10,1,VDD*%
%TO.N,+1V8*%
X55362000Y-106800000D03*
D12*
%TO.P,U10,2,SCL*%
%TO.N,Net-(U10-SCL)*%
X55362000Y-107600000D03*
%TO.P,U10,3,GND*%
%TO.N,GND*%
X55362000Y-108400000D03*
%TO.P,U10,4,LDR*%
%TO.N,unconnected-(U10-LDR-Pad4)*%
X55362000Y-109200000D03*
%TO.P,U10,5,PGND*%
%TO.N,GND*%
X56638000Y-109200000D03*
%TO.P,U10,6,GPIO*%
%TO.N,unconnected-(U10-GPIO-Pad6)*%
X56638000Y-108400000D03*
%TO.P,U10,7,INT*%
%TO.N,unconnected-(U10-INT-Pad7)*%
X56638000Y-107600000D03*
%TO.P,U10,8,SDA*%
%TO.N,Net-(U10-SDA)*%
X56638000Y-106800000D03*
%TD*%
D10*
%TO.P,R2,1*%
%TO.N,+1V8*%
X53800000Y-138775000D03*
%TO.P,R2,2*%
%TO.N,Net-(U11-SCL)*%
X53800000Y-140425000D03*
%TD*%
D16*
%TO.P,U3,1,IN*%
%TO.N,+3.3V*%
X122762500Y-66650000D03*
%TO.P,U3,2,GND*%
%TO.N,GND*%
X122762500Y-67600000D03*
%TO.P,U3,3,EN*%
%TO.N,+3.3V*%
X122762500Y-68550000D03*
%TO.P,U3,4,NC*%
%TO.N,unconnected-(U3-NC-Pad4)*%
X125037500Y-68550000D03*
%TO.P,U3,5,OUT*%
%TO.N,+1V8*%
X125037500Y-66650000D03*
%TD*%
D17*
%TO.P,R15,1*%
%TO.N,+1V8*%
X55375000Y-105200000D03*
%TO.P,R15,2*%
%TO.N,Net-(U10-SDA)*%
X57025000Y-105200000D03*
%TD*%
%TO.P,R1,1*%
%TO.N,+1V8*%
X55375000Y-137200000D03*
%TO.P,R1,2*%
%TO.N,Net-(U11-SDA)*%
X57025000Y-137200000D03*
%TD*%
%TO.P,R13,1*%
%TO.N,+1V8*%
X73605000Y-80470000D03*
%TO.P,R13,2*%
%TO.N,Net-(U2-SD5)*%
X75255000Y-80470000D03*
%TD*%
D18*
%TO.P,U1,1,I/O1*%
%TO.N,Net-(J1-Pin_2)*%
X117050000Y-68337500D03*
%TO.P,U1,2,GND*%
%TO.N,GND*%
X118000000Y-68337500D03*
%TO.P,U1,3,I/O2*%
%TO.N,Net-(J1-Pin_3)*%
X118950000Y-68337500D03*
%TO.P,U1,4,I/O2*%
%TO.N,/SDA*%
X118950000Y-66062500D03*
%TO.P,U1,5,VBUS*%
%TO.N,+3.3V*%
X118000000Y-66062500D03*
%TO.P,U1,6,I/O1*%
%TO.N,/SCL*%
X117050000Y-66062500D03*
%TD*%
D17*
%TO.P,R9,1*%
%TO.N,+1V8*%
X180362000Y-137150000D03*
%TO.P,R9,2*%
%TO.N,Net-(U2-SD0)*%
X182012000Y-137150000D03*
%TD*%
D19*
%TO.P,R17,1*%
%TO.N,+3.3V*%
X123100000Y-63325000D03*
%TO.P,R17,2*%
%TO.N,Net-(U2-~{RESET})*%
X123100000Y-61675000D03*
%TD*%
D13*
%TO.P,C1,1*%
%TO.N,+3.3V*%
X120700000Y-67025000D03*
%TO.P,C1,2*%
%TO.N,GND*%
X120700000Y-68575000D03*
%TD*%
D10*
%TO.P,R4,1*%
%TO.N,+1V8*%
X133738000Y-56750000D03*
%TO.P,R4,2*%
%TO.N,Net-(U2-SC3)*%
X133738000Y-58400000D03*
%TD*%
D11*
%TO.P,U8,1,VDD*%
%TO.N,+1V8*%
X100362000Y-56800000D03*
D12*
%TO.P,U8,2,SCL*%
%TO.N,Net-(U2-SC4)*%
X100362000Y-57600000D03*
%TO.P,U8,3,GND*%
%TO.N,GND*%
X100362000Y-58400000D03*
%TO.P,U8,4,LDR*%
%TO.N,unconnected-(U8-LDR-Pad4)*%
X100362000Y-59200000D03*
%TO.P,U8,5,PGND*%
%TO.N,GND*%
X101638000Y-59200000D03*
%TO.P,U8,6,GPIO*%
%TO.N,unconnected-(U8-GPIO-Pad6)*%
X101638000Y-58400000D03*
%TO.P,U8,7,INT*%
%TO.N,unconnected-(U8-INT-Pad7)*%
X101638000Y-57600000D03*
%TO.P,U8,8,SDA*%
%TO.N,Net-(U2-SD4)*%
X101638000Y-56800000D03*
%TD*%
D11*
%TO.P,U11,1,VDD*%
%TO.N,+1V8*%
X55362000Y-138800000D03*
D12*
%TO.P,U11,2,SCL*%
%TO.N,Net-(U11-SCL)*%
X55362000Y-139600000D03*
%TO.P,U11,3,GND*%
%TO.N,GND*%
X55362000Y-140400000D03*
%TO.P,U11,4,LDR*%
%TO.N,unconnected-(U11-LDR-Pad4)*%
X55362000Y-141200000D03*
%TO.P,U11,5,PGND*%
%TO.N,GND*%
X56638000Y-141200000D03*
%TO.P,U11,6,GPIO*%
%TO.N,unconnected-(U11-GPIO-Pad6)*%
X56638000Y-140400000D03*
%TO.P,U11,7,INT*%
%TO.N,unconnected-(U11-INT-Pad7)*%
X56638000Y-139600000D03*
%TO.P,U11,8,SDA*%
%TO.N,Net-(U11-SDA)*%
X56638000Y-138800000D03*
%TD*%
D10*
%TO.P,R10,1*%
%TO.N,+1V8*%
X178737000Y-138800000D03*
%TO.P,R10,2*%
%TO.N,Net-(U2-SC0)*%
X178737000Y-140450000D03*
%TD*%
D17*
%TO.P,R7,1*%
%TO.N,+1V8*%
X180275000Y-105200000D03*
%TO.P,R7,2*%
%TO.N,Net-(U2-SD1)*%
X181925000Y-105200000D03*
%TD*%
%TO.P,R11,1*%
%TO.N,+1V8*%
X100325000Y-55200000D03*
%TO.P,R11,2*%
%TO.N,Net-(U2-SD4)*%
X101975000Y-55200000D03*
%TD*%
%TO.P,R5,1*%
%TO.N,+1V8*%
X160575000Y-80150000D03*
%TO.P,R5,2*%
%TO.N,Net-(U2-SD2)*%
X162225000Y-80150000D03*
%TD*%
D10*
%TO.P,R6,1*%
%TO.N,+1V8*%
X160800000Y-81600000D03*
%TO.P,R6,2*%
%TO.N,Net-(U2-SC2)*%
X160800000Y-83250000D03*
%TD*%
D17*
%TO.P,R3,1*%
%TO.N,+1V8*%
X135325000Y-55150000D03*
%TO.P,R3,2*%
%TO.N,Net-(U2-SD3)*%
X136975000Y-55150000D03*
%TD*%
D10*
%TO.P,R12,1*%
%TO.N,+1V8*%
X98800000Y-56725000D03*
%TO.P,R12,2*%
%TO.N,Net-(U2-SC4)*%
X98800000Y-58375000D03*
%TD*%
D20*
%TO.P,U2,1,A0*%
%TO.N,+3.3V*%
X120862500Y-62875000D03*
%TO.P,U2,2,A1*%
%TO.N,GND*%
X120862500Y-62225000D03*
%TO.P,U2,3,~{RESET}*%
%TO.N,Net-(U2-~{RESET})*%
X120862500Y-61575000D03*
%TO.P,U2,4,SD0*%
%TO.N,Net-(U2-SD0)*%
X120862500Y-60925000D03*
%TO.P,U2,5,SC0*%
%TO.N,Net-(U2-SC0)*%
X120862500Y-60275000D03*
%TO.P,U2,6,SD1*%
%TO.N,Net-(U2-SD1)*%
X120862500Y-59625000D03*
%TO.P,U2,7,SC1*%
%TO.N,Net-(U2-SC1)*%
X120862500Y-58975000D03*
%TO.P,U2,8,SD2*%
%TO.N,Net-(U2-SD2)*%
X120862500Y-58325000D03*
%TO.P,U2,9,SC2*%
%TO.N,Net-(U2-SC2)*%
X120862500Y-57675000D03*
%TO.P,U2,10,SD3*%
%TO.N,Net-(U2-SD3)*%
X120862500Y-57025000D03*
%TO.P,U2,11,SC3*%
%TO.N,Net-(U2-SC3)*%
X120862500Y-56375000D03*
%TO.P,U2,12,GND*%
%TO.N,GND*%
X120862500Y-55725000D03*
%TO.P,U2,13,SD4*%
%TO.N,Net-(U2-SD4)*%
X115137500Y-55725000D03*
%TO.P,U2,14,SC4*%
%TO.N,Net-(U2-SC4)*%
X115137500Y-56375000D03*
%TO.P,U2,15,SD5*%
%TO.N,Net-(U2-SD5)*%
X115137500Y-57025000D03*
%TO.P,U2,16,SC5*%
%TO.N,Net-(U2-SC5)*%
X115137500Y-57675000D03*
%TO.P,U2,17,SD6*%
%TO.N,Net-(U10-SDA)*%
X115137500Y-58325000D03*
%TO.P,U2,18,SC6*%
%TO.N,Net-(U10-SCL)*%
X115137500Y-58975000D03*
%TO.P,U2,19,SD7*%
%TO.N,Net-(U11-SDA)*%
X115137500Y-59625000D03*
%TO.P,U2,20,SC7*%
%TO.N,Net-(U11-SCL)*%
X115137500Y-60275000D03*
%TO.P,U2,21,A2*%
%TO.N,GND*%
X115137500Y-60925000D03*
%TO.P,U2,22,SCL*%
%TO.N,/SCL*%
X115137500Y-61575000D03*
%TO.P,U2,23,SDA*%
%TO.N,/SDA*%
X115137500Y-62225000D03*
%TO.P,U2,24,VCC*%
%TO.N,+3.3V*%
X115137500Y-62875000D03*
%TD*%
D21*
%TO.N,Net-(U2-SC4)*%
X99437500Y-57737500D03*
X102387674Y-56365221D03*
%TO.N,Net-(U10-SCL)*%
X57288000Y-106174980D03*
X54725000Y-107600000D03*
%TO.N,GND*%
X70500000Y-87500000D03*
X181600000Y-110000000D03*
X158000000Y-87500000D03*
X173000000Y-110000000D03*
X88000000Y-52500000D03*
X115500000Y-52500000D03*
X145500000Y-62500000D03*
X121700000Y-68000000D03*
X110500000Y-62500000D03*
X68000000Y-100000000D03*
X60500000Y-100000000D03*
X113000000Y-70000000D03*
X122000000Y-62300000D03*
X138000000Y-57500000D03*
X163000000Y-84900000D03*
X123000000Y-55000000D03*
X55500000Y-115000000D03*
X130500000Y-67500000D03*
X102500000Y-58800000D03*
X175500000Y-107500000D03*
X130500000Y-75000000D03*
X145500000Y-75000000D03*
X55500000Y-145000000D03*
X180500000Y-120000000D03*
X128000000Y-75000000D03*
X183000000Y-135000000D03*
X60500000Y-135000000D03*
X105500000Y-57500000D03*
X118000000Y-69900000D03*
X57300000Y-109800000D03*
X105500000Y-67500000D03*
X98000000Y-62500000D03*
X182200000Y-109900000D03*
X137500000Y-58800000D03*
X88000000Y-60000000D03*
X113000000Y-62500000D03*
X133000000Y-65000000D03*
X65500000Y-95000000D03*
X140500000Y-52500000D03*
X185500000Y-145000000D03*
X88000000Y-72500000D03*
X60500000Y-110000000D03*
D22*
X83620000Y-69060000D03*
D21*
X138000000Y-70000000D03*
X55500000Y-132500000D03*
X75500000Y-82500000D03*
X135500000Y-67500000D03*
X93000000Y-75000000D03*
X85500000Y-60000000D03*
X75500000Y-83800000D03*
X56000000Y-141900000D03*
X103000000Y-67500000D03*
X115500000Y-70000000D03*
X120800000Y-55000000D03*
X118000000Y-75000000D03*
X105500000Y-75000000D03*
X140500000Y-62500000D03*
X60500000Y-140000000D03*
X170500000Y-100000000D03*
X185500000Y-132500000D03*
X118500000Y-70200000D03*
X105500000Y-65000000D03*
X180500000Y-135000000D03*
X133000000Y-67500000D03*
X125500000Y-75000000D03*
X98000000Y-72500000D03*
X105500000Y-70000000D03*
X130500000Y-52500000D03*
X164500000Y-84500000D03*
X180500000Y-130000000D03*
X63000000Y-95000000D03*
X185500000Y-112500000D03*
X60500000Y-117500000D03*
X185500000Y-122500000D03*
X93000000Y-55000000D03*
X138000000Y-72500000D03*
X70500000Y-90000000D03*
X123000000Y-75000000D03*
X185500000Y-147500000D03*
X168000000Y-90000000D03*
X182500000Y-109400000D03*
X125500000Y-52500000D03*
X65500000Y-105000000D03*
X163000000Y-92500000D03*
X125900000Y-67600000D03*
X138000000Y-55000000D03*
X108000000Y-55000000D03*
X110500000Y-70000000D03*
X83000000Y-75000000D03*
X120500000Y-72500000D03*
X183000000Y-110000000D03*
X118000000Y-70500000D03*
X136600000Y-60000000D03*
X100500000Y-62500000D03*
X168000000Y-102500000D03*
X168000000Y-97500000D03*
X105500000Y-52500000D03*
X57500000Y-109200000D03*
X133000000Y-52500000D03*
X175500000Y-97500000D03*
X100500000Y-72500000D03*
X170500000Y-102500000D03*
X158000000Y-82500000D03*
X95500000Y-67500000D03*
X98000000Y-70000000D03*
X170500000Y-92500000D03*
X128000000Y-65000000D03*
X140500000Y-72500000D03*
X128000000Y-62500000D03*
X63000000Y-97500000D03*
X183000000Y-107500000D03*
X125500000Y-62500000D03*
X68000000Y-90000000D03*
X108000000Y-65000000D03*
X95500000Y-72500000D03*
X80500000Y-77500000D03*
X145500000Y-60000000D03*
X110500000Y-55000000D03*
X182500000Y-108800000D03*
X108000000Y-70000000D03*
X103000000Y-52500000D03*
X78000000Y-82500000D03*
X123000000Y-70000000D03*
X80500000Y-80000000D03*
X137200000Y-59900000D03*
X63000000Y-105000000D03*
X173000000Y-102500000D03*
X126900000Y-69100000D03*
X163000000Y-95000000D03*
X55500000Y-155000000D03*
X83000000Y-77500000D03*
X80500000Y-87500000D03*
X120200000Y-55000000D03*
X103000000Y-75000000D03*
X110500000Y-67500000D03*
X55500000Y-127500000D03*
X185500000Y-142500000D03*
X98000000Y-60000000D03*
X183000000Y-140000000D03*
X128000000Y-67500000D03*
X114000000Y-60900000D03*
X143000000Y-75000000D03*
X95500000Y-62500000D03*
X55500000Y-125000000D03*
X133000000Y-70000000D03*
X178000000Y-142500000D03*
X85500000Y-65000000D03*
X185500000Y-130000000D03*
X160500000Y-92500000D03*
X185500000Y-120000000D03*
X137500000Y-59400000D03*
X60500000Y-152500000D03*
X130500000Y-70000000D03*
X150500000Y-62500000D03*
X121400000Y-55000000D03*
X103000000Y-60000000D03*
X185500000Y-140000000D03*
X185500000Y-127500000D03*
X153000000Y-82500000D03*
X180500000Y-115000000D03*
X55500000Y-117500000D03*
X135500000Y-75000000D03*
X165500000Y-85000000D03*
X175500000Y-115000000D03*
X120500000Y-70000000D03*
X56100000Y-109900000D03*
X173000000Y-95000000D03*
X143000000Y-62500000D03*
X60500000Y-147500000D03*
X165500000Y-97500000D03*
X182400000Y-141300000D03*
X153000000Y-75000000D03*
X180500000Y-110000000D03*
X57500000Y-141300000D03*
X164500000Y-83900000D03*
X135500000Y-70000000D03*
X95500000Y-60000000D03*
X118000000Y-52500000D03*
X178000000Y-145000000D03*
X140500000Y-55000000D03*
X180500000Y-145000000D03*
X125500000Y-55000000D03*
X160500000Y-90000000D03*
X178000000Y-100000000D03*
X125500000Y-72500000D03*
X125500000Y-65000000D03*
X138000000Y-60000000D03*
X78000000Y-80000000D03*
X74600000Y-85000000D03*
X181600000Y-142000000D03*
X65500000Y-92500000D03*
X70500000Y-97500000D03*
X103000000Y-70000000D03*
X133000000Y-75000000D03*
X60500000Y-127500000D03*
X113000000Y-67500000D03*
X155500000Y-80000000D03*
X74000000Y-84900000D03*
X148000000Y-70000000D03*
X53000000Y-145000000D03*
X60500000Y-137500000D03*
X158000000Y-90000000D03*
X148000000Y-72500000D03*
X150500000Y-80000000D03*
X70500000Y-100000000D03*
X68000000Y-102500000D03*
X60500000Y-115000000D03*
X128000000Y-70000000D03*
X185500000Y-117500000D03*
X180500000Y-142500000D03*
X122000000Y-55000000D03*
D22*
X76540000Y-76300000D03*
D21*
X95500000Y-75000000D03*
X158000000Y-80000000D03*
X123900000Y-64100000D03*
X165500000Y-95000000D03*
X95500000Y-52500000D03*
X148000000Y-52500000D03*
X110500000Y-72500000D03*
X108000000Y-62500000D03*
X180500000Y-127500000D03*
X130500000Y-55000000D03*
X140500000Y-60000000D03*
X119600000Y-55600000D03*
X110500000Y-52500000D03*
X60500000Y-112500000D03*
X155500000Y-87500000D03*
X183000000Y-112500000D03*
X138000000Y-62500000D03*
X183000000Y-127500000D03*
X90500000Y-60000000D03*
X179800000Y-140400000D03*
X148000000Y-62500000D03*
X102200000Y-60000000D03*
X60500000Y-120000000D03*
X155500000Y-77500000D03*
X101600000Y-60000000D03*
X183000000Y-142500000D03*
X180500000Y-122500000D03*
X113000000Y-75000000D03*
X78000000Y-90000000D03*
X68000000Y-92500000D03*
X168000000Y-100000000D03*
X181000000Y-141900000D03*
X165500000Y-87500000D03*
X88000000Y-75000000D03*
X123000000Y-52500000D03*
X117500000Y-69600000D03*
X118000000Y-69300000D03*
X123000000Y-72500000D03*
X140500000Y-75000000D03*
X98000000Y-55000000D03*
X135500000Y-52500000D03*
X173000000Y-105000000D03*
X116200000Y-60900000D03*
X148000000Y-77500000D03*
X180500000Y-112500000D03*
X60500000Y-130000000D03*
X128000000Y-52500000D03*
X175500000Y-112500000D03*
X65500000Y-102500000D03*
X57200000Y-141900000D03*
X119600000Y-56200000D03*
X115500000Y-55000000D03*
X113000000Y-55000000D03*
X108000000Y-67500000D03*
X103000000Y-55000000D03*
X185500000Y-115000000D03*
X143000000Y-52500000D03*
X118500000Y-69600000D03*
X55500000Y-130000000D03*
X140500000Y-70000000D03*
X110500000Y-75000000D03*
X138000000Y-75000000D03*
X85500000Y-75000000D03*
X175500000Y-110000000D03*
X88000000Y-55000000D03*
X113000000Y-52500000D03*
X138000000Y-52500000D03*
X56600000Y-142000000D03*
X85500000Y-55000000D03*
X60500000Y-107500000D03*
X73000000Y-87500000D03*
X183000000Y-145000000D03*
X98000000Y-52500000D03*
X182200000Y-141900000D03*
X53000000Y-137500000D03*
X55500000Y-135000000D03*
X128000000Y-55000000D03*
X98000000Y-75000000D03*
X58000000Y-145000000D03*
X183000000Y-125000000D03*
X118000000Y-72500000D03*
X93000000Y-62500000D03*
X58000000Y-102500000D03*
X164200000Y-85000000D03*
X185500000Y-135000000D03*
X90500000Y-52500000D03*
X108000000Y-75000000D03*
X95500000Y-55000000D03*
X105500000Y-72500000D03*
X150500000Y-55000000D03*
X73000000Y-85000000D03*
X128000000Y-72500000D03*
X93000000Y-67500000D03*
X120500000Y-52500000D03*
X163600000Y-85000000D03*
X60500000Y-132500000D03*
X148000000Y-75000000D03*
X75500000Y-84400000D03*
X100500000Y-52500000D03*
X153000000Y-77500000D03*
X88000000Y-62500000D03*
X60500000Y-125000000D03*
X57500000Y-140700000D03*
X148000000Y-60000000D03*
X55500000Y-112500000D03*
X183000000Y-117500000D03*
X150500000Y-60000000D03*
X185500000Y-137500000D03*
X103000000Y-72500000D03*
X55500000Y-120000000D03*
X85500000Y-62500000D03*
X55500000Y-122500000D03*
X173000000Y-107500000D03*
X117500000Y-70200000D03*
X60500000Y-122500000D03*
X180500000Y-125000000D03*
X143000000Y-60000000D03*
X135500000Y-72500000D03*
X100500000Y-60000000D03*
X130500000Y-72500000D03*
X119600000Y-62200000D03*
X180500000Y-117500000D03*
X75200000Y-84900000D03*
X183000000Y-132500000D03*
X183000000Y-122500000D03*
X185500000Y-125000000D03*
X123800000Y-67700000D03*
X182500000Y-140700000D03*
X120500000Y-75000000D03*
X140500000Y-57500000D03*
X183000000Y-130000000D03*
X73000000Y-95000000D03*
X55500000Y-110000000D03*
X113000000Y-65000000D03*
X155500000Y-85000000D03*
X57500000Y-108600000D03*
X85500000Y-77500000D03*
X170500000Y-105000000D03*
X115500000Y-75000000D03*
X75500000Y-92500000D03*
X175500000Y-105000000D03*
X100500000Y-75000000D03*
X108000000Y-52500000D03*
X110500000Y-65000000D03*
X60500000Y-145000000D03*
X102400000Y-59400000D03*
X133000000Y-55000000D03*
X133000000Y-72500000D03*
X130500000Y-65000000D03*
X108000000Y-72500000D03*
X103000000Y-57500000D03*
X56700000Y-110000000D03*
X73000000Y-97500000D03*
X125500000Y-70000000D03*
X60500000Y-142500000D03*
X145500000Y-52500000D03*
X100500000Y-70000000D03*
X93000000Y-52500000D03*
X183000000Y-120000000D03*
X127800000Y-68200000D03*
X180500000Y-132500000D03*
X122000000Y-55600000D03*
X183000000Y-137500000D03*
X85500000Y-57500000D03*
X63000000Y-107500000D03*
X119600000Y-55000000D03*
X130500000Y-62500000D03*
X183000000Y-115000000D03*
X148000000Y-57500000D03*
X105500000Y-55000000D03*
X165500000Y-100000000D03*
X63000000Y-110000000D03*
X136000000Y-59800000D03*
X53000000Y-142500000D03*
X150500000Y-65000000D03*
%TO.N,Net-(U2-SC1)*%
X179600000Y-107900000D03*
X178821814Y-104878186D03*
%TO.N,Net-(U2-SC2)*%
X161600000Y-82700000D03*
X159660000Y-81400000D03*
%TO.N,+3.3V*%
X123100000Y-64599000D03*
X122700000Y-68600000D03*
X122600000Y-66200000D03*
%TO.N,Net-(U2-SC5)*%
X72327387Y-83407387D03*
X76000000Y-81500000D03*
%TO.N,Net-(U2-SD1)*%
X181200000Y-105000000D03*
X177930771Y-104750011D03*
%TO.N,Net-(U2-SD0)*%
X181400000Y-137200000D03*
X177915380Y-136834620D03*
%TO.N,Net-(U2-SD2)*%
X159050000Y-79214430D03*
X161675000Y-79290589D03*
%TO.N,Net-(U2-SD3)*%
X131859380Y-57440620D03*
X136400000Y-56000000D03*
%TD*%
D23*
%TO.N,Net-(U11-SCL)*%
X53800000Y-141200000D02*
X53800000Y-140425000D01*
X55850000Y-143250000D02*
X53800000Y-141200000D01*
X58030000Y-143250000D02*
X55850000Y-143250000D01*
X58958760Y-142321240D02*
X58030000Y-143250000D01*
X58958760Y-106501587D02*
X58958760Y-142321240D01*
X98613352Y-66952827D02*
X90765179Y-74801000D01*
X90765179Y-74801000D02*
X90659347Y-74801000D01*
X107751000Y-60249000D02*
X101047173Y-66952827D01*
X101047173Y-66952827D02*
X98613352Y-66952827D01*
X115137500Y-60275000D02*
X115111500Y-60249000D01*
X115111500Y-60249000D02*
X107751000Y-60249000D01*
X90659347Y-74801000D02*
X58958760Y-106501587D01*
%TO.N,Net-(U11-SDA)*%
X90451827Y-74300000D02*
X90557659Y-74300000D01*
X58457760Y-106294067D02*
X90451827Y-74300000D01*
X98405832Y-66451827D02*
X90557659Y-74300000D01*
X100748173Y-66451827D02*
X98405832Y-66451827D01*
X107575000Y-59625000D02*
X100748173Y-66451827D01*
X115137500Y-59625000D02*
X107575000Y-59625000D01*
%TO.N,Net-(U2-SC4)*%
X102387674Y-56365221D02*
X102397453Y-56375000D01*
X98800000Y-58375000D02*
X99437500Y-57737500D01*
X102397453Y-56375000D02*
X115137500Y-56375000D01*
X99575000Y-57600000D02*
X100362000Y-57600000D01*
X99437500Y-57737500D02*
X99575000Y-57600000D01*
%TO.N,Net-(U10-SDA)*%
X83800000Y-72649827D02*
X83800000Y-78425000D01*
X56638000Y-105587000D02*
X57025000Y-105200000D01*
X56638000Y-106800000D02*
X56638000Y-105587000D01*
X83800000Y-78425000D02*
X57025000Y-105200000D01*
X107375000Y-58325000D02*
X107226000Y-58474000D01*
X100241653Y-65449827D02*
X90999999Y-65449827D01*
X107226000Y-58474000D02*
X107217479Y-58474000D01*
X90999999Y-65449827D02*
X83800000Y-72649827D01*
X107217479Y-58474000D02*
X100241653Y-65449827D01*
X115137500Y-58325000D02*
X107375000Y-58325000D01*
%TO.N,Net-(U11-SDA)*%
X57025000Y-137200000D02*
X58457760Y-135767240D01*
X56638000Y-137587000D02*
X57025000Y-137200000D01*
X58457760Y-135767240D02*
X58457760Y-106294067D01*
X56638000Y-138800000D02*
X56638000Y-137587000D01*
%TO.N,Net-(U10-SCL)*%
X107425000Y-58975000D02*
X115137500Y-58975000D01*
X84324174Y-78609346D02*
X84324174Y-72834173D01*
X57309794Y-106174980D02*
X57956760Y-105528014D01*
X57956760Y-104976760D02*
X84324174Y-78609346D01*
X57956760Y-105528014D02*
X57956760Y-104976760D01*
X100449173Y-65950827D02*
X107425000Y-58975000D01*
X54725000Y-107600000D02*
X55362000Y-107600000D01*
X91207520Y-65950827D02*
X100449173Y-65950827D01*
X84324174Y-72834173D02*
X91207520Y-65950827D01*
X57288000Y-106174980D02*
X57309794Y-106174980D01*
X53900000Y-108425000D02*
X54725000Y-107600000D01*
D24*
%TO.N,GND*%
X121700000Y-68000000D02*
X121125000Y-68575000D01*
X121125000Y-68575000D02*
X120700000Y-68575000D01*
X122762500Y-67600000D02*
X122100000Y-67600000D01*
X122100000Y-67600000D02*
X121700000Y-68000000D01*
D23*
%TO.N,Net-(U2-~{RESET})*%
X120862500Y-61575000D02*
X122900000Y-61575000D01*
X122900000Y-61575000D02*
X123000000Y-61675000D01*
X123000000Y-61675000D02*
X123100000Y-61675000D01*
%TO.N,Net-(U2-SD5)*%
X74638000Y-81800000D02*
X74638000Y-80987000D01*
X75155000Y-79740654D02*
X75155000Y-80470000D01*
X99652173Y-64447827D02*
X90447827Y-64447827D01*
X74638000Y-80987000D02*
X75155000Y-80470000D01*
X107075000Y-57025000D02*
X99652173Y-64447827D01*
X115137500Y-57025000D02*
X107075000Y-57025000D01*
X90447827Y-64447827D02*
X75155000Y-79740654D01*
%TO.N,/SCL*%
X117050000Y-66062500D02*
X116750001Y-66062500D01*
X116750001Y-66062500D02*
X114049000Y-63361499D01*
X114049000Y-63361499D02*
X114049000Y-61926001D01*
X114049000Y-61926001D02*
X114400001Y-61575000D01*
X114400001Y-61575000D02*
X115137500Y-61575000D01*
%TO.N,Net-(U2-SC0)*%
X149544000Y-71512041D02*
X149533960Y-71522081D01*
X149533960Y-68759520D02*
X149544000Y-68769560D01*
X131381506Y-60717479D02*
X131381506Y-60717480D01*
X178600000Y-136600000D02*
X178600000Y-137100000D01*
X177173000Y-135173000D02*
X178183620Y-136183620D01*
X177500000Y-139213000D02*
X178737000Y-140450000D01*
X149533960Y-71522081D02*
X149533960Y-76851000D01*
X130939026Y-60275000D02*
X131088026Y-60424000D01*
X146925439Y-66603000D02*
X146962400Y-66603000D01*
X120862500Y-60275000D02*
X130939026Y-60275000D01*
X147670920Y-66896480D02*
X149240481Y-68466040D01*
X178566380Y-136564966D02*
X178566380Y-136566380D01*
X177500000Y-138200000D02*
X177500000Y-139213000D01*
X177173000Y-104905082D02*
X177173000Y-105107521D01*
X149533960Y-68759519D02*
X149533960Y-68759520D01*
X149240481Y-68466040D02*
X149533960Y-68759519D01*
X149544000Y-68769560D02*
X149544000Y-71512041D01*
X149533960Y-76851000D02*
X177173000Y-104490041D01*
X177173000Y-105107521D02*
X177173000Y-134892479D01*
X147377440Y-66603000D02*
X147377441Y-66603000D01*
X178183620Y-136183620D02*
X178185034Y-136183620D01*
X177173000Y-104490042D02*
X177173000Y-104692479D01*
X147340481Y-66603000D02*
X147377440Y-66603000D01*
X131381506Y-60717480D02*
X132685273Y-62021247D01*
X179587000Y-139600000D02*
X180362000Y-139600000D01*
X147670920Y-66896479D02*
X147670920Y-66896480D01*
X147377441Y-66603000D02*
X147670920Y-66896479D01*
X132685273Y-62021247D02*
X132835273Y-62171247D01*
X131088027Y-60424000D02*
X131381506Y-60717479D01*
X137267026Y-66603000D02*
X146925439Y-66603000D01*
X146962400Y-66603000D02*
X147340481Y-66603000D01*
X178737000Y-140450000D02*
X179587000Y-139600000D01*
X133128753Y-62464727D02*
X137267026Y-66603000D01*
X178600000Y-137100000D02*
X177500000Y-138200000D01*
X178566380Y-136566380D02*
X178600000Y-136600000D01*
X177173000Y-134892479D02*
X177173000Y-135173000D01*
X178185034Y-136183620D02*
X178566380Y-136564966D01*
X132978753Y-62314727D02*
X133128753Y-62464727D01*
X132835273Y-62171247D02*
X132978753Y-62314727D01*
X177173000Y-104692479D02*
X177173000Y-104905082D01*
X131088026Y-60424000D02*
X131088027Y-60424000D01*
%TO.N,/SDA*%
X118950000Y-66062500D02*
X118950000Y-65309418D01*
X115865582Y-62225000D02*
X115137500Y-62225000D01*
X118950000Y-65309418D02*
X115865582Y-62225000D01*
%TO.N,Net-(U2-SC1)*%
X131399546Y-59318480D02*
X137682066Y-65601000D01*
X131056066Y-58975000D02*
X131106066Y-59025000D01*
X178821814Y-104721814D02*
X178821814Y-104878186D01*
X150546000Y-68354519D02*
X150546000Y-68769560D01*
X150252521Y-68061040D02*
X150252520Y-68061040D01*
X179900000Y-107600000D02*
X180362000Y-107600000D01*
X131106066Y-59025000D02*
X131399546Y-59318479D01*
X150546000Y-68354520D02*
X150546000Y-68354519D01*
X147792481Y-65601000D02*
X147792480Y-65601000D01*
X131399546Y-59318479D02*
X131399546Y-59318480D01*
X147792480Y-65601000D02*
X148085960Y-65894479D01*
X178581771Y-104481771D02*
X178821814Y-104721814D01*
X179225000Y-107900000D02*
X178800000Y-108325000D01*
X137682066Y-65601000D02*
X147377440Y-65601000D01*
X150546000Y-76446000D02*
X178199011Y-104099011D01*
X148085960Y-65894479D02*
X148085960Y-65894480D01*
X178199011Y-104099011D02*
X178200425Y-104099011D01*
X179600000Y-107900000D02*
X179900000Y-107600000D01*
X178581771Y-104480357D02*
X178581771Y-104481771D01*
X150546000Y-71063043D02*
X150546000Y-76446000D01*
X120862500Y-58975000D02*
X131056066Y-58975000D01*
X147377440Y-65601000D02*
X147792481Y-65601000D01*
X178200425Y-104099011D02*
X178581771Y-104480357D01*
X150252520Y-68061040D02*
X150546000Y-68354520D01*
X150546000Y-68769560D02*
X150546000Y-71063043D01*
X148085960Y-65894480D02*
X150252521Y-68061040D01*
X179600000Y-107900000D02*
X179225000Y-107900000D01*
%TO.N,Net-(U2-SC2)*%
X162262000Y-82700000D02*
X162362000Y-82600000D01*
X148208520Y-64600000D02*
X148248000Y-64600000D01*
X159700000Y-81360000D02*
X159660000Y-81400000D01*
X131173106Y-57675000D02*
X138097106Y-64599000D01*
X161350000Y-82700000D02*
X160800000Y-83250000D01*
X161600000Y-82700000D02*
X162262000Y-82700000D01*
X148248000Y-64600000D02*
X151548000Y-67900000D01*
X161600000Y-82700000D02*
X161350000Y-82700000D01*
X120862500Y-57675000D02*
X131173106Y-57675000D01*
X138097106Y-64599000D02*
X148207521Y-64599000D01*
X148207521Y-64599000D02*
X148208520Y-64600000D01*
X151548000Y-67900000D02*
X151548000Y-70648000D01*
X151548000Y-70648000D02*
X159700000Y-78800000D01*
X159700000Y-78800000D02*
X159700000Y-81360000D01*
%TO.N,+3.3V*%
X122762500Y-68550000D02*
X122750000Y-68550000D01*
D24*
X114200000Y-71500000D02*
X114200000Y-69600190D01*
D23*
X122750000Y-68550000D02*
X122700000Y-68600000D01*
D24*
X114200000Y-69600190D02*
X116600190Y-67200000D01*
D23*
X123100000Y-64599000D02*
X123100000Y-63325000D01*
X123100000Y-63325000D02*
X121312500Y-63325000D01*
X121312500Y-63325000D02*
X120862500Y-62875000D01*
X123187678Y-66650000D02*
X122762500Y-66650000D01*
%TO.N,Net-(U2-SD4)*%
X115137500Y-55725000D02*
X102500000Y-55725000D01*
X101638000Y-56800000D02*
X101638000Y-55537000D01*
X101638000Y-55537000D02*
X101975000Y-55200000D01*
X102500000Y-55725000D02*
X101975000Y-55200000D01*
%TO.N,Net-(U2-SC3)*%
X131713000Y-56375000D02*
X133738000Y-58400000D01*
X133738000Y-58400000D02*
X134538000Y-57600000D01*
X134538000Y-57600000D02*
X135362000Y-57600000D01*
X120862500Y-56375000D02*
X131713000Y-56375000D01*
%TO.N,Net-(U2-SC5)*%
X90655347Y-64948827D02*
X76400000Y-79204174D01*
X72327387Y-83407387D02*
X72398191Y-83407387D01*
D25*
X72327387Y-83407387D02*
X72332031Y-83407387D01*
D23*
X72025000Y-84140000D02*
X72025000Y-83709774D01*
X76400000Y-79204174D02*
X76400000Y-81100000D01*
X99951173Y-64948827D02*
X90655347Y-64948827D01*
D25*
X73139418Y-82600000D02*
X73362000Y-82600000D01*
D23*
X115137500Y-57675000D02*
X107225000Y-57675000D01*
X107225000Y-57675000D02*
X99951173Y-64948827D01*
D25*
X72332031Y-83407387D02*
X73139418Y-82600000D01*
D23*
X76400000Y-81100000D02*
X76000000Y-81500000D01*
X72025000Y-83709774D02*
X72327387Y-83407387D01*
%TO.N,Net-(U11-SCL)*%
X54625000Y-139600000D02*
X55362000Y-139600000D01*
X53800000Y-140425000D02*
X54625000Y-139600000D01*
%TO.N,Net-(U2-SD1)*%
X150045000Y-68562040D02*
X147584960Y-66102000D01*
X181200000Y-105000000D02*
X181725000Y-105000000D01*
X120961500Y-59526000D02*
X120862500Y-59625000D01*
X181925000Y-106513000D02*
X181638000Y-106800000D01*
X181925000Y-105200000D02*
X181925000Y-106513000D01*
X130898546Y-59526000D02*
X120961500Y-59526000D01*
X178000000Y-104608520D02*
X150045000Y-76653520D01*
X181725000Y-105000000D02*
X181925000Y-105200000D01*
X150045000Y-76653520D02*
X150045000Y-68562040D01*
X178000000Y-104680782D02*
X178000000Y-104608520D01*
X137474546Y-66102000D02*
X130898546Y-59526000D01*
X177930771Y-104750011D02*
X178000000Y-104680782D01*
X147584960Y-66102000D02*
X137474546Y-66102000D01*
%TO.N,Net-(U2-SD0)*%
X137059506Y-67104000D02*
X147132960Y-67104000D01*
X149032960Y-77058522D02*
X176672000Y-104697562D01*
X176672000Y-104900000D02*
X176672000Y-135100000D01*
X120862500Y-60925000D02*
X130880506Y-60925000D01*
X132627753Y-62672247D02*
X137059506Y-67104000D01*
X132477753Y-62522247D02*
X132627753Y-62672247D01*
X149032960Y-68967040D02*
X149032960Y-77058522D01*
X181638000Y-138800000D02*
X181638000Y-138062000D01*
X147132960Y-67104000D02*
X147169920Y-67104000D01*
X182012000Y-137688000D02*
X182012000Y-137150000D01*
X176672000Y-135591240D02*
X177915380Y-136834620D01*
X181400000Y-137200000D02*
X181962000Y-137200000D01*
X176672000Y-104697562D02*
X176672000Y-104900000D01*
X130880506Y-60925000D02*
X132477753Y-62522247D01*
X176672000Y-135100000D02*
X176672000Y-135591240D01*
X181638000Y-138062000D02*
X182012000Y-137688000D01*
X181962000Y-137200000D02*
X182012000Y-137150000D01*
X147169920Y-67104000D02*
X149032960Y-68967040D01*
%TO.N,Net-(U2-SD2)*%
X137889586Y-65100000D02*
X131114586Y-58325000D01*
X131114586Y-58325000D02*
X120862500Y-58325000D01*
X162225000Y-80150000D02*
X162225000Y-80387000D01*
X163638000Y-81563000D02*
X162225000Y-80150000D01*
X162225000Y-80150000D02*
X162225000Y-79840589D01*
X151047000Y-70855521D02*
X151047000Y-68147000D01*
X162300000Y-79915589D02*
X162300000Y-79925000D01*
X159050000Y-79214430D02*
X159050000Y-78858521D01*
X148000000Y-65100000D02*
X137889586Y-65100000D01*
X162225000Y-79840589D02*
X161675000Y-79290589D01*
X159050000Y-78858521D02*
X151047000Y-70855521D01*
X151047000Y-68147000D02*
X148000000Y-65100000D01*
X163638000Y-81800000D02*
X163638000Y-81563000D01*
%TO.N,Net-(U2-SD3)*%
X136975000Y-55150000D02*
X136975000Y-56000000D01*
X120862500Y-57025000D02*
X131443760Y-57025000D01*
X136400000Y-56000000D02*
X136975000Y-56000000D01*
X136975000Y-56463000D02*
X136638000Y-56800000D01*
X136975000Y-56000000D02*
X136975000Y-56463000D01*
X131443760Y-57025000D02*
X131859380Y-57440620D01*
D24*
%TO.N,+1V8*%
X115350714Y-54100000D02*
X118000000Y-54100000D01*
X159824000Y-84749000D02*
X180275000Y-105200000D01*
X56834816Y-101392580D02*
X56556167Y-101714694D01*
X134275000Y-54100000D02*
X134675000Y-53700000D01*
X125037500Y-66650000D02*
X126875000Y-66650000D01*
X125037500Y-66650000D02*
X123786500Y-65399000D01*
X56430271Y-101874311D02*
X56416702Y-101875914D01*
X121466214Y-65399000D02*
X118633607Y-62566393D01*
X56090000Y-102253576D02*
X56090000Y-104485000D01*
X101425000Y-54100000D02*
X100812500Y-54712500D01*
X177824000Y-107651000D02*
X177824000Y-134612000D01*
X52924000Y-134749000D02*
X55375000Y-137200000D01*
X56090000Y-104485000D02*
X55375000Y-105200000D01*
X152300000Y-70432785D02*
X152300000Y-70449302D01*
X71679972Y-82540028D02*
X56832750Y-101364029D01*
X178800000Y-106675000D02*
X177824000Y-107651000D01*
X126875000Y-66650000D02*
X126900000Y-66625000D01*
X56556167Y-101714694D02*
X56556166Y-101714696D01*
X152199000Y-58699000D02*
X152199000Y-70331785D01*
X134275000Y-54100000D02*
X135325000Y-55150000D01*
X160800000Y-81600000D02*
X159824000Y-82576000D01*
X71725000Y-82495000D02*
X71679972Y-82540028D01*
X115350714Y-54100000D02*
X101425000Y-54100000D01*
X159824000Y-82576000D02*
X159824000Y-84749000D01*
X100812500Y-54712500D02*
X100325000Y-55200000D01*
X52924000Y-107751000D02*
X52924000Y-134749000D01*
X97250000Y-56725000D02*
X73505000Y-80470000D01*
X177824000Y-134612000D02*
X180362000Y-137150000D01*
X152300000Y-70449302D02*
X160875000Y-79024302D01*
X101301000Y-54224000D02*
X100812500Y-54712500D01*
X123786500Y-65399000D02*
X121466214Y-65399000D01*
X53900000Y-106775000D02*
X52924000Y-107751000D01*
X98800000Y-56725000D02*
X97250000Y-56725000D01*
X118633607Y-62566393D02*
X118000000Y-61932786D01*
X118000000Y-54100000D02*
X134275000Y-54100000D01*
X118000000Y-61932786D02*
X118000000Y-54100000D01*
X71940000Y-82495000D02*
X71725000Y-82495000D01*
X56832750Y-101364029D02*
X56834816Y-101392580D01*
X56416700Y-101875916D02*
X56090000Y-102253576D01*
X160875000Y-79024302D02*
X160875000Y-80150000D01*
X56416702Y-101875914D02*
X56416700Y-101875916D01*
X147200000Y-53700000D02*
X152199000Y-58699000D01*
X152199000Y-70331785D02*
X152300000Y-70432785D01*
X134675000Y-53700000D02*
X147200000Y-53700000D01*
X56556166Y-101714696D02*
X56430271Y-101874311D01*
D23*
%TO.N,Net-(J1-Pin_3)*%
X119280000Y-68667500D02*
X118950000Y-68337500D01*
X119280000Y-71500000D02*
X119280000Y-68667500D01*
%TO.N,Net-(J1-Pin_2)*%
X116740000Y-68647500D02*
X117050000Y-68337500D01*
X116740000Y-71500000D02*
X116740000Y-68647500D01*
%TD*%
%TA.AperFunction,Conductor*%
%TO.N,+1V8*%
G36*
X55743039Y-104694685D02*
G01*
X55788794Y-104747489D01*
X55800000Y-104799000D01*
X55800000Y-105619991D01*
X55799595Y-105630001D01*
X55693281Y-106942744D01*
X55668249Y-107007975D01*
X55611924Y-107049318D01*
X55583002Y-107056017D01*
X55131525Y-107104783D01*
X55124207Y-107105355D01*
X55121213Y-107105500D01*
X55049826Y-107105500D01*
X55026849Y-107110070D01*
X55017663Y-107110515D01*
X54992274Y-107104376D01*
X54966257Y-107102047D01*
X54949780Y-107094103D01*
X54949750Y-107094096D01*
X54949736Y-107094082D01*
X54949670Y-107094050D01*
X54937489Y-107087018D01*
X54937486Y-107087016D01*
X54896373Y-107076000D01*
X54797475Y-107049500D01*
X54652525Y-107049500D01*
X54553627Y-107076000D01*
X54512511Y-107087017D01*
X54386989Y-107159488D01*
X54380540Y-107164437D01*
X54379260Y-107162769D01*
X54367763Y-107169043D01*
X54348897Y-107184263D01*
X54331908Y-107188608D01*
X54327710Y-107190900D01*
X54314704Y-107193010D01*
X54266290Y-107198240D01*
X54256636Y-107199283D01*
X54243321Y-107200000D01*
X53424000Y-107200000D01*
X53356961Y-107180315D01*
X53311206Y-107127511D01*
X53300000Y-107076000D01*
X53300000Y-106450833D01*
X53319685Y-106383794D01*
X53335681Y-106363794D01*
X54963575Y-104711961D01*
X55024652Y-104678029D01*
X55051894Y-104675000D01*
X55676000Y-104675000D01*
X55743039Y-104694685D01*
G37*
%TD.AperFunction*%
%TD*%
%TA.AperFunction,Conductor*%
%TO.N,+1V8*%
G36*
X180693039Y-136669685D02*
G01*
X180738794Y-136722489D01*
X180750000Y-136774000D01*
X180750000Y-137594991D01*
X180749595Y-137605001D01*
X180643281Y-138917744D01*
X180618249Y-138982975D01*
X180561924Y-139024318D01*
X180533002Y-139031017D01*
X179206638Y-139174283D01*
X179193322Y-139175000D01*
X178374000Y-139175000D01*
X178306961Y-139155315D01*
X178261206Y-139102511D01*
X178250000Y-139051000D01*
X178250000Y-138425833D01*
X178269685Y-138358794D01*
X178285681Y-138338794D01*
X179913575Y-136686961D01*
X179974652Y-136653029D01*
X180001894Y-136650000D01*
X180626000Y-136650000D01*
X180693039Y-136669685D01*
G37*
%TD.AperFunction*%
%TD*%
%TA.AperFunction,Conductor*%
%TO.N,+1V8*%
G36*
X73983039Y-79959685D02*
G01*
X74028794Y-80012489D01*
X74040000Y-80064000D01*
X74040000Y-80762015D01*
X74034891Y-80797242D01*
X73691711Y-81955473D01*
X73679716Y-81974036D01*
X73671956Y-81994732D01*
X73656198Y-82010433D01*
X73653792Y-82014158D01*
X73646955Y-82019644D01*
X73497789Y-82130898D01*
X73432282Y-82155199D01*
X73423654Y-82155500D01*
X73054747Y-82155500D01*
X72996270Y-82167131D01*
X72996269Y-82167132D01*
X72929947Y-82211447D01*
X72885632Y-82277769D01*
X72885631Y-82277770D01*
X72874000Y-82336247D01*
X72874000Y-82353729D01*
X72854315Y-82420768D01*
X72837681Y-82441410D01*
X72425410Y-82853681D01*
X72364087Y-82887166D01*
X72337729Y-82890000D01*
X71674000Y-82890000D01*
X71606961Y-82870315D01*
X71561206Y-82817511D01*
X71550000Y-82766000D01*
X71550000Y-82262594D01*
X71569685Y-82195555D01*
X71576640Y-82185802D01*
X71600541Y-82155500D01*
X73310757Y-79987208D01*
X73367729Y-79946762D01*
X73408117Y-79940000D01*
X73916000Y-79940000D01*
X73983039Y-79959685D01*
G37*
%TD.AperFunction*%
%TD*%
%TA.AperFunction,Conductor*%
%TO.N,+3.3V*%
G36*
X115786076Y-62645184D02*
G01*
X115806718Y-62661818D01*
X118440848Y-65295948D01*
X118474333Y-65357271D01*
X118469349Y-65426963D01*
X118464571Y-65438082D01*
X118459429Y-65448601D01*
X118459425Y-65448611D01*
X118449500Y-65516739D01*
X118449500Y-66608260D01*
X118459426Y-66676391D01*
X118510803Y-66781485D01*
X118593514Y-66864196D01*
X118593515Y-66864196D01*
X118593517Y-66864198D01*
X118698607Y-66915573D01*
X118732673Y-66920536D01*
X118766739Y-66925500D01*
X118766740Y-66925500D01*
X119133261Y-66925500D01*
X119155971Y-66922191D01*
X119201393Y-66915573D01*
X119306483Y-66864198D01*
X119389198Y-66781483D01*
X119440573Y-66676393D01*
X119450500Y-66608260D01*
X119450500Y-65767789D01*
X119470185Y-65700750D01*
X119522989Y-65654995D01*
X119592147Y-65645051D01*
X119640218Y-65662636D01*
X119700000Y-65700000D01*
X121008037Y-65700000D01*
X121075076Y-65719685D01*
X121095718Y-65736318D01*
X121158900Y-65799500D01*
X121273028Y-65865392D01*
X121400321Y-65899500D01*
X121400322Y-65899500D01*
X123476000Y-65899500D01*
X123543039Y-65919185D01*
X123588794Y-65971989D01*
X123600000Y-66023500D01*
X123600000Y-67020097D01*
X123580315Y-67087136D01*
X123527511Y-67132891D01*
X123458353Y-67142835D01*
X123421540Y-67131498D01*
X123376391Y-67109426D01*
X123308261Y-67099500D01*
X123308260Y-67099500D01*
X122828392Y-67099500D01*
X122165892Y-67099500D01*
X122034107Y-67099500D01*
X121906812Y-67133608D01*
X121792686Y-67199500D01*
X121792683Y-67199502D01*
X121328505Y-67663681D01*
X121267182Y-67697166D01*
X121240824Y-67700000D01*
X119506437Y-67700000D01*
X119439398Y-67680315D01*
X119395036Y-67630459D01*
X119389197Y-67618515D01*
X119306485Y-67535803D01*
X119201391Y-67484426D01*
X119133261Y-67474500D01*
X119133260Y-67474500D01*
X118766740Y-67474500D01*
X118766739Y-67474500D01*
X118698608Y-67484426D01*
X118593514Y-67535803D01*
X118562681Y-67566637D01*
X118501358Y-67600122D01*
X118431666Y-67595138D01*
X118387319Y-67566637D01*
X118356485Y-67535803D01*
X118251391Y-67484426D01*
X118183261Y-67474500D01*
X118183260Y-67474500D01*
X117816740Y-67474500D01*
X117816739Y-67474500D01*
X117748608Y-67484426D01*
X117643514Y-67535803D01*
X117612681Y-67566637D01*
X117551358Y-67600122D01*
X117481666Y-67595138D01*
X117437319Y-67566637D01*
X117406485Y-67535803D01*
X117301391Y-67484426D01*
X117233261Y-67474500D01*
X117233260Y-67474500D01*
X116866740Y-67474500D01*
X116866739Y-67474500D01*
X116798608Y-67484426D01*
X116693514Y-67535803D01*
X116610802Y-67618515D01*
X116604964Y-67630459D01*
X116557837Y-67682042D01*
X116493563Y-67700000D01*
X116424000Y-67700000D01*
X116356961Y-67680315D01*
X116311206Y-67627511D01*
X116300000Y-67576000D01*
X116300000Y-66407542D01*
X116306238Y-66386296D01*
X116307818Y-66364208D01*
X116315890Y-66353424D01*
X116319685Y-66340503D01*
X116336418Y-66326003D01*
X116349690Y-66308275D01*
X116362310Y-66303567D01*
X116372489Y-66294748D01*
X116394406Y-66291596D01*
X116415154Y-66283858D01*
X116428314Y-66286720D01*
X116441647Y-66284804D01*
X116461790Y-66294003D01*
X116483427Y-66298710D01*
X116501152Y-66311978D01*
X116505203Y-66313829D01*
X116511681Y-66319861D01*
X116513181Y-66321361D01*
X116546666Y-66382684D01*
X116549500Y-66409042D01*
X116549500Y-66608260D01*
X116559426Y-66676391D01*
X116610803Y-66781485D01*
X116693514Y-66864196D01*
X116693515Y-66864196D01*
X116693517Y-66864198D01*
X116798607Y-66915573D01*
X116832673Y-66920536D01*
X116866739Y-66925500D01*
X116866740Y-66925500D01*
X117233261Y-66925500D01*
X117255971Y-66922191D01*
X117301393Y-66915573D01*
X117406483Y-66864198D01*
X117489198Y-66781483D01*
X117540573Y-66676393D01*
X117550500Y-66608260D01*
X117550500Y-65516740D01*
X117540573Y-65448607D01*
X117489198Y-65343517D01*
X117489196Y-65343515D01*
X117489196Y-65343514D01*
X117406485Y-65260803D01*
X117301391Y-65209426D01*
X117233261Y-65199500D01*
X117233260Y-65199500D01*
X116866740Y-65199500D01*
X116866739Y-65199500D01*
X116798608Y-65209426D01*
X116693514Y-65260803D01*
X116656431Y-65297887D01*
X116595108Y-65331372D01*
X116525416Y-65326388D01*
X116481069Y-65297887D01*
X115476368Y-64293186D01*
X114435819Y-63252636D01*
X114402334Y-63191313D01*
X114399500Y-63164955D01*
X114399500Y-62749499D01*
X114419185Y-62682460D01*
X114471989Y-62636705D01*
X114523495Y-62625499D01*
X115719037Y-62625499D01*
X115786076Y-62645184D01*
G37*
%TD.AperFunction*%
%TD*%
%TA.AperFunction,Conductor*%
%TO.N,+1V8*%
G36*
X180621264Y-104699685D02*
G01*
X180667019Y-104752489D01*
X180676963Y-104821647D01*
X180674002Y-104836080D01*
X180649500Y-104927525D01*
X180649500Y-105072475D01*
X180687016Y-105212485D01*
X180738387Y-105301463D01*
X180755000Y-105363461D01*
X180755000Y-105624991D01*
X180754595Y-105635001D01*
X180648281Y-106947744D01*
X180623249Y-107012975D01*
X180566924Y-107054318D01*
X180538002Y-107061017D01*
X180132815Y-107104783D01*
X180126177Y-107105500D01*
X180049826Y-107105500D01*
X179976760Y-107120034D01*
X179973895Y-107121947D01*
X179953831Y-107124115D01*
X179211638Y-107204283D01*
X179198322Y-107205000D01*
X178379000Y-107205000D01*
X178311961Y-107185315D01*
X178266206Y-107132511D01*
X178255000Y-107081000D01*
X178255000Y-106455833D01*
X178274685Y-106388794D01*
X178290681Y-106368794D01*
X179918575Y-104716961D01*
X179979652Y-104683029D01*
X180006894Y-104680000D01*
X180554225Y-104680000D01*
X180621264Y-104699685D01*
G37*
%TD.AperFunction*%
%TD*%
%TA.AperFunction,Conductor*%
%TO.N,+1V8*%
G36*
X135710039Y-54699685D02*
G01*
X135755794Y-54752489D01*
X135767000Y-54804000D01*
X135767000Y-55624991D01*
X135766595Y-55635001D01*
X135660281Y-56947744D01*
X135635249Y-57012975D01*
X135578924Y-57054318D01*
X135550002Y-57061017D01*
X135144815Y-57104783D01*
X135144814Y-57104783D01*
X135138175Y-57105500D01*
X135049826Y-57105500D01*
X134976760Y-57120034D01*
X134971584Y-57123492D01*
X134949595Y-57125867D01*
X134949594Y-57125868D01*
X134267196Y-57199578D01*
X134223637Y-57204283D01*
X134210322Y-57205000D01*
X133391000Y-57205000D01*
X133323961Y-57185315D01*
X133278206Y-57132511D01*
X133267000Y-57081000D01*
X133267000Y-56455833D01*
X133286685Y-56388794D01*
X133302681Y-56368794D01*
X134930575Y-54716961D01*
X134991652Y-54683029D01*
X135018894Y-54680000D01*
X135643000Y-54680000D01*
X135710039Y-54699685D01*
G37*
%TD.AperFunction*%
%TD*%
%TA.AperFunction,Conductor*%
%TO.N,+1V8*%
G36*
X100718039Y-54694685D02*
G01*
X100763794Y-54747489D01*
X100775000Y-54799000D01*
X100775000Y-55619991D01*
X100774595Y-55630001D01*
X100668281Y-56942744D01*
X100643249Y-57007975D01*
X100586924Y-57049318D01*
X100558002Y-57056017D01*
X100106525Y-57104783D01*
X100106524Y-57104783D01*
X100099885Y-57105500D01*
X100049826Y-57105500D01*
X99990363Y-57117328D01*
X99984873Y-57117921D01*
X99984871Y-57117922D01*
X99231638Y-57199283D01*
X99218322Y-57200000D01*
X98399000Y-57200000D01*
X98331961Y-57180315D01*
X98286206Y-57127511D01*
X98275000Y-57076000D01*
X98275000Y-56450833D01*
X98294685Y-56383794D01*
X98310681Y-56363794D01*
X99938575Y-54711961D01*
X99999652Y-54678029D01*
X100026894Y-54675000D01*
X100651000Y-54675000D01*
X100718039Y-54694685D01*
G37*
%TD.AperFunction*%
%TD*%
%TA.AperFunction,Conductor*%
%TO.N,+1V8*%
G36*
X55743039Y-136694685D02*
G01*
X55788794Y-136747489D01*
X55800000Y-136799000D01*
X55800000Y-137619991D01*
X55799595Y-137630001D01*
X55693281Y-138942744D01*
X55668249Y-139007975D01*
X55611924Y-139049318D01*
X55583002Y-139056017D01*
X55131525Y-139104783D01*
X55124887Y-139105500D01*
X55049826Y-139105500D01*
X54976760Y-139120034D01*
X54974144Y-139121781D01*
X54955161Y-139123832D01*
X54256638Y-139199283D01*
X54243322Y-139200000D01*
X53424000Y-139200000D01*
X53356961Y-139180315D01*
X53311206Y-139127511D01*
X53300000Y-139076000D01*
X53300000Y-138450833D01*
X53319685Y-138383794D01*
X53335681Y-138363794D01*
X54963575Y-136711961D01*
X55024652Y-136678029D01*
X55051894Y-136675000D01*
X55676000Y-136675000D01*
X55743039Y-136694685D01*
G37*
%TD.AperFunction*%
%TD*%
%TA.AperFunction,Conductor*%
%TO.N,+1V8*%
G36*
X161221563Y-79619685D02*
G01*
X161242205Y-79636318D01*
X161336985Y-79731098D01*
X161438000Y-79789419D01*
X161486216Y-79839986D01*
X161500000Y-79896806D01*
X161500000Y-80600000D01*
X161499999Y-80600000D01*
X162650400Y-81462800D01*
X162692221Y-81518771D01*
X162700000Y-81562000D01*
X162700000Y-81976000D01*
X162680315Y-82043039D01*
X162627511Y-82088794D01*
X162576000Y-82100000D01*
X160224000Y-82100000D01*
X160215314Y-82097449D01*
X160206353Y-82098738D01*
X160182312Y-82087759D01*
X160156961Y-82080315D01*
X160151033Y-82073474D01*
X160142797Y-82069713D01*
X160128507Y-82047478D01*
X160111206Y-82027511D01*
X160108918Y-82016996D01*
X160105023Y-82010935D01*
X160100000Y-81976000D01*
X160100000Y-81772122D01*
X160116612Y-81710123D01*
X160172984Y-81612485D01*
X160210500Y-81472475D01*
X160210500Y-81327525D01*
X160172984Y-81187515D01*
X160172982Y-81187511D01*
X160117113Y-81090743D01*
X160100500Y-81028743D01*
X160100500Y-79724000D01*
X160120185Y-79656961D01*
X160172989Y-79611206D01*
X160224500Y-79600000D01*
X161154524Y-79600000D01*
X161221563Y-79619685D01*
G37*
%TD.AperFunction*%
%TD*%
%TA.AperFunction,Conductor*%
%TO.N,GND*%
G36*
X89627530Y-76501722D02*
G01*
X89683463Y-76543594D01*
X89707880Y-76609058D01*
X89695291Y-76672984D01*
X89604959Y-76855181D01*
X89601089Y-76862381D01*
X89422762Y-77169400D01*
X89418425Y-77176330D01*
X89223802Y-77465661D01*
X89218366Y-77473127D01*
X64620970Y-108735536D01*
X64616489Y-108740911D01*
X64414502Y-108969780D01*
X64414493Y-108969792D01*
X64012667Y-109475417D01*
X63637490Y-110001102D01*
X63289948Y-110545469D01*
X62970971Y-111107061D01*
X62681427Y-111684354D01*
X62681412Y-111684385D01*
X62422066Y-112275846D01*
X62193586Y-112879955D01*
X61996610Y-113495030D01*
X61831657Y-114119442D01*
X61807917Y-114232701D01*
X61700486Y-114745235D01*
X61699157Y-114751575D01*
X61699154Y-114751590D01*
X61599473Y-115389684D01*
X61532871Y-116032077D01*
X61532871Y-116032085D01*
X61499523Y-116677087D01*
X61499504Y-116927636D01*
X61499500Y-116927724D01*
X61499500Y-149997438D01*
X61499394Y-150002562D01*
X61480928Y-150449016D01*
X61480082Y-150459230D01*
X61425128Y-150900099D01*
X61423441Y-150910208D01*
X61332269Y-151345028D01*
X61329753Y-151354963D01*
X61202984Y-151780773D01*
X61199656Y-151790466D01*
X61038161Y-152204339D01*
X61034045Y-152213724D01*
X60838919Y-152612863D01*
X60834041Y-152621877D01*
X60606616Y-153003544D01*
X60601010Y-153012123D01*
X60342859Y-153373687D01*
X60336564Y-153381775D01*
X60049428Y-153720796D01*
X60042487Y-153728336D01*
X59728336Y-154042487D01*
X59720796Y-154049428D01*
X59381775Y-154336564D01*
X59373687Y-154342859D01*
X59012123Y-154601010D01*
X59003544Y-154606616D01*
X58621877Y-154834041D01*
X58612863Y-154838919D01*
X58213724Y-155034045D01*
X58204339Y-155038161D01*
X57790466Y-155199656D01*
X57780773Y-155202984D01*
X57354963Y-155329753D01*
X57345028Y-155332269D01*
X56910208Y-155423441D01*
X56900099Y-155425128D01*
X56459230Y-155480082D01*
X56449016Y-155480928D01*
X56005124Y-155499288D01*
X55994876Y-155499288D01*
X55550983Y-155480928D01*
X55540769Y-155480082D01*
X55099900Y-155425128D01*
X55089791Y-155423441D01*
X54654971Y-155332269D01*
X54645036Y-155329753D01*
X54219226Y-155202984D01*
X54209533Y-155199656D01*
X53795660Y-155038161D01*
X53786275Y-155034045D01*
X53387136Y-154838919D01*
X53378122Y-154834041D01*
X52996455Y-154606616D01*
X52987876Y-154601010D01*
X52626312Y-154342859D01*
X52618224Y-154336564D01*
X52279203Y-154049428D01*
X52271663Y-154042487D01*
X51957512Y-153728336D01*
X51950571Y-153720796D01*
X51663435Y-153381775D01*
X51657140Y-153373687D01*
X51593375Y-153284379D01*
X51398989Y-153012123D01*
X51393383Y-153003544D01*
X51351561Y-152933359D01*
X51165955Y-152621872D01*
X51161080Y-152612863D01*
X50965954Y-152213724D01*
X50961838Y-152204339D01*
X50904327Y-152056952D01*
X50800338Y-151790454D01*
X50797019Y-151780786D01*
X50670242Y-151354950D01*
X50667733Y-151345042D01*
X50576555Y-150910194D01*
X50574873Y-150900114D01*
X50519915Y-150459209D01*
X50519072Y-150449036D01*
X50500606Y-150002562D01*
X50500500Y-149997438D01*
X50500500Y-149805683D01*
X51549500Y-149805683D01*
X51549500Y-150194316D01*
X51583371Y-150581462D01*
X51583371Y-150581466D01*
X51650853Y-150964172D01*
X51650857Y-150964189D01*
X51751435Y-151339555D01*
X51884362Y-151704768D01*
X52048587Y-152056952D01*
X52048600Y-152056976D01*
X52242905Y-152393521D01*
X52242914Y-152393536D01*
X52465821Y-152711880D01*
X52656358Y-152938952D01*
X52715621Y-153009579D01*
X52990421Y-153284379D01*
X53096361Y-153373273D01*
X53288119Y-153534178D01*
X53288125Y-153534182D01*
X53288126Y-153534183D01*
X53606470Y-153757090D01*
X53921894Y-153939200D01*
X53943023Y-153951399D01*
X53943047Y-153951412D01*
X54295231Y-154115637D01*
X54295236Y-154115638D01*
X54295245Y-154115643D01*
X54660434Y-154248561D01*
X54660440Y-154248562D01*
X54660444Y-154248564D01*
X54762666Y-154275954D01*
X55035818Y-154349145D01*
X55418540Y-154416629D01*
X55805685Y-154450499D01*
X55805686Y-154450500D01*
X55805687Y-154450500D01*
X56194314Y-154450500D01*
X56194314Y-154450499D01*
X56581460Y-154416629D01*
X56964182Y-154349145D01*
X57339566Y-154248561D01*
X57704755Y-154115643D01*
X57704768Y-154115637D01*
X58056952Y-153951412D01*
X58056960Y-153951407D01*
X58056970Y-153951403D01*
X58393530Y-153757090D01*
X58711874Y-153534183D01*
X59009579Y-153284379D01*
X59284379Y-153009579D01*
X59534183Y-152711874D01*
X59757090Y-152393530D01*
X59951403Y-152056970D01*
X59951407Y-152056960D01*
X59951412Y-152056952D01*
X60115637Y-151704768D01*
X60115637Y-151704767D01*
X60115643Y-151704755D01*
X60248561Y-151339566D01*
X60349145Y-150964182D01*
X60416629Y-150581460D01*
X60450500Y-150194313D01*
X60450500Y-149805687D01*
X60416629Y-149418540D01*
X60349145Y-149035818D01*
X60248561Y-148660434D01*
X60115643Y-148295245D01*
X60115638Y-148295236D01*
X60115637Y-148295231D01*
X59951412Y-147943047D01*
X59951399Y-147943023D01*
X59939200Y-147921894D01*
X59757090Y-147606470D01*
X59534183Y-147288126D01*
X59534182Y-147288125D01*
X59534178Y-147288119D01*
X59284376Y-146990418D01*
X59009581Y-146715623D01*
X58711880Y-146465821D01*
X58393536Y-146242914D01*
X58393533Y-146242912D01*
X58393530Y-146242910D01*
X58293538Y-146185179D01*
X58056976Y-146048600D01*
X58056952Y-146048587D01*
X57704768Y-145884362D01*
X57704757Y-145884358D01*
X57704755Y-145884357D01*
X57339566Y-145751439D01*
X57339565Y-145751438D01*
X57339555Y-145751435D01*
X56964189Y-145650857D01*
X56964192Y-145650857D01*
X56964182Y-145650855D01*
X56964176Y-145650853D01*
X56964172Y-145650853D01*
X56581464Y-145583371D01*
X56194316Y-145549500D01*
X56194313Y-145549500D01*
X55805687Y-145549500D01*
X55805683Y-145549500D01*
X55418537Y-145583371D01*
X55418533Y-145583371D01*
X55035827Y-145650853D01*
X55035810Y-145650857D01*
X54660444Y-145751435D01*
X54295231Y-145884362D01*
X53943047Y-146048587D01*
X53943023Y-146048600D01*
X53606478Y-146242905D01*
X53606463Y-146242914D01*
X53288119Y-146465821D01*
X52990418Y-146715623D01*
X52715623Y-146990418D01*
X52465821Y-147288119D01*
X52242914Y-147606463D01*
X52242905Y-147606478D01*
X52048600Y-147943023D01*
X52048587Y-147943047D01*
X51884362Y-148295231D01*
X51751435Y-148660444D01*
X51650857Y-149035810D01*
X51650853Y-149035827D01*
X51583371Y-149418533D01*
X51583371Y-149418537D01*
X51549500Y-149805683D01*
X50500500Y-149805683D01*
X50500500Y-117001204D01*
X50500522Y-116998844D01*
X50515481Y-116212886D01*
X50517474Y-116108126D01*
X50517654Y-116103427D01*
X50518432Y-116089813D01*
X50568420Y-115215207D01*
X50568774Y-115210561D01*
X50653304Y-114324887D01*
X50653840Y-114320218D01*
X50665568Y-114232701D01*
X50772005Y-113438447D01*
X50772711Y-113433840D01*
X50924353Y-112557144D01*
X50925243Y-112552528D01*
X51019882Y-112107064D01*
X51110127Y-111682281D01*
X51111180Y-111677746D01*
X51329058Y-110815109D01*
X51330284Y-110810620D01*
X51580826Y-109956914D01*
X51582218Y-109952483D01*
X51865064Y-109108927D01*
X51866618Y-109104566D01*
X52133518Y-108398874D01*
X52175645Y-108343134D01*
X52241221Y-108319018D01*
X52309425Y-108334182D01*
X52358603Y-108383814D01*
X52373500Y-108442741D01*
X52373500Y-134821475D01*
X52407943Y-134950015D01*
X52411016Y-134961486D01*
X52411017Y-134961488D01*
X52483487Y-135087011D01*
X52483491Y-135087016D01*
X54271411Y-136874936D01*
X54304896Y-136936259D01*
X54299912Y-137005951D01*
X54272049Y-137049656D01*
X53153696Y-138184456D01*
X53136149Y-138204209D01*
X53120153Y-138224210D01*
X53074535Y-138311808D01*
X53054850Y-138378846D01*
X53054848Y-138378854D01*
X53044500Y-138450831D01*
X53044500Y-139076002D01*
X53050338Y-139130312D01*
X53061543Y-139181818D01*
X53061545Y-139181824D01*
X53063957Y-139190615D01*
X53068779Y-139208192D01*
X53068783Y-139208203D01*
X53118105Y-139294818D01*
X53118110Y-139294825D01*
X53118112Y-139294828D01*
X53144580Y-139325374D01*
X53163863Y-139347628D01*
X53163866Y-139347631D01*
X53163867Y-139347632D01*
X53196641Y-139379257D01*
X53284976Y-139425465D01*
X53284977Y-139425465D01*
X53284977Y-139425466D01*
X53335105Y-139440184D01*
X53352015Y-139445150D01*
X53352019Y-139445150D01*
X53352021Y-139445151D01*
X53363652Y-139446823D01*
X53424000Y-139455500D01*
X53903745Y-139455500D01*
X53924990Y-139461738D01*
X53947079Y-139463318D01*
X53957862Y-139471390D01*
X53970784Y-139475185D01*
X53985283Y-139491918D01*
X54003012Y-139505190D01*
X54007719Y-139517810D01*
X54016539Y-139527989D01*
X54019690Y-139549906D01*
X54027429Y-139570654D01*
X54024566Y-139583814D01*
X54026483Y-139597147D01*
X54017283Y-139617290D01*
X54012577Y-139638927D01*
X53999308Y-139656652D01*
X53997458Y-139660703D01*
X53991426Y-139667181D01*
X53920426Y-139738181D01*
X53859103Y-139771666D01*
X53832745Y-139774500D01*
X53470730Y-139774500D01*
X53440300Y-139777353D01*
X53440298Y-139777353D01*
X53312119Y-139822206D01*
X53312117Y-139822207D01*
X53202850Y-139902850D01*
X53122207Y-140012117D01*
X53122206Y-140012119D01*
X53077353Y-140140298D01*
X53077353Y-140140300D01*
X53074500Y-140170730D01*
X53074500Y-140679269D01*
X53077353Y-140709699D01*
X53077353Y-140709701D01*
X53122206Y-140837880D01*
X53122207Y-140837882D01*
X53202850Y-140947150D01*
X53250091Y-140982015D01*
X53312118Y-141027793D01*
X53312121Y-141027794D01*
X53316452Y-141029310D01*
X53373229Y-141070030D01*
X53398978Y-141134982D01*
X53399500Y-141146352D01*
X53399500Y-141252726D01*
X53426793Y-141354589D01*
X53428904Y-141358245D01*
X53479520Y-141445913D01*
X55604087Y-143570480D01*
X55695412Y-143623207D01*
X55797273Y-143650500D01*
X55797275Y-143650500D01*
X58082725Y-143650500D01*
X58082727Y-143650500D01*
X58184588Y-143623207D01*
X58275913Y-143570480D01*
X59279240Y-142567153D01*
X59331967Y-142475828D01*
X59359260Y-142373967D01*
X59359260Y-142268513D01*
X59359260Y-106718841D01*
X59378945Y-106651802D01*
X59395574Y-106631165D01*
X89496517Y-76530221D01*
X89557838Y-76496738D01*
X89627530Y-76501722D01*
G37*
%TD.AperFunction*%
%TA.AperFunction,Conductor*%
G36*
X117392539Y-54670185D02*
G01*
X117438294Y-54722989D01*
X117449500Y-54774500D01*
X117449500Y-62005260D01*
X117472612Y-62091519D01*
X117487013Y-62145264D01*
X117487016Y-62145271D01*
X117516967Y-62197149D01*
X117559489Y-62270799D01*
X117559491Y-62270802D01*
X118188756Y-62900066D01*
X118188777Y-62900089D01*
X120521508Y-65232819D01*
X120554993Y-65294142D01*
X120550009Y-65363834D01*
X120508137Y-65419767D01*
X120442673Y-65444184D01*
X120433827Y-65444500D01*
X119801304Y-65444500D01*
X119746851Y-65431904D01*
X119727999Y-65422689D01*
X119727994Y-65422687D01*
X119679923Y-65405102D01*
X119679915Y-65405099D01*
X119679900Y-65405094D01*
X119655339Y-65397489D01*
X119655336Y-65397488D01*
X119655332Y-65397487D01*
X119655329Y-65397486D01*
X119655326Y-65397486D01*
X119555778Y-65392151D01*
X119550747Y-65392376D01*
X119482898Y-65375695D01*
X119451183Y-65349318D01*
X119441494Y-65338043D01*
X119428050Y-65311658D01*
X119362414Y-65246022D01*
X119359365Y-65242474D01*
X119350728Y-65223356D01*
X119333635Y-65193748D01*
X119323207Y-65154830D01*
X119278052Y-65076620D01*
X119270480Y-65063505D01*
X119195913Y-64988938D01*
X119195910Y-64988936D01*
X118427950Y-64220976D01*
X116134767Y-61927791D01*
X116101282Y-61866468D01*
X116106266Y-61796776D01*
X116111044Y-61785656D01*
X116115573Y-61776393D01*
X116125500Y-61708260D01*
X116125500Y-61441740D01*
X116115573Y-61373607D01*
X116064198Y-61268517D01*
X116064196Y-61268515D01*
X116064196Y-61268514D01*
X115981485Y-61185803D01*
X115876391Y-61134426D01*
X115808261Y-61124500D01*
X115808260Y-61124500D01*
X114466740Y-61124500D01*
X114466739Y-61124500D01*
X114398607Y-61134426D01*
X114398606Y-61134426D01*
X114290253Y-61187396D01*
X114289902Y-61187567D01*
X114279279Y-61192718D01*
X114245414Y-61201793D01*
X114169746Y-61245480D01*
X114165889Y-61247706D01*
X114165874Y-61247714D01*
X114154091Y-61254517D01*
X114154086Y-61254521D01*
X113728522Y-61680085D01*
X113728520Y-61680088D01*
X113675791Y-61771414D01*
X113662530Y-61820912D01*
X113662530Y-61820913D01*
X113648500Y-61873274D01*
X113648500Y-63414225D01*
X113675793Y-63516088D01*
X113702156Y-63561749D01*
X113728520Y-63607412D01*
X113728522Y-63607414D01*
X116123274Y-66002166D01*
X116156759Y-66063489D01*
X116151775Y-66133181D01*
X116138308Y-66159314D01*
X116132283Y-66168221D01*
X116120754Y-66180170D01*
X116108966Y-66202698D01*
X116105051Y-66208488D01*
X116105039Y-66208497D01*
X116104829Y-66208816D01*
X116103267Y-66211109D01*
X116079344Y-66249840D01*
X116079342Y-66249844D01*
X116070045Y-66283728D01*
X116070046Y-66283729D01*
X116061612Y-66314471D01*
X116061086Y-66314317D01*
X116054848Y-66335563D01*
X116053770Y-66343055D01*
X116052967Y-66345983D01*
X116052905Y-66346861D01*
X116051960Y-66355644D01*
X116044500Y-66407534D01*
X116044500Y-66925803D01*
X116024815Y-66992842D01*
X116008181Y-67013484D01*
X113759491Y-69262173D01*
X113759485Y-69262181D01*
X113700469Y-69364402D01*
X113700469Y-69364404D01*
X113687016Y-69387705D01*
X113649500Y-69527715D01*
X113649500Y-69527717D01*
X113649500Y-70275500D01*
X113629815Y-70342539D01*
X113577011Y-70388294D01*
X113525500Y-70399500D01*
X113325323Y-70399500D01*
X113252264Y-70414032D01*
X113252260Y-70414033D01*
X113169399Y-70469399D01*
X113114033Y-70552260D01*
X113114032Y-70552264D01*
X113099500Y-70625321D01*
X113099500Y-72374678D01*
X113114032Y-72447735D01*
X113114033Y-72447739D01*
X113132405Y-72475235D01*
X113169399Y-72530601D01*
X113252260Y-72585966D01*
X113252264Y-72585967D01*
X113325321Y-72600499D01*
X113325324Y-72600500D01*
X113325326Y-72600500D01*
X115074676Y-72600500D01*
X115074677Y-72600499D01*
X115147740Y-72585966D01*
X115230601Y-72530601D01*
X115285966Y-72447740D01*
X115300500Y-72374674D01*
X115300500Y-70625326D01*
X115300500Y-70625323D01*
X115300499Y-70625321D01*
X115285967Y-70552264D01*
X115285966Y-70552260D01*
X115230601Y-70469399D01*
X115147740Y-70414034D01*
X115147739Y-70414033D01*
X115147735Y-70414032D01*
X115074677Y-70399500D01*
X115074674Y-70399500D01*
X114874500Y-70399500D01*
X114807461Y-70379815D01*
X114761706Y-70327011D01*
X114750500Y-70275500D01*
X114750500Y-69879576D01*
X114770185Y-69812537D01*
X114786814Y-69791900D01*
X116142413Y-68436300D01*
X116203736Y-68402816D01*
X116273428Y-68407800D01*
X116329361Y-68449672D01*
X116353778Y-68515136D01*
X116349868Y-68556077D01*
X116347064Y-68566541D01*
X116339500Y-68594768D01*
X116339500Y-70392958D01*
X116319815Y-70459997D01*
X116271794Y-70503443D01*
X116163213Y-70558766D01*
X116071610Y-70625321D01*
X116023072Y-70660586D01*
X116023070Y-70660588D01*
X116023069Y-70660588D01*
X115900588Y-70783069D01*
X115900588Y-70783070D01*
X115900586Y-70783072D01*
X115856859Y-70843256D01*
X115798768Y-70923211D01*
X115720128Y-71077552D01*
X115666597Y-71242302D01*
X115654067Y-71321414D01*
X115639500Y-71413389D01*
X115639500Y-71586611D01*
X115666598Y-71757701D01*
X115720127Y-71922445D01*
X115798768Y-72076788D01*
X115900586Y-72216928D01*
X116023072Y-72339414D01*
X116163212Y-72441232D01*
X116317555Y-72519873D01*
X116482299Y-72573402D01*
X116653389Y-72600500D01*
X116653390Y-72600500D01*
X116826610Y-72600500D01*
X116826611Y-72600500D01*
X116997701Y-72573402D01*
X117162445Y-72519873D01*
X117316788Y-72441232D01*
X117456928Y-72339414D01*
X117579414Y-72216928D01*
X117681232Y-72076788D01*
X117759873Y-71922445D01*
X117813402Y-71757701D01*
X117840500Y-71586611D01*
X117840500Y-71413389D01*
X117813402Y-71242299D01*
X117759873Y-71077555D01*
X117681232Y-70923212D01*
X117579414Y-70783072D01*
X117456928Y-70660586D01*
X117386858Y-70609677D01*
X117316786Y-70558766D01*
X117208206Y-70503443D01*
X117157409Y-70455469D01*
X117140500Y-70392958D01*
X117140500Y-69370821D01*
X117160185Y-69303782D01*
X117212989Y-69258027D01*
X117245101Y-69248347D01*
X117325304Y-69235646D01*
X117438342Y-69178050D01*
X117528050Y-69088342D01*
X117585646Y-68975304D01*
X117585646Y-68975302D01*
X117585647Y-68975301D01*
X117598451Y-68894457D01*
X117600500Y-68881519D01*
X117600499Y-67937558D01*
X117620183Y-67870520D01*
X117658615Y-67832510D01*
X117669391Y-67825751D01*
X117673806Y-67824369D01*
X117735129Y-67790884D01*
X117787516Y-67751667D01*
X117791847Y-67748951D01*
X117820745Y-67740811D01*
X117848884Y-67730316D01*
X117857731Y-67730000D01*
X118141436Y-67730000D01*
X118208475Y-67749685D01*
X118219242Y-67757448D01*
X118249182Y-67781575D01*
X118249185Y-67781576D01*
X118249189Y-67781580D01*
X118293500Y-67810058D01*
X118293513Y-67810066D01*
X118293529Y-67810076D01*
X118317301Y-67823613D01*
X118317303Y-67823613D01*
X118322950Y-67825953D01*
X118377354Y-67869792D01*
X118399421Y-67936086D01*
X118399500Y-67940515D01*
X118399500Y-68881517D01*
X118402507Y-68900500D01*
X118414354Y-68975304D01*
X118471950Y-69088342D01*
X118471952Y-69088344D01*
X118471954Y-69088347D01*
X118561652Y-69178045D01*
X118561654Y-69178046D01*
X118561658Y-69178050D01*
X118674694Y-69235645D01*
X118674698Y-69235647D01*
X118773293Y-69251263D01*
X118772985Y-69253205D01*
X118830498Y-69275113D01*
X118871980Y-69331336D01*
X118879500Y-69373862D01*
X118879500Y-70392958D01*
X118859815Y-70459997D01*
X118811794Y-70503443D01*
X118703213Y-70558766D01*
X118611610Y-70625321D01*
X118563072Y-70660586D01*
X118563070Y-70660588D01*
X118563069Y-70660588D01*
X118440588Y-70783069D01*
X118440588Y-70783070D01*
X118440586Y-70783072D01*
X118396859Y-70843256D01*
X118338768Y-70923211D01*
X118260128Y-71077552D01*
X118206597Y-71242302D01*
X118194067Y-71321414D01*
X118179500Y-71413389D01*
X118179500Y-71586611D01*
X118206598Y-71757701D01*
X118260127Y-71922445D01*
X118338768Y-72076788D01*
X118440586Y-72216928D01*
X118563072Y-72339414D01*
X118703212Y-72441232D01*
X118857555Y-72519873D01*
X119022299Y-72573402D01*
X119193389Y-72600500D01*
X119193390Y-72600500D01*
X119366610Y-72600500D01*
X119366611Y-72600500D01*
X119537701Y-72573402D01*
X119702445Y-72519873D01*
X119856788Y-72441232D01*
X119996928Y-72339414D01*
X120119414Y-72216928D01*
X120221232Y-72076788D01*
X120299873Y-71922445D01*
X120353402Y-71757701D01*
X120380500Y-71586611D01*
X120380500Y-71413389D01*
X120353402Y-71242299D01*
X120299873Y-71077555D01*
X120221232Y-70923212D01*
X120119414Y-70783072D01*
X119996928Y-70660586D01*
X119926858Y-70609677D01*
X119856786Y-70558766D01*
X119748206Y-70503443D01*
X119737141Y-70492993D01*
X119723297Y-70486671D01*
X119712256Y-70469491D01*
X119697409Y-70455469D01*
X119693167Y-70439787D01*
X119685523Y-70427893D01*
X119680500Y-70392958D01*
X119680500Y-70365186D01*
X142349500Y-70365186D01*
X142349500Y-70634813D01*
X142379686Y-70902719D01*
X142379687Y-70902728D01*
X142379688Y-70902732D01*
X142388437Y-70941062D01*
X142439684Y-71165594D01*
X142439687Y-71165602D01*
X142528734Y-71420082D01*
X142645714Y-71662994D01*
X142645716Y-71662997D01*
X142789162Y-71891289D01*
X142957266Y-72102085D01*
X143147915Y-72292734D01*
X143358711Y-72460838D01*
X143587003Y-72604284D01*
X143829921Y-72721267D01*
X144021049Y-72788145D01*
X144084397Y-72810312D01*
X144084405Y-72810315D01*
X144084408Y-72810315D01*
X144084409Y-72810316D01*
X144347268Y-72870312D01*
X144615187Y-72900499D01*
X144615188Y-72900500D01*
X144615191Y-72900500D01*
X144884812Y-72900500D01*
X144884812Y-72900499D01*
X145152732Y-72870312D01*
X145415591Y-72810316D01*
X145670079Y-72721267D01*
X145912997Y-72604284D01*
X146141289Y-72460838D01*
X146352085Y-72292734D01*
X146542734Y-72102085D01*
X146710838Y-71891289D01*
X146854284Y-71662997D01*
X146971267Y-71420079D01*
X147060316Y-71165591D01*
X147120312Y-70902732D01*
X147150500Y-70634809D01*
X147150500Y-70365191D01*
X147120312Y-70097268D01*
X147060316Y-69834409D01*
X146971267Y-69579921D01*
X146854284Y-69337003D01*
X146710838Y-69108711D01*
X146542734Y-68897915D01*
X146352085Y-68707266D01*
X146141289Y-68539162D01*
X145954170Y-68421587D01*
X145912994Y-68395714D01*
X145670082Y-68278734D01*
X145415602Y-68189687D01*
X145415594Y-68189684D01*
X145218446Y-68144687D01*
X145152732Y-68129688D01*
X145152728Y-68129687D01*
X145152719Y-68129686D01*
X144884813Y-68099500D01*
X144884809Y-68099500D01*
X144615191Y-68099500D01*
X144615186Y-68099500D01*
X144347280Y-68129686D01*
X144347268Y-68129688D01*
X144084405Y-68189684D01*
X144084397Y-68189687D01*
X143829917Y-68278734D01*
X143587005Y-68395714D01*
X143358712Y-68539161D01*
X143147915Y-68707265D01*
X142957265Y-68897915D01*
X142789161Y-69108712D01*
X142645714Y-69337005D01*
X142528734Y-69579917D01*
X142439687Y-69834397D01*
X142439684Y-69834405D01*
X142379688Y-70097268D01*
X142379686Y-70097280D01*
X142349500Y-70365186D01*
X119680500Y-70365186D01*
X119680500Y-68614775D01*
X119680500Y-68614773D01*
X119653207Y-68512913D01*
X119600480Y-68421587D01*
X119547368Y-68368475D01*
X121849500Y-68368475D01*
X121849500Y-68731517D01*
X121851601Y-68744780D01*
X121864354Y-68825304D01*
X121921950Y-68938342D01*
X121921952Y-68938344D01*
X121921954Y-68938347D01*
X122011652Y-69028045D01*
X122011654Y-69028046D01*
X122011658Y-69028050D01*
X122124694Y-69085645D01*
X122124698Y-69085647D01*
X122218475Y-69100499D01*
X122218481Y-69100500D01*
X122432708Y-69100499D01*
X122480164Y-69109939D01*
X122487510Y-69112981D01*
X122487515Y-69112984D01*
X122627525Y-69150500D01*
X122627528Y-69150500D01*
X122772472Y-69150500D01*
X122772475Y-69150500D01*
X122912485Y-69112984D01*
X122912493Y-69112978D01*
X122919832Y-69109940D01*
X122967290Y-69100499D01*
X123306517Y-69100499D01*
X123306518Y-69100499D01*
X123400304Y-69085646D01*
X123513342Y-69028050D01*
X123603050Y-68938342D01*
X123660646Y-68825304D01*
X123660646Y-68825302D01*
X123660647Y-68825301D01*
X123675499Y-68731524D01*
X123675500Y-68731519D01*
X123675499Y-68368482D01*
X123675498Y-68368475D01*
X124124500Y-68368475D01*
X124124500Y-68731517D01*
X124126601Y-68744780D01*
X124139354Y-68825304D01*
X124196950Y-68938342D01*
X124196952Y-68938344D01*
X124196954Y-68938347D01*
X124286652Y-69028045D01*
X124286654Y-69028046D01*
X124286658Y-69028050D01*
X124399694Y-69085645D01*
X124399698Y-69085647D01*
X124493475Y-69100499D01*
X124493481Y-69100500D01*
X125581518Y-69100499D01*
X125675304Y-69085646D01*
X125788342Y-69028050D01*
X125878050Y-68938342D01*
X125935646Y-68825304D01*
X125935646Y-68825302D01*
X125935647Y-68825301D01*
X125950499Y-68731524D01*
X125950500Y-68731519D01*
X125950499Y-68368482D01*
X125935646Y-68274696D01*
X125878050Y-68161658D01*
X125878046Y-68161654D01*
X125878045Y-68161652D01*
X125788347Y-68071954D01*
X125788344Y-68071952D01*
X125788342Y-68071950D01*
X125711517Y-68032805D01*
X125675301Y-68014352D01*
X125581524Y-67999500D01*
X124493482Y-67999500D01*
X124412519Y-68012323D01*
X124399696Y-68014354D01*
X124286658Y-68071950D01*
X124286657Y-68071951D01*
X124286652Y-68071954D01*
X124196954Y-68161652D01*
X124196951Y-68161657D01*
X124196950Y-68161658D01*
X124177751Y-68199337D01*
X124139352Y-68274698D01*
X124124500Y-68368475D01*
X123675498Y-68368475D01*
X123660646Y-68274696D01*
X123603050Y-68161658D01*
X123603046Y-68161654D01*
X123603045Y-68161652D01*
X123513347Y-68071954D01*
X123513344Y-68071952D01*
X123513342Y-68071950D01*
X123436517Y-68032805D01*
X123400301Y-68014352D01*
X123306524Y-67999500D01*
X122218482Y-67999500D01*
X122137519Y-68012323D01*
X122124696Y-68014354D01*
X122011658Y-68071950D01*
X122011657Y-68071951D01*
X122011652Y-68071954D01*
X121921954Y-68161652D01*
X121921951Y-68161657D01*
X121921950Y-68161658D01*
X121902751Y-68199337D01*
X121864352Y-68274698D01*
X121849500Y-68368475D01*
X119547368Y-68368475D01*
X119534929Y-68356036D01*
X119533143Y-68354090D01*
X119518848Y-68325016D01*
X119503333Y-68296602D01*
X119502900Y-68292579D01*
X119502315Y-68291389D01*
X119502551Y-68289330D01*
X119500499Y-68270244D01*
X119500499Y-68079500D01*
X119520184Y-68012461D01*
X119572988Y-67966706D01*
X119624499Y-67955500D01*
X121240825Y-67955500D01*
X121242261Y-67955422D01*
X121268138Y-67954036D01*
X121294496Y-67951202D01*
X121389630Y-67921413D01*
X121450953Y-67887928D01*
X121509171Y-67844347D01*
X121938028Y-67415487D01*
X121963698Y-67395790D01*
X121991297Y-67379855D01*
X122021203Y-67367469D01*
X122051973Y-67359224D01*
X122084065Y-67355000D01*
X123270430Y-67355000D01*
X123316044Y-67363695D01*
X123346341Y-67375681D01*
X123383154Y-67387018D01*
X123395168Y-67390399D01*
X123494717Y-67395734D01*
X123563875Y-67385790D01*
X123563883Y-67385788D01*
X123563884Y-67385788D01*
X123574198Y-67383350D01*
X123608198Y-67375316D01*
X123694828Y-67325985D01*
X123747632Y-67280230D01*
X123779257Y-67247456D01*
X123825465Y-67159121D01*
X123845150Y-67092082D01*
X123855500Y-67020097D01*
X123855500Y-66545887D01*
X123861738Y-66524641D01*
X123863318Y-66502553D01*
X123871390Y-66491769D01*
X123875185Y-66478848D01*
X123891918Y-66464348D01*
X123905190Y-66446620D01*
X123917810Y-66441912D01*
X123927989Y-66433093D01*
X123949906Y-66429941D01*
X123970654Y-66422203D01*
X123983814Y-66425065D01*
X123997147Y-66423149D01*
X124017290Y-66432348D01*
X124038927Y-66437055D01*
X124056652Y-66450323D01*
X124060703Y-66452174D01*
X124067181Y-66458206D01*
X124088181Y-66479206D01*
X124121666Y-66540529D01*
X124124500Y-66566887D01*
X124124500Y-66831517D01*
X124134634Y-66895501D01*
X124139354Y-66925304D01*
X124196950Y-67038342D01*
X124196952Y-67038344D01*
X124196954Y-67038347D01*
X124286652Y-67128045D01*
X124286654Y-67128046D01*
X124286658Y-67128050D01*
X124399696Y-67185646D01*
X124399698Y-67185647D01*
X124493475Y-67200499D01*
X124493481Y-67200500D01*
X124950582Y-67200499D01*
X124950592Y-67200500D01*
X124965025Y-67200500D01*
X126283487Y-67200500D01*
X126350526Y-67220185D01*
X126357790Y-67225227D01*
X126419774Y-67271628D01*
X126547886Y-67319412D01*
X126604515Y-67325500D01*
X127195484Y-67325499D01*
X127252114Y-67319412D01*
X127380226Y-67271628D01*
X127489687Y-67189687D01*
X127571628Y-67080226D01*
X127619412Y-66952114D01*
X127622294Y-66925304D01*
X127625499Y-66895501D01*
X127625499Y-66895494D01*
X127625500Y-66895485D01*
X127625499Y-66354516D01*
X127619412Y-66297886D01*
X127614131Y-66283728D01*
X127587045Y-66211109D01*
X127571628Y-66169774D01*
X127489687Y-66060313D01*
X127412011Y-66002166D01*
X127380228Y-65978373D01*
X127380226Y-65978372D01*
X127252114Y-65930588D01*
X127252112Y-65930587D01*
X127252110Y-65930587D01*
X127195493Y-65924500D01*
X126604518Y-65924500D01*
X126604509Y-65924501D01*
X126547885Y-65930587D01*
X126419773Y-65978372D01*
X126310310Y-66060315D01*
X126307445Y-66063181D01*
X126303888Y-66065122D01*
X126303214Y-66065628D01*
X126303141Y-66065530D01*
X126246122Y-66096666D01*
X126219764Y-66099500D01*
X125316887Y-66099500D01*
X125249848Y-66079815D01*
X125229206Y-66063181D01*
X124124516Y-64958491D01*
X124124515Y-64958490D01*
X123998985Y-64886016D01*
X123998986Y-64886016D01*
X123963982Y-64876637D01*
X123858975Y-64848500D01*
X123858972Y-64848500D01*
X123764666Y-64848500D01*
X123697627Y-64828815D01*
X123651872Y-64776011D01*
X123641928Y-64706853D01*
X123644891Y-64692407D01*
X123650500Y-64671475D01*
X123650500Y-64526525D01*
X123612984Y-64386515D01*
X123551211Y-64279522D01*
X123540511Y-64260988D01*
X123540506Y-64260982D01*
X123536819Y-64257295D01*
X123522115Y-64230367D01*
X123505523Y-64204549D01*
X123504631Y-64198348D01*
X123503334Y-64195972D01*
X123500500Y-64169614D01*
X123500500Y-64046352D01*
X123520185Y-63979313D01*
X123572989Y-63933558D01*
X123583548Y-63929310D01*
X123585915Y-63928481D01*
X123587882Y-63927793D01*
X123697150Y-63847150D01*
X123777793Y-63737882D01*
X123810127Y-63645477D01*
X123822646Y-63609701D01*
X123822646Y-63609699D01*
X123825500Y-63579269D01*
X123825500Y-63070730D01*
X123822646Y-63040300D01*
X123822646Y-63040298D01*
X123789006Y-62944163D01*
X123777793Y-62912118D01*
X123697150Y-62802850D01*
X123587882Y-62722207D01*
X123587880Y-62722206D01*
X123459700Y-62677353D01*
X123429270Y-62674500D01*
X123429266Y-62674500D01*
X122770734Y-62674500D01*
X122770730Y-62674500D01*
X122740300Y-62677353D01*
X122740298Y-62677353D01*
X122612119Y-62722206D01*
X122612117Y-62722207D01*
X122502848Y-62802851D01*
X122450241Y-62874133D01*
X122394594Y-62916384D01*
X122350471Y-62924500D01*
X121974500Y-62924500D01*
X121907461Y-62904815D01*
X121861706Y-62852011D01*
X121850500Y-62800500D01*
X121850500Y-62741739D01*
X121840573Y-62673608D01*
X121840573Y-62673607D01*
X121789198Y-62568517D01*
X121789196Y-62568515D01*
X121789196Y-62568514D01*
X121706485Y-62485803D01*
X121601391Y-62434426D01*
X121533261Y-62424500D01*
X121533260Y-62424500D01*
X120191740Y-62424500D01*
X120191739Y-62424500D01*
X120123608Y-62434426D01*
X120018514Y-62485803D01*
X119935803Y-62568514D01*
X119884426Y-62673608D01*
X119873853Y-62746180D01*
X119872095Y-62745923D01*
X119850177Y-62804399D01*
X119794176Y-62846180D01*
X119724477Y-62851053D01*
X119663349Y-62817610D01*
X118967303Y-62121563D01*
X118967280Y-62121542D01*
X118586819Y-61741080D01*
X118553334Y-61679757D01*
X118550500Y-61653399D01*
X118550500Y-54774500D01*
X118570185Y-54707461D01*
X118622989Y-54661706D01*
X118674500Y-54650500D01*
X133995613Y-54650500D01*
X134025053Y-54659144D01*
X134055040Y-54665668D01*
X134060055Y-54669422D01*
X134062652Y-54670185D01*
X134083294Y-54686819D01*
X134257273Y-54860798D01*
X134290758Y-54922121D01*
X134285774Y-54991813D01*
X134257911Y-55035518D01*
X133120696Y-56189456D01*
X133103149Y-56209209D01*
X133087153Y-56229210D01*
X133041535Y-56316808D01*
X133021850Y-56383846D01*
X133021848Y-56383854D01*
X133011500Y-56455831D01*
X133011500Y-56807745D01*
X132991815Y-56874784D01*
X132939011Y-56920539D01*
X132869853Y-56930483D01*
X132806297Y-56901458D01*
X132799819Y-56895426D01*
X131958915Y-56054522D01*
X131958913Y-56054520D01*
X131913250Y-56028156D01*
X131867589Y-56001793D01*
X131807911Y-55985803D01*
X131765727Y-55974500D01*
X131765726Y-55974500D01*
X121712052Y-55974500D01*
X121657592Y-55961901D01*
X121601391Y-55934426D01*
X121533261Y-55924500D01*
X121533260Y-55924500D01*
X120191740Y-55924500D01*
X120191739Y-55924500D01*
X120123608Y-55934426D01*
X120018514Y-55985803D01*
X119935803Y-56068514D01*
X119884426Y-56173608D01*
X119874500Y-56241739D01*
X119874500Y-56508260D01*
X119884426Y-56576392D01*
X119884426Y-56576393D01*
X119918230Y-56645541D01*
X119929988Y-56714414D01*
X119918230Y-56754459D01*
X119884426Y-56823606D01*
X119884426Y-56823607D01*
X119874500Y-56891739D01*
X119874500Y-57158260D01*
X119884426Y-57226392D01*
X119884426Y-57226393D01*
X119918230Y-57295541D01*
X119929988Y-57364414D01*
X119918230Y-57404459D01*
X119884426Y-57473606D01*
X119884426Y-57473607D01*
X119874500Y-57541739D01*
X119874500Y-57808260D01*
X119884426Y-57876392D01*
X119884426Y-57876393D01*
X119918230Y-57945541D01*
X119929988Y-58014414D01*
X119918230Y-58054459D01*
X119884426Y-58123606D01*
X119884426Y-58123607D01*
X119874500Y-58191739D01*
X119874500Y-58458260D01*
X119884426Y-58526392D01*
X119884426Y-58526393D01*
X119918230Y-58595541D01*
X119929988Y-58664414D01*
X119918230Y-58704459D01*
X119884426Y-58773606D01*
X119884426Y-58773607D01*
X119874500Y-58841739D01*
X119874500Y-59108260D01*
X119884426Y-59176392D01*
X119884426Y-59176393D01*
X119918230Y-59245541D01*
X119929988Y-59314414D01*
X119918230Y-59354459D01*
X119884426Y-59423606D01*
X119884426Y-59423607D01*
X119874500Y-59491739D01*
X119874500Y-59758260D01*
X119884426Y-59826392D01*
X119884426Y-59826393D01*
X119918230Y-59895541D01*
X119929988Y-59964414D01*
X119918230Y-60004459D01*
X119884426Y-60073606D01*
X119884426Y-60073607D01*
X119874500Y-60141739D01*
X119874500Y-60408260D01*
X119884426Y-60476392D01*
X119884426Y-60476393D01*
X119918230Y-60545541D01*
X119929988Y-60614414D01*
X119918230Y-60654459D01*
X119884426Y-60723606D01*
X119884426Y-60723607D01*
X119874500Y-60791739D01*
X119874500Y-61058260D01*
X119884426Y-61126392D01*
X119884426Y-61126393D01*
X119918230Y-61195541D01*
X119929988Y-61264414D01*
X119918230Y-61304459D01*
X119884426Y-61373606D01*
X119884426Y-61373607D01*
X119874500Y-61441739D01*
X119874500Y-61708260D01*
X119884426Y-61776391D01*
X119935803Y-61881485D01*
X120018514Y-61964196D01*
X120018515Y-61964196D01*
X120018517Y-61964198D01*
X120123607Y-62015573D01*
X120157673Y-62020536D01*
X120191739Y-62025500D01*
X120191740Y-62025500D01*
X121533261Y-62025500D01*
X121555971Y-62022191D01*
X121601393Y-62015573D01*
X121657592Y-61988098D01*
X121712052Y-61975500D01*
X122294901Y-61975500D01*
X122361940Y-61995185D01*
X122407695Y-62047989D01*
X122411934Y-62058525D01*
X122422207Y-62087882D01*
X122502850Y-62197150D01*
X122612118Y-62277793D01*
X122654845Y-62292744D01*
X122740299Y-62322646D01*
X122770730Y-62325500D01*
X122770734Y-62325500D01*
X123429270Y-62325500D01*
X123459699Y-62322646D01*
X123459701Y-62322646D01*
X123523790Y-62300219D01*
X123587882Y-62277793D01*
X123697150Y-62197150D01*
X123777793Y-62087882D01*
X123810229Y-61995185D01*
X123822646Y-61959701D01*
X123822646Y-61959699D01*
X123825500Y-61929269D01*
X123825500Y-61449500D01*
X123845185Y-61382461D01*
X123897989Y-61336706D01*
X123949500Y-61325500D01*
X130663251Y-61325500D01*
X130730290Y-61345185D01*
X130750932Y-61361819D01*
X132157272Y-62768159D01*
X132157273Y-62768160D01*
X132307273Y-62918160D01*
X136813593Y-67424480D01*
X136904918Y-67477207D01*
X137006779Y-67504500D01*
X137112233Y-67504500D01*
X146952665Y-67504500D01*
X147019704Y-67524185D01*
X147040346Y-67540819D01*
X148596141Y-69096614D01*
X148629626Y-69157937D01*
X148632460Y-69184295D01*
X148632460Y-77111248D01*
X148659753Y-77213111D01*
X148686116Y-77258772D01*
X148712480Y-77304435D01*
X148712482Y-77304437D01*
X176235181Y-104827136D01*
X176268666Y-104888459D01*
X176271500Y-104914817D01*
X176271500Y-135643966D01*
X176298793Y-135745829D01*
X176325156Y-135791490D01*
X176351520Y-135837153D01*
X176351522Y-135837155D01*
X177328561Y-136814194D01*
X177362046Y-136875517D01*
X177364880Y-136901875D01*
X177364880Y-136907095D01*
X177372695Y-136936259D01*
X177402397Y-137047108D01*
X177474868Y-137172631D01*
X177474870Y-137172633D01*
X177474871Y-137172635D01*
X177577365Y-137275129D01*
X177615633Y-137297223D01*
X177663849Y-137347790D01*
X177677072Y-137416397D01*
X177651104Y-137481262D01*
X177641314Y-137492291D01*
X177179522Y-137954084D01*
X177179520Y-137954087D01*
X177126793Y-138045412D01*
X177105602Y-138124500D01*
X177105601Y-138124499D01*
X177099500Y-138147268D01*
X177099500Y-138147273D01*
X177099500Y-139160273D01*
X177099500Y-139265727D01*
X177113146Y-139316657D01*
X177126793Y-139367589D01*
X177133530Y-139379257D01*
X177179520Y-139458913D01*
X177179522Y-139458915D01*
X177975181Y-140254574D01*
X178008666Y-140315897D01*
X178011500Y-140342255D01*
X178011500Y-140704269D01*
X178014353Y-140734699D01*
X178014353Y-140734701D01*
X178057591Y-140858264D01*
X178059207Y-140862882D01*
X178139850Y-140972150D01*
X178249118Y-141052793D01*
X178291845Y-141067744D01*
X178377299Y-141097646D01*
X178407730Y-141100500D01*
X178407734Y-141100500D01*
X179066270Y-141100500D01*
X179096699Y-141097646D01*
X179096701Y-141097646D01*
X179175621Y-141070030D01*
X179224882Y-141052793D01*
X179334150Y-140972150D01*
X179364283Y-140931321D01*
X179824000Y-140931321D01*
X179824000Y-141468678D01*
X179838532Y-141541735D01*
X179838533Y-141541739D01*
X179838534Y-141541740D01*
X179893899Y-141624601D01*
X179976760Y-141679966D01*
X179976764Y-141679967D01*
X180049821Y-141694499D01*
X180049824Y-141694500D01*
X180049826Y-141694500D01*
X180674176Y-141694500D01*
X180674177Y-141694499D01*
X180747240Y-141679966D01*
X180830101Y-141624601D01*
X180885466Y-141541740D01*
X180900000Y-141468674D01*
X180900000Y-140931326D01*
X180900000Y-140931323D01*
X180899999Y-140931321D01*
X180885467Y-140858264D01*
X180885466Y-140858260D01*
X180862975Y-140824600D01*
X180830101Y-140775399D01*
X180747240Y-140720034D01*
X180747239Y-140720033D01*
X180747235Y-140720032D01*
X180674177Y-140705500D01*
X180674174Y-140705500D01*
X180049826Y-140705500D01*
X180049823Y-140705500D01*
X179976764Y-140720032D01*
X179976760Y-140720033D01*
X179893899Y-140775399D01*
X179838533Y-140858260D01*
X179838532Y-140858264D01*
X179824000Y-140931321D01*
X179364283Y-140931321D01*
X179414793Y-140862882D01*
X179445405Y-140775399D01*
X179459646Y-140734701D01*
X179459646Y-140734699D01*
X179462500Y-140704269D01*
X179462500Y-140342254D01*
X179482185Y-140275215D01*
X179498819Y-140254573D01*
X179716573Y-140036819D01*
X179743500Y-140022115D01*
X179769319Y-140005523D01*
X179775519Y-140004631D01*
X179777896Y-140003334D01*
X179804254Y-140000500D01*
X179820215Y-140000500D01*
X179887254Y-140020185D01*
X179889105Y-140021397D01*
X179893898Y-140024599D01*
X179893899Y-140024601D01*
X179976759Y-140079965D01*
X179976760Y-140079966D01*
X179976764Y-140079967D01*
X180049821Y-140094499D01*
X180049824Y-140094500D01*
X180049826Y-140094500D01*
X180674176Y-140094500D01*
X180674177Y-140094499D01*
X180747240Y-140079966D01*
X180830101Y-140024601D01*
X180885466Y-139941740D01*
X180885466Y-139941739D01*
X180892251Y-139931585D01*
X180893176Y-139932203D01*
X180899334Y-139924561D01*
X180909248Y-139904759D01*
X180920828Y-139897888D01*
X180929278Y-139887403D01*
X180950293Y-139880407D01*
X180969339Y-139869109D01*
X180982794Y-139869589D01*
X180995572Y-139865337D01*
X181017031Y-139870813D01*
X181039164Y-139871605D01*
X181050224Y-139879285D01*
X181063272Y-139882615D01*
X181078364Y-139898824D01*
X181096555Y-139911456D01*
X181107847Y-139930491D01*
X181110883Y-139933751D01*
X181114563Y-139941810D01*
X181119012Y-139952552D01*
X181126478Y-140022021D01*
X181119011Y-140047451D01*
X181114533Y-140058261D01*
X181100000Y-140131323D01*
X181100000Y-140668678D01*
X181114532Y-140741735D01*
X181114533Y-140741739D01*
X181114534Y-140741740D01*
X181169899Y-140824601D01*
X181227192Y-140862882D01*
X181252760Y-140879966D01*
X181252764Y-140879967D01*
X181325821Y-140894499D01*
X181325824Y-140894500D01*
X181325826Y-140894500D01*
X181950176Y-140894500D01*
X181950177Y-140894499D01*
X182023240Y-140879966D01*
X182106101Y-140824601D01*
X182161466Y-140741740D01*
X182176000Y-140668674D01*
X182176000Y-140131326D01*
X182176000Y-140131323D01*
X182175999Y-140131321D01*
X182161467Y-140058262D01*
X182156991Y-140047457D01*
X182149519Y-139977988D01*
X182156991Y-139952543D01*
X182161467Y-139941737D01*
X182171111Y-139893248D01*
X182176000Y-139868674D01*
X182176000Y-139331326D01*
X182176000Y-139331323D01*
X182175999Y-139331321D01*
X182161467Y-139258262D01*
X182156991Y-139247457D01*
X182149519Y-139177988D01*
X182156991Y-139152543D01*
X182161467Y-139141737D01*
X182174543Y-139076000D01*
X182176000Y-139068674D01*
X182176000Y-138531326D01*
X182176000Y-138531323D01*
X182175999Y-138531321D01*
X182161467Y-138458264D01*
X182161466Y-138458260D01*
X182106101Y-138375399D01*
X182106099Y-138375398D01*
X182106099Y-138375397D01*
X182102782Y-138373181D01*
X182057977Y-138319568D01*
X182049271Y-138250243D01*
X182079427Y-138187216D01*
X182083974Y-138182418D01*
X182332480Y-137933913D01*
X182362862Y-137881289D01*
X182413429Y-137833074D01*
X182421275Y-137829698D01*
X182424879Y-137827794D01*
X182424882Y-137827793D01*
X182534150Y-137747150D01*
X182614793Y-137637882D01*
X182642150Y-137559699D01*
X182659646Y-137509701D01*
X182659646Y-137509699D01*
X182662500Y-137479269D01*
X182662500Y-136820730D01*
X182659646Y-136790300D01*
X182659646Y-136790298D01*
X182625659Y-136693172D01*
X182614793Y-136662118D01*
X182534150Y-136552850D01*
X182424882Y-136472207D01*
X182424880Y-136472206D01*
X182296700Y-136427353D01*
X182266270Y-136424500D01*
X182266266Y-136424500D01*
X181757734Y-136424500D01*
X181757730Y-136424500D01*
X181727300Y-136427353D01*
X181727298Y-136427353D01*
X181599119Y-136472206D01*
X181599117Y-136472207D01*
X181489850Y-136552850D01*
X181489848Y-136552851D01*
X181455692Y-136599133D01*
X181400044Y-136641384D01*
X181355921Y-136649500D01*
X181327525Y-136649500D01*
X181198993Y-136683940D01*
X181187511Y-136687017D01*
X181158594Y-136703712D01*
X181090694Y-136720182D01*
X181024667Y-136697329D01*
X180985589Y-136648238D01*
X180985057Y-136648541D01*
X180983113Y-136645128D01*
X180982034Y-136643772D01*
X180981220Y-136641808D01*
X180981219Y-136641802D01*
X180981215Y-136641796D01*
X180981214Y-136641792D01*
X180931894Y-136555181D01*
X180931890Y-136555176D01*
X180931888Y-136555172D01*
X180886133Y-136502368D01*
X180853359Y-136470743D01*
X180765024Y-136424535D01*
X180765023Y-136424534D01*
X180765022Y-136424534D01*
X180765022Y-136424533D01*
X180697990Y-136404851D01*
X180697978Y-136404848D01*
X180626001Y-136394500D01*
X180626000Y-136394500D01*
X180436387Y-136394500D01*
X180369348Y-136374815D01*
X180348706Y-136358181D01*
X178410819Y-134420294D01*
X178377334Y-134358971D01*
X178374500Y-134332613D01*
X178374500Y-109099500D01*
X178394185Y-109032461D01*
X178446989Y-108986706D01*
X178498500Y-108975500D01*
X179129270Y-108975500D01*
X179159699Y-108972646D01*
X179159701Y-108972646D01*
X179225501Y-108949621D01*
X179277800Y-108931321D01*
X179824000Y-108931321D01*
X179824000Y-109468678D01*
X179838532Y-109541735D01*
X179838533Y-109541739D01*
X179838534Y-109541740D01*
X179893899Y-109624601D01*
X179976760Y-109679966D01*
X179976764Y-109679967D01*
X180049821Y-109694499D01*
X180049824Y-109694500D01*
X180049826Y-109694500D01*
X180674176Y-109694500D01*
X180674177Y-109694499D01*
X180747240Y-109679966D01*
X180830101Y-109624601D01*
X180885466Y-109541740D01*
X180900000Y-109468674D01*
X180900000Y-108931326D01*
X180900000Y-108931323D01*
X180899999Y-108931321D01*
X180885467Y-108858264D01*
X180885466Y-108858260D01*
X180862975Y-108824600D01*
X180830101Y-108775399D01*
X180747240Y-108720034D01*
X180747239Y-108720033D01*
X180747235Y-108720032D01*
X180674177Y-108705500D01*
X180674174Y-108705500D01*
X180049826Y-108705500D01*
X180049823Y-108705500D01*
X179976764Y-108720032D01*
X179976760Y-108720033D01*
X179893899Y-108775399D01*
X179838533Y-108858260D01*
X179838532Y-108858264D01*
X179824000Y-108931321D01*
X179277800Y-108931321D01*
X179287882Y-108927793D01*
X179397150Y-108847150D01*
X179477793Y-108737882D01*
X179502010Y-108668674D01*
X179522646Y-108609701D01*
X179522646Y-108609699D01*
X179525500Y-108579269D01*
X179525500Y-108574500D01*
X179545185Y-108507461D01*
X179597989Y-108461706D01*
X179649500Y-108450500D01*
X179672472Y-108450500D01*
X179672475Y-108450500D01*
X179812485Y-108412984D01*
X179938015Y-108340509D01*
X180040509Y-108238015D01*
X180087572Y-108156500D01*
X180138139Y-108108284D01*
X180194959Y-108094500D01*
X180674176Y-108094500D01*
X180674177Y-108094499D01*
X180747240Y-108079966D01*
X180830101Y-108024601D01*
X180885466Y-107941740D01*
X180885466Y-107941739D01*
X180892251Y-107931585D01*
X180893176Y-107932203D01*
X180899334Y-107924561D01*
X180909248Y-107904759D01*
X180920828Y-107897888D01*
X180929278Y-107887403D01*
X180950293Y-107880407D01*
X180969339Y-107869109D01*
X180982794Y-107869589D01*
X180995572Y-107865337D01*
X181017031Y-107870813D01*
X181039164Y-107871605D01*
X181050224Y-107879285D01*
X181063272Y-107882615D01*
X181078364Y-107898824D01*
X181096555Y-107911456D01*
X181107847Y-107930491D01*
X181110883Y-107933751D01*
X181114563Y-107941810D01*
X181119012Y-107952552D01*
X181126478Y-108022021D01*
X181119011Y-108047451D01*
X181114533Y-108058261D01*
X181100000Y-108131323D01*
X181100000Y-108668678D01*
X181114532Y-108741735D01*
X181114533Y-108741739D01*
X181114534Y-108741740D01*
X181169899Y-108824601D01*
X181252760Y-108879966D01*
X181252764Y-108879967D01*
X181325821Y-108894499D01*
X181325824Y-108894500D01*
X181325826Y-108894500D01*
X181950176Y-108894500D01*
X181950177Y-108894499D01*
X182023240Y-108879966D01*
X182106101Y-108824601D01*
X182161466Y-108741740D01*
X182176000Y-108668674D01*
X182176000Y-108131326D01*
X182176000Y-108131323D01*
X182175999Y-108131321D01*
X182161467Y-108058262D01*
X182156991Y-108047457D01*
X182149519Y-107977988D01*
X182156991Y-107952543D01*
X182161467Y-107941737D01*
X182171111Y-107893248D01*
X182176000Y-107868674D01*
X182176000Y-107331326D01*
X182176000Y-107331323D01*
X182175999Y-107331321D01*
X182161467Y-107258262D01*
X182156991Y-107247457D01*
X182149519Y-107177988D01*
X182156991Y-107152543D01*
X182161467Y-107141737D01*
X182175999Y-107068678D01*
X182176000Y-107068676D01*
X182176000Y-106879755D01*
X182195685Y-106812716D01*
X182212319Y-106792074D01*
X182228130Y-106776263D01*
X182245480Y-106758913D01*
X182298207Y-106667588D01*
X182325500Y-106565727D01*
X182325500Y-106460273D01*
X182325500Y-105949529D01*
X182345185Y-105882490D01*
X182375867Y-105849759D01*
X182387461Y-105841202D01*
X182447150Y-105797150D01*
X182527793Y-105687882D01*
X182557764Y-105602230D01*
X182572646Y-105559701D01*
X182572646Y-105559699D01*
X182575500Y-105529269D01*
X182575500Y-105418541D01*
X182595185Y-105351502D01*
X182647989Y-105305747D01*
X182717147Y-105295803D01*
X182780703Y-105324828D01*
X182805088Y-105353526D01*
X183113072Y-105853738D01*
X183240257Y-106060305D01*
X183242655Y-106064370D01*
X183679939Y-106839155D01*
X183682180Y-106843309D01*
X184089652Y-107634147D01*
X184091733Y-107638382D01*
X184468818Y-108444153D01*
X184470737Y-108448465D01*
X184747838Y-109104524D01*
X184816891Y-109268011D01*
X184818644Y-109272392D01*
X185133365Y-110104525D01*
X185134950Y-110108971D01*
X185417769Y-110952448D01*
X185419183Y-110956948D01*
X185446067Y-111048553D01*
X185669705Y-111810590D01*
X185670948Y-111815143D01*
X185888810Y-112677717D01*
X185889878Y-112682313D01*
X186074755Y-113552529D01*
X186075648Y-113557164D01*
X186227282Y-114433812D01*
X186227997Y-114438476D01*
X186346158Y-115320219D01*
X186346696Y-115324908D01*
X186431221Y-116210533D01*
X186431580Y-116215238D01*
X186482344Y-117103427D01*
X186482524Y-117108143D01*
X186487330Y-117360636D01*
X186499478Y-117998932D01*
X186499500Y-118001219D01*
X186499500Y-149997438D01*
X186499394Y-150002562D01*
X186480928Y-150449016D01*
X186480082Y-150459230D01*
X186425128Y-150900099D01*
X186423441Y-150910208D01*
X186332269Y-151345028D01*
X186329753Y-151354963D01*
X186202984Y-151780773D01*
X186199656Y-151790466D01*
X186038161Y-152204339D01*
X186034045Y-152213724D01*
X185838919Y-152612863D01*
X185834041Y-152621877D01*
X185606616Y-153003544D01*
X185601010Y-153012123D01*
X185342859Y-153373687D01*
X185336564Y-153381775D01*
X185049428Y-153720796D01*
X185042487Y-153728336D01*
X184728336Y-154042487D01*
X184720796Y-154049428D01*
X184381775Y-154336564D01*
X184373687Y-154342859D01*
X184012123Y-154601010D01*
X184003544Y-154606616D01*
X183621877Y-154834041D01*
X183612863Y-154838919D01*
X183213724Y-155034045D01*
X183204339Y-155038161D01*
X182790466Y-155199656D01*
X182780773Y-155202984D01*
X182354963Y-155329753D01*
X182345028Y-155332269D01*
X181910208Y-155423441D01*
X181900099Y-155425128D01*
X181459230Y-155480082D01*
X181449016Y-155480928D01*
X181005124Y-155499288D01*
X180994876Y-155499288D01*
X180550983Y-155480928D01*
X180540769Y-155480082D01*
X180099900Y-155425128D01*
X180089791Y-155423441D01*
X179654971Y-155332269D01*
X179645036Y-155329753D01*
X179219226Y-155202984D01*
X179209533Y-155199656D01*
X178795660Y-155038161D01*
X178786275Y-155034045D01*
X178387136Y-154838919D01*
X178378122Y-154834041D01*
X177996455Y-154606616D01*
X177987876Y-154601010D01*
X177626312Y-154342859D01*
X177618224Y-154336564D01*
X177279203Y-154049428D01*
X177271663Y-154042487D01*
X176957512Y-153728336D01*
X176950571Y-153720796D01*
X176663435Y-153381775D01*
X176657140Y-153373687D01*
X176593375Y-153284379D01*
X176398989Y-153012123D01*
X176393383Y-153003544D01*
X176351561Y-152933359D01*
X176165955Y-152621872D01*
X176161080Y-152612863D01*
X175965954Y-152213724D01*
X175961838Y-152204339D01*
X175904327Y-152056952D01*
X175800338Y-151790454D01*
X175797019Y-151780786D01*
X175670242Y-151354950D01*
X175667733Y-151345042D01*
X175576555Y-150910194D01*
X175574873Y-150900114D01*
X175519915Y-150459209D01*
X175519072Y-150449036D01*
X175500606Y-150002562D01*
X175500500Y-149997438D01*
X175500500Y-149805683D01*
X176549500Y-149805683D01*
X176549500Y-150194316D01*
X176583371Y-150581462D01*
X176583371Y-150581466D01*
X176650853Y-150964172D01*
X176650857Y-150964189D01*
X176751435Y-151339555D01*
X176884362Y-151704768D01*
X177048587Y-152056952D01*
X177048600Y-152056976D01*
X177242905Y-152393521D01*
X177242914Y-152393536D01*
X177465821Y-152711880D01*
X177656358Y-152938952D01*
X177715621Y-153009579D01*
X177990421Y-153284379D01*
X178096361Y-153373273D01*
X178288119Y-153534178D01*
X178288125Y-153534182D01*
X178288126Y-153534183D01*
X178606470Y-153757090D01*
X178921894Y-153939200D01*
X178943023Y-153951399D01*
X178943047Y-153951412D01*
X179295231Y-154115637D01*
X179295236Y-154115638D01*
X179295245Y-154115643D01*
X179660434Y-154248561D01*
X179660440Y-154248562D01*
X179660444Y-154248564D01*
X179762666Y-154275954D01*
X180035818Y-154349145D01*
X180418540Y-154416629D01*
X180805685Y-154450499D01*
X180805686Y-154450500D01*
X180805687Y-154450500D01*
X181194314Y-154450500D01*
X181194314Y-154450499D01*
X181581460Y-154416629D01*
X181964182Y-154349145D01*
X182339566Y-154248561D01*
X182704755Y-154115643D01*
X182704768Y-154115637D01*
X183056952Y-153951412D01*
X183056960Y-153951407D01*
X183056970Y-153951403D01*
X183393530Y-153757090D01*
X183711874Y-153534183D01*
X184009579Y-153284379D01*
X184284379Y-153009579D01*
X184534183Y-152711874D01*
X184757090Y-152393530D01*
X184951403Y-152056970D01*
X184951407Y-152056960D01*
X184951412Y-152056952D01*
X185115637Y-151704768D01*
X185115637Y-151704767D01*
X185115643Y-151704755D01*
X185248561Y-151339566D01*
X185349145Y-150964182D01*
X185416629Y-150581460D01*
X185450500Y-150194313D01*
X185450500Y-149805687D01*
X185416629Y-149418540D01*
X185349145Y-149035818D01*
X185248561Y-148660434D01*
X185115643Y-148295245D01*
X185115638Y-148295236D01*
X185115637Y-148295231D01*
X184951412Y-147943047D01*
X184951399Y-147943023D01*
X184939200Y-147921894D01*
X184757090Y-147606470D01*
X184534183Y-147288126D01*
X184534182Y-147288125D01*
X184534178Y-147288119D01*
X184284376Y-146990418D01*
X184009581Y-146715623D01*
X183711880Y-146465821D01*
X183393536Y-146242914D01*
X183393533Y-146242912D01*
X183393530Y-146242910D01*
X183293538Y-146185179D01*
X183056976Y-146048600D01*
X183056952Y-146048587D01*
X182704768Y-145884362D01*
X182704757Y-145884358D01*
X182704755Y-145884357D01*
X182339566Y-145751439D01*
X182339565Y-145751438D01*
X182339555Y-145751435D01*
X181964189Y-145650857D01*
X181964192Y-145650857D01*
X181964182Y-145650855D01*
X181964176Y-145650853D01*
X181964172Y-145650853D01*
X181581464Y-145583371D01*
X181194316Y-145549500D01*
X181194313Y-145549500D01*
X180805687Y-145549500D01*
X180805683Y-145549500D01*
X180418537Y-145583371D01*
X180418533Y-145583371D01*
X180035827Y-145650853D01*
X180035810Y-145650857D01*
X179660444Y-145751435D01*
X179295231Y-145884362D01*
X178943047Y-146048587D01*
X178943023Y-146048600D01*
X178606478Y-146242905D01*
X178606463Y-146242914D01*
X178288119Y-146465821D01*
X177990418Y-146715623D01*
X177715623Y-146990418D01*
X177465821Y-147288119D01*
X177242914Y-147606463D01*
X177242905Y-147606478D01*
X177048600Y-147943023D01*
X177048587Y-147943047D01*
X176884362Y-148295231D01*
X176751435Y-148660444D01*
X176650857Y-149035810D01*
X176650853Y-149035827D01*
X176583371Y-149418533D01*
X176583371Y-149418537D01*
X176549500Y-149805683D01*
X175500500Y-149805683D01*
X175500500Y-117926248D01*
X175500493Y-117926144D01*
X175500475Y-117677088D01*
X175500475Y-117677075D01*
X175467128Y-117032086D01*
X175400525Y-116389679D01*
X175300841Y-115751568D01*
X175168344Y-115119454D01*
X175003387Y-114495025D01*
X174806409Y-113879946D01*
X174577937Y-113275857D01*
X174501492Y-113101519D01*
X174318586Y-112684386D01*
X174318571Y-112684355D01*
X174029027Y-112107061D01*
X173788935Y-111684354D01*
X173710056Y-111545478D01*
X173362513Y-111001109D01*
X172987328Y-110475411D01*
X172585500Y-109969786D01*
X172382738Y-109740040D01*
X172378548Y-109735033D01*
X147211131Y-77989425D01*
X147204019Y-77975437D01*
X147170318Y-77937944D01*
X147139010Y-77898453D01*
X147139008Y-77898450D01*
X147133175Y-77892799D01*
X147133660Y-77892297D01*
X147123238Y-77882452D01*
X146906605Y-77623076D01*
X146901083Y-77615953D01*
X146673063Y-77298666D01*
X146668072Y-77291160D01*
X146544119Y-77089185D01*
X146463691Y-76958131D01*
X146459265Y-76950292D01*
X146279619Y-76603301D01*
X146275769Y-76595152D01*
X146156271Y-76316426D01*
X146121810Y-76236049D01*
X146118564Y-76227648D01*
X145992396Y-75862073D01*
X145991113Y-75858142D01*
X145990435Y-75855945D01*
X145977272Y-75806814D01*
X145973026Y-75799460D01*
X145970453Y-75791111D01*
X145970401Y-75790998D01*
X145970400Y-75790994D01*
X145967756Y-75786755D01*
X145941171Y-75744140D01*
X145941171Y-75744141D01*
X145940044Y-75742335D01*
X145911380Y-75692686D01*
X145905241Y-75686547D01*
X145900647Y-75679183D01*
X145858738Y-75640044D01*
X145818194Y-75599500D01*
X145810678Y-75595160D01*
X145804333Y-75589235D01*
X145804328Y-75589232D01*
X145755583Y-75563268D01*
X145755583Y-75563267D01*
X145753697Y-75562262D01*
X145704066Y-75533608D01*
X145695679Y-75531360D01*
X145688021Y-75527281D01*
X145688014Y-75527279D01*
X145634230Y-75514820D01*
X145630121Y-75513794D01*
X145576773Y-75499500D01*
X145568712Y-75498439D01*
X145568775Y-75497958D01*
X145567769Y-75497843D01*
X145567723Y-75498326D01*
X145559637Y-75497541D01*
X145559635Y-75497541D01*
X145513180Y-75499128D01*
X145504430Y-75499428D01*
X145500195Y-75499500D01*
X90826601Y-75499500D01*
X90805355Y-75493261D01*
X90783267Y-75491682D01*
X90772483Y-75483609D01*
X90759562Y-75479815D01*
X90745062Y-75463081D01*
X90727334Y-75449810D01*
X90722626Y-75437189D01*
X90713807Y-75427011D01*
X90710655Y-75405093D01*
X90702917Y-75384346D01*
X90705779Y-75371185D01*
X90703863Y-75357853D01*
X90713062Y-75337709D01*
X90717769Y-75316073D01*
X90731037Y-75298347D01*
X90732888Y-75294297D01*
X90738920Y-75287819D01*
X90804429Y-75222310D01*
X90860019Y-75190216D01*
X90919763Y-75174208D01*
X90919762Y-75174208D01*
X90919767Y-75174207D01*
X91011092Y-75121480D01*
X98742925Y-67389645D01*
X98804248Y-67356161D01*
X98830606Y-67353327D01*
X101099898Y-67353327D01*
X101099900Y-67353327D01*
X101201761Y-67326034D01*
X101293086Y-67273307D01*
X107880574Y-60685819D01*
X107941897Y-60652334D01*
X107968255Y-60649500D01*
X114234764Y-60649500D01*
X114289224Y-60662099D01*
X114293516Y-60664197D01*
X114293517Y-60664198D01*
X114398607Y-60715573D01*
X114432673Y-60720536D01*
X114466739Y-60725500D01*
X114466740Y-60725500D01*
X115808261Y-60725500D01*
X115830971Y-60722191D01*
X115876393Y-60715573D01*
X115981483Y-60664198D01*
X116064198Y-60581483D01*
X116115573Y-60476393D01*
X116125500Y-60408260D01*
X116125500Y-60141740D01*
X116115573Y-60073607D01*
X116081768Y-60004458D01*
X116070010Y-59935587D01*
X116081769Y-59895540D01*
X116115573Y-59826393D01*
X116125500Y-59758260D01*
X116125500Y-59491740D01*
X116115573Y-59423607D01*
X116081768Y-59354458D01*
X116070010Y-59285587D01*
X116081769Y-59245540D01*
X116115573Y-59176393D01*
X116125500Y-59108260D01*
X116125500Y-58841740D01*
X116115573Y-58773607D01*
X116081768Y-58704458D01*
X116070010Y-58635587D01*
X116081769Y-58595540D01*
X116115573Y-58526393D01*
X116125500Y-58458260D01*
X116125500Y-58191740D01*
X116115573Y-58123607D01*
X116081768Y-58054458D01*
X116070010Y-57985587D01*
X116081769Y-57945540D01*
X116115573Y-57876393D01*
X116125500Y-57808260D01*
X116125500Y-57541740D01*
X116123496Y-57527989D01*
X116115573Y-57473608D01*
X116115572Y-57473606D01*
X116081768Y-57404458D01*
X116070010Y-57335587D01*
X116081769Y-57295540D01*
X116082117Y-57294828D01*
X116115573Y-57226393D01*
X116125500Y-57158260D01*
X116125500Y-56891740D01*
X116115573Y-56823607D01*
X116081768Y-56754458D01*
X116070010Y-56685587D01*
X116081769Y-56645540D01*
X116087015Y-56634809D01*
X116115573Y-56576393D01*
X116125500Y-56508260D01*
X116125500Y-56241740D01*
X116115573Y-56173607D01*
X116081768Y-56104458D01*
X116070010Y-56035587D01*
X116081769Y-55995540D01*
X116086529Y-55985803D01*
X116115573Y-55926393D01*
X116125500Y-55858260D01*
X116125500Y-55591740D01*
X116115573Y-55523607D01*
X116064198Y-55418517D01*
X116064196Y-55418515D01*
X116064196Y-55418514D01*
X115981485Y-55335803D01*
X115876391Y-55284426D01*
X115808261Y-55274500D01*
X115808260Y-55274500D01*
X114466740Y-55274500D01*
X114466739Y-55274500D01*
X114398608Y-55284426D01*
X114342408Y-55311901D01*
X114287948Y-55324500D01*
X102749500Y-55324500D01*
X102682461Y-55304815D01*
X102636706Y-55252011D01*
X102625500Y-55200500D01*
X102625500Y-54870730D01*
X102622646Y-54840301D01*
X102613952Y-54815454D01*
X102610391Y-54745675D01*
X102645120Y-54685048D01*
X102707113Y-54652821D01*
X102730994Y-54650500D01*
X115278239Y-54650500D01*
X117325500Y-54650500D01*
X117392539Y-54670185D01*
G37*
%TD.AperFunction*%
%TA.AperFunction,Conductor*%
G36*
X58477594Y-136416312D02*
G01*
X58533527Y-136458184D01*
X58557944Y-136523648D01*
X58558260Y-136532494D01*
X58558260Y-142103985D01*
X58538575Y-142171024D01*
X58521941Y-142191666D01*
X57900426Y-142813181D01*
X57839103Y-142846666D01*
X57812745Y-142849500D01*
X56067255Y-142849500D01*
X56000216Y-142829815D01*
X55979574Y-142813181D01*
X55072574Y-141906181D01*
X55039089Y-141844858D01*
X55044073Y-141775166D01*
X55085945Y-141719233D01*
X55151409Y-141694816D01*
X55160255Y-141694500D01*
X55674176Y-141694500D01*
X55674177Y-141694499D01*
X55747240Y-141679966D01*
X55830101Y-141624601D01*
X55885466Y-141541740D01*
X55900000Y-141468674D01*
X55900000Y-140931326D01*
X55900000Y-140931323D01*
X55899999Y-140931321D01*
X55885467Y-140858264D01*
X55885466Y-140858260D01*
X55862975Y-140824600D01*
X55830101Y-140775399D01*
X55747240Y-140720034D01*
X55747239Y-140720033D01*
X55747235Y-140720032D01*
X55674177Y-140705500D01*
X55674174Y-140705500D01*
X55049826Y-140705500D01*
X55049823Y-140705500D01*
X54976764Y-140720032D01*
X54976760Y-140720033D01*
X54893899Y-140775399D01*
X54838533Y-140858260D01*
X54838532Y-140858264D01*
X54824000Y-140931321D01*
X54824000Y-141358245D01*
X54804315Y-141425284D01*
X54751511Y-141471039D01*
X54682353Y-141480983D01*
X54618797Y-141451958D01*
X54612319Y-141445926D01*
X54335860Y-141169467D01*
X54302375Y-141108144D01*
X54307359Y-141038452D01*
X54349231Y-140982519D01*
X54349754Y-140982129D01*
X54397150Y-140947150D01*
X54477793Y-140837882D01*
X54500219Y-140773790D01*
X54522646Y-140709701D01*
X54522646Y-140709699D01*
X54525500Y-140679269D01*
X54525500Y-140317255D01*
X54545185Y-140250216D01*
X54561819Y-140229574D01*
X54651095Y-140140298D01*
X54745748Y-140045644D01*
X54807069Y-140012161D01*
X54876760Y-140017145D01*
X54902309Y-140030220D01*
X54976760Y-140079966D01*
X54976762Y-140079966D01*
X54976764Y-140079967D01*
X55049821Y-140094499D01*
X55049824Y-140094500D01*
X55049826Y-140094500D01*
X55674176Y-140094500D01*
X55674177Y-140094499D01*
X55747240Y-140079966D01*
X55830101Y-140024601D01*
X55885466Y-139941740D01*
X55885466Y-139941739D01*
X55892251Y-139931585D01*
X55893176Y-139932203D01*
X55899334Y-139924561D01*
X55909248Y-139904759D01*
X55920828Y-139897888D01*
X55929278Y-139887403D01*
X55950293Y-139880407D01*
X55969339Y-139869109D01*
X55982794Y-139869589D01*
X55995572Y-139865337D01*
X56017031Y-139870813D01*
X56039164Y-139871605D01*
X56050224Y-139879285D01*
X56063272Y-139882615D01*
X56078364Y-139898824D01*
X56096555Y-139911456D01*
X56107847Y-139930491D01*
X56110883Y-139933751D01*
X56114563Y-139941810D01*
X56119012Y-139952552D01*
X56126478Y-140022021D01*
X56119011Y-140047451D01*
X56114533Y-140058261D01*
X56100000Y-140131323D01*
X56100000Y-140668678D01*
X56114532Y-140741735D01*
X56114533Y-140741739D01*
X56114534Y-140741740D01*
X56169899Y-140824601D01*
X56227192Y-140862882D01*
X56252760Y-140879966D01*
X56252764Y-140879967D01*
X56325821Y-140894499D01*
X56325824Y-140894500D01*
X56325826Y-140894500D01*
X56950176Y-140894500D01*
X56950177Y-140894499D01*
X57023240Y-140879966D01*
X57106101Y-140824601D01*
X57161466Y-140741740D01*
X57176000Y-140668674D01*
X57176000Y-140131326D01*
X57176000Y-140131323D01*
X57175999Y-140131321D01*
X57161467Y-140058262D01*
X57156991Y-140047457D01*
X57149519Y-139977988D01*
X57156991Y-139952543D01*
X57161467Y-139941737D01*
X57171111Y-139893248D01*
X57176000Y-139868674D01*
X57176000Y-139331326D01*
X57176000Y-139331323D01*
X57175999Y-139331321D01*
X57161467Y-139258262D01*
X57156991Y-139247457D01*
X57149519Y-139177988D01*
X57156991Y-139152543D01*
X57161467Y-139141737D01*
X57174543Y-139076000D01*
X57176000Y-139068674D01*
X57176000Y-138531326D01*
X57176000Y-138531323D01*
X57175999Y-138531321D01*
X57161467Y-138458264D01*
X57161466Y-138458260D01*
X57106101Y-138375399D01*
X57106099Y-138375398D01*
X57106099Y-138375397D01*
X57093608Y-138367051D01*
X57088518Y-138360960D01*
X57081297Y-138357663D01*
X57066432Y-138334532D01*
X57048804Y-138313439D01*
X57046852Y-138304065D01*
X57043523Y-138298885D01*
X57038500Y-138263950D01*
X57038500Y-138049500D01*
X57058185Y-137982461D01*
X57110989Y-137936706D01*
X57162500Y-137925500D01*
X57279270Y-137925500D01*
X57309699Y-137922646D01*
X57309701Y-137922646D01*
X57383243Y-137896912D01*
X57437882Y-137877793D01*
X57547150Y-137797150D01*
X57627793Y-137687882D01*
X57660297Y-137594991D01*
X57672646Y-137559701D01*
X57672646Y-137559699D01*
X57675500Y-137529269D01*
X57675500Y-137167254D01*
X57695185Y-137100215D01*
X57711819Y-137079573D01*
X58346579Y-136444813D01*
X58407902Y-136411328D01*
X58477594Y-136416312D01*
G37*
%TD.AperFunction*%
%TA.AperFunction,Conductor*%
G36*
X57982072Y-106258914D02*
G01*
X58035950Y-106303399D01*
X58057225Y-106369951D01*
X58057260Y-106372902D01*
X58057260Y-135549985D01*
X58037575Y-135617024D01*
X58020941Y-135637666D01*
X57220426Y-136438181D01*
X57159103Y-136471666D01*
X57132745Y-136474500D01*
X56770730Y-136474500D01*
X56740300Y-136477353D01*
X56740298Y-136477353D01*
X56612119Y-136522206D01*
X56612117Y-136522207D01*
X56502850Y-136602850D01*
X56422207Y-136712117D01*
X56422206Y-136712119D01*
X56377353Y-136840298D01*
X56377353Y-136840300D01*
X56374500Y-136870730D01*
X56374500Y-137232745D01*
X56354815Y-137299784D01*
X56351402Y-137304819D01*
X56345436Y-137313170D01*
X56317520Y-137341087D01*
X56283894Y-137399327D01*
X56280402Y-137404217D01*
X56257440Y-137422220D01*
X56236319Y-137442359D01*
X56230268Y-137443525D01*
X56225418Y-137447328D01*
X56196359Y-137450059D01*
X56167711Y-137455581D01*
X56161991Y-137453291D01*
X56155855Y-137453868D01*
X56129932Y-137440455D01*
X56102847Y-137429612D01*
X56099273Y-137424593D01*
X56093799Y-137421761D01*
X56079245Y-137396468D01*
X56062319Y-137372698D01*
X56060977Y-137364719D01*
X56058953Y-137361201D01*
X56059276Y-137354605D01*
X56055500Y-137332143D01*
X56055500Y-136799000D01*
X56049661Y-136744687D01*
X56038455Y-136693176D01*
X56031219Y-136666802D01*
X56031216Y-136666796D01*
X55981894Y-136580181D01*
X55981890Y-136580176D01*
X55981888Y-136580172D01*
X55936133Y-136527368D01*
X55903359Y-136495743D01*
X55815024Y-136449535D01*
X55815023Y-136449534D01*
X55815022Y-136449534D01*
X55815022Y-136449533D01*
X55747990Y-136429851D01*
X55747978Y-136429848D01*
X55676001Y-136419500D01*
X55676000Y-136419500D01*
X55424387Y-136419500D01*
X55357348Y-136399815D01*
X55336706Y-136383181D01*
X53510819Y-134557294D01*
X53477334Y-134495971D01*
X53474500Y-134469613D01*
X53474500Y-109199500D01*
X53494185Y-109132461D01*
X53546989Y-109086706D01*
X53598500Y-109075500D01*
X54229270Y-109075500D01*
X54259699Y-109072646D01*
X54259701Y-109072646D01*
X54325501Y-109049621D01*
X54387882Y-109027793D01*
X54497150Y-108947150D01*
X54508832Y-108931321D01*
X54824000Y-108931321D01*
X54824000Y-109468678D01*
X54838532Y-109541735D01*
X54838533Y-109541739D01*
X54838534Y-109541740D01*
X54893899Y-109624601D01*
X54976760Y-109679966D01*
X54976764Y-109679967D01*
X55049821Y-109694499D01*
X55049824Y-109694500D01*
X55049826Y-109694500D01*
X55674176Y-109694500D01*
X55674177Y-109694499D01*
X55747240Y-109679966D01*
X55830101Y-109624601D01*
X55885466Y-109541740D01*
X55900000Y-109468674D01*
X55900000Y-108931326D01*
X55900000Y-108931323D01*
X55899999Y-108931321D01*
X55885467Y-108858264D01*
X55885466Y-108858260D01*
X55862975Y-108824600D01*
X55830101Y-108775399D01*
X55747240Y-108720034D01*
X55747239Y-108720033D01*
X55747235Y-108720032D01*
X55674177Y-108705500D01*
X55674174Y-108705500D01*
X55049826Y-108705500D01*
X55049823Y-108705500D01*
X54976764Y-108720032D01*
X54976760Y-108720033D01*
X54893899Y-108775399D01*
X54838533Y-108858260D01*
X54838532Y-108858264D01*
X54824000Y-108931321D01*
X54508832Y-108931321D01*
X54577793Y-108837882D01*
X54600219Y-108773790D01*
X54622646Y-108709701D01*
X54622646Y-108709699D01*
X54625500Y-108679269D01*
X54625500Y-108317255D01*
X54634144Y-108287814D01*
X54640668Y-108257828D01*
X54644422Y-108252812D01*
X54645185Y-108250216D01*
X54661819Y-108229574D01*
X54704574Y-108186819D01*
X54765897Y-108153334D01*
X54792255Y-108150500D01*
X54797472Y-108150500D01*
X54797475Y-108150500D01*
X54937485Y-108112984D01*
X54949662Y-108105953D01*
X55017558Y-108089478D01*
X55035859Y-108091721D01*
X55038673Y-108092281D01*
X55049824Y-108094500D01*
X55049826Y-108094500D01*
X55674176Y-108094500D01*
X55674177Y-108094499D01*
X55747240Y-108079966D01*
X55830101Y-108024601D01*
X55885466Y-107941740D01*
X55885466Y-107941739D01*
X55892251Y-107931585D01*
X55893176Y-107932203D01*
X55899334Y-107924561D01*
X55909248Y-107904759D01*
X55920828Y-107897888D01*
X55929278Y-107887403D01*
X55950293Y-107880407D01*
X55969339Y-107869109D01*
X55982794Y-107869589D01*
X55995572Y-107865337D01*
X56017031Y-107870813D01*
X56039164Y-107871605D01*
X56050224Y-107879285D01*
X56063272Y-107882615D01*
X56078364Y-107898824D01*
X56096555Y-107911456D01*
X56107847Y-107930491D01*
X56110883Y-107933751D01*
X56114563Y-107941810D01*
X56119012Y-107952552D01*
X56126478Y-108022021D01*
X56119011Y-108047451D01*
X56114533Y-108058261D01*
X56100000Y-108131323D01*
X56100000Y-108668678D01*
X56114532Y-108741735D01*
X56114533Y-108741739D01*
X56114534Y-108741740D01*
X56169899Y-108824601D01*
X56252760Y-108879966D01*
X56252764Y-108879967D01*
X56325821Y-108894499D01*
X56325824Y-108894500D01*
X56325826Y-108894500D01*
X56950176Y-108894500D01*
X56950177Y-108894499D01*
X57023240Y-108879966D01*
X57106101Y-108824601D01*
X57161466Y-108741740D01*
X57176000Y-108668674D01*
X57176000Y-108131326D01*
X57176000Y-108131323D01*
X57175999Y-108131321D01*
X57161467Y-108058262D01*
X57156991Y-108047457D01*
X57149519Y-107977988D01*
X57156991Y-107952543D01*
X57161467Y-107941737D01*
X57171111Y-107893248D01*
X57176000Y-107868674D01*
X57176000Y-107331326D01*
X57176000Y-107331323D01*
X57175999Y-107331321D01*
X57161467Y-107258262D01*
X57156991Y-107247457D01*
X57149519Y-107177988D01*
X57156991Y-107152543D01*
X57161467Y-107141737D01*
X57175999Y-107068678D01*
X57176000Y-107068676D01*
X57176000Y-106849480D01*
X57195685Y-106782441D01*
X57248489Y-106736686D01*
X57300000Y-106725480D01*
X57360472Y-106725480D01*
X57360475Y-106725480D01*
X57500485Y-106687964D01*
X57626015Y-106615489D01*
X57728509Y-106512995D01*
X57800984Y-106387465D01*
X57813486Y-106340807D01*
X57849850Y-106281148D01*
X57912697Y-106250619D01*
X57982072Y-106258914D01*
G37*
%TD.AperFunction*%
%TA.AperFunction,Conductor*%
G36*
X88500317Y-69326936D02*
G01*
X88556250Y-69368808D01*
X88580667Y-69434272D01*
X88568704Y-69496919D01*
X88528733Y-69579921D01*
X88439687Y-69834397D01*
X88439684Y-69834405D01*
X88379688Y-70097268D01*
X88379686Y-70097280D01*
X88349500Y-70365186D01*
X88349500Y-70634813D01*
X88379686Y-70902719D01*
X88379687Y-70902728D01*
X88379688Y-70902732D01*
X88388437Y-70941062D01*
X88439684Y-71165594D01*
X88439687Y-71165602D01*
X88528734Y-71420082D01*
X88645714Y-71662994D01*
X88645716Y-71662997D01*
X88789162Y-71891289D01*
X88957266Y-72102085D01*
X89147915Y-72292734D01*
X89358711Y-72460838D01*
X89587003Y-72604284D01*
X89829921Y-72721267D01*
X90021049Y-72788145D01*
X90084397Y-72810312D01*
X90084405Y-72810315D01*
X90084408Y-72810315D01*
X90084409Y-72810316D01*
X90347268Y-72870312D01*
X90615187Y-72900499D01*
X90615188Y-72900500D01*
X90615191Y-72900500D01*
X90884812Y-72900500D01*
X90884812Y-72900499D01*
X91102869Y-72875930D01*
X91171690Y-72887984D01*
X91223069Y-72935333D01*
X91240694Y-73002943D01*
X91218968Y-73069349D01*
X91204433Y-73086831D01*
X90412575Y-73878689D01*
X90356989Y-73910782D01*
X90297244Y-73926791D01*
X90297237Y-73926794D01*
X90205912Y-73979521D01*
X58568941Y-105616493D01*
X58507618Y-105649978D01*
X58437926Y-105644994D01*
X58381993Y-105603122D01*
X58357576Y-105537658D01*
X58357260Y-105528812D01*
X58357260Y-105194015D01*
X58376945Y-105126976D01*
X58393579Y-105106334D01*
X62702996Y-100796917D01*
X84644654Y-78855259D01*
X84669735Y-78811817D01*
X84697381Y-78763933D01*
X84724674Y-78662073D01*
X84724674Y-73051428D01*
X84744359Y-72984389D01*
X84760993Y-72963747D01*
X86559149Y-71165591D01*
X88369304Y-69355435D01*
X88430625Y-69321952D01*
X88500317Y-69326936D01*
G37*
%TD.AperFunction*%
%TA.AperFunction,Conductor*%
G36*
X164302080Y-81956976D02*
G01*
X164329445Y-81955753D01*
X164336401Y-81959796D01*
X164344420Y-81960455D01*
X164366173Y-81977101D01*
X164389852Y-81990864D01*
X164397012Y-81999116D01*
X166573192Y-84742792D01*
X180560306Y-102377416D01*
X180574185Y-102399261D01*
X180574338Y-102399569D01*
X180574339Y-102399570D01*
X180574340Y-102399572D01*
X180607077Y-102436660D01*
X180608316Y-102438086D01*
X180609835Y-102439860D01*
X180641994Y-102480405D01*
X180648969Y-102485581D01*
X180658055Y-102496197D01*
X180658111Y-102496321D01*
X180658360Y-102496555D01*
X181195388Y-103128813D01*
X181198371Y-103132463D01*
X181567731Y-103602458D01*
X181748113Y-103831987D01*
X181750957Y-103835752D01*
X182071804Y-104277645D01*
X182095264Y-104343459D01*
X182079418Y-104411508D01*
X182029297Y-104460187D01*
X181971464Y-104474500D01*
X181670730Y-104474500D01*
X181640301Y-104477353D01*
X181541725Y-104511846D01*
X181471946Y-104515407D01*
X181438772Y-104502192D01*
X181412487Y-104487017D01*
X181412486Y-104487016D01*
X181412485Y-104487016D01*
X181272475Y-104449500D01*
X181127525Y-104449500D01*
X180987515Y-104487016D01*
X180987514Y-104487016D01*
X180987512Y-104487017D01*
X180930661Y-104519840D01*
X180862761Y-104536312D01*
X180796734Y-104513459D01*
X180782559Y-104501684D01*
X180781584Y-104500743D01*
X180693247Y-104454534D01*
X180693247Y-104454533D01*
X180626215Y-104434851D01*
X180626203Y-104434848D01*
X180554226Y-104424500D01*
X180554225Y-104424500D01*
X180329386Y-104424500D01*
X180262347Y-104404815D01*
X180241705Y-104388181D01*
X160410819Y-84557294D01*
X160377334Y-84495971D01*
X160374500Y-84469613D01*
X160374500Y-84024500D01*
X160394185Y-83957461D01*
X160424352Y-83931321D01*
X161824000Y-83931321D01*
X161824000Y-84468678D01*
X161838532Y-84541735D01*
X161838533Y-84541739D01*
X161838534Y-84541740D01*
X161893899Y-84624601D01*
X161950095Y-84662149D01*
X161976760Y-84679966D01*
X161976764Y-84679967D01*
X162049821Y-84694499D01*
X162049824Y-84694500D01*
X162049826Y-84694500D01*
X162674176Y-84694500D01*
X162674177Y-84694499D01*
X162747240Y-84679966D01*
X162830101Y-84624601D01*
X162885466Y-84541740D01*
X162900000Y-84468674D01*
X162900000Y-83931326D01*
X162900000Y-83931323D01*
X162899999Y-83931321D01*
X162885467Y-83858264D01*
X162885466Y-83858260D01*
X162881812Y-83852792D01*
X162830101Y-83775399D01*
X162747240Y-83720034D01*
X162747239Y-83720033D01*
X162747235Y-83720032D01*
X162674177Y-83705500D01*
X162674174Y-83705500D01*
X162049826Y-83705500D01*
X162049823Y-83705500D01*
X161976764Y-83720032D01*
X161976760Y-83720033D01*
X161893899Y-83775399D01*
X161838533Y-83858260D01*
X161838532Y-83858264D01*
X161824000Y-83931321D01*
X160424352Y-83931321D01*
X160446989Y-83911706D01*
X160498500Y-83900500D01*
X161129270Y-83900500D01*
X161159699Y-83897646D01*
X161159701Y-83897646D01*
X161225501Y-83874621D01*
X161287882Y-83852793D01*
X161397150Y-83772150D01*
X161477793Y-83662882D01*
X161509423Y-83572489D01*
X161522646Y-83534701D01*
X161522646Y-83534699D01*
X161525500Y-83504269D01*
X161525500Y-83374500D01*
X161545185Y-83307461D01*
X161597989Y-83261706D01*
X161649500Y-83250500D01*
X161672472Y-83250500D01*
X161672475Y-83250500D01*
X161812485Y-83212984D01*
X161938015Y-83140509D01*
X161941705Y-83136819D01*
X162003028Y-83103334D01*
X162029386Y-83100500D01*
X162314724Y-83100500D01*
X162314727Y-83100500D01*
X162321352Y-83098725D01*
X162353443Y-83094500D01*
X162674176Y-83094500D01*
X162674177Y-83094499D01*
X162747240Y-83079966D01*
X162830101Y-83024601D01*
X162885466Y-82941740D01*
X162885466Y-82941739D01*
X162892251Y-82931585D01*
X162893176Y-82932203D01*
X162899334Y-82924561D01*
X162909248Y-82904759D01*
X162920828Y-82897888D01*
X162929278Y-82887403D01*
X162950293Y-82880407D01*
X162969339Y-82869109D01*
X162982794Y-82869589D01*
X162995572Y-82865337D01*
X163017031Y-82870813D01*
X163039164Y-82871605D01*
X163050224Y-82879285D01*
X163063272Y-82882615D01*
X163078364Y-82898824D01*
X163096555Y-82911456D01*
X163107847Y-82930491D01*
X163110883Y-82933751D01*
X163114563Y-82941810D01*
X163119012Y-82952552D01*
X163126478Y-83022021D01*
X163119011Y-83047451D01*
X163114533Y-83058261D01*
X163100000Y-83131323D01*
X163100000Y-83668678D01*
X163114532Y-83741735D01*
X163114533Y-83741739D01*
X163114534Y-83741740D01*
X163169899Y-83824601D01*
X163244761Y-83874621D01*
X163252760Y-83879966D01*
X163252764Y-83879967D01*
X163325821Y-83894499D01*
X163325824Y-83894500D01*
X163325826Y-83894500D01*
X163950176Y-83894500D01*
X163950177Y-83894499D01*
X164023240Y-83879966D01*
X164106101Y-83824601D01*
X164161466Y-83741740D01*
X164176000Y-83668674D01*
X164176000Y-83131326D01*
X164176000Y-83131323D01*
X164175999Y-83131321D01*
X164161467Y-83058262D01*
X164156991Y-83047457D01*
X164149519Y-82977988D01*
X164156991Y-82952543D01*
X164161467Y-82941737D01*
X164171111Y-82893248D01*
X164176000Y-82868674D01*
X164176000Y-82331326D01*
X164176000Y-82331323D01*
X164175999Y-82331321D01*
X164161467Y-82258262D01*
X164156991Y-82247457D01*
X164149519Y-82177988D01*
X164150669Y-82172363D01*
X164155696Y-82150375D01*
X164161466Y-82141740D01*
X164176000Y-82068674D01*
X164176000Y-82061569D01*
X164178980Y-82048535D01*
X164192360Y-82024634D01*
X164202614Y-81999237D01*
X164209180Y-81994589D01*
X164213111Y-81987569D01*
X164237285Y-81974698D01*
X164259645Y-81958874D01*
X164267683Y-81958514D01*
X164274785Y-81954734D01*
X164302080Y-81956976D01*
G37*
%TD.AperFunction*%
%TA.AperFunction,Conductor*%
G36*
X83318834Y-72954247D02*
G01*
X83374767Y-72996119D01*
X83399184Y-73061583D01*
X83399500Y-73070429D01*
X83399500Y-78207745D01*
X83379815Y-78274784D01*
X83363181Y-78295426D01*
X57220426Y-104438181D01*
X57159103Y-104471666D01*
X57132745Y-104474500D01*
X56770734Y-104474500D01*
X56770725Y-104474500D01*
X56770294Y-104474521D01*
X56770208Y-104474500D01*
X56767835Y-104474500D01*
X56767835Y-104473922D01*
X56702408Y-104457990D01*
X56654236Y-104407382D01*
X56640500Y-104350656D01*
X56640500Y-102504834D01*
X56647930Y-102479527D01*
X56651663Y-102453416D01*
X56658919Y-102442103D01*
X56660185Y-102437795D01*
X56670720Y-102423709D01*
X56764279Y-102315556D01*
X56783892Y-102297307D01*
X56786282Y-102295522D01*
X56812653Y-102275841D01*
X56815811Y-102273723D01*
X56817593Y-102272155D01*
X56817620Y-102272135D01*
X56817627Y-102272125D01*
X56817632Y-102272122D01*
X56817634Y-102272118D01*
X56817991Y-102271805D01*
X56819796Y-102269378D01*
X56857939Y-102221017D01*
X56857939Y-102221016D01*
X56857940Y-102221015D01*
X56976380Y-102070850D01*
X56979720Y-102066796D01*
X56980290Y-102066132D01*
X57016136Y-102025711D01*
X57017618Y-102022743D01*
X57024647Y-102014573D01*
X57024753Y-102014451D01*
X57024801Y-102014420D01*
X57024964Y-102014206D01*
X57295927Y-101700979D01*
X57298367Y-101698340D01*
X57298566Y-101697929D01*
X57298569Y-101697926D01*
X57298570Y-101697922D01*
X57298572Y-101697921D01*
X57337422Y-101617772D01*
X57351635Y-101595082D01*
X71078140Y-84191980D01*
X71135112Y-84151535D01*
X71204907Y-84148311D01*
X71265366Y-84183332D01*
X71297293Y-84245481D01*
X71299500Y-84268773D01*
X71299500Y-84394269D01*
X71302353Y-84424699D01*
X71302353Y-84424701D01*
X71347206Y-84552880D01*
X71347207Y-84552882D01*
X71427850Y-84662150D01*
X71537118Y-84742793D01*
X71579845Y-84757744D01*
X71665299Y-84787646D01*
X71695730Y-84790500D01*
X71695734Y-84790500D01*
X72354270Y-84790500D01*
X72384699Y-84787646D01*
X72384701Y-84787646D01*
X72448790Y-84765219D01*
X72512882Y-84742793D01*
X72622150Y-84662150D01*
X72673131Y-84593072D01*
X72728777Y-84550823D01*
X72798433Y-84545364D01*
X72859982Y-84578431D01*
X72876002Y-84597816D01*
X72893898Y-84624600D01*
X72976760Y-84679966D01*
X72976764Y-84679967D01*
X73049821Y-84694499D01*
X73049824Y-84694500D01*
X73049826Y-84694500D01*
X73674176Y-84694500D01*
X73674177Y-84694499D01*
X73747240Y-84679966D01*
X73830101Y-84624601D01*
X73885466Y-84541740D01*
X73900000Y-84468674D01*
X73900000Y-83931326D01*
X73900000Y-83931323D01*
X73899999Y-83931321D01*
X73885467Y-83858264D01*
X73885466Y-83858260D01*
X73881812Y-83852792D01*
X73830101Y-83775399D01*
X73747240Y-83720034D01*
X73747239Y-83720033D01*
X73747235Y-83720032D01*
X73674177Y-83705500D01*
X73674174Y-83705500D01*
X73049826Y-83705500D01*
X72999918Y-83715427D01*
X72968632Y-83712626D01*
X72937241Y-83711685D01*
X72934108Y-83709536D01*
X72930327Y-83709198D01*
X72905528Y-83689934D01*
X72879622Y-83672165D01*
X72878148Y-83668664D01*
X72875150Y-83666335D01*
X72864702Y-83636720D01*
X72852516Y-83607767D01*
X72852860Y-83603150D01*
X72851906Y-83600445D01*
X72853575Y-83572489D01*
X72854523Y-83567055D01*
X72877887Y-83479862D01*
X72877887Y-83433192D01*
X72879734Y-83422610D01*
X72890633Y-83400521D01*
X72897572Y-83376891D01*
X72909750Y-83361778D01*
X72910651Y-83359953D01*
X72911756Y-83359288D01*
X72914206Y-83356249D01*
X73139637Y-83130819D01*
X73200960Y-83097334D01*
X73227318Y-83094500D01*
X73674176Y-83094500D01*
X73674177Y-83094499D01*
X73747240Y-83079966D01*
X73830101Y-83024601D01*
X73885466Y-82941740D01*
X73885466Y-82941739D01*
X73892251Y-82931585D01*
X73893176Y-82932203D01*
X73899334Y-82924561D01*
X73909248Y-82904759D01*
X73920828Y-82897888D01*
X73929278Y-82887403D01*
X73950293Y-82880407D01*
X73969339Y-82869109D01*
X73982794Y-82869589D01*
X73995572Y-82865337D01*
X74017031Y-82870813D01*
X74039164Y-82871605D01*
X74050224Y-82879285D01*
X74063272Y-82882615D01*
X74078364Y-82898824D01*
X74096555Y-82911456D01*
X74107847Y-82930491D01*
X74110883Y-82933751D01*
X74114563Y-82941810D01*
X74119012Y-82952552D01*
X74126478Y-83022021D01*
X74119011Y-83047451D01*
X74114533Y-83058261D01*
X74100000Y-83131323D01*
X74100000Y-83668678D01*
X74114532Y-83741735D01*
X74114533Y-83741739D01*
X74114534Y-83741740D01*
X74169899Y-83824601D01*
X74244761Y-83874621D01*
X74252760Y-83879966D01*
X74252764Y-83879967D01*
X74325821Y-83894499D01*
X74325824Y-83894500D01*
X74325826Y-83894500D01*
X74950176Y-83894500D01*
X74950177Y-83894499D01*
X75023240Y-83879966D01*
X75106101Y-83824601D01*
X75161466Y-83741740D01*
X75176000Y-83668674D01*
X75176000Y-83131326D01*
X75176000Y-83131323D01*
X75175999Y-83131321D01*
X75161467Y-83058262D01*
X75156991Y-83047457D01*
X75149519Y-82977988D01*
X75156991Y-82952543D01*
X75161467Y-82941737D01*
X75171111Y-82893248D01*
X75176000Y-82868674D01*
X75176000Y-82331326D01*
X75176000Y-82331323D01*
X75175999Y-82331321D01*
X75161467Y-82258262D01*
X75156991Y-82247457D01*
X75149519Y-82177988D01*
X75156991Y-82152543D01*
X75161467Y-82141737D01*
X75175999Y-82068678D01*
X75176000Y-82068676D01*
X75176000Y-81531323D01*
X75175999Y-81531321D01*
X75161467Y-81458264D01*
X75161466Y-81458260D01*
X75114781Y-81388390D01*
X75111743Y-81378690D01*
X75105090Y-81371011D01*
X75101481Y-81345912D01*
X75093904Y-81321712D01*
X75096592Y-81311912D01*
X75095146Y-81301853D01*
X75105680Y-81278786D01*
X75112389Y-81254332D01*
X75119949Y-81247541D01*
X75124171Y-81238297D01*
X75145503Y-81224587D01*
X75164368Y-81207643D01*
X75175964Y-81205011D01*
X75182949Y-81200523D01*
X75217884Y-81195500D01*
X75350072Y-81195500D01*
X75417111Y-81215185D01*
X75462866Y-81267989D01*
X75472810Y-81337147D01*
X75469850Y-81351576D01*
X75449500Y-81427525D01*
X75449500Y-81572475D01*
X75460221Y-81612485D01*
X75487017Y-81712488D01*
X75559488Y-81838011D01*
X75559490Y-81838013D01*
X75559491Y-81838015D01*
X75661985Y-81940509D01*
X75661986Y-81940510D01*
X75661988Y-81940511D01*
X75787511Y-82012982D01*
X75787512Y-82012982D01*
X75787515Y-82012984D01*
X75927525Y-82050500D01*
X75927528Y-82050500D01*
X76072472Y-82050500D01*
X76072475Y-82050500D01*
X76212485Y-82012984D01*
X76338015Y-81940509D01*
X76440509Y-81838015D01*
X76512984Y-81712485D01*
X76550500Y-81572475D01*
X76550500Y-81567255D01*
X76570185Y-81500216D01*
X76586819Y-81479574D01*
X76638868Y-81427525D01*
X76720480Y-81345913D01*
X76738154Y-81315301D01*
X76773207Y-81254587D01*
X76800500Y-81152727D01*
X76800500Y-79421429D01*
X76820185Y-79354390D01*
X76836819Y-79333748D01*
X83187819Y-72982748D01*
X83249142Y-72949263D01*
X83318834Y-72954247D01*
G37*
%TD.AperFunction*%
%TA.AperFunction,Conductor*%
G36*
X151151703Y-71527063D02*
G01*
X151158181Y-71533095D01*
X158505415Y-78880329D01*
X158538900Y-78941652D01*
X158537509Y-79000103D01*
X158499500Y-79141955D01*
X158499500Y-79286905D01*
X158535546Y-79421429D01*
X158537017Y-79426918D01*
X158609488Y-79552441D01*
X158609490Y-79552443D01*
X158609491Y-79552445D01*
X158711985Y-79654939D01*
X158711986Y-79654940D01*
X158711988Y-79654941D01*
X158837511Y-79727412D01*
X158837512Y-79727412D01*
X158837515Y-79727414D01*
X158977525Y-79764930D01*
X158977528Y-79764930D01*
X159122472Y-79764930D01*
X159122475Y-79764930D01*
X159143407Y-79759321D01*
X159213253Y-79760982D01*
X159271117Y-79800143D01*
X159298623Y-79864370D01*
X159299500Y-79879095D01*
X159299500Y-80930614D01*
X159279815Y-80997653D01*
X159263181Y-81018295D01*
X159219493Y-81061982D01*
X159219488Y-81061988D01*
X159147017Y-81187511D01*
X159147016Y-81187515D01*
X159109500Y-81327525D01*
X159109500Y-81472475D01*
X159141364Y-81591392D01*
X159147017Y-81612488D01*
X159219488Y-81738011D01*
X159219490Y-81738013D01*
X159219491Y-81738015D01*
X159321985Y-81840509D01*
X159321986Y-81840510D01*
X159321988Y-81840511D01*
X159447511Y-81912982D01*
X159447512Y-81912982D01*
X159447515Y-81912984D01*
X159447517Y-81912984D01*
X159455019Y-81916092D01*
X159454349Y-81917708D01*
X159505537Y-81948902D01*
X159536072Y-82011746D01*
X159527784Y-82081123D01*
X159501473Y-82120002D01*
X159383487Y-82237988D01*
X159325483Y-82338456D01*
X159311018Y-82363510D01*
X159311016Y-82363513D01*
X159306727Y-82379520D01*
X159273500Y-82503525D01*
X159273500Y-82503527D01*
X159273500Y-84307745D01*
X159253815Y-84374784D01*
X159201011Y-84420539D01*
X159131853Y-84430483D01*
X159068297Y-84401458D01*
X159061819Y-84395426D01*
X150982819Y-76316426D01*
X150949334Y-76255103D01*
X150946500Y-76228745D01*
X150946500Y-71620776D01*
X150966185Y-71553737D01*
X151018989Y-71507982D01*
X151088147Y-71498038D01*
X151151703Y-71527063D01*
G37*
%TD.AperFunction*%
%TA.AperFunction,Conductor*%
G36*
X147002562Y-51500605D02*
G01*
X147449036Y-51519072D01*
X147459209Y-51519915D01*
X147900114Y-51574873D01*
X147910194Y-51576555D01*
X148345042Y-51667733D01*
X148354950Y-51670242D01*
X148780786Y-51797019D01*
X148790454Y-51800338D01*
X149131430Y-51933388D01*
X149204339Y-51961838D01*
X149213724Y-51965954D01*
X149612869Y-52161083D01*
X149621877Y-52165958D01*
X150003544Y-52393383D01*
X150012123Y-52398989D01*
X150373693Y-52657144D01*
X150381775Y-52663435D01*
X150720796Y-52950571D01*
X150728336Y-52957512D01*
X151042487Y-53271663D01*
X151049428Y-53279203D01*
X151336564Y-53618224D01*
X151342859Y-53626312D01*
X151601010Y-53987876D01*
X151606616Y-53996455D01*
X151834041Y-54378122D01*
X151838919Y-54387136D01*
X152034045Y-54786275D01*
X152038161Y-54795660D01*
X152199656Y-55209533D01*
X152202984Y-55219226D01*
X152329753Y-55645036D01*
X152332269Y-55654971D01*
X152423441Y-56089791D01*
X152425128Y-56099900D01*
X152480082Y-56540769D01*
X152480928Y-56550983D01*
X152499394Y-56997437D01*
X152499500Y-57002561D01*
X152499500Y-57921613D01*
X152479815Y-57988652D01*
X152427011Y-58034407D01*
X152357853Y-58044351D01*
X152294297Y-58015326D01*
X152287819Y-58009294D01*
X147538016Y-53259491D01*
X147538015Y-53259490D01*
X147412485Y-53187016D01*
X147412486Y-53187016D01*
X147377482Y-53177637D01*
X147272475Y-53149500D01*
X134602525Y-53149500D01*
X134497517Y-53177637D01*
X134462514Y-53187016D01*
X134336986Y-53259489D01*
X134336983Y-53259491D01*
X134083294Y-53513181D01*
X134021971Y-53546666D01*
X133995613Y-53549500D01*
X118072475Y-53549500D01*
X115423189Y-53549500D01*
X101352525Y-53549500D01*
X101247517Y-53577637D01*
X101212514Y-53587016D01*
X101086986Y-53659489D01*
X101086983Y-53659491D01*
X100363294Y-54383181D01*
X100301971Y-54416666D01*
X100275613Y-54419500D01*
X100026878Y-54419500D01*
X99998665Y-54421064D01*
X99971453Y-54424089D01*
X99970485Y-54424199D01*
X99970483Y-54424199D01*
X99875567Y-54454682D01*
X99814494Y-54488612D01*
X99798534Y-54500743D01*
X99756922Y-54532371D01*
X99756594Y-54532620D01*
X98174934Y-56137539D01*
X98113857Y-56171471D01*
X98086615Y-56174500D01*
X97177525Y-56174500D01*
X97071722Y-56202850D01*
X97071721Y-56202849D01*
X97037519Y-56212014D01*
X97037514Y-56212016D01*
X96911986Y-56284489D01*
X96911983Y-56284491D01*
X75179609Y-78016864D01*
X75118286Y-78050349D01*
X75048594Y-78045365D01*
X74992661Y-78003493D01*
X74968244Y-77938029D01*
X74983096Y-77869756D01*
X74994561Y-77852400D01*
X81059415Y-70163095D01*
X81076741Y-70145176D01*
X81348517Y-69915583D01*
X81355709Y-69909950D01*
X81677459Y-69676518D01*
X81685037Y-69671435D01*
X82023147Y-69462357D01*
X82031086Y-69457843D01*
X82383711Y-69274265D01*
X82391933Y-69270364D01*
X82757126Y-69113298D01*
X82765637Y-69110004D01*
X83137794Y-68981552D01*
X83141776Y-68980253D01*
X83143946Y-68979585D01*
X83193186Y-68966392D01*
X83200429Y-68962209D01*
X83208646Y-68959682D01*
X83208752Y-68959633D01*
X83208764Y-68959630D01*
X83257541Y-68929236D01*
X83307314Y-68900500D01*
X83313354Y-68894458D01*
X83320609Y-68889938D01*
X83320608Y-68889938D01*
X83320611Y-68889937D01*
X83359867Y-68847946D01*
X83400500Y-68807314D01*
X83404772Y-68799914D01*
X83410610Y-68793670D01*
X83437657Y-68742955D01*
X83466392Y-68693186D01*
X83468604Y-68684930D01*
X83472626Y-68677389D01*
X83485164Y-68623387D01*
X83486161Y-68619404D01*
X83500499Y-68565894D01*
X83500500Y-68565891D01*
X83500500Y-68557344D01*
X83502433Y-68549020D01*
X83500500Y-68491575D01*
X83500500Y-57002561D01*
X83500606Y-56997437D01*
X83503561Y-56925995D01*
X83519072Y-56550961D01*
X83519915Y-56540792D01*
X83541804Y-56365186D01*
X88349500Y-56365186D01*
X88349500Y-56634813D01*
X88379686Y-56902719D01*
X88379687Y-56902728D01*
X88379688Y-56902732D01*
X88388662Y-56942049D01*
X88439684Y-57165594D01*
X88439687Y-57165602D01*
X88528734Y-57420082D01*
X88645714Y-57662994D01*
X88645716Y-57662997D01*
X88789162Y-57891289D01*
X88875856Y-58000000D01*
X88947868Y-58090301D01*
X88957266Y-58102085D01*
X89147915Y-58292734D01*
X89358711Y-58460838D01*
X89587003Y-58604284D01*
X89829921Y-58721267D01*
X89984622Y-58775399D01*
X90084397Y-58810312D01*
X90084405Y-58810315D01*
X90084408Y-58810315D01*
X90084409Y-58810316D01*
X90347268Y-58870312D01*
X90615187Y-58900499D01*
X90615188Y-58900500D01*
X90615191Y-58900500D01*
X90884812Y-58900500D01*
X90884812Y-58900499D01*
X91152732Y-58870312D01*
X91415591Y-58810316D01*
X91670079Y-58721267D01*
X91912997Y-58604284D01*
X92141289Y-58460838D01*
X92352085Y-58292734D01*
X92542734Y-58102085D01*
X92710838Y-57891289D01*
X92854284Y-57662997D01*
X92971267Y-57420079D01*
X93060316Y-57165591D01*
X93120312Y-56902732D01*
X93150500Y-56634809D01*
X93150500Y-56365191D01*
X93120312Y-56097268D01*
X93060316Y-55834409D01*
X93048191Y-55799759D01*
X92995772Y-55649953D01*
X92971267Y-55579921D01*
X92854284Y-55337003D01*
X92710838Y-55108711D01*
X92542734Y-54897915D01*
X92352085Y-54707266D01*
X92340686Y-54698176D01*
X92198985Y-54585173D01*
X92141289Y-54539162D01*
X91912997Y-54395716D01*
X91912994Y-54395714D01*
X91670082Y-54278734D01*
X91415602Y-54189687D01*
X91415594Y-54189684D01*
X91218446Y-54144687D01*
X91152732Y-54129688D01*
X91152728Y-54129687D01*
X91152719Y-54129686D01*
X90884813Y-54099500D01*
X90884809Y-54099500D01*
X90615191Y-54099500D01*
X90615186Y-54099500D01*
X90347280Y-54129686D01*
X90347268Y-54129688D01*
X90084405Y-54189684D01*
X90084397Y-54189687D01*
X89829917Y-54278734D01*
X89587005Y-54395714D01*
X89358712Y-54539161D01*
X89147915Y-54707265D01*
X88957265Y-54897915D01*
X88789161Y-55108712D01*
X88645714Y-55337005D01*
X88528734Y-55579917D01*
X88439687Y-55834397D01*
X88439684Y-55834405D01*
X88379688Y-56097268D01*
X88379686Y-56097280D01*
X88349500Y-56365186D01*
X83541804Y-56365186D01*
X83574874Y-56099881D01*
X83576554Y-56089809D01*
X83667734Y-55654951D01*
X83670241Y-55645055D01*
X83797022Y-55219205D01*
X83800336Y-55209553D01*
X83961840Y-54795654D01*
X83965954Y-54786275D01*
X84161088Y-54387120D01*
X84165949Y-54378136D01*
X84393389Y-53996445D01*
X84398982Y-53987885D01*
X84657153Y-53626294D01*
X84663422Y-53618240D01*
X84950581Y-53279191D01*
X84957500Y-53271675D01*
X85271675Y-52957500D01*
X85279191Y-52950581D01*
X85618240Y-52663422D01*
X85626294Y-52657153D01*
X85987885Y-52398982D01*
X85996445Y-52393389D01*
X86378136Y-52165949D01*
X86387120Y-52161088D01*
X86786280Y-51965951D01*
X86795654Y-51961840D01*
X87209553Y-51800336D01*
X87219205Y-51797022D01*
X87645055Y-51670241D01*
X87654951Y-51667734D01*
X88089809Y-51576554D01*
X88099881Y-51574874D01*
X88540792Y-51519915D01*
X88550961Y-51519072D01*
X88997437Y-51500605D01*
X89002561Y-51500500D01*
X89065892Y-51500500D01*
X117934108Y-51500500D01*
X146934108Y-51500500D01*
X146997439Y-51500500D01*
X147002562Y-51500605D01*
G37*
%TD.AperFunction*%
%TA.AperFunction,Conductor*%
G36*
X97707617Y-66371012D02*
G01*
X97753372Y-66423816D01*
X97763316Y-66492974D01*
X97734291Y-66556530D01*
X97728259Y-66563008D01*
X93336831Y-70954433D01*
X93275508Y-70987918D01*
X93205816Y-70982934D01*
X93149883Y-70941062D01*
X93125466Y-70875598D01*
X93125930Y-70852868D01*
X93150500Y-70634809D01*
X93150500Y-70365191D01*
X93120312Y-70097268D01*
X93060316Y-69834409D01*
X92971267Y-69579921D01*
X92854284Y-69337003D01*
X92710838Y-69108711D01*
X92542734Y-68897915D01*
X92352085Y-68707266D01*
X92141289Y-68539162D01*
X91954170Y-68421587D01*
X91912994Y-68395714D01*
X91670082Y-68278734D01*
X91415602Y-68189687D01*
X91415594Y-68189684D01*
X91218446Y-68144687D01*
X91152732Y-68129688D01*
X91152728Y-68129687D01*
X91152719Y-68129686D01*
X90884813Y-68099500D01*
X90884809Y-68099500D01*
X90615191Y-68099500D01*
X90615186Y-68099500D01*
X90347280Y-68129686D01*
X90347268Y-68129688D01*
X90084405Y-68189684D01*
X90084397Y-68189687D01*
X89829921Y-68278733D01*
X89746919Y-68318704D01*
X89677977Y-68330055D01*
X89613843Y-68302332D01*
X89574878Y-68244337D01*
X89573453Y-68174481D01*
X89605435Y-68119304D01*
X91337094Y-66387646D01*
X91398417Y-66354161D01*
X91424775Y-66351327D01*
X97640578Y-66351327D01*
X97707617Y-66371012D01*
G37*
%TD.AperFunction*%
%TA.AperFunction,Conductor*%
G36*
X143388330Y-54250685D02*
G01*
X143388965Y-54250506D01*
X143421842Y-54260525D01*
X143454739Y-54270185D01*
X143455169Y-54270681D01*
X143455800Y-54270874D01*
X143478044Y-54297081D01*
X143500494Y-54322989D01*
X143500587Y-54323639D01*
X143501014Y-54324142D01*
X143505551Y-54358161D01*
X143510438Y-54392147D01*
X143510164Y-54392746D01*
X143510251Y-54393398D01*
X143495687Y-54424445D01*
X143481413Y-54455703D01*
X143480765Y-54456258D01*
X143480580Y-54456654D01*
X143453672Y-54479493D01*
X143419854Y-54500743D01*
X143358712Y-54539161D01*
X143147915Y-54707265D01*
X142957265Y-54897915D01*
X142789161Y-55108712D01*
X142645714Y-55337005D01*
X142528734Y-55579917D01*
X142439687Y-55834397D01*
X142439684Y-55834405D01*
X142379688Y-56097268D01*
X142379686Y-56097280D01*
X142349500Y-56365186D01*
X142349500Y-56634813D01*
X142379686Y-56902719D01*
X142379687Y-56902728D01*
X142379688Y-56902732D01*
X142388662Y-56942049D01*
X142439684Y-57165594D01*
X142439687Y-57165602D01*
X142528734Y-57420082D01*
X142645714Y-57662994D01*
X142645716Y-57662997D01*
X142789162Y-57891289D01*
X142875856Y-58000000D01*
X142947868Y-58090301D01*
X142957266Y-58102085D01*
X143147915Y-58292734D01*
X143358711Y-58460838D01*
X143587003Y-58604284D01*
X143829921Y-58721267D01*
X143984622Y-58775399D01*
X144084397Y-58810312D01*
X144084405Y-58810315D01*
X144084408Y-58810315D01*
X144084409Y-58810316D01*
X144347268Y-58870312D01*
X144615187Y-58900499D01*
X144615188Y-58900500D01*
X144615191Y-58900500D01*
X144884812Y-58900500D01*
X144884812Y-58900499D01*
X145152732Y-58870312D01*
X145415591Y-58810316D01*
X145670079Y-58721267D01*
X145912997Y-58604284D01*
X146141289Y-58460838D01*
X146352085Y-58292734D01*
X146542734Y-58102085D01*
X146710838Y-57891289D01*
X146854284Y-57662997D01*
X146971267Y-57420079D01*
X147060316Y-57165591D01*
X147120312Y-56902732D01*
X147150500Y-56634809D01*
X147150500Y-56365191D01*
X147120312Y-56097268D01*
X147060316Y-55834409D01*
X147048191Y-55799759D01*
X146995772Y-55649953D01*
X146971267Y-55579921D01*
X146854284Y-55337003D01*
X146710838Y-55108711D01*
X146542734Y-54897915D01*
X146352085Y-54707266D01*
X146340686Y-54698176D01*
X146198985Y-54585173D01*
X146141289Y-54539162D01*
X146046327Y-54479493D01*
X146000037Y-54427159D01*
X145989389Y-54358106D01*
X146017764Y-54294257D01*
X146076153Y-54255885D01*
X146112300Y-54250500D01*
X146920613Y-54250500D01*
X146987652Y-54270185D01*
X147008294Y-54286819D01*
X151612181Y-58890705D01*
X151645666Y-58952028D01*
X151648500Y-58978386D01*
X151648500Y-67134745D01*
X151628815Y-67201784D01*
X151576011Y-67247539D01*
X151506853Y-67257483D01*
X151443297Y-67228458D01*
X151436819Y-67222426D01*
X148493915Y-64279522D01*
X148493913Y-64279520D01*
X148419666Y-64236653D01*
X148402589Y-64226793D01*
X148351657Y-64213146D01*
X148300727Y-64199500D01*
X148300726Y-64199500D01*
X148276011Y-64199500D01*
X148260348Y-64198507D01*
X148260293Y-64198500D01*
X148260248Y-64198500D01*
X148208716Y-64198500D01*
X148147167Y-64198469D01*
X148146696Y-64198500D01*
X138314360Y-64198500D01*
X138247321Y-64178815D01*
X138226679Y-64162181D01*
X133326680Y-59262181D01*
X133293195Y-59200858D01*
X133298179Y-59131166D01*
X133340051Y-59075233D01*
X133405515Y-59050816D01*
X133414361Y-59050500D01*
X134067270Y-59050500D01*
X134097699Y-59047646D01*
X134097701Y-59047646D01*
X134169145Y-59022646D01*
X134225882Y-59002793D01*
X134322724Y-58931321D01*
X134824000Y-58931321D01*
X134824000Y-59468678D01*
X134838532Y-59541735D01*
X134838533Y-59541739D01*
X134838534Y-59541740D01*
X134893899Y-59624601D01*
X134976760Y-59679966D01*
X134976764Y-59679967D01*
X135049821Y-59694499D01*
X135049824Y-59694500D01*
X135049826Y-59694500D01*
X135674176Y-59694500D01*
X135674177Y-59694499D01*
X135747240Y-59679966D01*
X135830101Y-59624601D01*
X135885466Y-59541740D01*
X135900000Y-59468674D01*
X135900000Y-58931326D01*
X135900000Y-58931323D01*
X135899999Y-58931321D01*
X135885467Y-58858264D01*
X135885466Y-58858260D01*
X135862975Y-58824600D01*
X135830101Y-58775399D01*
X135771614Y-58736320D01*
X135747239Y-58720033D01*
X135747235Y-58720032D01*
X135674177Y-58705500D01*
X135674174Y-58705500D01*
X135049826Y-58705500D01*
X135049823Y-58705500D01*
X134976764Y-58720032D01*
X134976760Y-58720033D01*
X134893899Y-58775399D01*
X134838533Y-58858260D01*
X134838532Y-58858264D01*
X134824000Y-58931321D01*
X134322724Y-58931321D01*
X134335150Y-58922150D01*
X134415793Y-58812882D01*
X134442583Y-58736320D01*
X134460646Y-58684701D01*
X134460646Y-58684699D01*
X134463500Y-58654269D01*
X134463500Y-58292255D01*
X134472144Y-58262814D01*
X134478668Y-58232828D01*
X134482422Y-58227812D01*
X134483185Y-58225216D01*
X134499819Y-58204574D01*
X134667574Y-58036819D01*
X134728897Y-58003334D01*
X134755255Y-58000500D01*
X134820215Y-58000500D01*
X134887254Y-58020185D01*
X134889105Y-58021397D01*
X134893898Y-58024599D01*
X134893899Y-58024601D01*
X134973195Y-58077584D01*
X134976760Y-58079966D01*
X134976764Y-58079967D01*
X135049821Y-58094499D01*
X135049824Y-58094500D01*
X135049826Y-58094500D01*
X135674176Y-58094500D01*
X135674177Y-58094499D01*
X135747240Y-58079966D01*
X135830101Y-58024601D01*
X135885466Y-57941740D01*
X135885466Y-57941739D01*
X135892251Y-57931585D01*
X135893176Y-57932203D01*
X135899334Y-57924561D01*
X135909248Y-57904759D01*
X135920828Y-57897888D01*
X135929278Y-57887403D01*
X135950293Y-57880407D01*
X135969339Y-57869109D01*
X135982794Y-57869589D01*
X135995572Y-57865337D01*
X136017031Y-57870813D01*
X136039164Y-57871605D01*
X136050224Y-57879285D01*
X136063272Y-57882615D01*
X136078364Y-57898824D01*
X136096555Y-57911456D01*
X136107847Y-57930491D01*
X136110883Y-57933751D01*
X136114563Y-57941810D01*
X136119012Y-57952552D01*
X136126478Y-58022021D01*
X136119011Y-58047451D01*
X136114533Y-58058261D01*
X136100000Y-58131323D01*
X136100000Y-58668678D01*
X136114532Y-58741735D01*
X136114533Y-58741739D01*
X136114534Y-58741740D01*
X136169899Y-58824601D01*
X136238310Y-58870311D01*
X136252760Y-58879966D01*
X136252764Y-58879967D01*
X136325821Y-58894499D01*
X136325824Y-58894500D01*
X136325826Y-58894500D01*
X136950176Y-58894500D01*
X136950177Y-58894499D01*
X137023240Y-58879966D01*
X137106101Y-58824601D01*
X137161466Y-58741740D01*
X137176000Y-58668674D01*
X137176000Y-58131326D01*
X137176000Y-58131323D01*
X137175999Y-58131321D01*
X137161467Y-58058262D01*
X137156991Y-58047457D01*
X137149519Y-57977988D01*
X137156991Y-57952543D01*
X137161467Y-57941737D01*
X137171264Y-57892481D01*
X137176000Y-57868674D01*
X137176000Y-57331326D01*
X137176000Y-57331323D01*
X137175999Y-57331321D01*
X137161467Y-57258262D01*
X137156991Y-57247457D01*
X137149519Y-57177988D01*
X137156991Y-57152543D01*
X137161467Y-57141737D01*
X137175999Y-57068678D01*
X137176000Y-57068676D01*
X137176000Y-56879755D01*
X137195685Y-56812716D01*
X137212319Y-56792074D01*
X137249934Y-56754459D01*
X137295480Y-56708913D01*
X137348207Y-56617588D01*
X137375500Y-56515727D01*
X137375500Y-56410273D01*
X137375500Y-55947273D01*
X137375500Y-55899529D01*
X137395185Y-55832490D01*
X137425867Y-55799759D01*
X137438228Y-55790636D01*
X137497150Y-55747150D01*
X137577793Y-55637882D01*
X137605223Y-55559491D01*
X137622646Y-55509701D01*
X137622646Y-55509699D01*
X137625500Y-55479269D01*
X137625500Y-54820730D01*
X137622646Y-54790300D01*
X137622646Y-54790298D01*
X137586436Y-54686819D01*
X137577793Y-54662118D01*
X137497150Y-54552850D01*
X137390676Y-54474269D01*
X137348427Y-54418623D01*
X137342968Y-54348967D01*
X137376035Y-54287417D01*
X137437129Y-54253516D01*
X137464311Y-54250500D01*
X143387700Y-54250500D01*
X143388330Y-54250685D01*
G37*
%TD.AperFunction*%
%TA.AperFunction,Conductor*%
G36*
X106525784Y-56795185D02*
G01*
X106571539Y-56847989D01*
X106581483Y-56917147D01*
X106552458Y-56980703D01*
X106546426Y-56987181D01*
X99522599Y-64011008D01*
X99461276Y-64044493D01*
X99434918Y-64047327D01*
X91005560Y-64047327D01*
X90938521Y-64027642D01*
X90892766Y-63974838D01*
X90882822Y-63905680D01*
X90911847Y-63842124D01*
X90917879Y-63835646D01*
X97441706Y-57311819D01*
X97503029Y-57278334D01*
X97529387Y-57275500D01*
X98019735Y-57275500D01*
X98086774Y-57295185D01*
X98113448Y-57318297D01*
X98138863Y-57347628D01*
X98138866Y-57347631D01*
X98138867Y-57347632D01*
X98171641Y-57379257D01*
X98259976Y-57425465D01*
X98259977Y-57425465D01*
X98259977Y-57425466D01*
X98310105Y-57440184D01*
X98327015Y-57445150D01*
X98327019Y-57445150D01*
X98327021Y-57445151D01*
X98338652Y-57446823D01*
X98399000Y-57455500D01*
X98781543Y-57455500D01*
X98805531Y-57462543D01*
X98830356Y-57465512D01*
X98838478Y-57472218D01*
X98848582Y-57475185D01*
X98864950Y-57494075D01*
X98884234Y-57509997D01*
X98887441Y-57520031D01*
X98894337Y-57527989D01*
X98897894Y-57552732D01*
X98905508Y-57576549D01*
X98903606Y-57592454D01*
X98904281Y-57597147D01*
X98901321Y-57611577D01*
X98895689Y-57632597D01*
X98859326Y-57692254D01*
X98796479Y-57722783D01*
X98775916Y-57724500D01*
X98470730Y-57724500D01*
X98440300Y-57727353D01*
X98440298Y-57727353D01*
X98312119Y-57772206D01*
X98312117Y-57772207D01*
X98202850Y-57852850D01*
X98122207Y-57962117D01*
X98122206Y-57962119D01*
X98077353Y-58090298D01*
X98077353Y-58090300D01*
X98074500Y-58120730D01*
X98074500Y-58629269D01*
X98077353Y-58659699D01*
X98077353Y-58659701D01*
X98117212Y-58773607D01*
X98122207Y-58787882D01*
X98202850Y-58897150D01*
X98312118Y-58977793D01*
X98354845Y-58992744D01*
X98440299Y-59022646D01*
X98470730Y-59025500D01*
X98470734Y-59025500D01*
X99129270Y-59025500D01*
X99159699Y-59022646D01*
X99159701Y-59022646D01*
X99223790Y-59000219D01*
X99287882Y-58977793D01*
X99350850Y-58931321D01*
X99824000Y-58931321D01*
X99824000Y-59468678D01*
X99838532Y-59541735D01*
X99838533Y-59541739D01*
X99838534Y-59541740D01*
X99893899Y-59624601D01*
X99976760Y-59679966D01*
X99976764Y-59679967D01*
X100049821Y-59694499D01*
X100049824Y-59694500D01*
X100049826Y-59694500D01*
X100674176Y-59694500D01*
X100674177Y-59694499D01*
X100747240Y-59679966D01*
X100830101Y-59624601D01*
X100885466Y-59541740D01*
X100900000Y-59468674D01*
X100900000Y-58931326D01*
X100900000Y-58931323D01*
X100899999Y-58931321D01*
X100885467Y-58858264D01*
X100885466Y-58858260D01*
X100862975Y-58824600D01*
X100830101Y-58775399D01*
X100771614Y-58736320D01*
X100747239Y-58720033D01*
X100747235Y-58720032D01*
X100674177Y-58705500D01*
X100674174Y-58705500D01*
X100049826Y-58705500D01*
X100049823Y-58705500D01*
X99976764Y-58720032D01*
X99976760Y-58720033D01*
X99893899Y-58775399D01*
X99838533Y-58858260D01*
X99838532Y-58858264D01*
X99824000Y-58931321D01*
X99350850Y-58931321D01*
X99397150Y-58897150D01*
X99477793Y-58787882D01*
X99506984Y-58704459D01*
X99522646Y-58659701D01*
X99522646Y-58659699D01*
X99525500Y-58629269D01*
X99525500Y-58378988D01*
X99545185Y-58311949D01*
X99597989Y-58266194D01*
X99617399Y-58259215D01*
X99649985Y-58250484D01*
X99775515Y-58178009D01*
X99845198Y-58108326D01*
X99906521Y-58074841D01*
X99964501Y-58078987D01*
X99964781Y-58077584D01*
X99975954Y-58079806D01*
X99976213Y-58079825D01*
X99976382Y-58079891D01*
X100049821Y-58094499D01*
X100049824Y-58094500D01*
X100049826Y-58094500D01*
X100674176Y-58094500D01*
X100674177Y-58094499D01*
X100747240Y-58079966D01*
X100830101Y-58024601D01*
X100885466Y-57941740D01*
X100885466Y-57941739D01*
X100892251Y-57931585D01*
X100893176Y-57932203D01*
X100899334Y-57924561D01*
X100909248Y-57904759D01*
X100920828Y-57897888D01*
X100929278Y-57887403D01*
X100950293Y-57880407D01*
X100969339Y-57869109D01*
X100982794Y-57869589D01*
X100995572Y-57865337D01*
X101017031Y-57870813D01*
X101039164Y-57871605D01*
X101050224Y-57879285D01*
X101063272Y-57882615D01*
X101078364Y-57898824D01*
X101096555Y-57911456D01*
X101107847Y-57930491D01*
X101110883Y-57933751D01*
X101114563Y-57941810D01*
X101119012Y-57952552D01*
X101126478Y-58022021D01*
X101119011Y-58047451D01*
X101114533Y-58058261D01*
X101100000Y-58131323D01*
X101100000Y-58668678D01*
X101114532Y-58741735D01*
X101114533Y-58741739D01*
X101114534Y-58741740D01*
X101169899Y-58824601D01*
X101238310Y-58870311D01*
X101252760Y-58879966D01*
X101252764Y-58879967D01*
X101325821Y-58894499D01*
X101325824Y-58894500D01*
X101325826Y-58894500D01*
X101950176Y-58894500D01*
X101950177Y-58894499D01*
X102023240Y-58879966D01*
X102106101Y-58824601D01*
X102161466Y-58741740D01*
X102176000Y-58668674D01*
X102176000Y-58131326D01*
X102176000Y-58131323D01*
X102175999Y-58131321D01*
X102161467Y-58058262D01*
X102156991Y-58047457D01*
X102149519Y-57977988D01*
X102156991Y-57952543D01*
X102161467Y-57941737D01*
X102171264Y-57892481D01*
X102176000Y-57868674D01*
X102176000Y-57331326D01*
X102176000Y-57331323D01*
X102175999Y-57331321D01*
X102161467Y-57258262D01*
X102156991Y-57247457D01*
X102149437Y-57178450D01*
X102153923Y-57153028D01*
X102161466Y-57141740D01*
X102176000Y-57068674D01*
X102176000Y-57027931D01*
X102177887Y-57017239D01*
X102188777Y-56995272D01*
X102195685Y-56971750D01*
X102204022Y-56964525D01*
X102208923Y-56954641D01*
X102229961Y-56942049D01*
X102248489Y-56925995D01*
X102259554Y-56924337D01*
X102268875Y-56918759D01*
X102291895Y-56919493D01*
X102307071Y-56917220D01*
X102307071Y-56915721D01*
X102460146Y-56915721D01*
X102460149Y-56915721D01*
X102600159Y-56878205D01*
X102725689Y-56805730D01*
X102725694Y-56805724D01*
X102731688Y-56801126D01*
X102796856Y-56775930D01*
X102807177Y-56775500D01*
X106458745Y-56775500D01*
X106525784Y-56795185D01*
G37*
%TD.AperFunction*%
%TD*%
M02*
