%TF.GenerationSoftware,KiCad,Pcbnew,9.0.1*%
%TF.CreationDate,2025-05-06T09:48:18+02:00*%
%TF.ProjectId,lijnsensor V2,6c696a6e-7365-46e7-936f-722056322e6b,rev?*%
%TF.SameCoordinates,Original*%
%TF.FileFunction,Copper,L2,Bot*%
%TF.FilePolarity,Positive*%
%FSLAX46Y46*%
G04 Gerber Fmt 4.6, Leading zero omitted, Abs format (unit mm)*
G04 Created by KiCad (PCBNEW 9.0.1) date 2025-05-06 09:48:18*
%MOMM*%
%LPD*%
G01*
G04 APERTURE LIST*
%TA.AperFunction,ComponentPad*%
%ADD10R,1.700000X1.700000*%
%TD*%
%TA.AperFunction,ComponentPad*%
%ADD11O,1.700000X1.700000*%
%TD*%
%TA.AperFunction,ViaPad*%
%ADD12C,0.600000*%
%TD*%
%TA.AperFunction,ViaPad*%
%ADD13C,0.500000*%
%TD*%
%TA.AperFunction,Conductor*%
%ADD14C,0.300000*%
%TD*%
G04 APERTURE END LIST*
D10*
%TO.P,J1,1,Pin_1*%
%TO.N,+3.3V*%
X114200000Y-71500000D03*
D11*
%TO.P,J1,2,Pin_2*%
%TO.N,Net-(J1-Pin_2)*%
X116740000Y-71500000D03*
%TO.P,J1,3,Pin_3*%
%TO.N,Net-(J1-Pin_3)*%
X119280000Y-71500000D03*
%TO.P,J1,4,Pin_4*%
%TO.N,GND*%
X121820000Y-71500000D03*
%TD*%
D12*
%TO.N,Net-(U2-SC4)*%
X99437500Y-57737500D03*
X102387674Y-56365221D03*
%TO.N,Net-(U10-SCL)*%
X57288000Y-106174980D03*
X54725000Y-107600000D03*
%TO.N,GND*%
X70500000Y-87500000D03*
X181600000Y-110000000D03*
X158000000Y-87500000D03*
X173000000Y-110000000D03*
X88000000Y-52500000D03*
X115500000Y-52500000D03*
X145500000Y-62500000D03*
X121700000Y-68000000D03*
X110500000Y-62500000D03*
X68000000Y-100000000D03*
X60500000Y-100000000D03*
X113000000Y-70000000D03*
X122000000Y-62300000D03*
X138000000Y-57500000D03*
X163000000Y-84900000D03*
X123000000Y-55000000D03*
X55500000Y-115000000D03*
X130500000Y-67500000D03*
X102500000Y-58800000D03*
X175500000Y-107500000D03*
X130500000Y-75000000D03*
X145500000Y-75000000D03*
X55500000Y-145000000D03*
X180500000Y-120000000D03*
X128000000Y-75000000D03*
X183000000Y-135000000D03*
X60500000Y-135000000D03*
X105500000Y-57500000D03*
X118000000Y-69900000D03*
X57300000Y-109800000D03*
X105500000Y-67500000D03*
X98000000Y-62500000D03*
X182200000Y-109900000D03*
X137500000Y-58800000D03*
X88000000Y-60000000D03*
X113000000Y-62500000D03*
X133000000Y-65000000D03*
X65500000Y-95000000D03*
X140500000Y-52500000D03*
X185500000Y-145000000D03*
X88000000Y-72500000D03*
X60500000Y-110000000D03*
D13*
X83620000Y-69060000D03*
D12*
X138000000Y-70000000D03*
X55500000Y-132500000D03*
X75500000Y-82500000D03*
X135500000Y-67500000D03*
X93000000Y-75000000D03*
X85500000Y-60000000D03*
X75500000Y-83800000D03*
X56000000Y-141900000D03*
X103000000Y-67500000D03*
X115500000Y-70000000D03*
X120800000Y-55000000D03*
X118000000Y-75000000D03*
X105500000Y-75000000D03*
X140500000Y-62500000D03*
X60500000Y-140000000D03*
X170500000Y-100000000D03*
X185500000Y-132500000D03*
X118500000Y-70200000D03*
X105500000Y-65000000D03*
X180500000Y-135000000D03*
X133000000Y-67500000D03*
X125500000Y-75000000D03*
X98000000Y-72500000D03*
X105500000Y-70000000D03*
X130500000Y-52500000D03*
X164500000Y-84500000D03*
X180500000Y-130000000D03*
X63000000Y-95000000D03*
X185500000Y-112500000D03*
X60500000Y-117500000D03*
X185500000Y-122500000D03*
X93000000Y-55000000D03*
X138000000Y-72500000D03*
X70500000Y-90000000D03*
X123000000Y-75000000D03*
X185500000Y-147500000D03*
X168000000Y-90000000D03*
X182500000Y-109400000D03*
X125500000Y-52500000D03*
X65500000Y-105000000D03*
X163000000Y-92500000D03*
X125900000Y-67600000D03*
X138000000Y-55000000D03*
X108000000Y-55000000D03*
X110500000Y-70000000D03*
X83000000Y-75000000D03*
X120500000Y-72500000D03*
X183000000Y-110000000D03*
X118000000Y-70500000D03*
X136600000Y-60000000D03*
X100500000Y-62500000D03*
X168000000Y-102500000D03*
X168000000Y-97500000D03*
X105500000Y-52500000D03*
X57500000Y-109200000D03*
X133000000Y-52500000D03*
X175500000Y-97500000D03*
X100500000Y-72500000D03*
X170500000Y-102500000D03*
X158000000Y-82500000D03*
X95500000Y-67500000D03*
X98000000Y-70000000D03*
X170500000Y-92500000D03*
X128000000Y-65000000D03*
X140500000Y-72500000D03*
X128000000Y-62500000D03*
X63000000Y-97500000D03*
X183000000Y-107500000D03*
X125500000Y-62500000D03*
X68000000Y-90000000D03*
X108000000Y-65000000D03*
X95500000Y-72500000D03*
X80500000Y-77500000D03*
X145500000Y-60000000D03*
X110500000Y-55000000D03*
X182500000Y-108800000D03*
X108000000Y-70000000D03*
X103000000Y-52500000D03*
X78000000Y-82500000D03*
X123000000Y-70000000D03*
X80500000Y-80000000D03*
X137200000Y-59900000D03*
X63000000Y-105000000D03*
X173000000Y-102500000D03*
X126900000Y-69100000D03*
X163000000Y-95000000D03*
X55500000Y-155000000D03*
X83000000Y-77500000D03*
X80500000Y-87500000D03*
X120200000Y-55000000D03*
X103000000Y-75000000D03*
X110500000Y-67500000D03*
X55500000Y-127500000D03*
X185500000Y-142500000D03*
X98000000Y-60000000D03*
X183000000Y-140000000D03*
X128000000Y-67500000D03*
X114000000Y-60900000D03*
X143000000Y-75000000D03*
X95500000Y-62500000D03*
X55500000Y-125000000D03*
X133000000Y-70000000D03*
X178000000Y-142500000D03*
X85500000Y-65000000D03*
X185500000Y-130000000D03*
X160500000Y-92500000D03*
X185500000Y-120000000D03*
X137500000Y-59400000D03*
X60500000Y-152500000D03*
X130500000Y-70000000D03*
X150500000Y-62500000D03*
X121400000Y-55000000D03*
X103000000Y-60000000D03*
X185500000Y-140000000D03*
X185500000Y-127500000D03*
X153000000Y-82500000D03*
X180500000Y-115000000D03*
X55500000Y-117500000D03*
X135500000Y-75000000D03*
X165500000Y-85000000D03*
X175500000Y-115000000D03*
X120500000Y-70000000D03*
X56100000Y-109900000D03*
X173000000Y-95000000D03*
X143000000Y-62500000D03*
X60500000Y-147500000D03*
X165500000Y-97500000D03*
X182400000Y-141300000D03*
X153000000Y-75000000D03*
X180500000Y-110000000D03*
X57500000Y-141300000D03*
X164500000Y-83900000D03*
X135500000Y-70000000D03*
X95500000Y-60000000D03*
X118000000Y-52500000D03*
X178000000Y-145000000D03*
X140500000Y-55000000D03*
X180500000Y-145000000D03*
X125500000Y-55000000D03*
X160500000Y-90000000D03*
X178000000Y-100000000D03*
X125500000Y-72500000D03*
X125500000Y-65000000D03*
X138000000Y-60000000D03*
X78000000Y-80000000D03*
X74600000Y-85000000D03*
X181600000Y-142000000D03*
X65500000Y-92500000D03*
X70500000Y-97500000D03*
X103000000Y-70000000D03*
X133000000Y-75000000D03*
X60500000Y-127500000D03*
X113000000Y-67500000D03*
X155500000Y-80000000D03*
X74000000Y-84900000D03*
X148000000Y-70000000D03*
X53000000Y-145000000D03*
X60500000Y-137500000D03*
X158000000Y-90000000D03*
X148000000Y-72500000D03*
X150500000Y-80000000D03*
X70500000Y-100000000D03*
X68000000Y-102500000D03*
X60500000Y-115000000D03*
X128000000Y-70000000D03*
X185500000Y-117500000D03*
X180500000Y-142500000D03*
X122000000Y-55000000D03*
D13*
X76540000Y-76300000D03*
D12*
X95500000Y-75000000D03*
X158000000Y-80000000D03*
X123900000Y-64100000D03*
X165500000Y-95000000D03*
X95500000Y-52500000D03*
X148000000Y-52500000D03*
X110500000Y-72500000D03*
X108000000Y-62500000D03*
X180500000Y-127500000D03*
X130500000Y-55000000D03*
X140500000Y-60000000D03*
X119600000Y-55600000D03*
X110500000Y-52500000D03*
X60500000Y-112500000D03*
X155500000Y-87500000D03*
X183000000Y-112500000D03*
X138000000Y-62500000D03*
X183000000Y-127500000D03*
X90500000Y-60000000D03*
X179800000Y-140400000D03*
X148000000Y-62500000D03*
X102200000Y-60000000D03*
X60500000Y-120000000D03*
X155500000Y-77500000D03*
X101600000Y-60000000D03*
X183000000Y-142500000D03*
X180500000Y-122500000D03*
X113000000Y-75000000D03*
X78000000Y-90000000D03*
X68000000Y-92500000D03*
X168000000Y-100000000D03*
X181000000Y-141900000D03*
X165500000Y-87500000D03*
X88000000Y-75000000D03*
X123000000Y-52500000D03*
X117500000Y-69600000D03*
X118000000Y-69300000D03*
X123000000Y-72500000D03*
X140500000Y-75000000D03*
X98000000Y-55000000D03*
X135500000Y-52500000D03*
X173000000Y-105000000D03*
X116200000Y-60900000D03*
X148000000Y-77500000D03*
X180500000Y-112500000D03*
X60500000Y-130000000D03*
X128000000Y-52500000D03*
X175500000Y-112500000D03*
X65500000Y-102500000D03*
X57200000Y-141900000D03*
X119600000Y-56200000D03*
X115500000Y-55000000D03*
X113000000Y-55000000D03*
X108000000Y-67500000D03*
X103000000Y-55000000D03*
X185500000Y-115000000D03*
X143000000Y-52500000D03*
X118500000Y-69600000D03*
X55500000Y-130000000D03*
X140500000Y-70000000D03*
X110500000Y-75000000D03*
X138000000Y-75000000D03*
X85500000Y-75000000D03*
X175500000Y-110000000D03*
X88000000Y-55000000D03*
X113000000Y-52500000D03*
X138000000Y-52500000D03*
X56600000Y-142000000D03*
X85500000Y-55000000D03*
X60500000Y-107500000D03*
X73000000Y-87500000D03*
X183000000Y-145000000D03*
X98000000Y-52500000D03*
X182200000Y-141900000D03*
X53000000Y-137500000D03*
X55500000Y-135000000D03*
X128000000Y-55000000D03*
X98000000Y-75000000D03*
X58000000Y-145000000D03*
X183000000Y-125000000D03*
X118000000Y-72500000D03*
X93000000Y-62500000D03*
X58000000Y-102500000D03*
X164200000Y-85000000D03*
X185500000Y-135000000D03*
X90500000Y-52500000D03*
X108000000Y-75000000D03*
X95500000Y-55000000D03*
X105500000Y-72500000D03*
X150500000Y-55000000D03*
X73000000Y-85000000D03*
X128000000Y-72500000D03*
X93000000Y-67500000D03*
X120500000Y-52500000D03*
X163600000Y-85000000D03*
X60500000Y-132500000D03*
X148000000Y-75000000D03*
X75500000Y-84400000D03*
X100500000Y-52500000D03*
X153000000Y-77500000D03*
X88000000Y-62500000D03*
X60500000Y-125000000D03*
X57500000Y-140700000D03*
X148000000Y-60000000D03*
X55500000Y-112500000D03*
X183000000Y-117500000D03*
X150500000Y-60000000D03*
X185500000Y-137500000D03*
X103000000Y-72500000D03*
X55500000Y-120000000D03*
X85500000Y-62500000D03*
X55500000Y-122500000D03*
X173000000Y-107500000D03*
X117500000Y-70200000D03*
X60500000Y-122500000D03*
X180500000Y-125000000D03*
X143000000Y-60000000D03*
X135500000Y-72500000D03*
X100500000Y-60000000D03*
X130500000Y-72500000D03*
X119600000Y-62200000D03*
X180500000Y-117500000D03*
X75200000Y-84900000D03*
X183000000Y-132500000D03*
X183000000Y-122500000D03*
X185500000Y-125000000D03*
X123800000Y-67700000D03*
X182500000Y-140700000D03*
X120500000Y-75000000D03*
X140500000Y-57500000D03*
X183000000Y-130000000D03*
X73000000Y-95000000D03*
X55500000Y-110000000D03*
X113000000Y-65000000D03*
X155500000Y-85000000D03*
X57500000Y-108600000D03*
X85500000Y-77500000D03*
X170500000Y-105000000D03*
X115500000Y-75000000D03*
X75500000Y-92500000D03*
X175500000Y-105000000D03*
X100500000Y-75000000D03*
X108000000Y-52500000D03*
X110500000Y-65000000D03*
X60500000Y-145000000D03*
X102400000Y-59400000D03*
X133000000Y-55000000D03*
X133000000Y-72500000D03*
X130500000Y-65000000D03*
X108000000Y-72500000D03*
X103000000Y-57500000D03*
X56700000Y-110000000D03*
X73000000Y-97500000D03*
X125500000Y-70000000D03*
X60500000Y-142500000D03*
X145500000Y-52500000D03*
X100500000Y-70000000D03*
X93000000Y-52500000D03*
X183000000Y-120000000D03*
X127800000Y-68200000D03*
X180500000Y-132500000D03*
X122000000Y-55600000D03*
X183000000Y-137500000D03*
X85500000Y-57500000D03*
X63000000Y-107500000D03*
X119600000Y-55000000D03*
X130500000Y-62500000D03*
X183000000Y-115000000D03*
X148000000Y-57500000D03*
X105500000Y-55000000D03*
X165500000Y-100000000D03*
X63000000Y-110000000D03*
X136000000Y-59800000D03*
X53000000Y-142500000D03*
X150500000Y-65000000D03*
%TO.N,Net-(U2-SC1)*%
X179600000Y-107900000D03*
X178821814Y-104878186D03*
%TO.N,Net-(U2-SC2)*%
X161600000Y-82700000D03*
X159660000Y-81400000D03*
%TO.N,+3.3V*%
X123100000Y-64599000D03*
X122700000Y-68600000D03*
X122600000Y-66200000D03*
%TO.N,Net-(U2-SC5)*%
X72327387Y-83407387D03*
X76000000Y-81500000D03*
%TO.N,Net-(U2-SD1)*%
X181200000Y-105000000D03*
X177930771Y-104750011D03*
%TO.N,Net-(U2-SD0)*%
X181400000Y-137200000D03*
X177915380Y-136834620D03*
%TO.N,Net-(U2-SD2)*%
X159050000Y-79214430D03*
X161675000Y-79290589D03*
%TO.N,Net-(U2-SD3)*%
X131859380Y-57440620D03*
X136400000Y-56000000D03*
%TD*%
D14*
%TO.N,Net-(U2-SC4)*%
X99437500Y-57737500D02*
X101015395Y-57737500D01*
X101015395Y-57737500D02*
X102387674Y-56365221D01*
%TO.N,Net-(U10-SCL)*%
X55862980Y-107600000D02*
X57288000Y-106174980D01*
X54725000Y-107600000D02*
X55862980Y-107600000D01*
%TO.N,Net-(U2-SC1)*%
X178821814Y-104878186D02*
X179600000Y-105656372D01*
X179600000Y-105656372D02*
X179600000Y-107900000D01*
%TO.N,Net-(U2-SC2)*%
X160356346Y-81456346D02*
X161600000Y-82700000D01*
X160300000Y-81400000D02*
X161600000Y-82700000D01*
X159660000Y-81400000D02*
X160300000Y-81400000D01*
%TO.N,+3.3V*%
X123100000Y-65700000D02*
X122600000Y-66200000D01*
X123100000Y-64599000D02*
X123100000Y-65700000D01*
X122700000Y-66300000D02*
X122600000Y-66200000D01*
X122700000Y-68600000D02*
X122700000Y-66300000D01*
%TO.N,Net-(U2-SC5)*%
X74371173Y-81500000D02*
X76000000Y-81500000D01*
X72417417Y-83317357D02*
X72553816Y-83317357D01*
X72327387Y-83407387D02*
X72417417Y-83317357D01*
X72553816Y-83317357D02*
X74371173Y-81500000D01*
%TO.N,Net-(U2-SD1)*%
X178000000Y-104779346D02*
X178552160Y-104227186D01*
X177960106Y-104779346D02*
X178000000Y-104779346D01*
X178552160Y-104227186D02*
X180427186Y-104227186D01*
X180427186Y-104227186D02*
X181200000Y-105000000D01*
X177930771Y-104750011D02*
X177960106Y-104779346D01*
%TO.N,Net-(U2-SD0)*%
X177915380Y-136834620D02*
X181034620Y-136834620D01*
X181034620Y-136834620D02*
X181400000Y-137200000D01*
%TO.N,Net-(U2-SD2)*%
X159050000Y-79214430D02*
X159054810Y-79209620D01*
X161594031Y-79209620D02*
X161675000Y-79290589D01*
X159054810Y-79209620D02*
X161594031Y-79209620D01*
%TO.N,Net-(U2-SD3)*%
X131859380Y-57440620D02*
X134959380Y-57440620D01*
X134959380Y-57440620D02*
X136400000Y-56000000D01*
%TD*%
%TA.AperFunction,Conductor*%
%TO.N,GND*%
G36*
X147002562Y-51500605D02*
G01*
X147449036Y-51519072D01*
X147459209Y-51519915D01*
X147900114Y-51574873D01*
X147910194Y-51576555D01*
X148345042Y-51667733D01*
X148354950Y-51670242D01*
X148780786Y-51797019D01*
X148790454Y-51800338D01*
X149131430Y-51933388D01*
X149204339Y-51961838D01*
X149213724Y-51965954D01*
X149612869Y-52161083D01*
X149621877Y-52165958D01*
X150003544Y-52393383D01*
X150012123Y-52398989D01*
X150373693Y-52657144D01*
X150381775Y-52663435D01*
X150720796Y-52950571D01*
X150728336Y-52957512D01*
X151042487Y-53271663D01*
X151049428Y-53279203D01*
X151336564Y-53618224D01*
X151342859Y-53626312D01*
X151601010Y-53987876D01*
X151606616Y-53996455D01*
X151834041Y-54378122D01*
X151838919Y-54387136D01*
X152034045Y-54786275D01*
X152038161Y-54795660D01*
X152199656Y-55209533D01*
X152202984Y-55219226D01*
X152329753Y-55645036D01*
X152332269Y-55654971D01*
X152423441Y-56089791D01*
X152425128Y-56099900D01*
X152480082Y-56540769D01*
X152480928Y-56550983D01*
X152499394Y-56997437D01*
X152499500Y-57002561D01*
X152499500Y-68511327D01*
X152497519Y-68568532D01*
X152499500Y-68577101D01*
X152499500Y-68585895D01*
X152513755Y-68639097D01*
X152514793Y-68643258D01*
X152527199Y-68696924D01*
X152530050Y-68704540D01*
X152529613Y-68704703D01*
X152530069Y-68705860D01*
X152530500Y-68705682D01*
X152533609Y-68713189D01*
X152561152Y-68760895D01*
X152562235Y-68762771D01*
X152589105Y-68813270D01*
X152595097Y-68819692D01*
X152599494Y-68827307D01*
X152599501Y-68827315D01*
X152638448Y-68866262D01*
X152641430Y-68869349D01*
X152679010Y-68909625D01*
X152686468Y-68914282D01*
X152692686Y-68920500D01*
X152742251Y-68949116D01*
X152744051Y-68950240D01*
X152744052Y-68950241D01*
X152759171Y-68959682D01*
X152790790Y-68979427D01*
X152790793Y-68979428D01*
X152790904Y-68979479D01*
X152799363Y-68982090D01*
X152806814Y-68986392D01*
X152855967Y-68999561D01*
X152858184Y-69000246D01*
X152858402Y-69000390D01*
X152861943Y-69001472D01*
X153212733Y-69122168D01*
X153220814Y-69125268D01*
X153566238Y-69271846D01*
X153574081Y-69275502D01*
X153908436Y-69445867D01*
X153915991Y-69450055D01*
X154132064Y-69579921D01*
X154237623Y-69643365D01*
X154244878Y-69648078D01*
X154552231Y-69863400D01*
X154559093Y-69868575D01*
X154850658Y-70104854D01*
X154857188Y-70110536D01*
X155131491Y-70366573D01*
X155137605Y-70372693D01*
X155310914Y-70558768D01*
X155388734Y-70642320D01*
X155395146Y-70649777D01*
X161657994Y-78545827D01*
X161669312Y-78573763D01*
X161682842Y-78600699D01*
X161682299Y-78605814D01*
X161684231Y-78610583D01*
X161678649Y-78640204D01*
X161675469Y-78670178D01*
X161672246Y-78674188D01*
X161671294Y-78679244D01*
X161650585Y-78701144D01*
X161631703Y-78724642D01*
X161625749Y-78727408D01*
X161623289Y-78730011D01*
X161600164Y-78740484D01*
X161596585Y-78741680D01*
X161462515Y-78777605D01*
X161425876Y-78798758D01*
X161414025Y-78802721D01*
X161396104Y-78803385D01*
X161374704Y-78809120D01*
X159474576Y-78809120D01*
X159407537Y-78789435D01*
X159393683Y-78778271D01*
X159388011Y-78773918D01*
X159262488Y-78701447D01*
X159262489Y-78701447D01*
X159251006Y-78698370D01*
X159122475Y-78663930D01*
X158977525Y-78663930D01*
X158848993Y-78698370D01*
X158837511Y-78701447D01*
X158711988Y-78773918D01*
X158711982Y-78773923D01*
X158609493Y-78876412D01*
X158609488Y-78876418D01*
X158537017Y-79001941D01*
X158537016Y-79001945D01*
X158499500Y-79141955D01*
X158499500Y-79286905D01*
X158519907Y-79363064D01*
X158537017Y-79426918D01*
X158609488Y-79552441D01*
X158609490Y-79552443D01*
X158609491Y-79552445D01*
X158711985Y-79654939D01*
X158711986Y-79654940D01*
X158711988Y-79654941D01*
X158837511Y-79727412D01*
X158837512Y-79727412D01*
X158837515Y-79727414D01*
X158977525Y-79764930D01*
X158977528Y-79764930D01*
X159122472Y-79764930D01*
X159122475Y-79764930D01*
X159262485Y-79727414D01*
X159388015Y-79654939D01*
X159396515Y-79646439D01*
X159457838Y-79612954D01*
X159484196Y-79610120D01*
X161164644Y-79610120D01*
X161231683Y-79629805D01*
X161252325Y-79646438D01*
X161336985Y-79731098D01*
X161336987Y-79731099D01*
X161336988Y-79731100D01*
X161462511Y-79803571D01*
X161462512Y-79803571D01*
X161462515Y-79803573D01*
X161602525Y-79841089D01*
X161602528Y-79841089D01*
X161747472Y-79841089D01*
X161747475Y-79841089D01*
X161887485Y-79803573D01*
X162013015Y-79731098D01*
X162115509Y-79628604D01*
X162141653Y-79583320D01*
X162192048Y-79496036D01*
X162194464Y-79497430D01*
X162229752Y-79453608D01*
X162296038Y-79431519D01*
X162363744Y-79448773D01*
X162397661Y-79478382D01*
X165950635Y-83957887D01*
X180568392Y-102387610D01*
X180574338Y-102399569D01*
X180609227Y-102439095D01*
X180611257Y-102441655D01*
X180611261Y-102441659D01*
X180641994Y-102480405D01*
X180641998Y-102480408D01*
X180647830Y-102486056D01*
X180647506Y-102486389D01*
X180658360Y-102496555D01*
X181195388Y-103128813D01*
X181198371Y-103132463D01*
X181567731Y-103602458D01*
X181748113Y-103831987D01*
X181750957Y-103835752D01*
X182273644Y-104555634D01*
X182276344Y-104559505D01*
X182372501Y-104703134D01*
X182713638Y-105212688D01*
X182771281Y-105298788D01*
X182773828Y-105302754D01*
X182858646Y-105440511D01*
X183240257Y-106060305D01*
X183242655Y-106064370D01*
X183679939Y-106839155D01*
X183682180Y-106843309D01*
X184089652Y-107634147D01*
X184091733Y-107638382D01*
X184468818Y-108444153D01*
X184470737Y-108448465D01*
X184816891Y-109268011D01*
X184818644Y-109272392D01*
X185133365Y-110104525D01*
X185134950Y-110108971D01*
X185417769Y-110952448D01*
X185419183Y-110956948D01*
X185446067Y-111048553D01*
X185669705Y-111810590D01*
X185670948Y-111815143D01*
X185888810Y-112677717D01*
X185889878Y-112682313D01*
X186074755Y-113552529D01*
X186075648Y-113557164D01*
X186227282Y-114433812D01*
X186227997Y-114438476D01*
X186346158Y-115320219D01*
X186346696Y-115324908D01*
X186431221Y-116210533D01*
X186431580Y-116215238D01*
X186482344Y-117103427D01*
X186482524Y-117108143D01*
X186487330Y-117360636D01*
X186499478Y-117998932D01*
X186499500Y-118001219D01*
X186499500Y-149997438D01*
X186499394Y-150002562D01*
X186480928Y-150449016D01*
X186480082Y-150459230D01*
X186425128Y-150900099D01*
X186423441Y-150910208D01*
X186332269Y-151345028D01*
X186329753Y-151354963D01*
X186202984Y-151780773D01*
X186199656Y-151790466D01*
X186038161Y-152204339D01*
X186034045Y-152213724D01*
X185838919Y-152612863D01*
X185834041Y-152621877D01*
X185606616Y-153003544D01*
X185601010Y-153012123D01*
X185342859Y-153373687D01*
X185336564Y-153381775D01*
X185049428Y-153720796D01*
X185042487Y-153728336D01*
X184728336Y-154042487D01*
X184720796Y-154049428D01*
X184381775Y-154336564D01*
X184373687Y-154342859D01*
X184012123Y-154601010D01*
X184003544Y-154606616D01*
X183621877Y-154834041D01*
X183612863Y-154838919D01*
X183213724Y-155034045D01*
X183204339Y-155038161D01*
X182790466Y-155199656D01*
X182780773Y-155202984D01*
X182354963Y-155329753D01*
X182345028Y-155332269D01*
X181910208Y-155423441D01*
X181900099Y-155425128D01*
X181459230Y-155480082D01*
X181449016Y-155480928D01*
X181005124Y-155499288D01*
X180994876Y-155499288D01*
X180550983Y-155480928D01*
X180540769Y-155480082D01*
X180099900Y-155425128D01*
X180089791Y-155423441D01*
X179654971Y-155332269D01*
X179645036Y-155329753D01*
X179219226Y-155202984D01*
X179209533Y-155199656D01*
X178795660Y-155038161D01*
X178786275Y-155034045D01*
X178387136Y-154838919D01*
X178378122Y-154834041D01*
X177996455Y-154606616D01*
X177987876Y-154601010D01*
X177626312Y-154342859D01*
X177618224Y-154336564D01*
X177279203Y-154049428D01*
X177271663Y-154042487D01*
X176957512Y-153728336D01*
X176950571Y-153720796D01*
X176663435Y-153381775D01*
X176657140Y-153373687D01*
X176593375Y-153284379D01*
X176398989Y-153012123D01*
X176393383Y-153003544D01*
X176351561Y-152933359D01*
X176165955Y-152621872D01*
X176161080Y-152612863D01*
X175965954Y-152213724D01*
X175961838Y-152204339D01*
X175904327Y-152056952D01*
X175800338Y-151790454D01*
X175797019Y-151780786D01*
X175670242Y-151354950D01*
X175667733Y-151345042D01*
X175576555Y-150910194D01*
X175574873Y-150900114D01*
X175519915Y-150459209D01*
X175519072Y-150449036D01*
X175500606Y-150002562D01*
X175500500Y-149997438D01*
X175500500Y-149805683D01*
X176549500Y-149805683D01*
X176549500Y-150194316D01*
X176583371Y-150581462D01*
X176583371Y-150581466D01*
X176650853Y-150964172D01*
X176650857Y-150964189D01*
X176751435Y-151339555D01*
X176884362Y-151704768D01*
X177048587Y-152056952D01*
X177048600Y-152056976D01*
X177242905Y-152393521D01*
X177242914Y-152393536D01*
X177465821Y-152711880D01*
X177656358Y-152938952D01*
X177715621Y-153009579D01*
X177990421Y-153284379D01*
X178096361Y-153373273D01*
X178288119Y-153534178D01*
X178288125Y-153534182D01*
X178288126Y-153534183D01*
X178606470Y-153757090D01*
X178921894Y-153939200D01*
X178943023Y-153951399D01*
X178943047Y-153951412D01*
X179295231Y-154115637D01*
X179295236Y-154115638D01*
X179295245Y-154115643D01*
X179660434Y-154248561D01*
X179660440Y-154248562D01*
X179660444Y-154248564D01*
X179762666Y-154275954D01*
X180035818Y-154349145D01*
X180418540Y-154416629D01*
X180805685Y-154450499D01*
X180805686Y-154450500D01*
X180805687Y-154450500D01*
X181194314Y-154450500D01*
X181194314Y-154450499D01*
X181581460Y-154416629D01*
X181964182Y-154349145D01*
X182339566Y-154248561D01*
X182704755Y-154115643D01*
X182704768Y-154115637D01*
X183056952Y-153951412D01*
X183056960Y-153951407D01*
X183056970Y-153951403D01*
X183393530Y-153757090D01*
X183711874Y-153534183D01*
X184009579Y-153284379D01*
X184284379Y-153009579D01*
X184534183Y-152711874D01*
X184757090Y-152393530D01*
X184951403Y-152056970D01*
X184951407Y-152056960D01*
X184951412Y-152056952D01*
X185115637Y-151704768D01*
X185115637Y-151704767D01*
X185115643Y-151704755D01*
X185248561Y-151339566D01*
X185349145Y-150964182D01*
X185416629Y-150581460D01*
X185450500Y-150194313D01*
X185450500Y-149805687D01*
X185416629Y-149418540D01*
X185349145Y-149035818D01*
X185248561Y-148660434D01*
X185115643Y-148295245D01*
X185115638Y-148295236D01*
X185115637Y-148295231D01*
X184951412Y-147943047D01*
X184951399Y-147943023D01*
X184939200Y-147921894D01*
X184757090Y-147606470D01*
X184534183Y-147288126D01*
X184534182Y-147288125D01*
X184534178Y-147288119D01*
X184284376Y-146990418D01*
X184009581Y-146715623D01*
X183711880Y-146465821D01*
X183393536Y-146242914D01*
X183393533Y-146242912D01*
X183393530Y-146242910D01*
X183293538Y-146185179D01*
X183056976Y-146048600D01*
X183056952Y-146048587D01*
X182704768Y-145884362D01*
X182704757Y-145884358D01*
X182704755Y-145884357D01*
X182339566Y-145751439D01*
X182339565Y-145751438D01*
X182339555Y-145751435D01*
X181964189Y-145650857D01*
X181964192Y-145650857D01*
X181964182Y-145650855D01*
X181964176Y-145650853D01*
X181964172Y-145650853D01*
X181581464Y-145583371D01*
X181194316Y-145549500D01*
X181194313Y-145549500D01*
X180805687Y-145549500D01*
X180805683Y-145549500D01*
X180418537Y-145583371D01*
X180418533Y-145583371D01*
X180035827Y-145650853D01*
X180035810Y-145650857D01*
X179660444Y-145751435D01*
X179295231Y-145884362D01*
X178943047Y-146048587D01*
X178943023Y-146048600D01*
X178606478Y-146242905D01*
X178606463Y-146242914D01*
X178288119Y-146465821D01*
X177990418Y-146715623D01*
X177715623Y-146990418D01*
X177465821Y-147288119D01*
X177242914Y-147606463D01*
X177242905Y-147606478D01*
X177048600Y-147943023D01*
X177048587Y-147943047D01*
X176884362Y-148295231D01*
X176751435Y-148660444D01*
X176650857Y-149035810D01*
X176650853Y-149035827D01*
X176583371Y-149418533D01*
X176583371Y-149418537D01*
X176549500Y-149805683D01*
X175500500Y-149805683D01*
X175500500Y-136762145D01*
X177364880Y-136762145D01*
X177364880Y-136907095D01*
X177386428Y-136987511D01*
X177402397Y-137047108D01*
X177474868Y-137172631D01*
X177474870Y-137172633D01*
X177474871Y-137172635D01*
X177577365Y-137275129D01*
X177577366Y-137275130D01*
X177577368Y-137275131D01*
X177702891Y-137347602D01*
X177702892Y-137347602D01*
X177702895Y-137347604D01*
X177842905Y-137385120D01*
X177842908Y-137385120D01*
X177987852Y-137385120D01*
X177987855Y-137385120D01*
X178127865Y-137347604D01*
X178253395Y-137275129D01*
X178257085Y-137271439D01*
X178318408Y-137237954D01*
X178344766Y-137235120D01*
X180744343Y-137235120D01*
X180811382Y-137254805D01*
X180857137Y-137307609D01*
X180864115Y-137327019D01*
X180887016Y-137412485D01*
X180887017Y-137412487D01*
X180887017Y-137412488D01*
X180959488Y-137538011D01*
X180959490Y-137538013D01*
X180959491Y-137538015D01*
X181061985Y-137640509D01*
X181061986Y-137640510D01*
X181061988Y-137640511D01*
X181187511Y-137712982D01*
X181187512Y-137712982D01*
X181187515Y-137712984D01*
X181327525Y-137750500D01*
X181327528Y-137750500D01*
X181472472Y-137750500D01*
X181472475Y-137750500D01*
X181612485Y-137712984D01*
X181738015Y-137640509D01*
X181840509Y-137538015D01*
X181912984Y-137412485D01*
X181950500Y-137272475D01*
X181950500Y-137127525D01*
X181912984Y-136987515D01*
X181866553Y-136907095D01*
X181840511Y-136861988D01*
X181840506Y-136861982D01*
X181738017Y-136759493D01*
X181738011Y-136759488D01*
X181612488Y-136687017D01*
X181612489Y-136687017D01*
X181601006Y-136683940D01*
X181472475Y-136649500D01*
X181472472Y-136649500D01*
X181467255Y-136649500D01*
X181400216Y-136629815D01*
X181379574Y-136613181D01*
X181280535Y-136514142D01*
X181280533Y-136514140D01*
X181234870Y-136487776D01*
X181189209Y-136461413D01*
X181138277Y-136447766D01*
X181087347Y-136434120D01*
X181087346Y-136434120D01*
X178344766Y-136434120D01*
X178277727Y-136414435D01*
X178257085Y-136397801D01*
X178253397Y-136394113D01*
X178253391Y-136394108D01*
X178127868Y-136321637D01*
X178127869Y-136321637D01*
X178116386Y-136318560D01*
X177987855Y-136284120D01*
X177842905Y-136284120D01*
X177714373Y-136318560D01*
X177702891Y-136321637D01*
X177577368Y-136394108D01*
X177577362Y-136394113D01*
X177474873Y-136496602D01*
X177474868Y-136496608D01*
X177402397Y-136622131D01*
X177402396Y-136622135D01*
X177364880Y-136762145D01*
X175500500Y-136762145D01*
X175500500Y-117926248D01*
X175500493Y-117926144D01*
X175500475Y-117677088D01*
X175500475Y-117677075D01*
X175467128Y-117032086D01*
X175400525Y-116389679D01*
X175300841Y-115751568D01*
X175168344Y-115119454D01*
X175003387Y-114495025D01*
X174806409Y-113879946D01*
X174577937Y-113275857D01*
X174501492Y-113101519D01*
X174318586Y-112684386D01*
X174318571Y-112684355D01*
X174029027Y-112107061D01*
X173788935Y-111684354D01*
X173710056Y-111545478D01*
X173362513Y-111001109D01*
X172987328Y-110475411D01*
X172585500Y-109969786D01*
X172382738Y-109740040D01*
X172378548Y-109735033D01*
X172128911Y-109420147D01*
X168369044Y-104677536D01*
X177380271Y-104677536D01*
X177380271Y-104822486D01*
X177408417Y-104927527D01*
X177417788Y-104962499D01*
X177490259Y-105088022D01*
X177490261Y-105088024D01*
X177490262Y-105088026D01*
X177592756Y-105190520D01*
X177592757Y-105190521D01*
X177592759Y-105190522D01*
X177718282Y-105262993D01*
X177718283Y-105262993D01*
X177718286Y-105262995D01*
X177858296Y-105300511D01*
X177858299Y-105300511D01*
X178003243Y-105300511D01*
X178003246Y-105300511D01*
X178143256Y-105262995D01*
X178241439Y-105206308D01*
X178309337Y-105189836D01*
X178375364Y-105212688D01*
X178391119Y-105226015D01*
X178483799Y-105318695D01*
X178483800Y-105318696D01*
X178483802Y-105318697D01*
X178609325Y-105391168D01*
X178609326Y-105391168D01*
X178609329Y-105391170D01*
X178749339Y-105428686D01*
X178754559Y-105428686D01*
X178821598Y-105448371D01*
X178842240Y-105465005D01*
X179163181Y-105785946D01*
X179196666Y-105847269D01*
X179199500Y-105873627D01*
X179199500Y-107470614D01*
X179179815Y-107537653D01*
X179163181Y-107558295D01*
X179159493Y-107561982D01*
X179159488Y-107561988D01*
X179087017Y-107687511D01*
X179087016Y-107687515D01*
X179049500Y-107827525D01*
X179049500Y-107972475D01*
X179087016Y-108112485D01*
X179087017Y-108112488D01*
X179159488Y-108238011D01*
X179159490Y-108238013D01*
X179159491Y-108238015D01*
X179261985Y-108340509D01*
X179261986Y-108340510D01*
X179261988Y-108340511D01*
X179387511Y-108412982D01*
X179387512Y-108412982D01*
X179387515Y-108412984D01*
X179527525Y-108450500D01*
X179527528Y-108450500D01*
X179672472Y-108450500D01*
X179672475Y-108450500D01*
X179812485Y-108412984D01*
X179938015Y-108340509D01*
X180040509Y-108238015D01*
X180112984Y-108112485D01*
X180150500Y-107972475D01*
X180150500Y-107827525D01*
X180112984Y-107687515D01*
X180070135Y-107613299D01*
X180040511Y-107561988D01*
X180040506Y-107561982D01*
X180036819Y-107558295D01*
X180003334Y-107496972D01*
X180000500Y-107470614D01*
X180000500Y-105603647D01*
X180000500Y-105603645D01*
X179973207Y-105501785D01*
X179973207Y-105501784D01*
X179920480Y-105410459D01*
X179408633Y-104898612D01*
X179375148Y-104837289D01*
X179374078Y-104831774D01*
X179372314Y-104821428D01*
X179372314Y-104805711D01*
X179364944Y-104778206D01*
X179363976Y-104772529D01*
X179367400Y-104743322D01*
X179368100Y-104713929D01*
X179371421Y-104709021D01*
X179372112Y-104703134D01*
X179390783Y-104680414D01*
X179407263Y-104656067D01*
X179412710Y-104653734D01*
X179416474Y-104649155D01*
X179444462Y-104640137D01*
X179471491Y-104628563D01*
X179482403Y-104627912D01*
X179482977Y-104627728D01*
X179483440Y-104627851D01*
X179486212Y-104627686D01*
X180209931Y-104627686D01*
X180276970Y-104647371D01*
X180297612Y-104664005D01*
X180613181Y-104979574D01*
X180646666Y-105040897D01*
X180649500Y-105067255D01*
X180649500Y-105072475D01*
X180681131Y-105190522D01*
X180687017Y-105212488D01*
X180759488Y-105338011D01*
X180759490Y-105338013D01*
X180759491Y-105338015D01*
X180861985Y-105440509D01*
X180861986Y-105440510D01*
X180861988Y-105440511D01*
X180987511Y-105512982D01*
X180987512Y-105512982D01*
X180987515Y-105512984D01*
X181127525Y-105550500D01*
X181127528Y-105550500D01*
X181272472Y-105550500D01*
X181272475Y-105550500D01*
X181412485Y-105512984D01*
X181538015Y-105440509D01*
X181640509Y-105338015D01*
X181712984Y-105212485D01*
X181750500Y-105072475D01*
X181750500Y-104927525D01*
X181712984Y-104787515D01*
X181667665Y-104709021D01*
X181640511Y-104661988D01*
X181640506Y-104661982D01*
X181538017Y-104559493D01*
X181538011Y-104559488D01*
X181412488Y-104487017D01*
X181412489Y-104487017D01*
X181401006Y-104483940D01*
X181272475Y-104449500D01*
X181272472Y-104449500D01*
X181267255Y-104449500D01*
X181200216Y-104429815D01*
X181179574Y-104413181D01*
X180673101Y-103906708D01*
X180673099Y-103906706D01*
X180627436Y-103880342D01*
X180581775Y-103853979D01*
X180513748Y-103835752D01*
X180479913Y-103826686D01*
X178604887Y-103826686D01*
X178499433Y-103826686D01*
X178397570Y-103853979D01*
X178306247Y-103906706D01*
X178306244Y-103906708D01*
X178049760Y-104163192D01*
X177988437Y-104196677D01*
X177962079Y-104199511D01*
X177858296Y-104199511D01*
X177729764Y-104233951D01*
X177718282Y-104237028D01*
X177592759Y-104309499D01*
X177592753Y-104309504D01*
X177490264Y-104411993D01*
X177490259Y-104411999D01*
X177417788Y-104537522D01*
X177417787Y-104537526D01*
X177380271Y-104677536D01*
X168369044Y-104677536D01*
X149857524Y-81327525D01*
X159109500Y-81327525D01*
X159109500Y-81472475D01*
X159147016Y-81612485D01*
X159147017Y-81612488D01*
X159219488Y-81738011D01*
X159219490Y-81738013D01*
X159219491Y-81738015D01*
X159321985Y-81840509D01*
X159321986Y-81840510D01*
X159321988Y-81840511D01*
X159447511Y-81912982D01*
X159447512Y-81912982D01*
X159447515Y-81912984D01*
X159587525Y-81950500D01*
X159587528Y-81950500D01*
X159732472Y-81950500D01*
X159732475Y-81950500D01*
X159872485Y-81912984D01*
X159998015Y-81840509D01*
X159998379Y-81840144D01*
X159998759Y-81839937D01*
X160004461Y-81835562D01*
X160005142Y-81836450D01*
X160059697Y-81806656D01*
X160129389Y-81811635D01*
X160173746Y-81840139D01*
X161013181Y-82679574D01*
X161046666Y-82740897D01*
X161049500Y-82767255D01*
X161049500Y-82772475D01*
X161074838Y-82867037D01*
X161087017Y-82912488D01*
X161159488Y-83038011D01*
X161159490Y-83038013D01*
X161159491Y-83038015D01*
X161261985Y-83140509D01*
X161261986Y-83140510D01*
X161261988Y-83140511D01*
X161387511Y-83212982D01*
X161387512Y-83212982D01*
X161387515Y-83212984D01*
X161527525Y-83250500D01*
X161527528Y-83250500D01*
X161672472Y-83250500D01*
X161672475Y-83250500D01*
X161812485Y-83212984D01*
X161938015Y-83140509D01*
X162040509Y-83038015D01*
X162112984Y-82912485D01*
X162150500Y-82772475D01*
X162150500Y-82627525D01*
X162112984Y-82487515D01*
X162040509Y-82361985D01*
X161938015Y-82259491D01*
X161938013Y-82259490D01*
X161938011Y-82259488D01*
X161812488Y-82187017D01*
X161812489Y-82187017D01*
X161801006Y-82183940D01*
X161672475Y-82149500D01*
X161672472Y-82149500D01*
X161667255Y-82149500D01*
X161600216Y-82129815D01*
X161579574Y-82113181D01*
X160545915Y-81079522D01*
X160545913Y-81079520D01*
X160500250Y-81053156D01*
X160454589Y-81026793D01*
X160403657Y-81013146D01*
X160352727Y-80999500D01*
X160352726Y-80999500D01*
X160089386Y-80999500D01*
X160022347Y-80979815D01*
X160001705Y-80963181D01*
X159998017Y-80959493D01*
X159998011Y-80959488D01*
X159872488Y-80887017D01*
X159872489Y-80887017D01*
X159861006Y-80883940D01*
X159732475Y-80849500D01*
X159587525Y-80849500D01*
X159458993Y-80883940D01*
X159447511Y-80887017D01*
X159321988Y-80959488D01*
X159321982Y-80959493D01*
X159219493Y-81061982D01*
X159219488Y-81061988D01*
X159147017Y-81187511D01*
X159147016Y-81187515D01*
X159109500Y-81327525D01*
X149857524Y-81327525D01*
X147211131Y-77989425D01*
X147204019Y-77975437D01*
X147170318Y-77937944D01*
X147139010Y-77898453D01*
X147139008Y-77898450D01*
X147133175Y-77892799D01*
X147133660Y-77892297D01*
X147123238Y-77882452D01*
X146906605Y-77623076D01*
X146901083Y-77615953D01*
X146673063Y-77298666D01*
X146668072Y-77291160D01*
X146463697Y-76958141D01*
X146459265Y-76950292D01*
X146279619Y-76603301D01*
X146275769Y-76595152D01*
X146121813Y-76236055D01*
X146118564Y-76227648D01*
X145992390Y-75862056D01*
X145991113Y-75858142D01*
X145990435Y-75855945D01*
X145977272Y-75806814D01*
X145973026Y-75799460D01*
X145970453Y-75791111D01*
X145970401Y-75790998D01*
X145970400Y-75790994D01*
X145967756Y-75786755D01*
X145941171Y-75744140D01*
X145941171Y-75744141D01*
X145940044Y-75742335D01*
X145911380Y-75692686D01*
X145905241Y-75686547D01*
X145900647Y-75679183D01*
X145858738Y-75640044D01*
X145818194Y-75599500D01*
X145810678Y-75595160D01*
X145804333Y-75589235D01*
X145804328Y-75589232D01*
X145755583Y-75563268D01*
X145755583Y-75563267D01*
X145753697Y-75562262D01*
X145704066Y-75533608D01*
X145695679Y-75531360D01*
X145688021Y-75527281D01*
X145688014Y-75527279D01*
X145634230Y-75514820D01*
X145630121Y-75513794D01*
X145576773Y-75499500D01*
X145568712Y-75498439D01*
X145568775Y-75497958D01*
X145567769Y-75497843D01*
X145567723Y-75498326D01*
X145559637Y-75497541D01*
X145559635Y-75497541D01*
X145513180Y-75499128D01*
X145504430Y-75499428D01*
X145500195Y-75499500D01*
X90508424Y-75499500D01*
X90450980Y-75497567D01*
X90442655Y-75499500D01*
X90434102Y-75499500D01*
X90380604Y-75513835D01*
X90380603Y-75513834D01*
X90378539Y-75514386D01*
X90322611Y-75527374D01*
X90315069Y-75531395D01*
X90311195Y-75532433D01*
X90306816Y-75533607D01*
X90306814Y-75533607D01*
X90258842Y-75561302D01*
X90258843Y-75561303D01*
X90257036Y-75562345D01*
X90206330Y-75589390D01*
X90200085Y-75595227D01*
X90194803Y-75598277D01*
X90192682Y-75599502D01*
X90153527Y-75638657D01*
X90150533Y-75641552D01*
X90110065Y-75679386D01*
X90110058Y-75679394D01*
X90105539Y-75686645D01*
X90099500Y-75692686D01*
X90070770Y-75742445D01*
X90069672Y-75744208D01*
X90069659Y-75744230D01*
X90040369Y-75791237D01*
X90040319Y-75791348D01*
X90037794Y-75799560D01*
X90033608Y-75806814D01*
X90020303Y-75856466D01*
X90019634Y-75858645D01*
X90019501Y-75858844D01*
X90018480Y-75862207D01*
X89905352Y-76194208D01*
X89902462Y-76201855D01*
X89766050Y-76529660D01*
X89762662Y-76537099D01*
X89604959Y-76855181D01*
X89601089Y-76862381D01*
X89422762Y-77169400D01*
X89418425Y-77176330D01*
X89223802Y-77465661D01*
X89218366Y-77473127D01*
X64620970Y-108735536D01*
X64616489Y-108740911D01*
X64414502Y-108969780D01*
X64414493Y-108969792D01*
X64012667Y-109475417D01*
X63637490Y-110001102D01*
X63289948Y-110545469D01*
X62970971Y-111107061D01*
X62681427Y-111684354D01*
X62681412Y-111684385D01*
X62422066Y-112275846D01*
X62193586Y-112879955D01*
X61996610Y-113495030D01*
X61831657Y-114119442D01*
X61807917Y-114232701D01*
X61700486Y-114745235D01*
X61699157Y-114751575D01*
X61699154Y-114751590D01*
X61599473Y-115389684D01*
X61532871Y-116032077D01*
X61532871Y-116032085D01*
X61499523Y-116677087D01*
X61499504Y-116927636D01*
X61499500Y-116927724D01*
X61499500Y-149997438D01*
X61499394Y-150002562D01*
X61480928Y-150449016D01*
X61480082Y-150459230D01*
X61425128Y-150900099D01*
X61423441Y-150910208D01*
X61332269Y-151345028D01*
X61329753Y-151354963D01*
X61202984Y-151780773D01*
X61199656Y-151790466D01*
X61038161Y-152204339D01*
X61034045Y-152213724D01*
X60838919Y-152612863D01*
X60834041Y-152621877D01*
X60606616Y-153003544D01*
X60601010Y-153012123D01*
X60342859Y-153373687D01*
X60336564Y-153381775D01*
X60049428Y-153720796D01*
X60042487Y-153728336D01*
X59728336Y-154042487D01*
X59720796Y-154049428D01*
X59381775Y-154336564D01*
X59373687Y-154342859D01*
X59012123Y-154601010D01*
X59003544Y-154606616D01*
X58621877Y-154834041D01*
X58612863Y-154838919D01*
X58213724Y-155034045D01*
X58204339Y-155038161D01*
X57790466Y-155199656D01*
X57780773Y-155202984D01*
X57354963Y-155329753D01*
X57345028Y-155332269D01*
X56910208Y-155423441D01*
X56900099Y-155425128D01*
X56459230Y-155480082D01*
X56449016Y-155480928D01*
X56005124Y-155499288D01*
X55994876Y-155499288D01*
X55550983Y-155480928D01*
X55540769Y-155480082D01*
X55099900Y-155425128D01*
X55089791Y-155423441D01*
X54654971Y-155332269D01*
X54645036Y-155329753D01*
X54219226Y-155202984D01*
X54209533Y-155199656D01*
X53795660Y-155038161D01*
X53786275Y-155034045D01*
X53387136Y-154838919D01*
X53378122Y-154834041D01*
X52996455Y-154606616D01*
X52987876Y-154601010D01*
X52626312Y-154342859D01*
X52618224Y-154336564D01*
X52279203Y-154049428D01*
X52271663Y-154042487D01*
X51957512Y-153728336D01*
X51950571Y-153720796D01*
X51663435Y-153381775D01*
X51657140Y-153373687D01*
X51593375Y-153284379D01*
X51398989Y-153012123D01*
X51393383Y-153003544D01*
X51351561Y-152933359D01*
X51165955Y-152621872D01*
X51161080Y-152612863D01*
X50965954Y-152213724D01*
X50961838Y-152204339D01*
X50904327Y-152056952D01*
X50800338Y-151790454D01*
X50797019Y-151780786D01*
X50670242Y-151354950D01*
X50667733Y-151345042D01*
X50576555Y-150910194D01*
X50574873Y-150900114D01*
X50519915Y-150459209D01*
X50519072Y-150449036D01*
X50500606Y-150002562D01*
X50500500Y-149997438D01*
X50500500Y-149805683D01*
X51549500Y-149805683D01*
X51549500Y-150194316D01*
X51583371Y-150581462D01*
X51583371Y-150581466D01*
X51650853Y-150964172D01*
X51650857Y-150964189D01*
X51751435Y-151339555D01*
X51884362Y-151704768D01*
X52048587Y-152056952D01*
X52048600Y-152056976D01*
X52242905Y-152393521D01*
X52242914Y-152393536D01*
X52465821Y-152711880D01*
X52656358Y-152938952D01*
X52715621Y-153009579D01*
X52990421Y-153284379D01*
X53096361Y-153373273D01*
X53288119Y-153534178D01*
X53288125Y-153534182D01*
X53288126Y-153534183D01*
X53606470Y-153757090D01*
X53921894Y-153939200D01*
X53943023Y-153951399D01*
X53943047Y-153951412D01*
X54295231Y-154115637D01*
X54295236Y-154115638D01*
X54295245Y-154115643D01*
X54660434Y-154248561D01*
X54660440Y-154248562D01*
X54660444Y-154248564D01*
X54762666Y-154275954D01*
X55035818Y-154349145D01*
X55418540Y-154416629D01*
X55805685Y-154450499D01*
X55805686Y-154450500D01*
X55805687Y-154450500D01*
X56194314Y-154450500D01*
X56194314Y-154450499D01*
X56581460Y-154416629D01*
X56964182Y-154349145D01*
X57339566Y-154248561D01*
X57704755Y-154115643D01*
X57704768Y-154115637D01*
X58056952Y-153951412D01*
X58056960Y-153951407D01*
X58056970Y-153951403D01*
X58393530Y-153757090D01*
X58711874Y-153534183D01*
X59009579Y-153284379D01*
X59284379Y-153009579D01*
X59534183Y-152711874D01*
X59757090Y-152393530D01*
X59951403Y-152056970D01*
X59951407Y-152056960D01*
X59951412Y-152056952D01*
X60115637Y-151704768D01*
X60115637Y-151704767D01*
X60115643Y-151704755D01*
X60248561Y-151339566D01*
X60349145Y-150964182D01*
X60416629Y-150581460D01*
X60450500Y-150194313D01*
X60450500Y-149805687D01*
X60416629Y-149418540D01*
X60349145Y-149035818D01*
X60248561Y-148660434D01*
X60115643Y-148295245D01*
X60115638Y-148295236D01*
X60115637Y-148295231D01*
X59951412Y-147943047D01*
X59951399Y-147943023D01*
X59939200Y-147921894D01*
X59757090Y-147606470D01*
X59534183Y-147288126D01*
X59534182Y-147288125D01*
X59534178Y-147288119D01*
X59284376Y-146990418D01*
X59009581Y-146715623D01*
X58711880Y-146465821D01*
X58393536Y-146242914D01*
X58393533Y-146242912D01*
X58393530Y-146242910D01*
X58293538Y-146185179D01*
X58056976Y-146048600D01*
X58056952Y-146048587D01*
X57704768Y-145884362D01*
X57704757Y-145884358D01*
X57704755Y-145884357D01*
X57339566Y-145751439D01*
X57339565Y-145751438D01*
X57339555Y-145751435D01*
X56964189Y-145650857D01*
X56964192Y-145650857D01*
X56964182Y-145650855D01*
X56964176Y-145650853D01*
X56964172Y-145650853D01*
X56581464Y-145583371D01*
X56194316Y-145549500D01*
X56194313Y-145549500D01*
X55805687Y-145549500D01*
X55805683Y-145549500D01*
X55418537Y-145583371D01*
X55418533Y-145583371D01*
X55035827Y-145650853D01*
X55035810Y-145650857D01*
X54660444Y-145751435D01*
X54295231Y-145884362D01*
X53943047Y-146048587D01*
X53943023Y-146048600D01*
X53606478Y-146242905D01*
X53606463Y-146242914D01*
X53288119Y-146465821D01*
X52990418Y-146715623D01*
X52715623Y-146990418D01*
X52465821Y-147288119D01*
X52242914Y-147606463D01*
X52242905Y-147606478D01*
X52048600Y-147943023D01*
X52048587Y-147943047D01*
X51884362Y-148295231D01*
X51751435Y-148660444D01*
X51650857Y-149035810D01*
X51650853Y-149035827D01*
X51583371Y-149418533D01*
X51583371Y-149418537D01*
X51549500Y-149805683D01*
X50500500Y-149805683D01*
X50500500Y-117001204D01*
X50500522Y-116998844D01*
X50515481Y-116212886D01*
X50517474Y-116108126D01*
X50517654Y-116103427D01*
X50518432Y-116089813D01*
X50568420Y-115215207D01*
X50568774Y-115210561D01*
X50653304Y-114324887D01*
X50653840Y-114320218D01*
X50665568Y-114232701D01*
X50772005Y-113438447D01*
X50772711Y-113433840D01*
X50924353Y-112557144D01*
X50925243Y-112552528D01*
X51019882Y-112107064D01*
X51110127Y-111682281D01*
X51111180Y-111677746D01*
X51329058Y-110815109D01*
X51330284Y-110810620D01*
X51580826Y-109956914D01*
X51582218Y-109952483D01*
X51865064Y-109108927D01*
X51866624Y-109104550D01*
X52181367Y-108272360D01*
X52183088Y-108268057D01*
X52495869Y-107527525D01*
X54174500Y-107527525D01*
X54174500Y-107672475D01*
X54212016Y-107812485D01*
X54212017Y-107812488D01*
X54284488Y-107938011D01*
X54284490Y-107938013D01*
X54284491Y-107938015D01*
X54386985Y-108040509D01*
X54386986Y-108040510D01*
X54386988Y-108040511D01*
X54512511Y-108112982D01*
X54512512Y-108112982D01*
X54512515Y-108112984D01*
X54652525Y-108150500D01*
X54652528Y-108150500D01*
X54797472Y-108150500D01*
X54797475Y-108150500D01*
X54937485Y-108112984D01*
X55063015Y-108040509D01*
X55066705Y-108036819D01*
X55128028Y-108003334D01*
X55154386Y-108000500D01*
X55915705Y-108000500D01*
X55915707Y-108000500D01*
X56017568Y-107973207D01*
X56108893Y-107920480D01*
X57267573Y-106761798D01*
X57328896Y-106728314D01*
X57355254Y-106725480D01*
X57360472Y-106725480D01*
X57360475Y-106725480D01*
X57500485Y-106687964D01*
X57626015Y-106615489D01*
X57728509Y-106512995D01*
X57800984Y-106387465D01*
X57838500Y-106247455D01*
X57838500Y-106102505D01*
X57800984Y-105962495D01*
X57796937Y-105955486D01*
X57728511Y-105836968D01*
X57728506Y-105836962D01*
X57626017Y-105734473D01*
X57626011Y-105734468D01*
X57500488Y-105661997D01*
X57500489Y-105661997D01*
X57489006Y-105658920D01*
X57360475Y-105624480D01*
X57215525Y-105624480D01*
X57086993Y-105658920D01*
X57075511Y-105661997D01*
X56949988Y-105734468D01*
X56949982Y-105734473D01*
X56847493Y-105836962D01*
X56847488Y-105836968D01*
X56775017Y-105962491D01*
X56775016Y-105962495D01*
X56737500Y-106102505D01*
X56737500Y-106102507D01*
X56737500Y-106107725D01*
X56717815Y-106174764D01*
X56701181Y-106195406D01*
X55733406Y-107163181D01*
X55672083Y-107196666D01*
X55645725Y-107199500D01*
X55154386Y-107199500D01*
X55087347Y-107179815D01*
X55066705Y-107163181D01*
X55063017Y-107159493D01*
X55063011Y-107159488D01*
X54937488Y-107087017D01*
X54937489Y-107087017D01*
X54926006Y-107083940D01*
X54797475Y-107049500D01*
X54652525Y-107049500D01*
X54523993Y-107083940D01*
X54512511Y-107087017D01*
X54386988Y-107159488D01*
X54386982Y-107159493D01*
X54284493Y-107261982D01*
X54284488Y-107261988D01*
X54212017Y-107387511D01*
X54212016Y-107387515D01*
X54174500Y-107527525D01*
X52495869Y-107527525D01*
X52529270Y-107448445D01*
X52531164Y-107444190D01*
X52908285Y-106638339D01*
X52910326Y-106634184D01*
X53317828Y-105843289D01*
X53320060Y-105839153D01*
X53757365Y-105064331D01*
X53759720Y-105060340D01*
X54226195Y-104302713D01*
X54228690Y-104298827D01*
X54723687Y-103559455D01*
X54726320Y-103555680D01*
X55249060Y-102835724D01*
X55251868Y-102832007D01*
X55801627Y-102132463D01*
X55804584Y-102128844D01*
X56342506Y-101495532D01*
X56351476Y-101485055D01*
X56358994Y-101479446D01*
X56390662Y-101439292D01*
X56392270Y-101437416D01*
X56392379Y-101437344D01*
X56393477Y-101436029D01*
X56425664Y-101399567D01*
X56426192Y-101398504D01*
X56439867Y-101376909D01*
X70670291Y-83334912D01*
X71776887Y-83334912D01*
X71776887Y-83479862D01*
X71814403Y-83619872D01*
X71814404Y-83619875D01*
X71886875Y-83745398D01*
X71886877Y-83745400D01*
X71886878Y-83745402D01*
X71989372Y-83847896D01*
X71989373Y-83847897D01*
X71989375Y-83847898D01*
X72114898Y-83920369D01*
X72114899Y-83920369D01*
X72114902Y-83920371D01*
X72254912Y-83957887D01*
X72254915Y-83957887D01*
X72399859Y-83957887D01*
X72399862Y-83957887D01*
X72539872Y-83920371D01*
X72665402Y-83847896D01*
X72767896Y-83745402D01*
X72840371Y-83619872D01*
X72840372Y-83619866D01*
X72843483Y-83612360D01*
X72844752Y-83612885D01*
X72872164Y-83565400D01*
X74500747Y-81936819D01*
X74562070Y-81903334D01*
X74588428Y-81900500D01*
X75570614Y-81900500D01*
X75637653Y-81920185D01*
X75658295Y-81936819D01*
X75661985Y-81940509D01*
X75661986Y-81940510D01*
X75661988Y-81940511D01*
X75787511Y-82012982D01*
X75787512Y-82012982D01*
X75787515Y-82012984D01*
X75927525Y-82050500D01*
X75927528Y-82050500D01*
X76072472Y-82050500D01*
X76072475Y-82050500D01*
X76212485Y-82012984D01*
X76338015Y-81940509D01*
X76440509Y-81838015D01*
X76512984Y-81712485D01*
X76550500Y-81572475D01*
X76550500Y-81427525D01*
X76512984Y-81287515D01*
X76455246Y-81187511D01*
X76440511Y-81161988D01*
X76440506Y-81161982D01*
X76338017Y-81059493D01*
X76338011Y-81059488D01*
X76212488Y-80987017D01*
X76212489Y-80987017D01*
X76201006Y-80983940D01*
X76072475Y-80949500D01*
X75927525Y-80949500D01*
X75798993Y-80983940D01*
X75787511Y-80987017D01*
X75661988Y-81059488D01*
X75661982Y-81059493D01*
X75658295Y-81063181D01*
X75596972Y-81096666D01*
X75570614Y-81099500D01*
X74318446Y-81099500D01*
X74216583Y-81126793D01*
X74125260Y-81179520D01*
X74125257Y-81179522D01*
X72484211Y-82820568D01*
X72422888Y-82854053D01*
X72396530Y-82856887D01*
X72254912Y-82856887D01*
X72126380Y-82891327D01*
X72114898Y-82894404D01*
X71989375Y-82966875D01*
X71989369Y-82966880D01*
X71886880Y-83069369D01*
X71886875Y-83069375D01*
X71814404Y-83194898D01*
X71814403Y-83194902D01*
X71776887Y-83334912D01*
X70670291Y-83334912D01*
X80900018Y-70365186D01*
X88349500Y-70365186D01*
X88349500Y-70634813D01*
X88379686Y-70902719D01*
X88379687Y-70902728D01*
X88379688Y-70902732D01*
X88394687Y-70968446D01*
X88439684Y-71165594D01*
X88439687Y-71165602D01*
X88528734Y-71420082D01*
X88645714Y-71662994D01*
X88645716Y-71662997D01*
X88789162Y-71891289D01*
X88957266Y-72102085D01*
X89147915Y-72292734D01*
X89358711Y-72460838D01*
X89587003Y-72604284D01*
X89829921Y-72721267D01*
X90021049Y-72788145D01*
X90084397Y-72810312D01*
X90084405Y-72810315D01*
X90084408Y-72810315D01*
X90084409Y-72810316D01*
X90347268Y-72870312D01*
X90615187Y-72900499D01*
X90615188Y-72900500D01*
X90615191Y-72900500D01*
X90884812Y-72900500D01*
X90884812Y-72900499D01*
X91152732Y-72870312D01*
X91415591Y-72810316D01*
X91670079Y-72721267D01*
X91912997Y-72604284D01*
X92141289Y-72460838D01*
X92352085Y-72292734D01*
X92542734Y-72102085D01*
X92710838Y-71891289D01*
X92854284Y-71662997D01*
X92971267Y-71420079D01*
X93060316Y-71165591D01*
X93120312Y-70902732D01*
X93150500Y-70634809D01*
X93150500Y-70625321D01*
X113099500Y-70625321D01*
X113099500Y-72374678D01*
X113114032Y-72447735D01*
X113114033Y-72447739D01*
X113132405Y-72475235D01*
X113169399Y-72530601D01*
X113252260Y-72585966D01*
X113252264Y-72585967D01*
X113325321Y-72600499D01*
X113325324Y-72600500D01*
X113325326Y-72600500D01*
X115074676Y-72600500D01*
X115074677Y-72600499D01*
X115147740Y-72585966D01*
X115230601Y-72530601D01*
X115285966Y-72447740D01*
X115300500Y-72374674D01*
X115300500Y-71413389D01*
X115639500Y-71413389D01*
X115639500Y-71586611D01*
X115666598Y-71757701D01*
X115720127Y-71922445D01*
X115798768Y-72076788D01*
X115900586Y-72216928D01*
X116023072Y-72339414D01*
X116163212Y-72441232D01*
X116317555Y-72519873D01*
X116482299Y-72573402D01*
X116653389Y-72600500D01*
X116653390Y-72600500D01*
X116826610Y-72600500D01*
X116826611Y-72600500D01*
X116997701Y-72573402D01*
X117162445Y-72519873D01*
X117316788Y-72441232D01*
X117456928Y-72339414D01*
X117579414Y-72216928D01*
X117681232Y-72076788D01*
X117759873Y-71922445D01*
X117813402Y-71757701D01*
X117840500Y-71586611D01*
X117840500Y-71413389D01*
X118179500Y-71413389D01*
X118179500Y-71586611D01*
X118206598Y-71757701D01*
X118260127Y-71922445D01*
X118338768Y-72076788D01*
X118440586Y-72216928D01*
X118563072Y-72339414D01*
X118703212Y-72441232D01*
X118857555Y-72519873D01*
X119022299Y-72573402D01*
X119193389Y-72600500D01*
X119193390Y-72600500D01*
X119366610Y-72600500D01*
X119366611Y-72600500D01*
X119537701Y-72573402D01*
X119702445Y-72519873D01*
X119856788Y-72441232D01*
X119996928Y-72339414D01*
X120119414Y-72216928D01*
X120221232Y-72076788D01*
X120299873Y-71922445D01*
X120353402Y-71757701D01*
X120380500Y-71586611D01*
X120380500Y-71413389D01*
X120353402Y-71242299D01*
X120299873Y-71077555D01*
X120221232Y-70923212D01*
X120119414Y-70783072D01*
X119996928Y-70660586D01*
X119856788Y-70558768D01*
X119844015Y-70552260D01*
X119702450Y-70480129D01*
X119702447Y-70480128D01*
X119702445Y-70480127D01*
X119537701Y-70426598D01*
X119537699Y-70426597D01*
X119537698Y-70426597D01*
X119406271Y-70405781D01*
X119366611Y-70399500D01*
X119193389Y-70399500D01*
X119153728Y-70405781D01*
X119022302Y-70426597D01*
X118857552Y-70480128D01*
X118703211Y-70558768D01*
X118623256Y-70616859D01*
X118563072Y-70660586D01*
X118563070Y-70660588D01*
X118563069Y-70660588D01*
X118440588Y-70783069D01*
X118440588Y-70783070D01*
X118440586Y-70783072D01*
X118396859Y-70843256D01*
X118338768Y-70923211D01*
X118260128Y-71077552D01*
X118206597Y-71242302D01*
X118179500Y-71413389D01*
X117840500Y-71413389D01*
X117813402Y-71242299D01*
X117759873Y-71077555D01*
X117681232Y-70923212D01*
X117579414Y-70783072D01*
X117456928Y-70660586D01*
X117316788Y-70558768D01*
X117162445Y-70480127D01*
X116997701Y-70426598D01*
X116997699Y-70426597D01*
X116997698Y-70426597D01*
X116866271Y-70405781D01*
X116826611Y-70399500D01*
X116653389Y-70399500D01*
X116613728Y-70405781D01*
X116482302Y-70426597D01*
X116317552Y-70480128D01*
X116163211Y-70558768D01*
X116083256Y-70616859D01*
X116023072Y-70660586D01*
X116023070Y-70660588D01*
X116023069Y-70660588D01*
X115900588Y-70783069D01*
X115900588Y-70783070D01*
X115900586Y-70783072D01*
X115856859Y-70843256D01*
X115798768Y-70923211D01*
X115720128Y-71077552D01*
X115666597Y-71242302D01*
X115639500Y-71413389D01*
X115300500Y-71413389D01*
X115300500Y-70625326D01*
X115300500Y-70625323D01*
X115300499Y-70625321D01*
X115285967Y-70552264D01*
X115285966Y-70552260D01*
X115237770Y-70480129D01*
X115230601Y-70469399D01*
X115147740Y-70414034D01*
X115147739Y-70414033D01*
X115147735Y-70414032D01*
X115074677Y-70399500D01*
X115074674Y-70399500D01*
X113325326Y-70399500D01*
X113325323Y-70399500D01*
X113252264Y-70414032D01*
X113252260Y-70414033D01*
X113169399Y-70469399D01*
X113114033Y-70552260D01*
X113114032Y-70552264D01*
X113099500Y-70625321D01*
X93150500Y-70625321D01*
X93150500Y-70365191D01*
X93150499Y-70365186D01*
X142349500Y-70365186D01*
X142349500Y-70634813D01*
X142379686Y-70902719D01*
X142379687Y-70902728D01*
X142379688Y-70902732D01*
X142394687Y-70968446D01*
X142439684Y-71165594D01*
X142439687Y-71165602D01*
X142528734Y-71420082D01*
X142645714Y-71662994D01*
X142645716Y-71662997D01*
X142789162Y-71891289D01*
X142957266Y-72102085D01*
X143147915Y-72292734D01*
X143358711Y-72460838D01*
X143587003Y-72604284D01*
X143829921Y-72721267D01*
X144021049Y-72788145D01*
X144084397Y-72810312D01*
X144084405Y-72810315D01*
X144084408Y-72810315D01*
X144084409Y-72810316D01*
X144347268Y-72870312D01*
X144615187Y-72900499D01*
X144615188Y-72900500D01*
X144615191Y-72900500D01*
X144884812Y-72900500D01*
X144884812Y-72900499D01*
X145152732Y-72870312D01*
X145415591Y-72810316D01*
X145670079Y-72721267D01*
X145912997Y-72604284D01*
X146141289Y-72460838D01*
X146352085Y-72292734D01*
X146542734Y-72102085D01*
X146710838Y-71891289D01*
X146854284Y-71662997D01*
X146971267Y-71420079D01*
X147060316Y-71165591D01*
X147120312Y-70902732D01*
X147150500Y-70634809D01*
X147150500Y-70365191D01*
X147120312Y-70097268D01*
X147060316Y-69834409D01*
X146971267Y-69579921D01*
X146854284Y-69337003D01*
X146710838Y-69108711D01*
X146542734Y-68897915D01*
X146352085Y-68707266D01*
X146348857Y-68704692D01*
X146266604Y-68639097D01*
X146141289Y-68539162D01*
X145912997Y-68395716D01*
X145912994Y-68395714D01*
X145670082Y-68278734D01*
X145415602Y-68189687D01*
X145415594Y-68189684D01*
X145218446Y-68144687D01*
X145152732Y-68129688D01*
X145152728Y-68129687D01*
X145152719Y-68129686D01*
X144884813Y-68099500D01*
X144884809Y-68099500D01*
X144615191Y-68099500D01*
X144615186Y-68099500D01*
X144347280Y-68129686D01*
X144347268Y-68129688D01*
X144084405Y-68189684D01*
X144084397Y-68189687D01*
X143829917Y-68278734D01*
X143587005Y-68395714D01*
X143358712Y-68539161D01*
X143147915Y-68707265D01*
X142957265Y-68897915D01*
X142789161Y-69108712D01*
X142645714Y-69337005D01*
X142528734Y-69579917D01*
X142439687Y-69834397D01*
X142439684Y-69834405D01*
X142379688Y-70097268D01*
X142379686Y-70097280D01*
X142349500Y-70365186D01*
X93150499Y-70365186D01*
X93120312Y-70097268D01*
X93060316Y-69834409D01*
X92971267Y-69579921D01*
X92854284Y-69337003D01*
X92710838Y-69108711D01*
X92542734Y-68897915D01*
X92352085Y-68707266D01*
X92348857Y-68704692D01*
X92266604Y-68639097D01*
X92141289Y-68539162D01*
X91912997Y-68395716D01*
X91912994Y-68395714D01*
X91670082Y-68278734D01*
X91415602Y-68189687D01*
X91415594Y-68189684D01*
X91218446Y-68144687D01*
X91152732Y-68129688D01*
X91152728Y-68129687D01*
X91152719Y-68129686D01*
X90884813Y-68099500D01*
X90884809Y-68099500D01*
X90615191Y-68099500D01*
X90615186Y-68099500D01*
X90347280Y-68129686D01*
X90347268Y-68129688D01*
X90084405Y-68189684D01*
X90084397Y-68189687D01*
X89829917Y-68278734D01*
X89587005Y-68395714D01*
X89358712Y-68539161D01*
X89147915Y-68707265D01*
X88957265Y-68897915D01*
X88789161Y-69108712D01*
X88645714Y-69337005D01*
X88528734Y-69579917D01*
X88439687Y-69834397D01*
X88439684Y-69834405D01*
X88379688Y-70097268D01*
X88379686Y-70097280D01*
X88349500Y-70365186D01*
X80900018Y-70365186D01*
X81059415Y-70163095D01*
X81076741Y-70145176D01*
X81348517Y-69915583D01*
X81355709Y-69909950D01*
X81677459Y-69676518D01*
X81685037Y-69671435D01*
X82023147Y-69462357D01*
X82031086Y-69457843D01*
X82383711Y-69274265D01*
X82391933Y-69270364D01*
X82757126Y-69113298D01*
X82765637Y-69110004D01*
X83137794Y-68981552D01*
X83141776Y-68980253D01*
X83143946Y-68979585D01*
X83193186Y-68966392D01*
X83200429Y-68962209D01*
X83208646Y-68959682D01*
X83208752Y-68959633D01*
X83208764Y-68959630D01*
X83257541Y-68929236D01*
X83307314Y-68900500D01*
X83313354Y-68894458D01*
X83320609Y-68889938D01*
X83320608Y-68889938D01*
X83320611Y-68889937D01*
X83359867Y-68847946D01*
X83400500Y-68807314D01*
X83404772Y-68799914D01*
X83410610Y-68793670D01*
X83437657Y-68742955D01*
X83466392Y-68693186D01*
X83468604Y-68684930D01*
X83472626Y-68677389D01*
X83485164Y-68623387D01*
X83486161Y-68619404D01*
X83497496Y-68577101D01*
X83500500Y-68565892D01*
X83500500Y-68557344D01*
X83502433Y-68549020D01*
X83500500Y-68491575D01*
X83500500Y-66127525D01*
X122049500Y-66127525D01*
X122049500Y-66272475D01*
X122087016Y-66412485D01*
X122087017Y-66412488D01*
X122159488Y-66538011D01*
X122159493Y-66538017D01*
X122263181Y-66641705D01*
X122296666Y-66703028D01*
X122299500Y-66729386D01*
X122299500Y-68170614D01*
X122279815Y-68237653D01*
X122263181Y-68258295D01*
X122259493Y-68261982D01*
X122259488Y-68261988D01*
X122187017Y-68387511D01*
X122182583Y-68404055D01*
X122149500Y-68527525D01*
X122149500Y-68672475D01*
X122187016Y-68812485D01*
X122187017Y-68812488D01*
X122259488Y-68938011D01*
X122259490Y-68938013D01*
X122259491Y-68938015D01*
X122361985Y-69040509D01*
X122361986Y-69040510D01*
X122361988Y-69040511D01*
X122487511Y-69112982D01*
X122487512Y-69112982D01*
X122487515Y-69112984D01*
X122627525Y-69150500D01*
X122627528Y-69150500D01*
X122772472Y-69150500D01*
X122772475Y-69150500D01*
X122912485Y-69112984D01*
X123038015Y-69040509D01*
X123140509Y-68938015D01*
X123212984Y-68812485D01*
X123250500Y-68672475D01*
X123250500Y-68527525D01*
X123212984Y-68387515D01*
X123150178Y-68278733D01*
X123140511Y-68261988D01*
X123140506Y-68261982D01*
X123136819Y-68258295D01*
X123103334Y-68196972D01*
X123100500Y-68170614D01*
X123100500Y-66467288D01*
X123104201Y-66437219D01*
X123108398Y-66420427D01*
X123112984Y-66412485D01*
X123150500Y-66272475D01*
X123150500Y-66251990D01*
X123154201Y-66237184D01*
X123164468Y-66219681D01*
X123170185Y-66200214D01*
X123186810Y-66179581D01*
X123335706Y-66030684D01*
X123335711Y-66030681D01*
X123345911Y-66020480D01*
X123345913Y-66020480D01*
X123420480Y-65945913D01*
X123468936Y-65861985D01*
X123473207Y-65854588D01*
X123500500Y-65752727D01*
X123500500Y-65647273D01*
X123500500Y-65028386D01*
X123520185Y-64961347D01*
X123536819Y-64940705D01*
X123540509Y-64937015D01*
X123612984Y-64811485D01*
X123650500Y-64671475D01*
X123650500Y-64526525D01*
X123612984Y-64386515D01*
X123540509Y-64260985D01*
X123438015Y-64158491D01*
X123438013Y-64158490D01*
X123438011Y-64158488D01*
X123312488Y-64086017D01*
X123312489Y-64086017D01*
X123301006Y-64082940D01*
X123172475Y-64048500D01*
X123027525Y-64048500D01*
X122898993Y-64082940D01*
X122887511Y-64086017D01*
X122761988Y-64158488D01*
X122761982Y-64158493D01*
X122659493Y-64260982D01*
X122659488Y-64260988D01*
X122587017Y-64386511D01*
X122587016Y-64386515D01*
X122549500Y-64526525D01*
X122549500Y-64671475D01*
X122587016Y-64811485D01*
X122587017Y-64811488D01*
X122659488Y-64937011D01*
X122659493Y-64937017D01*
X122663181Y-64940705D01*
X122696666Y-65002028D01*
X122699500Y-65028386D01*
X122699500Y-65482744D01*
X122690856Y-65512181D01*
X122684333Y-65542170D01*
X122680577Y-65547186D01*
X122679815Y-65549783D01*
X122663182Y-65570424D01*
X122620427Y-65613180D01*
X122559105Y-65646666D01*
X122532745Y-65649500D01*
X122527525Y-65649500D01*
X122398993Y-65683940D01*
X122387511Y-65687017D01*
X122261988Y-65759488D01*
X122261982Y-65759493D01*
X122159493Y-65861982D01*
X122159488Y-65861988D01*
X122087017Y-65987511D01*
X122087016Y-65987515D01*
X122049500Y-66127525D01*
X83500500Y-66127525D01*
X83500500Y-57002561D01*
X83500606Y-56997437D01*
X83503493Y-56927636D01*
X83519072Y-56550961D01*
X83519915Y-56540792D01*
X83541804Y-56365186D01*
X88349500Y-56365186D01*
X88349500Y-56634813D01*
X88379686Y-56902719D01*
X88379687Y-56902728D01*
X88379688Y-56902732D01*
X88390942Y-56952040D01*
X88439684Y-57165594D01*
X88439687Y-57165602D01*
X88528734Y-57420082D01*
X88645714Y-57662994D01*
X88690087Y-57733613D01*
X88789162Y-57891289D01*
X88957266Y-58102085D01*
X89147915Y-58292734D01*
X89358711Y-58460838D01*
X89587003Y-58604284D01*
X89829921Y-58721267D01*
X90021049Y-58788145D01*
X90084397Y-58810312D01*
X90084405Y-58810315D01*
X90084408Y-58810315D01*
X90084409Y-58810316D01*
X90347268Y-58870312D01*
X90615187Y-58900499D01*
X90615188Y-58900500D01*
X90615191Y-58900500D01*
X90884812Y-58900500D01*
X90884812Y-58900499D01*
X91152732Y-58870312D01*
X91415591Y-58810316D01*
X91670079Y-58721267D01*
X91912997Y-58604284D01*
X92141289Y-58460838D01*
X92352085Y-58292734D01*
X92542734Y-58102085D01*
X92710838Y-57891289D01*
X92853010Y-57665025D01*
X98887000Y-57665025D01*
X98887000Y-57809975D01*
X98924516Y-57949985D01*
X98924517Y-57949988D01*
X98996988Y-58075511D01*
X98996990Y-58075513D01*
X98996991Y-58075515D01*
X99099485Y-58178009D01*
X99099486Y-58178010D01*
X99099488Y-58178011D01*
X99225011Y-58250482D01*
X99225012Y-58250482D01*
X99225015Y-58250484D01*
X99365025Y-58288000D01*
X99365028Y-58288000D01*
X99509972Y-58288000D01*
X99509975Y-58288000D01*
X99649985Y-58250484D01*
X99775515Y-58178009D01*
X99779205Y-58174319D01*
X99840528Y-58140834D01*
X99866886Y-58138000D01*
X101068120Y-58138000D01*
X101068122Y-58138000D01*
X101169983Y-58110707D01*
X101261308Y-58057980D01*
X101951142Y-57368145D01*
X131308880Y-57368145D01*
X131308880Y-57513095D01*
X131332996Y-57603096D01*
X131346397Y-57653108D01*
X131418868Y-57778631D01*
X131418870Y-57778633D01*
X131418871Y-57778635D01*
X131521365Y-57881129D01*
X131521366Y-57881130D01*
X131521368Y-57881131D01*
X131646891Y-57953602D01*
X131646892Y-57953602D01*
X131646895Y-57953604D01*
X131786905Y-57991120D01*
X131786908Y-57991120D01*
X131931852Y-57991120D01*
X131931855Y-57991120D01*
X132071865Y-57953604D01*
X132197395Y-57881129D01*
X132201085Y-57877439D01*
X132262408Y-57843954D01*
X132288766Y-57841120D01*
X135012105Y-57841120D01*
X135012107Y-57841120D01*
X135113968Y-57813827D01*
X135205293Y-57761100D01*
X136379574Y-56586819D01*
X136440897Y-56553334D01*
X136467255Y-56550500D01*
X136472472Y-56550500D01*
X136472475Y-56550500D01*
X136612485Y-56512984D01*
X136738015Y-56440509D01*
X136813338Y-56365186D01*
X142349500Y-56365186D01*
X142349500Y-56634813D01*
X142379686Y-56902719D01*
X142379687Y-56902728D01*
X142379688Y-56902732D01*
X142390942Y-56952040D01*
X142439684Y-57165594D01*
X142439687Y-57165602D01*
X142528734Y-57420082D01*
X142645714Y-57662994D01*
X142690087Y-57733613D01*
X142789162Y-57891289D01*
X142957266Y-58102085D01*
X143147915Y-58292734D01*
X143358711Y-58460838D01*
X143587003Y-58604284D01*
X143829921Y-58721267D01*
X144021049Y-58788145D01*
X144084397Y-58810312D01*
X144084405Y-58810315D01*
X144084408Y-58810315D01*
X144084409Y-58810316D01*
X144347268Y-58870312D01*
X144615187Y-58900499D01*
X144615188Y-58900500D01*
X144615191Y-58900500D01*
X144884812Y-58900500D01*
X144884812Y-58900499D01*
X145152732Y-58870312D01*
X145415591Y-58810316D01*
X145670079Y-58721267D01*
X145912997Y-58604284D01*
X146141289Y-58460838D01*
X146352085Y-58292734D01*
X146542734Y-58102085D01*
X146710838Y-57891289D01*
X146854284Y-57662997D01*
X146971267Y-57420079D01*
X147060316Y-57165591D01*
X147120312Y-56902732D01*
X147150500Y-56634809D01*
X147150500Y-56365191D01*
X147120312Y-56097268D01*
X147060316Y-55834409D01*
X146971267Y-55579921D01*
X146854284Y-55337003D01*
X146710838Y-55108711D01*
X146542734Y-54897915D01*
X146352085Y-54707266D01*
X146141289Y-54539162D01*
X145912997Y-54395716D01*
X145912994Y-54395714D01*
X145670082Y-54278734D01*
X145415602Y-54189687D01*
X145415594Y-54189684D01*
X145218446Y-54144687D01*
X145152732Y-54129688D01*
X145152728Y-54129687D01*
X145152719Y-54129686D01*
X144884813Y-54099500D01*
X144884809Y-54099500D01*
X144615191Y-54099500D01*
X144615186Y-54099500D01*
X144347280Y-54129686D01*
X144347268Y-54129688D01*
X144084405Y-54189684D01*
X144084397Y-54189687D01*
X143829917Y-54278734D01*
X143587005Y-54395714D01*
X143358712Y-54539161D01*
X143147915Y-54707265D01*
X142957265Y-54897915D01*
X142789161Y-55108712D01*
X142645714Y-55337005D01*
X142528734Y-55579917D01*
X142439687Y-55834397D01*
X142439684Y-55834405D01*
X142379688Y-56097268D01*
X142379686Y-56097280D01*
X142349500Y-56365186D01*
X136813338Y-56365186D01*
X136840509Y-56338015D01*
X136912984Y-56212485D01*
X136950500Y-56072475D01*
X136950500Y-55927525D01*
X136912984Y-55787515D01*
X136840509Y-55661985D01*
X136738015Y-55559491D01*
X136738013Y-55559490D01*
X136738011Y-55559488D01*
X136612488Y-55487017D01*
X136612489Y-55487017D01*
X136601006Y-55483940D01*
X136472475Y-55449500D01*
X136327525Y-55449500D01*
X136198993Y-55483940D01*
X136187511Y-55487017D01*
X136061988Y-55559488D01*
X136061982Y-55559493D01*
X135959493Y-55661982D01*
X135959488Y-55661988D01*
X135887017Y-55787511D01*
X135887016Y-55787515D01*
X135849500Y-55927525D01*
X135849500Y-55927527D01*
X135849500Y-55932745D01*
X135829815Y-55999784D01*
X135813181Y-56020426D01*
X134829806Y-57003801D01*
X134768483Y-57037286D01*
X134742125Y-57040120D01*
X132288766Y-57040120D01*
X132221727Y-57020435D01*
X132201085Y-57003801D01*
X132197397Y-57000113D01*
X132197391Y-57000108D01*
X132071868Y-56927637D01*
X132071869Y-56927637D01*
X132060386Y-56924560D01*
X131931855Y-56890120D01*
X131786905Y-56890120D01*
X131658373Y-56924560D01*
X131646891Y-56927637D01*
X131521368Y-57000108D01*
X131521362Y-57000113D01*
X131418873Y-57102602D01*
X131418868Y-57102608D01*
X131346397Y-57228131D01*
X131346396Y-57228135D01*
X131308880Y-57368145D01*
X101951142Y-57368145D01*
X102367247Y-56952039D01*
X102428570Y-56918555D01*
X102454928Y-56915721D01*
X102460146Y-56915721D01*
X102460149Y-56915721D01*
X102600159Y-56878205D01*
X102725689Y-56805730D01*
X102828183Y-56703236D01*
X102900658Y-56577706D01*
X102938174Y-56437696D01*
X102938174Y-56292746D01*
X102900658Y-56152736D01*
X102868640Y-56097280D01*
X102828185Y-56027209D01*
X102828180Y-56027203D01*
X102725691Y-55924714D01*
X102725685Y-55924709D01*
X102600162Y-55852238D01*
X102600163Y-55852238D01*
X102588680Y-55849161D01*
X102460149Y-55814721D01*
X102315199Y-55814721D01*
X102186667Y-55849161D01*
X102175185Y-55852238D01*
X102049662Y-55924709D01*
X102049656Y-55924714D01*
X101947167Y-56027203D01*
X101947162Y-56027209D01*
X101874691Y-56152732D01*
X101874690Y-56152736D01*
X101837174Y-56292746D01*
X101837174Y-56292748D01*
X101837174Y-56297966D01*
X101817489Y-56365005D01*
X101800855Y-56385647D01*
X100885821Y-57300681D01*
X100824498Y-57334166D01*
X100798140Y-57337000D01*
X99866886Y-57337000D01*
X99799847Y-57317315D01*
X99779205Y-57300681D01*
X99775517Y-57296993D01*
X99775511Y-57296988D01*
X99649988Y-57224517D01*
X99649989Y-57224517D01*
X99638506Y-57221440D01*
X99509975Y-57187000D01*
X99365025Y-57187000D01*
X99236493Y-57221440D01*
X99225011Y-57224517D01*
X99099488Y-57296988D01*
X99099482Y-57296993D01*
X98996993Y-57399482D01*
X98996988Y-57399488D01*
X98924517Y-57525011D01*
X98924516Y-57525015D01*
X98887000Y-57665025D01*
X92853010Y-57665025D01*
X92854284Y-57662997D01*
X92971267Y-57420079D01*
X93060316Y-57165591D01*
X93120312Y-56902732D01*
X93150500Y-56634809D01*
X93150500Y-56365191D01*
X93120312Y-56097268D01*
X93060316Y-55834409D01*
X92971267Y-55579921D01*
X92854284Y-55337003D01*
X92710838Y-55108711D01*
X92542734Y-54897915D01*
X92352085Y-54707266D01*
X92141289Y-54539162D01*
X91912997Y-54395716D01*
X91912994Y-54395714D01*
X91670082Y-54278734D01*
X91415602Y-54189687D01*
X91415594Y-54189684D01*
X91218446Y-54144687D01*
X91152732Y-54129688D01*
X91152728Y-54129687D01*
X91152719Y-54129686D01*
X90884813Y-54099500D01*
X90884809Y-54099500D01*
X90615191Y-54099500D01*
X90615186Y-54099500D01*
X90347280Y-54129686D01*
X90347268Y-54129688D01*
X90084405Y-54189684D01*
X90084397Y-54189687D01*
X89829917Y-54278734D01*
X89587005Y-54395714D01*
X89358712Y-54539161D01*
X89147915Y-54707265D01*
X88957265Y-54897915D01*
X88789161Y-55108712D01*
X88645714Y-55337005D01*
X88528734Y-55579917D01*
X88439687Y-55834397D01*
X88439684Y-55834405D01*
X88379688Y-56097268D01*
X88379686Y-56097280D01*
X88349500Y-56365186D01*
X83541804Y-56365186D01*
X83574874Y-56099881D01*
X83576554Y-56089809D01*
X83667734Y-55654951D01*
X83670241Y-55645055D01*
X83797022Y-55219205D01*
X83800336Y-55209553D01*
X83961840Y-54795654D01*
X83965954Y-54786275D01*
X84004579Y-54707266D01*
X84161088Y-54387120D01*
X84165949Y-54378136D01*
X84393389Y-53996445D01*
X84398982Y-53987885D01*
X84657153Y-53626294D01*
X84663422Y-53618240D01*
X84950581Y-53279191D01*
X84957500Y-53271675D01*
X85271675Y-52957500D01*
X85279191Y-52950581D01*
X85618240Y-52663422D01*
X85626294Y-52657153D01*
X85987885Y-52398982D01*
X85996445Y-52393389D01*
X86378136Y-52165949D01*
X86387120Y-52161088D01*
X86786280Y-51965951D01*
X86795654Y-51961840D01*
X87209553Y-51800336D01*
X87219205Y-51797022D01*
X87645055Y-51670241D01*
X87654951Y-51667734D01*
X88089809Y-51576554D01*
X88099881Y-51574874D01*
X88540792Y-51519915D01*
X88550961Y-51519072D01*
X88997437Y-51500605D01*
X89002561Y-51500500D01*
X89065892Y-51500500D01*
X117934108Y-51500500D01*
X146934108Y-51500500D01*
X146997439Y-51500500D01*
X147002562Y-51500605D01*
G37*
%TD.AperFunction*%
%TD*%
M02*
