%TF.GenerationSoftware,KiCad,Pcbnew,9.0.1*%
%TF.CreationDate,2025-05-06T09:48:23+02:00*%
%TF.ProjectId,lijnsensor V2,6c696a6e-7365-46e7-936f-722056322e6b,rev?*%
%TF.SameCoordinates,Original*%
%TF.FileFunction,Soldermask,Top*%
%TF.FilePolarity,Negative*%
%FSLAX46Y46*%
G04 Gerber Fmt 4.6, Leading zero omitted, Abs format (unit mm)*
G04 Created by KiCad (PCBNEW 9.0.1) date 2025-05-06 09:48:23*
%MOMM*%
%LPD*%
G01*
G04 APERTURE LIST*
G04 Aperture macros list*
%AMRoundRect*
0 Rectangle with rounded corners*
0 $1 Rounding radius*
0 $2 $3 $4 $5 $6 $7 $8 $9 X,Y pos of 4 corners*
0 Add a 4 corners polygon primitive as box body*
4,1,4,$2,$3,$4,$5,$6,$7,$8,$9,$2,$3,0*
0 Add four circle primitives for the rounded corners*
1,1,$1+$1,$2,$3*
1,1,$1+$1,$4,$5*
1,1,$1+$1,$6,$7*
1,1,$1+$1,$8,$9*
0 Add four rect primitives between the rounded corners*
20,1,$1+$1,$2,$3,$4,$5,0*
20,1,$1+$1,$4,$5,$6,$7,0*
20,1,$1+$1,$6,$7,$8,$9,0*
20,1,$1+$1,$8,$9,$2,$3,0*%
%AMOutline5P*
0 Free polygon, 5 corners , with rotation*
0 The origin of the aperture is its center*
0 number of corners: always 5*
0 $1 to $10 corner X, Y*
0 $11 Rotation angle, in degrees counterclockwise*
0 create outline with 5 corners*
4,1,5,$1,$2,$3,$4,$5,$6,$7,$8,$9,$10,$1,$2,$11*%
%AMOutline6P*
0 Free polygon, 6 corners , with rotation*
0 The origin of the aperture is its center*
0 number of corners: always 6*
0 $1 to $12 corner X, Y*
0 $13 Rotation angle, in degrees counterclockwise*
0 create outline with 6 corners*
4,1,6,$1,$2,$3,$4,$5,$6,$7,$8,$9,$10,$11,$12,$1,$2,$13*%
%AMOutline7P*
0 Free polygon, 7 corners , with rotation*
0 The origin of the aperture is its center*
0 number of corners: always 7*
0 $1 to $14 corner X, Y*
0 $15 Rotation angle, in degrees counterclockwise*
0 create outline with 7 corners*
4,1,7,$1,$2,$3,$4,$5,$6,$7,$8,$9,$10,$11,$12,$13,$14,$1,$2,$15*%
%AMOutline8P*
0 Free polygon, 8 corners , with rotation*
0 The origin of the aperture is its center*
0 number of corners: always 8*
0 $1 to $16 corner X, Y*
0 $17 Rotation angle, in degrees counterclockwise*
0 create outline with 8 corners*
4,1,8,$1,$2,$3,$4,$5,$6,$7,$8,$9,$10,$11,$12,$13,$14,$15,$16,$1,$2,$17*%
G04 Aperture macros list end*
%ADD10RoundRect,0.200000X-0.275000X0.200000X-0.275000X-0.200000X0.275000X-0.200000X0.275000X0.200000X0*%
%ADD11C,4.300000*%
%ADD12Outline5P,-0.287500X0.244000X0.287500X0.244000X0.287500X-0.067100X0.110600X-0.244000X-0.287500X-0.244000X0.000000*%
%ADD13R,0.575000X0.488000*%
%ADD14C,8.400000*%
%ADD15RoundRect,0.225000X-0.250000X0.225000X-0.250000X-0.225000X0.250000X-0.225000X0.250000X0.225000X0*%
%ADD16R,1.700000X1.700000*%
%ADD17O,1.700000X1.700000*%
%ADD18RoundRect,0.150000X-0.512500X-0.150000X0.512500X-0.150000X0.512500X0.150000X-0.512500X0.150000X0*%
%ADD19RoundRect,0.200000X-0.200000X-0.275000X0.200000X-0.275000X0.200000X0.275000X-0.200000X0.275000X0*%
%ADD20RoundRect,0.150000X0.150000X-0.512500X0.150000X0.512500X-0.150000X0.512500X-0.150000X-0.512500X0*%
%ADD21RoundRect,0.200000X0.275000X-0.200000X0.275000X0.200000X-0.275000X0.200000X-0.275000X-0.200000X0*%
%ADD22RoundRect,0.100000X0.637500X0.100000X-0.637500X0.100000X-0.637500X-0.100000X0.637500X-0.100000X0*%
G04 APERTURE END LIST*
D10*
%TO.C,R16*%
X53900000Y-106775000D03*
X53900000Y-108425000D03*
%TD*%
D11*
%TO.C,H1*%
X144750000Y-70500000D03*
%TD*%
D10*
%TO.C,R14*%
X72025000Y-82490000D03*
X72025000Y-84140000D03*
%TD*%
D12*
%TO.C,U5*%
X162362000Y-81800000D03*
D13*
X162362000Y-82600000D03*
X162362000Y-83400000D03*
X162362000Y-84200000D03*
X163638000Y-84200000D03*
X163638000Y-83400000D03*
X163638000Y-82600000D03*
X163638000Y-81800000D03*
%TD*%
D12*
%TO.C,U4*%
X135362000Y-56800000D03*
D13*
X135362000Y-57600000D03*
X135362000Y-58400000D03*
X135362000Y-59200000D03*
X136638000Y-59200000D03*
X136638000Y-58400000D03*
X136638000Y-57600000D03*
X136638000Y-56800000D03*
%TD*%
D14*
%TO.C,H6*%
X181000000Y-150000000D03*
%TD*%
D12*
%TO.C,U9*%
X73362000Y-81800000D03*
D13*
X73362000Y-82600000D03*
X73362000Y-83400000D03*
X73362000Y-84200000D03*
X74638000Y-84200000D03*
X74638000Y-83400000D03*
X74638000Y-82600000D03*
X74638000Y-81800000D03*
%TD*%
D12*
%TO.C,U6*%
X180362000Y-106800000D03*
D13*
X180362000Y-107600000D03*
X180362000Y-108400000D03*
X180362000Y-109200000D03*
X181638000Y-109200000D03*
X181638000Y-108400000D03*
X181638000Y-107600000D03*
X181638000Y-106800000D03*
%TD*%
D12*
%TO.C,U7*%
X180362000Y-138800000D03*
D13*
X180362000Y-139600000D03*
X180362000Y-140400000D03*
X180362000Y-141200000D03*
X181638000Y-141200000D03*
X181638000Y-140400000D03*
X181638000Y-139600000D03*
X181638000Y-138800000D03*
%TD*%
D11*
%TO.C,H2*%
X144750000Y-56500000D03*
%TD*%
D10*
%TO.C,R8*%
X178800000Y-106675000D03*
X178800000Y-108325000D03*
%TD*%
D15*
%TO.C,C2*%
X126900000Y-66625000D03*
X126900000Y-68175000D03*
%TD*%
D16*
%TO.C,J1*%
X114200000Y-71500000D03*
D17*
X116740000Y-71500000D03*
X119280000Y-71500000D03*
X121820000Y-71500000D03*
%TD*%
D12*
%TO.C,U10*%
X55362000Y-106800000D03*
D13*
X55362000Y-107600000D03*
X55362000Y-108400000D03*
X55362000Y-109200000D03*
X56638000Y-109200000D03*
X56638000Y-108400000D03*
X56638000Y-107600000D03*
X56638000Y-106800000D03*
%TD*%
D10*
%TO.C,R2*%
X53800000Y-138775000D03*
X53800000Y-140425000D03*
%TD*%
D18*
%TO.C,U3*%
X122762500Y-66650000D03*
X122762500Y-67600000D03*
X122762500Y-68550000D03*
X125037500Y-68550000D03*
X125037500Y-66650000D03*
%TD*%
D19*
%TO.C,R15*%
X55375000Y-105200000D03*
X57025000Y-105200000D03*
%TD*%
%TO.C,R1*%
X55375000Y-137200000D03*
X57025000Y-137200000D03*
%TD*%
%TO.C,R13*%
X73605000Y-80470000D03*
X75255000Y-80470000D03*
%TD*%
D20*
%TO.C,U1*%
X117050000Y-68337500D03*
X118000000Y-68337500D03*
X118950000Y-68337500D03*
X118950000Y-66062500D03*
X118000000Y-66062500D03*
X117050000Y-66062500D03*
%TD*%
D19*
%TO.C,R9*%
X180362000Y-137150000D03*
X182012000Y-137150000D03*
%TD*%
D21*
%TO.C,R17*%
X123100000Y-63325000D03*
X123100000Y-61675000D03*
%TD*%
D15*
%TO.C,C1*%
X120700000Y-67025000D03*
X120700000Y-68575000D03*
%TD*%
D10*
%TO.C,R4*%
X133738000Y-56750000D03*
X133738000Y-58400000D03*
%TD*%
D11*
%TO.C,H3*%
X90750000Y-56500000D03*
%TD*%
%TO.C,H4*%
X90750000Y-70500000D03*
%TD*%
D12*
%TO.C,U8*%
X100362000Y-56800000D03*
D13*
X100362000Y-57600000D03*
X100362000Y-58400000D03*
X100362000Y-59200000D03*
X101638000Y-59200000D03*
X101638000Y-58400000D03*
X101638000Y-57600000D03*
X101638000Y-56800000D03*
%TD*%
D12*
%TO.C,U11*%
X55362000Y-138800000D03*
D13*
X55362000Y-139600000D03*
X55362000Y-140400000D03*
X55362000Y-141200000D03*
X56638000Y-141200000D03*
X56638000Y-140400000D03*
X56638000Y-139600000D03*
X56638000Y-138800000D03*
%TD*%
D10*
%TO.C,R10*%
X178737000Y-138800000D03*
X178737000Y-140450000D03*
%TD*%
D19*
%TO.C,R7*%
X180275000Y-105200000D03*
X181925000Y-105200000D03*
%TD*%
%TO.C,R11*%
X100325000Y-55200000D03*
X101975000Y-55200000D03*
%TD*%
%TO.C,R5*%
X160575000Y-80150000D03*
X162225000Y-80150000D03*
%TD*%
D10*
%TO.C,R6*%
X160800000Y-81600000D03*
X160800000Y-83250000D03*
%TD*%
D19*
%TO.C,R3*%
X135325000Y-55150000D03*
X136975000Y-55150000D03*
%TD*%
D10*
%TO.C,R12*%
X98800000Y-56725000D03*
X98800000Y-58375000D03*
%TD*%
D22*
%TO.C,U2*%
X120862500Y-62875000D03*
X120862500Y-62225000D03*
X120862500Y-61575000D03*
X120862500Y-60925000D03*
X120862500Y-60275000D03*
X120862500Y-59625000D03*
X120862500Y-58975000D03*
X120862500Y-58325000D03*
X120862500Y-57675000D03*
X120862500Y-57025000D03*
X120862500Y-56375000D03*
X120862500Y-55725000D03*
X115137500Y-55725000D03*
X115137500Y-56375000D03*
X115137500Y-57025000D03*
X115137500Y-57675000D03*
X115137500Y-58325000D03*
X115137500Y-58975000D03*
X115137500Y-59625000D03*
X115137500Y-60275000D03*
X115137500Y-60925000D03*
X115137500Y-61575000D03*
X115137500Y-62225000D03*
X115137500Y-62875000D03*
%TD*%
D14*
%TO.C,H5*%
X56000000Y-150000000D03*
%TD*%
M02*
