%TF.GenerationSoftware,KiCad,Pcbnew,9.0.1*%
%TF.CreationDate,2025-05-06T09:52:02+02:00*%
%TF.ProjectId,ESP32 adon V3,45535033-3220-4616-946f-6e2056332e6b,rev?*%
%TF.SameCoordinates,Original*%
%TF.FileFunction,Legend,Top*%
%TF.FilePolarity,Positive*%
%FSLAX46Y46*%
G04 Gerber Fmt 4.6, Leading zero omitted, Abs format (unit mm)*
G04 Created by KiCad (PCBNEW 9.0.1) date 2025-05-06 09:52:02*
%MOMM*%
%LPD*%
G01*
G04 APERTURE LIST*
%ADD10C,0.100000*%
%ADD11C,0.187500*%
%ADD12C,0.150000*%
%ADD13C,0.120000*%
G04 APERTURE END LIST*
D10*
X54703884Y-91772419D02*
X54703884Y-91105752D01*
X54703884Y-90772419D02*
X54656265Y-90820038D01*
X54656265Y-90820038D02*
X54703884Y-90867657D01*
X54703884Y-90867657D02*
X54751503Y-90820038D01*
X54751503Y-90820038D02*
X54703884Y-90772419D01*
X54703884Y-90772419D02*
X54703884Y-90867657D01*
X55180074Y-91105752D02*
X55180074Y-91772419D01*
X55180074Y-91200990D02*
X55227693Y-91153371D01*
X55227693Y-91153371D02*
X55322931Y-91105752D01*
X55322931Y-91105752D02*
X55465788Y-91105752D01*
X55465788Y-91105752D02*
X55561026Y-91153371D01*
X55561026Y-91153371D02*
X55608645Y-91248609D01*
X55608645Y-91248609D02*
X55608645Y-91772419D01*
X55941979Y-91105752D02*
X56322931Y-91105752D01*
X56084836Y-90772419D02*
X56084836Y-91629561D01*
X56084836Y-91629561D02*
X56132455Y-91724800D01*
X56132455Y-91724800D02*
X56227693Y-91772419D01*
X56227693Y-91772419D02*
X56322931Y-91772419D01*
X57213884Y-81122475D02*
X57213884Y-80455808D01*
X57213884Y-80122475D02*
X57166265Y-80170094D01*
X57166265Y-80170094D02*
X57213884Y-80217713D01*
X57213884Y-80217713D02*
X57261503Y-80170094D01*
X57261503Y-80170094D02*
X57213884Y-80122475D01*
X57213884Y-80122475D02*
X57213884Y-80217713D01*
X57690074Y-80455808D02*
X57690074Y-81122475D01*
X57690074Y-80551046D02*
X57737693Y-80503427D01*
X57737693Y-80503427D02*
X57832931Y-80455808D01*
X57832931Y-80455808D02*
X57975788Y-80455808D01*
X57975788Y-80455808D02*
X58071026Y-80503427D01*
X58071026Y-80503427D02*
X58118645Y-80598665D01*
X58118645Y-80598665D02*
X58118645Y-81122475D01*
X58451979Y-80455808D02*
X58832931Y-80455808D01*
X58594836Y-80122475D02*
X58594836Y-80979617D01*
X58594836Y-80979617D02*
X58642455Y-81074856D01*
X58642455Y-81074856D02*
X58737693Y-81122475D01*
X58737693Y-81122475D02*
X58832931Y-81122475D01*
X59690074Y-81122475D02*
X59118646Y-81122475D01*
X59404360Y-81122475D02*
X59404360Y-80122475D01*
X59404360Y-80122475D02*
X59309122Y-80265332D01*
X59309122Y-80265332D02*
X59213884Y-80360570D01*
X59213884Y-80360570D02*
X59118646Y-80408189D01*
X57213884Y-82732419D02*
X57213884Y-82065752D01*
X57213884Y-81732419D02*
X57166265Y-81780038D01*
X57166265Y-81780038D02*
X57213884Y-81827657D01*
X57213884Y-81827657D02*
X57261503Y-81780038D01*
X57261503Y-81780038D02*
X57213884Y-81732419D01*
X57213884Y-81732419D02*
X57213884Y-81827657D01*
X57690074Y-82065752D02*
X57690074Y-82732419D01*
X57690074Y-82160990D02*
X57737693Y-82113371D01*
X57737693Y-82113371D02*
X57832931Y-82065752D01*
X57832931Y-82065752D02*
X57975788Y-82065752D01*
X57975788Y-82065752D02*
X58071026Y-82113371D01*
X58071026Y-82113371D02*
X58118645Y-82208609D01*
X58118645Y-82208609D02*
X58118645Y-82732419D01*
X58451979Y-82065752D02*
X58832931Y-82065752D01*
X58594836Y-81732419D02*
X58594836Y-82589561D01*
X58594836Y-82589561D02*
X58642455Y-82684800D01*
X58642455Y-82684800D02*
X58737693Y-82732419D01*
X58737693Y-82732419D02*
X58832931Y-82732419D01*
X59118646Y-81827657D02*
X59166265Y-81780038D01*
X59166265Y-81780038D02*
X59261503Y-81732419D01*
X59261503Y-81732419D02*
X59499598Y-81732419D01*
X59499598Y-81732419D02*
X59594836Y-81780038D01*
X59594836Y-81780038D02*
X59642455Y-81827657D01*
X59642455Y-81827657D02*
X59690074Y-81922895D01*
X59690074Y-81922895D02*
X59690074Y-82018133D01*
X59690074Y-82018133D02*
X59642455Y-82160990D01*
X59642455Y-82160990D02*
X59071027Y-82732419D01*
X59071027Y-82732419D02*
X59690074Y-82732419D01*
X86803884Y-42272419D02*
X86803884Y-41605752D01*
X86803884Y-41272419D02*
X86756265Y-41320038D01*
X86756265Y-41320038D02*
X86803884Y-41367657D01*
X86803884Y-41367657D02*
X86851503Y-41320038D01*
X86851503Y-41320038D02*
X86803884Y-41272419D01*
X86803884Y-41272419D02*
X86803884Y-41367657D01*
X87280074Y-41605752D02*
X87280074Y-42272419D01*
X87280074Y-41700990D02*
X87327693Y-41653371D01*
X87327693Y-41653371D02*
X87422931Y-41605752D01*
X87422931Y-41605752D02*
X87565788Y-41605752D01*
X87565788Y-41605752D02*
X87661026Y-41653371D01*
X87661026Y-41653371D02*
X87708645Y-41748609D01*
X87708645Y-41748609D02*
X87708645Y-42272419D01*
X88041979Y-41605752D02*
X88422931Y-41605752D01*
X88184836Y-41272419D02*
X88184836Y-42129561D01*
X88184836Y-42129561D02*
X88232455Y-42224800D01*
X88232455Y-42224800D02*
X88327693Y-42272419D01*
X88327693Y-42272419D02*
X88422931Y-42272419D01*
D11*
X70744783Y-86571762D02*
X70601926Y-86500334D01*
X70601926Y-86500334D02*
X70530497Y-86428905D01*
X70530497Y-86428905D02*
X70459069Y-86286048D01*
X70459069Y-86286048D02*
X70459069Y-85857476D01*
X70459069Y-85857476D02*
X70530497Y-85714619D01*
X70530497Y-85714619D02*
X70601926Y-85643191D01*
X70601926Y-85643191D02*
X70744783Y-85571762D01*
X70744783Y-85571762D02*
X70959069Y-85571762D01*
X70959069Y-85571762D02*
X71101926Y-85643191D01*
X71101926Y-85643191D02*
X71173355Y-85714619D01*
X71173355Y-85714619D02*
X71244783Y-85857476D01*
X71244783Y-85857476D02*
X71244783Y-86286048D01*
X71244783Y-86286048D02*
X71173355Y-86428905D01*
X71173355Y-86428905D02*
X71101926Y-86500334D01*
X71101926Y-86500334D02*
X70959069Y-86571762D01*
X70959069Y-86571762D02*
X70744783Y-86571762D01*
X71887640Y-85571762D02*
X71887640Y-86571762D01*
X71887640Y-85714619D02*
X71959069Y-85643191D01*
X71959069Y-85643191D02*
X72101926Y-85571762D01*
X72101926Y-85571762D02*
X72316212Y-85571762D01*
X72316212Y-85571762D02*
X72459069Y-85643191D01*
X72459069Y-85643191D02*
X72530498Y-85786048D01*
X72530498Y-85786048D02*
X72530498Y-86571762D01*
X73030498Y-85571762D02*
X73601926Y-85571762D01*
X73244783Y-85071762D02*
X73244783Y-86357476D01*
X73244783Y-86357476D02*
X73316212Y-86500334D01*
X73316212Y-86500334D02*
X73459069Y-86571762D01*
X73459069Y-86571762D02*
X73601926Y-86571762D01*
X73959069Y-85571762D02*
X74244784Y-86571762D01*
X74244784Y-86571762D02*
X74530498Y-85857476D01*
X74530498Y-85857476D02*
X74816212Y-86571762D01*
X74816212Y-86571762D02*
X75101926Y-85571762D01*
X75887641Y-86571762D02*
X75744784Y-86500334D01*
X75744784Y-86500334D02*
X75673355Y-86428905D01*
X75673355Y-86428905D02*
X75601927Y-86286048D01*
X75601927Y-86286048D02*
X75601927Y-85857476D01*
X75601927Y-85857476D02*
X75673355Y-85714619D01*
X75673355Y-85714619D02*
X75744784Y-85643191D01*
X75744784Y-85643191D02*
X75887641Y-85571762D01*
X75887641Y-85571762D02*
X76101927Y-85571762D01*
X76101927Y-85571762D02*
X76244784Y-85643191D01*
X76244784Y-85643191D02*
X76316213Y-85714619D01*
X76316213Y-85714619D02*
X76387641Y-85857476D01*
X76387641Y-85857476D02*
X76387641Y-86286048D01*
X76387641Y-86286048D02*
X76316213Y-86428905D01*
X76316213Y-86428905D02*
X76244784Y-86500334D01*
X76244784Y-86500334D02*
X76101927Y-86571762D01*
X76101927Y-86571762D02*
X75887641Y-86571762D01*
X77030498Y-86571762D02*
X77030498Y-85571762D01*
X77030498Y-85857476D02*
X77101927Y-85714619D01*
X77101927Y-85714619D02*
X77173356Y-85643191D01*
X77173356Y-85643191D02*
X77316213Y-85571762D01*
X77316213Y-85571762D02*
X77459070Y-85571762D01*
X77959069Y-85571762D02*
X77959069Y-87071762D01*
X77959069Y-85643191D02*
X78101927Y-85571762D01*
X78101927Y-85571762D02*
X78387641Y-85571762D01*
X78387641Y-85571762D02*
X78530498Y-85643191D01*
X78530498Y-85643191D02*
X78601927Y-85714619D01*
X78601927Y-85714619D02*
X78673355Y-85857476D01*
X78673355Y-85857476D02*
X78673355Y-86286048D01*
X78673355Y-86286048D02*
X78601927Y-86428905D01*
X78601927Y-86428905D02*
X78530498Y-86500334D01*
X78530498Y-86500334D02*
X78387641Y-86571762D01*
X78387641Y-86571762D02*
X78101927Y-86571762D01*
X78101927Y-86571762D02*
X77959069Y-86500334D01*
X79887641Y-86500334D02*
X79744784Y-86571762D01*
X79744784Y-86571762D02*
X79459070Y-86571762D01*
X79459070Y-86571762D02*
X79316212Y-86500334D01*
X79316212Y-86500334D02*
X79244784Y-86357476D01*
X79244784Y-86357476D02*
X79244784Y-85786048D01*
X79244784Y-85786048D02*
X79316212Y-85643191D01*
X79316212Y-85643191D02*
X79459070Y-85571762D01*
X79459070Y-85571762D02*
X79744784Y-85571762D01*
X79744784Y-85571762D02*
X79887641Y-85643191D01*
X79887641Y-85643191D02*
X79959070Y-85786048D01*
X79959070Y-85786048D02*
X79959070Y-85928905D01*
X79959070Y-85928905D02*
X79244784Y-86071762D01*
X80601926Y-85571762D02*
X80601926Y-86571762D01*
X80601926Y-85714619D02*
X80673355Y-85643191D01*
X80673355Y-85643191D02*
X80816212Y-85571762D01*
X80816212Y-85571762D02*
X81030498Y-85571762D01*
X81030498Y-85571762D02*
X81173355Y-85643191D01*
X81173355Y-85643191D02*
X81244784Y-85786048D01*
X81244784Y-85786048D02*
X81244784Y-86571762D01*
X83744784Y-86571762D02*
X83744784Y-85071762D01*
X83744784Y-86500334D02*
X83601926Y-86571762D01*
X83601926Y-86571762D02*
X83316212Y-86571762D01*
X83316212Y-86571762D02*
X83173355Y-86500334D01*
X83173355Y-86500334D02*
X83101926Y-86428905D01*
X83101926Y-86428905D02*
X83030498Y-86286048D01*
X83030498Y-86286048D02*
X83030498Y-85857476D01*
X83030498Y-85857476D02*
X83101926Y-85714619D01*
X83101926Y-85714619D02*
X83173355Y-85643191D01*
X83173355Y-85643191D02*
X83316212Y-85571762D01*
X83316212Y-85571762D02*
X83601926Y-85571762D01*
X83601926Y-85571762D02*
X83744784Y-85643191D01*
X84673355Y-86571762D02*
X84530498Y-86500334D01*
X84530498Y-86500334D02*
X84459069Y-86428905D01*
X84459069Y-86428905D02*
X84387641Y-86286048D01*
X84387641Y-86286048D02*
X84387641Y-85857476D01*
X84387641Y-85857476D02*
X84459069Y-85714619D01*
X84459069Y-85714619D02*
X84530498Y-85643191D01*
X84530498Y-85643191D02*
X84673355Y-85571762D01*
X84673355Y-85571762D02*
X84887641Y-85571762D01*
X84887641Y-85571762D02*
X85030498Y-85643191D01*
X85030498Y-85643191D02*
X85101927Y-85714619D01*
X85101927Y-85714619D02*
X85173355Y-85857476D01*
X85173355Y-85857476D02*
X85173355Y-86286048D01*
X85173355Y-86286048D02*
X85101927Y-86428905D01*
X85101927Y-86428905D02*
X85030498Y-86500334D01*
X85030498Y-86500334D02*
X84887641Y-86571762D01*
X84887641Y-86571762D02*
X84673355Y-86571762D01*
X86030498Y-86571762D02*
X85887641Y-86500334D01*
X85887641Y-86500334D02*
X85816212Y-86428905D01*
X85816212Y-86428905D02*
X85744784Y-86286048D01*
X85744784Y-86286048D02*
X85744784Y-85857476D01*
X85744784Y-85857476D02*
X85816212Y-85714619D01*
X85816212Y-85714619D02*
X85887641Y-85643191D01*
X85887641Y-85643191D02*
X86030498Y-85571762D01*
X86030498Y-85571762D02*
X86244784Y-85571762D01*
X86244784Y-85571762D02*
X86387641Y-85643191D01*
X86387641Y-85643191D02*
X86459070Y-85714619D01*
X86459070Y-85714619D02*
X86530498Y-85857476D01*
X86530498Y-85857476D02*
X86530498Y-86286048D01*
X86530498Y-86286048D02*
X86459070Y-86428905D01*
X86459070Y-86428905D02*
X86387641Y-86500334D01*
X86387641Y-86500334D02*
X86244784Y-86571762D01*
X86244784Y-86571762D02*
X86030498Y-86571762D01*
X87173355Y-86571762D02*
X87173355Y-85571762D01*
X87173355Y-85857476D02*
X87244784Y-85714619D01*
X87244784Y-85714619D02*
X87316213Y-85643191D01*
X87316213Y-85643191D02*
X87459070Y-85571762D01*
X87459070Y-85571762D02*
X87601927Y-85571762D01*
X70459069Y-88915250D02*
X70673355Y-88986678D01*
X70673355Y-88986678D02*
X71030497Y-88986678D01*
X71030497Y-88986678D02*
X71173355Y-88915250D01*
X71173355Y-88915250D02*
X71244783Y-88843821D01*
X71244783Y-88843821D02*
X71316212Y-88700964D01*
X71316212Y-88700964D02*
X71316212Y-88558107D01*
X71316212Y-88558107D02*
X71244783Y-88415250D01*
X71244783Y-88415250D02*
X71173355Y-88343821D01*
X71173355Y-88343821D02*
X71030497Y-88272392D01*
X71030497Y-88272392D02*
X70744783Y-88200964D01*
X70744783Y-88200964D02*
X70601926Y-88129535D01*
X70601926Y-88129535D02*
X70530497Y-88058107D01*
X70530497Y-88058107D02*
X70459069Y-87915250D01*
X70459069Y-87915250D02*
X70459069Y-87772392D01*
X70459069Y-87772392D02*
X70530497Y-87629535D01*
X70530497Y-87629535D02*
X70601926Y-87558107D01*
X70601926Y-87558107D02*
X70744783Y-87486678D01*
X70744783Y-87486678D02*
X71101926Y-87486678D01*
X71101926Y-87486678D02*
X71316212Y-87558107D01*
X71744783Y-87986678D02*
X72316211Y-87986678D01*
X71959068Y-87486678D02*
X71959068Y-88772392D01*
X71959068Y-88772392D02*
X72030497Y-88915250D01*
X72030497Y-88915250D02*
X72173354Y-88986678D01*
X72173354Y-88986678D02*
X72316211Y-88986678D01*
X73459069Y-88986678D02*
X73459069Y-88200964D01*
X73459069Y-88200964D02*
X73387640Y-88058107D01*
X73387640Y-88058107D02*
X73244783Y-87986678D01*
X73244783Y-87986678D02*
X72959069Y-87986678D01*
X72959069Y-87986678D02*
X72816211Y-88058107D01*
X73459069Y-88915250D02*
X73316211Y-88986678D01*
X73316211Y-88986678D02*
X72959069Y-88986678D01*
X72959069Y-88986678D02*
X72816211Y-88915250D01*
X72816211Y-88915250D02*
X72744783Y-88772392D01*
X72744783Y-88772392D02*
X72744783Y-88629535D01*
X72744783Y-88629535D02*
X72816211Y-88486678D01*
X72816211Y-88486678D02*
X72959069Y-88415250D01*
X72959069Y-88415250D02*
X73316211Y-88415250D01*
X73316211Y-88415250D02*
X73459069Y-88343821D01*
X74173354Y-87986678D02*
X74173354Y-88986678D01*
X74173354Y-88129535D02*
X74244783Y-88058107D01*
X74244783Y-88058107D02*
X74387640Y-87986678D01*
X74387640Y-87986678D02*
X74601926Y-87986678D01*
X74601926Y-87986678D02*
X74744783Y-88058107D01*
X74744783Y-88058107D02*
X74816212Y-88200964D01*
X74816212Y-88200964D02*
X74816212Y-88986678D01*
X76673354Y-88986678D02*
X76673354Y-87486678D01*
X76673354Y-87486678D02*
X77030497Y-87486678D01*
X77030497Y-87486678D02*
X77244783Y-87558107D01*
X77244783Y-87558107D02*
X77387640Y-87700964D01*
X77387640Y-87700964D02*
X77459069Y-87843821D01*
X77459069Y-87843821D02*
X77530497Y-88129535D01*
X77530497Y-88129535D02*
X77530497Y-88343821D01*
X77530497Y-88343821D02*
X77459069Y-88629535D01*
X77459069Y-88629535D02*
X77387640Y-88772392D01*
X77387640Y-88772392D02*
X77244783Y-88915250D01*
X77244783Y-88915250D02*
X77030497Y-88986678D01*
X77030497Y-88986678D02*
X76673354Y-88986678D01*
X78744783Y-88915250D02*
X78601926Y-88986678D01*
X78601926Y-88986678D02*
X78316212Y-88986678D01*
X78316212Y-88986678D02*
X78173354Y-88915250D01*
X78173354Y-88915250D02*
X78101926Y-88772392D01*
X78101926Y-88772392D02*
X78101926Y-88200964D01*
X78101926Y-88200964D02*
X78173354Y-88058107D01*
X78173354Y-88058107D02*
X78316212Y-87986678D01*
X78316212Y-87986678D02*
X78601926Y-87986678D01*
X78601926Y-87986678D02*
X78744783Y-88058107D01*
X78744783Y-88058107D02*
X78816212Y-88200964D01*
X78816212Y-88200964D02*
X78816212Y-88343821D01*
X78816212Y-88343821D02*
X78101926Y-88486678D01*
X79459068Y-88986678D02*
X79459068Y-87486678D01*
X79459068Y-88058107D02*
X79601926Y-87986678D01*
X79601926Y-87986678D02*
X79887640Y-87986678D01*
X79887640Y-87986678D02*
X80030497Y-88058107D01*
X80030497Y-88058107D02*
X80101926Y-88129535D01*
X80101926Y-88129535D02*
X80173354Y-88272392D01*
X80173354Y-88272392D02*
X80173354Y-88700964D01*
X80173354Y-88700964D02*
X80101926Y-88843821D01*
X80101926Y-88843821D02*
X80030497Y-88915250D01*
X80030497Y-88915250D02*
X79887640Y-88986678D01*
X79887640Y-88986678D02*
X79601926Y-88986678D01*
X79601926Y-88986678D02*
X79459068Y-88915250D01*
X81459069Y-88986678D02*
X81459069Y-88200964D01*
X81459069Y-88200964D02*
X81387640Y-88058107D01*
X81387640Y-88058107D02*
X81244783Y-87986678D01*
X81244783Y-87986678D02*
X80959069Y-87986678D01*
X80959069Y-87986678D02*
X80816211Y-88058107D01*
X81459069Y-88915250D02*
X81316211Y-88986678D01*
X81316211Y-88986678D02*
X80959069Y-88986678D01*
X80959069Y-88986678D02*
X80816211Y-88915250D01*
X80816211Y-88915250D02*
X80744783Y-88772392D01*
X80744783Y-88772392D02*
X80744783Y-88629535D01*
X80744783Y-88629535D02*
X80816211Y-88486678D01*
X80816211Y-88486678D02*
X80959069Y-88415250D01*
X80959069Y-88415250D02*
X81316211Y-88415250D01*
X81316211Y-88415250D02*
X81459069Y-88343821D01*
X82173354Y-88986678D02*
X82173354Y-87486678D01*
X82316212Y-88415250D02*
X82744783Y-88986678D01*
X82744783Y-87986678D02*
X82173354Y-88558107D01*
X83387640Y-88986678D02*
X83387640Y-87486678D01*
X83530498Y-88415250D02*
X83959069Y-88986678D01*
X83959069Y-87986678D02*
X83387640Y-88558107D01*
X85173355Y-88915250D02*
X85030498Y-88986678D01*
X85030498Y-88986678D02*
X84744784Y-88986678D01*
X84744784Y-88986678D02*
X84601926Y-88915250D01*
X84601926Y-88915250D02*
X84530498Y-88772392D01*
X84530498Y-88772392D02*
X84530498Y-88200964D01*
X84530498Y-88200964D02*
X84601926Y-88058107D01*
X84601926Y-88058107D02*
X84744784Y-87986678D01*
X84744784Y-87986678D02*
X85030498Y-87986678D01*
X85030498Y-87986678D02*
X85173355Y-88058107D01*
X85173355Y-88058107D02*
X85244784Y-88200964D01*
X85244784Y-88200964D02*
X85244784Y-88343821D01*
X85244784Y-88343821D02*
X84530498Y-88486678D01*
X85887640Y-88986678D02*
X85887640Y-87986678D01*
X85887640Y-88272392D02*
X85959069Y-88129535D01*
X85959069Y-88129535D02*
X86030498Y-88058107D01*
X86030498Y-88058107D02*
X86173355Y-87986678D01*
X86173355Y-87986678D02*
X86316212Y-87986678D01*
D10*
X60527580Y-55203884D02*
X61194247Y-55203884D01*
X61527580Y-55203884D02*
X61479961Y-55156265D01*
X61479961Y-55156265D02*
X61432342Y-55203884D01*
X61432342Y-55203884D02*
X61479961Y-55251503D01*
X61479961Y-55251503D02*
X61527580Y-55203884D01*
X61527580Y-55203884D02*
X61432342Y-55203884D01*
X61194247Y-55680074D02*
X60527580Y-55680074D01*
X61099009Y-55680074D02*
X61146628Y-55727693D01*
X61146628Y-55727693D02*
X61194247Y-55822931D01*
X61194247Y-55822931D02*
X61194247Y-55965788D01*
X61194247Y-55965788D02*
X61146628Y-56061026D01*
X61146628Y-56061026D02*
X61051390Y-56108645D01*
X61051390Y-56108645D02*
X60527580Y-56108645D01*
X61194247Y-56441979D02*
X61194247Y-56822931D01*
X61527580Y-56584836D02*
X60670438Y-56584836D01*
X60670438Y-56584836D02*
X60575200Y-56632455D01*
X60575200Y-56632455D02*
X60527580Y-56727693D01*
X60527580Y-56727693D02*
X60527580Y-56822931D01*
D12*
X57757142Y-30654819D02*
X57423809Y-30178628D01*
X57185714Y-30654819D02*
X57185714Y-29654819D01*
X57185714Y-29654819D02*
X57566666Y-29654819D01*
X57566666Y-29654819D02*
X57661904Y-29702438D01*
X57661904Y-29702438D02*
X57709523Y-29750057D01*
X57709523Y-29750057D02*
X57757142Y-29845295D01*
X57757142Y-29845295D02*
X57757142Y-29988152D01*
X57757142Y-29988152D02*
X57709523Y-30083390D01*
X57709523Y-30083390D02*
X57661904Y-30131009D01*
X57661904Y-30131009D02*
X57566666Y-30178628D01*
X57566666Y-30178628D02*
X57185714Y-30178628D01*
X58709523Y-30654819D02*
X58138095Y-30654819D01*
X58423809Y-30654819D02*
X58423809Y-29654819D01*
X58423809Y-29654819D02*
X58328571Y-29797676D01*
X58328571Y-29797676D02*
X58233333Y-29892914D01*
X58233333Y-29892914D02*
X58138095Y-29940533D01*
X59280952Y-30083390D02*
X59185714Y-30035771D01*
X59185714Y-30035771D02*
X59138095Y-29988152D01*
X59138095Y-29988152D02*
X59090476Y-29892914D01*
X59090476Y-29892914D02*
X59090476Y-29845295D01*
X59090476Y-29845295D02*
X59138095Y-29750057D01*
X59138095Y-29750057D02*
X59185714Y-29702438D01*
X59185714Y-29702438D02*
X59280952Y-29654819D01*
X59280952Y-29654819D02*
X59471428Y-29654819D01*
X59471428Y-29654819D02*
X59566666Y-29702438D01*
X59566666Y-29702438D02*
X59614285Y-29750057D01*
X59614285Y-29750057D02*
X59661904Y-29845295D01*
X59661904Y-29845295D02*
X59661904Y-29892914D01*
X59661904Y-29892914D02*
X59614285Y-29988152D01*
X59614285Y-29988152D02*
X59566666Y-30035771D01*
X59566666Y-30035771D02*
X59471428Y-30083390D01*
X59471428Y-30083390D02*
X59280952Y-30083390D01*
X59280952Y-30083390D02*
X59185714Y-30131009D01*
X59185714Y-30131009D02*
X59138095Y-30178628D01*
X59138095Y-30178628D02*
X59090476Y-30273866D01*
X59090476Y-30273866D02*
X59090476Y-30464342D01*
X59090476Y-30464342D02*
X59138095Y-30559580D01*
X59138095Y-30559580D02*
X59185714Y-30607200D01*
X59185714Y-30607200D02*
X59280952Y-30654819D01*
X59280952Y-30654819D02*
X59471428Y-30654819D01*
X59471428Y-30654819D02*
X59566666Y-30607200D01*
X59566666Y-30607200D02*
X59614285Y-30559580D01*
X59614285Y-30559580D02*
X59661904Y-30464342D01*
X59661904Y-30464342D02*
X59661904Y-30273866D01*
X59661904Y-30273866D02*
X59614285Y-30178628D01*
X59614285Y-30178628D02*
X59566666Y-30131009D01*
X59566666Y-30131009D02*
X59471428Y-30083390D01*
X51466666Y-27984819D02*
X51466666Y-28699104D01*
X51466666Y-28699104D02*
X51419047Y-28841961D01*
X51419047Y-28841961D02*
X51323809Y-28937200D01*
X51323809Y-28937200D02*
X51180952Y-28984819D01*
X51180952Y-28984819D02*
X51085714Y-28984819D01*
X52466666Y-28984819D02*
X51895238Y-28984819D01*
X52180952Y-28984819D02*
X52180952Y-27984819D01*
X52180952Y-27984819D02*
X52085714Y-28127676D01*
X52085714Y-28127676D02*
X51990476Y-28222914D01*
X51990476Y-28222914D02*
X51895238Y-28270533D01*
X79054819Y-73966666D02*
X78578628Y-74299999D01*
X79054819Y-74538094D02*
X78054819Y-74538094D01*
X78054819Y-74538094D02*
X78054819Y-74157142D01*
X78054819Y-74157142D02*
X78102438Y-74061904D01*
X78102438Y-74061904D02*
X78150057Y-74014285D01*
X78150057Y-74014285D02*
X78245295Y-73966666D01*
X78245295Y-73966666D02*
X78388152Y-73966666D01*
X78388152Y-73966666D02*
X78483390Y-74014285D01*
X78483390Y-74014285D02*
X78531009Y-74061904D01*
X78531009Y-74061904D02*
X78578628Y-74157142D01*
X78578628Y-74157142D02*
X78578628Y-74538094D01*
X78483390Y-73395237D02*
X78435771Y-73490475D01*
X78435771Y-73490475D02*
X78388152Y-73538094D01*
X78388152Y-73538094D02*
X78292914Y-73585713D01*
X78292914Y-73585713D02*
X78245295Y-73585713D01*
X78245295Y-73585713D02*
X78150057Y-73538094D01*
X78150057Y-73538094D02*
X78102438Y-73490475D01*
X78102438Y-73490475D02*
X78054819Y-73395237D01*
X78054819Y-73395237D02*
X78054819Y-73204761D01*
X78054819Y-73204761D02*
X78102438Y-73109523D01*
X78102438Y-73109523D02*
X78150057Y-73061904D01*
X78150057Y-73061904D02*
X78245295Y-73014285D01*
X78245295Y-73014285D02*
X78292914Y-73014285D01*
X78292914Y-73014285D02*
X78388152Y-73061904D01*
X78388152Y-73061904D02*
X78435771Y-73109523D01*
X78435771Y-73109523D02*
X78483390Y-73204761D01*
X78483390Y-73204761D02*
X78483390Y-73395237D01*
X78483390Y-73395237D02*
X78531009Y-73490475D01*
X78531009Y-73490475D02*
X78578628Y-73538094D01*
X78578628Y-73538094D02*
X78673866Y-73585713D01*
X78673866Y-73585713D02*
X78864342Y-73585713D01*
X78864342Y-73585713D02*
X78959580Y-73538094D01*
X78959580Y-73538094D02*
X79007200Y-73490475D01*
X79007200Y-73490475D02*
X79054819Y-73395237D01*
X79054819Y-73395237D02*
X79054819Y-73204761D01*
X79054819Y-73204761D02*
X79007200Y-73109523D01*
X79007200Y-73109523D02*
X78959580Y-73061904D01*
X78959580Y-73061904D02*
X78864342Y-73014285D01*
X78864342Y-73014285D02*
X78673866Y-73014285D01*
X78673866Y-73014285D02*
X78578628Y-73061904D01*
X78578628Y-73061904D02*
X78531009Y-73109523D01*
X78531009Y-73109523D02*
X78483390Y-73204761D01*
X77338095Y-58024819D02*
X77338095Y-58834342D01*
X77338095Y-58834342D02*
X77385714Y-58929580D01*
X77385714Y-58929580D02*
X77433333Y-58977200D01*
X77433333Y-58977200D02*
X77528571Y-59024819D01*
X77528571Y-59024819D02*
X77719047Y-59024819D01*
X77719047Y-59024819D02*
X77814285Y-58977200D01*
X77814285Y-58977200D02*
X77861904Y-58929580D01*
X77861904Y-58929580D02*
X77909523Y-58834342D01*
X77909523Y-58834342D02*
X77909523Y-58024819D01*
X78861904Y-58024819D02*
X78385714Y-58024819D01*
X78385714Y-58024819D02*
X78338095Y-58501009D01*
X78338095Y-58501009D02*
X78385714Y-58453390D01*
X78385714Y-58453390D02*
X78480952Y-58405771D01*
X78480952Y-58405771D02*
X78719047Y-58405771D01*
X78719047Y-58405771D02*
X78814285Y-58453390D01*
X78814285Y-58453390D02*
X78861904Y-58501009D01*
X78861904Y-58501009D02*
X78909523Y-58596247D01*
X78909523Y-58596247D02*
X78909523Y-58834342D01*
X78909523Y-58834342D02*
X78861904Y-58929580D01*
X78861904Y-58929580D02*
X78814285Y-58977200D01*
X78814285Y-58977200D02*
X78719047Y-59024819D01*
X78719047Y-59024819D02*
X78480952Y-59024819D01*
X78480952Y-59024819D02*
X78385714Y-58977200D01*
X78385714Y-58977200D02*
X78338095Y-58929580D01*
X74661905Y-69554819D02*
X74661905Y-68554819D01*
X74661905Y-68554819D02*
X74900000Y-68554819D01*
X74900000Y-68554819D02*
X75042857Y-68602438D01*
X75042857Y-68602438D02*
X75138095Y-68697676D01*
X75138095Y-68697676D02*
X75185714Y-68792914D01*
X75185714Y-68792914D02*
X75233333Y-68983390D01*
X75233333Y-68983390D02*
X75233333Y-69126247D01*
X75233333Y-69126247D02*
X75185714Y-69316723D01*
X75185714Y-69316723D02*
X75138095Y-69411961D01*
X75138095Y-69411961D02*
X75042857Y-69507200D01*
X75042857Y-69507200D02*
X74900000Y-69554819D01*
X74900000Y-69554819D02*
X74661905Y-69554819D01*
X76185714Y-69554819D02*
X75614286Y-69554819D01*
X75900000Y-69554819D02*
X75900000Y-68554819D01*
X75900000Y-68554819D02*
X75804762Y-68697676D01*
X75804762Y-68697676D02*
X75709524Y-68792914D01*
X75709524Y-68792914D02*
X75614286Y-68840533D01*
X74661905Y-67204819D02*
X74661905Y-66204819D01*
X74661905Y-66204819D02*
X74900000Y-66204819D01*
X74900000Y-66204819D02*
X75042857Y-66252438D01*
X75042857Y-66252438D02*
X75138095Y-66347676D01*
X75138095Y-66347676D02*
X75185714Y-66442914D01*
X75185714Y-66442914D02*
X75233333Y-66633390D01*
X75233333Y-66633390D02*
X75233333Y-66776247D01*
X75233333Y-66776247D02*
X75185714Y-66966723D01*
X75185714Y-66966723D02*
X75138095Y-67061961D01*
X75138095Y-67061961D02*
X75042857Y-67157200D01*
X75042857Y-67157200D02*
X74900000Y-67204819D01*
X74900000Y-67204819D02*
X74661905Y-67204819D01*
X75614286Y-66300057D02*
X75661905Y-66252438D01*
X75661905Y-66252438D02*
X75757143Y-66204819D01*
X75757143Y-66204819D02*
X75995238Y-66204819D01*
X75995238Y-66204819D02*
X76090476Y-66252438D01*
X76090476Y-66252438D02*
X76138095Y-66300057D01*
X76138095Y-66300057D02*
X76185714Y-66395295D01*
X76185714Y-66395295D02*
X76185714Y-66490533D01*
X76185714Y-66490533D02*
X76138095Y-66633390D01*
X76138095Y-66633390D02*
X75566667Y-67204819D01*
X75566667Y-67204819D02*
X76185714Y-67204819D01*
X81444819Y-62392857D02*
X80968628Y-62726190D01*
X81444819Y-62964285D02*
X80444819Y-62964285D01*
X80444819Y-62964285D02*
X80444819Y-62583333D01*
X80444819Y-62583333D02*
X80492438Y-62488095D01*
X80492438Y-62488095D02*
X80540057Y-62440476D01*
X80540057Y-62440476D02*
X80635295Y-62392857D01*
X80635295Y-62392857D02*
X80778152Y-62392857D01*
X80778152Y-62392857D02*
X80873390Y-62440476D01*
X80873390Y-62440476D02*
X80921009Y-62488095D01*
X80921009Y-62488095D02*
X80968628Y-62583333D01*
X80968628Y-62583333D02*
X80968628Y-62964285D01*
X81444819Y-61440476D02*
X81444819Y-62011904D01*
X81444819Y-61726190D02*
X80444819Y-61726190D01*
X80444819Y-61726190D02*
X80587676Y-61821428D01*
X80587676Y-61821428D02*
X80682914Y-61916666D01*
X80682914Y-61916666D02*
X80730533Y-62011904D01*
X80444819Y-60583333D02*
X80444819Y-60773809D01*
X80444819Y-60773809D02*
X80492438Y-60869047D01*
X80492438Y-60869047D02*
X80540057Y-60916666D01*
X80540057Y-60916666D02*
X80682914Y-61011904D01*
X80682914Y-61011904D02*
X80873390Y-61059523D01*
X80873390Y-61059523D02*
X81254342Y-61059523D01*
X81254342Y-61059523D02*
X81349580Y-61011904D01*
X81349580Y-61011904D02*
X81397200Y-60964285D01*
X81397200Y-60964285D02*
X81444819Y-60869047D01*
X81444819Y-60869047D02*
X81444819Y-60678571D01*
X81444819Y-60678571D02*
X81397200Y-60583333D01*
X81397200Y-60583333D02*
X81349580Y-60535714D01*
X81349580Y-60535714D02*
X81254342Y-60488095D01*
X81254342Y-60488095D02*
X81016247Y-60488095D01*
X81016247Y-60488095D02*
X80921009Y-60535714D01*
X80921009Y-60535714D02*
X80873390Y-60583333D01*
X80873390Y-60583333D02*
X80825771Y-60678571D01*
X80825771Y-60678571D02*
X80825771Y-60869047D01*
X80825771Y-60869047D02*
X80873390Y-60964285D01*
X80873390Y-60964285D02*
X80921009Y-61011904D01*
X80921009Y-61011904D02*
X81016247Y-61059523D01*
X83404819Y-35871904D02*
X84214342Y-35871904D01*
X84214342Y-35871904D02*
X84309580Y-35824285D01*
X84309580Y-35824285D02*
X84357200Y-35776666D01*
X84357200Y-35776666D02*
X84404819Y-35681428D01*
X84404819Y-35681428D02*
X84404819Y-35490952D01*
X84404819Y-35490952D02*
X84357200Y-35395714D01*
X84357200Y-35395714D02*
X84309580Y-35348095D01*
X84309580Y-35348095D02*
X84214342Y-35300476D01*
X84214342Y-35300476D02*
X83404819Y-35300476D01*
X83404819Y-34919523D02*
X83404819Y-34300476D01*
X83404819Y-34300476D02*
X83785771Y-34633809D01*
X83785771Y-34633809D02*
X83785771Y-34490952D01*
X83785771Y-34490952D02*
X83833390Y-34395714D01*
X83833390Y-34395714D02*
X83881009Y-34348095D01*
X83881009Y-34348095D02*
X83976247Y-34300476D01*
X83976247Y-34300476D02*
X84214342Y-34300476D01*
X84214342Y-34300476D02*
X84309580Y-34348095D01*
X84309580Y-34348095D02*
X84357200Y-34395714D01*
X84357200Y-34395714D02*
X84404819Y-34490952D01*
X84404819Y-34490952D02*
X84404819Y-34776666D01*
X84404819Y-34776666D02*
X84357200Y-34871904D01*
X84357200Y-34871904D02*
X84309580Y-34919523D01*
X58454819Y-85790475D02*
X57454819Y-85790475D01*
X57454819Y-85790475D02*
X58169104Y-85457142D01*
X58169104Y-85457142D02*
X57454819Y-85123809D01*
X57454819Y-85123809D02*
X58454819Y-85123809D01*
X57454819Y-84790475D02*
X57454819Y-84219047D01*
X58454819Y-84504761D02*
X57454819Y-84504761D01*
X58454819Y-83361904D02*
X58454819Y-83933332D01*
X58454819Y-83647618D02*
X57454819Y-83647618D01*
X57454819Y-83647618D02*
X57597676Y-83742856D01*
X57597676Y-83742856D02*
X57692914Y-83838094D01*
X57692914Y-83838094D02*
X57740533Y-83933332D01*
X71216666Y-71684819D02*
X71216666Y-72399104D01*
X71216666Y-72399104D02*
X71169047Y-72541961D01*
X71169047Y-72541961D02*
X71073809Y-72637200D01*
X71073809Y-72637200D02*
X70930952Y-72684819D01*
X70930952Y-72684819D02*
X70835714Y-72684819D01*
X71597619Y-71684819D02*
X72264285Y-71684819D01*
X72264285Y-71684819D02*
X71835714Y-72684819D01*
X85844819Y-79056666D02*
X85368628Y-79389999D01*
X85844819Y-79628094D02*
X84844819Y-79628094D01*
X84844819Y-79628094D02*
X84844819Y-79247142D01*
X84844819Y-79247142D02*
X84892438Y-79151904D01*
X84892438Y-79151904D02*
X84940057Y-79104285D01*
X84940057Y-79104285D02*
X85035295Y-79056666D01*
X85035295Y-79056666D02*
X85178152Y-79056666D01*
X85178152Y-79056666D02*
X85273390Y-79104285D01*
X85273390Y-79104285D02*
X85321009Y-79151904D01*
X85321009Y-79151904D02*
X85368628Y-79247142D01*
X85368628Y-79247142D02*
X85368628Y-79628094D01*
X84844819Y-78723332D02*
X84844819Y-78104285D01*
X84844819Y-78104285D02*
X85225771Y-78437618D01*
X85225771Y-78437618D02*
X85225771Y-78294761D01*
X85225771Y-78294761D02*
X85273390Y-78199523D01*
X85273390Y-78199523D02*
X85321009Y-78151904D01*
X85321009Y-78151904D02*
X85416247Y-78104285D01*
X85416247Y-78104285D02*
X85654342Y-78104285D01*
X85654342Y-78104285D02*
X85749580Y-78151904D01*
X85749580Y-78151904D02*
X85797200Y-78199523D01*
X85797200Y-78199523D02*
X85844819Y-78294761D01*
X85844819Y-78294761D02*
X85844819Y-78580475D01*
X85844819Y-78580475D02*
X85797200Y-78675713D01*
X85797200Y-78675713D02*
X85749580Y-78723332D01*
X55727200Y-39913332D02*
X55774819Y-39770475D01*
X55774819Y-39770475D02*
X55774819Y-39532380D01*
X55774819Y-39532380D02*
X55727200Y-39437142D01*
X55727200Y-39437142D02*
X55679580Y-39389523D01*
X55679580Y-39389523D02*
X55584342Y-39341904D01*
X55584342Y-39341904D02*
X55489104Y-39341904D01*
X55489104Y-39341904D02*
X55393866Y-39389523D01*
X55393866Y-39389523D02*
X55346247Y-39437142D01*
X55346247Y-39437142D02*
X55298628Y-39532380D01*
X55298628Y-39532380D02*
X55251009Y-39722856D01*
X55251009Y-39722856D02*
X55203390Y-39818094D01*
X55203390Y-39818094D02*
X55155771Y-39865713D01*
X55155771Y-39865713D02*
X55060533Y-39913332D01*
X55060533Y-39913332D02*
X54965295Y-39913332D01*
X54965295Y-39913332D02*
X54870057Y-39865713D01*
X54870057Y-39865713D02*
X54822438Y-39818094D01*
X54822438Y-39818094D02*
X54774819Y-39722856D01*
X54774819Y-39722856D02*
X54774819Y-39484761D01*
X54774819Y-39484761D02*
X54822438Y-39341904D01*
X54774819Y-39008570D02*
X55774819Y-38770475D01*
X55774819Y-38770475D02*
X55060533Y-38579999D01*
X55060533Y-38579999D02*
X55774819Y-38389523D01*
X55774819Y-38389523D02*
X54774819Y-38151428D01*
X54870057Y-37818094D02*
X54822438Y-37770475D01*
X54822438Y-37770475D02*
X54774819Y-37675237D01*
X54774819Y-37675237D02*
X54774819Y-37437142D01*
X54774819Y-37437142D02*
X54822438Y-37341904D01*
X54822438Y-37341904D02*
X54870057Y-37294285D01*
X54870057Y-37294285D02*
X54965295Y-37246666D01*
X54965295Y-37246666D02*
X55060533Y-37246666D01*
X55060533Y-37246666D02*
X55203390Y-37294285D01*
X55203390Y-37294285D02*
X55774819Y-37865713D01*
X55774819Y-37865713D02*
X55774819Y-37246666D01*
X60433333Y-30559580D02*
X60385714Y-30607200D01*
X60385714Y-30607200D02*
X60242857Y-30654819D01*
X60242857Y-30654819D02*
X60147619Y-30654819D01*
X60147619Y-30654819D02*
X60004762Y-30607200D01*
X60004762Y-30607200D02*
X59909524Y-30511961D01*
X59909524Y-30511961D02*
X59861905Y-30416723D01*
X59861905Y-30416723D02*
X59814286Y-30226247D01*
X59814286Y-30226247D02*
X59814286Y-30083390D01*
X59814286Y-30083390D02*
X59861905Y-29892914D01*
X59861905Y-29892914D02*
X59909524Y-29797676D01*
X59909524Y-29797676D02*
X60004762Y-29702438D01*
X60004762Y-29702438D02*
X60147619Y-29654819D01*
X60147619Y-29654819D02*
X60242857Y-29654819D01*
X60242857Y-29654819D02*
X60385714Y-29702438D01*
X60385714Y-29702438D02*
X60433333Y-29750057D01*
X60814286Y-29750057D02*
X60861905Y-29702438D01*
X60861905Y-29702438D02*
X60957143Y-29654819D01*
X60957143Y-29654819D02*
X61195238Y-29654819D01*
X61195238Y-29654819D02*
X61290476Y-29702438D01*
X61290476Y-29702438D02*
X61338095Y-29750057D01*
X61338095Y-29750057D02*
X61385714Y-29845295D01*
X61385714Y-29845295D02*
X61385714Y-29940533D01*
X61385714Y-29940533D02*
X61338095Y-30083390D01*
X61338095Y-30083390D02*
X60766667Y-30654819D01*
X60766667Y-30654819D02*
X61385714Y-30654819D01*
X74544819Y-92733333D02*
X75259104Y-92733333D01*
X75259104Y-92733333D02*
X75401961Y-92780952D01*
X75401961Y-92780952D02*
X75497200Y-92876190D01*
X75497200Y-92876190D02*
X75544819Y-93019047D01*
X75544819Y-93019047D02*
X75544819Y-93114285D01*
X74544819Y-92352380D02*
X74544819Y-91733333D01*
X74544819Y-91733333D02*
X74925771Y-92066666D01*
X74925771Y-92066666D02*
X74925771Y-91923809D01*
X74925771Y-91923809D02*
X74973390Y-91828571D01*
X74973390Y-91828571D02*
X75021009Y-91780952D01*
X75021009Y-91780952D02*
X75116247Y-91733333D01*
X75116247Y-91733333D02*
X75354342Y-91733333D01*
X75354342Y-91733333D02*
X75449580Y-91780952D01*
X75449580Y-91780952D02*
X75497200Y-91828571D01*
X75497200Y-91828571D02*
X75544819Y-91923809D01*
X75544819Y-91923809D02*
X75544819Y-92209523D01*
X75544819Y-92209523D02*
X75497200Y-92304761D01*
X75497200Y-92304761D02*
X75449580Y-92352380D01*
X80754819Y-80566666D02*
X80278628Y-80899999D01*
X80754819Y-81138094D02*
X79754819Y-81138094D01*
X79754819Y-81138094D02*
X79754819Y-80757142D01*
X79754819Y-80757142D02*
X79802438Y-80661904D01*
X79802438Y-80661904D02*
X79850057Y-80614285D01*
X79850057Y-80614285D02*
X79945295Y-80566666D01*
X79945295Y-80566666D02*
X80088152Y-80566666D01*
X80088152Y-80566666D02*
X80183390Y-80614285D01*
X80183390Y-80614285D02*
X80231009Y-80661904D01*
X80231009Y-80661904D02*
X80278628Y-80757142D01*
X80278628Y-80757142D02*
X80278628Y-81138094D01*
X79754819Y-79661904D02*
X79754819Y-80138094D01*
X79754819Y-80138094D02*
X80231009Y-80185713D01*
X80231009Y-80185713D02*
X80183390Y-80138094D01*
X80183390Y-80138094D02*
X80135771Y-80042856D01*
X80135771Y-80042856D02*
X80135771Y-79804761D01*
X80135771Y-79804761D02*
X80183390Y-79709523D01*
X80183390Y-79709523D02*
X80231009Y-79661904D01*
X80231009Y-79661904D02*
X80326247Y-79614285D01*
X80326247Y-79614285D02*
X80564342Y-79614285D01*
X80564342Y-79614285D02*
X80659580Y-79661904D01*
X80659580Y-79661904D02*
X80707200Y-79709523D01*
X80707200Y-79709523D02*
X80754819Y-79804761D01*
X80754819Y-79804761D02*
X80754819Y-80042856D01*
X80754819Y-80042856D02*
X80707200Y-80138094D01*
X80707200Y-80138094D02*
X80659580Y-80185713D01*
D10*
X89707419Y-58903333D02*
X90421704Y-58903333D01*
X90421704Y-58903333D02*
X90564561Y-58950952D01*
X90564561Y-58950952D02*
X90659800Y-59046190D01*
X90659800Y-59046190D02*
X90707419Y-59189047D01*
X90707419Y-59189047D02*
X90707419Y-59284285D01*
X89707419Y-57998571D02*
X89707419Y-58189047D01*
X89707419Y-58189047D02*
X89755038Y-58284285D01*
X89755038Y-58284285D02*
X89802657Y-58331904D01*
X89802657Y-58331904D02*
X89945514Y-58427142D01*
X89945514Y-58427142D02*
X90135990Y-58474761D01*
X90135990Y-58474761D02*
X90516942Y-58474761D01*
X90516942Y-58474761D02*
X90612180Y-58427142D01*
X90612180Y-58427142D02*
X90659800Y-58379523D01*
X90659800Y-58379523D02*
X90707419Y-58284285D01*
X90707419Y-58284285D02*
X90707419Y-58093809D01*
X90707419Y-58093809D02*
X90659800Y-57998571D01*
X90659800Y-57998571D02*
X90612180Y-57950952D01*
X90612180Y-57950952D02*
X90516942Y-57903333D01*
X90516942Y-57903333D02*
X90278847Y-57903333D01*
X90278847Y-57903333D02*
X90183609Y-57950952D01*
X90183609Y-57950952D02*
X90135990Y-57998571D01*
X90135990Y-57998571D02*
X90088371Y-58093809D01*
X90088371Y-58093809D02*
X90088371Y-58284285D01*
X90088371Y-58284285D02*
X90135990Y-58379523D01*
X90135990Y-58379523D02*
X90183609Y-58427142D01*
X90183609Y-58427142D02*
X90278847Y-58474761D01*
D12*
X85714819Y-76056666D02*
X85238628Y-76389999D01*
X85714819Y-76628094D02*
X84714819Y-76628094D01*
X84714819Y-76628094D02*
X84714819Y-76247142D01*
X84714819Y-76247142D02*
X84762438Y-76151904D01*
X84762438Y-76151904D02*
X84810057Y-76104285D01*
X84810057Y-76104285D02*
X84905295Y-76056666D01*
X84905295Y-76056666D02*
X85048152Y-76056666D01*
X85048152Y-76056666D02*
X85143390Y-76104285D01*
X85143390Y-76104285D02*
X85191009Y-76151904D01*
X85191009Y-76151904D02*
X85238628Y-76247142D01*
X85238628Y-76247142D02*
X85238628Y-76628094D01*
X84810057Y-75675713D02*
X84762438Y-75628094D01*
X84762438Y-75628094D02*
X84714819Y-75532856D01*
X84714819Y-75532856D02*
X84714819Y-75294761D01*
X84714819Y-75294761D02*
X84762438Y-75199523D01*
X84762438Y-75199523D02*
X84810057Y-75151904D01*
X84810057Y-75151904D02*
X84905295Y-75104285D01*
X84905295Y-75104285D02*
X85000533Y-75104285D01*
X85000533Y-75104285D02*
X85143390Y-75151904D01*
X85143390Y-75151904D02*
X85714819Y-75723332D01*
X85714819Y-75723332D02*
X85714819Y-75104285D01*
X73833333Y-65259580D02*
X73785714Y-65307200D01*
X73785714Y-65307200D02*
X73642857Y-65354819D01*
X73642857Y-65354819D02*
X73547619Y-65354819D01*
X73547619Y-65354819D02*
X73404762Y-65307200D01*
X73404762Y-65307200D02*
X73309524Y-65211961D01*
X73309524Y-65211961D02*
X73261905Y-65116723D01*
X73261905Y-65116723D02*
X73214286Y-64926247D01*
X73214286Y-64926247D02*
X73214286Y-64783390D01*
X73214286Y-64783390D02*
X73261905Y-64592914D01*
X73261905Y-64592914D02*
X73309524Y-64497676D01*
X73309524Y-64497676D02*
X73404762Y-64402438D01*
X73404762Y-64402438D02*
X73547619Y-64354819D01*
X73547619Y-64354819D02*
X73642857Y-64354819D01*
X73642857Y-64354819D02*
X73785714Y-64402438D01*
X73785714Y-64402438D02*
X73833333Y-64450057D01*
X74166667Y-64354819D02*
X74785714Y-64354819D01*
X74785714Y-64354819D02*
X74452381Y-64735771D01*
X74452381Y-64735771D02*
X74595238Y-64735771D01*
X74595238Y-64735771D02*
X74690476Y-64783390D01*
X74690476Y-64783390D02*
X74738095Y-64831009D01*
X74738095Y-64831009D02*
X74785714Y-64926247D01*
X74785714Y-64926247D02*
X74785714Y-65164342D01*
X74785714Y-65164342D02*
X74738095Y-65259580D01*
X74738095Y-65259580D02*
X74690476Y-65307200D01*
X74690476Y-65307200D02*
X74595238Y-65354819D01*
X74595238Y-65354819D02*
X74309524Y-65354819D01*
X74309524Y-65354819D02*
X74214286Y-65307200D01*
X74214286Y-65307200D02*
X74166667Y-65259580D01*
X83133333Y-79324819D02*
X82800000Y-78848628D01*
X82561905Y-79324819D02*
X82561905Y-78324819D01*
X82561905Y-78324819D02*
X82942857Y-78324819D01*
X82942857Y-78324819D02*
X83038095Y-78372438D01*
X83038095Y-78372438D02*
X83085714Y-78420057D01*
X83085714Y-78420057D02*
X83133333Y-78515295D01*
X83133333Y-78515295D02*
X83133333Y-78658152D01*
X83133333Y-78658152D02*
X83085714Y-78753390D01*
X83085714Y-78753390D02*
X83038095Y-78801009D01*
X83038095Y-78801009D02*
X82942857Y-78848628D01*
X82942857Y-78848628D02*
X82561905Y-78848628D01*
X84085714Y-79324819D02*
X83514286Y-79324819D01*
X83800000Y-79324819D02*
X83800000Y-78324819D01*
X83800000Y-78324819D02*
X83704762Y-78467676D01*
X83704762Y-78467676D02*
X83609524Y-78562914D01*
X83609524Y-78562914D02*
X83514286Y-78610533D01*
X75404761Y-74750057D02*
X75309523Y-74702438D01*
X75309523Y-74702438D02*
X75214285Y-74607200D01*
X75214285Y-74607200D02*
X75071428Y-74464342D01*
X75071428Y-74464342D02*
X74976190Y-74416723D01*
X74976190Y-74416723D02*
X74880952Y-74416723D01*
X74928571Y-74654819D02*
X74833333Y-74607200D01*
X74833333Y-74607200D02*
X74738095Y-74511961D01*
X74738095Y-74511961D02*
X74690476Y-74321485D01*
X74690476Y-74321485D02*
X74690476Y-73988152D01*
X74690476Y-73988152D02*
X74738095Y-73797676D01*
X74738095Y-73797676D02*
X74833333Y-73702438D01*
X74833333Y-73702438D02*
X74928571Y-73654819D01*
X74928571Y-73654819D02*
X75119047Y-73654819D01*
X75119047Y-73654819D02*
X75214285Y-73702438D01*
X75214285Y-73702438D02*
X75309523Y-73797676D01*
X75309523Y-73797676D02*
X75357142Y-73988152D01*
X75357142Y-73988152D02*
X75357142Y-74321485D01*
X75357142Y-74321485D02*
X75309523Y-74511961D01*
X75309523Y-74511961D02*
X75214285Y-74607200D01*
X75214285Y-74607200D02*
X75119047Y-74654819D01*
X75119047Y-74654819D02*
X74928571Y-74654819D01*
X75690476Y-73654819D02*
X76309523Y-73654819D01*
X76309523Y-73654819D02*
X75976190Y-74035771D01*
X75976190Y-74035771D02*
X76119047Y-74035771D01*
X76119047Y-74035771D02*
X76214285Y-74083390D01*
X76214285Y-74083390D02*
X76261904Y-74131009D01*
X76261904Y-74131009D02*
X76309523Y-74226247D01*
X76309523Y-74226247D02*
X76309523Y-74464342D01*
X76309523Y-74464342D02*
X76261904Y-74559580D01*
X76261904Y-74559580D02*
X76214285Y-74607200D01*
X76214285Y-74607200D02*
X76119047Y-74654819D01*
X76119047Y-74654819D02*
X75833333Y-74654819D01*
X75833333Y-74654819D02*
X75738095Y-74607200D01*
X75738095Y-74607200D02*
X75690476Y-74559580D01*
X73844819Y-62761904D02*
X74654342Y-62761904D01*
X74654342Y-62761904D02*
X74749580Y-62714285D01*
X74749580Y-62714285D02*
X74797200Y-62666666D01*
X74797200Y-62666666D02*
X74844819Y-62571428D01*
X74844819Y-62571428D02*
X74844819Y-62380952D01*
X74844819Y-62380952D02*
X74797200Y-62285714D01*
X74797200Y-62285714D02*
X74749580Y-62238095D01*
X74749580Y-62238095D02*
X74654342Y-62190476D01*
X74654342Y-62190476D02*
X73844819Y-62190476D01*
X74178152Y-61285714D02*
X74844819Y-61285714D01*
X73797200Y-61523809D02*
X74511485Y-61761904D01*
X74511485Y-61761904D02*
X74511485Y-61142857D01*
X82704761Y-71750057D02*
X82609523Y-71702438D01*
X82609523Y-71702438D02*
X82514285Y-71607200D01*
X82514285Y-71607200D02*
X82371428Y-71464342D01*
X82371428Y-71464342D02*
X82276190Y-71416723D01*
X82276190Y-71416723D02*
X82180952Y-71416723D01*
X82228571Y-71654819D02*
X82133333Y-71607200D01*
X82133333Y-71607200D02*
X82038095Y-71511961D01*
X82038095Y-71511961D02*
X81990476Y-71321485D01*
X81990476Y-71321485D02*
X81990476Y-70988152D01*
X81990476Y-70988152D02*
X82038095Y-70797676D01*
X82038095Y-70797676D02*
X82133333Y-70702438D01*
X82133333Y-70702438D02*
X82228571Y-70654819D01*
X82228571Y-70654819D02*
X82419047Y-70654819D01*
X82419047Y-70654819D02*
X82514285Y-70702438D01*
X82514285Y-70702438D02*
X82609523Y-70797676D01*
X82609523Y-70797676D02*
X82657142Y-70988152D01*
X82657142Y-70988152D02*
X82657142Y-71321485D01*
X82657142Y-71321485D02*
X82609523Y-71511961D01*
X82609523Y-71511961D02*
X82514285Y-71607200D01*
X82514285Y-71607200D02*
X82419047Y-71654819D01*
X82419047Y-71654819D02*
X82228571Y-71654819D01*
X83609523Y-71654819D02*
X83038095Y-71654819D01*
X83323809Y-71654819D02*
X83323809Y-70654819D01*
X83323809Y-70654819D02*
X83228571Y-70797676D01*
X83228571Y-70797676D02*
X83133333Y-70892914D01*
X83133333Y-70892914D02*
X83038095Y-70940533D01*
X51466666Y-66264819D02*
X51466666Y-66979104D01*
X51466666Y-66979104D02*
X51419047Y-67121961D01*
X51419047Y-67121961D02*
X51323809Y-67217200D01*
X51323809Y-67217200D02*
X51180952Y-67264819D01*
X51180952Y-67264819D02*
X51085714Y-67264819D01*
X51895238Y-66360057D02*
X51942857Y-66312438D01*
X51942857Y-66312438D02*
X52038095Y-66264819D01*
X52038095Y-66264819D02*
X52276190Y-66264819D01*
X52276190Y-66264819D02*
X52371428Y-66312438D01*
X52371428Y-66312438D02*
X52419047Y-66360057D01*
X52419047Y-66360057D02*
X52466666Y-66455295D01*
X52466666Y-66455295D02*
X52466666Y-66550533D01*
X52466666Y-66550533D02*
X52419047Y-66693390D01*
X52419047Y-66693390D02*
X51847619Y-67264819D01*
X51847619Y-67264819D02*
X52466666Y-67264819D01*
X64553333Y-81964819D02*
X64220000Y-81488628D01*
X63981905Y-81964819D02*
X63981905Y-80964819D01*
X63981905Y-80964819D02*
X64362857Y-80964819D01*
X64362857Y-80964819D02*
X64458095Y-81012438D01*
X64458095Y-81012438D02*
X64505714Y-81060057D01*
X64505714Y-81060057D02*
X64553333Y-81155295D01*
X64553333Y-81155295D02*
X64553333Y-81298152D01*
X64553333Y-81298152D02*
X64505714Y-81393390D01*
X64505714Y-81393390D02*
X64458095Y-81441009D01*
X64458095Y-81441009D02*
X64362857Y-81488628D01*
X64362857Y-81488628D02*
X63981905Y-81488628D01*
X65410476Y-80964819D02*
X65220000Y-80964819D01*
X65220000Y-80964819D02*
X65124762Y-81012438D01*
X65124762Y-81012438D02*
X65077143Y-81060057D01*
X65077143Y-81060057D02*
X64981905Y-81202914D01*
X64981905Y-81202914D02*
X64934286Y-81393390D01*
X64934286Y-81393390D02*
X64934286Y-81774342D01*
X64934286Y-81774342D02*
X64981905Y-81869580D01*
X64981905Y-81869580D02*
X65029524Y-81917200D01*
X65029524Y-81917200D02*
X65124762Y-81964819D01*
X65124762Y-81964819D02*
X65315238Y-81964819D01*
X65315238Y-81964819D02*
X65410476Y-81917200D01*
X65410476Y-81917200D02*
X65458095Y-81869580D01*
X65458095Y-81869580D02*
X65505714Y-81774342D01*
X65505714Y-81774342D02*
X65505714Y-81536247D01*
X65505714Y-81536247D02*
X65458095Y-81441009D01*
X65458095Y-81441009D02*
X65410476Y-81393390D01*
X65410476Y-81393390D02*
X65315238Y-81345771D01*
X65315238Y-81345771D02*
X65124762Y-81345771D01*
X65124762Y-81345771D02*
X65029524Y-81393390D01*
X65029524Y-81393390D02*
X64981905Y-81441009D01*
X64981905Y-81441009D02*
X64934286Y-81536247D01*
X89966666Y-66264819D02*
X89966666Y-66979104D01*
X89966666Y-66979104D02*
X89919047Y-67121961D01*
X89919047Y-67121961D02*
X89823809Y-67217200D01*
X89823809Y-67217200D02*
X89680952Y-67264819D01*
X89680952Y-67264819D02*
X89585714Y-67264819D01*
X90871428Y-66598152D02*
X90871428Y-67264819D01*
X90633333Y-66217200D02*
X90395238Y-66931485D01*
X90395238Y-66931485D02*
X91014285Y-66931485D01*
X84883333Y-40919580D02*
X84835714Y-40967200D01*
X84835714Y-40967200D02*
X84692857Y-41014819D01*
X84692857Y-41014819D02*
X84597619Y-41014819D01*
X84597619Y-41014819D02*
X84454762Y-40967200D01*
X84454762Y-40967200D02*
X84359524Y-40871961D01*
X84359524Y-40871961D02*
X84311905Y-40776723D01*
X84311905Y-40776723D02*
X84264286Y-40586247D01*
X84264286Y-40586247D02*
X84264286Y-40443390D01*
X84264286Y-40443390D02*
X84311905Y-40252914D01*
X84311905Y-40252914D02*
X84359524Y-40157676D01*
X84359524Y-40157676D02*
X84454762Y-40062438D01*
X84454762Y-40062438D02*
X84597619Y-40014819D01*
X84597619Y-40014819D02*
X84692857Y-40014819D01*
X84692857Y-40014819D02*
X84835714Y-40062438D01*
X84835714Y-40062438D02*
X84883333Y-40110057D01*
X85788095Y-40014819D02*
X85311905Y-40014819D01*
X85311905Y-40014819D02*
X85264286Y-40491009D01*
X85264286Y-40491009D02*
X85311905Y-40443390D01*
X85311905Y-40443390D02*
X85407143Y-40395771D01*
X85407143Y-40395771D02*
X85645238Y-40395771D01*
X85645238Y-40395771D02*
X85740476Y-40443390D01*
X85740476Y-40443390D02*
X85788095Y-40491009D01*
X85788095Y-40491009D02*
X85835714Y-40586247D01*
X85835714Y-40586247D02*
X85835714Y-40824342D01*
X85835714Y-40824342D02*
X85788095Y-40919580D01*
X85788095Y-40919580D02*
X85740476Y-40967200D01*
X85740476Y-40967200D02*
X85645238Y-41014819D01*
X85645238Y-41014819D02*
X85407143Y-41014819D01*
X85407143Y-41014819D02*
X85311905Y-40967200D01*
X85311905Y-40967200D02*
X85264286Y-40919580D01*
X59738095Y-86654819D02*
X59738095Y-87464342D01*
X59738095Y-87464342D02*
X59785714Y-87559580D01*
X59785714Y-87559580D02*
X59833333Y-87607200D01*
X59833333Y-87607200D02*
X59928571Y-87654819D01*
X59928571Y-87654819D02*
X60119047Y-87654819D01*
X60119047Y-87654819D02*
X60214285Y-87607200D01*
X60214285Y-87607200D02*
X60261904Y-87559580D01*
X60261904Y-87559580D02*
X60309523Y-87464342D01*
X60309523Y-87464342D02*
X60309523Y-86654819D01*
X61214285Y-86654819D02*
X61023809Y-86654819D01*
X61023809Y-86654819D02*
X60928571Y-86702438D01*
X60928571Y-86702438D02*
X60880952Y-86750057D01*
X60880952Y-86750057D02*
X60785714Y-86892914D01*
X60785714Y-86892914D02*
X60738095Y-87083390D01*
X60738095Y-87083390D02*
X60738095Y-87464342D01*
X60738095Y-87464342D02*
X60785714Y-87559580D01*
X60785714Y-87559580D02*
X60833333Y-87607200D01*
X60833333Y-87607200D02*
X60928571Y-87654819D01*
X60928571Y-87654819D02*
X61119047Y-87654819D01*
X61119047Y-87654819D02*
X61214285Y-87607200D01*
X61214285Y-87607200D02*
X61261904Y-87559580D01*
X61261904Y-87559580D02*
X61309523Y-87464342D01*
X61309523Y-87464342D02*
X61309523Y-87226247D01*
X61309523Y-87226247D02*
X61261904Y-87131009D01*
X61261904Y-87131009D02*
X61214285Y-87083390D01*
X61214285Y-87083390D02*
X61119047Y-87035771D01*
X61119047Y-87035771D02*
X60928571Y-87035771D01*
X60928571Y-87035771D02*
X60833333Y-87083390D01*
X60833333Y-87083390D02*
X60785714Y-87131009D01*
X60785714Y-87131009D02*
X60738095Y-87226247D01*
X75404761Y-82950057D02*
X75309523Y-82902438D01*
X75309523Y-82902438D02*
X75214285Y-82807200D01*
X75214285Y-82807200D02*
X75071428Y-82664342D01*
X75071428Y-82664342D02*
X74976190Y-82616723D01*
X74976190Y-82616723D02*
X74880952Y-82616723D01*
X74928571Y-82854819D02*
X74833333Y-82807200D01*
X74833333Y-82807200D02*
X74738095Y-82711961D01*
X74738095Y-82711961D02*
X74690476Y-82521485D01*
X74690476Y-82521485D02*
X74690476Y-82188152D01*
X74690476Y-82188152D02*
X74738095Y-81997676D01*
X74738095Y-81997676D02*
X74833333Y-81902438D01*
X74833333Y-81902438D02*
X74928571Y-81854819D01*
X74928571Y-81854819D02*
X75119047Y-81854819D01*
X75119047Y-81854819D02*
X75214285Y-81902438D01*
X75214285Y-81902438D02*
X75309523Y-81997676D01*
X75309523Y-81997676D02*
X75357142Y-82188152D01*
X75357142Y-82188152D02*
X75357142Y-82521485D01*
X75357142Y-82521485D02*
X75309523Y-82711961D01*
X75309523Y-82711961D02*
X75214285Y-82807200D01*
X75214285Y-82807200D02*
X75119047Y-82854819D01*
X75119047Y-82854819D02*
X74928571Y-82854819D01*
X75738095Y-81950057D02*
X75785714Y-81902438D01*
X75785714Y-81902438D02*
X75880952Y-81854819D01*
X75880952Y-81854819D02*
X76119047Y-81854819D01*
X76119047Y-81854819D02*
X76214285Y-81902438D01*
X76214285Y-81902438D02*
X76261904Y-81950057D01*
X76261904Y-81950057D02*
X76309523Y-82045295D01*
X76309523Y-82045295D02*
X76309523Y-82140533D01*
X76309523Y-82140533D02*
X76261904Y-82283390D01*
X76261904Y-82283390D02*
X75690476Y-82854819D01*
X75690476Y-82854819D02*
X76309523Y-82854819D01*
X67666666Y-71684819D02*
X67666666Y-72399104D01*
X67666666Y-72399104D02*
X67619047Y-72541961D01*
X67619047Y-72541961D02*
X67523809Y-72637200D01*
X67523809Y-72637200D02*
X67380952Y-72684819D01*
X67380952Y-72684819D02*
X67285714Y-72684819D01*
X68190476Y-72684819D02*
X68380952Y-72684819D01*
X68380952Y-72684819D02*
X68476190Y-72637200D01*
X68476190Y-72637200D02*
X68523809Y-72589580D01*
X68523809Y-72589580D02*
X68619047Y-72446723D01*
X68619047Y-72446723D02*
X68666666Y-72256247D01*
X68666666Y-72256247D02*
X68666666Y-71875295D01*
X68666666Y-71875295D02*
X68619047Y-71780057D01*
X68619047Y-71780057D02*
X68571428Y-71732438D01*
X68571428Y-71732438D02*
X68476190Y-71684819D01*
X68476190Y-71684819D02*
X68285714Y-71684819D01*
X68285714Y-71684819D02*
X68190476Y-71732438D01*
X68190476Y-71732438D02*
X68142857Y-71780057D01*
X68142857Y-71780057D02*
X68095238Y-71875295D01*
X68095238Y-71875295D02*
X68095238Y-72113390D01*
X68095238Y-72113390D02*
X68142857Y-72208628D01*
X68142857Y-72208628D02*
X68190476Y-72256247D01*
X68190476Y-72256247D02*
X68285714Y-72303866D01*
X68285714Y-72303866D02*
X68476190Y-72303866D01*
X68476190Y-72303866D02*
X68571428Y-72256247D01*
X68571428Y-72256247D02*
X68619047Y-72208628D01*
X68619047Y-72208628D02*
X68666666Y-72113390D01*
X89966666Y-27984819D02*
X89966666Y-28699104D01*
X89966666Y-28699104D02*
X89919047Y-28841961D01*
X89919047Y-28841961D02*
X89823809Y-28937200D01*
X89823809Y-28937200D02*
X89680952Y-28984819D01*
X89680952Y-28984819D02*
X89585714Y-28984819D01*
X90919047Y-27984819D02*
X90442857Y-27984819D01*
X90442857Y-27984819D02*
X90395238Y-28461009D01*
X90395238Y-28461009D02*
X90442857Y-28413390D01*
X90442857Y-28413390D02*
X90538095Y-28365771D01*
X90538095Y-28365771D02*
X90776190Y-28365771D01*
X90776190Y-28365771D02*
X90871428Y-28413390D01*
X90871428Y-28413390D02*
X90919047Y-28461009D01*
X90919047Y-28461009D02*
X90966666Y-28556247D01*
X90966666Y-28556247D02*
X90966666Y-28794342D01*
X90966666Y-28794342D02*
X90919047Y-28889580D01*
X90919047Y-28889580D02*
X90871428Y-28937200D01*
X90871428Y-28937200D02*
X90776190Y-28984819D01*
X90776190Y-28984819D02*
X90538095Y-28984819D01*
X90538095Y-28984819D02*
X90442857Y-28937200D01*
X90442857Y-28937200D02*
X90395238Y-28889580D01*
X64543333Y-79354819D02*
X64210000Y-78878628D01*
X63971905Y-79354819D02*
X63971905Y-78354819D01*
X63971905Y-78354819D02*
X64352857Y-78354819D01*
X64352857Y-78354819D02*
X64448095Y-78402438D01*
X64448095Y-78402438D02*
X64495714Y-78450057D01*
X64495714Y-78450057D02*
X64543333Y-78545295D01*
X64543333Y-78545295D02*
X64543333Y-78688152D01*
X64543333Y-78688152D02*
X64495714Y-78783390D01*
X64495714Y-78783390D02*
X64448095Y-78831009D01*
X64448095Y-78831009D02*
X64352857Y-78878628D01*
X64352857Y-78878628D02*
X63971905Y-78878628D01*
X64876667Y-78354819D02*
X65543333Y-78354819D01*
X65543333Y-78354819D02*
X65114762Y-79354819D01*
X81444819Y-56032857D02*
X80968628Y-56366190D01*
X81444819Y-56604285D02*
X80444819Y-56604285D01*
X80444819Y-56604285D02*
X80444819Y-56223333D01*
X80444819Y-56223333D02*
X80492438Y-56128095D01*
X80492438Y-56128095D02*
X80540057Y-56080476D01*
X80540057Y-56080476D02*
X80635295Y-56032857D01*
X80635295Y-56032857D02*
X80778152Y-56032857D01*
X80778152Y-56032857D02*
X80873390Y-56080476D01*
X80873390Y-56080476D02*
X80921009Y-56128095D01*
X80921009Y-56128095D02*
X80968628Y-56223333D01*
X80968628Y-56223333D02*
X80968628Y-56604285D01*
X81444819Y-55080476D02*
X81444819Y-55651904D01*
X81444819Y-55366190D02*
X80444819Y-55366190D01*
X80444819Y-55366190D02*
X80587676Y-55461428D01*
X80587676Y-55461428D02*
X80682914Y-55556666D01*
X80682914Y-55556666D02*
X80730533Y-55651904D01*
X80444819Y-54747142D02*
X80444819Y-54080476D01*
X80444819Y-54080476D02*
X81444819Y-54509047D01*
X59304819Y-59341904D02*
X60114342Y-59341904D01*
X60114342Y-59341904D02*
X60209580Y-59294285D01*
X60209580Y-59294285D02*
X60257200Y-59246666D01*
X60257200Y-59246666D02*
X60304819Y-59151428D01*
X60304819Y-59151428D02*
X60304819Y-58960952D01*
X60304819Y-58960952D02*
X60257200Y-58865714D01*
X60257200Y-58865714D02*
X60209580Y-58818095D01*
X60209580Y-58818095D02*
X60114342Y-58770476D01*
X60114342Y-58770476D02*
X59304819Y-58770476D01*
X59400057Y-58341904D02*
X59352438Y-58294285D01*
X59352438Y-58294285D02*
X59304819Y-58199047D01*
X59304819Y-58199047D02*
X59304819Y-57960952D01*
X59304819Y-57960952D02*
X59352438Y-57865714D01*
X59352438Y-57865714D02*
X59400057Y-57818095D01*
X59400057Y-57818095D02*
X59495295Y-57770476D01*
X59495295Y-57770476D02*
X59590533Y-57770476D01*
X59590533Y-57770476D02*
X59733390Y-57818095D01*
X59733390Y-57818095D02*
X60304819Y-58389523D01*
X60304819Y-58389523D02*
X60304819Y-57770476D01*
X66679580Y-90766666D02*
X66727200Y-90814285D01*
X66727200Y-90814285D02*
X66774819Y-90957142D01*
X66774819Y-90957142D02*
X66774819Y-91052380D01*
X66774819Y-91052380D02*
X66727200Y-91195237D01*
X66727200Y-91195237D02*
X66631961Y-91290475D01*
X66631961Y-91290475D02*
X66536723Y-91338094D01*
X66536723Y-91338094D02*
X66346247Y-91385713D01*
X66346247Y-91385713D02*
X66203390Y-91385713D01*
X66203390Y-91385713D02*
X66012914Y-91338094D01*
X66012914Y-91338094D02*
X65917676Y-91290475D01*
X65917676Y-91290475D02*
X65822438Y-91195237D01*
X65822438Y-91195237D02*
X65774819Y-91052380D01*
X65774819Y-91052380D02*
X65774819Y-90957142D01*
X65774819Y-90957142D02*
X65822438Y-90814285D01*
X65822438Y-90814285D02*
X65870057Y-90766666D01*
X65774819Y-89909523D02*
X65774819Y-90099999D01*
X65774819Y-90099999D02*
X65822438Y-90195237D01*
X65822438Y-90195237D02*
X65870057Y-90242856D01*
X65870057Y-90242856D02*
X66012914Y-90338094D01*
X66012914Y-90338094D02*
X66203390Y-90385713D01*
X66203390Y-90385713D02*
X66584342Y-90385713D01*
X66584342Y-90385713D02*
X66679580Y-90338094D01*
X66679580Y-90338094D02*
X66727200Y-90290475D01*
X66727200Y-90290475D02*
X66774819Y-90195237D01*
X66774819Y-90195237D02*
X66774819Y-90004761D01*
X66774819Y-90004761D02*
X66727200Y-89909523D01*
X66727200Y-89909523D02*
X66679580Y-89861904D01*
X66679580Y-89861904D02*
X66584342Y-89814285D01*
X66584342Y-89814285D02*
X66346247Y-89814285D01*
X66346247Y-89814285D02*
X66251009Y-89861904D01*
X66251009Y-89861904D02*
X66203390Y-89909523D01*
X66203390Y-89909523D02*
X66155771Y-90004761D01*
X66155771Y-90004761D02*
X66155771Y-90195237D01*
X66155771Y-90195237D02*
X66203390Y-90290475D01*
X66203390Y-90290475D02*
X66251009Y-90338094D01*
X66251009Y-90338094D02*
X66346247Y-90385713D01*
X62183333Y-30559580D02*
X62135714Y-30607200D01*
X62135714Y-30607200D02*
X61992857Y-30654819D01*
X61992857Y-30654819D02*
X61897619Y-30654819D01*
X61897619Y-30654819D02*
X61754762Y-30607200D01*
X61754762Y-30607200D02*
X61659524Y-30511961D01*
X61659524Y-30511961D02*
X61611905Y-30416723D01*
X61611905Y-30416723D02*
X61564286Y-30226247D01*
X61564286Y-30226247D02*
X61564286Y-30083390D01*
X61564286Y-30083390D02*
X61611905Y-29892914D01*
X61611905Y-29892914D02*
X61659524Y-29797676D01*
X61659524Y-29797676D02*
X61754762Y-29702438D01*
X61754762Y-29702438D02*
X61897619Y-29654819D01*
X61897619Y-29654819D02*
X61992857Y-29654819D01*
X61992857Y-29654819D02*
X62135714Y-29702438D01*
X62135714Y-29702438D02*
X62183333Y-29750057D01*
X63040476Y-29988152D02*
X63040476Y-30654819D01*
X62802381Y-29607200D02*
X62564286Y-30321485D01*
X62564286Y-30321485D02*
X63183333Y-30321485D01*
X68609580Y-62016666D02*
X68657200Y-62064285D01*
X68657200Y-62064285D02*
X68704819Y-62207142D01*
X68704819Y-62207142D02*
X68704819Y-62302380D01*
X68704819Y-62302380D02*
X68657200Y-62445237D01*
X68657200Y-62445237D02*
X68561961Y-62540475D01*
X68561961Y-62540475D02*
X68466723Y-62588094D01*
X68466723Y-62588094D02*
X68276247Y-62635713D01*
X68276247Y-62635713D02*
X68133390Y-62635713D01*
X68133390Y-62635713D02*
X67942914Y-62588094D01*
X67942914Y-62588094D02*
X67847676Y-62540475D01*
X67847676Y-62540475D02*
X67752438Y-62445237D01*
X67752438Y-62445237D02*
X67704819Y-62302380D01*
X67704819Y-62302380D02*
X67704819Y-62207142D01*
X67704819Y-62207142D02*
X67752438Y-62064285D01*
X67752438Y-62064285D02*
X67800057Y-62016666D01*
X68704819Y-61064285D02*
X68704819Y-61635713D01*
X68704819Y-61349999D02*
X67704819Y-61349999D01*
X67704819Y-61349999D02*
X67847676Y-61445237D01*
X67847676Y-61445237D02*
X67942914Y-61540475D01*
X67942914Y-61540475D02*
X67990533Y-61635713D01*
X80684819Y-77591666D02*
X80208628Y-77924999D01*
X80684819Y-78163094D02*
X79684819Y-78163094D01*
X79684819Y-78163094D02*
X79684819Y-77782142D01*
X79684819Y-77782142D02*
X79732438Y-77686904D01*
X79732438Y-77686904D02*
X79780057Y-77639285D01*
X79780057Y-77639285D02*
X79875295Y-77591666D01*
X79875295Y-77591666D02*
X80018152Y-77591666D01*
X80018152Y-77591666D02*
X80113390Y-77639285D01*
X80113390Y-77639285D02*
X80161009Y-77686904D01*
X80161009Y-77686904D02*
X80208628Y-77782142D01*
X80208628Y-77782142D02*
X80208628Y-78163094D01*
X80018152Y-76734523D02*
X80684819Y-76734523D01*
X79637200Y-76972618D02*
X80351485Y-77210713D01*
X80351485Y-77210713D02*
X80351485Y-76591666D01*
X72398095Y-21654819D02*
X72398095Y-22464342D01*
X72398095Y-22464342D02*
X72445714Y-22559580D01*
X72445714Y-22559580D02*
X72493333Y-22607200D01*
X72493333Y-22607200D02*
X72588571Y-22654819D01*
X72588571Y-22654819D02*
X72779047Y-22654819D01*
X72779047Y-22654819D02*
X72874285Y-22607200D01*
X72874285Y-22607200D02*
X72921904Y-22559580D01*
X72921904Y-22559580D02*
X72969523Y-22464342D01*
X72969523Y-22464342D02*
X72969523Y-21654819D01*
X73969523Y-22654819D02*
X73398095Y-22654819D01*
X73683809Y-22654819D02*
X73683809Y-21654819D01*
X73683809Y-21654819D02*
X73588571Y-21797676D01*
X73588571Y-21797676D02*
X73493333Y-21892914D01*
X73493333Y-21892914D02*
X73398095Y-21940533D01*
X68398094Y-26669104D02*
X68874284Y-26669104D01*
X68302856Y-26954819D02*
X68636189Y-25954819D01*
X68636189Y-25954819D02*
X68969522Y-26954819D01*
X69302856Y-26288152D02*
X69302856Y-26954819D01*
X69302856Y-26383390D02*
X69350475Y-26335771D01*
X69350475Y-26335771D02*
X69445713Y-26288152D01*
X69445713Y-26288152D02*
X69588570Y-26288152D01*
X69588570Y-26288152D02*
X69683808Y-26335771D01*
X69683808Y-26335771D02*
X69731427Y-26431009D01*
X69731427Y-26431009D02*
X69731427Y-26954819D01*
X70064761Y-26288152D02*
X70445713Y-26288152D01*
X70207618Y-25954819D02*
X70207618Y-26811961D01*
X70207618Y-26811961D02*
X70255237Y-26907200D01*
X70255237Y-26907200D02*
X70350475Y-26954819D01*
X70350475Y-26954819D02*
X70445713Y-26954819D01*
X71159999Y-26907200D02*
X71064761Y-26954819D01*
X71064761Y-26954819D02*
X70874285Y-26954819D01*
X70874285Y-26954819D02*
X70779047Y-26907200D01*
X70779047Y-26907200D02*
X70731428Y-26811961D01*
X70731428Y-26811961D02*
X70731428Y-26431009D01*
X70731428Y-26431009D02*
X70779047Y-26335771D01*
X70779047Y-26335771D02*
X70874285Y-26288152D01*
X70874285Y-26288152D02*
X71064761Y-26288152D01*
X71064761Y-26288152D02*
X71159999Y-26335771D01*
X71159999Y-26335771D02*
X71207618Y-26431009D01*
X71207618Y-26431009D02*
X71207618Y-26526247D01*
X71207618Y-26526247D02*
X70731428Y-26621485D01*
X71636190Y-26288152D02*
X71636190Y-26954819D01*
X71636190Y-26383390D02*
X71683809Y-26335771D01*
X71683809Y-26335771D02*
X71779047Y-26288152D01*
X71779047Y-26288152D02*
X71921904Y-26288152D01*
X71921904Y-26288152D02*
X72017142Y-26335771D01*
X72017142Y-26335771D02*
X72064761Y-26431009D01*
X72064761Y-26431009D02*
X72064761Y-26954819D01*
X72540952Y-26288152D02*
X72540952Y-26954819D01*
X72540952Y-26383390D02*
X72588571Y-26335771D01*
X72588571Y-26335771D02*
X72683809Y-26288152D01*
X72683809Y-26288152D02*
X72826666Y-26288152D01*
X72826666Y-26288152D02*
X72921904Y-26335771D01*
X72921904Y-26335771D02*
X72969523Y-26431009D01*
X72969523Y-26431009D02*
X72969523Y-26954819D01*
X73874285Y-26954819D02*
X73874285Y-26431009D01*
X73874285Y-26431009D02*
X73826666Y-26335771D01*
X73826666Y-26335771D02*
X73731428Y-26288152D01*
X73731428Y-26288152D02*
X73540952Y-26288152D01*
X73540952Y-26288152D02*
X73445714Y-26335771D01*
X73874285Y-26907200D02*
X73779047Y-26954819D01*
X73779047Y-26954819D02*
X73540952Y-26954819D01*
X73540952Y-26954819D02*
X73445714Y-26907200D01*
X73445714Y-26907200D02*
X73398095Y-26811961D01*
X73398095Y-26811961D02*
X73398095Y-26716723D01*
X73398095Y-26716723D02*
X73445714Y-26621485D01*
X73445714Y-26621485D02*
X73540952Y-26573866D01*
X73540952Y-26573866D02*
X73779047Y-26573866D01*
X73779047Y-26573866D02*
X73874285Y-26526247D01*
X75064762Y-26669104D02*
X75540952Y-26669104D01*
X74969524Y-26954819D02*
X75302857Y-25954819D01*
X75302857Y-25954819D02*
X75636190Y-26954819D01*
X75969524Y-26954819D02*
X75969524Y-26288152D01*
X75969524Y-26478628D02*
X76017143Y-26383390D01*
X76017143Y-26383390D02*
X76064762Y-26335771D01*
X76064762Y-26335771D02*
X76160000Y-26288152D01*
X76160000Y-26288152D02*
X76255238Y-26288152D01*
X76969524Y-26907200D02*
X76874286Y-26954819D01*
X76874286Y-26954819D02*
X76683810Y-26954819D01*
X76683810Y-26954819D02*
X76588572Y-26907200D01*
X76588572Y-26907200D02*
X76540953Y-26811961D01*
X76540953Y-26811961D02*
X76540953Y-26431009D01*
X76540953Y-26431009D02*
X76588572Y-26335771D01*
X76588572Y-26335771D02*
X76683810Y-26288152D01*
X76683810Y-26288152D02*
X76874286Y-26288152D01*
X76874286Y-26288152D02*
X76969524Y-26335771D01*
X76969524Y-26335771D02*
X77017143Y-26431009D01*
X77017143Y-26431009D02*
X77017143Y-26526247D01*
X77017143Y-26526247D02*
X76540953Y-26621485D01*
X77874286Y-26954819D02*
X77874286Y-26431009D01*
X77874286Y-26431009D02*
X77826667Y-26335771D01*
X77826667Y-26335771D02*
X77731429Y-26288152D01*
X77731429Y-26288152D02*
X77540953Y-26288152D01*
X77540953Y-26288152D02*
X77445715Y-26335771D01*
X77874286Y-26907200D02*
X77779048Y-26954819D01*
X77779048Y-26954819D02*
X77540953Y-26954819D01*
X77540953Y-26954819D02*
X77445715Y-26907200D01*
X77445715Y-26907200D02*
X77398096Y-26811961D01*
X77398096Y-26811961D02*
X77398096Y-26716723D01*
X77398096Y-26716723D02*
X77445715Y-26621485D01*
X77445715Y-26621485D02*
X77540953Y-26573866D01*
X77540953Y-26573866D02*
X77779048Y-26573866D01*
X77779048Y-26573866D02*
X77874286Y-26526247D01*
D13*
%TO.C,R18*%
X57877500Y-31862742D02*
X57877500Y-32337258D01*
X58922500Y-31862742D02*
X58922500Y-32337258D01*
%TO.C,J1*%
X50470000Y-32570000D02*
X50470000Y-50410000D01*
X50470000Y-32570000D02*
X53130000Y-32570000D01*
X50470000Y-50410000D02*
X53130000Y-50410000D01*
X51800000Y-29970000D02*
X53130000Y-29970000D01*
X53130000Y-29970000D02*
X53130000Y-31300000D01*
X53130000Y-32570000D02*
X53130000Y-50410000D01*
%TO.C,R8*%
X79377500Y-73562742D02*
X79377500Y-74037258D01*
X80422500Y-73562742D02*
X80422500Y-74037258D01*
%TO.C,U5*%
X81100000Y-57010000D02*
X80300000Y-57010000D01*
X81100000Y-57010000D02*
X81900000Y-57010000D01*
X81100000Y-60130000D02*
X80300000Y-60130000D01*
X81100000Y-60130000D02*
X81900000Y-60130000D01*
X82640000Y-60410000D02*
X82160000Y-60410000D01*
X82400000Y-60080000D01*
X82640000Y-60410000D01*
G36*
X82640000Y-60410000D02*
G01*
X82160000Y-60410000D01*
X82400000Y-60080000D01*
X82640000Y-60410000D01*
G37*
%TO.C,D1*%
X70090000Y-68100000D02*
X70090000Y-70100000D01*
X70090000Y-68100000D02*
X73950000Y-68100000D01*
X70090000Y-70100000D02*
X73950000Y-70100000D01*
%TO.C,D2*%
X70090000Y-65800000D02*
X70090000Y-67800000D01*
X70090000Y-65800000D02*
X73950000Y-65800000D01*
X70090000Y-67800000D02*
X73950000Y-67800000D01*
%TO.C,R16*%
X81897500Y-61987258D02*
X81897500Y-61512742D01*
X82942500Y-61987258D02*
X82942500Y-61512742D01*
D12*
%TO.C,U3*%
X84875000Y-33485000D02*
X85100000Y-33485000D01*
X84875000Y-36735000D02*
X84875000Y-33485000D01*
X84875000Y-36735000D02*
X85100000Y-36735000D01*
X88125000Y-33485000D02*
X87900000Y-33485000D01*
X88125000Y-36735000D02*
X87900000Y-36735000D01*
X88125000Y-36735000D02*
X88125000Y-33485000D01*
D13*
X85100000Y-37210000D02*
X84770000Y-37450000D01*
X84770000Y-36970000D01*
X85100000Y-37210000D01*
G36*
X85100000Y-37210000D02*
G01*
X84770000Y-37450000D01*
X84770000Y-36970000D01*
X85100000Y-37210000D01*
G37*
D10*
%TO.C,MT1*%
X59150000Y-83000000D02*
X59370000Y-83000000D01*
X59150000Y-83720000D02*
X59150000Y-83000000D01*
X59150000Y-86000000D02*
X59150000Y-85480000D01*
X61630000Y-83000000D02*
X61850000Y-83000000D01*
X61850000Y-83000000D02*
X61850000Y-83720000D01*
X61850000Y-86200000D02*
X61630000Y-86200000D01*
X61850000Y-86200000D02*
X61850000Y-85480000D01*
X59150000Y-86560000D02*
X58790000Y-86200000D01*
X59150000Y-86200000D01*
X59150000Y-86560000D01*
G36*
X59150000Y-86560000D02*
G01*
X58790000Y-86200000D01*
X59150000Y-86200000D01*
X59150000Y-86560000D01*
G37*
D13*
%TO.C,J7*%
X70220000Y-76270000D02*
X70220000Y-83950000D01*
X70220000Y-76270000D02*
X72880000Y-76270000D01*
X70220000Y-83950000D02*
X72880000Y-83950000D01*
X71550000Y-73670000D02*
X72880000Y-73670000D01*
X72880000Y-73670000D02*
X72880000Y-75000000D01*
X72880000Y-76270000D02*
X72880000Y-83950000D01*
%TO.C,R3*%
X86167500Y-78652742D02*
X86167500Y-79127258D01*
X87212500Y-78652742D02*
X87212500Y-79127258D01*
%TO.C,SW2*%
X56320000Y-36330000D02*
X56320000Y-40830000D01*
X58820000Y-42080000D02*
X60320000Y-42080000D01*
X60320000Y-35080000D02*
X58820000Y-35080000D01*
X62820000Y-40830000D02*
X62820000Y-36330000D01*
%TO.C,C2*%
X60090000Y-31959420D02*
X60090000Y-32240580D01*
X61110000Y-31959420D02*
X61110000Y-32240580D01*
%TO.C,J3*%
X68450000Y-91070000D02*
X68450000Y-93730000D01*
X71050000Y-91070000D02*
X68450000Y-91070000D01*
X71050000Y-91070000D02*
X71050000Y-93730000D01*
X71050000Y-93730000D02*
X68450000Y-93730000D01*
X73650000Y-92400000D02*
X73650000Y-93730000D01*
X73650000Y-93730000D02*
X72320000Y-93730000D01*
%TO.C,R5*%
X78277500Y-80637258D02*
X78277500Y-80162742D01*
X79322500Y-80637258D02*
X79322500Y-80162742D01*
%TO.C,R2*%
X86167500Y-76127258D02*
X86167500Y-75652742D01*
X87212500Y-76127258D02*
X87212500Y-75652742D01*
%TO.C,C3*%
X71459420Y-64390000D02*
X71740580Y-64390000D01*
X71459420Y-65410000D02*
X71740580Y-65410000D01*
%TO.C,R1*%
X83062742Y-79777500D02*
X83537258Y-79777500D01*
X83062742Y-80822500D02*
X83537258Y-80822500D01*
%TO.C,Q3*%
X76445000Y-77290000D02*
X76445000Y-78180000D01*
X76445000Y-78180000D02*
X74595000Y-78180000D01*
X76460000Y-75060000D02*
X74610000Y-75060000D01*
X76460000Y-75060000D02*
X76460000Y-75950000D01*
X74220000Y-75050000D02*
X73980000Y-74720000D01*
X74460000Y-74720000D01*
X74220000Y-75050000D01*
G36*
X74220000Y-75050000D02*
G01*
X73980000Y-74720000D01*
X74460000Y-74720000D01*
X74220000Y-75050000D01*
G37*
%TO.C,U4*%
X70440000Y-62000000D02*
X70440000Y-61200000D01*
X70440000Y-62000000D02*
X70440000Y-62800000D01*
X73560000Y-62000000D02*
X73560000Y-61200000D01*
X73560000Y-62000000D02*
X73560000Y-62800000D01*
X70490000Y-63300000D02*
X70160000Y-63540000D01*
X70160000Y-63060000D01*
X70490000Y-63300000D01*
G36*
X70490000Y-63300000D02*
G01*
X70160000Y-63540000D01*
X70160000Y-63060000D01*
X70490000Y-63300000D01*
G37*
%TO.C,Q1*%
X83745000Y-74490000D02*
X83745000Y-75380000D01*
X83745000Y-75380000D02*
X81895000Y-75380000D01*
X83760000Y-72260000D02*
X81910000Y-72260000D01*
X83760000Y-72260000D02*
X83760000Y-73150000D01*
X81520000Y-72250000D02*
X81280000Y-71920000D01*
X81760000Y-71920000D01*
X81520000Y-72250000D01*
G36*
X81520000Y-72250000D02*
G01*
X81280000Y-71920000D01*
X81760000Y-71920000D01*
X81520000Y-72250000D01*
G37*
%TO.C,J2*%
X50470000Y-70850000D02*
X50470000Y-88690000D01*
X50470000Y-70850000D02*
X53130000Y-70850000D01*
X50470000Y-88690000D02*
X53130000Y-88690000D01*
X51800000Y-68250000D02*
X53130000Y-68250000D01*
X53130000Y-68250000D02*
X53130000Y-69580000D01*
X53130000Y-70850000D02*
X53130000Y-88690000D01*
%TO.C,R6*%
X64957258Y-79557500D02*
X64482742Y-79557500D01*
X64957258Y-80602500D02*
X64482742Y-80602500D01*
%TO.C,J4*%
X88970000Y-70850000D02*
X88970000Y-88690000D01*
X88970000Y-70850000D02*
X91630000Y-70850000D01*
X88970000Y-88690000D02*
X91630000Y-88690000D01*
X90300000Y-68250000D02*
X91630000Y-68250000D01*
X91630000Y-68250000D02*
X91630000Y-69580000D01*
X91630000Y-70850000D02*
X91630000Y-88690000D01*
%TO.C,C5*%
X85190580Y-38620000D02*
X84909420Y-38620000D01*
X85190580Y-39640000D02*
X84909420Y-39640000D01*
%TO.C,U6*%
X60500000Y-88040000D02*
X58550000Y-88040000D01*
X60500000Y-88040000D02*
X62450000Y-88040000D01*
X60500000Y-93160000D02*
X58550000Y-93160000D01*
X60500000Y-93160000D02*
X62450000Y-93160000D01*
X57800000Y-88135000D02*
X57560000Y-87805000D01*
X58040000Y-87805000D01*
X57800000Y-88135000D01*
G36*
X57800000Y-88135000D02*
G01*
X57560000Y-87805000D01*
X58040000Y-87805000D01*
X57800000Y-88135000D01*
G37*
%TO.C,Q2*%
X76445000Y-80690000D02*
X76445000Y-81580000D01*
X76445000Y-81580000D02*
X74595000Y-81580000D01*
X76460000Y-78460000D02*
X74610000Y-78460000D01*
X76460000Y-78460000D02*
X76460000Y-79350000D01*
X74220000Y-78450000D02*
X73980000Y-78120000D01*
X74460000Y-78120000D01*
X74220000Y-78450000D01*
G36*
X74220000Y-78450000D02*
G01*
X73980000Y-78120000D01*
X74460000Y-78120000D01*
X74220000Y-78450000D01*
G37*
%TO.C,J9*%
X66670000Y-76270000D02*
X66670000Y-83950000D01*
X66670000Y-76270000D02*
X69330000Y-76270000D01*
X66670000Y-83950000D02*
X69330000Y-83950000D01*
X68000000Y-73670000D02*
X69330000Y-73670000D01*
X69330000Y-73670000D02*
X69330000Y-75000000D01*
X69330000Y-76270000D02*
X69330000Y-83950000D01*
%TO.C,J5*%
X88970000Y-32570000D02*
X88970000Y-50410000D01*
X88970000Y-32570000D02*
X91630000Y-32570000D01*
X88970000Y-50410000D02*
X91630000Y-50410000D01*
X90300000Y-29970000D02*
X91630000Y-29970000D01*
X91630000Y-29970000D02*
X91630000Y-31300000D01*
X91630000Y-32570000D02*
X91630000Y-50410000D01*
%TO.C,R7*%
X64947258Y-77017500D02*
X64472742Y-77017500D01*
X64947258Y-78062500D02*
X64472742Y-78062500D01*
%TO.C,R17*%
X81897500Y-55152742D02*
X81897500Y-55627258D01*
X82942500Y-55152742D02*
X82942500Y-55627258D01*
%TO.C,U2*%
X50965000Y-58580000D02*
X50965000Y-56380000D01*
X50965000Y-58580000D02*
X50965000Y-60780000D01*
X59035000Y-58580000D02*
X59035000Y-56380000D01*
X59035000Y-58580000D02*
X59035000Y-60780000D01*
X58575000Y-54720000D02*
X58335000Y-54390000D01*
X58815000Y-54390000D01*
X58575000Y-54720000D01*
G36*
X58575000Y-54720000D02*
G01*
X58335000Y-54390000D01*
X58815000Y-54390000D01*
X58575000Y-54720000D01*
G37*
%TO.C,C6*%
X64420000Y-90740580D02*
X64420000Y-90459420D01*
X65440000Y-90740580D02*
X65440000Y-90459420D01*
%TO.C,C4*%
X61840000Y-31959420D02*
X61840000Y-32240580D01*
X62860000Y-31959420D02*
X62860000Y-32240580D01*
%TO.C,C1*%
X69060000Y-61709420D02*
X69060000Y-61990580D01*
X70080000Y-61709420D02*
X70080000Y-61990580D01*
%TO.C,R4*%
X78277500Y-77187742D02*
X78277500Y-77662258D01*
X79322500Y-77187742D02*
X79322500Y-77662258D01*
%TO.C,U1*%
X64160000Y-23500000D02*
X64160000Y-30250000D01*
X64160000Y-23500000D02*
X82160000Y-23500000D01*
X64160000Y-48250000D02*
X64160000Y-49000000D01*
X64160000Y-49000000D02*
X65160000Y-49000000D01*
X82160000Y-23500000D02*
X82160000Y-30250000D01*
X82160000Y-29500000D02*
X64160000Y-29500000D01*
X82160000Y-48250000D02*
X82160000Y-49000000D01*
X82160000Y-49000000D02*
X81160000Y-49000000D01*
%TD*%
M02*
