%TF.GenerationSoftware,KiCad,Pcbnew,9.0.1*%
%TF.CreationDate,2025-05-06T09:52:00+02:00*%
%TF.ProjectId,ESP32 adon V3,45535033-3220-4616-946f-6e2056332e6b,rev?*%
%TF.SameCoordinates,Original*%
%TF.FileFunction,Copper,L1,Top*%
%TF.FilePolarity,Positive*%
%FSLAX46Y46*%
G04 Gerber Fmt 4.6, Leading zero omitted, Abs format (unit mm)*
G04 Created by KiCad (PCBNEW 9.0.1) date 2025-05-06 09:52:00*
%MOMM*%
%LPD*%
G01*
G04 APERTURE LIST*
G04 Aperture macros list*
%AMRoundRect*
0 Rectangle with rounded corners*
0 $1 Rounding radius*
0 $2 $3 $4 $5 $6 $7 $8 $9 X,Y pos of 4 corners*
0 Add a 4 corners polygon primitive as box body*
4,1,4,$2,$3,$4,$5,$6,$7,$8,$9,$2,$3,0*
0 Add four circle primitives for the rounded corners*
1,1,$1+$1,$2,$3*
1,1,$1+$1,$4,$5*
1,1,$1+$1,$6,$7*
1,1,$1+$1,$8,$9*
0 Add four rect primitives between the rounded corners*
20,1,$1+$1,$2,$3,$4,$5,0*
20,1,$1+$1,$4,$5,$6,$7,0*
20,1,$1+$1,$6,$7,$8,$9,0*
20,1,$1+$1,$8,$9,$2,$3,0*%
G04 Aperture macros list end*
%TA.AperFunction,SMDPad,CuDef*%
%ADD10RoundRect,0.200000X-0.275000X0.200000X-0.275000X-0.200000X0.275000X-0.200000X0.275000X0.200000X0*%
%TD*%
%TA.AperFunction,ComponentPad*%
%ADD11R,1.700000X1.700000*%
%TD*%
%TA.AperFunction,ComponentPad*%
%ADD12O,1.700000X1.700000*%
%TD*%
%TA.AperFunction,SMDPad,CuDef*%
%ADD13RoundRect,0.150000X0.512500X0.150000X-0.512500X0.150000X-0.512500X-0.150000X0.512500X-0.150000X0*%
%TD*%
%TA.AperFunction,SMDPad,CuDef*%
%ADD14RoundRect,0.250000X-0.300000X-0.300000X0.300000X-0.300000X0.300000X0.300000X-0.300000X0.300000X0*%
%TD*%
%TA.AperFunction,SMDPad,CuDef*%
%ADD15RoundRect,0.200000X0.275000X-0.200000X0.275000X0.200000X-0.275000X0.200000X-0.275000X-0.200000X0*%
%TD*%
%TA.AperFunction,SMDPad,CuDef*%
%ADD16R,0.250000X1.100000*%
%TD*%
%TA.AperFunction,SMDPad,CuDef*%
%ADD17R,0.250000X0.675000*%
%TD*%
%TA.AperFunction,SMDPad,CuDef*%
%ADD18R,0.675000X0.250000*%
%TD*%
%TA.AperFunction,SMDPad,CuDef*%
%ADD19RoundRect,0.250000X0.750000X-0.250000X0.750000X0.250000X-0.750000X0.250000X-0.750000X-0.250000X0*%
%TD*%
%TA.AperFunction,ComponentPad*%
%ADD20C,2.000000*%
%TD*%
%TA.AperFunction,SMDPad,CuDef*%
%ADD21RoundRect,0.225000X-0.250000X0.225000X-0.250000X-0.225000X0.250000X-0.225000X0.250000X0.225000X0*%
%TD*%
%TA.AperFunction,SMDPad,CuDef*%
%ADD22RoundRect,0.090000X0.485000X-0.210000X0.485000X0.210000X-0.485000X0.210000X-0.485000X-0.210000X0*%
%TD*%
%TA.AperFunction,SMDPad,CuDef*%
%ADD23RoundRect,0.045000X0.530000X-0.105000X0.530000X0.105000X-0.530000X0.105000X-0.530000X-0.105000X0*%
%TD*%
%TA.AperFunction,ComponentPad*%
%ADD24RoundRect,0.150000X0.750000X-0.350000X0.750000X0.350000X-0.750000X0.350000X-0.750000X-0.350000X0*%
%TD*%
%TA.AperFunction,ComponentPad*%
%ADD25RoundRect,0.150000X0.950000X-0.350000X0.950000X0.350000X-0.950000X0.350000X-0.950000X-0.350000X0*%
%TD*%
%TA.AperFunction,SMDPad,CuDef*%
%ADD26RoundRect,0.225000X-0.225000X-0.250000X0.225000X-0.250000X0.225000X0.250000X-0.225000X0.250000X0*%
%TD*%
%TA.AperFunction,SMDPad,CuDef*%
%ADD27RoundRect,0.200000X-0.200000X-0.275000X0.200000X-0.275000X0.200000X0.275000X-0.200000X0.275000X0*%
%TD*%
%TA.AperFunction,SMDPad,CuDef*%
%ADD28RoundRect,0.162500X-0.447500X-0.162500X0.447500X-0.162500X0.447500X0.162500X-0.447500X0.162500X0*%
%TD*%
%TA.AperFunction,SMDPad,CuDef*%
%ADD29RoundRect,0.150000X0.150000X-0.512500X0.150000X0.512500X-0.150000X0.512500X-0.150000X-0.512500X0*%
%TD*%
%TA.AperFunction,SMDPad,CuDef*%
%ADD30RoundRect,0.200000X0.200000X0.275000X-0.200000X0.275000X-0.200000X-0.275000X0.200000X-0.275000X0*%
%TD*%
%TA.AperFunction,SMDPad,CuDef*%
%ADD31RoundRect,0.225000X0.225000X0.250000X-0.225000X0.250000X-0.225000X-0.250000X0.225000X-0.250000X0*%
%TD*%
%TA.AperFunction,SMDPad,CuDef*%
%ADD32RoundRect,0.150000X-0.825000X-0.150000X0.825000X-0.150000X0.825000X0.150000X-0.825000X0.150000X0*%
%TD*%
%TA.AperFunction,SMDPad,CuDef*%
%ADD33RoundRect,0.100000X-0.100000X0.637500X-0.100000X-0.637500X0.100000X-0.637500X0.100000X0.637500X0*%
%TD*%
%TA.AperFunction,SMDPad,CuDef*%
%ADD34RoundRect,0.225000X0.250000X-0.225000X0.250000X0.225000X-0.250000X0.225000X-0.250000X-0.225000X0*%
%TD*%
%TA.AperFunction,SMDPad,CuDef*%
%ADD35RoundRect,0.250000X0.250000X0.750000X-0.250000X0.750000X-0.250000X-0.750000X0.250000X-0.750000X0*%
%TD*%
%TA.AperFunction,SMDPad,CuDef*%
%ADD36RoundRect,0.250000X-0.250000X-0.750000X0.250000X-0.750000X0.250000X0.750000X-0.250000X0.750000X0*%
%TD*%
%TA.AperFunction,SMDPad,CuDef*%
%ADD37R,1.500000X0.900000*%
%TD*%
%TA.AperFunction,SMDPad,CuDef*%
%ADD38R,0.800000X0.800000*%
%TD*%
%TA.AperFunction,ViaPad*%
%ADD39C,0.700000*%
%TD*%
%TA.AperFunction,ViaPad*%
%ADD40C,0.600000*%
%TD*%
%TA.AperFunction,ViaPad*%
%ADD41C,0.500000*%
%TD*%
%TA.AperFunction,Conductor*%
%ADD42C,0.300000*%
%TD*%
%TA.AperFunction,Conductor*%
%ADD43C,0.250000*%
%TD*%
%TA.AperFunction,Conductor*%
%ADD44C,0.500000*%
%TD*%
%TA.AperFunction,Conductor*%
%ADD45C,0.550000*%
%TD*%
%TA.AperFunction,Conductor*%
%ADD46C,0.600000*%
%TD*%
%TA.AperFunction,Conductor*%
%ADD47C,0.200000*%
%TD*%
G04 APERTURE END LIST*
D10*
%TO.P,R18,1*%
%TO.N,+3.3V*%
X58400000Y-31275000D03*
%TO.P,R18,2*%
%TO.N,Net-(U1-EN{slash}CHIP_PU)*%
X58400000Y-32925000D03*
%TD*%
D11*
%TO.P,J1,1,Pin_1*%
%TO.N,Net-(J1-Pin_1)*%
X51800000Y-31300000D03*
D12*
%TO.P,J1,2,Pin_2*%
%TO.N,Net-(J1-Pin_2)*%
X51800000Y-33840000D03*
%TO.P,J1,3,Pin_3*%
%TO.N,Net-(J1-Pin_3)*%
X51800000Y-36380000D03*
%TO.P,J1,4,Pin_4*%
%TO.N,Net-(J1-Pin_4)*%
X51800000Y-38920000D03*
%TO.P,J1,5,Pin_5*%
%TO.N,Net-(J1-Pin_5)*%
X51800000Y-41460000D03*
%TO.P,J1,6,Pin_6*%
%TO.N,Net-(J1-Pin_6)*%
X51800000Y-44000000D03*
%TO.P,J1,7,Pin_7*%
%TO.N,Net-(J1-Pin_7)*%
X51800000Y-46540000D03*
%TO.P,J1,8,Pin_8*%
%TO.N,Net-(J1-Pin_8)*%
X51800000Y-49080000D03*
%TD*%
D10*
%TO.P,R8,1*%
%TO.N,+3.3V*%
X79900000Y-72975000D03*
%TO.P,R8,2*%
%TO.N,Net-(Q1-S)*%
X79900000Y-74625000D03*
%TD*%
D13*
%TO.P,U5,1,I/O1*%
%TO.N,Net-(J6-DN1)*%
X82237500Y-59520000D03*
%TO.P,U5,2,GND*%
%TO.N,GND*%
X82237500Y-58570000D03*
%TO.P,U5,3,I/O2*%
%TO.N,Net-(J6-DP1)*%
X82237500Y-57620000D03*
%TO.P,U5,4,I/O2*%
%TO.N,/D+*%
X79962500Y-57620000D03*
%TO.P,U5,5,VBUS*%
%TO.N,+5Vin*%
X79962500Y-58570000D03*
%TO.P,U5,6,I/O1*%
%TO.N,/D-*%
X79962500Y-59520000D03*
%TD*%
D14*
%TO.P,D1,1,K*%
%TO.N,/Vin_reg*%
X70900000Y-69100000D03*
%TO.P,D1,2,A*%
%TO.N,+5V*%
X73700000Y-69100000D03*
%TD*%
%TO.P,D2,1,K*%
%TO.N,/Vin_reg*%
X70900000Y-66800000D03*
%TO.P,D2,2,A*%
%TO.N,+5Vin*%
X73700000Y-66800000D03*
%TD*%
D15*
%TO.P,R16,1*%
%TO.N,GND*%
X82420000Y-62575000D03*
%TO.P,R16,2*%
%TO.N,Net-(J6-CC1)*%
X82420000Y-60925000D03*
%TD*%
D16*
%TO.P,U3,1,ADDR*%
%TO.N,GND*%
X85500000Y-37260000D03*
%TO.P,U3,2,ALERT/RDY*%
%TO.N,Net-(J11-Pin_1)*%
X86000000Y-37260000D03*
%TO.P,U3,3,GND*%
%TO.N,GND*%
X86500000Y-37260000D03*
%TO.P,U3,4,AIN0*%
%TO.N,Net-(J5-Pin_4)*%
X87000000Y-37260000D03*
%TO.P,U3,5,AIN1*%
%TO.N,Net-(J5-Pin_3)*%
X87500000Y-37260000D03*
%TO.P,U3,6,AIN2*%
%TO.N,Net-(J5-Pin_2)*%
X87500000Y-32960000D03*
%TO.P,U3,7,AIN3*%
%TO.N,Net-(J5-Pin_1)*%
X87000000Y-32960000D03*
%TO.P,U3,8,VDD*%
%TO.N,+5V*%
X86500000Y-32960000D03*
%TO.P,U3,9,SDA*%
%TO.N,/SDA_{5V}*%
X86000000Y-32960000D03*
%TO.P,U3,10,SCL*%
%TO.N,/SCL_{5V}*%
X85500000Y-32960000D03*
%TD*%
D17*
%TO.P,MT1,1,AP_SDO/AP_AD0*%
%TO.N,GND*%
X59750000Y-85862500D03*
%TO.P,MT1,2,RESV*%
X60250000Y-85862500D03*
%TO.P,MT1,3,RESV*%
X60750000Y-85862500D03*
%TO.P,MT1,4,INT1/INT*%
%TO.N,Net-(J13-Pin_1)*%
X61250000Y-85862500D03*
D18*
%TO.P,MT1,5,VDDIO*%
%TO.N,+3.3V*%
X61512500Y-85100000D03*
%TO.P,MT1,6,GND*%
%TO.N,GND*%
X61512500Y-84600000D03*
%TO.P,MT1,7,FSYNC*%
X61512500Y-84100000D03*
D17*
%TO.P,MT1,8,VDD*%
%TO.N,+3.3V*%
X61250000Y-83337500D03*
%TO.P,MT1,9,INT2*%
%TO.N,Net-(J14-Pin_1)*%
X60750000Y-83337500D03*
%TO.P,MT1,10,RESV*%
%TO.N,unconnected-(MT1-RESV-Pad10)_3*%
X60250000Y-83337500D03*
%TO.P,MT1,11,RESV*%
%TO.N,unconnected-(MT1-RESV-Pad10)_2*%
X59750000Y-83337500D03*
D18*
%TO.P,MT1,12,AP_CS*%
%TO.N,+3.3V*%
X59487500Y-84100000D03*
%TO.P,MT1,13,AP_SCL/AP_SCLK*%
%TO.N,/SCL_{3.3V}*%
X59487500Y-84600000D03*
%TO.P,MT1,14,AP_SDA/AP_SDIO/AP_SDI*%
%TO.N,/SDA_{3.3V}*%
X59487500Y-85100000D03*
%TD*%
D19*
%TO.P,J14,1,Pin_1*%
%TO.N,Net-(J14-Pin_1)*%
X60830000Y-82110000D03*
%TD*%
D11*
%TO.P,J7,1,Pin_1*%
%TO.N,+3.3V*%
X71550000Y-75000000D03*
D12*
%TO.P,J7,2,Pin_2*%
%TO.N,/SCL_{3.3V}*%
X71550000Y-77540000D03*
%TO.P,J7,3,Pin_3*%
%TO.N,/SDA_{3.3V}*%
X71550000Y-80080000D03*
%TO.P,J7,4,Pin_4*%
%TO.N,GND*%
X71550000Y-82620000D03*
%TD*%
D10*
%TO.P,R3,1*%
%TO.N,Net-(U1-U0RXD{slash}GPIO17)*%
X86690000Y-78065000D03*
%TO.P,R3,2*%
%TO.N,/RX*%
X86690000Y-79715000D03*
%TD*%
D20*
%TO.P,SW2,1,1*%
%TO.N,GND*%
X57320000Y-41830000D03*
X57320000Y-35330000D03*
%TO.P,SW2,2,2*%
%TO.N,Net-(U1-EN{slash}CHIP_PU)*%
X61820000Y-41830000D03*
X61820000Y-35330000D03*
%TD*%
D21*
%TO.P,C2,1*%
%TO.N,GND*%
X60600000Y-31325000D03*
%TO.P,C2,2*%
%TO.N,Net-(U1-EN{slash}CHIP_PU)*%
X60600000Y-32875000D03*
%TD*%
D11*
%TO.P,J3,1,Pin_1*%
%TO.N,+5V*%
X72320000Y-92400000D03*
D12*
%TO.P,J3,2,Pin_2*%
%TO.N,GND*%
X69780000Y-92400000D03*
%TD*%
D15*
%TO.P,R5,1*%
%TO.N,/SDA_{5V}*%
X78800000Y-81225000D03*
%TO.P,R5,2*%
%TO.N,+5V*%
X78800000Y-79575000D03*
%TD*%
D22*
%TO.P,J6,A1_B12,GND_A*%
%TO.N,GND*%
X85375000Y-61770000D03*
%TO.P,J6,A4_B9,VBUS_A*%
%TO.N,+5Vin*%
X85375000Y-60970000D03*
D23*
%TO.P,J6,A5,CC1*%
%TO.N,Net-(J6-CC1)*%
X85375000Y-59820000D03*
%TO.P,J6,A6,DP1*%
%TO.N,Net-(J6-DP1)*%
X85375000Y-58820000D03*
%TO.P,J6,A7,DN1*%
%TO.N,Net-(J6-DN1)*%
X85375000Y-58320000D03*
%TO.P,J6,A8,SBU1*%
%TO.N,unconnected-(J6-SBU1-PadA8)*%
X85375000Y-57320000D03*
D22*
%TO.P,J6,B1_A12,GND_B*%
%TO.N,GND*%
X85375000Y-55370000D03*
%TO.P,J6,B4_A9,VBUS_B*%
%TO.N,+5Vin*%
X85375000Y-56170000D03*
D23*
%TO.P,J6,B5,CC2*%
%TO.N,Net-(J6-CC2)*%
X85375000Y-56820000D03*
%TO.P,J6,B6,DP2*%
%TO.N,Net-(J6-DP1)*%
X85375000Y-57820000D03*
%TO.P,J6,B7,DN2*%
%TO.N,Net-(J6-DN1)*%
X85375000Y-59320000D03*
%TO.P,J6,B8,SBU2*%
%TO.N,unconnected-(J6-SBU2-PadB8)*%
X85375000Y-60320000D03*
D24*
%TO.P,J6,SH1,SHIELD*%
%TO.N,GND*%
X85950000Y-62890000D03*
%TO.P,J6,SH2,SHIELD*%
X85950000Y-54250000D03*
D25*
%TO.P,J6,SH3,SHIELD*%
X89950000Y-54250000D03*
%TO.P,J6,SH4,SHIELD*%
X89950000Y-62890000D03*
%TD*%
D15*
%TO.P,R2,1*%
%TO.N,Net-(U1-U0RXD{slash}GPIO17)*%
X86690000Y-76715000D03*
%TO.P,R2,2*%
%TO.N,GND*%
X86690000Y-75065000D03*
%TD*%
D26*
%TO.P,C3,1*%
%TO.N,/Vin_reg*%
X70825000Y-64900000D03*
%TO.P,C3,2*%
%TO.N,GND*%
X72375000Y-64900000D03*
%TD*%
D27*
%TO.P,R1,1*%
%TO.N,+5V*%
X82475000Y-80300000D03*
%TO.P,R1,2*%
%TO.N,/TX*%
X84125000Y-80300000D03*
%TD*%
D19*
%TO.P,J12,1,Pin_1*%
%TO.N,Net-(J12-Pin_1)*%
X55530000Y-92500000D03*
%TD*%
D28*
%TO.P,Q3,1,G*%
%TO.N,+3.3V*%
X74190000Y-75650000D03*
%TO.P,Q3,2,S*%
%TO.N,/SCL_{3.3V}*%
X74190000Y-77550000D03*
%TO.P,Q3,3,D*%
%TO.N,/SCL_{5V}*%
X76810000Y-76600000D03*
%TD*%
D29*
%TO.P,U4,1,IN*%
%TO.N,/Vin_reg*%
X71050000Y-63137500D03*
%TO.P,U4,2,GND*%
%TO.N,GND*%
X72000000Y-63137500D03*
%TO.P,U4,3,EN*%
%TO.N,/Vin_reg*%
X72950000Y-63137500D03*
%TO.P,U4,4,NC*%
%TO.N,unconnected-(U4-NC-Pad4)*%
X72950000Y-60862500D03*
%TO.P,U4,5,OUT*%
%TO.N,+3.3V*%
X71050000Y-60862500D03*
%TD*%
D28*
%TO.P,Q1,1,G*%
%TO.N,+3.3V*%
X81490000Y-72850000D03*
%TO.P,Q1,2,S*%
%TO.N,Net-(Q1-S)*%
X81490000Y-74750000D03*
%TO.P,Q1,3,D*%
%TO.N,/TX*%
X84110000Y-73800000D03*
%TD*%
D11*
%TO.P,J2,1,Pin_1*%
%TO.N,Net-(J2-Pin_1)*%
X51800000Y-69580000D03*
D12*
%TO.P,J2,2,Pin_2*%
%TO.N,Net-(J2-Pin_2)*%
X51800000Y-72120000D03*
%TO.P,J2,3,Pin_3*%
%TO.N,Net-(J2-Pin_3)*%
X51800000Y-74660000D03*
%TO.P,J2,4,Pin_4*%
%TO.N,Net-(J2-Pin_4)*%
X51800000Y-77200000D03*
%TO.P,J2,5,Pin_5*%
%TO.N,Net-(J2-Pin_5)*%
X51800000Y-79740000D03*
%TO.P,J2,6,Pin_6*%
%TO.N,Net-(J2-Pin_6)*%
X51800000Y-82280000D03*
%TO.P,J2,7,Pin_7*%
%TO.N,Net-(J2-Pin_7)*%
X51800000Y-84820000D03*
%TO.P,J2,8,Pin_8*%
%TO.N,Net-(J2-Pin_8)*%
X51800000Y-87360000D03*
%TD*%
D30*
%TO.P,R6,1*%
%TO.N,/SDA_{3.3V}*%
X65545000Y-80080000D03*
%TO.P,R6,2*%
%TO.N,+3.3V*%
X63895000Y-80080000D03*
%TD*%
D11*
%TO.P,J4,1,Pin_1*%
%TO.N,Net-(J4-Pin_1)*%
X90300000Y-69580000D03*
D12*
%TO.P,J4,2,Pin_2*%
%TO.N,Net-(J4-Pin_2)*%
X90300000Y-72120000D03*
%TO.P,J4,3,Pin_3*%
%TO.N,Net-(J4-Pin_3)*%
X90300000Y-74660000D03*
%TO.P,J4,4,Pin_4*%
%TO.N,Net-(J4-Pin_4)*%
X90300000Y-77200000D03*
%TO.P,J4,5,Pin_5*%
%TO.N,/RX*%
X90300000Y-79740000D03*
%TO.P,J4,6,Pin_6*%
%TO.N,/TX*%
X90300000Y-82280000D03*
%TO.P,J4,7,Pin_7*%
%TO.N,/SCL_{5V}*%
X90300000Y-84820000D03*
%TO.P,J4,8,Pin_8*%
%TO.N,/SDA_{5V}*%
X90300000Y-87360000D03*
%TD*%
D19*
%TO.P,J13,1,Pin_1*%
%TO.N,Net-(J13-Pin_1)*%
X60830000Y-80850000D03*
%TD*%
D31*
%TO.P,C5,1*%
%TO.N,GND*%
X85825000Y-39130000D03*
%TO.P,C5,2*%
%TO.N,+5V*%
X84275000Y-39130000D03*
%TD*%
D32*
%TO.P,U6,1,SCL/SCLK*%
%TO.N,/SCL_{3.3V}*%
X58025000Y-88695000D03*
%TO.P,U6,2,SDA/MOSI*%
%TO.N,/SDA_{3.3V}*%
X58025000Y-89965000D03*
%TO.P,U6,3,MISO*%
%TO.N,GND*%
X58025000Y-91235000D03*
%TO.P,U6,4,INT/TRG*%
%TO.N,Net-(J12-Pin_1)*%
X58025000Y-92505000D03*
%TO.P,U6,5,A0*%
%TO.N,GND*%
X62975000Y-92505000D03*
%TO.P,U6,6,VSS*%
X62975000Y-91235000D03*
%TO.P,U6,7,VDD*%
%TO.N,+3.3V*%
X62975000Y-89965000D03*
%TO.P,U6,8,MS/CS*%
X62975000Y-88695000D03*
%TD*%
D28*
%TO.P,Q2,1,G*%
%TO.N,+3.3V*%
X74190000Y-79050000D03*
%TO.P,Q2,2,S*%
%TO.N,/SDA_{3.3V}*%
X74190000Y-80950000D03*
%TO.P,Q2,3,D*%
%TO.N,/SDA_{5V}*%
X76810000Y-80000000D03*
%TD*%
D11*
%TO.P,J9,1,Pin_1*%
%TO.N,+3.3V*%
X68000000Y-75000000D03*
D12*
%TO.P,J9,2,Pin_2*%
%TO.N,/SCL_{3.3V}*%
X68000000Y-77540000D03*
%TO.P,J9,3,Pin_3*%
%TO.N,/SDA_{3.3V}*%
X68000000Y-80080000D03*
%TO.P,J9,4,Pin_4*%
%TO.N,GND*%
X68000000Y-82620000D03*
%TD*%
D11*
%TO.P,J5,1,Pin_1*%
%TO.N,Net-(J5-Pin_1)*%
X90300000Y-31300000D03*
D12*
%TO.P,J5,2,Pin_2*%
%TO.N,Net-(J5-Pin_2)*%
X90300000Y-33840000D03*
%TO.P,J5,3,Pin_3*%
%TO.N,Net-(J5-Pin_3)*%
X90300000Y-36380000D03*
%TO.P,J5,4,Pin_4*%
%TO.N,Net-(J5-Pin_4)*%
X90300000Y-38920000D03*
%TO.P,J5,5,Pin_5*%
%TO.N,unconnected-(J5-Pin_5-Pad5)*%
X90300000Y-41460000D03*
%TO.P,J5,6,Pin_6*%
%TO.N,unconnected-(J5-Pin_6-Pad6)*%
X90300000Y-44000000D03*
%TO.P,J5,7,Pin_7*%
%TO.N,unconnected-(J5-Pin_7-Pad7)*%
X90300000Y-46540000D03*
%TO.P,J5,8,Pin_8*%
%TO.N,unconnected-(J5-Pin_8-Pad8)*%
X90300000Y-49080000D03*
%TD*%
D30*
%TO.P,R7,1*%
%TO.N,/SCL_{3.3V}*%
X65535000Y-77540000D03*
%TO.P,R7,2*%
%TO.N,+3.3V*%
X63885000Y-77540000D03*
%TD*%
D10*
%TO.P,R17,1*%
%TO.N,GND*%
X82420000Y-54565000D03*
%TO.P,R17,2*%
%TO.N,Net-(J6-CC2)*%
X82420000Y-56215000D03*
%TD*%
D33*
%TO.P,U2,1,~{INT}*%
%TO.N,Net-(J10-Pin_1)*%
X58575000Y-55717500D03*
%TO.P,U2,2,A1*%
%TO.N,GND*%
X57925000Y-55717500D03*
%TO.P,U2,3,A2*%
X57275000Y-55717500D03*
%TO.P,U2,4,P00*%
%TO.N,Net-(J1-Pin_1)*%
X56625000Y-55717500D03*
%TO.P,U2,5,P01*%
%TO.N,Net-(J1-Pin_2)*%
X55975000Y-55717500D03*
%TO.P,U2,6,P02*%
%TO.N,Net-(J1-Pin_3)*%
X55325000Y-55717500D03*
%TO.P,U2,7,P03*%
%TO.N,Net-(J1-Pin_4)*%
X54675000Y-55717500D03*
%TO.P,U2,8,P04*%
%TO.N,Net-(J1-Pin_5)*%
X54025000Y-55717500D03*
%TO.P,U2,9,P05*%
%TO.N,Net-(J1-Pin_6)*%
X53375000Y-55717500D03*
%TO.P,U2,10,P06*%
%TO.N,Net-(J1-Pin_7)*%
X52725000Y-55717500D03*
%TO.P,U2,11,P07*%
%TO.N,Net-(J1-Pin_8)*%
X52075000Y-55717500D03*
%TO.P,U2,12,GND*%
%TO.N,GND*%
X51425000Y-55717500D03*
%TO.P,U2,13,P10*%
%TO.N,Net-(J2-Pin_1)*%
X51425000Y-61442500D03*
%TO.P,U2,14,P11*%
%TO.N,Net-(J2-Pin_2)*%
X52075000Y-61442500D03*
%TO.P,U2,15,P12*%
%TO.N,Net-(J2-Pin_3)*%
X52725000Y-61442500D03*
%TO.P,U2,16,P13*%
%TO.N,Net-(J2-Pin_4)*%
X53375000Y-61442500D03*
%TO.P,U2,17,P14*%
%TO.N,Net-(J2-Pin_5)*%
X54025000Y-61442500D03*
%TO.P,U2,18,P15*%
%TO.N,Net-(J2-Pin_6)*%
X54675000Y-61442500D03*
%TO.P,U2,19,P16*%
%TO.N,Net-(J2-Pin_7)*%
X55325000Y-61442500D03*
%TO.P,U2,20,P17*%
%TO.N,Net-(J2-Pin_8)*%
X55975000Y-61442500D03*
%TO.P,U2,21,A0*%
%TO.N,GND*%
X56625000Y-61442500D03*
%TO.P,U2,22,SCL*%
%TO.N,/SCL_{5V}*%
X57275000Y-61442500D03*
%TO.P,U2,23,SDA*%
%TO.N,/SDA_{5V}*%
X57925000Y-61442500D03*
%TO.P,U2,24,VCC*%
%TO.N,+5V*%
X58575000Y-61442500D03*
%TD*%
D34*
%TO.P,C6,1*%
%TO.N,GND*%
X64930000Y-91375000D03*
%TO.P,C6,2*%
%TO.N,+3.3V*%
X64930000Y-89825000D03*
%TD*%
D21*
%TO.P,C4,1*%
%TO.N,GND*%
X62350000Y-31325000D03*
%TO.P,C4,2*%
%TO.N,+3.3V*%
X62350000Y-32875000D03*
%TD*%
%TO.P,C1,1*%
%TO.N,+3.3V*%
X69570000Y-61075000D03*
%TO.P,C1,2*%
%TO.N,GND*%
X69570000Y-62625000D03*
%TD*%
D35*
%TO.P,J11,1,Pin_1*%
%TO.N,Net-(J11-Pin_1)*%
X87480000Y-39770000D03*
%TD*%
D36*
%TO.P,J10,1,Pin_1*%
%TO.N,Net-(J10-Pin_1)*%
X59780000Y-55980000D03*
%TD*%
D10*
%TO.P,R4,1*%
%TO.N,/SCL_{5V}*%
X78800000Y-76600000D03*
%TO.P,R4,2*%
%TO.N,+5V*%
X78800000Y-78250000D03*
%TD*%
D37*
%TO.P,U1,1,GND*%
%TO.N,GND*%
X64410000Y-30990000D03*
%TO.P,U1,2,3V3*%
%TO.N,+3.3V*%
X64410000Y-32260000D03*
%TO.P,U1,3,EN/CHIP_PU*%
%TO.N,Net-(U1-EN{slash}CHIP_PU)*%
X64410000Y-33530000D03*
%TO.P,U1,4,MTMS/GPIO4/ADC1_CH4*%
%TO.N,unconnected-(U1-MTMS{slash}GPIO4{slash}ADC1_CH4-Pad4)*%
X64410000Y-34800000D03*
%TO.P,U1,5,MTDI/GPIO5/ADC1_CH5*%
%TO.N,unconnected-(U1-MTDI{slash}GPIO5{slash}ADC1_CH5-Pad5)*%
X64410000Y-36070000D03*
%TO.P,U1,6,MTCK/GPIO6/ADC1_CH6*%
%TO.N,unconnected-(U1-MTCK{slash}GPIO6{slash}ADC1_CH6-Pad6)*%
X64410000Y-37340000D03*
%TO.P,U1,7,MTDO/GPIO7*%
%TO.N,unconnected-(U1-MTDO{slash}GPIO7-Pad7)*%
X64410000Y-38610000D03*
%TO.P,U1,8,GPIO0/ADC1_CH0/XTAL_32K_P*%
%TO.N,unconnected-(U1-GPIO0{slash}ADC1_CH0{slash}XTAL_32K_P-Pad8)*%
X64410000Y-39880000D03*
%TO.P,U1,9,GPIO1/ADC1_CH1/XTAL_32K_N*%
%TO.N,unconnected-(U1-GPIO1{slash}ADC1_CH1{slash}XTAL_32K_N-Pad9)*%
X64410000Y-41150000D03*
%TO.P,U1,10,GPIO8*%
%TO.N,unconnected-(U1-GPIO8-Pad10)*%
X64410000Y-42420000D03*
%TO.P,U1,11,GPIO10*%
%TO.N,/SDA_{3.3V}*%
X64410000Y-43690000D03*
%TO.P,U1,12,GPIO11*%
%TO.N,/SCL_{3.3V}*%
X64410000Y-44960000D03*
%TO.P,U1,13,GPIO12/USB_D-*%
%TO.N,/D-*%
X64410000Y-46230000D03*
%TO.P,U1,14,GPIO13/USB_D+*%
%TO.N,/D+*%
X64410000Y-47500000D03*
%TO.P,U1,15,GPIO9*%
%TO.N,unconnected-(U1-GPIO9-Pad15)*%
X81910000Y-47500000D03*
%TO.P,U1,16,GPIO18*%
%TO.N,Net-(J4-Pin_4)*%
X81910000Y-46230000D03*
%TO.P,U1,17,GPIO19*%
%TO.N,Net-(J4-Pin_3)*%
X81910000Y-44960000D03*
%TO.P,U1,18,GPIO20*%
%TO.N,Net-(J4-Pin_2)*%
X81910000Y-43690000D03*
%TO.P,U1,19,GPIO21*%
%TO.N,Net-(J4-Pin_1)*%
X81910000Y-42420000D03*
%TO.P,U1,20,GPIO22*%
%TO.N,unconnected-(U1-GPIO22-Pad20)*%
X81910000Y-41150000D03*
%TO.P,U1,21,GPIO23*%
%TO.N,unconnected-(U1-GPIO23-Pad21)*%
X81910000Y-39880000D03*
%TO.P,U1,22,NC*%
%TO.N,unconnected-(U1-NC-Pad22)*%
X81910000Y-38610000D03*
%TO.P,U1,23,GPIO15*%
%TO.N,unconnected-(U1-GPIO15-Pad23)*%
X81910000Y-37340000D03*
%TO.P,U1,24,U0RXD/GPIO17*%
%TO.N,Net-(U1-U0RXD{slash}GPIO17)*%
X81910000Y-36070000D03*
%TO.P,U1,25,U0TXD/GPIO16*%
%TO.N,Net-(Q1-S)*%
X81910000Y-34800000D03*
%TO.P,U1,26,GPIO3/ADC1_CH3*%
%TO.N,unconnected-(U1-GPIO3{slash}ADC1_CH3-Pad26)*%
X81910000Y-33530000D03*
%TO.P,U1,27,GPIO2/ADC1_CH2*%
%TO.N,unconnected-(U1-GPIO2{slash}ADC1_CH2-Pad27)*%
X81910000Y-32260000D03*
%TO.P,U1,28,GND*%
%TO.N,GND*%
X81910000Y-30990000D03*
D38*
%TO.P,U1,29,GND*%
X70405000Y-35460000D03*
X70405000Y-36710000D03*
X70405000Y-37960000D03*
X71655000Y-35460000D03*
X71655000Y-36710000D03*
X71655000Y-37960000D03*
X72905000Y-35460000D03*
X72905000Y-36710000D03*
X72905000Y-37960000D03*
%TD*%
D39*
%TO.N,Net-(J4-Pin_4)*%
X83400000Y-46200000D03*
%TO.N,Net-(J4-Pin_3)*%
X83475000Y-45000000D03*
%TO.N,Net-(J4-Pin_2)*%
X83475000Y-43700000D03*
%TO.N,Net-(J4-Pin_1)*%
X83300000Y-42400000D03*
D40*
%TO.N,/SDA_{5V}*%
X83160002Y-33600000D03*
%TO.N,/SCL_{5V}*%
X83160002Y-34400000D03*
X80659998Y-34400000D03*
%TO.N,/SDA_{5V}*%
X80000000Y-35000000D03*
%TO.N,GND*%
X70000000Y-72500000D03*
X72500000Y-72500000D03*
X85000000Y-72500000D03*
X85000000Y-77500000D03*
X87500000Y-90000000D03*
X82500000Y-90000000D03*
X82500000Y-87500000D03*
X80000000Y-87500000D03*
X77500000Y-82500000D03*
X77500000Y-85000000D03*
X77500000Y-87500000D03*
X77500000Y-90000000D03*
X75000000Y-92500000D03*
X77500000Y-92500000D03*
X80000000Y-92500000D03*
X82500000Y-92500000D03*
X85000000Y-92500000D03*
X87500000Y-92500000D03*
X90000000Y-92500000D03*
%TO.N,+3.3V*%
X58650000Y-84100000D03*
X74999000Y-73100000D03*
X78198784Y-73100000D03*
X62310000Y-86500000D03*
%TO.N,GND*%
X72500000Y-47500000D03*
X90000000Y-90000000D03*
X72500000Y-32500000D03*
X77500000Y-40000000D03*
X67500000Y-90000000D03*
X80760000Y-31490000D03*
X57500000Y-72500000D03*
X85800000Y-40000000D03*
X70395000Y-36080000D03*
X75000000Y-50000000D03*
X86710000Y-74110000D03*
X73920000Y-76640000D03*
X90000000Y-67500000D03*
X70395000Y-37335000D03*
X55000000Y-57500000D03*
X70000000Y-40000000D03*
X77500000Y-57500000D03*
X77500000Y-42500000D03*
X80000000Y-70000000D03*
X57620000Y-54650000D03*
X75000000Y-40000000D03*
X70000000Y-70000000D03*
X72500000Y-45000000D03*
X50800000Y-56300000D03*
X81560000Y-51170000D03*
X71645000Y-38580000D03*
X84300000Y-32900000D03*
X60000000Y-45000000D03*
X69770000Y-34830000D03*
X72500000Y-42500000D03*
X72900000Y-34830000D03*
X76510000Y-77470000D03*
X65715000Y-91375000D03*
X61090000Y-61280000D03*
X77370000Y-60560000D03*
X72275000Y-37960000D03*
X62200000Y-30500000D03*
X60000000Y-47500000D03*
X75000000Y-37500000D03*
X65000000Y-87500000D03*
X72500000Y-87500000D03*
X57500000Y-70000000D03*
X73525000Y-38580000D03*
X67500000Y-85000000D03*
X57500000Y-47500000D03*
X69770000Y-37335000D03*
X85000000Y-52500000D03*
X63000000Y-39500000D03*
X60000000Y-39500000D03*
X69770000Y-38580000D03*
X70000000Y-87500000D03*
X70000000Y-82500000D03*
X66000000Y-35000000D03*
X57500000Y-50000000D03*
X57500000Y-65000000D03*
X70000000Y-32500000D03*
X80000000Y-85000000D03*
X72275000Y-37335000D03*
X53420000Y-31210000D03*
X71955000Y-68990000D03*
X57500000Y-37500000D03*
X61600000Y-30700000D03*
X50810000Y-68200000D03*
X57500000Y-52500000D03*
X79040000Y-70580000D03*
X66000000Y-40000000D03*
X87500000Y-45000000D03*
X80630000Y-45990000D03*
X69770000Y-36080000D03*
X75000000Y-45000000D03*
X65860000Y-78900000D03*
X80000000Y-32500000D03*
X83060000Y-31500000D03*
X75000000Y-32500000D03*
X59800000Y-31300000D03*
X73180000Y-64460000D03*
X90000000Y-55000000D03*
X65000000Y-65000000D03*
X90000000Y-60000000D03*
X77500000Y-37500000D03*
X67500000Y-87500000D03*
X72370000Y-65700000D03*
X70000000Y-60000000D03*
X50800000Y-55100000D03*
X65000000Y-82500000D03*
X73630000Y-74580000D03*
X60000000Y-75000000D03*
X50830000Y-50620000D03*
X81250000Y-78860000D03*
X72880000Y-37335000D03*
X72500000Y-85000000D03*
X65000000Y-50000000D03*
X85000000Y-67500000D03*
X57500000Y-67500000D03*
X88730000Y-31070000D03*
X57590000Y-56750000D03*
X70395000Y-38580000D03*
X67500000Y-92500000D03*
X83180000Y-58830000D03*
X75000000Y-52500000D03*
X73525000Y-36080000D03*
X50840000Y-88410000D03*
X71645000Y-37335000D03*
X51400000Y-54500000D03*
X72900000Y-38580000D03*
X90000000Y-57500000D03*
X72750000Y-67490000D03*
X80000000Y-65000000D03*
X69400000Y-67400000D03*
X52500000Y-92500000D03*
X63000000Y-37000000D03*
X73525000Y-35455000D03*
X71645000Y-36080000D03*
X87500000Y-34500000D03*
X70000000Y-45000000D03*
X51400000Y-56900000D03*
X71020000Y-36710000D03*
X75000000Y-55000000D03*
X55000000Y-60000000D03*
X74450000Y-67730000D03*
X50800000Y-55700000D03*
X60000000Y-50000000D03*
X60000000Y-65000000D03*
X70405000Y-34830000D03*
X85380000Y-38340000D03*
X69770000Y-36700000D03*
X52500000Y-60000000D03*
X57500000Y-40000000D03*
X52500000Y-57500000D03*
X85580000Y-49460000D03*
X70000000Y-90000000D03*
X70000000Y-42500000D03*
X73525000Y-37335000D03*
X75000000Y-35000000D03*
X60000000Y-37000000D03*
X66000000Y-45000000D03*
X71955000Y-67490000D03*
X70000000Y-50000000D03*
X56600000Y-60300000D03*
X75700000Y-68000000D03*
X60000000Y-92500000D03*
X85000000Y-85000000D03*
X69500000Y-69000000D03*
X67500000Y-32500000D03*
X62800000Y-30500000D03*
X68800000Y-69000000D03*
X72500000Y-90000000D03*
X87500000Y-42500000D03*
X63160000Y-31020000D03*
X73525000Y-37960000D03*
X75000000Y-47500000D03*
X71645000Y-34830000D03*
X83290000Y-48180000D03*
X75000000Y-42500000D03*
X50800000Y-54500000D03*
X72275000Y-34830000D03*
X57500000Y-57500000D03*
X60000000Y-57500000D03*
X85160000Y-49040000D03*
X72275000Y-35455000D03*
X83210000Y-84200000D03*
X72275000Y-38580000D03*
X71020000Y-34830000D03*
X71020000Y-35455000D03*
X66000000Y-37500000D03*
X73525000Y-34830000D03*
X90000000Y-65000000D03*
X62500000Y-75000000D03*
X61000000Y-30500000D03*
X77500000Y-52500000D03*
X73525000Y-36710000D03*
X60000000Y-77500000D03*
X73950000Y-55620000D03*
X65000000Y-62500000D03*
X65000000Y-72500000D03*
X85180000Y-40000000D03*
X77500000Y-32500000D03*
X77850000Y-77400000D03*
X62500000Y-72500000D03*
X65000000Y-55000000D03*
X52500000Y-90000000D03*
X65000000Y-57500000D03*
X62500000Y-77500000D03*
X71900000Y-59810000D03*
X77500000Y-35000000D03*
X71020000Y-37960000D03*
X65000000Y-52500000D03*
X85000000Y-65000000D03*
X80000000Y-90000000D03*
X85000000Y-70000000D03*
X72650000Y-68990000D03*
X72900000Y-36080000D03*
X77500000Y-45000000D03*
X85000000Y-75000000D03*
X73040000Y-65700000D03*
X65000000Y-85000000D03*
X56700000Y-62500000D03*
X57500000Y-45000000D03*
X60000000Y-67500000D03*
X86000000Y-49880000D03*
X72275000Y-36080000D03*
X73170000Y-65100000D03*
X90000000Y-52500000D03*
X60000000Y-90000000D03*
X64930000Y-92130000D03*
X71020000Y-38580000D03*
X65000000Y-70000000D03*
X69770000Y-37960000D03*
X59800000Y-30700000D03*
X83460000Y-58320000D03*
X72275000Y-36700000D03*
X85400000Y-34400000D03*
X60000000Y-52500000D03*
X55000000Y-32500000D03*
X86450000Y-39800000D03*
X60000000Y-42000000D03*
X71020000Y-37335000D03*
X65230000Y-63860000D03*
X66000000Y-42500000D03*
X70000000Y-85000000D03*
X70000000Y-47500000D03*
X71020000Y-36080000D03*
X50800000Y-56900000D03*
X72500000Y-40000000D03*
X88120000Y-83530000D03*
X69970000Y-56590000D03*
X72500000Y-52500000D03*
X83780000Y-58820000D03*
X57500000Y-32000000D03*
X73410000Y-61970000D03*
X60000000Y-70000000D03*
X72500000Y-50000000D03*
X69770000Y-35455000D03*
X77500000Y-50000000D03*
X85000000Y-90000000D03*
X80000000Y-67500000D03*
X55000000Y-87500000D03*
X61480000Y-31300000D03*
X77500000Y-47500000D03*
X60400000Y-30500000D03*
X68800000Y-67400000D03*
X55000000Y-90000000D03*
X77810000Y-56650000D03*
%TO.N,+5V*%
X75068122Y-66048122D03*
X67250000Y-68220000D03*
X80260000Y-60740000D03*
X80324000Y-56820000D03*
X73700000Y-68240000D03*
%TO.N,Net-(J4-Pin_4)*%
X86847000Y-48886920D03*
%TO.N,/SCL_{5V}*%
X77368205Y-62571135D03*
X61606581Y-58989997D03*
X66870487Y-59046513D03*
X74373092Y-56725533D03*
X77548784Y-65688784D03*
X68386000Y-58295097D03*
X63556581Y-58979997D03*
X73093535Y-58296465D03*
%TO.N,/SDA_{5V}*%
X72765000Y-59085000D03*
X61606581Y-59790000D03*
X74938780Y-57291220D03*
X76720000Y-63040000D03*
X67206751Y-59772412D03*
X77170000Y-79000000D03*
X68616757Y-59061096D03*
X76818784Y-66418784D03*
X76820000Y-75740000D03*
X63556581Y-59780000D03*
%TO.N,/SDA_{3.3V}*%
X62256581Y-63760000D03*
X59125001Y-85671116D03*
X62296379Y-66224540D03*
%TO.N,/SCL_{3.3V}*%
X62960919Y-66889081D03*
X58573969Y-85034730D03*
X62906581Y-64713419D03*
D41*
%TO.N,/D+*%
X69086000Y-46200000D03*
X66561000Y-47175000D03*
%TO.N,/D-*%
X66561000Y-46425000D03*
X68336000Y-46200000D03*
D40*
%TO.N,Net-(Q1-S)*%
X79512819Y-56819028D03*
X80613784Y-62623784D03*
%TO.N,Net-(U1-U0RXD{slash}GPIO17)*%
X86798920Y-49758080D03*
X80659998Y-44990000D03*
%TO.N,Net-(J13-Pin_1)*%
X61680000Y-85725002D03*
X62300000Y-81478815D03*
%TD*%
D42*
%TO.N,Net-(J4-Pin_4)*%
X83370000Y-46230000D02*
X83400000Y-46200000D01*
X81910000Y-46230000D02*
X83370000Y-46230000D01*
%TO.N,Net-(J4-Pin_3)*%
X81950000Y-45000000D02*
X81910000Y-44960000D01*
X83475000Y-45000000D02*
X81950000Y-45000000D01*
%TO.N,Net-(J4-Pin_2)*%
X81920000Y-43700000D02*
X81910000Y-43690000D01*
X83475000Y-43700000D02*
X81920000Y-43700000D01*
%TO.N,Net-(J4-Pin_1)*%
X83280000Y-42420000D02*
X83300000Y-42400000D01*
X81910000Y-42420000D02*
X83280000Y-42420000D01*
%TO.N,Net-(Q1-S)*%
X79970000Y-54763862D02*
X79970000Y-36251479D01*
X79512819Y-55221043D02*
X79970000Y-54763862D01*
X79512819Y-56819028D02*
X79512819Y-55221043D01*
X79970000Y-36251479D02*
X81421479Y-34800000D01*
X81421479Y-34800000D02*
X81910000Y-34800000D01*
%TO.N,/SDA_{5V}*%
X80000000Y-35000000D02*
X79469000Y-35531000D01*
X79469000Y-52761000D02*
X74938780Y-57291220D01*
X79469000Y-35531000D02*
X79469000Y-52761000D01*
D43*
X83160002Y-32967044D02*
X83160002Y-33600000D01*
X84147046Y-31980000D02*
X83160002Y-32967044D01*
D42*
%TO.N,/SCL_{5V}*%
X84060000Y-34400000D02*
X85500000Y-32960000D01*
X83160002Y-34400000D02*
X84060000Y-34400000D01*
X80608998Y-34349000D02*
X80659998Y-34400000D01*
X79730346Y-34349000D02*
X80608998Y-34349000D01*
X78968000Y-35111346D02*
X79730346Y-34349000D01*
X78968000Y-35323480D02*
X78968000Y-35111346D01*
X78968000Y-35932000D02*
X78968000Y-35323480D01*
%TO.N,Net-(U1-U0RXD{slash}GPIO17)*%
X80659998Y-36270002D02*
X80659998Y-44990000D01*
X80860000Y-36070000D02*
X80659998Y-36270002D01*
X81910000Y-36070000D02*
X80860000Y-36070000D01*
%TO.N,/SCL_{5V}*%
X78968000Y-52332000D02*
X74574467Y-56725533D01*
X78968000Y-35932000D02*
X78968000Y-52332000D01*
X74574467Y-56725533D02*
X74373092Y-56725533D01*
D43*
%TO.N,/SDA_{5V}*%
X86000000Y-32290000D02*
X86000000Y-32960000D01*
X84147046Y-31980000D02*
X85690000Y-31980000D01*
X85690000Y-31980000D02*
X86000000Y-32290000D01*
D44*
%TO.N,+3.3V*%
X59225000Y-32100000D02*
X59937758Y-32100000D01*
X68000000Y-75000000D02*
X68000000Y-62645000D01*
D42*
X75151000Y-78089000D02*
X74190000Y-79050000D01*
X81490000Y-72850000D02*
X80025000Y-72850000D01*
D44*
X63885000Y-77540000D02*
X63885000Y-76712925D01*
D43*
X61575000Y-32100000D02*
X59225000Y-32100000D01*
D44*
X69570000Y-61075000D02*
X70837500Y-61075000D01*
X62975000Y-83430000D02*
X62975000Y-82700000D01*
D42*
X74999000Y-74841000D02*
X74190000Y-75650000D01*
D44*
X61575000Y-32100000D02*
X61262242Y-32100000D01*
X62975000Y-82700000D02*
X63895000Y-81780000D01*
D43*
X61512500Y-85100000D02*
X62945000Y-85100000D01*
D44*
X70837500Y-61075000D02*
X71050000Y-60862500D01*
X62965000Y-32260000D02*
X64410000Y-32260000D01*
X58400000Y-31275000D02*
X59225000Y-32100000D01*
X62190500Y-83413500D02*
X61326000Y-83413500D01*
D42*
X74999000Y-73100000D02*
X74999000Y-74841000D01*
D44*
X64410000Y-32260000D02*
X65242000Y-32260000D01*
D42*
X78198784Y-73100000D02*
X78323784Y-72975000D01*
D44*
X62975000Y-84198000D02*
X62975000Y-83430000D01*
X62261500Y-83413500D02*
X62975000Y-82700000D01*
X62975000Y-86520000D02*
X62975000Y-85070000D01*
D42*
X75148000Y-76608000D02*
X75148000Y-77167298D01*
D44*
X62975000Y-85070000D02*
X62975000Y-84198000D01*
X62350000Y-32875000D02*
X62965000Y-32260000D01*
X62261500Y-83413500D02*
X62278000Y-83430000D01*
D42*
X62955000Y-86500000D02*
X62975000Y-86520000D01*
D44*
X63885000Y-76712925D02*
X65597925Y-75000000D01*
D43*
X62945000Y-85100000D02*
X62975000Y-85070000D01*
X58652216Y-84050867D02*
X58701349Y-84100000D01*
D44*
X62190500Y-83413500D02*
X62261500Y-83413500D01*
D42*
X80025000Y-72850000D02*
X79900000Y-72975000D01*
X78323784Y-72975000D02*
X79900000Y-72975000D01*
D44*
X74190000Y-75650000D02*
X72200000Y-75650000D01*
X65242000Y-32260000D02*
X67636000Y-34654000D01*
X67636000Y-34654000D02*
X67636000Y-59141000D01*
D42*
X62310000Y-86500000D02*
X62955000Y-86500000D01*
X74190000Y-75650000D02*
X75148000Y-76608000D01*
D44*
X62278000Y-83430000D02*
X62975000Y-83430000D01*
X63895000Y-81780000D02*
X63895000Y-80080000D01*
X62350000Y-32875000D02*
X61575000Y-32100000D01*
D42*
X75151000Y-77170298D02*
X75151000Y-78089000D01*
D44*
X62975000Y-88695000D02*
X62975000Y-86770000D01*
X62975000Y-88695000D02*
X62975000Y-85070000D01*
X72200000Y-75650000D02*
X71550000Y-75000000D01*
X68000000Y-62645000D02*
X69570000Y-61075000D01*
D43*
X58701349Y-84100000D02*
X59487500Y-84100000D01*
D44*
X62975000Y-84198000D02*
X62190500Y-83413500D01*
D42*
X75148000Y-77167298D02*
X75151000Y-77170298D01*
D44*
X62975000Y-86770000D02*
X62975000Y-86520000D01*
X65597925Y-75000000D02*
X68000000Y-75000000D01*
X63895000Y-80080000D02*
X63895000Y-77550000D01*
X67636000Y-59141000D02*
X69570000Y-61075000D01*
X63895000Y-77550000D02*
X63885000Y-77540000D01*
X61326000Y-83413500D02*
X61326000Y-83337500D01*
%TO.N,Net-(U1-EN{slash}CHIP_PU)*%
X58450000Y-32875000D02*
X58400000Y-32925000D01*
X64410000Y-33530000D02*
X63620000Y-33530000D01*
X60600000Y-32875000D02*
X58450000Y-32875000D01*
X61820000Y-35330000D02*
X61820000Y-41830000D01*
X63620000Y-33530000D02*
X61820000Y-35330000D01*
X60600000Y-32875000D02*
X60600000Y-34110000D01*
X60600000Y-34110000D02*
X61820000Y-35330000D01*
D42*
%TO.N,/Vin_reg*%
X71050000Y-63137500D02*
X71050000Y-62712322D01*
X72950000Y-62475001D02*
X72950000Y-63137500D01*
X72598999Y-62124000D02*
X72950000Y-62475001D01*
X71050000Y-62712322D02*
X71638322Y-62124000D01*
X71638322Y-62124000D02*
X72598999Y-62124000D01*
D44*
%TO.N,+5V*%
X79525000Y-80300000D02*
X78800000Y-79575000D01*
X78800000Y-78250000D02*
X75802000Y-78250000D01*
X75749000Y-78303000D02*
X75802000Y-78250000D01*
X75068122Y-66048122D02*
X75068122Y-65931878D01*
X84275000Y-36908000D02*
X86500000Y-34683000D01*
X75759000Y-78207000D02*
X75759000Y-77031122D01*
X75749000Y-88971000D02*
X72320000Y-92400000D01*
X65352500Y-68220000D02*
X58575000Y-61442500D01*
X73700000Y-69100000D02*
X73700000Y-68240000D01*
X80324000Y-56820000D02*
X80324000Y-55259804D01*
X75802000Y-78250000D02*
X75759000Y-78207000D01*
X80324000Y-55259804D02*
X84275000Y-51308804D01*
X82475000Y-80300000D02*
X79525000Y-80300000D01*
X84275000Y-39130000D02*
X84275000Y-51308804D01*
X75749000Y-77021122D02*
X75749000Y-71149000D01*
X86500000Y-34683000D02*
X86500000Y-33961000D01*
X75749000Y-88971000D02*
X75749000Y-78303000D01*
X67250000Y-68220000D02*
X65352500Y-68220000D01*
X75749000Y-71149000D02*
X73700000Y-69100000D01*
X78800000Y-79575000D02*
X78800000Y-78250000D01*
X75759000Y-77031122D02*
X75749000Y-77021122D01*
X75068122Y-65931878D02*
X80260000Y-60740000D01*
X84275000Y-39130000D02*
X84275000Y-36908000D01*
D45*
%TO.N,+5Vin*%
X81100000Y-59105544D02*
X81100000Y-59925000D01*
D46*
X83670654Y-61750000D02*
X83066906Y-61750000D01*
D44*
X79962500Y-58570000D02*
X80624999Y-58570000D01*
D46*
X81124000Y-57080000D02*
X81124000Y-56039094D01*
X86952000Y-60158000D02*
X86952000Y-56962000D01*
D45*
X81100000Y-57104000D02*
X81124000Y-57080000D01*
D46*
X84450654Y-60970000D02*
X83670654Y-61750000D01*
X86140000Y-60970000D02*
X86952000Y-60158000D01*
X83068453Y-55388453D02*
X83066906Y-55390000D01*
D44*
X80720900Y-58570000D02*
X81124000Y-58166900D01*
D46*
X85375000Y-56170000D02*
X83850000Y-56170000D01*
D44*
X85375000Y-60970000D02*
X84379942Y-60970000D01*
D45*
X81100000Y-59925000D02*
X81100000Y-61076906D01*
D46*
X86952000Y-56962000D02*
X86160000Y-56170000D01*
D45*
X81100000Y-61076906D02*
X81773094Y-61750000D01*
D46*
X83850000Y-56170000D02*
X83068453Y-55388453D01*
D44*
X81124000Y-59069001D02*
X81124000Y-58166900D01*
X84379942Y-60970000D02*
X83599942Y-61750000D01*
D46*
X85375000Y-60970000D02*
X86140000Y-60970000D01*
D45*
X80564456Y-58570000D02*
X81100000Y-58034456D01*
D44*
X83599942Y-61750000D02*
X82996196Y-61750000D01*
D45*
X81100000Y-59925000D02*
X81100000Y-57104000D01*
D44*
X75376906Y-66800000D02*
X81100000Y-61076906D01*
D46*
X86160000Y-56170000D02*
X85375000Y-56170000D01*
X81124000Y-56039094D02*
X81773094Y-55390000D01*
X85375000Y-60970000D02*
X84450654Y-60970000D01*
D45*
X81100000Y-58034456D02*
X81100000Y-57104000D01*
D44*
X79962500Y-58570000D02*
X80720900Y-58570000D01*
X80624999Y-58570000D02*
X81124000Y-59069001D01*
X73700000Y-66800000D02*
X75376906Y-66800000D01*
D45*
X79962500Y-58570000D02*
X80564456Y-58570000D01*
X80564456Y-58570000D02*
X81100000Y-59105544D01*
D42*
%TO.N,Net-(J1-Pin_1)*%
X56625000Y-55717500D02*
X56625000Y-44125000D01*
X54797260Y-34797260D02*
X51800000Y-31800000D01*
X56625000Y-44125000D02*
X54797260Y-42297260D01*
X54797260Y-42297260D02*
X54797260Y-34797260D01*
%TO.N,Net-(J1-Pin_4)*%
X53294260Y-40414260D02*
X53294260Y-43087269D01*
X54675000Y-55717500D02*
X54675000Y-44468009D01*
X54675000Y-44468009D02*
X53294260Y-43087269D01*
X51800000Y-38920000D02*
X53294260Y-40414260D01*
%TO.N,Net-(J1-Pin_8)*%
X52075000Y-49855000D02*
X51800000Y-49580000D01*
X52075000Y-49355000D02*
X51800000Y-49080000D01*
X52075000Y-55717500D02*
X52075000Y-49855000D01*
X52075000Y-55717500D02*
X52075000Y-49355000D01*
%TO.N,Net-(J1-Pin_2)*%
X54296260Y-36836260D02*
X54296260Y-42672229D01*
X55975000Y-55717500D02*
X55975000Y-44350969D01*
X55975000Y-44350969D02*
X54296260Y-42672229D01*
X51800000Y-34340000D02*
X54296260Y-36836260D01*
%TO.N,Net-(J1-Pin_6)*%
X53375000Y-50411991D02*
X53502000Y-50284991D01*
X53375000Y-55717500D02*
X53375000Y-50411991D01*
X53502000Y-45702000D02*
X51800000Y-44000000D01*
X53502000Y-50284991D02*
X53502000Y-45702000D01*
%TO.N,Net-(J1-Pin_5)*%
X54025000Y-44526529D02*
X51800000Y-42301529D01*
X51800000Y-42301529D02*
X51800000Y-41460000D01*
X54025000Y-55717500D02*
X54025000Y-44526529D01*
%TO.N,Net-(J1-Pin_3)*%
X53795260Y-42879749D02*
X53795260Y-38875260D01*
X53795260Y-38875260D02*
X51800000Y-36880000D01*
X55325000Y-44409489D02*
X53795260Y-42879749D01*
X55325000Y-55717500D02*
X55325000Y-44409489D01*
%TO.N,Net-(J1-Pin_7)*%
X52725000Y-50353471D02*
X53001000Y-50077471D01*
X53001000Y-48241000D02*
X51800000Y-47040000D01*
X52725000Y-55717500D02*
X52725000Y-50353471D01*
X53001000Y-50077471D02*
X53001000Y-48241000D01*
%TO.N,Net-(J2-Pin_8)*%
X56007000Y-61474500D02*
X55975000Y-61442500D01*
X51800000Y-87360000D02*
X56007000Y-83153000D01*
X56007000Y-83153000D02*
X56007000Y-61474500D01*
%TO.N,Net-(J2-Pin_2)*%
X52075000Y-67453000D02*
X53001000Y-68379000D01*
X51800000Y-72120000D02*
X53001000Y-70919000D01*
X52075000Y-61442500D02*
X52075000Y-67453000D01*
X53001000Y-68379000D02*
X53001000Y-70919000D01*
%TO.N,Net-(J2-Pin_4)*%
X51800000Y-77200000D02*
X54003000Y-74997000D01*
X54003000Y-67963959D02*
X53375000Y-67335960D01*
X53375000Y-67335960D02*
X53375000Y-61442500D01*
X54003000Y-74997000D02*
X54003000Y-67963959D01*
D47*
%TO.N,Net-(J2-Pin_1)*%
X51425000Y-61442500D02*
X51425000Y-69205000D01*
X51425000Y-69205000D02*
X51800000Y-69580000D01*
D42*
%TO.N,Net-(J2-Pin_3)*%
X53502000Y-68171480D02*
X53502000Y-72958000D01*
X52725000Y-61442500D02*
X52725000Y-67394480D01*
X52725000Y-67394480D02*
X53502000Y-68171480D01*
X53502000Y-72958000D02*
X51800000Y-74660000D01*
%TO.N,Net-(J2-Pin_5)*%
X54504000Y-77036000D02*
X51800000Y-79740000D01*
X54025000Y-67277439D02*
X54504000Y-67756438D01*
X54504000Y-67756438D02*
X54504000Y-77036000D01*
X54025000Y-61442500D02*
X54025000Y-67277439D01*
%TO.N,Net-(J2-Pin_7)*%
X55325000Y-67160396D02*
X55506000Y-67341397D01*
X55506000Y-81114000D02*
X51800000Y-84820000D01*
X55325000Y-61442500D02*
X55325000Y-67160396D01*
X55506000Y-67341397D02*
X55506000Y-81114000D01*
%TO.N,Net-(J2-Pin_6)*%
X51800000Y-82280000D02*
X55005000Y-79075000D01*
X55005000Y-67548917D02*
X54675000Y-67218917D01*
X55005000Y-79075000D02*
X55005000Y-67548917D01*
X54675000Y-67218917D02*
X54675000Y-61442500D01*
%TO.N,Net-(J4-Pin_4)*%
X88499000Y-50538920D02*
X88499000Y-75399000D01*
X86847000Y-48886920D02*
X88499000Y-50538920D01*
X88499000Y-75399000D02*
X90300000Y-77200000D01*
%TO.N,/SCL_{5V}*%
X77548784Y-65688784D02*
X77548784Y-76471215D01*
X80700000Y-76600000D02*
X83300000Y-79200000D01*
X78800000Y-76600000D02*
X80700000Y-76600000D01*
X76810000Y-76600000D02*
X78800000Y-76600000D01*
X57275000Y-60646480D02*
X57275000Y-61442500D01*
X90300000Y-84820000D02*
X87237226Y-84820000D01*
X73093535Y-58296465D02*
X73092167Y-58295097D01*
X77368205Y-62571135D02*
X73093535Y-58296465D01*
X77419999Y-76600000D02*
X76810000Y-76600000D01*
X73092167Y-58295097D02*
X68386000Y-58295097D01*
X63623097Y-59046513D02*
X63556581Y-58979997D01*
X61606581Y-58989997D02*
X58931483Y-58989997D01*
X77548784Y-76471215D02*
X77419999Y-76600000D01*
X66870487Y-59046513D02*
X63623097Y-59046513D01*
X87237226Y-84820000D02*
X83300000Y-80882774D01*
X58931483Y-58989997D02*
X57275000Y-60646480D01*
X83300000Y-80882774D02*
X83300000Y-79200000D01*
%TO.N,/RX*%
X87015000Y-79740000D02*
X87000000Y-79725000D01*
X90300000Y-79740000D02*
X87015000Y-79740000D01*
%TO.N,/SDA_{5V}*%
X58840001Y-59790000D02*
X61606581Y-59790000D01*
X72765000Y-59085000D02*
X76720000Y-63040000D01*
X63556581Y-59780000D02*
X67199163Y-59780000D01*
X76810000Y-80000000D02*
X77575000Y-80000000D01*
X77170000Y-79000000D02*
X77170000Y-79640000D01*
X78825000Y-81225000D02*
X78800000Y-81225000D01*
X67199163Y-59780000D02*
X67206751Y-59772412D01*
X76820000Y-75425000D02*
X76818784Y-75423784D01*
X57925000Y-61442500D02*
X57925000Y-60705001D01*
X77170000Y-79640000D02*
X76810000Y-80000000D01*
X77575000Y-80000000D02*
X78800000Y-81225000D01*
X84960000Y-87360000D02*
X78825000Y-81225000D01*
X57925000Y-60705001D02*
X58840001Y-59790000D01*
X76818784Y-75423784D02*
X76818784Y-66418784D01*
X72741096Y-59061096D02*
X72765000Y-59085000D01*
X76820000Y-75740000D02*
X76820000Y-75425000D01*
X90300000Y-87360000D02*
X84960000Y-87360000D01*
X68616757Y-59061096D02*
X72741096Y-59061096D01*
%TO.N,/TX*%
X84125000Y-73815000D02*
X84110000Y-73800000D01*
X90300000Y-82280000D02*
X86105000Y-82280000D01*
X84125000Y-80300000D02*
X84125000Y-73815000D01*
X86105000Y-82280000D02*
X84125000Y-80300000D01*
D43*
%TO.N,Net-(J5-Pin_1)*%
X87437000Y-31696000D02*
X89904000Y-31696000D01*
X87000000Y-32133000D02*
X87437000Y-31696000D01*
X87000000Y-32960000D02*
X87000000Y-32133000D01*
X89904000Y-31696000D02*
X90300000Y-31300000D01*
%TO.N,Net-(J5-Pin_3)*%
X87500000Y-37260000D02*
X89420000Y-37260000D01*
X89420000Y-37260000D02*
X90300000Y-36380000D01*
%TO.N,Net-(J5-Pin_2)*%
X90300000Y-33840000D02*
X89420000Y-32960000D01*
X89420000Y-32960000D02*
X87500000Y-32960000D01*
%TO.N,Net-(J5-Pin_4)*%
X87000000Y-37260000D02*
X87000000Y-38087000D01*
X89799000Y-38419000D02*
X90300000Y-38920000D01*
X87000000Y-38087000D02*
X87332000Y-38419000D01*
X87332000Y-38419000D02*
X89799000Y-38419000D01*
D42*
%TO.N,Net-(J6-DP1)*%
X85375000Y-58820000D02*
X84670000Y-58820000D01*
X84060000Y-57820000D02*
X83860000Y-57620000D01*
X84670000Y-58820000D02*
X84370000Y-58520000D01*
X84680000Y-57820000D02*
X84560000Y-57940000D01*
X85375000Y-57820000D02*
X84680000Y-57820000D01*
X82237500Y-57620000D02*
X83860000Y-57620000D01*
X83860000Y-57620000D02*
X84370000Y-58130000D01*
X84370000Y-58130000D02*
X84560000Y-57940000D01*
X84680000Y-57820000D02*
X84060000Y-57820000D01*
X84370000Y-58520000D02*
X84370000Y-58130000D01*
%TO.N,Net-(J6-DN1)*%
X82237500Y-59520000D02*
X84271479Y-59520000D01*
X84471479Y-59320000D02*
X85375000Y-59320000D01*
X85375000Y-58320000D02*
X86080000Y-58320000D01*
X85375000Y-59320000D02*
X86140000Y-59320000D01*
X86301000Y-59159000D02*
X86301000Y-58541000D01*
X84271479Y-59520000D02*
X84471479Y-59320000D01*
X86080000Y-58320000D02*
X86301000Y-58541000D01*
X86140000Y-59320000D02*
X86301000Y-59159000D01*
%TO.N,Net-(J6-CC2)*%
X85375000Y-56820000D02*
X83025000Y-56820000D01*
X83025000Y-56820000D02*
X82420000Y-56215000D01*
%TO.N,Net-(J6-CC1)*%
X83575000Y-60925000D02*
X82420000Y-60925000D01*
X84680000Y-59820000D02*
X83575000Y-60925000D01*
X85375000Y-59820000D02*
X84680000Y-59820000D01*
%TO.N,/SDA_{3.3V}*%
X57498000Y-87481000D02*
X57498000Y-74532480D01*
X62256581Y-45293419D02*
X62256581Y-63760000D01*
X57498000Y-74532480D02*
X62307000Y-69723480D01*
X62307000Y-66235161D02*
X62307000Y-69723480D01*
X58442678Y-89965000D02*
X59351000Y-89056678D01*
X59351000Y-89056678D02*
X59351000Y-87230346D01*
X72420000Y-80950000D02*
X74190000Y-80950000D01*
X56699000Y-88280000D02*
X57498000Y-87481000D01*
D43*
X59125001Y-85671116D02*
X59125001Y-85462499D01*
D42*
X57050001Y-89965000D02*
X56699000Y-89613999D01*
X71550000Y-80080000D02*
X72420000Y-80950000D01*
X59351000Y-87230346D02*
X59125001Y-87004347D01*
X63860000Y-43690000D02*
X64410000Y-43690000D01*
X56699000Y-89613999D02*
X56699000Y-88280000D01*
X59125001Y-87004347D02*
X59125001Y-85671116D01*
X62256581Y-45293419D02*
X63860000Y-43690000D01*
X68000000Y-80080000D02*
X71550000Y-80080000D01*
X65545000Y-80080000D02*
X68000000Y-80080000D01*
X62296379Y-66224540D02*
X62307000Y-66235161D01*
X58025000Y-89965000D02*
X58442678Y-89965000D01*
D43*
X59125001Y-85462499D02*
X59487500Y-85100000D01*
D42*
X58025000Y-89965000D02*
X57050001Y-89965000D01*
%TO.N,/SCL_{3.3V}*%
X62906581Y-45993419D02*
X63940000Y-44960000D01*
X58565270Y-85034730D02*
X58573969Y-85034730D01*
X68000000Y-77540000D02*
X65535000Y-77540000D01*
D43*
X59487500Y-84600000D02*
X59035298Y-84600000D01*
X58600568Y-85034730D02*
X58573969Y-85034730D01*
D42*
X62808000Y-69931000D02*
X62808000Y-67042000D01*
X63940000Y-44960000D02*
X64410000Y-44960000D01*
X58573969Y-85034730D02*
X57999000Y-84459761D01*
X62906581Y-64713419D02*
X62906581Y-45993419D01*
X58025000Y-85575000D02*
X58565000Y-85035000D01*
X68000000Y-77540000D02*
X71550000Y-77540000D01*
X71560000Y-77550000D02*
X71550000Y-77540000D01*
X58025000Y-88695000D02*
X58025000Y-85575000D01*
X57999000Y-84459761D02*
X57999000Y-74740000D01*
X74190000Y-77550000D02*
X71560000Y-77550000D01*
X57999000Y-74740000D02*
X62808000Y-69931000D01*
X62808000Y-67042000D02*
X62960919Y-66889081D01*
X58565000Y-85035000D02*
X58565270Y-85034730D01*
D43*
X59035298Y-84600000D02*
X58600568Y-85034730D01*
D42*
%TO.N,/D+*%
X78243749Y-58294000D02*
X78917749Y-57620000D01*
X68986999Y-46299001D02*
X68986999Y-52396677D01*
X74884322Y-58294000D02*
X78243749Y-58294000D01*
D47*
X68936001Y-46349999D02*
X69086000Y-46200000D01*
D42*
X69086000Y-46200000D02*
X68986999Y-46299001D01*
D47*
X68936001Y-52417803D02*
X68936001Y-46349999D01*
D42*
X66462000Y-47076000D02*
X64834000Y-47076000D01*
X64834000Y-47076000D02*
X64410000Y-47500000D01*
X66561000Y-47175000D02*
X66462000Y-47076000D01*
X68986999Y-52396677D02*
X74884322Y-58294000D01*
X78917749Y-57620000D02*
X79962500Y-57620000D01*
%TO.N,/D-*%
X74676802Y-58795000D02*
X78243749Y-58795000D01*
X64755000Y-46575000D02*
X64410000Y-46230000D01*
X68485999Y-46349999D02*
X68485999Y-52604197D01*
X68485999Y-52604197D02*
X74676802Y-58795000D01*
X66411000Y-46575000D02*
X64755000Y-46575000D01*
X78243749Y-58795000D02*
X78968749Y-59520000D01*
X68336000Y-46200000D02*
X68485999Y-46349999D01*
X78968749Y-59520000D02*
X79962500Y-59520000D01*
X66561000Y-46425000D02*
X66411000Y-46575000D01*
%TO.N,Net-(Q1-S)*%
X81490000Y-74750000D02*
X82451000Y-73789000D01*
X82451000Y-73789000D02*
X82451000Y-64461000D01*
X80025000Y-74750000D02*
X79900000Y-74625000D01*
X81490000Y-74750000D02*
X80025000Y-74750000D01*
X82451000Y-64461000D02*
X80613784Y-62623784D01*
%TO.N,Net-(U1-U0RXD{slash}GPIO17)*%
X87998000Y-50957160D02*
X87998000Y-75882000D01*
X86690000Y-76715000D02*
X87165000Y-76715000D01*
X86798920Y-49758080D02*
X87998000Y-50957160D01*
X86690000Y-76715000D02*
X86690000Y-78065000D01*
X87165000Y-76715000D02*
X87998000Y-75882000D01*
%TO.N,Net-(J11-Pin_1)*%
X87480000Y-39440000D02*
X87480000Y-39770000D01*
D47*
X86000000Y-37260000D02*
X86000000Y-37960000D01*
X86000000Y-37960000D02*
X87480000Y-39440000D01*
D44*
%TO.N,Net-(J12-Pin_1)*%
X58020000Y-92500000D02*
X58025000Y-92505000D01*
D46*
X55530000Y-92500000D02*
X58020000Y-92500000D01*
D43*
%TO.N,Net-(J13-Pin_1)*%
X61591822Y-80850000D02*
X60830000Y-80850000D01*
X61542502Y-85862500D02*
X61680000Y-85725002D01*
X61250000Y-85862500D02*
X61542502Y-85862500D01*
X62220637Y-81478815D02*
X61591822Y-80850000D01*
%TO.N,Net-(J14-Pin_1)*%
X60750000Y-82200000D02*
X60830000Y-82120000D01*
X60750000Y-83337500D02*
X60750000Y-82200000D01*
%TD*%
%TA.AperFunction,Conductor*%
%TO.N,Net-(J10-Pin_1)*%
G36*
X59453039Y-54999685D02*
G01*
X59498794Y-55052489D01*
X59510000Y-55104000D01*
X59510000Y-56756552D01*
X59490315Y-56823591D01*
X59437511Y-56869346D01*
X59368353Y-56879290D01*
X59320391Y-56861773D01*
X58718391Y-56486408D01*
X58671920Y-56434234D01*
X58660000Y-56381187D01*
X58660000Y-55104000D01*
X58679685Y-55036961D01*
X58732489Y-54991206D01*
X58784000Y-54980000D01*
X59386000Y-54980000D01*
X59453039Y-54999685D01*
G37*
%TD.AperFunction*%
%TD*%
%TA.AperFunction,Conductor*%
%TO.N,+5Vin*%
G36*
X82009725Y-55149768D02*
G01*
X82010420Y-55147632D01*
X82019694Y-55150645D01*
X82019696Y-55150646D01*
X82113481Y-55165500D01*
X82726518Y-55165499D01*
X82820304Y-55150646D01*
X82820308Y-55150644D01*
X82829588Y-55147630D01*
X82830000Y-55148900D01*
X82836034Y-55145023D01*
X82870969Y-55140000D01*
X83026000Y-55140000D01*
X83093039Y-55159685D01*
X83138794Y-55212489D01*
X83150000Y-55264000D01*
X83150000Y-55536000D01*
X83130315Y-55603039D01*
X83077511Y-55648794D01*
X83026000Y-55660000D01*
X82910220Y-55660000D01*
X82853925Y-55646485D01*
X82820301Y-55629352D01*
X82726524Y-55614500D01*
X82113482Y-55614500D01*
X82019695Y-55629354D01*
X81986074Y-55646485D01*
X81973071Y-55649606D01*
X81964715Y-55654977D01*
X81929780Y-55660000D01*
X81814000Y-55660000D01*
X81746961Y-55640315D01*
X81701206Y-55587511D01*
X81690000Y-55536000D01*
X81690000Y-55264000D01*
X81709685Y-55196961D01*
X81762489Y-55151206D01*
X81814000Y-55140000D01*
X81969033Y-55140000D01*
X82009725Y-55149768D01*
G37*
%TD.AperFunction*%
%TD*%
%TA.AperFunction,Conductor*%
%TO.N,+3.3V*%
G36*
X61213114Y-31923888D02*
G01*
X61253372Y-31980994D01*
X61260000Y-32020993D01*
X61260000Y-32179006D01*
X61240315Y-32246045D01*
X61187511Y-32291800D01*
X61118353Y-32301744D01*
X61079707Y-32289491D01*
X60983126Y-32240281D01*
X60983124Y-32240280D01*
X60983121Y-32240279D01*
X60883493Y-32224500D01*
X60883488Y-32224500D01*
X60316512Y-32224500D01*
X60316507Y-32224500D01*
X60216878Y-32240279D01*
X60216874Y-32240280D01*
X60216874Y-32240281D01*
X60120293Y-32289491D01*
X60117589Y-32289999D01*
X60115511Y-32291800D01*
X60083459Y-32296408D01*
X60051625Y-32302387D01*
X60049076Y-32301352D01*
X60046353Y-32301744D01*
X60016887Y-32288287D01*
X59986885Y-32276110D01*
X59985300Y-32273862D01*
X59982797Y-32272719D01*
X59965285Y-32245470D01*
X59946628Y-32219004D01*
X59946055Y-32215547D01*
X59945023Y-32213941D01*
X59940000Y-32179006D01*
X59940000Y-32020993D01*
X59959685Y-31953954D01*
X60012489Y-31908199D01*
X60081647Y-31898255D01*
X60120287Y-31910505D01*
X60216874Y-31959719D01*
X60216876Y-31959719D01*
X60216878Y-31959720D01*
X60316507Y-31975500D01*
X60316512Y-31975500D01*
X60883493Y-31975500D01*
X60983121Y-31959720D01*
X60983121Y-31959719D01*
X60983126Y-31959719D01*
X61079709Y-31910507D01*
X61148374Y-31897612D01*
X61213114Y-31923888D01*
G37*
%TD.AperFunction*%
%TD*%
%TA.AperFunction,Conductor*%
%TO.N,+5V*%
G36*
X86617539Y-32429685D02*
G01*
X86663294Y-32482489D01*
X86674500Y-32534000D01*
X86674500Y-33529752D01*
X86686131Y-33588228D01*
X86686132Y-33588230D01*
X86686133Y-33588231D01*
X86729102Y-33652537D01*
X86749980Y-33719211D01*
X86750000Y-33721427D01*
X86750000Y-34096000D01*
X86730315Y-34163039D01*
X86677511Y-34208794D01*
X86626000Y-34220000D01*
X86374000Y-34220000D01*
X86306961Y-34200315D01*
X86261206Y-34147511D01*
X86250000Y-34096000D01*
X86250000Y-33721427D01*
X86269685Y-33654388D01*
X86270830Y-33652639D01*
X86313867Y-33588231D01*
X86325500Y-33529748D01*
X86325500Y-32534000D01*
X86328050Y-32525314D01*
X86326762Y-32516353D01*
X86337740Y-32492312D01*
X86345185Y-32466961D01*
X86352025Y-32461033D01*
X86355787Y-32452797D01*
X86378021Y-32438507D01*
X86397989Y-32421206D01*
X86408503Y-32418918D01*
X86414565Y-32415023D01*
X86449500Y-32410000D01*
X86550500Y-32410000D01*
X86617539Y-32429685D01*
G37*
%TD.AperFunction*%
%TD*%
%TA.AperFunction,Conductor*%
%TO.N,+5Vin*%
G36*
X81986075Y-61493515D02*
G01*
X82019698Y-61510647D01*
X82113475Y-61525499D01*
X82113481Y-61525500D01*
X82726518Y-61525499D01*
X82820304Y-61510646D01*
X82845345Y-61497886D01*
X82853926Y-61493515D01*
X82866928Y-61490393D01*
X82875285Y-61485023D01*
X82910220Y-61480000D01*
X83016000Y-61480000D01*
X83083039Y-61499685D01*
X83128794Y-61552489D01*
X83140000Y-61604000D01*
X83140000Y-61876000D01*
X83120315Y-61943039D01*
X83067511Y-61988794D01*
X83016000Y-62000000D01*
X82870967Y-62000000D01*
X82830274Y-61990231D01*
X82829580Y-61992368D01*
X82820302Y-61989353D01*
X82726524Y-61974500D01*
X82113482Y-61974500D01*
X82035849Y-61986795D01*
X82019696Y-61989354D01*
X82019695Y-61989354D01*
X82019691Y-61989355D01*
X82010412Y-61992370D01*
X82009999Y-61991099D01*
X82003966Y-61994977D01*
X81969031Y-62000000D01*
X81804000Y-62000000D01*
X81736961Y-61980315D01*
X81691206Y-61927511D01*
X81680000Y-61876000D01*
X81680000Y-61604000D01*
X81699685Y-61536961D01*
X81752489Y-61491206D01*
X81804000Y-61480000D01*
X81929780Y-61480000D01*
X81986075Y-61493515D01*
G37*
%TD.AperFunction*%
%TD*%
%TA.AperFunction,Conductor*%
%TO.N,/Vin_reg*%
G36*
X71304531Y-62494685D02*
G01*
X71350286Y-62547489D01*
X71361278Y-62591719D01*
X71449786Y-64096362D01*
X71450000Y-64103643D01*
X71450000Y-69526000D01*
X71430315Y-69593039D01*
X71377511Y-69638794D01*
X71326000Y-69650000D01*
X70474000Y-69650000D01*
X70406961Y-69630315D01*
X70361206Y-69577511D01*
X70350000Y-69526000D01*
X70350000Y-64114392D01*
X70353296Y-64085991D01*
X70709858Y-62570599D01*
X70744374Y-62509850D01*
X70806254Y-62477406D01*
X70830562Y-62475000D01*
X71237492Y-62475000D01*
X71304531Y-62494685D01*
G37*
%TD.AperFunction*%
%TD*%
%TA.AperFunction,Conductor*%
%TO.N,+3.3V*%
G36*
X63979281Y-88409685D02*
G01*
X63981339Y-88411036D01*
X65355109Y-89333155D01*
X65399800Y-89386861D01*
X65410000Y-89436111D01*
X65410000Y-90176000D01*
X65390315Y-90243039D01*
X65337511Y-90288794D01*
X65286000Y-90300000D01*
X62124000Y-90300000D01*
X62056961Y-90280315D01*
X62011206Y-90227511D01*
X62000000Y-90176000D01*
X62000000Y-88514000D01*
X62019685Y-88446961D01*
X62072489Y-88401206D01*
X62124000Y-88390000D01*
X63912242Y-88390000D01*
X63979281Y-88409685D01*
G37*
%TD.AperFunction*%
%TD*%
%TA.AperFunction,Conductor*%
%TO.N,+3.3V*%
G36*
X72343039Y-74169685D02*
G01*
X72388794Y-74222489D01*
X72400000Y-74274000D01*
X72400000Y-75726000D01*
X72380315Y-75793039D01*
X72327511Y-75838794D01*
X72276000Y-75850000D01*
X67274000Y-75850000D01*
X67206961Y-75830315D01*
X67161206Y-75777511D01*
X67150000Y-75726000D01*
X67150000Y-74274000D01*
X67169685Y-74206961D01*
X67222489Y-74161206D01*
X67274000Y-74150000D01*
X72276000Y-74150000D01*
X72343039Y-74169685D01*
G37*
%TD.AperFunction*%
%TD*%
%TA.AperFunction,Conductor*%
%TO.N,GND*%
G36*
X89345147Y-30020462D02*
G01*
X89399685Y-30075000D01*
X89419647Y-30149500D01*
X89399685Y-30224000D01*
X89353430Y-30273386D01*
X89305448Y-30305448D01*
X89261132Y-30371769D01*
X89249500Y-30430251D01*
X89249500Y-31221500D01*
X89229538Y-31296000D01*
X89175000Y-31350538D01*
X89100500Y-31370500D01*
X87394147Y-31370500D01*
X87311358Y-31392683D01*
X87254279Y-31425638D01*
X87237144Y-31435530D01*
X87237140Y-31435533D01*
X86739532Y-31933141D01*
X86696683Y-32007358D01*
X86696682Y-32007360D01*
X86696682Y-32007361D01*
X86683342Y-32057147D01*
X86676267Y-32083549D01*
X86673450Y-32094065D01*
X86634885Y-32160860D01*
X86568090Y-32199423D01*
X86529527Y-32204500D01*
X86449493Y-32204500D01*
X86424404Y-32206295D01*
X86348670Y-32191699D01*
X86290380Y-32141192D01*
X86284735Y-32132174D01*
X86260469Y-32090144D01*
X86260466Y-32090140D01*
X86260465Y-32090138D01*
X85889862Y-31719535D01*
X85889859Y-31719533D01*
X85889858Y-31719532D01*
X85815641Y-31676683D01*
X85815640Y-31676682D01*
X85815639Y-31676682D01*
X85773712Y-31665448D01*
X85732855Y-31654500D01*
X85732853Y-31654500D01*
X84189899Y-31654500D01*
X84104193Y-31654500D01*
X84104190Y-31654500D01*
X84037644Y-31672331D01*
X84021407Y-31676682D01*
X84021406Y-31676682D01*
X84021404Y-31676683D01*
X83947187Y-31719532D01*
X83947186Y-31719533D01*
X83947184Y-31719534D01*
X83947184Y-31719535D01*
X83114856Y-32551862D01*
X83048064Y-32590425D01*
X82970936Y-32590425D01*
X82904141Y-32551861D01*
X82865577Y-32485066D01*
X82860500Y-32446502D01*
X82860500Y-31790251D01*
X82848867Y-31731769D01*
X82834736Y-31710621D01*
X82804552Y-31665448D01*
X82738231Y-31621133D01*
X82738230Y-31621132D01*
X82679748Y-31609500D01*
X81140252Y-31609500D01*
X81081769Y-31621132D01*
X81015448Y-31665448D01*
X80971132Y-31731769D01*
X80959500Y-31790251D01*
X80959500Y-32729748D01*
X80971132Y-32788231D01*
X80987162Y-32812221D01*
X81011953Y-32885256D01*
X80996906Y-32960902D01*
X80987162Y-32977779D01*
X80971132Y-33001768D01*
X80959500Y-33060251D01*
X80959500Y-33767914D01*
X80939538Y-33842414D01*
X80885000Y-33896952D01*
X80810500Y-33916914D01*
X80771937Y-33911837D01*
X80725896Y-33899500D01*
X80725890Y-33899500D01*
X80594106Y-33899500D01*
X80466812Y-33933608D01*
X80466810Y-33933608D01*
X80466810Y-33933609D01*
X80388991Y-33978538D01*
X80314491Y-33998500D01*
X79684202Y-33998500D01*
X79595056Y-34022386D01*
X79515133Y-34068530D01*
X78687530Y-34896133D01*
X78650880Y-34959614D01*
X78650879Y-34959616D01*
X78641387Y-34976055D01*
X78617500Y-35065201D01*
X78617500Y-52125099D01*
X78597538Y-52199599D01*
X78573859Y-52230458D01*
X74610464Y-56193852D01*
X74543669Y-56232416D01*
X74466544Y-56232417D01*
X74438986Y-56225033D01*
X74438984Y-56225033D01*
X74307200Y-56225033D01*
X74179906Y-56259141D01*
X74179904Y-56259141D01*
X74179904Y-56259142D01*
X74065781Y-56325030D01*
X73972589Y-56418222D01*
X73940100Y-56474496D01*
X73909346Y-56527765D01*
X73901817Y-56540805D01*
X73900185Y-56539862D01*
X73860613Y-56591421D01*
X73789352Y-56620928D01*
X73712885Y-56610851D01*
X73664563Y-56578559D01*
X69381140Y-52295136D01*
X69342576Y-52228341D01*
X69337499Y-52189777D01*
X69337499Y-46647320D01*
X69357461Y-46572820D01*
X69381136Y-46541965D01*
X69446489Y-46476613D01*
X69505799Y-46373886D01*
X69536500Y-46259309D01*
X69536500Y-46140691D01*
X69505799Y-46026114D01*
X69505797Y-46026110D01*
X69446493Y-45923393D01*
X69446490Y-45923389D01*
X69446489Y-45923387D01*
X69362613Y-45839511D01*
X69362610Y-45839509D01*
X69362606Y-45839506D01*
X69259889Y-45780202D01*
X69259886Y-45780201D01*
X69145309Y-45749500D01*
X69026691Y-45749500D01*
X68912110Y-45780202D01*
X68809389Y-45839508D01*
X68801710Y-45845402D01*
X68730454Y-45874921D01*
X68653985Y-45864856D01*
X68620290Y-45845402D01*
X68612610Y-45839508D01*
X68509889Y-45780202D01*
X68509886Y-45780201D01*
X68395309Y-45749500D01*
X68276691Y-45749500D01*
X68276682Y-45749501D01*
X68274059Y-45750204D01*
X68271343Y-45750203D01*
X68267005Y-45750775D01*
X68266929Y-45750203D01*
X68196931Y-45750202D01*
X68130137Y-45711635D01*
X68091576Y-45644839D01*
X68086500Y-45606280D01*
X68086500Y-34594691D01*
X68086499Y-34594689D01*
X68055799Y-34480114D01*
X68024267Y-34425500D01*
X67996489Y-34377386D01*
X65518614Y-31899511D01*
X65518611Y-31899509D01*
X65518610Y-31899508D01*
X65423004Y-31844310D01*
X65368466Y-31789772D01*
X65351367Y-31744342D01*
X65348867Y-31731769D01*
X65345950Y-31727404D01*
X65334736Y-31710621D01*
X65304552Y-31665448D01*
X65238231Y-31621133D01*
X65238230Y-31621132D01*
X65179748Y-31609500D01*
X63640252Y-31609500D01*
X63581769Y-31621132D01*
X63515448Y-31665448D01*
X63463440Y-31743282D01*
X63405451Y-31794135D01*
X63339552Y-31809500D01*
X62905691Y-31809500D01*
X62791114Y-31840201D01*
X62791113Y-31840201D01*
X62791110Y-31840202D01*
X62766586Y-31854361D01*
X62766587Y-31854362D01*
X62688385Y-31899511D01*
X62455358Y-32132538D01*
X62388563Y-32171102D01*
X62311435Y-32171102D01*
X62244642Y-32132539D01*
X61851614Y-31739511D01*
X61851611Y-31739509D01*
X61851607Y-31739506D01*
X61748890Y-31680202D01*
X61748887Y-31680201D01*
X61724673Y-31673713D01*
X61634309Y-31649500D01*
X61202933Y-31649500D01*
X61088356Y-31680201D01*
X61088355Y-31680201D01*
X61088353Y-31680202D01*
X61048294Y-31703330D01*
X61033102Y-31710980D01*
X61027568Y-31713380D01*
X60986413Y-31727406D01*
X60935759Y-31753214D01*
X60931518Y-31755055D01*
X60924605Y-31756082D01*
X60895532Y-31765530D01*
X60883206Y-31767483D01*
X60878906Y-31768164D01*
X60855590Y-31770000D01*
X60344409Y-31770000D01*
X60321099Y-31768165D01*
X60304476Y-31765532D01*
X60260140Y-31751126D01*
X60213581Y-31727402D01*
X60213570Y-31727397D01*
X60182402Y-31714618D01*
X60182392Y-31714614D01*
X60182390Y-31714614D01*
X60173120Y-31711675D01*
X60143651Y-31698680D01*
X60111648Y-31680202D01*
X59997067Y-31649500D01*
X59473321Y-31649500D01*
X59398821Y-31629538D01*
X59367962Y-31605859D01*
X59119140Y-31357037D01*
X59080576Y-31290242D01*
X59075499Y-31251678D01*
X59075499Y-31043481D01*
X59073146Y-31028628D01*
X59060646Y-30949696D01*
X59003050Y-30836658D01*
X58913342Y-30746950D01*
X58800305Y-30689354D01*
X58784673Y-30686878D01*
X58706519Y-30674500D01*
X58706514Y-30674500D01*
X58093481Y-30674500D01*
X57999695Y-30689354D01*
X57999693Y-30689355D01*
X57886657Y-30746950D01*
X57796950Y-30836657D01*
X57739354Y-30949694D01*
X57739354Y-30949696D01*
X57724500Y-31043481D01*
X57724500Y-31043482D01*
X57724500Y-31043485D01*
X57724500Y-31506518D01*
X57739354Y-31600304D01*
X57796950Y-31713342D01*
X57886658Y-31803050D01*
X57999696Y-31860646D01*
X58093481Y-31875500D01*
X58301677Y-31875499D01*
X58320625Y-31880576D01*
X58340242Y-31880576D01*
X58357230Y-31890384D01*
X58376177Y-31895461D01*
X58407037Y-31919140D01*
X58558038Y-32070141D01*
X58596602Y-32136936D01*
X58596602Y-32214064D01*
X58558038Y-32280859D01*
X58491243Y-32319423D01*
X58452679Y-32324500D01*
X58093481Y-32324500D01*
X57999695Y-32339354D01*
X57999693Y-32339355D01*
X57886657Y-32396950D01*
X57796950Y-32486657D01*
X57739354Y-32599694D01*
X57734402Y-32630957D01*
X57724500Y-32693481D01*
X57724500Y-32693484D01*
X57724500Y-32693485D01*
X57724500Y-33156518D01*
X57738717Y-33246283D01*
X57739354Y-33250304D01*
X57796950Y-33363342D01*
X57886658Y-33453050D01*
X57999696Y-33510646D01*
X58093481Y-33525500D01*
X58706518Y-33525499D01*
X58800304Y-33510646D01*
X58913342Y-33453050D01*
X58997251Y-33369141D01*
X59064046Y-33330577D01*
X59102610Y-33325500D01*
X59912034Y-33325500D01*
X59930895Y-33330553D01*
X59950422Y-33330530D01*
X59967454Y-33340349D01*
X59986534Y-33345462D01*
X60017264Y-33369012D01*
X60096780Y-33448528D01*
X60097177Y-33448730D01*
X60105730Y-33457262D01*
X60119399Y-33480871D01*
X60136578Y-33502057D01*
X60139435Y-33515476D01*
X60144376Y-33524010D01*
X60144393Y-33538767D01*
X60149500Y-33562750D01*
X60149500Y-34169310D01*
X60166888Y-34234201D01*
X60166887Y-34234201D01*
X60166888Y-34234203D01*
X60180199Y-34283883D01*
X60180201Y-34283888D01*
X60239506Y-34386607D01*
X60239509Y-34386611D01*
X60239511Y-34386614D01*
X60447586Y-34594689D01*
X60646472Y-34793575D01*
X60685036Y-34860370D01*
X60685036Y-34937498D01*
X60682820Y-34944977D01*
X60678065Y-34959616D01*
X60649059Y-35048886D01*
X60638226Y-35117283D01*
X60619500Y-35235519D01*
X60619500Y-35424481D01*
X60649060Y-35611118D01*
X60707453Y-35790832D01*
X60793240Y-35959199D01*
X60904310Y-36112073D01*
X61037927Y-36245690D01*
X61190801Y-36356760D01*
X61288145Y-36406359D01*
X61345461Y-36457966D01*
X61369296Y-36531319D01*
X61369500Y-36539118D01*
X61369500Y-40620881D01*
X61349538Y-40695381D01*
X61295000Y-40749919D01*
X61288145Y-40753641D01*
X61190799Y-40803241D01*
X61037936Y-40914303D01*
X61037925Y-40914312D01*
X60904312Y-41047925D01*
X60904303Y-41047936D01*
X60793241Y-41200799D01*
X60793238Y-41200804D01*
X60707458Y-41369157D01*
X60707455Y-41369163D01*
X60707453Y-41369168D01*
X60649060Y-41548882D01*
X60619500Y-41735519D01*
X60619500Y-41924481D01*
X60649060Y-42111118D01*
X60707453Y-42290832D01*
X60793240Y-42459199D01*
X60904310Y-42612073D01*
X61037927Y-42745690D01*
X61190801Y-42856760D01*
X61359168Y-42942547D01*
X61538882Y-43000940D01*
X61725519Y-43030500D01*
X61725524Y-43030500D01*
X61914476Y-43030500D01*
X61914481Y-43030500D01*
X62101118Y-43000940D01*
X62280832Y-42942547D01*
X62449199Y-42856760D01*
X62602073Y-42745690D01*
X62735690Y-42612073D01*
X62846760Y-42459199D01*
X62932547Y-42290832D01*
X62990940Y-42111118D01*
X63020500Y-41924481D01*
X63020500Y-41735519D01*
X62990940Y-41548882D01*
X62932547Y-41369168D01*
X62846760Y-41200801D01*
X62735690Y-41047927D01*
X62602073Y-40914310D01*
X62449199Y-40803240D01*
X62351854Y-40753640D01*
X62294538Y-40702032D01*
X62270704Y-40628679D01*
X62270500Y-40620881D01*
X62270500Y-36539118D01*
X62290462Y-36464618D01*
X62345000Y-36410080D01*
X62351838Y-36406367D01*
X62449199Y-36356760D01*
X62602073Y-36245690D01*
X62735690Y-36112073D01*
X62846760Y-35959199D01*
X62932547Y-35790832D01*
X62990940Y-35611118D01*
X63020500Y-35424481D01*
X63020500Y-35235519D01*
X62990940Y-35048882D01*
X62957179Y-34944977D01*
X62956969Y-34940971D01*
X62954963Y-34937497D01*
X62954963Y-34902697D01*
X62953142Y-34867954D01*
X62954963Y-34864380D01*
X62954963Y-34860369D01*
X62972360Y-34830236D01*
X62988157Y-34799233D01*
X62993508Y-34793593D01*
X63205141Y-34581961D01*
X63271936Y-34543397D01*
X63349064Y-34543397D01*
X63415859Y-34581961D01*
X63454423Y-34648756D01*
X63459500Y-34687320D01*
X63459500Y-35269748D01*
X63471132Y-35328231D01*
X63487162Y-35352221D01*
X63511953Y-35425256D01*
X63496906Y-35500902D01*
X63487162Y-35517779D01*
X63471132Y-35541768D01*
X63459500Y-35600251D01*
X63459500Y-36539748D01*
X63471132Y-36598231D01*
X63487162Y-36622221D01*
X63511953Y-36695256D01*
X63496906Y-36770902D01*
X63487162Y-36787779D01*
X63471132Y-36811768D01*
X63459500Y-36870251D01*
X63459500Y-37809748D01*
X63471132Y-37868231D01*
X63487162Y-37892221D01*
X63511953Y-37965256D01*
X63496906Y-38040902D01*
X63487162Y-38057779D01*
X63471132Y-38081768D01*
X63459500Y-38140251D01*
X63459500Y-39079748D01*
X63471132Y-39138231D01*
X63487162Y-39162221D01*
X63511953Y-39235256D01*
X63496906Y-39310902D01*
X63487162Y-39327779D01*
X63471132Y-39351768D01*
X63459500Y-39410251D01*
X63459500Y-40349748D01*
X63471132Y-40408231D01*
X63487162Y-40432221D01*
X63511953Y-40505256D01*
X63496906Y-40580902D01*
X63487162Y-40597779D01*
X63471132Y-40621768D01*
X63459500Y-40680251D01*
X63459500Y-41619748D01*
X63471132Y-41678231D01*
X63487162Y-41702221D01*
X63511953Y-41775256D01*
X63496906Y-41850902D01*
X63487162Y-41867779D01*
X63471132Y-41891768D01*
X63459500Y-41950251D01*
X63459500Y-42889748D01*
X63471132Y-42948231D01*
X63487162Y-42972221D01*
X63511953Y-43045256D01*
X63496906Y-43120902D01*
X63487162Y-43137779D01*
X63471132Y-43161768D01*
X63459500Y-43220251D01*
X63459500Y-43533100D01*
X63439538Y-43607600D01*
X63415859Y-43638459D01*
X61976111Y-45078206D01*
X61929967Y-45158129D01*
X61906081Y-45247274D01*
X61906081Y-58357911D01*
X61886119Y-58432411D01*
X61831581Y-58486949D01*
X61757081Y-58506911D01*
X61718517Y-58501834D01*
X61672476Y-58489497D01*
X61672473Y-58489497D01*
X61540689Y-58489497D01*
X61413395Y-58523605D01*
X61413393Y-58523605D01*
X61413393Y-58523606D01*
X61299270Y-58589494D01*
X61299269Y-58589495D01*
X61299267Y-58589496D01*
X61299267Y-58589497D01*
X61292906Y-58595857D01*
X61226114Y-58634420D01*
X61187550Y-58639497D01*
X58885339Y-58639497D01*
X58806597Y-58660595D01*
X58806596Y-58660596D01*
X58801395Y-58661989D01*
X58796193Y-58663383D01*
X58716270Y-58709527D01*
X56994530Y-60431267D01*
X56978387Y-60459227D01*
X56978385Y-60459231D01*
X56970830Y-60472318D01*
X56948386Y-60511192D01*
X56924500Y-60600336D01*
X56924500Y-60621090D01*
X56916871Y-60644006D01*
X56913490Y-60649130D01*
X56911804Y-60657124D01*
X56877416Y-60735005D01*
X56877415Y-60735008D01*
X56877415Y-60735009D01*
X56874500Y-60760135D01*
X56874500Y-60760136D01*
X56874500Y-60760140D01*
X56874500Y-62124866D01*
X56877414Y-62149989D01*
X56877415Y-62149992D01*
X56922793Y-62252764D01*
X56922794Y-62252765D01*
X57002235Y-62332206D01*
X57105009Y-62377585D01*
X57130135Y-62380500D01*
X57419864Y-62380499D01*
X57419866Y-62380499D01*
X57432427Y-62379042D01*
X57444991Y-62377585D01*
X57539819Y-62335714D01*
X57616030Y-62323884D01*
X57660177Y-62335713D01*
X57755009Y-62377585D01*
X57780135Y-62380500D01*
X58069864Y-62380499D01*
X58069866Y-62380499D01*
X58082427Y-62379042D01*
X58094991Y-62377585D01*
X58189819Y-62335714D01*
X58266030Y-62323884D01*
X58310177Y-62335713D01*
X58405009Y-62377585D01*
X58430135Y-62380500D01*
X58719864Y-62380499D01*
X58719866Y-62380499D01*
X58726458Y-62379734D01*
X58744991Y-62377585D01*
X58744993Y-62377584D01*
X58744994Y-62377584D01*
X58755808Y-62374643D01*
X58756480Y-62377115D01*
X58816613Y-62367777D01*
X58888535Y-62395634D01*
X58905951Y-62410554D01*
X62061205Y-65565808D01*
X62099769Y-65632603D01*
X62099769Y-65709731D01*
X62061205Y-65776526D01*
X62030348Y-65800203D01*
X61989074Y-65824033D01*
X61989067Y-65824038D01*
X61895876Y-65917229D01*
X61850342Y-65996098D01*
X61829987Y-66031354D01*
X61814157Y-66090430D01*
X61795879Y-66158646D01*
X61795879Y-66158648D01*
X61795879Y-66290432D01*
X61829987Y-66417726D01*
X61855002Y-66461054D01*
X61895876Y-66531850D01*
X61895877Y-66531851D01*
X61895879Y-66531854D01*
X61912860Y-66548835D01*
X61951423Y-66615628D01*
X61956500Y-66654192D01*
X61956500Y-69516580D01*
X61936538Y-69591080D01*
X61912859Y-69621939D01*
X57217528Y-74317270D01*
X57217525Y-74317274D01*
X57181759Y-74379223D01*
X57181760Y-74379224D01*
X57171386Y-74397191D01*
X57147500Y-74486335D01*
X57147500Y-87274100D01*
X57127538Y-87348600D01*
X57103859Y-87379459D01*
X56418530Y-88064787D01*
X56372386Y-88144710D01*
X56348500Y-88233855D01*
X56348500Y-89660146D01*
X56355035Y-89684533D01*
X56372383Y-89749280D01*
X56372386Y-89749289D01*
X56418525Y-89829204D01*
X56418528Y-89829208D01*
X56418530Y-89829211D01*
X56769532Y-90180212D01*
X56834789Y-90245469D01*
X56834790Y-90245470D01*
X56834792Y-90245471D01*
X56849536Y-90253984D01*
X56904073Y-90308523D01*
X56908890Y-90317573D01*
X56910801Y-90321482D01*
X56993518Y-90404199D01*
X57098605Y-90455573D01*
X57166731Y-90465499D01*
X57166737Y-90465499D01*
X57166740Y-90465500D01*
X57166741Y-90465500D01*
X58883259Y-90465500D01*
X58883260Y-90465500D01*
X58883263Y-90465499D01*
X58883268Y-90465499D01*
X58951393Y-90455573D01*
X58951394Y-90455573D01*
X59056481Y-90404199D01*
X59056481Y-90404198D01*
X59056483Y-90404198D01*
X59139198Y-90321483D01*
X59139199Y-90321481D01*
X59190573Y-90216394D01*
X59190573Y-90216393D01*
X59200499Y-90148268D01*
X59200500Y-90148258D01*
X59200500Y-89781741D01*
X59200110Y-89776357D01*
X59202595Y-89776176D01*
X59210080Y-89710720D01*
X59243328Y-89660029D01*
X59631469Y-89271890D01*
X59677614Y-89191966D01*
X59682294Y-89174500D01*
X59701500Y-89102822D01*
X59701500Y-87184202D01*
X59677614Y-87095058D01*
X59631470Y-87015134D01*
X59519142Y-86902806D01*
X59480578Y-86836011D01*
X59475501Y-86797447D01*
X59475501Y-86090147D01*
X59495463Y-86015647D01*
X59519138Y-85984792D01*
X59525501Y-85978430D01*
X59591393Y-85864302D01*
X59625501Y-85737008D01*
X59625501Y-85605224D01*
X59624226Y-85595538D01*
X59627604Y-85595093D01*
X59627599Y-85535949D01*
X59666156Y-85469151D01*
X59732948Y-85430581D01*
X59771525Y-85425500D01*
X59844748Y-85425500D01*
X59903231Y-85413867D01*
X59969552Y-85369552D01*
X60013867Y-85303231D01*
X60025500Y-85244748D01*
X60025500Y-84955252D01*
X60013867Y-84896769D01*
X60011004Y-84882375D01*
X60014770Y-84881625D01*
X60008045Y-84830559D01*
X60011484Y-84817720D01*
X60011004Y-84817625D01*
X60025500Y-84744748D01*
X60025500Y-84455251D01*
X60011004Y-84382375D01*
X60014770Y-84381625D01*
X60008045Y-84330559D01*
X60011484Y-84317720D01*
X60011004Y-84317625D01*
X60025500Y-84244748D01*
X60025500Y-84024500D01*
X60045462Y-83950000D01*
X60100000Y-83895462D01*
X60174500Y-83875500D01*
X60394748Y-83875500D01*
X60467625Y-83861004D01*
X60468374Y-83864770D01*
X60519441Y-83858045D01*
X60532279Y-83861484D01*
X60532375Y-83861004D01*
X60605252Y-83875500D01*
X60894748Y-83875500D01*
X60967625Y-83861004D01*
X60968374Y-83864770D01*
X61019441Y-83858045D01*
X61032279Y-83861484D01*
X61032375Y-83861004D01*
X61105252Y-83875500D01*
X61394748Y-83875500D01*
X61438170Y-83866863D01*
X61467238Y-83864000D01*
X61942179Y-83864000D01*
X62016679Y-83883962D01*
X62047538Y-83907641D01*
X62480859Y-84340962D01*
X62490666Y-84357949D01*
X62504538Y-84371821D01*
X62509615Y-84390769D01*
X62519423Y-84407757D01*
X62524500Y-84446321D01*
X62524500Y-84625500D01*
X62504538Y-84700000D01*
X62450000Y-84754538D01*
X62375500Y-84774500D01*
X61155252Y-84774500D01*
X61096769Y-84786132D01*
X61030448Y-84830448D01*
X60986132Y-84896769D01*
X60974500Y-84955251D01*
X60974500Y-85244748D01*
X60984624Y-85295645D01*
X60979580Y-85372608D01*
X60962376Y-85407493D01*
X60936133Y-85446768D01*
X60924500Y-85505251D01*
X60924500Y-86219748D01*
X60936132Y-86278230D01*
X60936133Y-86278231D01*
X60980448Y-86344552D01*
X61046769Y-86388867D01*
X61105252Y-86400500D01*
X61394748Y-86400500D01*
X61453231Y-86388867D01*
X61519552Y-86344552D01*
X61542289Y-86310523D01*
X61600276Y-86259672D01*
X61675922Y-86244625D01*
X61748957Y-86269418D01*
X61799810Y-86327406D01*
X61814857Y-86403052D01*
X61810100Y-86431867D01*
X61809500Y-86434104D01*
X61809500Y-86434108D01*
X61809500Y-86565892D01*
X61843608Y-86693186D01*
X61843609Y-86693187D01*
X61909497Y-86807310D01*
X61909498Y-86807311D01*
X61909500Y-86807314D01*
X62002686Y-86900500D01*
X62116814Y-86966392D01*
X62244108Y-87000500D01*
X62375500Y-87000500D01*
X62450000Y-87020462D01*
X62504538Y-87075000D01*
X62524500Y-87149500D01*
X62524500Y-88035500D01*
X62504538Y-88110000D01*
X62450000Y-88164538D01*
X62375500Y-88184500D01*
X62123986Y-88184500D01*
X62080323Y-88189195D01*
X62028775Y-88200409D01*
X62018634Y-88202887D01*
X62018623Y-88202891D01*
X61937914Y-88245900D01*
X61885119Y-88291647D01*
X61885103Y-88291662D01*
X61867156Y-88309246D01*
X61822510Y-88389063D01*
X61822509Y-88389064D01*
X61802823Y-88456110D01*
X61794500Y-88513991D01*
X61794500Y-90176013D01*
X61799195Y-90219676D01*
X61810409Y-90271224D01*
X61812887Y-90281365D01*
X61812891Y-90281376D01*
X61855900Y-90362085D01*
X61887325Y-90398352D01*
X61901655Y-90414889D01*
X61919246Y-90432843D01*
X61999063Y-90477490D01*
X62066102Y-90497175D01*
X62085686Y-90499990D01*
X62123991Y-90505499D01*
X62123997Y-90505499D01*
X62124000Y-90505500D01*
X62124001Y-90505500D01*
X65285996Y-90505500D01*
X65286000Y-90505500D01*
X65286004Y-90505499D01*
X65286013Y-90505499D01*
X65329676Y-90500804D01*
X65329677Y-90500803D01*
X65329684Y-90500803D01*
X65381195Y-90489597D01*
X65391373Y-90487110D01*
X65472085Y-90444100D01*
X65524889Y-90398345D01*
X65542843Y-90380754D01*
X65587490Y-90300937D01*
X65607175Y-90233898D01*
X65615500Y-90176000D01*
X65615500Y-89436111D01*
X65611230Y-89394435D01*
X65601030Y-89345185D01*
X65599151Y-89336969D01*
X65557762Y-89255414D01*
X65551271Y-89247614D01*
X65538647Y-89232443D01*
X65513071Y-89201708D01*
X65513067Y-89201705D01*
X65513066Y-89201703D01*
X65495184Y-89185573D01*
X65469639Y-89162529D01*
X64417218Y-88456110D01*
X64095938Y-88240456D01*
X64095869Y-88240410D01*
X64094113Y-88239245D01*
X64092055Y-88237894D01*
X64092053Y-88237893D01*
X64092050Y-88237891D01*
X64037185Y-88212512D01*
X64037169Y-88212506D01*
X63970137Y-88192824D01*
X63912250Y-88184500D01*
X63912242Y-88184500D01*
X63574500Y-88184500D01*
X63500000Y-88164538D01*
X63445462Y-88110000D01*
X63425500Y-88035500D01*
X63425500Y-82948321D01*
X63445462Y-82873821D01*
X63469141Y-82842962D01*
X63824212Y-82487891D01*
X64255489Y-82056614D01*
X64300117Y-81979315D01*
X64314799Y-81953886D01*
X64345500Y-81839309D01*
X64345500Y-80732610D01*
X64365462Y-80658110D01*
X64389141Y-80627251D01*
X64391892Y-80624500D01*
X64423050Y-80593342D01*
X64480646Y-80480304D01*
X64495500Y-80386519D01*
X64495499Y-79773482D01*
X64495499Y-79773481D01*
X64944500Y-79773481D01*
X64944500Y-79773482D01*
X64944500Y-79773485D01*
X64944500Y-80386518D01*
X64959354Y-80480304D01*
X64959355Y-80480306D01*
X64992553Y-80545461D01*
X65016950Y-80593342D01*
X65106658Y-80683050D01*
X65219696Y-80740646D01*
X65313481Y-80755500D01*
X65776518Y-80755499D01*
X65870304Y-80740646D01*
X65983342Y-80683050D01*
X66073050Y-80593342D01*
X66114570Y-80511855D01*
X66166180Y-80454538D01*
X66239533Y-80430704D01*
X66247330Y-80430500D01*
X66908570Y-80430500D01*
X66983070Y-80450462D01*
X67037608Y-80505000D01*
X67046227Y-80522478D01*
X67069059Y-80577598D01*
X67084027Y-80599999D01*
X67184022Y-80749654D01*
X67330345Y-80895977D01*
X67502403Y-81010942D01*
X67546480Y-81029199D01*
X67693580Y-81090130D01*
X67896535Y-81130500D01*
X68103465Y-81130500D01*
X68306420Y-81090130D01*
X68474402Y-81020548D01*
X68497596Y-81010942D01*
X68497596Y-81010941D01*
X68497598Y-81010941D01*
X68669655Y-80895977D01*
X68815977Y-80749655D01*
X68930941Y-80577598D01*
X68953772Y-80522478D01*
X69000725Y-80461290D01*
X69071983Y-80431775D01*
X69091430Y-80430500D01*
X70458570Y-80430500D01*
X70533070Y-80450462D01*
X70587608Y-80505000D01*
X70596227Y-80522478D01*
X70619059Y-80577598D01*
X70634027Y-80599999D01*
X70734022Y-80749654D01*
X70880345Y-80895977D01*
X71052403Y-81010942D01*
X71096480Y-81029199D01*
X71243580Y-81090130D01*
X71446535Y-81130500D01*
X71653465Y-81130500D01*
X71856420Y-81090130D01*
X71911535Y-81067299D01*
X71988004Y-81057231D01*
X72059261Y-81086746D01*
X72073916Y-81099598D01*
X72204788Y-81230470D01*
X72284712Y-81276614D01*
X72373856Y-81300500D01*
X72466144Y-81300500D01*
X73355423Y-81300500D01*
X73429923Y-81320462D01*
X73460782Y-81344141D01*
X73528654Y-81412013D01*
X73637491Y-81465220D01*
X73637490Y-81465220D01*
X73708040Y-81475499D01*
X73708044Y-81475499D01*
X73708051Y-81475500D01*
X74671948Y-81475499D01*
X74717879Y-81468807D01*
X74742510Y-81465220D01*
X74851344Y-81412014D01*
X74851345Y-81412012D01*
X74851347Y-81412012D01*
X74937012Y-81326347D01*
X74990220Y-81217509D01*
X75000500Y-81146949D01*
X75000499Y-80753052D01*
X74995655Y-80719799D01*
X74990220Y-80682489D01*
X74937014Y-80573655D01*
X74851345Y-80487986D01*
X74742508Y-80434779D01*
X74742509Y-80434779D01*
X74671952Y-80424500D01*
X73708057Y-80424500D01*
X73708046Y-80424501D01*
X73637489Y-80434779D01*
X73528655Y-80487985D01*
X73460782Y-80555859D01*
X73393987Y-80594423D01*
X73355423Y-80599500D01*
X72694864Y-80599500D01*
X72620364Y-80579538D01*
X72565826Y-80525000D01*
X72545864Y-80450500D01*
X72557205Y-80393482D01*
X72557779Y-80392093D01*
X72560130Y-80386420D01*
X72600500Y-80183465D01*
X72600500Y-79976535D01*
X72594802Y-79947891D01*
X72572669Y-79836619D01*
X72560130Y-79773580D01*
X72504532Y-79639355D01*
X72480942Y-79582403D01*
X72365977Y-79410345D01*
X72219654Y-79264022D01*
X72047596Y-79149057D01*
X71889219Y-79083455D01*
X71856420Y-79069870D01*
X71856418Y-79069869D01*
X71856417Y-79069869D01*
X71653465Y-79029500D01*
X71446535Y-79029500D01*
X71243582Y-79069869D01*
X71052403Y-79149057D01*
X70880345Y-79264022D01*
X70734022Y-79410345D01*
X70619062Y-79582397D01*
X70619058Y-79582404D01*
X70596228Y-79637521D01*
X70549275Y-79698710D01*
X70478017Y-79728225D01*
X70458570Y-79729500D01*
X69091430Y-79729500D01*
X69016930Y-79709538D01*
X68962392Y-79655000D01*
X68953772Y-79637521D01*
X68948379Y-79624501D01*
X68930941Y-79582402D01*
X68815977Y-79410345D01*
X68669655Y-79264023D01*
X68650165Y-79251000D01*
X68497596Y-79149057D01*
X68339219Y-79083455D01*
X68306420Y-79069870D01*
X68306418Y-79069869D01*
X68306417Y-79069869D01*
X68103465Y-79029500D01*
X67896535Y-79029500D01*
X67693582Y-79069869D01*
X67502403Y-79149057D01*
X67330345Y-79264022D01*
X67184022Y-79410345D01*
X67069062Y-79582397D01*
X67069058Y-79582404D01*
X67046228Y-79637521D01*
X66999275Y-79698710D01*
X66928017Y-79728225D01*
X66908570Y-79729500D01*
X66247330Y-79729500D01*
X66172830Y-79709538D01*
X66118292Y-79655000D01*
X66114570Y-79648145D01*
X66102522Y-79624500D01*
X66073050Y-79566658D01*
X65983342Y-79476950D01*
X65961761Y-79465954D01*
X65870305Y-79419354D01*
X65854673Y-79416878D01*
X65776519Y-79404500D01*
X65776514Y-79404500D01*
X65313481Y-79404500D01*
X65219695Y-79419354D01*
X65219693Y-79419355D01*
X65106657Y-79476950D01*
X65016950Y-79566657D01*
X64959354Y-79679694D01*
X64956621Y-79696949D01*
X64944500Y-79773481D01*
X64495499Y-79773481D01*
X64480646Y-79679696D01*
X64423050Y-79566658D01*
X64389141Y-79532749D01*
X64350577Y-79465954D01*
X64345500Y-79427390D01*
X64345500Y-78182610D01*
X64365462Y-78108110D01*
X64389141Y-78077251D01*
X64390893Y-78075499D01*
X64413050Y-78053342D01*
X64470646Y-77940304D01*
X64485500Y-77846519D01*
X64485499Y-77233482D01*
X64470646Y-77139696D01*
X64413050Y-77026658D01*
X64413048Y-77026656D01*
X64406156Y-77017169D01*
X64408052Y-77015791D01*
X64377505Y-76962882D01*
X64377505Y-76885754D01*
X64416069Y-76818959D01*
X65060029Y-76175000D01*
X65740888Y-75494141D01*
X65807683Y-75455577D01*
X65846247Y-75450500D01*
X66795500Y-75450500D01*
X66830836Y-75459968D01*
X66866408Y-75468454D01*
X66867949Y-75469912D01*
X66870000Y-75470462D01*
X66895870Y-75496332D01*
X66922431Y-75521465D01*
X66922994Y-75523456D01*
X66924538Y-75525000D01*
X66944443Y-75595385D01*
X66944500Y-75597448D01*
X66944500Y-75726000D01*
X66949197Y-75769684D01*
X66949267Y-75770005D01*
X66949443Y-75776374D01*
X66949309Y-75776933D01*
X66949500Y-75780489D01*
X66949500Y-75869748D01*
X66961132Y-75928230D01*
X66975836Y-75950236D01*
X67005448Y-75994552D01*
X67071769Y-76038867D01*
X67130252Y-76050500D01*
X67228569Y-76050500D01*
X67249775Y-76052016D01*
X67274000Y-76055500D01*
X71961955Y-76055500D01*
X72007717Y-76062701D01*
X72021551Y-76067165D01*
X72026113Y-76069799D01*
X72043658Y-76074500D01*
X72140691Y-76100500D01*
X73470632Y-76100500D01*
X73536072Y-76115639D01*
X73637491Y-76165220D01*
X73657575Y-76168146D01*
X73708040Y-76175499D01*
X73708044Y-76175499D01*
X73708051Y-76175500D01*
X74158099Y-76175499D01*
X74232599Y-76195461D01*
X74263458Y-76219140D01*
X74753859Y-76709541D01*
X74763666Y-76726528D01*
X74777538Y-76740400D01*
X74782615Y-76759348D01*
X74792423Y-76776336D01*
X74797500Y-76814900D01*
X74797500Y-76875500D01*
X74777538Y-76950000D01*
X74723000Y-77004538D01*
X74648500Y-77024500D01*
X73708057Y-77024500D01*
X73708046Y-77024501D01*
X73637489Y-77034779D01*
X73528655Y-77087985D01*
X73460782Y-77155859D01*
X73393987Y-77194423D01*
X73355423Y-77199500D01*
X72645572Y-77199500D01*
X72571072Y-77179538D01*
X72516534Y-77125000D01*
X72507914Y-77107520D01*
X72503363Y-77096534D01*
X72480941Y-77042402D01*
X72365977Y-76870345D01*
X72219655Y-76724023D01*
X72217222Y-76722397D01*
X72047596Y-76609057D01*
X71878553Y-76539038D01*
X71856420Y-76529870D01*
X71856418Y-76529869D01*
X71856417Y-76529869D01*
X71653465Y-76489500D01*
X71446535Y-76489500D01*
X71243582Y-76529869D01*
X71052403Y-76609057D01*
X70880345Y-76724022D01*
X70734022Y-76870345D01*
X70619062Y-77042397D01*
X70619058Y-77042404D01*
X70596228Y-77097521D01*
X70549275Y-77158710D01*
X70478017Y-77188225D01*
X70458570Y-77189500D01*
X69091430Y-77189500D01*
X69016930Y-77169538D01*
X68962392Y-77115000D01*
X68953772Y-77097521D01*
X68949822Y-77087985D01*
X68930941Y-77042402D01*
X68815977Y-76870345D01*
X68669655Y-76724023D01*
X68667222Y-76722397D01*
X68497596Y-76609057D01*
X68328553Y-76539038D01*
X68306420Y-76529870D01*
X68306418Y-76529869D01*
X68306417Y-76529869D01*
X68103465Y-76489500D01*
X67896535Y-76489500D01*
X67693582Y-76529869D01*
X67502403Y-76609057D01*
X67330345Y-76724022D01*
X67184022Y-76870345D01*
X67069062Y-77042397D01*
X67069058Y-77042404D01*
X67046228Y-77097521D01*
X66999275Y-77158710D01*
X66928017Y-77188225D01*
X66908570Y-77189500D01*
X66237330Y-77189500D01*
X66162830Y-77169538D01*
X66108292Y-77115000D01*
X66104570Y-77108145D01*
X66069003Y-77038342D01*
X66063050Y-77026658D01*
X65973342Y-76936950D01*
X65967187Y-76933814D01*
X65860305Y-76879354D01*
X65844673Y-76876878D01*
X65766519Y-76864500D01*
X65766514Y-76864500D01*
X65303481Y-76864500D01*
X65209695Y-76879354D01*
X65209693Y-76879355D01*
X65096657Y-76936950D01*
X65006950Y-77026657D01*
X64949354Y-77139694D01*
X64949354Y-77139696D01*
X64934500Y-77233481D01*
X64934500Y-77233482D01*
X64934500Y-77233485D01*
X64934500Y-77846518D01*
X64947926Y-77931290D01*
X64949354Y-77940304D01*
X65006950Y-78053342D01*
X65096658Y-78143050D01*
X65209696Y-78200646D01*
X65303481Y-78215500D01*
X65766518Y-78215499D01*
X65860304Y-78200646D01*
X65973342Y-78143050D01*
X66063050Y-78053342D01*
X66104570Y-77971855D01*
X66156180Y-77914538D01*
X66229533Y-77890704D01*
X66237330Y-77890500D01*
X66908570Y-77890500D01*
X66983070Y-77910462D01*
X67037608Y-77965000D01*
X67046227Y-77982478D01*
X67069059Y-78037598D01*
X67094384Y-78075500D01*
X67184022Y-78209654D01*
X67330345Y-78355977D01*
X67502403Y-78470942D01*
X67580624Y-78503342D01*
X67693580Y-78550130D01*
X67896535Y-78590500D01*
X68103465Y-78590500D01*
X68306420Y-78550130D01*
X68497598Y-78470941D01*
X68669655Y-78355977D01*
X68815977Y-78209655D01*
X68930941Y-78037598D01*
X68953772Y-77982478D01*
X69000725Y-77921290D01*
X69071983Y-77891775D01*
X69091430Y-77890500D01*
X70458570Y-77890500D01*
X70533070Y-77910462D01*
X70587608Y-77965000D01*
X70596227Y-77982478D01*
X70619059Y-78037598D01*
X70644384Y-78075500D01*
X70734022Y-78209654D01*
X70880345Y-78355977D01*
X71052403Y-78470942D01*
X71130624Y-78503342D01*
X71243580Y-78550130D01*
X71446535Y-78590500D01*
X71653465Y-78590500D01*
X71856420Y-78550130D01*
X72047598Y-78470941D01*
X72219655Y-78355977D01*
X72365977Y-78209655D01*
X72480941Y-78037598D01*
X72499630Y-77992480D01*
X72546583Y-77931290D01*
X72617840Y-77901775D01*
X72637288Y-77900500D01*
X73355423Y-77900500D01*
X73429923Y-77920462D01*
X73460782Y-77944141D01*
X73528654Y-78012013D01*
X73637491Y-78065220D01*
X73637490Y-78065220D01*
X73708040Y-78075499D01*
X73708044Y-78075499D01*
X73708051Y-78075500D01*
X74309101Y-78075499D01*
X74328048Y-78080576D01*
X74347665Y-78080576D01*
X74364653Y-78090384D01*
X74383600Y-78095461D01*
X74397470Y-78109331D01*
X74414459Y-78119140D01*
X74424266Y-78136127D01*
X74438138Y-78149999D01*
X74443215Y-78168947D01*
X74453023Y-78185935D01*
X74453023Y-78205551D01*
X74458100Y-78224499D01*
X74453023Y-78243446D01*
X74453023Y-78263064D01*
X74443214Y-78280052D01*
X74438138Y-78298999D01*
X74414459Y-78329858D01*
X74263457Y-78480859D01*
X74196662Y-78519423D01*
X74158098Y-78524500D01*
X73708057Y-78524500D01*
X73708046Y-78524501D01*
X73637489Y-78534779D01*
X73528655Y-78587985D01*
X73442986Y-78673654D01*
X73389779Y-78782490D01*
X73379500Y-78853040D01*
X73379500Y-79246942D01*
X73379501Y-79246953D01*
X73389779Y-79317510D01*
X73442985Y-79426344D01*
X73528654Y-79512013D01*
X73637491Y-79565220D01*
X73637490Y-79565220D01*
X73708040Y-79575499D01*
X73708044Y-79575499D01*
X73708051Y-79575500D01*
X74671948Y-79575499D01*
X74732645Y-79566657D01*
X74742510Y-79565220D01*
X74851344Y-79512014D01*
X74851345Y-79512012D01*
X74851347Y-79512012D01*
X74937012Y-79426347D01*
X74990220Y-79317509D01*
X74993132Y-79297521D01*
X75000499Y-79246959D01*
X75000499Y-79246953D01*
X75000500Y-79246949D01*
X75000499Y-78853052D01*
X74996288Y-78824147D01*
X75005300Y-78747550D01*
X75038379Y-78697301D01*
X75044150Y-78691531D01*
X75110948Y-78652973D01*
X75188077Y-78652979D01*
X75254868Y-78691549D01*
X75293426Y-78758347D01*
X75298500Y-78796899D01*
X75298500Y-88722679D01*
X75278538Y-88797179D01*
X75254859Y-88828038D01*
X72777038Y-91305859D01*
X72710243Y-91344423D01*
X72671679Y-91349500D01*
X71450252Y-91349500D01*
X71391769Y-91361132D01*
X71325448Y-91405448D01*
X71281132Y-91471769D01*
X71269500Y-91530251D01*
X71269500Y-93269748D01*
X71281133Y-93328232D01*
X71314200Y-93377719D01*
X71338993Y-93450753D01*
X71323947Y-93526399D01*
X71273093Y-93584388D01*
X71200059Y-93609181D01*
X71190312Y-93609500D01*
X50649500Y-93609500D01*
X50575000Y-93589538D01*
X50520462Y-93535000D01*
X50500500Y-93460500D01*
X50500500Y-92195724D01*
X54329500Y-92195724D01*
X54329500Y-92804275D01*
X54332353Y-92834695D01*
X54332353Y-92834697D01*
X54332354Y-92834699D01*
X54341726Y-92861483D01*
X54377207Y-92962883D01*
X54457848Y-93072148D01*
X54457851Y-93072151D01*
X54567116Y-93152792D01*
X54567117Y-93152792D01*
X54567118Y-93152793D01*
X54695301Y-93197646D01*
X54725734Y-93200500D01*
X54725741Y-93200500D01*
X56334259Y-93200500D01*
X56334266Y-93200500D01*
X56364699Y-93197646D01*
X56492882Y-93152793D01*
X56602150Y-93072150D01*
X56610364Y-93061019D01*
X56670664Y-93012932D01*
X56730248Y-93000500D01*
X57121625Y-93000500D01*
X57143109Y-93002057D01*
X57166740Y-93005500D01*
X57166741Y-93005500D01*
X58883259Y-93005500D01*
X58883260Y-93005500D01*
X58883263Y-93005499D01*
X58883268Y-93005499D01*
X58951393Y-92995573D01*
X58951394Y-92995573D01*
X59056481Y-92944199D01*
X59056481Y-92944198D01*
X59056483Y-92944198D01*
X59139198Y-92861483D01*
X59167165Y-92804275D01*
X59190573Y-92756394D01*
X59190573Y-92756393D01*
X59200499Y-92688268D01*
X59200500Y-92688258D01*
X59200500Y-92321741D01*
X59200499Y-92321731D01*
X59190573Y-92253606D01*
X59190573Y-92253605D01*
X59139199Y-92148518D01*
X59056481Y-92065800D01*
X58951394Y-92014426D01*
X58883268Y-92004500D01*
X58883260Y-92004500D01*
X58124170Y-92004500D01*
X58095583Y-92000736D01*
X58095578Y-92000775D01*
X58085892Y-91999500D01*
X56730248Y-91999500D01*
X56655748Y-91979538D01*
X56610364Y-91938980D01*
X56602150Y-91927850D01*
X56602149Y-91927849D01*
X56602146Y-91927846D01*
X56492883Y-91847207D01*
X56433042Y-91826268D01*
X56364699Y-91802354D01*
X56364697Y-91802353D01*
X56364695Y-91802353D01*
X56334275Y-91799500D01*
X56334266Y-91799500D01*
X54725734Y-91799500D01*
X54725724Y-91799500D01*
X54695304Y-91802353D01*
X54567116Y-91847207D01*
X54457851Y-91927848D01*
X54457848Y-91927851D01*
X54377207Y-92037116D01*
X54332353Y-92165304D01*
X54329500Y-92195724D01*
X50500500Y-92195724D01*
X50500500Y-87716891D01*
X50520462Y-87642391D01*
X50575000Y-87587853D01*
X50649500Y-87567891D01*
X50724000Y-87587853D01*
X50778538Y-87642391D01*
X50787158Y-87659871D01*
X50789869Y-87666417D01*
X50789870Y-87666420D01*
X50808128Y-87710499D01*
X50869057Y-87857596D01*
X50984022Y-88029654D01*
X51130345Y-88175977D01*
X51302403Y-88290942D01*
X51381591Y-88323742D01*
X51493580Y-88370130D01*
X51696535Y-88410500D01*
X51903465Y-88410500D01*
X52106420Y-88370130D01*
X52274402Y-88300548D01*
X52297596Y-88290942D01*
X52297596Y-88290941D01*
X52297598Y-88290941D01*
X52469655Y-88175977D01*
X52615977Y-88029655D01*
X52730941Y-87857598D01*
X52810130Y-87666420D01*
X52850500Y-87463465D01*
X52850500Y-87256535D01*
X52810130Y-87053580D01*
X52794205Y-87015134D01*
X52787299Y-86998461D01*
X52777232Y-86921993D01*
X52806747Y-86850736D01*
X52819590Y-86836090D01*
X56287469Y-83368213D01*
X56333614Y-83288288D01*
X56346656Y-83239613D01*
X56357500Y-83199144D01*
X56357500Y-62215586D01*
X56370196Y-62155401D01*
X56372585Y-62149991D01*
X56375500Y-62124865D01*
X56375499Y-60760136D01*
X56372585Y-60735009D01*
X56327206Y-60632235D01*
X56247765Y-60552794D01*
X56247764Y-60552793D01*
X56144994Y-60507416D01*
X56144991Y-60507415D01*
X56144982Y-60507414D01*
X56119865Y-60504500D01*
X56119859Y-60504500D01*
X55830133Y-60504500D01*
X55805010Y-60507414D01*
X55805006Y-60507415D01*
X55710183Y-60549284D01*
X55633968Y-60561115D01*
X55589818Y-60549285D01*
X55494991Y-60507415D01*
X55469865Y-60504500D01*
X55469859Y-60504500D01*
X55180133Y-60504500D01*
X55155010Y-60507414D01*
X55155006Y-60507415D01*
X55060183Y-60549284D01*
X54983968Y-60561115D01*
X54939818Y-60549285D01*
X54844991Y-60507415D01*
X54819865Y-60504500D01*
X54819859Y-60504500D01*
X54530133Y-60504500D01*
X54505010Y-60507414D01*
X54505006Y-60507415D01*
X54410183Y-60549284D01*
X54333968Y-60561115D01*
X54289818Y-60549285D01*
X54194991Y-60507415D01*
X54169865Y-60504500D01*
X54169859Y-60504500D01*
X53880133Y-60504500D01*
X53855010Y-60507414D01*
X53855006Y-60507415D01*
X53760183Y-60549284D01*
X53683968Y-60561115D01*
X53639818Y-60549285D01*
X53544991Y-60507415D01*
X53519865Y-60504500D01*
X53519859Y-60504500D01*
X53230133Y-60504500D01*
X53205010Y-60507414D01*
X53205006Y-60507415D01*
X53110183Y-60549284D01*
X53033968Y-60561115D01*
X52989818Y-60549285D01*
X52894991Y-60507415D01*
X52869865Y-60504500D01*
X52869859Y-60504500D01*
X52580133Y-60504500D01*
X52555010Y-60507414D01*
X52555006Y-60507415D01*
X52460183Y-60549284D01*
X52383968Y-60561115D01*
X52339818Y-60549285D01*
X52244991Y-60507415D01*
X52219865Y-60504500D01*
X52219859Y-60504500D01*
X51930133Y-60504500D01*
X51905010Y-60507414D01*
X51905006Y-60507415D01*
X51810183Y-60549284D01*
X51733968Y-60561115D01*
X51689818Y-60549285D01*
X51594991Y-60507415D01*
X51569865Y-60504500D01*
X51569859Y-60504500D01*
X51280133Y-60504500D01*
X51255010Y-60507414D01*
X51255007Y-60507415D01*
X51152235Y-60552793D01*
X51072793Y-60632235D01*
X51027416Y-60735005D01*
X51027415Y-60735008D01*
X51027415Y-60735009D01*
X51024500Y-60760135D01*
X51024500Y-60760136D01*
X51024500Y-60760140D01*
X51024500Y-62124866D01*
X51027414Y-62149989D01*
X51027415Y-62149992D01*
X51072793Y-62252764D01*
X51080859Y-62260830D01*
X51119423Y-62327625D01*
X51124500Y-62366189D01*
X51124500Y-68380500D01*
X51104538Y-68455000D01*
X51050000Y-68509538D01*
X50975500Y-68529500D01*
X50930252Y-68529500D01*
X50871769Y-68541132D01*
X50805448Y-68585448D01*
X50805447Y-68585449D01*
X50773387Y-68633429D01*
X50715398Y-68684282D01*
X50639752Y-68699327D01*
X50566717Y-68674533D01*
X50515864Y-68616544D01*
X50500500Y-68550646D01*
X50500500Y-49436891D01*
X50520462Y-49362391D01*
X50575000Y-49307853D01*
X50649500Y-49287891D01*
X50724000Y-49307853D01*
X50778538Y-49362391D01*
X50787158Y-49379871D01*
X50789869Y-49386417D01*
X50789870Y-49386420D01*
X50810776Y-49436891D01*
X50869057Y-49577596D01*
X50984022Y-49749654D01*
X51130345Y-49895977D01*
X51302403Y-50010942D01*
X51381591Y-50043742D01*
X51493580Y-50090130D01*
X51493582Y-50090130D01*
X51493583Y-50090131D01*
X51540780Y-50099518D01*
X51604568Y-50112206D01*
X51673742Y-50146318D01*
X51716592Y-50210447D01*
X51724500Y-50258343D01*
X51724500Y-54871940D01*
X51711804Y-54932124D01*
X51677416Y-55010005D01*
X51677416Y-55010006D01*
X51677415Y-55010009D01*
X51674500Y-55035135D01*
X51674500Y-55035136D01*
X51674500Y-55035140D01*
X51674500Y-56399866D01*
X51677414Y-56424989D01*
X51677415Y-56424992D01*
X51722793Y-56527764D01*
X51722794Y-56527765D01*
X51802235Y-56607206D01*
X51905009Y-56652585D01*
X51930135Y-56655500D01*
X52219864Y-56655499D01*
X52219866Y-56655499D01*
X52238463Y-56653342D01*
X52244991Y-56652585D01*
X52339819Y-56610714D01*
X52416030Y-56598884D01*
X52460177Y-56610713D01*
X52555009Y-56652585D01*
X52580135Y-56655500D01*
X52869864Y-56655499D01*
X52869866Y-56655499D01*
X52888463Y-56653342D01*
X52894991Y-56652585D01*
X52989819Y-56610714D01*
X53066030Y-56598884D01*
X53110177Y-56610713D01*
X53205009Y-56652585D01*
X53230135Y-56655500D01*
X53519864Y-56655499D01*
X53519866Y-56655499D01*
X53538463Y-56653342D01*
X53544991Y-56652585D01*
X53639819Y-56610714D01*
X53716030Y-56598884D01*
X53760177Y-56610713D01*
X53855009Y-56652585D01*
X53880135Y-56655500D01*
X54169864Y-56655499D01*
X54169866Y-56655499D01*
X54188463Y-56653342D01*
X54194991Y-56652585D01*
X54289819Y-56610714D01*
X54366030Y-56598884D01*
X54410177Y-56610713D01*
X54505009Y-56652585D01*
X54530135Y-56655500D01*
X54819864Y-56655499D01*
X54819866Y-56655499D01*
X54838463Y-56653342D01*
X54844991Y-56652585D01*
X54939819Y-56610714D01*
X55016030Y-56598884D01*
X55060177Y-56610713D01*
X55155009Y-56652585D01*
X55180135Y-56655500D01*
X55469864Y-56655499D01*
X55469866Y-56655499D01*
X55488463Y-56653342D01*
X55494991Y-56652585D01*
X55589819Y-56610714D01*
X55666030Y-56598884D01*
X55710177Y-56610713D01*
X55805009Y-56652585D01*
X55830135Y-56655500D01*
X56119864Y-56655499D01*
X56119866Y-56655499D01*
X56138463Y-56653342D01*
X56144991Y-56652585D01*
X56239819Y-56610714D01*
X56316030Y-56598884D01*
X56360177Y-56610713D01*
X56455009Y-56652585D01*
X56480135Y-56655500D01*
X56769864Y-56655499D01*
X56769866Y-56655499D01*
X56788463Y-56653342D01*
X56794991Y-56652585D01*
X56897765Y-56607206D01*
X56977206Y-56527765D01*
X57022585Y-56424991D01*
X57025500Y-56399865D01*
X57025499Y-55035136D01*
X57025499Y-55035135D01*
X58174500Y-55035135D01*
X58174500Y-55035136D01*
X58174500Y-55035140D01*
X58174500Y-56399866D01*
X58177414Y-56424989D01*
X58177415Y-56424992D01*
X58222793Y-56527764D01*
X58222794Y-56527765D01*
X58302235Y-56607206D01*
X58405009Y-56652585D01*
X58430135Y-56655500D01*
X58472176Y-56655499D01*
X58546674Y-56675460D01*
X58568206Y-56690572D01*
X58574625Y-56695982D01*
X58583206Y-56703215D01*
X59185206Y-57078580D01*
X59232739Y-57101767D01*
X59280701Y-57119284D01*
X59283202Y-57120058D01*
X59293601Y-57123276D01*
X59313484Y-57131521D01*
X59317116Y-57132792D01*
X59317118Y-57132793D01*
X59445301Y-57177646D01*
X59475734Y-57180500D01*
X59475741Y-57180500D01*
X60084259Y-57180500D01*
X60084266Y-57180500D01*
X60114699Y-57177646D01*
X60242882Y-57132793D01*
X60352150Y-57052150D01*
X60432793Y-56942882D01*
X60477646Y-56814699D01*
X60480500Y-56784266D01*
X60480500Y-55175734D01*
X60477646Y-55145301D01*
X60432793Y-55017118D01*
X60427547Y-55010010D01*
X60352151Y-54907851D01*
X60352148Y-54907848D01*
X60242883Y-54827207D01*
X60183042Y-54806268D01*
X60114699Y-54782354D01*
X60114697Y-54782353D01*
X60114695Y-54782353D01*
X60084275Y-54779500D01*
X60084266Y-54779500D01*
X59609366Y-54779500D01*
X59540303Y-54762527D01*
X59525024Y-54754535D01*
X59457985Y-54734850D01*
X59457980Y-54734849D01*
X59457976Y-54734848D01*
X59386010Y-54724500D01*
X59386000Y-54724500D01*
X58784000Y-54724500D01*
X58783995Y-54724500D01*
X58783983Y-54724501D01*
X58729700Y-54730336D01*
X58729680Y-54730340D01*
X58678180Y-54741544D01*
X58651802Y-54748781D01*
X58651795Y-54748784D01*
X58632132Y-54759981D01*
X58558406Y-54779500D01*
X58430132Y-54779500D01*
X58405010Y-54782414D01*
X58405007Y-54782415D01*
X58302235Y-54827793D01*
X58222793Y-54907235D01*
X58177416Y-55010005D01*
X58177416Y-55010006D01*
X58177415Y-55010009D01*
X58174500Y-55035135D01*
X57025499Y-55035135D01*
X57022585Y-55010009D01*
X57022584Y-55010006D01*
X56988196Y-54932124D01*
X56975500Y-54871940D01*
X56975500Y-44078856D01*
X56975499Y-44078854D01*
X56951614Y-43989712D01*
X56946278Y-43980470D01*
X56946277Y-43980469D01*
X56905470Y-43909788D01*
X55191401Y-42195719D01*
X55152837Y-42128924D01*
X55147760Y-42090360D01*
X55147760Y-34751116D01*
X55123874Y-34661972D01*
X55105108Y-34629469D01*
X55077730Y-34582048D01*
X52875596Y-32379914D01*
X52837032Y-32313119D01*
X52837032Y-32242829D01*
X52836004Y-32242625D01*
X52837032Y-32237456D01*
X52837032Y-32235991D01*
X52837735Y-32233917D01*
X52838865Y-32228232D01*
X52838867Y-32228231D01*
X52850500Y-32169748D01*
X52850500Y-30430252D01*
X52838867Y-30371769D01*
X52794552Y-30305448D01*
X52746570Y-30273387D01*
X52695718Y-30215399D01*
X52680672Y-30139753D01*
X52705465Y-30066718D01*
X52763454Y-30015865D01*
X52829353Y-30000500D01*
X89270647Y-30000500D01*
X89345147Y-30020462D01*
G37*
%TD.AperFunction*%
%TA.AperFunction,Conductor*%
G36*
X77571419Y-80496011D02*
G01*
X77593575Y-80514257D01*
X78080859Y-81001541D01*
X78119423Y-81068336D01*
X78124500Y-81106900D01*
X78124500Y-81456518D01*
X78136404Y-81531679D01*
X78139354Y-81550304D01*
X78196950Y-81663342D01*
X78286658Y-81753050D01*
X78399696Y-81810646D01*
X78493481Y-81825500D01*
X78868099Y-81825499D01*
X78942599Y-81845461D01*
X78973458Y-81869140D01*
X84744788Y-87640470D01*
X84824712Y-87686614D01*
X84913856Y-87710500D01*
X89208570Y-87710500D01*
X89283070Y-87730462D01*
X89337608Y-87785000D01*
X89346227Y-87802478D01*
X89369059Y-87857598D01*
X89369062Y-87857602D01*
X89484022Y-88029654D01*
X89630345Y-88175977D01*
X89802403Y-88290942D01*
X89881591Y-88323742D01*
X89993580Y-88370130D01*
X90196535Y-88410500D01*
X90403465Y-88410500D01*
X90606420Y-88370130D01*
X90774402Y-88300548D01*
X90797596Y-88290942D01*
X90797596Y-88290941D01*
X90797598Y-88290941D01*
X90969655Y-88175977D01*
X91115977Y-88029655D01*
X91230941Y-87857598D01*
X91262842Y-87780583D01*
X91309794Y-87719393D01*
X91381051Y-87689877D01*
X91457519Y-87699944D01*
X91518709Y-87746896D01*
X91548225Y-87818153D01*
X91549500Y-87837602D01*
X91549500Y-93460500D01*
X91529538Y-93535000D01*
X91475000Y-93589538D01*
X91400500Y-93609500D01*
X73449688Y-93609500D01*
X73375188Y-93589538D01*
X73320650Y-93535000D01*
X73300688Y-93460500D01*
X73320650Y-93386000D01*
X73325800Y-93377719D01*
X73358866Y-93328232D01*
X73358865Y-93328232D01*
X73358867Y-93328231D01*
X73370500Y-93269748D01*
X73370500Y-92048321D01*
X73390462Y-91973821D01*
X73414141Y-91942962D01*
X74051244Y-91305859D01*
X76109489Y-89247614D01*
X76151701Y-89174500D01*
X76168799Y-89144886D01*
X76199500Y-89030309D01*
X76199500Y-80674499D01*
X76219462Y-80599999D01*
X76274000Y-80545461D01*
X76348496Y-80525499D01*
X77291948Y-80525499D01*
X77362509Y-80515220D01*
X77422778Y-80485755D01*
X77498470Y-80470969D01*
X77571419Y-80496011D01*
G37*
%TD.AperFunction*%
%TA.AperFunction,Conductor*%
G36*
X81899873Y-80770462D02*
G01*
X81938482Y-80805225D01*
X81938658Y-80805050D01*
X81942010Y-80808402D01*
X81945916Y-80811919D01*
X81946949Y-80813341D01*
X81946950Y-80813342D01*
X82036658Y-80903050D01*
X82149696Y-80960646D01*
X82243481Y-80975500D01*
X82706518Y-80975499D01*
X82800304Y-80960646D01*
X82800307Y-80960644D01*
X82803377Y-80959647D01*
X82808206Y-80959393D01*
X82811886Y-80958811D01*
X82811947Y-80959197D01*
X82880399Y-80955608D01*
X82949122Y-80990622D01*
X82978460Y-81026850D01*
X83019530Y-81097986D01*
X86956757Y-85035212D01*
X87022014Y-85100469D01*
X87101938Y-85146614D01*
X87191082Y-85170500D01*
X89208570Y-85170500D01*
X89283070Y-85190462D01*
X89337608Y-85245000D01*
X89346227Y-85262478D01*
X89369059Y-85317598D01*
X89369062Y-85317602D01*
X89484022Y-85489654D01*
X89630345Y-85635977D01*
X89802403Y-85750942D01*
X89874705Y-85780890D01*
X89993580Y-85830130D01*
X90196535Y-85870500D01*
X90403465Y-85870500D01*
X90606420Y-85830130D01*
X90797598Y-85750941D01*
X90969655Y-85635977D01*
X91115977Y-85489655D01*
X91230941Y-85317598D01*
X91236893Y-85303230D01*
X91262842Y-85240583D01*
X91309794Y-85179393D01*
X91381051Y-85149877D01*
X91457519Y-85159944D01*
X91518709Y-85206896D01*
X91548225Y-85278153D01*
X91549500Y-85297602D01*
X91549500Y-86882397D01*
X91529538Y-86956897D01*
X91475000Y-87011435D01*
X91400500Y-87031397D01*
X91326000Y-87011435D01*
X91271462Y-86956897D01*
X91262842Y-86939417D01*
X91230942Y-86862404D01*
X91230937Y-86862397D01*
X91115977Y-86690345D01*
X90969655Y-86544023D01*
X90969654Y-86544022D01*
X90797596Y-86429057D01*
X90639219Y-86363455D01*
X90606420Y-86349870D01*
X90606418Y-86349869D01*
X90606417Y-86349869D01*
X90403465Y-86309500D01*
X90196535Y-86309500D01*
X89993582Y-86349869D01*
X89802403Y-86429057D01*
X89630345Y-86544022D01*
X89484022Y-86690345D01*
X89369062Y-86862397D01*
X89369058Y-86862404D01*
X89346228Y-86917521D01*
X89299275Y-86978710D01*
X89228017Y-87008225D01*
X89208570Y-87009500D01*
X85166900Y-87009500D01*
X85092400Y-86989538D01*
X85061541Y-86965859D01*
X79519140Y-81423458D01*
X79480576Y-81356663D01*
X79475499Y-81318099D01*
X79475499Y-80993481D01*
X79470299Y-80960645D01*
X79464306Y-80922806D01*
X79472369Y-80846102D01*
X79517704Y-80783705D01*
X79588164Y-80752334D01*
X79611472Y-80750500D01*
X81825373Y-80750500D01*
X81899873Y-80770462D01*
G37*
%TD.AperFunction*%
%TA.AperFunction,Conductor*%
G36*
X85829137Y-82542641D02*
G01*
X85848753Y-82542641D01*
X85884689Y-82557526D01*
X85889787Y-82560469D01*
X85889788Y-82560470D01*
X85969712Y-82606614D01*
X86058856Y-82630500D01*
X89208570Y-82630500D01*
X89283070Y-82650462D01*
X89337608Y-82705000D01*
X89346227Y-82722478D01*
X89369059Y-82777598D01*
X89391043Y-82810500D01*
X89484022Y-82949654D01*
X89630345Y-83095977D01*
X89802403Y-83210942D01*
X89881591Y-83243742D01*
X89993580Y-83290130D01*
X90196535Y-83330500D01*
X90403465Y-83330500D01*
X90606420Y-83290130D01*
X90797598Y-83210941D01*
X90969655Y-83095977D01*
X91115977Y-82949655D01*
X91230941Y-82777598D01*
X91230962Y-82777549D01*
X91262842Y-82700583D01*
X91309794Y-82639393D01*
X91381051Y-82609877D01*
X91457519Y-82619944D01*
X91518709Y-82666896D01*
X91548225Y-82738153D01*
X91549500Y-82757602D01*
X91549500Y-84342397D01*
X91529538Y-84416897D01*
X91475000Y-84471435D01*
X91400500Y-84491397D01*
X91326000Y-84471435D01*
X91271462Y-84416897D01*
X91262842Y-84399417D01*
X91230942Y-84322404D01*
X91230937Y-84322397D01*
X91115977Y-84150345D01*
X90969655Y-84004023D01*
X90896664Y-83955252D01*
X90797596Y-83889057D01*
X90639219Y-83823455D01*
X90606420Y-83809870D01*
X90606418Y-83809869D01*
X90606417Y-83809869D01*
X90403465Y-83769500D01*
X90196535Y-83769500D01*
X89993582Y-83809869D01*
X89802403Y-83889057D01*
X89630345Y-84004022D01*
X89484022Y-84150345D01*
X89369062Y-84322397D01*
X89369058Y-84322404D01*
X89346228Y-84377521D01*
X89299275Y-84438710D01*
X89228017Y-84468225D01*
X89208570Y-84469500D01*
X87444125Y-84469500D01*
X87369625Y-84449538D01*
X87338766Y-84425859D01*
X85704830Y-82791923D01*
X85695022Y-82774935D01*
X85681151Y-82761064D01*
X85676073Y-82742115D01*
X85666266Y-82725128D01*
X85666266Y-82705511D01*
X85661189Y-82686564D01*
X85666266Y-82667616D01*
X85666266Y-82648000D01*
X85676073Y-82631012D01*
X85681151Y-82612064D01*
X85695022Y-82598192D01*
X85704830Y-82581205D01*
X85721817Y-82571397D01*
X85735689Y-82557526D01*
X85754637Y-82552448D01*
X85771625Y-82542641D01*
X85791241Y-82542641D01*
X85810189Y-82537564D01*
X85829137Y-82542641D01*
G37*
%TD.AperFunction*%
%TA.AperFunction,Conductor*%
G36*
X63532804Y-67085572D02*
G01*
X63551970Y-67085455D01*
X63569407Y-67095379D01*
X63588789Y-67100573D01*
X63618258Y-67123185D01*
X63619001Y-67123608D01*
X63619157Y-67123874D01*
X63619650Y-67124253D01*
X65075886Y-68580489D01*
X65135196Y-68614731D01*
X65178614Y-68639799D01*
X65293191Y-68670500D01*
X66989364Y-68670500D01*
X67046483Y-68685805D01*
X67047789Y-68682654D01*
X67056809Y-68686390D01*
X67056811Y-68686390D01*
X67056814Y-68686392D01*
X67184108Y-68720500D01*
X67315892Y-68720500D01*
X67315897Y-68720499D01*
X67354142Y-68710251D01*
X67361934Y-68708162D01*
X67439062Y-68708161D01*
X67505857Y-68746724D01*
X67544422Y-68813519D01*
X67549500Y-68852085D01*
X67549500Y-73795500D01*
X67540031Y-73830836D01*
X67531546Y-73866408D01*
X67530087Y-73867949D01*
X67529538Y-73870000D01*
X67503667Y-73895870D01*
X67478535Y-73922431D01*
X67476543Y-73922994D01*
X67475000Y-73924538D01*
X67404615Y-73944443D01*
X67402552Y-73944500D01*
X67274000Y-73944500D01*
X67230316Y-73949197D01*
X67229994Y-73949266D01*
X67223623Y-73949443D01*
X67223062Y-73949309D01*
X67219508Y-73949500D01*
X67130252Y-73949500D01*
X67071769Y-73961132D01*
X67005448Y-74005448D01*
X66961132Y-74071769D01*
X66949500Y-74130251D01*
X66949500Y-74228569D01*
X66949437Y-74232900D01*
X66949190Y-74241379D01*
X66944500Y-74274000D01*
X66944500Y-74402664D01*
X66944437Y-74404831D01*
X66933976Y-74439773D01*
X66924538Y-74475000D01*
X66922958Y-74476579D01*
X66922318Y-74478720D01*
X66895788Y-74503749D01*
X66870000Y-74529538D01*
X66867841Y-74530116D01*
X66866217Y-74531649D01*
X66830732Y-74540059D01*
X66795500Y-74549500D01*
X65538612Y-74549500D01*
X65448251Y-74573712D01*
X65448251Y-74573713D01*
X65436144Y-74576957D01*
X65424037Y-74580201D01*
X65321310Y-74639510D01*
X63524509Y-76436313D01*
X63524508Y-76436314D01*
X63465201Y-76539036D01*
X63465202Y-76539036D01*
X63465201Y-76539040D01*
X63434500Y-76653614D01*
X63434500Y-76887390D01*
X63414538Y-76961890D01*
X63390859Y-76992749D01*
X63356950Y-77026657D01*
X63299354Y-77139694D01*
X63299354Y-77139696D01*
X63284500Y-77233481D01*
X63284500Y-77233482D01*
X63284500Y-77233485D01*
X63284500Y-77846518D01*
X63299354Y-77940304D01*
X63299355Y-77940306D01*
X63356950Y-78053342D01*
X63400859Y-78097251D01*
X63439423Y-78164046D01*
X63444500Y-78202610D01*
X63444500Y-79427390D01*
X63424538Y-79501890D01*
X63400859Y-79532749D01*
X63366950Y-79566657D01*
X63309354Y-79679694D01*
X63306621Y-79696949D01*
X63294500Y-79773481D01*
X63294500Y-79773482D01*
X63294500Y-79773485D01*
X63294500Y-80386518D01*
X63309354Y-80480304D01*
X63309355Y-80480306D01*
X63366950Y-80593342D01*
X63400859Y-80627251D01*
X63439423Y-80694046D01*
X63444500Y-80732610D01*
X63444500Y-81531679D01*
X63424538Y-81606179D01*
X63400859Y-81637038D01*
X62118538Y-82919359D01*
X62051743Y-82957923D01*
X62013179Y-82963000D01*
X61974418Y-82963000D01*
X61899918Y-82943038D01*
X61845380Y-82888500D01*
X61825418Y-82814000D01*
X61845380Y-82739500D01*
X61885938Y-82694115D01*
X61886953Y-82693365D01*
X61902150Y-82682150D01*
X61982793Y-82572882D01*
X62027646Y-82444699D01*
X62030500Y-82414266D01*
X62030500Y-82118939D01*
X62050462Y-82044439D01*
X62105000Y-81989901D01*
X62179500Y-81969939D01*
X62218066Y-81975017D01*
X62234102Y-81979314D01*
X62234108Y-81979315D01*
X62365892Y-81979315D01*
X62493186Y-81945207D01*
X62607314Y-81879315D01*
X62700500Y-81786129D01*
X62766392Y-81672001D01*
X62800500Y-81544707D01*
X62800500Y-81412923D01*
X62766392Y-81285629D01*
X62700500Y-81171501D01*
X62607314Y-81078315D01*
X62607311Y-81078313D01*
X62607310Y-81078312D01*
X62518179Y-81026853D01*
X62493186Y-81012423D01*
X62365892Y-80978315D01*
X62242181Y-80978315D01*
X62223233Y-80973238D01*
X62203616Y-80973238D01*
X62186628Y-80963429D01*
X62167681Y-80958353D01*
X62136821Y-80934673D01*
X62109247Y-80907099D01*
X62074140Y-80871991D01*
X62035577Y-80805196D01*
X62030500Y-80766633D01*
X62030500Y-80545741D01*
X62030499Y-80545724D01*
X62028602Y-80525498D01*
X62027646Y-80515301D01*
X61982793Y-80387118D01*
X61982350Y-80386518D01*
X61902151Y-80277851D01*
X61902148Y-80277848D01*
X61792883Y-80197207D01*
X61688396Y-80160646D01*
X61664699Y-80152354D01*
X61664697Y-80152353D01*
X61664695Y-80152353D01*
X61634275Y-80149500D01*
X61634266Y-80149500D01*
X60025734Y-80149500D01*
X60025724Y-80149500D01*
X59995304Y-80152353D01*
X59995301Y-80152353D01*
X59995301Y-80152354D01*
X59986797Y-80155329D01*
X59867116Y-80197207D01*
X59757851Y-80277848D01*
X59757848Y-80277851D01*
X59677207Y-80387116D01*
X59632353Y-80515304D01*
X59629500Y-80545724D01*
X59629500Y-81154275D01*
X59632353Y-81184695D01*
X59632353Y-81184697D01*
X59632354Y-81184699D01*
X59648370Y-81230469D01*
X59662156Y-81269870D01*
X59677207Y-81312882D01*
X59703907Y-81349059D01*
X59735245Y-81391521D01*
X59763422Y-81463318D01*
X59751926Y-81539585D01*
X59735245Y-81568479D01*
X59677206Y-81647119D01*
X59632353Y-81775304D01*
X59629500Y-81805724D01*
X59629500Y-82414275D01*
X59632353Y-82444695D01*
X59632353Y-82444697D01*
X59632354Y-82444699D01*
X59648657Y-82491290D01*
X59677207Y-82572884D01*
X59682424Y-82582754D01*
X59680252Y-82583901D01*
X59702652Y-82640985D01*
X59691152Y-82717251D01*
X59643059Y-82777549D01*
X59583658Y-82803795D01*
X59546768Y-82811133D01*
X59480448Y-82855448D01*
X59436132Y-82921769D01*
X59424500Y-82980251D01*
X59424500Y-83625500D01*
X59404538Y-83700000D01*
X59350000Y-83754538D01*
X59275500Y-83774500D01*
X59094031Y-83774500D01*
X59019531Y-83754538D01*
X58988676Y-83730862D01*
X58957314Y-83699500D01*
X58957311Y-83699498D01*
X58957310Y-83699497D01*
X58886514Y-83658623D01*
X58843186Y-83633608D01*
X58715892Y-83599500D01*
X58584108Y-83599500D01*
X58584104Y-83599500D01*
X58537064Y-83612105D01*
X58459936Y-83612105D01*
X58393141Y-83573541D01*
X58354577Y-83506746D01*
X58349500Y-83468182D01*
X58349500Y-74946900D01*
X58369462Y-74872400D01*
X58393141Y-74841541D01*
X60740259Y-72494423D01*
X63088470Y-70146212D01*
X63134614Y-70066288D01*
X63138953Y-70050094D01*
X63158500Y-69977144D01*
X63158500Y-67438960D01*
X63178462Y-67364460D01*
X63201496Y-67334250D01*
X63215607Y-67319964D01*
X63268233Y-67289581D01*
X63361419Y-67196395D01*
X63394830Y-67138525D01*
X63408287Y-67124902D01*
X63425601Y-67114763D01*
X63439789Y-67100575D01*
X63458303Y-67095613D01*
X63474843Y-67085929D01*
X63494906Y-67085805D01*
X63514289Y-67080612D01*
X63532804Y-67085572D01*
G37*
%TD.AperFunction*%
%TA.AperFunction,Conductor*%
G36*
X87573000Y-60381397D02*
G01*
X87627538Y-60435935D01*
X87647500Y-60510435D01*
X87647500Y-75675099D01*
X87627538Y-75749599D01*
X87603859Y-75780458D01*
X87275931Y-76108385D01*
X87209136Y-76146949D01*
X87132008Y-76146949D01*
X87102926Y-76135785D01*
X87090305Y-76129354D01*
X87090306Y-76129354D01*
X87063508Y-76125110D01*
X86996519Y-76114500D01*
X86996514Y-76114500D01*
X86383481Y-76114500D01*
X86289695Y-76129354D01*
X86289693Y-76129355D01*
X86176657Y-76186950D01*
X86086950Y-76276657D01*
X86029354Y-76389694D01*
X86029354Y-76389696D01*
X86014500Y-76483481D01*
X86014500Y-76483484D01*
X86014500Y-76483485D01*
X86014500Y-76946518D01*
X86029354Y-77040304D01*
X86029355Y-77040306D01*
X86086950Y-77153342D01*
X86176657Y-77243049D01*
X86176656Y-77243049D01*
X86204509Y-77257241D01*
X86261825Y-77308851D01*
X86285658Y-77382204D01*
X86269621Y-77457647D01*
X86218011Y-77514963D01*
X86204509Y-77522759D01*
X86176657Y-77536950D01*
X86086950Y-77626657D01*
X86029354Y-77739694D01*
X86029354Y-77739696D01*
X86014500Y-77833481D01*
X86014500Y-77833482D01*
X86014500Y-77833485D01*
X86014500Y-78296518D01*
X86029354Y-78390304D01*
X86086950Y-78503342D01*
X86176658Y-78593050D01*
X86289696Y-78650646D01*
X86383481Y-78665500D01*
X86996518Y-78665499D01*
X87090304Y-78650646D01*
X87203342Y-78593050D01*
X87293050Y-78503342D01*
X87350646Y-78390304D01*
X87365500Y-78296519D01*
X87365499Y-77833482D01*
X87350646Y-77739696D01*
X87293050Y-77626658D01*
X87203342Y-77536950D01*
X87175491Y-77522759D01*
X87118175Y-77471152D01*
X87094340Y-77397799D01*
X87110376Y-77322356D01*
X87161984Y-77265039D01*
X87175486Y-77257242D01*
X87203342Y-77243050D01*
X87293050Y-77153342D01*
X87350646Y-77040304D01*
X87350646Y-77040301D01*
X87355793Y-77030201D01*
X87383188Y-76992493D01*
X88278470Y-76097212D01*
X88324614Y-76017288D01*
X88324616Y-76017279D01*
X88326258Y-76013317D01*
X88328880Y-76009898D01*
X88329498Y-76008829D01*
X88329638Y-76008910D01*
X88373204Y-75952122D01*
X88444457Y-75922599D01*
X88520927Y-75932658D01*
X88569281Y-75964963D01*
X89280401Y-76676083D01*
X89318965Y-76742878D01*
X89318965Y-76820006D01*
X89312701Y-76838460D01*
X89289869Y-76893582D01*
X89249500Y-77096534D01*
X89249500Y-77303465D01*
X89289869Y-77506417D01*
X89369057Y-77697596D01*
X89484022Y-77869654D01*
X89630345Y-78015977D01*
X89802403Y-78130942D01*
X89881591Y-78163742D01*
X89993580Y-78210130D01*
X90196535Y-78250500D01*
X90403465Y-78250500D01*
X90606420Y-78210130D01*
X90797598Y-78130941D01*
X90969655Y-78015977D01*
X91115977Y-77869655D01*
X91230941Y-77697598D01*
X91256647Y-77635540D01*
X91262842Y-77620583D01*
X91309794Y-77559393D01*
X91381051Y-77529877D01*
X91457519Y-77539944D01*
X91518709Y-77586896D01*
X91548225Y-77658153D01*
X91549500Y-77677602D01*
X91549500Y-79262397D01*
X91529538Y-79336897D01*
X91475000Y-79391435D01*
X91400500Y-79411397D01*
X91326000Y-79391435D01*
X91271462Y-79336897D01*
X91262842Y-79319417D01*
X91230942Y-79242404D01*
X91230937Y-79242397D01*
X91115977Y-79070345D01*
X90969655Y-78924023D01*
X90969654Y-78924022D01*
X90797596Y-78809057D01*
X90639219Y-78743455D01*
X90606420Y-78729870D01*
X90606418Y-78729869D01*
X90606417Y-78729869D01*
X90403465Y-78689500D01*
X90196535Y-78689500D01*
X89993582Y-78729869D01*
X89802403Y-78809057D01*
X89630345Y-78924022D01*
X89484022Y-79070345D01*
X89369062Y-79242397D01*
X89369058Y-79242404D01*
X89346228Y-79297521D01*
X89299275Y-79358710D01*
X89228017Y-79388225D01*
X89208570Y-79389500D01*
X87441853Y-79389500D01*
X87367353Y-79369538D01*
X87312815Y-79315000D01*
X87309093Y-79308145D01*
X87308670Y-79307314D01*
X87293050Y-79276658D01*
X87203342Y-79186950D01*
X87138392Y-79153856D01*
X87090305Y-79129354D01*
X87074673Y-79126878D01*
X86996519Y-79114500D01*
X86996514Y-79114500D01*
X86383481Y-79114500D01*
X86289695Y-79129354D01*
X86289693Y-79129355D01*
X86176657Y-79186950D01*
X86086950Y-79276657D01*
X86029354Y-79389694D01*
X86024526Y-79420182D01*
X86014500Y-79483481D01*
X86014500Y-79483484D01*
X86014500Y-79483485D01*
X86014500Y-79946518D01*
X86025084Y-80013342D01*
X86029354Y-80040304D01*
X86086950Y-80153342D01*
X86176658Y-80243050D01*
X86289696Y-80300646D01*
X86383481Y-80315500D01*
X86996518Y-80315499D01*
X87090304Y-80300646D01*
X87203342Y-80243050D01*
X87293050Y-80153342D01*
X87293051Y-80153338D01*
X87294084Y-80151919D01*
X87296128Y-80150263D01*
X87301342Y-80145050D01*
X87301889Y-80145597D01*
X87354024Y-80103381D01*
X87414627Y-80090500D01*
X89208570Y-80090500D01*
X89283070Y-80110462D01*
X89337608Y-80165000D01*
X89346227Y-80182478D01*
X89369059Y-80237598D01*
X89395955Y-80277851D01*
X89484022Y-80409654D01*
X89630345Y-80555977D01*
X89802403Y-80670942D01*
X89858182Y-80694046D01*
X89993580Y-80750130D01*
X90196535Y-80790500D01*
X90403465Y-80790500D01*
X90606420Y-80750130D01*
X90774402Y-80680548D01*
X90797596Y-80670942D01*
X90797596Y-80670941D01*
X90797598Y-80670941D01*
X90969655Y-80555977D01*
X91115977Y-80409655D01*
X91230941Y-80237598D01*
X91256664Y-80175499D01*
X91262842Y-80160583D01*
X91309794Y-80099393D01*
X91381051Y-80069877D01*
X91457519Y-80079944D01*
X91518709Y-80126896D01*
X91548225Y-80198153D01*
X91549500Y-80217602D01*
X91549500Y-81802397D01*
X91529538Y-81876897D01*
X91475000Y-81931435D01*
X91400500Y-81951397D01*
X91326000Y-81931435D01*
X91271462Y-81876897D01*
X91262842Y-81859417D01*
X91230942Y-81782404D01*
X91230937Y-81782397D01*
X91115977Y-81610345D01*
X90969655Y-81464023D01*
X90908945Y-81423458D01*
X90797596Y-81349057D01*
X90622699Y-81276613D01*
X90606420Y-81269870D01*
X90606418Y-81269869D01*
X90606417Y-81269869D01*
X90403465Y-81229500D01*
X90196535Y-81229500D01*
X89993582Y-81269869D01*
X89802403Y-81349057D01*
X89630345Y-81464022D01*
X89484022Y-81610345D01*
X89369062Y-81782397D01*
X89369058Y-81782404D01*
X89346228Y-81837521D01*
X89299275Y-81898710D01*
X89228017Y-81928225D01*
X89208570Y-81929500D01*
X86311900Y-81929500D01*
X86237400Y-81909538D01*
X86206541Y-81885859D01*
X84769140Y-80448458D01*
X84730576Y-80381663D01*
X84725499Y-80343099D01*
X84725499Y-79993481D01*
X84721440Y-79967853D01*
X84710646Y-79899696D01*
X84653050Y-79786658D01*
X84563342Y-79696950D01*
X84563341Y-79696949D01*
X84556854Y-79693644D01*
X84499537Y-79642035D01*
X84475704Y-79568682D01*
X84475500Y-79560885D01*
X84475500Y-74471329D01*
X84495462Y-74396829D01*
X84550000Y-74342291D01*
X84603021Y-74323885D01*
X84662509Y-74315220D01*
X84670251Y-74311435D01*
X84771344Y-74262014D01*
X84771345Y-74262012D01*
X84771347Y-74262012D01*
X84857012Y-74176347D01*
X84876697Y-74136082D01*
X84910220Y-74067509D01*
X84920499Y-73996959D01*
X84920499Y-73996953D01*
X84920500Y-73996949D01*
X84920499Y-73603052D01*
X84915158Y-73566390D01*
X84910220Y-73532489D01*
X84857014Y-73423655D01*
X84771345Y-73337986D01*
X84662508Y-73284779D01*
X84662509Y-73284779D01*
X84591952Y-73274500D01*
X83628057Y-73274500D01*
X83628046Y-73274501D01*
X83557489Y-73284779D01*
X83448655Y-73337985D01*
X83362986Y-73423654D01*
X83309779Y-73532490D01*
X83299500Y-73603040D01*
X83299500Y-73996942D01*
X83299501Y-73996953D01*
X83309779Y-74067510D01*
X83362985Y-74176344D01*
X83448654Y-74262013D01*
X83557491Y-74315220D01*
X83557490Y-74315220D01*
X83628040Y-74325499D01*
X83628048Y-74325499D01*
X83628051Y-74325500D01*
X83628053Y-74325499D01*
X83633424Y-74325889D01*
X83633300Y-74327599D01*
X83699955Y-74345435D01*
X83754512Y-74399954D01*
X83774500Y-74474447D01*
X83774500Y-78819101D01*
X83769423Y-78838048D01*
X83769423Y-78857665D01*
X83759615Y-78874652D01*
X83754538Y-78893601D01*
X83740666Y-78907472D01*
X83730859Y-78924460D01*
X83713871Y-78934267D01*
X83700000Y-78948139D01*
X83681051Y-78953216D01*
X83664064Y-78963024D01*
X83644448Y-78963024D01*
X83625500Y-78968101D01*
X83606552Y-78963024D01*
X83586936Y-78963024D01*
X83569948Y-78953216D01*
X83551000Y-78948139D01*
X83520141Y-78924460D01*
X83515212Y-78919531D01*
X80915212Y-76319530D01*
X80840955Y-76276658D01*
X80835288Y-76273386D01*
X80835287Y-76273385D01*
X80835286Y-76273385D01*
X80835284Y-76273384D01*
X80819143Y-76269060D01*
X80819138Y-76269057D01*
X80819138Y-76269058D01*
X80746144Y-76249500D01*
X79539115Y-76249500D01*
X79464615Y-76229538D01*
X79410077Y-76175000D01*
X79406356Y-76168146D01*
X79403050Y-76161658D01*
X79313342Y-76071950D01*
X79200305Y-76014354D01*
X79184673Y-76011878D01*
X79106519Y-75999500D01*
X79106514Y-75999500D01*
X78493481Y-75999500D01*
X78399695Y-76014354D01*
X78399693Y-76014355D01*
X78286657Y-76071950D01*
X78196949Y-76161658D01*
X78193644Y-76168146D01*
X78190961Y-76171125D01*
X78189923Y-76175000D01*
X78165316Y-76199606D01*
X78142035Y-76225463D01*
X78138220Y-76226702D01*
X78135385Y-76229538D01*
X78101777Y-76238543D01*
X78068682Y-76249296D01*
X78060885Y-76249500D01*
X78048284Y-76249500D01*
X77973784Y-76229538D01*
X77919246Y-76175000D01*
X77899284Y-76100500D01*
X77899284Y-73732085D01*
X77919246Y-73657585D01*
X77973784Y-73603047D01*
X78048284Y-73583085D01*
X78086848Y-73588162D01*
X78098277Y-73591225D01*
X78132886Y-73600499D01*
X78132892Y-73600500D01*
X78264676Y-73600500D01*
X78391970Y-73566392D01*
X78506098Y-73500500D01*
X78599284Y-73407314D01*
X78603506Y-73400000D01*
X78658042Y-73345464D01*
X78732541Y-73325500D01*
X79160885Y-73325500D01*
X79235385Y-73345462D01*
X79289923Y-73400000D01*
X79293644Y-73406854D01*
X79293878Y-73407314D01*
X79296950Y-73413342D01*
X79386658Y-73503050D01*
X79499696Y-73560646D01*
X79593481Y-73575500D01*
X80206518Y-73575499D01*
X80300304Y-73560646D01*
X80413342Y-73503050D01*
X80503050Y-73413342D01*
X80554053Y-73313242D01*
X80605661Y-73255927D01*
X80679014Y-73232093D01*
X80754457Y-73248129D01*
X80792171Y-73275530D01*
X80828654Y-73312013D01*
X80937491Y-73365220D01*
X80937490Y-73365220D01*
X81008040Y-73375499D01*
X81008044Y-73375499D01*
X81008051Y-73375500D01*
X81951500Y-73375499D01*
X82026000Y-73395461D01*
X82080538Y-73449999D01*
X82100500Y-73524499D01*
X82100500Y-73582099D01*
X82080538Y-73656599D01*
X82056859Y-73687458D01*
X81563457Y-74180859D01*
X81496662Y-74219423D01*
X81458098Y-74224500D01*
X81008057Y-74224500D01*
X81008046Y-74224501D01*
X80937489Y-74234779D01*
X80828654Y-74287986D01*
X80792170Y-74324470D01*
X80725374Y-74363033D01*
X80648246Y-74363033D01*
X80581452Y-74324468D01*
X80554052Y-74286755D01*
X80541445Y-74262012D01*
X80503050Y-74186658D01*
X80413342Y-74096950D01*
X80363922Y-74071769D01*
X80300305Y-74039354D01*
X80284673Y-74036878D01*
X80206519Y-74024500D01*
X80206514Y-74024500D01*
X79593481Y-74024500D01*
X79499695Y-74039354D01*
X79499693Y-74039355D01*
X79386657Y-74096950D01*
X79296950Y-74186657D01*
X79239354Y-74299694D01*
X79235430Y-74324470D01*
X79224500Y-74393481D01*
X79224500Y-74393482D01*
X79224500Y-74393485D01*
X79224500Y-74856518D01*
X79238101Y-74942391D01*
X79239354Y-74950304D01*
X79296950Y-75063342D01*
X79386658Y-75153050D01*
X79499696Y-75210646D01*
X79593481Y-75225500D01*
X80206518Y-75225499D01*
X80300304Y-75210646D01*
X80413342Y-75153050D01*
X80422251Y-75144141D01*
X80439238Y-75134333D01*
X80453110Y-75120462D01*
X80472058Y-75115384D01*
X80489046Y-75105577D01*
X80527610Y-75100500D01*
X80655423Y-75100500D01*
X80729923Y-75120462D01*
X80760782Y-75144141D01*
X80828654Y-75212013D01*
X80937491Y-75265220D01*
X80937490Y-75265220D01*
X81008040Y-75275499D01*
X81008044Y-75275499D01*
X81008051Y-75275500D01*
X81971948Y-75275499D01*
X82017879Y-75268807D01*
X82042510Y-75265220D01*
X82151344Y-75212014D01*
X82151345Y-75212012D01*
X82151347Y-75212012D01*
X82237012Y-75126347D01*
X82290220Y-75017509D01*
X82294246Y-74989877D01*
X82300499Y-74946959D01*
X82300499Y-74946955D01*
X82300500Y-74946949D01*
X82300499Y-74553052D01*
X82296288Y-74524147D01*
X82305300Y-74447550D01*
X82338370Y-74397310D01*
X82731469Y-74004212D01*
X82777614Y-73924288D01*
X82794533Y-73861144D01*
X82801500Y-73835144D01*
X82801500Y-64414856D01*
X82777614Y-64325712D01*
X82777612Y-64325708D01*
X82763619Y-64301471D01*
X82763619Y-64301472D01*
X82731470Y-64245788D01*
X81157925Y-62672243D01*
X81119361Y-62605448D01*
X81114284Y-62566884D01*
X81114284Y-62557892D01*
X81114283Y-62557890D01*
X81111901Y-62549000D01*
X81080176Y-62430598D01*
X81025395Y-62335715D01*
X81014286Y-62316473D01*
X81014285Y-62316472D01*
X81014284Y-62316470D01*
X80921098Y-62223284D01*
X80921095Y-62223282D01*
X80921094Y-62223281D01*
X80879813Y-62199447D01*
X80865941Y-62185574D01*
X80848956Y-62175768D01*
X80839148Y-62158781D01*
X80825276Y-62144908D01*
X80820199Y-62125959D01*
X80810392Y-62108973D01*
X80810392Y-62089356D01*
X80805315Y-62070408D01*
X80810392Y-62051461D01*
X80810392Y-62031845D01*
X80820200Y-62014856D01*
X80825278Y-61995908D01*
X80848957Y-61965051D01*
X80976964Y-61837045D01*
X81043759Y-61798481D01*
X81120887Y-61798481D01*
X81187681Y-61837045D01*
X81481131Y-62130495D01*
X81506095Y-62144908D01*
X81589555Y-62193094D01*
X81589557Y-62193094D01*
X81589558Y-62193095D01*
X81710493Y-62225501D01*
X81710496Y-62225501D01*
X81835691Y-62225501D01*
X81835695Y-62225501D01*
X81891396Y-62210574D01*
X81914080Y-62206348D01*
X81921995Y-62205500D01*
X81969031Y-62205500D01*
X81998277Y-62203408D01*
X82033212Y-62198385D01*
X82051262Y-62191651D01*
X82051726Y-62191601D01*
X82051841Y-62192324D01*
X82111548Y-62182867D01*
X82118075Y-62181834D01*
X82141382Y-62180000D01*
X82698623Y-62180000D01*
X82721929Y-62181834D01*
X82745545Y-62185574D01*
X82784768Y-62191786D01*
X82791278Y-62192967D01*
X82810283Y-62196857D01*
X82815165Y-62197943D01*
X82819431Y-62198967D01*
X82822996Y-62199823D01*
X82822997Y-62199823D01*
X82823005Y-62199825D01*
X82827321Y-62200596D01*
X82827108Y-62201788D01*
X82864107Y-62214069D01*
X82864694Y-62212653D01*
X82873712Y-62216387D01*
X82873720Y-62216392D01*
X83001014Y-62250500D01*
X83736546Y-62250500D01*
X83863840Y-62216392D01*
X83977968Y-62150500D01*
X84614327Y-61514141D01*
X84681122Y-61475577D01*
X84719686Y-61470500D01*
X86205892Y-61470500D01*
X86333186Y-61436392D01*
X86447314Y-61370500D01*
X87352499Y-60465315D01*
X87355839Y-60459531D01*
X87369462Y-60435934D01*
X87424000Y-60381397D01*
X87498500Y-60361435D01*
X87573000Y-60381397D01*
G37*
%TD.AperFunction*%
%TA.AperFunction,Conductor*%
G36*
X78135385Y-76970462D02*
G01*
X78189923Y-77025000D01*
X78193644Y-77031854D01*
X78195134Y-77034779D01*
X78196950Y-77038342D01*
X78286658Y-77128050D01*
X78399696Y-77185646D01*
X78493481Y-77200500D01*
X79106518Y-77200499D01*
X79200304Y-77185646D01*
X79313342Y-77128050D01*
X79403050Y-77038342D01*
X79406356Y-77031854D01*
X79457965Y-76974537D01*
X79531318Y-76950704D01*
X79539115Y-76950500D01*
X80493100Y-76950500D01*
X80567600Y-76970462D01*
X80598459Y-76994141D01*
X82905859Y-79301540D01*
X82915666Y-79318527D01*
X82929538Y-79332399D01*
X82934615Y-79351347D01*
X82944423Y-79368335D01*
X82949500Y-79406899D01*
X82949500Y-79488527D01*
X82929538Y-79563027D01*
X82875000Y-79617565D01*
X82800500Y-79637527D01*
X82777194Y-79635693D01*
X82733783Y-79628818D01*
X82706519Y-79624500D01*
X82706516Y-79624500D01*
X82243481Y-79624500D01*
X82149695Y-79639354D01*
X82149693Y-79639355D01*
X82036657Y-79696950D01*
X81946949Y-79786658D01*
X81945916Y-79788081D01*
X81943871Y-79789736D01*
X81938658Y-79794950D01*
X81938110Y-79794402D01*
X81885976Y-79836619D01*
X81825373Y-79849500D01*
X79773322Y-79849500D01*
X79754374Y-79844423D01*
X79734758Y-79844423D01*
X79717770Y-79834615D01*
X79698822Y-79829538D01*
X79667963Y-79805859D01*
X79519140Y-79657036D01*
X79480576Y-79590241D01*
X79475499Y-79551677D01*
X79475499Y-79343481D01*
X79470778Y-79313672D01*
X79460646Y-79249696D01*
X79403050Y-79136658D01*
X79313342Y-79046950D01*
X79313341Y-79046949D01*
X79311919Y-79045916D01*
X79310263Y-79043871D01*
X79305050Y-79038658D01*
X79305597Y-79038110D01*
X79292396Y-79021807D01*
X79270462Y-78999873D01*
X79268398Y-78992172D01*
X79263381Y-78985976D01*
X79250500Y-78925373D01*
X79250500Y-78899626D01*
X79270462Y-78825126D01*
X79305226Y-78786518D01*
X79305050Y-78786342D01*
X79308416Y-78782975D01*
X79311926Y-78779078D01*
X79313334Y-78778053D01*
X79313342Y-78778050D01*
X79403050Y-78688342D01*
X79460646Y-78575304D01*
X79475500Y-78481519D01*
X79475499Y-78018482D01*
X79474474Y-78012013D01*
X79469797Y-77982479D01*
X79460646Y-77924696D01*
X79403050Y-77811658D01*
X79313342Y-77721950D01*
X79226305Y-77677602D01*
X79200305Y-77664354D01*
X79184673Y-77661878D01*
X79106519Y-77649500D01*
X79106514Y-77649500D01*
X78493481Y-77649500D01*
X78399695Y-77664354D01*
X78399693Y-77664355D01*
X78286657Y-77721950D01*
X78252749Y-77755859D01*
X78185954Y-77794423D01*
X78147390Y-77799500D01*
X76358500Y-77799500D01*
X76284000Y-77779538D01*
X76229462Y-77725000D01*
X76209500Y-77650500D01*
X76209500Y-77274499D01*
X76229462Y-77199999D01*
X76284000Y-77145461D01*
X76358496Y-77125499D01*
X77291948Y-77125499D01*
X77337879Y-77118807D01*
X77362510Y-77115220D01*
X77471344Y-77062014D01*
X77471345Y-77062012D01*
X77471347Y-77062012D01*
X77539218Y-76994141D01*
X77606013Y-76955577D01*
X77644577Y-76950500D01*
X78060885Y-76950500D01*
X78135385Y-76970462D01*
G37*
%TD.AperFunction*%
%TA.AperFunction,Conductor*%
G36*
X89197774Y-33293040D02*
G01*
X89226653Y-33296842D01*
X89234535Y-33302889D01*
X89244134Y-33305462D01*
X89264734Y-33326062D01*
X89287843Y-33343794D01*
X89291645Y-33352973D01*
X89298672Y-33360000D01*
X89306212Y-33388140D01*
X89317359Y-33415051D01*
X89316062Y-33424901D01*
X89318634Y-33434500D01*
X89307292Y-33491519D01*
X89289870Y-33533578D01*
X89289869Y-33533582D01*
X89249500Y-33736534D01*
X89249500Y-33943465D01*
X89287510Y-34134559D01*
X89289870Y-34146420D01*
X89294034Y-34156472D01*
X89369057Y-34337596D01*
X89484022Y-34509654D01*
X89630345Y-34655977D01*
X89802403Y-34770942D01*
X89873763Y-34800500D01*
X89993580Y-34850130D01*
X90196535Y-34890500D01*
X90403465Y-34890500D01*
X90606420Y-34850130D01*
X90797598Y-34770941D01*
X90969655Y-34655977D01*
X91115977Y-34509655D01*
X91230941Y-34337598D01*
X91233985Y-34330251D01*
X91262842Y-34260583D01*
X91309794Y-34199393D01*
X91381051Y-34169877D01*
X91457519Y-34179944D01*
X91518709Y-34226896D01*
X91548225Y-34298153D01*
X91549500Y-34317602D01*
X91549500Y-35902397D01*
X91529538Y-35976897D01*
X91475000Y-36031435D01*
X91400500Y-36051397D01*
X91326000Y-36031435D01*
X91271462Y-35976897D01*
X91262842Y-35959417D01*
X91230942Y-35882404D01*
X91169751Y-35790825D01*
X91115977Y-35710345D01*
X90969655Y-35564023D01*
X90969654Y-35564022D01*
X90797596Y-35449057D01*
X90639219Y-35383455D01*
X90606420Y-35369870D01*
X90606418Y-35369869D01*
X90606417Y-35369869D01*
X90403465Y-35329500D01*
X90196535Y-35329500D01*
X89993582Y-35369869D01*
X89802403Y-35449057D01*
X89630345Y-35564022D01*
X89484022Y-35710345D01*
X89369057Y-35882403D01*
X89289869Y-36073582D01*
X89249500Y-36276534D01*
X89249500Y-36483465D01*
X89289869Y-36686417D01*
X89289870Y-36686421D01*
X89307292Y-36728481D01*
X89317359Y-36804949D01*
X89287843Y-36876206D01*
X89226653Y-36923158D01*
X89169634Y-36934500D01*
X87974500Y-36934500D01*
X87900000Y-36914538D01*
X87845462Y-36860000D01*
X87825500Y-36785500D01*
X87825500Y-36690251D01*
X87813867Y-36631769D01*
X87807484Y-36622216D01*
X87769552Y-36565448D01*
X87703231Y-36521133D01*
X87703230Y-36521132D01*
X87644748Y-36509500D01*
X87355252Y-36509500D01*
X87282375Y-36523996D01*
X87281626Y-36520231D01*
X87230521Y-36526949D01*
X87217719Y-36523519D01*
X87217625Y-36523996D01*
X87144748Y-36509500D01*
X86855252Y-36509500D01*
X86796769Y-36521132D01*
X86730448Y-36565448D01*
X86686132Y-36631769D01*
X86674500Y-36690251D01*
X86674500Y-37849811D01*
X86669423Y-37868758D01*
X86669423Y-37888375D01*
X86659615Y-37905362D01*
X86654538Y-37924311D01*
X86640666Y-37938182D01*
X86630859Y-37955170D01*
X86613871Y-37964977D01*
X86600000Y-37978849D01*
X86581051Y-37983926D01*
X86564064Y-37993734D01*
X86544448Y-37993734D01*
X86525500Y-37998811D01*
X86506552Y-37993734D01*
X86486936Y-37993734D01*
X86469948Y-37983926D01*
X86451000Y-37978849D01*
X86420141Y-37955170D01*
X86369141Y-37904170D01*
X86330577Y-37837375D01*
X86325500Y-37798811D01*
X86325500Y-36690251D01*
X86313867Y-36631769D01*
X86307484Y-36622216D01*
X86269552Y-36565448D01*
X86203231Y-36521133D01*
X86203230Y-36521132D01*
X86144748Y-36509500D01*
X85855252Y-36509500D01*
X85796769Y-36521132D01*
X85730448Y-36565448D01*
X85686132Y-36631769D01*
X85674500Y-36690251D01*
X85674500Y-37829748D01*
X85686132Y-37888231D01*
X85688157Y-37893118D01*
X85694566Y-37912115D01*
X85699500Y-37930808D01*
X85699500Y-37999562D01*
X85719979Y-38075989D01*
X85742896Y-38115682D01*
X85752842Y-38132911D01*
X85752844Y-38132915D01*
X85759537Y-38144508D01*
X86735859Y-39120830D01*
X86774423Y-39187625D01*
X86779500Y-39226189D01*
X86779500Y-40574275D01*
X86782353Y-40604695D01*
X86782353Y-40604697D01*
X86782354Y-40604699D01*
X86788114Y-40621160D01*
X86827207Y-40732883D01*
X86907848Y-40842148D01*
X86907851Y-40842151D01*
X87017116Y-40922792D01*
X87017117Y-40922792D01*
X87017118Y-40922793D01*
X87145301Y-40967646D01*
X87175734Y-40970500D01*
X87175741Y-40970500D01*
X87784259Y-40970500D01*
X87784266Y-40970500D01*
X87814699Y-40967646D01*
X87942882Y-40922793D01*
X88052150Y-40842150D01*
X88132793Y-40732882D01*
X88177646Y-40604699D01*
X88180500Y-40574266D01*
X88180500Y-38965734D01*
X88177646Y-38935301D01*
X88177644Y-38935296D01*
X88175712Y-38926447D01*
X88178961Y-38925737D01*
X88174483Y-38865759D01*
X88207967Y-38796278D01*
X88271705Y-38752848D01*
X88320878Y-38744500D01*
X89100500Y-38744500D01*
X89175000Y-38764462D01*
X89229538Y-38819000D01*
X89249500Y-38893500D01*
X89249500Y-39023465D01*
X89289869Y-39226417D01*
X89289869Y-39226418D01*
X89289870Y-39226420D01*
X89293530Y-39235256D01*
X89369057Y-39417596D01*
X89484022Y-39589654D01*
X89630345Y-39735977D01*
X89802403Y-39850942D01*
X89846480Y-39869199D01*
X89993580Y-39930130D01*
X90196535Y-39970500D01*
X90403465Y-39970500D01*
X90606420Y-39930130D01*
X90797598Y-39850941D01*
X90969655Y-39735977D01*
X91115977Y-39589655D01*
X91230941Y-39417598D01*
X91232644Y-39413488D01*
X91262842Y-39340583D01*
X91309794Y-39279393D01*
X91381051Y-39249877D01*
X91457519Y-39259944D01*
X91518709Y-39306896D01*
X91548225Y-39378153D01*
X91549500Y-39397602D01*
X91549500Y-40982397D01*
X91529538Y-41056897D01*
X91475000Y-41111435D01*
X91400500Y-41131397D01*
X91326000Y-41111435D01*
X91271462Y-41056897D01*
X91262842Y-41039417D01*
X91230942Y-40962404D01*
X91204474Y-40922792D01*
X91115977Y-40790345D01*
X90969655Y-40644023D01*
X90946691Y-40628679D01*
X90797596Y-40529057D01*
X90639219Y-40463455D01*
X90606420Y-40449870D01*
X90606418Y-40449869D01*
X90606417Y-40449869D01*
X90403465Y-40409500D01*
X90196535Y-40409500D01*
X89993582Y-40449869D01*
X89802403Y-40529057D01*
X89630345Y-40644022D01*
X89484022Y-40790345D01*
X89369057Y-40962403D01*
X89289869Y-41153582D01*
X89249500Y-41356534D01*
X89249500Y-41563465D01*
X89289869Y-41766417D01*
X89369057Y-41957596D01*
X89484022Y-42129654D01*
X89630345Y-42275977D01*
X89802403Y-42390942D01*
X89881591Y-42423742D01*
X89993580Y-42470130D01*
X90196535Y-42510500D01*
X90403465Y-42510500D01*
X90606420Y-42470130D01*
X90797598Y-42390941D01*
X90969655Y-42275977D01*
X91115977Y-42129655D01*
X91230941Y-41957598D01*
X91233985Y-41950251D01*
X91262842Y-41880583D01*
X91309794Y-41819393D01*
X91381051Y-41789877D01*
X91457519Y-41799944D01*
X91518709Y-41846896D01*
X91548225Y-41918153D01*
X91549500Y-41937602D01*
X91549500Y-43522397D01*
X91529538Y-43596897D01*
X91475000Y-43651435D01*
X91400500Y-43671397D01*
X91326000Y-43651435D01*
X91271462Y-43596897D01*
X91262842Y-43579417D01*
X91230942Y-43502404D01*
X91115977Y-43330345D01*
X90969654Y-43184022D01*
X90797596Y-43069057D01*
X90633143Y-43000939D01*
X90606420Y-42989870D01*
X90606418Y-42989869D01*
X90606417Y-42989869D01*
X90403465Y-42949500D01*
X90196535Y-42949500D01*
X89993582Y-42989869D01*
X89802403Y-43069057D01*
X89630345Y-43184022D01*
X89484022Y-43330345D01*
X89369057Y-43502403D01*
X89289869Y-43693582D01*
X89249500Y-43896534D01*
X89249500Y-44103465D01*
X89289869Y-44306417D01*
X89289869Y-44306418D01*
X89289870Y-44306420D01*
X89291573Y-44310531D01*
X89369057Y-44497596D01*
X89484022Y-44669654D01*
X89630345Y-44815977D01*
X89802403Y-44930942D01*
X89846480Y-44949199D01*
X89993580Y-45010130D01*
X90196535Y-45050500D01*
X90403465Y-45050500D01*
X90606420Y-45010130D01*
X90797598Y-44930941D01*
X90969655Y-44815977D01*
X91115977Y-44669655D01*
X91230941Y-44497598D01*
X91233985Y-44490251D01*
X91262842Y-44420583D01*
X91309794Y-44359393D01*
X91381051Y-44329877D01*
X91457519Y-44339944D01*
X91518709Y-44386896D01*
X91548225Y-44458153D01*
X91549500Y-44477602D01*
X91549500Y-46062397D01*
X91529538Y-46136897D01*
X91475000Y-46191435D01*
X91400500Y-46211397D01*
X91326000Y-46191435D01*
X91271462Y-46136897D01*
X91262842Y-46119417D01*
X91230942Y-46042404D01*
X91220057Y-46026114D01*
X91115977Y-45870345D01*
X90969655Y-45724023D01*
X90951115Y-45711635D01*
X90797596Y-45609057D01*
X90639219Y-45543455D01*
X90606420Y-45529870D01*
X90606418Y-45529869D01*
X90606417Y-45529869D01*
X90403465Y-45489500D01*
X90196535Y-45489500D01*
X89993582Y-45529869D01*
X89802403Y-45609057D01*
X89630345Y-45724022D01*
X89484022Y-45870345D01*
X89369057Y-46042403D01*
X89289869Y-46233582D01*
X89249500Y-46436534D01*
X89249500Y-46643465D01*
X89281330Y-46803490D01*
X89289870Y-46846420D01*
X89293530Y-46855256D01*
X89369057Y-47037596D01*
X89484022Y-47209654D01*
X89630345Y-47355977D01*
X89802403Y-47470942D01*
X89874970Y-47501000D01*
X89993580Y-47550130D01*
X90196535Y-47590500D01*
X90403465Y-47590500D01*
X90606420Y-47550130D01*
X90797598Y-47470941D01*
X90969655Y-47355977D01*
X91115977Y-47209655D01*
X91230941Y-47037598D01*
X91233985Y-47030251D01*
X91262842Y-46960583D01*
X91309794Y-46899393D01*
X91381051Y-46869877D01*
X91457519Y-46879944D01*
X91518709Y-46926896D01*
X91548225Y-46998153D01*
X91549500Y-47017602D01*
X91549500Y-48602397D01*
X91529538Y-48676897D01*
X91475000Y-48731435D01*
X91400500Y-48751397D01*
X91326000Y-48731435D01*
X91271462Y-48676897D01*
X91262842Y-48659417D01*
X91230942Y-48582404D01*
X91229074Y-48579609D01*
X91115977Y-48410345D01*
X90969655Y-48264023D01*
X90969654Y-48264022D01*
X90797596Y-48149057D01*
X90639219Y-48083455D01*
X90606420Y-48069870D01*
X90606418Y-48069869D01*
X90606417Y-48069869D01*
X90403465Y-48029500D01*
X90196535Y-48029500D01*
X89993582Y-48069869D01*
X89802403Y-48149057D01*
X89630345Y-48264022D01*
X89484022Y-48410345D01*
X89369057Y-48582403D01*
X89289869Y-48773582D01*
X89249500Y-48976534D01*
X89249500Y-49183465D01*
X89289869Y-49386417D01*
X89369057Y-49577596D01*
X89484022Y-49749654D01*
X89630345Y-49895977D01*
X89802403Y-50010942D01*
X89881591Y-50043742D01*
X89993580Y-50090130D01*
X90196535Y-50130500D01*
X90403465Y-50130500D01*
X90606420Y-50090130D01*
X90797598Y-50010941D01*
X90969655Y-49895977D01*
X91115977Y-49749655D01*
X91230941Y-49577598D01*
X91236204Y-49564894D01*
X91262842Y-49500583D01*
X91309794Y-49439393D01*
X91381051Y-49409877D01*
X91457519Y-49419944D01*
X91518709Y-49466896D01*
X91548225Y-49538153D01*
X91549500Y-49557602D01*
X91549500Y-68480679D01*
X91529538Y-68555179D01*
X91475000Y-68609717D01*
X91400500Y-68629679D01*
X91326000Y-68609717D01*
X91295141Y-68586038D01*
X91294554Y-68585451D01*
X91294552Y-68585448D01*
X91228231Y-68541133D01*
X91228230Y-68541132D01*
X91169748Y-68529500D01*
X89430252Y-68529500D01*
X89371769Y-68541132D01*
X89305448Y-68585448D01*
X89261132Y-68651769D01*
X89249500Y-68710251D01*
X89249500Y-70449748D01*
X89261132Y-70508230D01*
X89261133Y-70508231D01*
X89305448Y-70574552D01*
X89371769Y-70618867D01*
X89430252Y-70630500D01*
X91169748Y-70630500D01*
X91228231Y-70618867D01*
X91294552Y-70574552D01*
X91294556Y-70574545D01*
X91295141Y-70573962D01*
X91297292Y-70572719D01*
X91306752Y-70566399D01*
X91307166Y-70567019D01*
X91361936Y-70535398D01*
X91439064Y-70535398D01*
X91505859Y-70573962D01*
X91544423Y-70640757D01*
X91549500Y-70679321D01*
X91549500Y-71642397D01*
X91529538Y-71716897D01*
X91475000Y-71771435D01*
X91400500Y-71791397D01*
X91326000Y-71771435D01*
X91271462Y-71716897D01*
X91262842Y-71699417D01*
X91230942Y-71622404D01*
X91115977Y-71450345D01*
X90969654Y-71304022D01*
X90797596Y-71189057D01*
X90606830Y-71110040D01*
X90606420Y-71109870D01*
X90606418Y-71109869D01*
X90606417Y-71109869D01*
X90403465Y-71069500D01*
X90196535Y-71069500D01*
X89993582Y-71109869D01*
X89802403Y-71189057D01*
X89630345Y-71304022D01*
X89484022Y-71450345D01*
X89369057Y-71622403D01*
X89289869Y-71813582D01*
X89249500Y-72016534D01*
X89249500Y-72223465D01*
X89289869Y-72426417D01*
X89369057Y-72617596D01*
X89484022Y-72789654D01*
X89630345Y-72935977D01*
X89802403Y-73050942D01*
X89881591Y-73083742D01*
X89993580Y-73130130D01*
X90196535Y-73170500D01*
X90403465Y-73170500D01*
X90606420Y-73130130D01*
X90797598Y-73050941D01*
X90969655Y-72935977D01*
X91115977Y-72789655D01*
X91230941Y-72617598D01*
X91231225Y-72616914D01*
X91262842Y-72540583D01*
X91309794Y-72479393D01*
X91381051Y-72449877D01*
X91457519Y-72459944D01*
X91518709Y-72506896D01*
X91548225Y-72578153D01*
X91549500Y-72597602D01*
X91549500Y-74182397D01*
X91529538Y-74256897D01*
X91475000Y-74311435D01*
X91400500Y-74331397D01*
X91326000Y-74311435D01*
X91271462Y-74256897D01*
X91262842Y-74239417D01*
X91230942Y-74162404D01*
X91213354Y-74136082D01*
X91115977Y-73990345D01*
X90969655Y-73844023D01*
X90969654Y-73844022D01*
X90797596Y-73729057D01*
X90637875Y-73662899D01*
X90606420Y-73649870D01*
X90606418Y-73649869D01*
X90606417Y-73649869D01*
X90403465Y-73609500D01*
X90196535Y-73609500D01*
X89993582Y-73649869D01*
X89802403Y-73729057D01*
X89630345Y-73844022D01*
X89484022Y-73990345D01*
X89369057Y-74162403D01*
X89289869Y-74353582D01*
X89249500Y-74556534D01*
X89249500Y-74763465D01*
X89289869Y-74966417D01*
X89369057Y-75157596D01*
X89484022Y-75329654D01*
X89630345Y-75475977D01*
X89802403Y-75590942D01*
X89881591Y-75623742D01*
X89993580Y-75670130D01*
X90196535Y-75710500D01*
X90403465Y-75710500D01*
X90606420Y-75670130D01*
X90784081Y-75596540D01*
X90797596Y-75590942D01*
X90797596Y-75590941D01*
X90797598Y-75590941D01*
X90969655Y-75475977D01*
X91115977Y-75329655D01*
X91230941Y-75157598D01*
X91232826Y-75153049D01*
X91262842Y-75080583D01*
X91309794Y-75019393D01*
X91381051Y-74989877D01*
X91457519Y-74999944D01*
X91518709Y-75046896D01*
X91548225Y-75118153D01*
X91549500Y-75137602D01*
X91549500Y-76722397D01*
X91529538Y-76796897D01*
X91475000Y-76851435D01*
X91400500Y-76871397D01*
X91326000Y-76851435D01*
X91271462Y-76796897D01*
X91262842Y-76779417D01*
X91230942Y-76702404D01*
X91213354Y-76676082D01*
X91115977Y-76530345D01*
X90969655Y-76384023D01*
X90873134Y-76319530D01*
X90797596Y-76269057D01*
X90639219Y-76203455D01*
X90606420Y-76189870D01*
X90606418Y-76189869D01*
X90606417Y-76189869D01*
X90403465Y-76149500D01*
X90196535Y-76149500D01*
X89993582Y-76189869D01*
X89938460Y-76212701D01*
X89861992Y-76222767D01*
X89790735Y-76193250D01*
X89776083Y-76180401D01*
X88893141Y-75297459D01*
X88854577Y-75230664D01*
X88849500Y-75192100D01*
X88849500Y-50492776D01*
X88849499Y-50492772D01*
X88825615Y-50403634D01*
X88825614Y-50403632D01*
X88823295Y-50399615D01*
X88813479Y-50382613D01*
X88779474Y-50323714D01*
X88779471Y-50323710D01*
X88779470Y-50323708D01*
X87391141Y-48935379D01*
X87352577Y-48868584D01*
X87347500Y-48830020D01*
X87347500Y-48821028D01*
X87347499Y-48821026D01*
X87345567Y-48813814D01*
X87313392Y-48693734D01*
X87260658Y-48602397D01*
X87247502Y-48579609D01*
X87247501Y-48579608D01*
X87247500Y-48579606D01*
X87154314Y-48486420D01*
X87154311Y-48486418D01*
X87154310Y-48486417D01*
X87083514Y-48445543D01*
X87040186Y-48420528D01*
X86912892Y-48386420D01*
X86781108Y-48386420D01*
X86653814Y-48420528D01*
X86653812Y-48420528D01*
X86653812Y-48420529D01*
X86539689Y-48486417D01*
X86446497Y-48579609D01*
X86390329Y-48676897D01*
X86380608Y-48693734D01*
X86370506Y-48731435D01*
X86346500Y-48821026D01*
X86346500Y-48821028D01*
X86346500Y-48952812D01*
X86380608Y-49080106D01*
X86380609Y-49080107D01*
X86446497Y-49194230D01*
X86452441Y-49201975D01*
X86451091Y-49203010D01*
X86483934Y-49259908D01*
X86483928Y-49337037D01*
X86445368Y-49403818D01*
X86398417Y-49450769D01*
X86332529Y-49564892D01*
X86298420Y-49692186D01*
X86298420Y-49692188D01*
X86298420Y-49823972D01*
X86332528Y-49951266D01*
X86332529Y-49951267D01*
X86398417Y-50065390D01*
X86398418Y-50065391D01*
X86398420Y-50065394D01*
X86491606Y-50158580D01*
X86605734Y-50224472D01*
X86733028Y-50258580D01*
X86742020Y-50258580D01*
X86816520Y-50278542D01*
X86847379Y-50302221D01*
X87603859Y-51058701D01*
X87642423Y-51125496D01*
X87647500Y-51164060D01*
X87647500Y-56609564D01*
X87627538Y-56684064D01*
X87573000Y-56738602D01*
X87498500Y-56758564D01*
X87424000Y-56738602D01*
X87369463Y-56684065D01*
X87352504Y-56654692D01*
X87352501Y-56654688D01*
X87352500Y-56654686D01*
X86467314Y-55769500D01*
X86467311Y-55769498D01*
X86467310Y-55769497D01*
X86396514Y-55728623D01*
X86353186Y-55703608D01*
X86225892Y-55669500D01*
X84119032Y-55669500D01*
X84044532Y-55649538D01*
X84013673Y-55625859D01*
X83743858Y-55356044D01*
X83375767Y-54987953D01*
X83375764Y-54987951D01*
X83375763Y-54987950D01*
X83261642Y-54922062D01*
X83261639Y-54922061D01*
X83134346Y-54887953D01*
X83002561Y-54887953D01*
X82875262Y-54922062D01*
X82866242Y-54925799D01*
X82865981Y-54925170D01*
X82834741Y-54937224D01*
X82829610Y-54938333D01*
X82806788Y-54941615D01*
X82796224Y-54945553D01*
X82785718Y-54947826D01*
X82783732Y-54947729D01*
X82777530Y-54949359D01*
X82721928Y-54958165D01*
X82698621Y-54959999D01*
X82141381Y-54959999D01*
X82118071Y-54958164D01*
X82055410Y-54948239D01*
X82048813Y-54947042D01*
X82033095Y-54943821D01*
X82029291Y-54943042D01*
X82024432Y-54941961D01*
X82017004Y-54940178D01*
X82017000Y-54940177D01*
X82016995Y-54940176D01*
X82012675Y-54939405D01*
X82012885Y-54938228D01*
X81975884Y-54925935D01*
X81975301Y-54927344D01*
X81966281Y-54923608D01*
X81838990Y-54889500D01*
X81838987Y-54889500D01*
X81707202Y-54889500D01*
X81697436Y-54889500D01*
X81697436Y-54887581D01*
X81633132Y-54879107D01*
X81571948Y-54832148D01*
X81542440Y-54760887D01*
X81552517Y-54684420D01*
X81584806Y-54636100D01*
X84635490Y-51585418D01*
X84694799Y-51482691D01*
X84696784Y-51475281D01*
X84701285Y-51458483D01*
X84701286Y-51458479D01*
X84709734Y-51426948D01*
X84725500Y-51368113D01*
X84725500Y-39817966D01*
X84745462Y-39743466D01*
X84769141Y-39712607D01*
X84772388Y-39709360D01*
X84848528Y-39633220D01*
X84909719Y-39513126D01*
X84925500Y-39413488D01*
X84925500Y-38846512D01*
X84909719Y-38746874D01*
X84848528Y-38626780D01*
X84769141Y-38547393D01*
X84730577Y-38480598D01*
X84725500Y-38442034D01*
X84725500Y-37156320D01*
X84745462Y-37081820D01*
X84769137Y-37050965D01*
X86860489Y-34959614D01*
X86893350Y-34902697D01*
X86919797Y-34856891D01*
X86919797Y-34856889D01*
X86919799Y-34856887D01*
X86933216Y-34806814D01*
X86950500Y-34742309D01*
X86950500Y-34141430D01*
X86950523Y-34138788D01*
X86950688Y-34129462D01*
X86955500Y-34096000D01*
X86955500Y-33858154D01*
X86955523Y-33856858D01*
X86965808Y-33821026D01*
X86975462Y-33785000D01*
X86976427Y-33784034D01*
X86976804Y-33782724D01*
X87003618Y-33756843D01*
X87030000Y-33730462D01*
X87031317Y-33730108D01*
X87032300Y-33729161D01*
X87068499Y-33720146D01*
X87104500Y-33710500D01*
X87144748Y-33710500D01*
X87217625Y-33696004D01*
X87218374Y-33699770D01*
X87269441Y-33693045D01*
X87282279Y-33696484D01*
X87282375Y-33696004D01*
X87355252Y-33710500D01*
X87644748Y-33710500D01*
X87703231Y-33698867D01*
X87769552Y-33654552D01*
X87813867Y-33588231D01*
X87825500Y-33529748D01*
X87825500Y-33434500D01*
X87845462Y-33360000D01*
X87900000Y-33305462D01*
X87974500Y-33285500D01*
X89169634Y-33285500D01*
X89197774Y-33293040D01*
G37*
%TD.AperFunction*%
%TA.AperFunction,Conductor*%
G36*
X73674000Y-60496862D02*
G01*
X73704859Y-60520541D01*
X76175859Y-62991541D01*
X76214423Y-63058336D01*
X76219500Y-63096900D01*
X76219500Y-63105892D01*
X76253608Y-63233186D01*
X76253609Y-63233187D01*
X76319497Y-63347310D01*
X76319498Y-63347311D01*
X76319500Y-63347314D01*
X76412686Y-63440500D01*
X76412688Y-63440501D01*
X76412689Y-63440502D01*
X76433798Y-63452689D01*
X76526814Y-63506392D01*
X76537548Y-63509268D01*
X76604344Y-63547831D01*
X76642908Y-63614625D01*
X76642909Y-63691753D01*
X76604346Y-63758549D01*
X76604345Y-63758550D01*
X74707631Y-65655266D01*
X74707630Y-65655267D01*
X74648321Y-65757993D01*
X74645277Y-65769355D01*
X74630394Y-65805286D01*
X74601731Y-65854933D01*
X74567622Y-65982228D01*
X74567622Y-66063863D01*
X74547660Y-66138363D01*
X74493122Y-66192901D01*
X74418622Y-66212863D01*
X74344122Y-66192901D01*
X74330143Y-66183749D01*
X74296129Y-66158646D01*
X74212882Y-66097207D01*
X74212880Y-66097206D01*
X74157898Y-66077967D01*
X74084699Y-66052354D01*
X74084697Y-66052353D01*
X74084695Y-66052353D01*
X74054275Y-66049500D01*
X74054266Y-66049500D01*
X73345734Y-66049500D01*
X73345724Y-66049500D01*
X73315304Y-66052353D01*
X73187116Y-66097207D01*
X73077851Y-66177848D01*
X73077848Y-66177851D01*
X72997207Y-66287116D01*
X72952353Y-66415304D01*
X72949500Y-66445724D01*
X72949500Y-67154275D01*
X72952353Y-67184695D01*
X72952353Y-67184697D01*
X72952354Y-67184699D01*
X72966905Y-67226283D01*
X72997207Y-67312883D01*
X73077848Y-67422148D01*
X73077851Y-67422151D01*
X73187116Y-67502792D01*
X73187117Y-67502792D01*
X73187118Y-67502793D01*
X73315301Y-67547646D01*
X73345734Y-67550500D01*
X73349199Y-67550825D01*
X73349098Y-67551900D01*
X73418009Y-67573869D01*
X73469935Y-67630899D01*
X73486390Y-67706252D01*
X73462964Y-67779736D01*
X73412054Y-67828317D01*
X73392692Y-67839495D01*
X73392688Y-67839498D01*
X73299497Y-67932689D01*
X73233609Y-68046812D01*
X73199500Y-68174106D01*
X73199500Y-68312849D01*
X73179538Y-68387349D01*
X73138979Y-68432734D01*
X73077852Y-68477847D01*
X73077848Y-68477851D01*
X72997207Y-68587116D01*
X72952353Y-68715304D01*
X72949500Y-68745724D01*
X72949500Y-69454275D01*
X72952353Y-69484695D01*
X72997207Y-69612883D01*
X73077848Y-69722148D01*
X73077851Y-69722151D01*
X73187116Y-69802792D01*
X73187117Y-69802792D01*
X73187118Y-69802793D01*
X73315301Y-69847646D01*
X73345734Y-69850500D01*
X73751679Y-69850500D01*
X73826179Y-69870462D01*
X73857038Y-69894141D01*
X75254859Y-71291962D01*
X75293423Y-71358757D01*
X75298500Y-71397321D01*
X75298500Y-72467914D01*
X75278538Y-72542414D01*
X75224000Y-72596952D01*
X75149500Y-72616914D01*
X75110936Y-72611837D01*
X75064895Y-72599500D01*
X75064892Y-72599500D01*
X74933108Y-72599500D01*
X74805814Y-72633608D01*
X74805812Y-72633608D01*
X74805812Y-72633609D01*
X74691689Y-72699497D01*
X74598497Y-72792689D01*
X74532609Y-72906812D01*
X74498500Y-73034106D01*
X74498500Y-73165893D01*
X74507639Y-73200001D01*
X74532608Y-73293186D01*
X74543477Y-73312012D01*
X74598497Y-73407310D01*
X74598498Y-73407311D01*
X74598500Y-73407314D01*
X74604860Y-73413674D01*
X74643423Y-73480467D01*
X74648500Y-73519031D01*
X74648500Y-74634099D01*
X74628538Y-74708599D01*
X74604859Y-74739458D01*
X74263457Y-75080859D01*
X74196662Y-75119423D01*
X74158098Y-75124500D01*
X73708057Y-75124500D01*
X73708046Y-75124501D01*
X73637489Y-75134779D01*
X73536072Y-75184360D01*
X73470632Y-75199500D01*
X72754500Y-75199500D01*
X72680000Y-75179538D01*
X72625462Y-75125000D01*
X72605500Y-75050500D01*
X72605500Y-74274004D01*
X72605499Y-74273988D01*
X72601354Y-74235436D01*
X72600500Y-74219507D01*
X72600500Y-74130251D01*
X72588867Y-74071769D01*
X72586021Y-74067510D01*
X72544552Y-74005448D01*
X72478231Y-73961133D01*
X72478230Y-73961132D01*
X72419748Y-73949500D01*
X72321431Y-73949500D01*
X72300224Y-73947983D01*
X72297750Y-73947627D01*
X72276005Y-73944500D01*
X72276000Y-73944500D01*
X68599500Y-73944500D01*
X68525000Y-73924538D01*
X68470462Y-73870000D01*
X68450500Y-73795500D01*
X68450500Y-62893321D01*
X68470462Y-62818821D01*
X68494141Y-62787962D01*
X69512962Y-61769141D01*
X69579757Y-61730577D01*
X69618321Y-61725500D01*
X69853483Y-61725500D01*
X69853488Y-61725500D01*
X69953126Y-61709719D01*
X70073220Y-61648528D01*
X70152607Y-61569141D01*
X70169594Y-61559333D01*
X70183466Y-61545462D01*
X70202414Y-61540384D01*
X70219402Y-61530577D01*
X70257966Y-61525500D01*
X70494135Y-61525500D01*
X70568635Y-61545462D01*
X70600463Y-61574361D01*
X70602072Y-61572753D01*
X70693514Y-61664196D01*
X70693518Y-61664199D01*
X70798605Y-61715573D01*
X70866731Y-61725499D01*
X70866737Y-61725499D01*
X70866740Y-61725500D01*
X70866741Y-61725500D01*
X71181422Y-61725500D01*
X71255922Y-61745462D01*
X71310460Y-61800000D01*
X71330422Y-61874500D01*
X71310460Y-61949000D01*
X71286781Y-61979859D01*
X71040781Y-62225859D01*
X70973986Y-62264423D01*
X70935422Y-62269500D01*
X70830562Y-62269500D01*
X70814070Y-62270313D01*
X70810339Y-62270498D01*
X70810320Y-62270499D01*
X70798167Y-62271702D01*
X70786013Y-62272905D01*
X70710830Y-62295405D01*
X70710829Y-62295405D01*
X70710824Y-62295407D01*
X70648979Y-62327832D01*
X70648947Y-62327851D01*
X70627440Y-62340862D01*
X70565701Y-62408330D01*
X70565696Y-62408336D01*
X70531183Y-62469082D01*
X70509821Y-62523532D01*
X70153261Y-64038915D01*
X70149166Y-64062296D01*
X70145870Y-64090696D01*
X70144500Y-64114382D01*
X70144500Y-69526013D01*
X70149195Y-69569676D01*
X70160409Y-69621224D01*
X70162887Y-69631365D01*
X70162891Y-69631376D01*
X70205900Y-69712085D01*
X70237325Y-69748352D01*
X70251655Y-69764889D01*
X70269246Y-69782843D01*
X70349063Y-69827490D01*
X70416102Y-69847175D01*
X70435686Y-69849990D01*
X70473991Y-69855499D01*
X70473997Y-69855499D01*
X70474000Y-69855500D01*
X70474001Y-69855500D01*
X71325996Y-69855500D01*
X71326000Y-69855500D01*
X71326004Y-69855499D01*
X71326013Y-69855499D01*
X71369676Y-69850804D01*
X71369677Y-69850803D01*
X71369684Y-69850803D01*
X71421195Y-69839597D01*
X71431373Y-69837110D01*
X71512085Y-69794100D01*
X71564889Y-69748345D01*
X71582843Y-69730754D01*
X71627490Y-69650937D01*
X71647175Y-69583898D01*
X71655500Y-69526000D01*
X71655500Y-64103643D01*
X71655411Y-64097606D01*
X71655197Y-64090325D01*
X71654931Y-64084295D01*
X71576570Y-62752157D01*
X71581390Y-62728746D01*
X71581390Y-62704843D01*
X71589038Y-62691595D01*
X71592123Y-62676614D01*
X71619955Y-62638049D01*
X71739864Y-62518141D01*
X71806659Y-62479577D01*
X71845222Y-62474500D01*
X72300500Y-62474500D01*
X72375000Y-62494462D01*
X72429538Y-62549000D01*
X72449500Y-62623500D01*
X72449500Y-63683268D01*
X72459426Y-63751393D01*
X72459426Y-63751394D01*
X72510800Y-63856481D01*
X72593518Y-63939199D01*
X72698605Y-63990573D01*
X72766731Y-64000499D01*
X72766737Y-64000499D01*
X72766740Y-64000500D01*
X72766741Y-64000500D01*
X73133259Y-64000500D01*
X73133260Y-64000500D01*
X73133263Y-64000499D01*
X73133268Y-64000499D01*
X73201393Y-63990573D01*
X73201394Y-63990573D01*
X73306481Y-63939199D01*
X73306481Y-63939198D01*
X73306483Y-63939198D01*
X73389198Y-63856483D01*
X73426212Y-63780769D01*
X73440573Y-63751394D01*
X73440573Y-63751393D01*
X73450499Y-63683268D01*
X73450500Y-63683258D01*
X73450500Y-62591741D01*
X73450499Y-62591731D01*
X73440573Y-62523606D01*
X73440573Y-62523605D01*
X73389199Y-62418518D01*
X73306482Y-62335801D01*
X73302573Y-62333890D01*
X73296968Y-62329008D01*
X73296437Y-62328629D01*
X73296473Y-62328577D01*
X73244413Y-62283233D01*
X73238984Y-62274536D01*
X73230471Y-62259792D01*
X73230467Y-62259787D01*
X72997674Y-62026994D01*
X72950538Y-61979857D01*
X72911975Y-61913064D01*
X72911975Y-61835936D01*
X72950539Y-61769141D01*
X73017334Y-61730577D01*
X73055898Y-61725500D01*
X73133259Y-61725500D01*
X73133260Y-61725500D01*
X73133263Y-61725499D01*
X73133268Y-61725499D01*
X73201393Y-61715573D01*
X73201394Y-61715573D01*
X73306481Y-61664199D01*
X73306481Y-61664198D01*
X73306483Y-61664198D01*
X73389198Y-61581483D01*
X73395232Y-61569141D01*
X73440573Y-61476394D01*
X73440573Y-61476393D01*
X73450499Y-61408268D01*
X73450500Y-61408258D01*
X73450500Y-60625900D01*
X73470462Y-60551400D01*
X73525000Y-60496862D01*
X73599500Y-60476900D01*
X73674000Y-60496862D01*
G37*
%TD.AperFunction*%
%TA.AperFunction,Conductor*%
G36*
X80165769Y-62858956D02*
G01*
X80189447Y-62889813D01*
X80213281Y-62931094D01*
X80213282Y-62931095D01*
X80213284Y-62931098D01*
X80306470Y-63024284D01*
X80420598Y-63090176D01*
X80547892Y-63124284D01*
X80556884Y-63124284D01*
X80631384Y-63144246D01*
X80662243Y-63167925D01*
X82056859Y-64562541D01*
X82095423Y-64629336D01*
X82100500Y-64667900D01*
X82100500Y-72175500D01*
X82080538Y-72250000D01*
X82026000Y-72304538D01*
X81951500Y-72324500D01*
X81008057Y-72324500D01*
X81008046Y-72324501D01*
X80937489Y-72334779D01*
X80828655Y-72387985D01*
X80760782Y-72455859D01*
X80743794Y-72465666D01*
X80729923Y-72479538D01*
X80710974Y-72484615D01*
X80693987Y-72494423D01*
X80655423Y-72499500D01*
X80527610Y-72499500D01*
X80453110Y-72479538D01*
X80422251Y-72455859D01*
X80413342Y-72446950D01*
X80300305Y-72389354D01*
X80284673Y-72386878D01*
X80206519Y-72374500D01*
X80206514Y-72374500D01*
X79593481Y-72374500D01*
X79499695Y-72389354D01*
X79499693Y-72389355D01*
X79386657Y-72446950D01*
X79296949Y-72536658D01*
X79293644Y-72543146D01*
X79242035Y-72600463D01*
X79168682Y-72624296D01*
X79160885Y-72624500D01*
X78377595Y-72624500D01*
X78339031Y-72619423D01*
X78264679Y-72599500D01*
X78264676Y-72599500D01*
X78132892Y-72599500D01*
X78132888Y-72599500D01*
X78086848Y-72611837D01*
X78009720Y-72611837D01*
X77942925Y-72573273D01*
X77904361Y-72506478D01*
X77899284Y-72467914D01*
X77899284Y-66107815D01*
X77919246Y-66033315D01*
X77942921Y-66002460D01*
X77949284Y-65996098D01*
X78015176Y-65881970D01*
X78049284Y-65754676D01*
X78049284Y-65622892D01*
X78015176Y-65495598D01*
X77949284Y-65381470D01*
X77856098Y-65288284D01*
X77856095Y-65288282D01*
X77856094Y-65288281D01*
X77814813Y-65264447D01*
X77760276Y-65209908D01*
X77740315Y-65135408D01*
X77760278Y-65060908D01*
X77783952Y-65030055D01*
X79955053Y-62858954D01*
X80021846Y-62820392D01*
X80098974Y-62820392D01*
X80165769Y-62858956D01*
G37*
%TD.AperFunction*%
%TA.AperFunction,Conductor*%
G36*
X76370769Y-66653956D02*
G01*
X76394447Y-66684813D01*
X76415877Y-66721930D01*
X76415878Y-66721932D01*
X76418284Y-66726098D01*
X76428169Y-66735983D01*
X76431436Y-66739718D01*
X76446330Y-66770019D01*
X76463207Y-66799251D01*
X76464124Y-66806221D01*
X76465459Y-66808936D01*
X76465129Y-66813857D01*
X76468284Y-66837815D01*
X76468284Y-70961040D01*
X76448322Y-71035540D01*
X76393784Y-71090078D01*
X76319284Y-71110040D01*
X76244784Y-71090078D01*
X76190246Y-71035540D01*
X76175361Y-70999605D01*
X76168799Y-70975114D01*
X76163043Y-70965144D01*
X76109490Y-70872386D01*
X74494141Y-69257037D01*
X74455577Y-69190242D01*
X74450500Y-69151678D01*
X74450500Y-68745741D01*
X74450499Y-68745724D01*
X74447646Y-68715301D01*
X74402793Y-68587118D01*
X74401561Y-68585449D01*
X74322151Y-68477851D01*
X74322147Y-68477847D01*
X74261021Y-68432734D01*
X74212932Y-68372433D01*
X74200500Y-68312849D01*
X74200500Y-68174108D01*
X74200499Y-68174106D01*
X74166392Y-68046814D01*
X74100500Y-67932686D01*
X74007314Y-67839500D01*
X74007311Y-67839498D01*
X74007307Y-67839495D01*
X73987947Y-67828318D01*
X73933409Y-67773781D01*
X73913446Y-67699281D01*
X73933408Y-67624781D01*
X73987945Y-67570243D01*
X74050891Y-67551787D01*
X74050801Y-67550825D01*
X74054266Y-67550500D01*
X74084699Y-67547646D01*
X74212882Y-67502793D01*
X74322150Y-67422150D01*
X74387023Y-67334250D01*
X74404167Y-67311021D01*
X74464468Y-67262932D01*
X74524052Y-67250500D01*
X75436212Y-67250500D01*
X75436215Y-67250500D01*
X75526579Y-67226286D01*
X75550793Y-67219799D01*
X75653520Y-67160489D01*
X76160053Y-66653954D01*
X76226846Y-66615392D01*
X76303974Y-66615392D01*
X76370769Y-66653956D01*
G37*
%TD.AperFunction*%
%TA.AperFunction,Conductor*%
G36*
X67834622Y-59983906D02*
G01*
X67865482Y-60007585D01*
X68827538Y-60969641D01*
X68866102Y-61036436D01*
X68866102Y-61113564D01*
X68827538Y-61180359D01*
X67639508Y-62368389D01*
X67580201Y-62471113D01*
X67580197Y-62471121D01*
X67575542Y-62488494D01*
X67575543Y-62488495D01*
X67549500Y-62585687D01*
X67549500Y-67587914D01*
X67529538Y-67662414D01*
X67475000Y-67716952D01*
X67400500Y-67736914D01*
X67361936Y-67731837D01*
X67315895Y-67719500D01*
X67315892Y-67719500D01*
X67184108Y-67719500D01*
X67056809Y-67753609D01*
X67047789Y-67757346D01*
X67046483Y-67754193D01*
X66989371Y-67769500D01*
X65600821Y-67769500D01*
X65526321Y-67749538D01*
X65495462Y-67725859D01*
X63141753Y-65372150D01*
X63103189Y-65305355D01*
X63103189Y-65228227D01*
X63141753Y-65161432D01*
X63172610Y-65137754D01*
X63213895Y-65113919D01*
X63307081Y-65020733D01*
X63372973Y-64906605D01*
X63407081Y-64779311D01*
X63407081Y-64647527D01*
X63372973Y-64520233D01*
X63322941Y-64433576D01*
X63307083Y-64406108D01*
X63307080Y-64406104D01*
X63300718Y-64399742D01*
X63262157Y-64332946D01*
X63257081Y-64294387D01*
X63257081Y-60412085D01*
X63277043Y-60337585D01*
X63331581Y-60283047D01*
X63406081Y-60263085D01*
X63444645Y-60268162D01*
X63456074Y-60271225D01*
X63490683Y-60280499D01*
X63490689Y-60280500D01*
X63622473Y-60280500D01*
X63749767Y-60246392D01*
X63863895Y-60180500D01*
X63870255Y-60174139D01*
X63937048Y-60135577D01*
X63975612Y-60130500D01*
X66795308Y-60130500D01*
X66869808Y-60150462D01*
X66891557Y-60167151D01*
X66891696Y-60166971D01*
X66899440Y-60172914D01*
X66912580Y-60180500D01*
X67013565Y-60238804D01*
X67140859Y-60272912D01*
X67272643Y-60272912D01*
X67399937Y-60238804D01*
X67514065Y-60172912D01*
X67607251Y-60079726D01*
X67631085Y-60038445D01*
X67685622Y-59983907D01*
X67760122Y-59963944D01*
X67834622Y-59983906D01*
G37*
%TD.AperFunction*%
%TA.AperFunction,Conductor*%
G36*
X61262050Y-60160462D02*
G01*
X61292904Y-60184137D01*
X61299267Y-60190500D01*
X61413395Y-60256392D01*
X61540689Y-60290500D01*
X61672473Y-60290500D01*
X61672478Y-60290499D01*
X61701420Y-60282743D01*
X61718515Y-60278162D01*
X61795643Y-60278161D01*
X61862438Y-60316724D01*
X61901003Y-60383519D01*
X61906081Y-60422085D01*
X61906081Y-63340968D01*
X61886119Y-63415468D01*
X61862444Y-63446323D01*
X61856081Y-63452685D01*
X61856078Y-63452689D01*
X61790189Y-63566812D01*
X61761090Y-63675411D01*
X61722525Y-63742206D01*
X61655730Y-63780769D01*
X61578602Y-63780769D01*
X61511808Y-63742205D01*
X59019140Y-61249537D01*
X58980576Y-61182742D01*
X58975499Y-61144178D01*
X58975499Y-60760133D01*
X58972585Y-60735010D01*
X58972584Y-60735008D01*
X58927206Y-60632235D01*
X58847765Y-60552794D01*
X58847763Y-60552792D01*
X58836376Y-60544992D01*
X58838307Y-60542171D01*
X58834665Y-60539240D01*
X58810886Y-60525511D01*
X58805053Y-60515409D01*
X58795967Y-60508096D01*
X58786050Y-60482493D01*
X58772323Y-60458716D01*
X58772323Y-60447051D01*
X58768110Y-60436174D01*
X58772323Y-60409045D01*
X58772323Y-60381588D01*
X58778156Y-60371484D01*
X58779946Y-60359960D01*
X58810884Y-60314797D01*
X58941543Y-60184140D01*
X59008338Y-60145577D01*
X59046901Y-60140500D01*
X61187550Y-60140500D01*
X61262050Y-60160462D01*
G37*
%TD.AperFunction*%
%TA.AperFunction,Conductor*%
G36*
X78111349Y-59165462D02*
G01*
X78142208Y-59189141D01*
X78753537Y-59800470D01*
X78819068Y-59838304D01*
X78833461Y-59846614D01*
X78922605Y-59870500D01*
X79093101Y-59870500D01*
X79167601Y-59890462D01*
X79198460Y-59914141D01*
X79243518Y-59959199D01*
X79348605Y-60010573D01*
X79416731Y-60020499D01*
X79416737Y-60020499D01*
X79416740Y-60020500D01*
X79416741Y-60020500D01*
X79949134Y-60020500D01*
X80023634Y-60040462D01*
X80078172Y-60095000D01*
X80098134Y-60169500D01*
X80078172Y-60244000D01*
X80023634Y-60298538D01*
X79952689Y-60339497D01*
X79859498Y-60432688D01*
X79859495Y-60432692D01*
X79793609Y-60546810D01*
X79789869Y-60555841D01*
X79786721Y-60554537D01*
X79757151Y-60605744D01*
X78026935Y-62335960D01*
X77960140Y-62374524D01*
X77883012Y-62374524D01*
X77816217Y-62335960D01*
X77792538Y-62305101D01*
X77768707Y-62263824D01*
X77768706Y-62263823D01*
X77768705Y-62263821D01*
X77675519Y-62170635D01*
X77675516Y-62170633D01*
X77675515Y-62170632D01*
X77596243Y-62124865D01*
X77561391Y-62104743D01*
X77434097Y-62070635D01*
X77425104Y-62070635D01*
X77350604Y-62050673D01*
X77319745Y-62026994D01*
X74692611Y-59399859D01*
X74654047Y-59333064D01*
X74654047Y-59255936D01*
X74692611Y-59189141D01*
X74759406Y-59150577D01*
X74797970Y-59145500D01*
X78036849Y-59145500D01*
X78111349Y-59165462D01*
G37*
%TD.AperFunction*%
%TA.AperFunction,Conductor*%
G36*
X72396565Y-59431558D02*
G01*
X72427419Y-59455233D01*
X72457686Y-59485500D01*
X72571814Y-59551392D01*
X72699108Y-59585500D01*
X72708100Y-59585500D01*
X72727048Y-59590577D01*
X72746664Y-59590577D01*
X72763651Y-59600384D01*
X72782600Y-59605462D01*
X72813459Y-59629141D01*
X72929459Y-59745141D01*
X72968023Y-59811936D01*
X72968023Y-59889064D01*
X72929459Y-59955859D01*
X72862664Y-59994423D01*
X72824100Y-59999500D01*
X72766731Y-59999500D01*
X72698606Y-60009426D01*
X72698605Y-60009426D01*
X72593518Y-60060800D01*
X72510800Y-60143518D01*
X72459426Y-60248605D01*
X72459426Y-60248606D01*
X72449500Y-60316731D01*
X72449500Y-61408268D01*
X72459426Y-61476392D01*
X72499840Y-61559059D01*
X72514627Y-61634757D01*
X72489583Y-61707706D01*
X72431421Y-61758360D01*
X72365980Y-61773500D01*
X71634020Y-61773500D01*
X71559520Y-61753538D01*
X71504982Y-61699000D01*
X71485020Y-61624500D01*
X71500160Y-61559059D01*
X71540573Y-61476393D01*
X71550500Y-61408260D01*
X71550500Y-60316740D01*
X71550216Y-60314793D01*
X71540573Y-60248606D01*
X71540573Y-60248605D01*
X71489199Y-60143518D01*
X71406481Y-60060800D01*
X71301394Y-60009426D01*
X71233268Y-59999500D01*
X71233260Y-59999500D01*
X70866740Y-59999500D01*
X70866731Y-59999500D01*
X70798606Y-60009426D01*
X70798605Y-60009426D01*
X70693518Y-60060800D01*
X70610800Y-60143518D01*
X70559426Y-60248605D01*
X70559426Y-60248606D01*
X70549500Y-60316731D01*
X70549500Y-60475500D01*
X70529538Y-60550000D01*
X70475000Y-60604538D01*
X70400500Y-60624500D01*
X70257966Y-60624500D01*
X70183466Y-60604538D01*
X70152607Y-60580859D01*
X70073220Y-60501472D01*
X69953127Y-60440281D01*
X69925686Y-60435935D01*
X69853488Y-60424500D01*
X69853483Y-60424500D01*
X69618321Y-60424500D01*
X69543821Y-60404538D01*
X69512962Y-60380859D01*
X68851930Y-59719827D01*
X68844987Y-59707802D01*
X68834437Y-59698779D01*
X68826011Y-59674934D01*
X68813366Y-59653032D01*
X68813366Y-59639148D01*
X68808740Y-59626057D01*
X68813366Y-59601193D01*
X68813366Y-59575904D01*
X68820308Y-59563879D01*
X68822848Y-59550230D01*
X68837057Y-59534868D01*
X68851930Y-59509109D01*
X68872978Y-59491616D01*
X68877764Y-59488331D01*
X68924071Y-59461596D01*
X68940148Y-59445518D01*
X68951477Y-59437744D01*
X68975321Y-59429318D01*
X68997224Y-59416673D01*
X69019351Y-59413759D01*
X69024199Y-59412047D01*
X69027581Y-59412676D01*
X69035788Y-59411596D01*
X72322065Y-59411596D01*
X72396565Y-59431558D01*
G37*
%TD.AperFunction*%
%TA.AperFunction,Conductor*%
G36*
X83727600Y-57990462D02*
G01*
X83758459Y-58014141D01*
X83975859Y-58231541D01*
X84014423Y-58298336D01*
X84019500Y-58336900D01*
X84019500Y-58566146D01*
X84036475Y-58629496D01*
X84036475Y-58629497D01*
X84043384Y-58655285D01*
X84043385Y-58655286D01*
X84043386Y-58655288D01*
X84060252Y-58684500D01*
X84089530Y-58735212D01*
X84219698Y-58865380D01*
X84230247Y-58883652D01*
X84258262Y-58932174D01*
X84258262Y-59009303D01*
X84244671Y-59032843D01*
X84219699Y-59076097D01*
X84169939Y-59125858D01*
X84103144Y-59164423D01*
X84064579Y-59169500D01*
X83106899Y-59169500D01*
X83032399Y-59149538D01*
X83001540Y-59125859D01*
X82956481Y-59080800D01*
X82851394Y-59029426D01*
X82783268Y-59019500D01*
X82783260Y-59019500D01*
X81724500Y-59019500D01*
X81650000Y-58999538D01*
X81595462Y-58945000D01*
X81575500Y-58870500D01*
X81575500Y-58269500D01*
X81595462Y-58195000D01*
X81650000Y-58140462D01*
X81724500Y-58120500D01*
X82783259Y-58120500D01*
X82783260Y-58120500D01*
X82783263Y-58120499D01*
X82783268Y-58120499D01*
X82851393Y-58110573D01*
X82851394Y-58110573D01*
X82956481Y-58059199D01*
X82956481Y-58059198D01*
X82956483Y-58059198D01*
X83001540Y-58014141D01*
X83068335Y-57975577D01*
X83106899Y-57970500D01*
X83653100Y-57970500D01*
X83727600Y-57990462D01*
G37*
%TD.AperFunction*%
%TA.AperFunction,Conductor*%
G36*
X67127205Y-47428276D02*
G01*
X67174158Y-47489465D01*
X67185500Y-47546486D01*
X67185500Y-58418583D01*
X67165538Y-58493083D01*
X67111000Y-58547621D01*
X67036500Y-58567583D01*
X66997937Y-58562506D01*
X66936385Y-58546013D01*
X66936379Y-58546013D01*
X66804595Y-58546013D01*
X66677301Y-58580121D01*
X66677299Y-58580121D01*
X66677299Y-58580122D01*
X66563176Y-58646010D01*
X66563175Y-58646011D01*
X66563173Y-58646012D01*
X66563173Y-58646013D01*
X66556812Y-58652373D01*
X66490020Y-58690936D01*
X66451456Y-58696013D01*
X64042129Y-58696013D01*
X63967629Y-58676051D01*
X63936771Y-58652373D01*
X63913894Y-58629496D01*
X63863895Y-58579497D01*
X63863892Y-58579495D01*
X63863891Y-58579494D01*
X63767087Y-58523605D01*
X63749767Y-58513605D01*
X63622473Y-58479497D01*
X63490689Y-58479497D01*
X63490685Y-58479497D01*
X63444645Y-58491834D01*
X63367517Y-58491834D01*
X63300722Y-58453270D01*
X63262158Y-58386475D01*
X63257081Y-58347911D01*
X63257081Y-48195902D01*
X63277043Y-48121402D01*
X63331581Y-48066864D01*
X63406081Y-48046902D01*
X63480581Y-48066864D01*
X63511440Y-48090543D01*
X63515445Y-48094548D01*
X63515448Y-48094552D01*
X63581769Y-48138867D01*
X63640252Y-48150500D01*
X65179748Y-48150500D01*
X65238231Y-48138867D01*
X65304552Y-48094552D01*
X65348867Y-48028231D01*
X65360500Y-47969748D01*
X65360500Y-47575500D01*
X65380462Y-47501000D01*
X65435000Y-47446462D01*
X65509500Y-47426500D01*
X66113681Y-47426500D01*
X66188181Y-47446462D01*
X66219035Y-47470137D01*
X66284387Y-47535489D01*
X66284389Y-47535490D01*
X66284393Y-47535493D01*
X66387110Y-47594797D01*
X66387111Y-47594797D01*
X66387114Y-47594799D01*
X66501691Y-47625500D01*
X66620309Y-47625500D01*
X66734886Y-47594799D01*
X66837613Y-47535489D01*
X66921489Y-47451613D01*
X66921490Y-47451610D01*
X66928394Y-47444707D01*
X66930272Y-47446585D01*
X66979479Y-47408828D01*
X67055948Y-47398761D01*
X67127205Y-47428276D01*
G37*
%TD.AperFunction*%
%TA.AperFunction,Conductor*%
G36*
X68310000Y-52931060D02*
G01*
X68340859Y-52954739D01*
X72966960Y-57580840D01*
X72976449Y-57597275D01*
X72989985Y-57610578D01*
X72995396Y-57630094D01*
X73005524Y-57647635D01*
X73005524Y-57666614D01*
X73010595Y-57684902D01*
X73005524Y-57704509D01*
X73005524Y-57724763D01*
X72996035Y-57741197D01*
X72991283Y-57759573D01*
X72977085Y-57774019D01*
X72966960Y-57791558D01*
X72950522Y-57801048D01*
X72937222Y-57814583D01*
X72919749Y-57824874D01*
X72900349Y-57830073D01*
X72786221Y-57895965D01*
X72767824Y-57914361D01*
X72751493Y-57923981D01*
X72677169Y-57944591D01*
X72675872Y-57944597D01*
X68805031Y-57944597D01*
X68730531Y-57924635D01*
X68699676Y-57900959D01*
X68693314Y-57894597D01*
X68693311Y-57894595D01*
X68693310Y-57894594D01*
X68581555Y-57830073D01*
X68579186Y-57828705D01*
X68451892Y-57794597D01*
X68320108Y-57794597D01*
X68320104Y-57794597D01*
X68274064Y-57806934D01*
X68196936Y-57806934D01*
X68130141Y-57768370D01*
X68091577Y-57701575D01*
X68086500Y-57663011D01*
X68086500Y-53060098D01*
X68106462Y-52985598D01*
X68161000Y-52931060D01*
X68235500Y-52911098D01*
X68310000Y-52931060D01*
G37*
%TD.AperFunction*%
%TA.AperFunction,Conductor*%
G36*
X79575859Y-53360541D02*
G01*
X79614423Y-53427336D01*
X79619500Y-53465900D01*
X79619500Y-54556962D01*
X79599538Y-54631462D01*
X79575859Y-54662321D01*
X79232349Y-55005830D01*
X79215430Y-55035135D01*
X79188870Y-55081139D01*
X79187379Y-55083720D01*
X79186205Y-55085754D01*
X79162319Y-55174898D01*
X79162319Y-56399996D01*
X79142357Y-56474496D01*
X79118682Y-56505351D01*
X79112319Y-56511713D01*
X79112316Y-56511717D01*
X79055082Y-56610851D01*
X79046427Y-56625842D01*
X79038698Y-56654688D01*
X79012319Y-56753134D01*
X79012319Y-56884921D01*
X79046427Y-57012214D01*
X79065934Y-57046001D01*
X79073410Y-57073907D01*
X79084555Y-57100561D01*
X79083259Y-57110663D01*
X79085895Y-57120502D01*
X79078417Y-57148405D01*
X79074742Y-57177062D01*
X79068568Y-57185163D01*
X79065932Y-57195001D01*
X79045505Y-57215427D01*
X79027993Y-57238408D01*
X79019691Y-57241241D01*
X79011394Y-57249539D01*
X78956834Y-57268160D01*
X78946910Y-57269500D01*
X78871605Y-57269500D01*
X78804294Y-57287536D01*
X78795103Y-57289998D01*
X78795100Y-57289999D01*
X78782462Y-57293385D01*
X78702536Y-57339530D01*
X78142208Y-57899859D01*
X78075413Y-57938423D01*
X78036849Y-57943500D01*
X75354031Y-57943500D01*
X75279531Y-57923538D01*
X75224993Y-57869000D01*
X75205031Y-57794500D01*
X75224993Y-57720000D01*
X75248668Y-57689145D01*
X75339280Y-57598534D01*
X75405172Y-57484406D01*
X75439280Y-57357112D01*
X75439280Y-57348120D01*
X75459242Y-57273620D01*
X75482921Y-57242761D01*
X79365141Y-53360541D01*
X79431936Y-53321977D01*
X79509064Y-53321977D01*
X79575859Y-53360541D01*
G37*
%TD.AperFunction*%
%TA.AperFunction,Conductor*%
G36*
X80508060Y-45467444D02*
G01*
X80594106Y-45490500D01*
X80725890Y-45490500D01*
X80725895Y-45490499D01*
X80756381Y-45482330D01*
X80814172Y-45466844D01*
X80891298Y-45466844D01*
X80958094Y-45505407D01*
X80996658Y-45572201D01*
X80996659Y-45649329D01*
X80976628Y-45693542D01*
X80971134Y-45701765D01*
X80971133Y-45701766D01*
X80959500Y-45760251D01*
X80959500Y-46699748D01*
X80971132Y-46758231D01*
X80987162Y-46782221D01*
X81011953Y-46855256D01*
X80996906Y-46930902D01*
X80987162Y-46947779D01*
X80971132Y-46971768D01*
X80959500Y-47030251D01*
X80959500Y-47969748D01*
X80971132Y-48028230D01*
X80983609Y-48046902D01*
X81015448Y-48094552D01*
X81081769Y-48138867D01*
X81140252Y-48150500D01*
X82679748Y-48150500D01*
X82738231Y-48138867D01*
X82804552Y-48094552D01*
X82848867Y-48028231D01*
X82860500Y-47969748D01*
X82860500Y-47030252D01*
X82848867Y-46971769D01*
X82848867Y-46971768D01*
X82832840Y-46947784D01*
X82808045Y-46874750D01*
X82821015Y-46803490D01*
X82826053Y-46792372D01*
X82848867Y-46758231D01*
X82854606Y-46729376D01*
X82861685Y-46713759D01*
X82875640Y-46696758D01*
X82885368Y-46677031D01*
X82899691Y-46667459D01*
X82910622Y-46654144D01*
X82931207Y-46646399D01*
X82949496Y-46634178D01*
X82966687Y-46633050D01*
X82982810Y-46626985D01*
X83004509Y-46630570D01*
X83026459Y-46629131D01*
X83050452Y-46638161D01*
X83058906Y-46639558D01*
X83062920Y-46642853D01*
X83071897Y-46646232D01*
X83187511Y-46712982D01*
X83187512Y-46712982D01*
X83187515Y-46712984D01*
X83327525Y-46750500D01*
X83472475Y-46750500D01*
X83612485Y-46712984D01*
X83612487Y-46712983D01*
X83618482Y-46710500D01*
X83694950Y-46700434D01*
X83766207Y-46729951D01*
X83813159Y-46791141D01*
X83824500Y-46848159D01*
X83824500Y-51060482D01*
X83804538Y-51134982D01*
X83780859Y-51165841D01*
X80574859Y-54371841D01*
X80508064Y-54410405D01*
X80430936Y-54410405D01*
X80364141Y-54371841D01*
X80325577Y-54305046D01*
X80320500Y-54266482D01*
X80320500Y-45611368D01*
X80340462Y-45536868D01*
X80395000Y-45482330D01*
X80469500Y-45462368D01*
X80508060Y-45467444D01*
G37*
%TD.AperFunction*%
%TA.AperFunction,Conductor*%
G36*
X65584000Y-33246283D02*
G01*
X65614859Y-33269962D01*
X67141859Y-34796962D01*
X67180423Y-34863757D01*
X67185500Y-34902321D01*
X67185500Y-46053513D01*
X67165538Y-46128013D01*
X67111000Y-46182551D01*
X67036500Y-46202513D01*
X66962000Y-46182551D01*
X66929571Y-46154115D01*
X66928394Y-46155293D01*
X66921490Y-46148389D01*
X66921489Y-46148387D01*
X66837613Y-46064511D01*
X66837610Y-46064509D01*
X66837606Y-46064506D01*
X66734889Y-46005202D01*
X66734886Y-46005201D01*
X66620309Y-45974500D01*
X66501691Y-45974500D01*
X66387110Y-46005202D01*
X66284393Y-46064506D01*
X66284389Y-46064509D01*
X66200510Y-46148388D01*
X66199583Y-46149995D01*
X66198269Y-46151308D01*
X66194561Y-46156141D01*
X66193925Y-46155653D01*
X66145047Y-46204535D01*
X66070547Y-46224500D01*
X65509500Y-46224500D01*
X65435000Y-46204538D01*
X65380462Y-46150000D01*
X65360500Y-46075500D01*
X65360500Y-45760251D01*
X65348867Y-45701768D01*
X65332840Y-45677784D01*
X65308045Y-45604750D01*
X65323090Y-45529103D01*
X65332840Y-45512216D01*
X65348867Y-45488231D01*
X65360500Y-45429748D01*
X65360500Y-44490251D01*
X65348867Y-44431768D01*
X65332840Y-44407784D01*
X65308045Y-44334750D01*
X65323090Y-44259103D01*
X65332840Y-44242216D01*
X65335202Y-44238682D01*
X65348867Y-44218231D01*
X65360500Y-44159748D01*
X65360500Y-43220252D01*
X65353294Y-43184022D01*
X65348867Y-43161768D01*
X65332840Y-43137784D01*
X65308045Y-43064750D01*
X65323090Y-42989103D01*
X65332840Y-42972216D01*
X65339919Y-42961623D01*
X65348867Y-42948231D01*
X65360500Y-42889748D01*
X65360500Y-41950252D01*
X65357990Y-41937630D01*
X65348867Y-41891768D01*
X65339485Y-41877728D01*
X65332839Y-41867782D01*
X65308045Y-41794750D01*
X65323090Y-41719103D01*
X65332840Y-41702216D01*
X65342438Y-41687853D01*
X65348867Y-41678231D01*
X65360500Y-41619748D01*
X65360500Y-40680252D01*
X65353294Y-40644022D01*
X65348867Y-40621768D01*
X65332840Y-40597784D01*
X65308045Y-40524750D01*
X65323090Y-40449103D01*
X65332840Y-40432216D01*
X65348867Y-40408231D01*
X65360500Y-40349748D01*
X65360500Y-39410251D01*
X65348867Y-39351768D01*
X65332840Y-39327784D01*
X65308045Y-39254750D01*
X65323090Y-39179103D01*
X65332840Y-39162216D01*
X65342438Y-39147853D01*
X65348867Y-39138231D01*
X65360500Y-39079748D01*
X65360500Y-38140252D01*
X65353294Y-38104022D01*
X65348867Y-38081768D01*
X65332840Y-38057784D01*
X65308045Y-37984750D01*
X65323090Y-37909103D01*
X65332840Y-37892216D01*
X65348867Y-37868231D01*
X65360500Y-37809748D01*
X65360500Y-36870251D01*
X65348867Y-36811768D01*
X65332840Y-36787784D01*
X65308045Y-36714750D01*
X65323090Y-36639103D01*
X65332840Y-36622216D01*
X65342438Y-36607853D01*
X65348867Y-36598231D01*
X65360500Y-36539748D01*
X65360500Y-35600252D01*
X65353294Y-35564022D01*
X65348867Y-35541768D01*
X65332840Y-35517784D01*
X65308045Y-35444750D01*
X65323090Y-35369103D01*
X65332840Y-35352216D01*
X65348867Y-35328231D01*
X65360500Y-35269748D01*
X65360500Y-34330251D01*
X65348867Y-34271768D01*
X65332840Y-34247784D01*
X65308045Y-34174750D01*
X65323090Y-34099103D01*
X65332840Y-34082216D01*
X65342438Y-34067853D01*
X65348867Y-34058231D01*
X65360500Y-33999748D01*
X65360500Y-33375321D01*
X65380462Y-33300821D01*
X65435000Y-33246283D01*
X65509500Y-33226321D01*
X65584000Y-33246283D01*
G37*
%TD.AperFunction*%
%TA.AperFunction,Conductor*%
G36*
X85782279Y-33696484D02*
G01*
X85782375Y-33696004D01*
X85855252Y-33710500D01*
X85895500Y-33710500D01*
X85970000Y-33730462D01*
X86024538Y-33785000D01*
X86044500Y-33859500D01*
X86044500Y-34096008D01*
X86048646Y-34134559D01*
X86049500Y-34150489D01*
X86049500Y-34434679D01*
X86029538Y-34509179D01*
X86005859Y-34540038D01*
X83914508Y-36631389D01*
X83855201Y-36734111D01*
X83855202Y-36734111D01*
X83855201Y-36734113D01*
X83855201Y-36734114D01*
X83852164Y-36745448D01*
X83824500Y-36848689D01*
X83824500Y-38442034D01*
X83804538Y-38516534D01*
X83780859Y-38547393D01*
X83701472Y-38626779D01*
X83640281Y-38746872D01*
X83640281Y-38746874D01*
X83624500Y-38846512D01*
X83624500Y-39413488D01*
X83637650Y-39496519D01*
X83640281Y-39513127D01*
X83701472Y-39633220D01*
X83780859Y-39712607D01*
X83819423Y-39779402D01*
X83824500Y-39817966D01*
X83824500Y-41809082D01*
X83804538Y-41883582D01*
X83750000Y-41938120D01*
X83675500Y-41958082D01*
X83601000Y-41938120D01*
X83512487Y-41887016D01*
X83372475Y-41849500D01*
X83227525Y-41849500D01*
X83087510Y-41887017D01*
X83033866Y-41917989D01*
X83001180Y-41926747D01*
X82969139Y-41937630D01*
X82964215Y-41936651D01*
X82959366Y-41937951D01*
X82926680Y-41929192D01*
X82893490Y-41922597D01*
X82889714Y-41919287D01*
X82884866Y-41917988D01*
X82835493Y-41871753D01*
X82834197Y-41869814D01*
X82832851Y-41867800D01*
X82808047Y-41794772D01*
X82823080Y-41719123D01*
X82832840Y-41702216D01*
X82842438Y-41687853D01*
X82848867Y-41678231D01*
X82860500Y-41619748D01*
X82860500Y-40680252D01*
X82853294Y-40644022D01*
X82848867Y-40621768D01*
X82832840Y-40597784D01*
X82808045Y-40524750D01*
X82823090Y-40449103D01*
X82832840Y-40432216D01*
X82848867Y-40408231D01*
X82860500Y-40349748D01*
X82860500Y-39410251D01*
X82848867Y-39351768D01*
X82832840Y-39327784D01*
X82808045Y-39254750D01*
X82823090Y-39179103D01*
X82832840Y-39162216D01*
X82842438Y-39147853D01*
X82848867Y-39138231D01*
X82860500Y-39079748D01*
X82860500Y-38140252D01*
X82853294Y-38104022D01*
X82848867Y-38081768D01*
X82832840Y-38057784D01*
X82808045Y-37984750D01*
X82823090Y-37909103D01*
X82832840Y-37892216D01*
X82848867Y-37868231D01*
X82860500Y-37809748D01*
X82860500Y-36870251D01*
X82848867Y-36811768D01*
X82832840Y-36787784D01*
X82808045Y-36714750D01*
X82823090Y-36639103D01*
X82832840Y-36622216D01*
X82842438Y-36607853D01*
X82848867Y-36598231D01*
X82860500Y-36539748D01*
X82860500Y-35600252D01*
X82853294Y-35564022D01*
X82848867Y-35541768D01*
X82832840Y-35517784D01*
X82808045Y-35444750D01*
X82823090Y-35369103D01*
X82832840Y-35352216D01*
X82848867Y-35328231D01*
X82860500Y-35269748D01*
X82860500Y-35032085D01*
X82880462Y-34957585D01*
X82935000Y-34903047D01*
X83009500Y-34883085D01*
X83048062Y-34888161D01*
X83094110Y-34900500D01*
X83225894Y-34900500D01*
X83353188Y-34866392D01*
X83467316Y-34800500D01*
X83473676Y-34794139D01*
X83540469Y-34755577D01*
X83579033Y-34750500D01*
X84106144Y-34750500D01*
X84195288Y-34726614D01*
X84218333Y-34713309D01*
X84275212Y-34680470D01*
X85207129Y-33748551D01*
X85273922Y-33709989D01*
X85341553Y-33707775D01*
X85355252Y-33710500D01*
X85355255Y-33710500D01*
X85644748Y-33710500D01*
X85717625Y-33696004D01*
X85718065Y-33698219D01*
X85730559Y-33693045D01*
X85750000Y-33695605D01*
X85769441Y-33693045D01*
X85782279Y-33696484D01*
G37*
%TD.AperFunction*%
%TA.AperFunction,Conductor*%
G36*
X85100000Y-32325462D02*
G01*
X85154538Y-32380000D01*
X85174500Y-32454500D01*
X85174500Y-32728100D01*
X85154538Y-32802600D01*
X85130859Y-32833459D01*
X83958459Y-34005859D01*
X83941471Y-34015666D01*
X83927600Y-34029538D01*
X83908651Y-34034615D01*
X83891664Y-34044423D01*
X83853100Y-34049500D01*
X83736487Y-34049500D01*
X83661987Y-34029538D01*
X83607449Y-33975000D01*
X83587487Y-33900500D01*
X83607449Y-33826001D01*
X83607449Y-33826000D01*
X83607450Y-33825998D01*
X83626392Y-33793189D01*
X83626391Y-33793189D01*
X83626394Y-33793186D01*
X83660502Y-33665892D01*
X83660502Y-33534108D01*
X83626394Y-33406814D01*
X83565199Y-33300821D01*
X83560504Y-33292689D01*
X83560499Y-33292683D01*
X83532952Y-33265135D01*
X83494388Y-33198340D01*
X83494390Y-33121212D01*
X83532951Y-33054421D01*
X84238232Y-32349141D01*
X84305027Y-32310577D01*
X84343591Y-32305500D01*
X85025500Y-32305500D01*
X85100000Y-32325462D01*
G37*
%TD.AperFunction*%
%TD*%
M02*
