%TF.GenerationSoftware,KiCad,Pcbnew,9.0.1*%
%TF.CreationDate,2025-05-07T21:08:06+02:00*%
%TF.ProjectId,hoofd nieuw V3,686f6f66-6420-46e6-9965-75772056332e,rev?*%
%TF.SameCoordinates,Original*%
%TF.FileFunction,Legend,Top*%
%TF.FilePolarity,Positive*%
%FSLAX46Y46*%
G04 Gerber Fmt 4.6, Leading zero omitted, Abs format (unit mm)*
G04 Created by KiCad (PCBNEW 9.0.1) date 2025-05-07 21:08:06*
%MOMM*%
%LPD*%
G01*
G04 APERTURE LIST*
%ADD10C,0.375000*%
%ADD11C,0.150000*%
%ADD12C,0.254000*%
%ADD13C,0.100000*%
%ADD14C,0.120000*%
G04 APERTURE END LIST*
D10*
X122389567Y-52283525D02*
X122103852Y-52140668D01*
X122103852Y-52140668D02*
X121960995Y-51997810D01*
X121960995Y-51997810D02*
X121818138Y-51712096D01*
X121818138Y-51712096D02*
X121818138Y-50854953D01*
X121818138Y-50854953D02*
X121960995Y-50569239D01*
X121960995Y-50569239D02*
X122103852Y-50426382D01*
X122103852Y-50426382D02*
X122389567Y-50283525D01*
X122389567Y-50283525D02*
X122818138Y-50283525D01*
X122818138Y-50283525D02*
X123103852Y-50426382D01*
X123103852Y-50426382D02*
X123246710Y-50569239D01*
X123246710Y-50569239D02*
X123389567Y-50854953D01*
X123389567Y-50854953D02*
X123389567Y-51712096D01*
X123389567Y-51712096D02*
X123246710Y-51997810D01*
X123246710Y-51997810D02*
X123103852Y-52140668D01*
X123103852Y-52140668D02*
X122818138Y-52283525D01*
X122818138Y-52283525D02*
X122389567Y-52283525D01*
X124675281Y-50283525D02*
X124675281Y-52283525D01*
X124675281Y-50569239D02*
X124818138Y-50426382D01*
X124818138Y-50426382D02*
X125103853Y-50283525D01*
X125103853Y-50283525D02*
X125532424Y-50283525D01*
X125532424Y-50283525D02*
X125818138Y-50426382D01*
X125818138Y-50426382D02*
X125960996Y-50712096D01*
X125960996Y-50712096D02*
X125960996Y-52283525D01*
X126960996Y-50283525D02*
X128103853Y-50283525D01*
X127389567Y-49283525D02*
X127389567Y-51854953D01*
X127389567Y-51854953D02*
X127532424Y-52140668D01*
X127532424Y-52140668D02*
X127818139Y-52283525D01*
X127818139Y-52283525D02*
X128103853Y-52283525D01*
X128818139Y-50283525D02*
X129389568Y-52283525D01*
X129389568Y-52283525D02*
X129960996Y-50854953D01*
X129960996Y-50854953D02*
X130532425Y-52283525D01*
X130532425Y-52283525D02*
X131103853Y-50283525D01*
X132675282Y-52283525D02*
X132389567Y-52140668D01*
X132389567Y-52140668D02*
X132246710Y-51997810D01*
X132246710Y-51997810D02*
X132103853Y-51712096D01*
X132103853Y-51712096D02*
X132103853Y-50854953D01*
X132103853Y-50854953D02*
X132246710Y-50569239D01*
X132246710Y-50569239D02*
X132389567Y-50426382D01*
X132389567Y-50426382D02*
X132675282Y-50283525D01*
X132675282Y-50283525D02*
X133103853Y-50283525D01*
X133103853Y-50283525D02*
X133389567Y-50426382D01*
X133389567Y-50426382D02*
X133532425Y-50569239D01*
X133532425Y-50569239D02*
X133675282Y-50854953D01*
X133675282Y-50854953D02*
X133675282Y-51712096D01*
X133675282Y-51712096D02*
X133532425Y-51997810D01*
X133532425Y-51997810D02*
X133389567Y-52140668D01*
X133389567Y-52140668D02*
X133103853Y-52283525D01*
X133103853Y-52283525D02*
X132675282Y-52283525D01*
X134960996Y-52283525D02*
X134960996Y-50283525D01*
X134960996Y-50854953D02*
X135103853Y-50569239D01*
X135103853Y-50569239D02*
X135246711Y-50426382D01*
X135246711Y-50426382D02*
X135532425Y-50283525D01*
X135532425Y-50283525D02*
X135818139Y-50283525D01*
X136818139Y-50283525D02*
X136818139Y-53283525D01*
X136818139Y-50426382D02*
X137103854Y-50283525D01*
X137103854Y-50283525D02*
X137675282Y-50283525D01*
X137675282Y-50283525D02*
X137960996Y-50426382D01*
X137960996Y-50426382D02*
X138103854Y-50569239D01*
X138103854Y-50569239D02*
X138246711Y-50854953D01*
X138246711Y-50854953D02*
X138246711Y-51712096D01*
X138246711Y-51712096D02*
X138103854Y-51997810D01*
X138103854Y-51997810D02*
X137960996Y-52140668D01*
X137960996Y-52140668D02*
X137675282Y-52283525D01*
X137675282Y-52283525D02*
X137103854Y-52283525D01*
X137103854Y-52283525D02*
X136818139Y-52140668D01*
X140675282Y-52140668D02*
X140389568Y-52283525D01*
X140389568Y-52283525D02*
X139818140Y-52283525D01*
X139818140Y-52283525D02*
X139532425Y-52140668D01*
X139532425Y-52140668D02*
X139389568Y-51854953D01*
X139389568Y-51854953D02*
X139389568Y-50712096D01*
X139389568Y-50712096D02*
X139532425Y-50426382D01*
X139532425Y-50426382D02*
X139818140Y-50283525D01*
X139818140Y-50283525D02*
X140389568Y-50283525D01*
X140389568Y-50283525D02*
X140675282Y-50426382D01*
X140675282Y-50426382D02*
X140818140Y-50712096D01*
X140818140Y-50712096D02*
X140818140Y-50997810D01*
X140818140Y-50997810D02*
X139389568Y-51283525D01*
X142103854Y-50283525D02*
X142103854Y-52283525D01*
X142103854Y-50569239D02*
X142246711Y-50426382D01*
X142246711Y-50426382D02*
X142532426Y-50283525D01*
X142532426Y-50283525D02*
X142960997Y-50283525D01*
X142960997Y-50283525D02*
X143246711Y-50426382D01*
X143246711Y-50426382D02*
X143389569Y-50712096D01*
X143389569Y-50712096D02*
X143389569Y-52283525D01*
X148389569Y-52283525D02*
X148389569Y-49283525D01*
X148389569Y-52140668D02*
X148103854Y-52283525D01*
X148103854Y-52283525D02*
X147532426Y-52283525D01*
X147532426Y-52283525D02*
X147246711Y-52140668D01*
X147246711Y-52140668D02*
X147103854Y-51997810D01*
X147103854Y-51997810D02*
X146960997Y-51712096D01*
X146960997Y-51712096D02*
X146960997Y-50854953D01*
X146960997Y-50854953D02*
X147103854Y-50569239D01*
X147103854Y-50569239D02*
X147246711Y-50426382D01*
X147246711Y-50426382D02*
X147532426Y-50283525D01*
X147532426Y-50283525D02*
X148103854Y-50283525D01*
X148103854Y-50283525D02*
X148389569Y-50426382D01*
X150246712Y-52283525D02*
X149960997Y-52140668D01*
X149960997Y-52140668D02*
X149818140Y-51997810D01*
X149818140Y-51997810D02*
X149675283Y-51712096D01*
X149675283Y-51712096D02*
X149675283Y-50854953D01*
X149675283Y-50854953D02*
X149818140Y-50569239D01*
X149818140Y-50569239D02*
X149960997Y-50426382D01*
X149960997Y-50426382D02*
X150246712Y-50283525D01*
X150246712Y-50283525D02*
X150675283Y-50283525D01*
X150675283Y-50283525D02*
X150960997Y-50426382D01*
X150960997Y-50426382D02*
X151103855Y-50569239D01*
X151103855Y-50569239D02*
X151246712Y-50854953D01*
X151246712Y-50854953D02*
X151246712Y-51712096D01*
X151246712Y-51712096D02*
X151103855Y-51997810D01*
X151103855Y-51997810D02*
X150960997Y-52140668D01*
X150960997Y-52140668D02*
X150675283Y-52283525D01*
X150675283Y-52283525D02*
X150246712Y-52283525D01*
X152960998Y-52283525D02*
X152675283Y-52140668D01*
X152675283Y-52140668D02*
X152532426Y-51997810D01*
X152532426Y-51997810D02*
X152389569Y-51712096D01*
X152389569Y-51712096D02*
X152389569Y-50854953D01*
X152389569Y-50854953D02*
X152532426Y-50569239D01*
X152532426Y-50569239D02*
X152675283Y-50426382D01*
X152675283Y-50426382D02*
X152960998Y-50283525D01*
X152960998Y-50283525D02*
X153389569Y-50283525D01*
X153389569Y-50283525D02*
X153675283Y-50426382D01*
X153675283Y-50426382D02*
X153818141Y-50569239D01*
X153818141Y-50569239D02*
X153960998Y-50854953D01*
X153960998Y-50854953D02*
X153960998Y-51712096D01*
X153960998Y-51712096D02*
X153818141Y-51997810D01*
X153818141Y-51997810D02*
X153675283Y-52140668D01*
X153675283Y-52140668D02*
X153389569Y-52283525D01*
X153389569Y-52283525D02*
X152960998Y-52283525D01*
X155246712Y-52283525D02*
X155246712Y-50283525D01*
X155246712Y-50854953D02*
X155389569Y-50569239D01*
X155389569Y-50569239D02*
X155532427Y-50426382D01*
X155532427Y-50426382D02*
X155818141Y-50283525D01*
X155818141Y-50283525D02*
X156103855Y-50283525D01*
X121818138Y-56970500D02*
X122246710Y-57113357D01*
X122246710Y-57113357D02*
X122960995Y-57113357D01*
X122960995Y-57113357D02*
X123246710Y-56970500D01*
X123246710Y-56970500D02*
X123389567Y-56827642D01*
X123389567Y-56827642D02*
X123532424Y-56541928D01*
X123532424Y-56541928D02*
X123532424Y-56256214D01*
X123532424Y-56256214D02*
X123389567Y-55970500D01*
X123389567Y-55970500D02*
X123246710Y-55827642D01*
X123246710Y-55827642D02*
X122960995Y-55684785D01*
X122960995Y-55684785D02*
X122389567Y-55541928D01*
X122389567Y-55541928D02*
X122103852Y-55399071D01*
X122103852Y-55399071D02*
X121960995Y-55256214D01*
X121960995Y-55256214D02*
X121818138Y-54970500D01*
X121818138Y-54970500D02*
X121818138Y-54684785D01*
X121818138Y-54684785D02*
X121960995Y-54399071D01*
X121960995Y-54399071D02*
X122103852Y-54256214D01*
X122103852Y-54256214D02*
X122389567Y-54113357D01*
X122389567Y-54113357D02*
X123103852Y-54113357D01*
X123103852Y-54113357D02*
X123532424Y-54256214D01*
X124389567Y-55113357D02*
X125532424Y-55113357D01*
X124818138Y-54113357D02*
X124818138Y-56684785D01*
X124818138Y-56684785D02*
X124960995Y-56970500D01*
X124960995Y-56970500D02*
X125246710Y-57113357D01*
X125246710Y-57113357D02*
X125532424Y-57113357D01*
X127818139Y-57113357D02*
X127818139Y-55541928D01*
X127818139Y-55541928D02*
X127675281Y-55256214D01*
X127675281Y-55256214D02*
X127389567Y-55113357D01*
X127389567Y-55113357D02*
X126818139Y-55113357D01*
X126818139Y-55113357D02*
X126532424Y-55256214D01*
X127818139Y-56970500D02*
X127532424Y-57113357D01*
X127532424Y-57113357D02*
X126818139Y-57113357D01*
X126818139Y-57113357D02*
X126532424Y-56970500D01*
X126532424Y-56970500D02*
X126389567Y-56684785D01*
X126389567Y-56684785D02*
X126389567Y-56399071D01*
X126389567Y-56399071D02*
X126532424Y-56113357D01*
X126532424Y-56113357D02*
X126818139Y-55970500D01*
X126818139Y-55970500D02*
X127532424Y-55970500D01*
X127532424Y-55970500D02*
X127818139Y-55827642D01*
X129246710Y-55113357D02*
X129246710Y-57113357D01*
X129246710Y-55399071D02*
X129389567Y-55256214D01*
X129389567Y-55256214D02*
X129675282Y-55113357D01*
X129675282Y-55113357D02*
X130103853Y-55113357D01*
X130103853Y-55113357D02*
X130389567Y-55256214D01*
X130389567Y-55256214D02*
X130532425Y-55541928D01*
X130532425Y-55541928D02*
X130532425Y-57113357D01*
X134246710Y-57113357D02*
X134246710Y-54113357D01*
X134246710Y-54113357D02*
X134960996Y-54113357D01*
X134960996Y-54113357D02*
X135389567Y-54256214D01*
X135389567Y-54256214D02*
X135675282Y-54541928D01*
X135675282Y-54541928D02*
X135818139Y-54827642D01*
X135818139Y-54827642D02*
X135960996Y-55399071D01*
X135960996Y-55399071D02*
X135960996Y-55827642D01*
X135960996Y-55827642D02*
X135818139Y-56399071D01*
X135818139Y-56399071D02*
X135675282Y-56684785D01*
X135675282Y-56684785D02*
X135389567Y-56970500D01*
X135389567Y-56970500D02*
X134960996Y-57113357D01*
X134960996Y-57113357D02*
X134246710Y-57113357D01*
X138389567Y-56970500D02*
X138103853Y-57113357D01*
X138103853Y-57113357D02*
X137532425Y-57113357D01*
X137532425Y-57113357D02*
X137246710Y-56970500D01*
X137246710Y-56970500D02*
X137103853Y-56684785D01*
X137103853Y-56684785D02*
X137103853Y-55541928D01*
X137103853Y-55541928D02*
X137246710Y-55256214D01*
X137246710Y-55256214D02*
X137532425Y-55113357D01*
X137532425Y-55113357D02*
X138103853Y-55113357D01*
X138103853Y-55113357D02*
X138389567Y-55256214D01*
X138389567Y-55256214D02*
X138532425Y-55541928D01*
X138532425Y-55541928D02*
X138532425Y-55827642D01*
X138532425Y-55827642D02*
X137103853Y-56113357D01*
X139818139Y-57113357D02*
X139818139Y-54113357D01*
X139818139Y-55256214D02*
X140103854Y-55113357D01*
X140103854Y-55113357D02*
X140675282Y-55113357D01*
X140675282Y-55113357D02*
X140960996Y-55256214D01*
X140960996Y-55256214D02*
X141103854Y-55399071D01*
X141103854Y-55399071D02*
X141246711Y-55684785D01*
X141246711Y-55684785D02*
X141246711Y-56541928D01*
X141246711Y-56541928D02*
X141103854Y-56827642D01*
X141103854Y-56827642D02*
X140960996Y-56970500D01*
X140960996Y-56970500D02*
X140675282Y-57113357D01*
X140675282Y-57113357D02*
X140103854Y-57113357D01*
X140103854Y-57113357D02*
X139818139Y-56970500D01*
X143818140Y-57113357D02*
X143818140Y-55541928D01*
X143818140Y-55541928D02*
X143675282Y-55256214D01*
X143675282Y-55256214D02*
X143389568Y-55113357D01*
X143389568Y-55113357D02*
X142818140Y-55113357D01*
X142818140Y-55113357D02*
X142532425Y-55256214D01*
X143818140Y-56970500D02*
X143532425Y-57113357D01*
X143532425Y-57113357D02*
X142818140Y-57113357D01*
X142818140Y-57113357D02*
X142532425Y-56970500D01*
X142532425Y-56970500D02*
X142389568Y-56684785D01*
X142389568Y-56684785D02*
X142389568Y-56399071D01*
X142389568Y-56399071D02*
X142532425Y-56113357D01*
X142532425Y-56113357D02*
X142818140Y-55970500D01*
X142818140Y-55970500D02*
X143532425Y-55970500D01*
X143532425Y-55970500D02*
X143818140Y-55827642D01*
X145246711Y-57113357D02*
X145246711Y-54113357D01*
X145532426Y-55970500D02*
X146389568Y-57113357D01*
X146389568Y-55113357D02*
X145246711Y-56256214D01*
X147675282Y-57113357D02*
X147675282Y-54113357D01*
X147960997Y-55970500D02*
X148818139Y-57113357D01*
X148818139Y-55113357D02*
X147675282Y-56256214D01*
X151246710Y-56970500D02*
X150960996Y-57113357D01*
X150960996Y-57113357D02*
X150389568Y-57113357D01*
X150389568Y-57113357D02*
X150103853Y-56970500D01*
X150103853Y-56970500D02*
X149960996Y-56684785D01*
X149960996Y-56684785D02*
X149960996Y-55541928D01*
X149960996Y-55541928D02*
X150103853Y-55256214D01*
X150103853Y-55256214D02*
X150389568Y-55113357D01*
X150389568Y-55113357D02*
X150960996Y-55113357D01*
X150960996Y-55113357D02*
X151246710Y-55256214D01*
X151246710Y-55256214D02*
X151389568Y-55541928D01*
X151389568Y-55541928D02*
X151389568Y-55827642D01*
X151389568Y-55827642D02*
X149960996Y-56113357D01*
X152675282Y-57113357D02*
X152675282Y-55113357D01*
X152675282Y-55684785D02*
X152818139Y-55399071D01*
X152818139Y-55399071D02*
X152960997Y-55256214D01*
X152960997Y-55256214D02*
X153246711Y-55113357D01*
X153246711Y-55113357D02*
X153532425Y-55113357D01*
D11*
X177738095Y-62784819D02*
X177738095Y-63594342D01*
X177738095Y-63594342D02*
X177785714Y-63689580D01*
X177785714Y-63689580D02*
X177833333Y-63737200D01*
X177833333Y-63737200D02*
X177928571Y-63784819D01*
X177928571Y-63784819D02*
X178119047Y-63784819D01*
X178119047Y-63784819D02*
X178214285Y-63737200D01*
X178214285Y-63737200D02*
X178261904Y-63689580D01*
X178261904Y-63689580D02*
X178309523Y-63594342D01*
X178309523Y-63594342D02*
X178309523Y-62784819D01*
X178690476Y-62784819D02*
X179309523Y-62784819D01*
X179309523Y-62784819D02*
X178976190Y-63165771D01*
X178976190Y-63165771D02*
X179119047Y-63165771D01*
X179119047Y-63165771D02*
X179214285Y-63213390D01*
X179214285Y-63213390D02*
X179261904Y-63261009D01*
X179261904Y-63261009D02*
X179309523Y-63356247D01*
X179309523Y-63356247D02*
X179309523Y-63594342D01*
X179309523Y-63594342D02*
X179261904Y-63689580D01*
X179261904Y-63689580D02*
X179214285Y-63737200D01*
X179214285Y-63737200D02*
X179119047Y-63784819D01*
X179119047Y-63784819D02*
X178833333Y-63784819D01*
X178833333Y-63784819D02*
X178738095Y-63737200D01*
X178738095Y-63737200D02*
X178690476Y-63689580D01*
X83838095Y-62784819D02*
X83838095Y-63594342D01*
X83838095Y-63594342D02*
X83885714Y-63689580D01*
X83885714Y-63689580D02*
X83933333Y-63737200D01*
X83933333Y-63737200D02*
X84028571Y-63784819D01*
X84028571Y-63784819D02*
X84219047Y-63784819D01*
X84219047Y-63784819D02*
X84314285Y-63737200D01*
X84314285Y-63737200D02*
X84361904Y-63689580D01*
X84361904Y-63689580D02*
X84409523Y-63594342D01*
X84409523Y-63594342D02*
X84409523Y-62784819D01*
X84838095Y-62880057D02*
X84885714Y-62832438D01*
X84885714Y-62832438D02*
X84980952Y-62784819D01*
X84980952Y-62784819D02*
X85219047Y-62784819D01*
X85219047Y-62784819D02*
X85314285Y-62832438D01*
X85314285Y-62832438D02*
X85361904Y-62880057D01*
X85361904Y-62880057D02*
X85409523Y-62975295D01*
X85409523Y-62975295D02*
X85409523Y-63070533D01*
X85409523Y-63070533D02*
X85361904Y-63213390D01*
X85361904Y-63213390D02*
X84790476Y-63784819D01*
X84790476Y-63784819D02*
X85409523Y-63784819D01*
X180866666Y-62114819D02*
X180866666Y-62829104D01*
X180866666Y-62829104D02*
X180819047Y-62971961D01*
X180819047Y-62971961D02*
X180723809Y-63067200D01*
X180723809Y-63067200D02*
X180580952Y-63114819D01*
X180580952Y-63114819D02*
X180485714Y-63114819D01*
X181485714Y-62543390D02*
X181390476Y-62495771D01*
X181390476Y-62495771D02*
X181342857Y-62448152D01*
X181342857Y-62448152D02*
X181295238Y-62352914D01*
X181295238Y-62352914D02*
X181295238Y-62305295D01*
X181295238Y-62305295D02*
X181342857Y-62210057D01*
X181342857Y-62210057D02*
X181390476Y-62162438D01*
X181390476Y-62162438D02*
X181485714Y-62114819D01*
X181485714Y-62114819D02*
X181676190Y-62114819D01*
X181676190Y-62114819D02*
X181771428Y-62162438D01*
X181771428Y-62162438D02*
X181819047Y-62210057D01*
X181819047Y-62210057D02*
X181866666Y-62305295D01*
X181866666Y-62305295D02*
X181866666Y-62352914D01*
X181866666Y-62352914D02*
X181819047Y-62448152D01*
X181819047Y-62448152D02*
X181771428Y-62495771D01*
X181771428Y-62495771D02*
X181676190Y-62543390D01*
X181676190Y-62543390D02*
X181485714Y-62543390D01*
X181485714Y-62543390D02*
X181390476Y-62591009D01*
X181390476Y-62591009D02*
X181342857Y-62638628D01*
X181342857Y-62638628D02*
X181295238Y-62733866D01*
X181295238Y-62733866D02*
X181295238Y-62924342D01*
X181295238Y-62924342D02*
X181342857Y-63019580D01*
X181342857Y-63019580D02*
X181390476Y-63067200D01*
X181390476Y-63067200D02*
X181485714Y-63114819D01*
X181485714Y-63114819D02*
X181676190Y-63114819D01*
X181676190Y-63114819D02*
X181771428Y-63067200D01*
X181771428Y-63067200D02*
X181819047Y-63019580D01*
X181819047Y-63019580D02*
X181866666Y-62924342D01*
X181866666Y-62924342D02*
X181866666Y-62733866D01*
X181866666Y-62733866D02*
X181819047Y-62638628D01*
X181819047Y-62638628D02*
X181771428Y-62591009D01*
X181771428Y-62591009D02*
X181676190Y-62543390D01*
X87366666Y-62214819D02*
X87366666Y-62929104D01*
X87366666Y-62929104D02*
X87319047Y-63071961D01*
X87319047Y-63071961D02*
X87223809Y-63167200D01*
X87223809Y-63167200D02*
X87080952Y-63214819D01*
X87080952Y-63214819D02*
X86985714Y-63214819D01*
X87747619Y-62214819D02*
X88414285Y-62214819D01*
X88414285Y-62214819D02*
X87985714Y-63214819D01*
X95204819Y-61738094D02*
X94204819Y-61738094D01*
X94204819Y-61738094D02*
X94204819Y-61499999D01*
X94204819Y-61499999D02*
X94252438Y-61357142D01*
X94252438Y-61357142D02*
X94347676Y-61261904D01*
X94347676Y-61261904D02*
X94442914Y-61214285D01*
X94442914Y-61214285D02*
X94633390Y-61166666D01*
X94633390Y-61166666D02*
X94776247Y-61166666D01*
X94776247Y-61166666D02*
X94966723Y-61214285D01*
X94966723Y-61214285D02*
X95061961Y-61261904D01*
X95061961Y-61261904D02*
X95157200Y-61357142D01*
X95157200Y-61357142D02*
X95204819Y-61499999D01*
X95204819Y-61499999D02*
X95204819Y-61738094D01*
X94204819Y-60261904D02*
X94204819Y-60738094D01*
X94204819Y-60738094D02*
X94681009Y-60785713D01*
X94681009Y-60785713D02*
X94633390Y-60738094D01*
X94633390Y-60738094D02*
X94585771Y-60642856D01*
X94585771Y-60642856D02*
X94585771Y-60404761D01*
X94585771Y-60404761D02*
X94633390Y-60309523D01*
X94633390Y-60309523D02*
X94681009Y-60261904D01*
X94681009Y-60261904D02*
X94776247Y-60214285D01*
X94776247Y-60214285D02*
X95014342Y-60214285D01*
X95014342Y-60214285D02*
X95109580Y-60261904D01*
X95109580Y-60261904D02*
X95157200Y-60309523D01*
X95157200Y-60309523D02*
X95204819Y-60404761D01*
X95204819Y-60404761D02*
X95204819Y-60642856D01*
X95204819Y-60642856D02*
X95157200Y-60738094D01*
X95157200Y-60738094D02*
X95109580Y-60785713D01*
X97012295Y-64771428D02*
X97012295Y-65228571D01*
X97012295Y-64999999D02*
X96212295Y-64999999D01*
X96212295Y-64999999D02*
X96326580Y-65076190D01*
X96326580Y-65076190D02*
X96402771Y-65152380D01*
X96402771Y-65152380D02*
X96440866Y-65228571D01*
D12*
X115092618Y-56069318D02*
X115092618Y-54799318D01*
X115092618Y-54799318D02*
X115394999Y-54799318D01*
X115394999Y-54799318D02*
X115576428Y-54859794D01*
X115576428Y-54859794D02*
X115697380Y-54980746D01*
X115697380Y-54980746D02*
X115757857Y-55101699D01*
X115757857Y-55101699D02*
X115818333Y-55343603D01*
X115818333Y-55343603D02*
X115818333Y-55525032D01*
X115818333Y-55525032D02*
X115757857Y-55766937D01*
X115757857Y-55766937D02*
X115697380Y-55887889D01*
X115697380Y-55887889D02*
X115576428Y-56008842D01*
X115576428Y-56008842D02*
X115394999Y-56069318D01*
X115394999Y-56069318D02*
X115092618Y-56069318D01*
X116906904Y-54799318D02*
X116664999Y-54799318D01*
X116664999Y-54799318D02*
X116544047Y-54859794D01*
X116544047Y-54859794D02*
X116483571Y-54920270D01*
X116483571Y-54920270D02*
X116362618Y-55101699D01*
X116362618Y-55101699D02*
X116302142Y-55343603D01*
X116302142Y-55343603D02*
X116302142Y-55827413D01*
X116302142Y-55827413D02*
X116362618Y-55948365D01*
X116362618Y-55948365D02*
X116423095Y-56008842D01*
X116423095Y-56008842D02*
X116544047Y-56069318D01*
X116544047Y-56069318D02*
X116785952Y-56069318D01*
X116785952Y-56069318D02*
X116906904Y-56008842D01*
X116906904Y-56008842D02*
X116967380Y-55948365D01*
X116967380Y-55948365D02*
X117027857Y-55827413D01*
X117027857Y-55827413D02*
X117027857Y-55525032D01*
X117027857Y-55525032D02*
X116967380Y-55404080D01*
X116967380Y-55404080D02*
X116906904Y-55343603D01*
X116906904Y-55343603D02*
X116785952Y-55283127D01*
X116785952Y-55283127D02*
X116544047Y-55283127D01*
X116544047Y-55283127D02*
X116423095Y-55343603D01*
X116423095Y-55343603D02*
X116362618Y-55404080D01*
X116362618Y-55404080D02*
X116302142Y-55525032D01*
D11*
X137533333Y-37059580D02*
X137485714Y-37107200D01*
X137485714Y-37107200D02*
X137342857Y-37154819D01*
X137342857Y-37154819D02*
X137247619Y-37154819D01*
X137247619Y-37154819D02*
X137104762Y-37107200D01*
X137104762Y-37107200D02*
X137009524Y-37011961D01*
X137009524Y-37011961D02*
X136961905Y-36916723D01*
X136961905Y-36916723D02*
X136914286Y-36726247D01*
X136914286Y-36726247D02*
X136914286Y-36583390D01*
X136914286Y-36583390D02*
X136961905Y-36392914D01*
X136961905Y-36392914D02*
X137009524Y-36297676D01*
X137009524Y-36297676D02*
X137104762Y-36202438D01*
X137104762Y-36202438D02*
X137247619Y-36154819D01*
X137247619Y-36154819D02*
X137342857Y-36154819D01*
X137342857Y-36154819D02*
X137485714Y-36202438D01*
X137485714Y-36202438D02*
X137533333Y-36250057D01*
X137914286Y-36250057D02*
X137961905Y-36202438D01*
X137961905Y-36202438D02*
X138057143Y-36154819D01*
X138057143Y-36154819D02*
X138295238Y-36154819D01*
X138295238Y-36154819D02*
X138390476Y-36202438D01*
X138390476Y-36202438D02*
X138438095Y-36250057D01*
X138438095Y-36250057D02*
X138485714Y-36345295D01*
X138485714Y-36345295D02*
X138485714Y-36440533D01*
X138485714Y-36440533D02*
X138438095Y-36583390D01*
X138438095Y-36583390D02*
X137866667Y-37154819D01*
X137866667Y-37154819D02*
X138485714Y-37154819D01*
X127233333Y-37559580D02*
X127185714Y-37607200D01*
X127185714Y-37607200D02*
X127042857Y-37654819D01*
X127042857Y-37654819D02*
X126947619Y-37654819D01*
X126947619Y-37654819D02*
X126804762Y-37607200D01*
X126804762Y-37607200D02*
X126709524Y-37511961D01*
X126709524Y-37511961D02*
X126661905Y-37416723D01*
X126661905Y-37416723D02*
X126614286Y-37226247D01*
X126614286Y-37226247D02*
X126614286Y-37083390D01*
X126614286Y-37083390D02*
X126661905Y-36892914D01*
X126661905Y-36892914D02*
X126709524Y-36797676D01*
X126709524Y-36797676D02*
X126804762Y-36702438D01*
X126804762Y-36702438D02*
X126947619Y-36654819D01*
X126947619Y-36654819D02*
X127042857Y-36654819D01*
X127042857Y-36654819D02*
X127185714Y-36702438D01*
X127185714Y-36702438D02*
X127233333Y-36750057D01*
X128185714Y-37654819D02*
X127614286Y-37654819D01*
X127900000Y-37654819D02*
X127900000Y-36654819D01*
X127900000Y-36654819D02*
X127804762Y-36797676D01*
X127804762Y-36797676D02*
X127709524Y-36892914D01*
X127709524Y-36892914D02*
X127614286Y-36940533D01*
X133934819Y-33483333D02*
X134649104Y-33483333D01*
X134649104Y-33483333D02*
X134791961Y-33530952D01*
X134791961Y-33530952D02*
X134887200Y-33626190D01*
X134887200Y-33626190D02*
X134934819Y-33769047D01*
X134934819Y-33769047D02*
X134934819Y-33864285D01*
X134268152Y-32578571D02*
X134934819Y-32578571D01*
X133887200Y-32816666D02*
X134601485Y-33054761D01*
X134601485Y-33054761D02*
X134601485Y-32435714D01*
X143535714Y-78754819D02*
X143535714Y-77754819D01*
X143535714Y-77754819D02*
X143773809Y-77754819D01*
X143773809Y-77754819D02*
X143916666Y-77802438D01*
X143916666Y-77802438D02*
X144011904Y-77897676D01*
X144011904Y-77897676D02*
X144059523Y-77992914D01*
X144059523Y-77992914D02*
X144107142Y-78183390D01*
X144107142Y-78183390D02*
X144107142Y-78326247D01*
X144107142Y-78326247D02*
X144059523Y-78516723D01*
X144059523Y-78516723D02*
X144011904Y-78611961D01*
X144011904Y-78611961D02*
X143916666Y-78707200D01*
X143916666Y-78707200D02*
X143773809Y-78754819D01*
X143773809Y-78754819D02*
X143535714Y-78754819D01*
X145059523Y-78754819D02*
X144488095Y-78754819D01*
X144773809Y-78754819D02*
X144773809Y-77754819D01*
X144773809Y-77754819D02*
X144678571Y-77897676D01*
X144678571Y-77897676D02*
X144583333Y-77992914D01*
X144583333Y-77992914D02*
X144488095Y-78040533D01*
X145392857Y-77754819D02*
X146011904Y-77754819D01*
X146011904Y-77754819D02*
X145678571Y-78135771D01*
X145678571Y-78135771D02*
X145821428Y-78135771D01*
X145821428Y-78135771D02*
X145916666Y-78183390D01*
X145916666Y-78183390D02*
X145964285Y-78231009D01*
X145964285Y-78231009D02*
X146011904Y-78326247D01*
X146011904Y-78326247D02*
X146011904Y-78564342D01*
X146011904Y-78564342D02*
X145964285Y-78659580D01*
X145964285Y-78659580D02*
X145916666Y-78707200D01*
X145916666Y-78707200D02*
X145821428Y-78754819D01*
X145821428Y-78754819D02*
X145535714Y-78754819D01*
X145535714Y-78754819D02*
X145440476Y-78707200D01*
X145440476Y-78707200D02*
X145392857Y-78659580D01*
X143512295Y-86271428D02*
X143512295Y-86728571D01*
X143512295Y-86499999D02*
X142712295Y-86499999D01*
X142712295Y-86499999D02*
X142826580Y-86576190D01*
X142826580Y-86576190D02*
X142902771Y-86652380D01*
X142902771Y-86652380D02*
X142940866Y-86728571D01*
X120434819Y-60783333D02*
X121149104Y-60783333D01*
X121149104Y-60783333D02*
X121291961Y-60830952D01*
X121291961Y-60830952D02*
X121387200Y-60926190D01*
X121387200Y-60926190D02*
X121434819Y-61069047D01*
X121434819Y-61069047D02*
X121434819Y-61164285D01*
X120434819Y-60402380D02*
X120434819Y-59783333D01*
X120434819Y-59783333D02*
X120815771Y-60116666D01*
X120815771Y-60116666D02*
X120815771Y-59973809D01*
X120815771Y-59973809D02*
X120863390Y-59878571D01*
X120863390Y-59878571D02*
X120911009Y-59830952D01*
X120911009Y-59830952D02*
X121006247Y-59783333D01*
X121006247Y-59783333D02*
X121244342Y-59783333D01*
X121244342Y-59783333D02*
X121339580Y-59830952D01*
X121339580Y-59830952D02*
X121387200Y-59878571D01*
X121387200Y-59878571D02*
X121434819Y-59973809D01*
X121434819Y-59973809D02*
X121434819Y-60259523D01*
X121434819Y-60259523D02*
X121387200Y-60354761D01*
X121387200Y-60354761D02*
X121339580Y-60402380D01*
X99683333Y-49289580D02*
X99635714Y-49337200D01*
X99635714Y-49337200D02*
X99492857Y-49384819D01*
X99492857Y-49384819D02*
X99397619Y-49384819D01*
X99397619Y-49384819D02*
X99254762Y-49337200D01*
X99254762Y-49337200D02*
X99159524Y-49241961D01*
X99159524Y-49241961D02*
X99111905Y-49146723D01*
X99111905Y-49146723D02*
X99064286Y-48956247D01*
X99064286Y-48956247D02*
X99064286Y-48813390D01*
X99064286Y-48813390D02*
X99111905Y-48622914D01*
X99111905Y-48622914D02*
X99159524Y-48527676D01*
X99159524Y-48527676D02*
X99254762Y-48432438D01*
X99254762Y-48432438D02*
X99397619Y-48384819D01*
X99397619Y-48384819D02*
X99492857Y-48384819D01*
X99492857Y-48384819D02*
X99635714Y-48432438D01*
X99635714Y-48432438D02*
X99683333Y-48480057D01*
X100588095Y-48384819D02*
X100111905Y-48384819D01*
X100111905Y-48384819D02*
X100064286Y-48861009D01*
X100064286Y-48861009D02*
X100111905Y-48813390D01*
X100111905Y-48813390D02*
X100207143Y-48765771D01*
X100207143Y-48765771D02*
X100445238Y-48765771D01*
X100445238Y-48765771D02*
X100540476Y-48813390D01*
X100540476Y-48813390D02*
X100588095Y-48861009D01*
X100588095Y-48861009D02*
X100635714Y-48956247D01*
X100635714Y-48956247D02*
X100635714Y-49194342D01*
X100635714Y-49194342D02*
X100588095Y-49289580D01*
X100588095Y-49289580D02*
X100540476Y-49337200D01*
X100540476Y-49337200D02*
X100445238Y-49384819D01*
X100445238Y-49384819D02*
X100207143Y-49384819D01*
X100207143Y-49384819D02*
X100111905Y-49337200D01*
X100111905Y-49337200D02*
X100064286Y-49289580D01*
X112468333Y-72869580D02*
X112420714Y-72917200D01*
X112420714Y-72917200D02*
X112277857Y-72964819D01*
X112277857Y-72964819D02*
X112182619Y-72964819D01*
X112182619Y-72964819D02*
X112039762Y-72917200D01*
X112039762Y-72917200D02*
X111944524Y-72821961D01*
X111944524Y-72821961D02*
X111896905Y-72726723D01*
X111896905Y-72726723D02*
X111849286Y-72536247D01*
X111849286Y-72536247D02*
X111849286Y-72393390D01*
X111849286Y-72393390D02*
X111896905Y-72202914D01*
X111896905Y-72202914D02*
X111944524Y-72107676D01*
X111944524Y-72107676D02*
X112039762Y-72012438D01*
X112039762Y-72012438D02*
X112182619Y-71964819D01*
X112182619Y-71964819D02*
X112277857Y-71964819D01*
X112277857Y-71964819D02*
X112420714Y-72012438D01*
X112420714Y-72012438D02*
X112468333Y-72060057D01*
X113325476Y-72298152D02*
X113325476Y-72964819D01*
X113087381Y-71917200D02*
X112849286Y-72631485D01*
X112849286Y-72631485D02*
X113468333Y-72631485D01*
X116511905Y-78829819D02*
X116511905Y-77829819D01*
X116511905Y-77829819D02*
X116750000Y-77829819D01*
X116750000Y-77829819D02*
X116892857Y-77877438D01*
X116892857Y-77877438D02*
X116988095Y-77972676D01*
X116988095Y-77972676D02*
X117035714Y-78067914D01*
X117035714Y-78067914D02*
X117083333Y-78258390D01*
X117083333Y-78258390D02*
X117083333Y-78401247D01*
X117083333Y-78401247D02*
X117035714Y-78591723D01*
X117035714Y-78591723D02*
X116988095Y-78686961D01*
X116988095Y-78686961D02*
X116892857Y-78782200D01*
X116892857Y-78782200D02*
X116750000Y-78829819D01*
X116750000Y-78829819D02*
X116511905Y-78829819D01*
X117654762Y-78258390D02*
X117559524Y-78210771D01*
X117559524Y-78210771D02*
X117511905Y-78163152D01*
X117511905Y-78163152D02*
X117464286Y-78067914D01*
X117464286Y-78067914D02*
X117464286Y-78020295D01*
X117464286Y-78020295D02*
X117511905Y-77925057D01*
X117511905Y-77925057D02*
X117559524Y-77877438D01*
X117559524Y-77877438D02*
X117654762Y-77829819D01*
X117654762Y-77829819D02*
X117845238Y-77829819D01*
X117845238Y-77829819D02*
X117940476Y-77877438D01*
X117940476Y-77877438D02*
X117988095Y-77925057D01*
X117988095Y-77925057D02*
X118035714Y-78020295D01*
X118035714Y-78020295D02*
X118035714Y-78067914D01*
X118035714Y-78067914D02*
X117988095Y-78163152D01*
X117988095Y-78163152D02*
X117940476Y-78210771D01*
X117940476Y-78210771D02*
X117845238Y-78258390D01*
X117845238Y-78258390D02*
X117654762Y-78258390D01*
X117654762Y-78258390D02*
X117559524Y-78306009D01*
X117559524Y-78306009D02*
X117511905Y-78353628D01*
X117511905Y-78353628D02*
X117464286Y-78448866D01*
X117464286Y-78448866D02*
X117464286Y-78639342D01*
X117464286Y-78639342D02*
X117511905Y-78734580D01*
X117511905Y-78734580D02*
X117559524Y-78782200D01*
X117559524Y-78782200D02*
X117654762Y-78829819D01*
X117654762Y-78829819D02*
X117845238Y-78829819D01*
X117845238Y-78829819D02*
X117940476Y-78782200D01*
X117940476Y-78782200D02*
X117988095Y-78734580D01*
X117988095Y-78734580D02*
X118035714Y-78639342D01*
X118035714Y-78639342D02*
X118035714Y-78448866D01*
X118035714Y-78448866D02*
X117988095Y-78353628D01*
X117988095Y-78353628D02*
X117940476Y-78306009D01*
X117940476Y-78306009D02*
X117845238Y-78258390D01*
X116012295Y-86271428D02*
X116012295Y-86728571D01*
X116012295Y-86499999D02*
X115212295Y-86499999D01*
X115212295Y-86499999D02*
X115326580Y-86576190D01*
X115326580Y-86576190D02*
X115402771Y-86652380D01*
X115402771Y-86652380D02*
X115440866Y-86728571D01*
X160535714Y-39454819D02*
X160535714Y-38454819D01*
X160535714Y-38454819D02*
X160773809Y-38454819D01*
X160773809Y-38454819D02*
X160916666Y-38502438D01*
X160916666Y-38502438D02*
X161011904Y-38597676D01*
X161011904Y-38597676D02*
X161059523Y-38692914D01*
X161059523Y-38692914D02*
X161107142Y-38883390D01*
X161107142Y-38883390D02*
X161107142Y-39026247D01*
X161107142Y-39026247D02*
X161059523Y-39216723D01*
X161059523Y-39216723D02*
X161011904Y-39311961D01*
X161011904Y-39311961D02*
X160916666Y-39407200D01*
X160916666Y-39407200D02*
X160773809Y-39454819D01*
X160773809Y-39454819D02*
X160535714Y-39454819D01*
X162059523Y-39454819D02*
X161488095Y-39454819D01*
X161773809Y-39454819D02*
X161773809Y-38454819D01*
X161773809Y-38454819D02*
X161678571Y-38597676D01*
X161678571Y-38597676D02*
X161583333Y-38692914D01*
X161583333Y-38692914D02*
X161488095Y-38740533D01*
X162535714Y-39454819D02*
X162726190Y-39454819D01*
X162726190Y-39454819D02*
X162821428Y-39407200D01*
X162821428Y-39407200D02*
X162869047Y-39359580D01*
X162869047Y-39359580D02*
X162964285Y-39216723D01*
X162964285Y-39216723D02*
X163011904Y-39026247D01*
X163011904Y-39026247D02*
X163011904Y-38645295D01*
X163011904Y-38645295D02*
X162964285Y-38550057D01*
X162964285Y-38550057D02*
X162916666Y-38502438D01*
X162916666Y-38502438D02*
X162821428Y-38454819D01*
X162821428Y-38454819D02*
X162630952Y-38454819D01*
X162630952Y-38454819D02*
X162535714Y-38502438D01*
X162535714Y-38502438D02*
X162488095Y-38550057D01*
X162488095Y-38550057D02*
X162440476Y-38645295D01*
X162440476Y-38645295D02*
X162440476Y-38883390D01*
X162440476Y-38883390D02*
X162488095Y-38978628D01*
X162488095Y-38978628D02*
X162535714Y-39026247D01*
X162535714Y-39026247D02*
X162630952Y-39073866D01*
X162630952Y-39073866D02*
X162821428Y-39073866D01*
X162821428Y-39073866D02*
X162916666Y-39026247D01*
X162916666Y-39026247D02*
X162964285Y-38978628D01*
X162964285Y-38978628D02*
X163011904Y-38883390D01*
X157978571Y-41262295D02*
X157521428Y-41262295D01*
X157750000Y-41262295D02*
X157750000Y-40462295D01*
X157750000Y-40462295D02*
X157673809Y-40576580D01*
X157673809Y-40576580D02*
X157597619Y-40652771D01*
X157597619Y-40652771D02*
X157521428Y-40690866D01*
X122011905Y-81729819D02*
X122011905Y-80729819D01*
X122011905Y-80729819D02*
X122250000Y-80729819D01*
X122250000Y-80729819D02*
X122392857Y-80777438D01*
X122392857Y-80777438D02*
X122488095Y-80872676D01*
X122488095Y-80872676D02*
X122535714Y-80967914D01*
X122535714Y-80967914D02*
X122583333Y-81158390D01*
X122583333Y-81158390D02*
X122583333Y-81301247D01*
X122583333Y-81301247D02*
X122535714Y-81491723D01*
X122535714Y-81491723D02*
X122488095Y-81586961D01*
X122488095Y-81586961D02*
X122392857Y-81682200D01*
X122392857Y-81682200D02*
X122250000Y-81729819D01*
X122250000Y-81729819D02*
X122011905Y-81729819D01*
X123059524Y-81729819D02*
X123250000Y-81729819D01*
X123250000Y-81729819D02*
X123345238Y-81682200D01*
X123345238Y-81682200D02*
X123392857Y-81634580D01*
X123392857Y-81634580D02*
X123488095Y-81491723D01*
X123488095Y-81491723D02*
X123535714Y-81301247D01*
X123535714Y-81301247D02*
X123535714Y-80920295D01*
X123535714Y-80920295D02*
X123488095Y-80825057D01*
X123488095Y-80825057D02*
X123440476Y-80777438D01*
X123440476Y-80777438D02*
X123345238Y-80729819D01*
X123345238Y-80729819D02*
X123154762Y-80729819D01*
X123154762Y-80729819D02*
X123059524Y-80777438D01*
X123059524Y-80777438D02*
X123011905Y-80825057D01*
X123011905Y-80825057D02*
X122964286Y-80920295D01*
X122964286Y-80920295D02*
X122964286Y-81158390D01*
X122964286Y-81158390D02*
X123011905Y-81253628D01*
X123011905Y-81253628D02*
X123059524Y-81301247D01*
X123059524Y-81301247D02*
X123154762Y-81348866D01*
X123154762Y-81348866D02*
X123345238Y-81348866D01*
X123345238Y-81348866D02*
X123440476Y-81301247D01*
X123440476Y-81301247D02*
X123488095Y-81253628D01*
X123488095Y-81253628D02*
X123535714Y-81158390D01*
X121512295Y-89271428D02*
X121512295Y-89728571D01*
X121512295Y-89499999D02*
X120712295Y-89499999D01*
X120712295Y-89499999D02*
X120826580Y-89576190D01*
X120826580Y-89576190D02*
X120902771Y-89652380D01*
X120902771Y-89652380D02*
X120940866Y-89728571D01*
X180535714Y-31454819D02*
X180535714Y-30454819D01*
X180535714Y-30454819D02*
X180773809Y-30454819D01*
X180773809Y-30454819D02*
X180916666Y-30502438D01*
X180916666Y-30502438D02*
X181011904Y-30597676D01*
X181011904Y-30597676D02*
X181059523Y-30692914D01*
X181059523Y-30692914D02*
X181107142Y-30883390D01*
X181107142Y-30883390D02*
X181107142Y-31026247D01*
X181107142Y-31026247D02*
X181059523Y-31216723D01*
X181059523Y-31216723D02*
X181011904Y-31311961D01*
X181011904Y-31311961D02*
X180916666Y-31407200D01*
X180916666Y-31407200D02*
X180773809Y-31454819D01*
X180773809Y-31454819D02*
X180535714Y-31454819D01*
X182059523Y-31454819D02*
X181488095Y-31454819D01*
X181773809Y-31454819D02*
X181773809Y-30454819D01*
X181773809Y-30454819D02*
X181678571Y-30597676D01*
X181678571Y-30597676D02*
X181583333Y-30692914D01*
X181583333Y-30692914D02*
X181488095Y-30740533D01*
X182630952Y-30883390D02*
X182535714Y-30835771D01*
X182535714Y-30835771D02*
X182488095Y-30788152D01*
X182488095Y-30788152D02*
X182440476Y-30692914D01*
X182440476Y-30692914D02*
X182440476Y-30645295D01*
X182440476Y-30645295D02*
X182488095Y-30550057D01*
X182488095Y-30550057D02*
X182535714Y-30502438D01*
X182535714Y-30502438D02*
X182630952Y-30454819D01*
X182630952Y-30454819D02*
X182821428Y-30454819D01*
X182821428Y-30454819D02*
X182916666Y-30502438D01*
X182916666Y-30502438D02*
X182964285Y-30550057D01*
X182964285Y-30550057D02*
X183011904Y-30645295D01*
X183011904Y-30645295D02*
X183011904Y-30692914D01*
X183011904Y-30692914D02*
X182964285Y-30788152D01*
X182964285Y-30788152D02*
X182916666Y-30835771D01*
X182916666Y-30835771D02*
X182821428Y-30883390D01*
X182821428Y-30883390D02*
X182630952Y-30883390D01*
X182630952Y-30883390D02*
X182535714Y-30931009D01*
X182535714Y-30931009D02*
X182488095Y-30978628D01*
X182488095Y-30978628D02*
X182440476Y-31073866D01*
X182440476Y-31073866D02*
X182440476Y-31264342D01*
X182440476Y-31264342D02*
X182488095Y-31359580D01*
X182488095Y-31359580D02*
X182535714Y-31407200D01*
X182535714Y-31407200D02*
X182630952Y-31454819D01*
X182630952Y-31454819D02*
X182821428Y-31454819D01*
X182821428Y-31454819D02*
X182916666Y-31407200D01*
X182916666Y-31407200D02*
X182964285Y-31359580D01*
X182964285Y-31359580D02*
X183011904Y-31264342D01*
X183011904Y-31264342D02*
X183011904Y-31073866D01*
X183011904Y-31073866D02*
X182964285Y-30978628D01*
X182964285Y-30978628D02*
X182916666Y-30931009D01*
X182916666Y-30931009D02*
X182821428Y-30883390D01*
X177978571Y-33262295D02*
X177521428Y-33262295D01*
X177750000Y-33262295D02*
X177750000Y-32462295D01*
X177750000Y-32462295D02*
X177673809Y-32576580D01*
X177673809Y-32576580D02*
X177597619Y-32652771D01*
X177597619Y-32652771D02*
X177521428Y-32690866D01*
X152503333Y-72569580D02*
X152455714Y-72617200D01*
X152455714Y-72617200D02*
X152312857Y-72664819D01*
X152312857Y-72664819D02*
X152217619Y-72664819D01*
X152217619Y-72664819D02*
X152074762Y-72617200D01*
X152074762Y-72617200D02*
X151979524Y-72521961D01*
X151979524Y-72521961D02*
X151931905Y-72426723D01*
X151931905Y-72426723D02*
X151884286Y-72236247D01*
X151884286Y-72236247D02*
X151884286Y-72093390D01*
X151884286Y-72093390D02*
X151931905Y-71902914D01*
X151931905Y-71902914D02*
X151979524Y-71807676D01*
X151979524Y-71807676D02*
X152074762Y-71712438D01*
X152074762Y-71712438D02*
X152217619Y-71664819D01*
X152217619Y-71664819D02*
X152312857Y-71664819D01*
X152312857Y-71664819D02*
X152455714Y-71712438D01*
X152455714Y-71712438D02*
X152503333Y-71760057D01*
X152979524Y-72664819D02*
X153170000Y-72664819D01*
X153170000Y-72664819D02*
X153265238Y-72617200D01*
X153265238Y-72617200D02*
X153312857Y-72569580D01*
X153312857Y-72569580D02*
X153408095Y-72426723D01*
X153408095Y-72426723D02*
X153455714Y-72236247D01*
X153455714Y-72236247D02*
X153455714Y-71855295D01*
X153455714Y-71855295D02*
X153408095Y-71760057D01*
X153408095Y-71760057D02*
X153360476Y-71712438D01*
X153360476Y-71712438D02*
X153265238Y-71664819D01*
X153265238Y-71664819D02*
X153074762Y-71664819D01*
X153074762Y-71664819D02*
X152979524Y-71712438D01*
X152979524Y-71712438D02*
X152931905Y-71760057D01*
X152931905Y-71760057D02*
X152884286Y-71855295D01*
X152884286Y-71855295D02*
X152884286Y-72093390D01*
X152884286Y-72093390D02*
X152931905Y-72188628D01*
X152931905Y-72188628D02*
X152979524Y-72236247D01*
X152979524Y-72236247D02*
X153074762Y-72283866D01*
X153074762Y-72283866D02*
X153265238Y-72283866D01*
X153265238Y-72283866D02*
X153360476Y-72236247D01*
X153360476Y-72236247D02*
X153408095Y-72188628D01*
X153408095Y-72188628D02*
X153455714Y-72093390D01*
X163535714Y-64954819D02*
X163535714Y-63954819D01*
X163535714Y-63954819D02*
X163773809Y-63954819D01*
X163773809Y-63954819D02*
X163916666Y-64002438D01*
X163916666Y-64002438D02*
X164011904Y-64097676D01*
X164011904Y-64097676D02*
X164059523Y-64192914D01*
X164059523Y-64192914D02*
X164107142Y-64383390D01*
X164107142Y-64383390D02*
X164107142Y-64526247D01*
X164107142Y-64526247D02*
X164059523Y-64716723D01*
X164059523Y-64716723D02*
X164011904Y-64811961D01*
X164011904Y-64811961D02*
X163916666Y-64907200D01*
X163916666Y-64907200D02*
X163773809Y-64954819D01*
X163773809Y-64954819D02*
X163535714Y-64954819D01*
X165059523Y-64954819D02*
X164488095Y-64954819D01*
X164773809Y-64954819D02*
X164773809Y-63954819D01*
X164773809Y-63954819D02*
X164678571Y-64097676D01*
X164678571Y-64097676D02*
X164583333Y-64192914D01*
X164583333Y-64192914D02*
X164488095Y-64240533D01*
X165964285Y-63954819D02*
X165488095Y-63954819D01*
X165488095Y-63954819D02*
X165440476Y-64431009D01*
X165440476Y-64431009D02*
X165488095Y-64383390D01*
X165488095Y-64383390D02*
X165583333Y-64335771D01*
X165583333Y-64335771D02*
X165821428Y-64335771D01*
X165821428Y-64335771D02*
X165916666Y-64383390D01*
X165916666Y-64383390D02*
X165964285Y-64431009D01*
X165964285Y-64431009D02*
X166011904Y-64526247D01*
X166011904Y-64526247D02*
X166011904Y-64764342D01*
X166011904Y-64764342D02*
X165964285Y-64859580D01*
X165964285Y-64859580D02*
X165916666Y-64907200D01*
X165916666Y-64907200D02*
X165821428Y-64954819D01*
X165821428Y-64954819D02*
X165583333Y-64954819D01*
X165583333Y-64954819D02*
X165488095Y-64907200D01*
X165488095Y-64907200D02*
X165440476Y-64859580D01*
X168521428Y-62237704D02*
X168978571Y-62237704D01*
X168749999Y-62237704D02*
X168749999Y-63037704D01*
X168749999Y-63037704D02*
X168826190Y-62923419D01*
X168826190Y-62923419D02*
X168902380Y-62847228D01*
X168902380Y-62847228D02*
X168978571Y-62809133D01*
X132535714Y-82844819D02*
X132535714Y-81844819D01*
X132535714Y-81844819D02*
X132773809Y-81844819D01*
X132773809Y-81844819D02*
X132916666Y-81892438D01*
X132916666Y-81892438D02*
X133011904Y-81987676D01*
X133011904Y-81987676D02*
X133059523Y-82082914D01*
X133059523Y-82082914D02*
X133107142Y-82273390D01*
X133107142Y-82273390D02*
X133107142Y-82416247D01*
X133107142Y-82416247D02*
X133059523Y-82606723D01*
X133059523Y-82606723D02*
X133011904Y-82701961D01*
X133011904Y-82701961D02*
X132916666Y-82797200D01*
X132916666Y-82797200D02*
X132773809Y-82844819D01*
X132773809Y-82844819D02*
X132535714Y-82844819D01*
X134059523Y-82844819D02*
X133488095Y-82844819D01*
X133773809Y-82844819D02*
X133773809Y-81844819D01*
X133773809Y-81844819D02*
X133678571Y-81987676D01*
X133678571Y-81987676D02*
X133583333Y-82082914D01*
X133583333Y-82082914D02*
X133488095Y-82130533D01*
X135011904Y-82844819D02*
X134440476Y-82844819D01*
X134726190Y-82844819D02*
X134726190Y-81844819D01*
X134726190Y-81844819D02*
X134630952Y-81987676D01*
X134630952Y-81987676D02*
X134535714Y-82082914D01*
X134535714Y-82082914D02*
X134440476Y-82130533D01*
X132512295Y-90271428D02*
X132512295Y-90728571D01*
X132512295Y-90499999D02*
X131712295Y-90499999D01*
X131712295Y-90499999D02*
X131826580Y-90576190D01*
X131826580Y-90576190D02*
X131902771Y-90652380D01*
X131902771Y-90652380D02*
X131940866Y-90728571D01*
X111011905Y-75804819D02*
X111011905Y-74804819D01*
X111011905Y-74804819D02*
X111250000Y-74804819D01*
X111250000Y-74804819D02*
X111392857Y-74852438D01*
X111392857Y-74852438D02*
X111488095Y-74947676D01*
X111488095Y-74947676D02*
X111535714Y-75042914D01*
X111535714Y-75042914D02*
X111583333Y-75233390D01*
X111583333Y-75233390D02*
X111583333Y-75376247D01*
X111583333Y-75376247D02*
X111535714Y-75566723D01*
X111535714Y-75566723D02*
X111488095Y-75661961D01*
X111488095Y-75661961D02*
X111392857Y-75757200D01*
X111392857Y-75757200D02*
X111250000Y-75804819D01*
X111250000Y-75804819D02*
X111011905Y-75804819D01*
X111916667Y-74804819D02*
X112583333Y-74804819D01*
X112583333Y-74804819D02*
X112154762Y-75804819D01*
X110512295Y-83271428D02*
X110512295Y-83728571D01*
X110512295Y-83499999D02*
X109712295Y-83499999D01*
X109712295Y-83499999D02*
X109826580Y-83576190D01*
X109826580Y-83576190D02*
X109902771Y-83652380D01*
X109902771Y-83652380D02*
X109940866Y-83728571D01*
X112649819Y-52333333D02*
X113364104Y-52333333D01*
X113364104Y-52333333D02*
X113506961Y-52380952D01*
X113506961Y-52380952D02*
X113602200Y-52476190D01*
X113602200Y-52476190D02*
X113649819Y-52619047D01*
X113649819Y-52619047D02*
X113649819Y-52714285D01*
X112745057Y-51904761D02*
X112697438Y-51857142D01*
X112697438Y-51857142D02*
X112649819Y-51761904D01*
X112649819Y-51761904D02*
X112649819Y-51523809D01*
X112649819Y-51523809D02*
X112697438Y-51428571D01*
X112697438Y-51428571D02*
X112745057Y-51380952D01*
X112745057Y-51380952D02*
X112840295Y-51333333D01*
X112840295Y-51333333D02*
X112935533Y-51333333D01*
X112935533Y-51333333D02*
X113078390Y-51380952D01*
X113078390Y-51380952D02*
X113649819Y-51952380D01*
X113649819Y-51952380D02*
X113649819Y-51333333D01*
X127035714Y-82854819D02*
X127035714Y-81854819D01*
X127035714Y-81854819D02*
X127273809Y-81854819D01*
X127273809Y-81854819D02*
X127416666Y-81902438D01*
X127416666Y-81902438D02*
X127511904Y-81997676D01*
X127511904Y-81997676D02*
X127559523Y-82092914D01*
X127559523Y-82092914D02*
X127607142Y-82283390D01*
X127607142Y-82283390D02*
X127607142Y-82426247D01*
X127607142Y-82426247D02*
X127559523Y-82616723D01*
X127559523Y-82616723D02*
X127511904Y-82711961D01*
X127511904Y-82711961D02*
X127416666Y-82807200D01*
X127416666Y-82807200D02*
X127273809Y-82854819D01*
X127273809Y-82854819D02*
X127035714Y-82854819D01*
X128559523Y-82854819D02*
X127988095Y-82854819D01*
X128273809Y-82854819D02*
X128273809Y-81854819D01*
X128273809Y-81854819D02*
X128178571Y-81997676D01*
X128178571Y-81997676D02*
X128083333Y-82092914D01*
X128083333Y-82092914D02*
X127988095Y-82140533D01*
X129178571Y-81854819D02*
X129273809Y-81854819D01*
X129273809Y-81854819D02*
X129369047Y-81902438D01*
X129369047Y-81902438D02*
X129416666Y-81950057D01*
X129416666Y-81950057D02*
X129464285Y-82045295D01*
X129464285Y-82045295D02*
X129511904Y-82235771D01*
X129511904Y-82235771D02*
X129511904Y-82473866D01*
X129511904Y-82473866D02*
X129464285Y-82664342D01*
X129464285Y-82664342D02*
X129416666Y-82759580D01*
X129416666Y-82759580D02*
X129369047Y-82807200D01*
X129369047Y-82807200D02*
X129273809Y-82854819D01*
X129273809Y-82854819D02*
X129178571Y-82854819D01*
X129178571Y-82854819D02*
X129083333Y-82807200D01*
X129083333Y-82807200D02*
X129035714Y-82759580D01*
X129035714Y-82759580D02*
X128988095Y-82664342D01*
X128988095Y-82664342D02*
X128940476Y-82473866D01*
X128940476Y-82473866D02*
X128940476Y-82235771D01*
X128940476Y-82235771D02*
X128988095Y-82045295D01*
X128988095Y-82045295D02*
X129035714Y-81950057D01*
X129035714Y-81950057D02*
X129083333Y-81902438D01*
X129083333Y-81902438D02*
X129178571Y-81854819D01*
X127012295Y-90271428D02*
X127012295Y-90728571D01*
X127012295Y-90499999D02*
X126212295Y-90499999D01*
X126212295Y-90499999D02*
X126326580Y-90576190D01*
X126326580Y-90576190D02*
X126402771Y-90652380D01*
X126402771Y-90652380D02*
X126440866Y-90728571D01*
D13*
X136176190Y-41568771D02*
X136176190Y-41092580D01*
X136509523Y-42092580D02*
X136176190Y-41568771D01*
X136176190Y-41568771D02*
X135842857Y-42092580D01*
X134985714Y-41092580D02*
X135557142Y-41092580D01*
X135271428Y-41092580D02*
X135271428Y-42092580D01*
X135271428Y-42092580D02*
X135366666Y-41949723D01*
X135366666Y-41949723D02*
X135461904Y-41854485D01*
X135461904Y-41854485D02*
X135557142Y-41806866D01*
X137872306Y-37727580D02*
X138443734Y-37727580D01*
X138158020Y-37727580D02*
X138158020Y-38727580D01*
X138158020Y-38727580D02*
X138253258Y-38584723D01*
X138253258Y-38584723D02*
X138348496Y-38489485D01*
X138348496Y-38489485D02*
X138443734Y-38441866D01*
D11*
X183535714Y-73454819D02*
X183535714Y-72454819D01*
X183535714Y-72454819D02*
X183773809Y-72454819D01*
X183773809Y-72454819D02*
X183916666Y-72502438D01*
X183916666Y-72502438D02*
X184011904Y-72597676D01*
X184011904Y-72597676D02*
X184059523Y-72692914D01*
X184059523Y-72692914D02*
X184107142Y-72883390D01*
X184107142Y-72883390D02*
X184107142Y-73026247D01*
X184107142Y-73026247D02*
X184059523Y-73216723D01*
X184059523Y-73216723D02*
X184011904Y-73311961D01*
X184011904Y-73311961D02*
X183916666Y-73407200D01*
X183916666Y-73407200D02*
X183773809Y-73454819D01*
X183773809Y-73454819D02*
X183535714Y-73454819D01*
X185059523Y-73454819D02*
X184488095Y-73454819D01*
X184773809Y-73454819D02*
X184773809Y-72454819D01*
X184773809Y-72454819D02*
X184678571Y-72597676D01*
X184678571Y-72597676D02*
X184583333Y-72692914D01*
X184583333Y-72692914D02*
X184488095Y-72740533D01*
X185916666Y-72454819D02*
X185726190Y-72454819D01*
X185726190Y-72454819D02*
X185630952Y-72502438D01*
X185630952Y-72502438D02*
X185583333Y-72550057D01*
X185583333Y-72550057D02*
X185488095Y-72692914D01*
X185488095Y-72692914D02*
X185440476Y-72883390D01*
X185440476Y-72883390D02*
X185440476Y-73264342D01*
X185440476Y-73264342D02*
X185488095Y-73359580D01*
X185488095Y-73359580D02*
X185535714Y-73407200D01*
X185535714Y-73407200D02*
X185630952Y-73454819D01*
X185630952Y-73454819D02*
X185821428Y-73454819D01*
X185821428Y-73454819D02*
X185916666Y-73407200D01*
X185916666Y-73407200D02*
X185964285Y-73359580D01*
X185964285Y-73359580D02*
X186011904Y-73264342D01*
X186011904Y-73264342D02*
X186011904Y-73026247D01*
X186011904Y-73026247D02*
X185964285Y-72931009D01*
X185964285Y-72931009D02*
X185916666Y-72883390D01*
X185916666Y-72883390D02*
X185821428Y-72835771D01*
X185821428Y-72835771D02*
X185630952Y-72835771D01*
X185630952Y-72835771D02*
X185535714Y-72883390D01*
X185535714Y-72883390D02*
X185488095Y-72931009D01*
X185488095Y-72931009D02*
X185440476Y-73026247D01*
X188521428Y-70737704D02*
X188978571Y-70737704D01*
X188749999Y-70737704D02*
X188749999Y-71537704D01*
X188749999Y-71537704D02*
X188826190Y-71423419D01*
X188826190Y-71423419D02*
X188902380Y-71347228D01*
X188902380Y-71347228D02*
X188978571Y-71309133D01*
X104704819Y-43238094D02*
X103704819Y-43238094D01*
X103704819Y-43238094D02*
X103704819Y-42999999D01*
X103704819Y-42999999D02*
X103752438Y-42857142D01*
X103752438Y-42857142D02*
X103847676Y-42761904D01*
X103847676Y-42761904D02*
X103942914Y-42714285D01*
X103942914Y-42714285D02*
X104133390Y-42666666D01*
X104133390Y-42666666D02*
X104276247Y-42666666D01*
X104276247Y-42666666D02*
X104466723Y-42714285D01*
X104466723Y-42714285D02*
X104561961Y-42761904D01*
X104561961Y-42761904D02*
X104657200Y-42857142D01*
X104657200Y-42857142D02*
X104704819Y-42999999D01*
X104704819Y-42999999D02*
X104704819Y-43238094D01*
X104704819Y-41714285D02*
X104704819Y-42285713D01*
X104704819Y-41999999D02*
X103704819Y-41999999D01*
X103704819Y-41999999D02*
X103847676Y-42095237D01*
X103847676Y-42095237D02*
X103942914Y-42190475D01*
X103942914Y-42190475D02*
X103990533Y-42285713D01*
X101987704Y-38728571D02*
X101987704Y-38271428D01*
X101987704Y-38500000D02*
X102787704Y-38500000D01*
X102787704Y-38500000D02*
X102673419Y-38423809D01*
X102673419Y-38423809D02*
X102597228Y-38347619D01*
X102597228Y-38347619D02*
X102559133Y-38271428D01*
X51488095Y-45204819D02*
X51488095Y-44204819D01*
X51488095Y-44681009D02*
X52059523Y-44681009D01*
X52059523Y-45204819D02*
X52059523Y-44204819D01*
X53059523Y-45204819D02*
X52488095Y-45204819D01*
X52773809Y-45204819D02*
X52773809Y-44204819D01*
X52773809Y-44204819D02*
X52678571Y-44347676D01*
X52678571Y-44347676D02*
X52583333Y-44442914D01*
X52583333Y-44442914D02*
X52488095Y-44490533D01*
X191035714Y-63954819D02*
X191035714Y-62954819D01*
X191035714Y-62954819D02*
X191273809Y-62954819D01*
X191273809Y-62954819D02*
X191416666Y-63002438D01*
X191416666Y-63002438D02*
X191511904Y-63097676D01*
X191511904Y-63097676D02*
X191559523Y-63192914D01*
X191559523Y-63192914D02*
X191607142Y-63383390D01*
X191607142Y-63383390D02*
X191607142Y-63526247D01*
X191607142Y-63526247D02*
X191559523Y-63716723D01*
X191559523Y-63716723D02*
X191511904Y-63811961D01*
X191511904Y-63811961D02*
X191416666Y-63907200D01*
X191416666Y-63907200D02*
X191273809Y-63954819D01*
X191273809Y-63954819D02*
X191035714Y-63954819D01*
X192559523Y-63954819D02*
X191988095Y-63954819D01*
X192273809Y-63954819D02*
X192273809Y-62954819D01*
X192273809Y-62954819D02*
X192178571Y-63097676D01*
X192178571Y-63097676D02*
X192083333Y-63192914D01*
X192083333Y-63192914D02*
X191988095Y-63240533D01*
X192892857Y-62954819D02*
X193559523Y-62954819D01*
X193559523Y-62954819D02*
X193130952Y-63954819D01*
X196021428Y-61237704D02*
X196478571Y-61237704D01*
X196249999Y-61237704D02*
X196249999Y-62037704D01*
X196249999Y-62037704D02*
X196326190Y-61923419D01*
X196326190Y-61923419D02*
X196402380Y-61847228D01*
X196402380Y-61847228D02*
X196478571Y-61809133D01*
X212498095Y-45704819D02*
X212498095Y-44704819D01*
X212498095Y-45181009D02*
X213069523Y-45181009D01*
X213069523Y-45704819D02*
X213069523Y-44704819D01*
X213498095Y-44800057D02*
X213545714Y-44752438D01*
X213545714Y-44752438D02*
X213640952Y-44704819D01*
X213640952Y-44704819D02*
X213879047Y-44704819D01*
X213879047Y-44704819D02*
X213974285Y-44752438D01*
X213974285Y-44752438D02*
X214021904Y-44800057D01*
X214021904Y-44800057D02*
X214069523Y-44895295D01*
X214069523Y-44895295D02*
X214069523Y-44990533D01*
X214069523Y-44990533D02*
X214021904Y-45133390D01*
X214021904Y-45133390D02*
X213450476Y-45704819D01*
X213450476Y-45704819D02*
X214069523Y-45704819D01*
X143416666Y-36184819D02*
X143416666Y-36899104D01*
X143416666Y-36899104D02*
X143369047Y-37041961D01*
X143369047Y-37041961D02*
X143273809Y-37137200D01*
X143273809Y-37137200D02*
X143130952Y-37184819D01*
X143130952Y-37184819D02*
X143035714Y-37184819D01*
X144416666Y-37184819D02*
X143845238Y-37184819D01*
X144130952Y-37184819D02*
X144130952Y-36184819D01*
X144130952Y-36184819D02*
X144035714Y-36327676D01*
X144035714Y-36327676D02*
X143940476Y-36422914D01*
X143940476Y-36422914D02*
X143845238Y-36470533D01*
X77511905Y-73454819D02*
X77511905Y-72454819D01*
X77511905Y-72454819D02*
X77750000Y-72454819D01*
X77750000Y-72454819D02*
X77892857Y-72502438D01*
X77892857Y-72502438D02*
X77988095Y-72597676D01*
X77988095Y-72597676D02*
X78035714Y-72692914D01*
X78035714Y-72692914D02*
X78083333Y-72883390D01*
X78083333Y-72883390D02*
X78083333Y-73026247D01*
X78083333Y-73026247D02*
X78035714Y-73216723D01*
X78035714Y-73216723D02*
X77988095Y-73311961D01*
X77988095Y-73311961D02*
X77892857Y-73407200D01*
X77892857Y-73407200D02*
X77750000Y-73454819D01*
X77750000Y-73454819D02*
X77511905Y-73454819D01*
X78940476Y-72788152D02*
X78940476Y-73454819D01*
X78702381Y-72407200D02*
X78464286Y-73121485D01*
X78464286Y-73121485D02*
X79083333Y-73121485D01*
X82021428Y-70737704D02*
X82478571Y-70737704D01*
X82249999Y-70737704D02*
X82249999Y-71537704D01*
X82249999Y-71537704D02*
X82326190Y-71423419D01*
X82326190Y-71423419D02*
X82402380Y-71347228D01*
X82402380Y-71347228D02*
X82478571Y-71309133D01*
X128938095Y-43604819D02*
X128938095Y-44414342D01*
X128938095Y-44414342D02*
X128985714Y-44509580D01*
X128985714Y-44509580D02*
X129033333Y-44557200D01*
X129033333Y-44557200D02*
X129128571Y-44604819D01*
X129128571Y-44604819D02*
X129319047Y-44604819D01*
X129319047Y-44604819D02*
X129414285Y-44557200D01*
X129414285Y-44557200D02*
X129461904Y-44509580D01*
X129461904Y-44509580D02*
X129509523Y-44414342D01*
X129509523Y-44414342D02*
X129509523Y-43604819D01*
X130509523Y-44604819D02*
X129938095Y-44604819D01*
X130223809Y-44604819D02*
X130223809Y-43604819D01*
X130223809Y-43604819D02*
X130128571Y-43747676D01*
X130128571Y-43747676D02*
X130033333Y-43842914D01*
X130033333Y-43842914D02*
X129938095Y-43890533D01*
X123836666Y-38264819D02*
X123836666Y-38979104D01*
X123836666Y-38979104D02*
X123789047Y-39121961D01*
X123789047Y-39121961D02*
X123693809Y-39217200D01*
X123693809Y-39217200D02*
X123550952Y-39264819D01*
X123550952Y-39264819D02*
X123455714Y-39264819D01*
X124741428Y-38264819D02*
X124550952Y-38264819D01*
X124550952Y-38264819D02*
X124455714Y-38312438D01*
X124455714Y-38312438D02*
X124408095Y-38360057D01*
X124408095Y-38360057D02*
X124312857Y-38502914D01*
X124312857Y-38502914D02*
X124265238Y-38693390D01*
X124265238Y-38693390D02*
X124265238Y-39074342D01*
X124265238Y-39074342D02*
X124312857Y-39169580D01*
X124312857Y-39169580D02*
X124360476Y-39217200D01*
X124360476Y-39217200D02*
X124455714Y-39264819D01*
X124455714Y-39264819D02*
X124646190Y-39264819D01*
X124646190Y-39264819D02*
X124741428Y-39217200D01*
X124741428Y-39217200D02*
X124789047Y-39169580D01*
X124789047Y-39169580D02*
X124836666Y-39074342D01*
X124836666Y-39074342D02*
X124836666Y-38836247D01*
X124836666Y-38836247D02*
X124789047Y-38741009D01*
X124789047Y-38741009D02*
X124741428Y-38693390D01*
X124741428Y-38693390D02*
X124646190Y-38645771D01*
X124646190Y-38645771D02*
X124455714Y-38645771D01*
X124455714Y-38645771D02*
X124360476Y-38693390D01*
X124360476Y-38693390D02*
X124312857Y-38741009D01*
X124312857Y-38741009D02*
X124265238Y-38836247D01*
X153524819Y-44473333D02*
X154239104Y-44473333D01*
X154239104Y-44473333D02*
X154381961Y-44520952D01*
X154381961Y-44520952D02*
X154477200Y-44616190D01*
X154477200Y-44616190D02*
X154524819Y-44759047D01*
X154524819Y-44759047D02*
X154524819Y-44854285D01*
X153524819Y-43520952D02*
X153524819Y-43997142D01*
X153524819Y-43997142D02*
X154001009Y-44044761D01*
X154001009Y-44044761D02*
X153953390Y-43997142D01*
X153953390Y-43997142D02*
X153905771Y-43901904D01*
X153905771Y-43901904D02*
X153905771Y-43663809D01*
X153905771Y-43663809D02*
X153953390Y-43568571D01*
X153953390Y-43568571D02*
X154001009Y-43520952D01*
X154001009Y-43520952D02*
X154096247Y-43473333D01*
X154096247Y-43473333D02*
X154334342Y-43473333D01*
X154334342Y-43473333D02*
X154429580Y-43520952D01*
X154429580Y-43520952D02*
X154477200Y-43568571D01*
X154477200Y-43568571D02*
X154524819Y-43663809D01*
X154524819Y-43663809D02*
X154524819Y-43901904D01*
X154524819Y-43901904D02*
X154477200Y-43997142D01*
X154477200Y-43997142D02*
X154429580Y-44044761D01*
X123344819Y-44544285D02*
X122344819Y-44544285D01*
X122344819Y-44544285D02*
X122344819Y-44306190D01*
X122344819Y-44306190D02*
X122392438Y-44163333D01*
X122392438Y-44163333D02*
X122487676Y-44068095D01*
X122487676Y-44068095D02*
X122582914Y-44020476D01*
X122582914Y-44020476D02*
X122773390Y-43972857D01*
X122773390Y-43972857D02*
X122916247Y-43972857D01*
X122916247Y-43972857D02*
X123106723Y-44020476D01*
X123106723Y-44020476D02*
X123201961Y-44068095D01*
X123201961Y-44068095D02*
X123297200Y-44163333D01*
X123297200Y-44163333D02*
X123344819Y-44306190D01*
X123344819Y-44306190D02*
X123344819Y-44544285D01*
X122440057Y-43591904D02*
X122392438Y-43544285D01*
X122392438Y-43544285D02*
X122344819Y-43449047D01*
X122344819Y-43449047D02*
X122344819Y-43210952D01*
X122344819Y-43210952D02*
X122392438Y-43115714D01*
X122392438Y-43115714D02*
X122440057Y-43068095D01*
X122440057Y-43068095D02*
X122535295Y-43020476D01*
X122535295Y-43020476D02*
X122630533Y-43020476D01*
X122630533Y-43020476D02*
X122773390Y-43068095D01*
X122773390Y-43068095D02*
X123344819Y-43639523D01*
X123344819Y-43639523D02*
X123344819Y-43020476D01*
X123344819Y-42068095D02*
X123344819Y-42639523D01*
X123344819Y-42353809D02*
X122344819Y-42353809D01*
X122344819Y-42353809D02*
X122487676Y-42449047D01*
X122487676Y-42449047D02*
X122582914Y-42544285D01*
X122582914Y-42544285D02*
X122630533Y-42639523D01*
X149035714Y-75779819D02*
X149035714Y-74779819D01*
X149035714Y-74779819D02*
X149273809Y-74779819D01*
X149273809Y-74779819D02*
X149416666Y-74827438D01*
X149416666Y-74827438D02*
X149511904Y-74922676D01*
X149511904Y-74922676D02*
X149559523Y-75017914D01*
X149559523Y-75017914D02*
X149607142Y-75208390D01*
X149607142Y-75208390D02*
X149607142Y-75351247D01*
X149607142Y-75351247D02*
X149559523Y-75541723D01*
X149559523Y-75541723D02*
X149511904Y-75636961D01*
X149511904Y-75636961D02*
X149416666Y-75732200D01*
X149416666Y-75732200D02*
X149273809Y-75779819D01*
X149273809Y-75779819D02*
X149035714Y-75779819D01*
X150559523Y-75779819D02*
X149988095Y-75779819D01*
X150273809Y-75779819D02*
X150273809Y-74779819D01*
X150273809Y-74779819D02*
X150178571Y-74922676D01*
X150178571Y-74922676D02*
X150083333Y-75017914D01*
X150083333Y-75017914D02*
X149988095Y-75065533D01*
X151416666Y-75113152D02*
X151416666Y-75779819D01*
X151178571Y-74732200D02*
X150940476Y-75446485D01*
X150940476Y-75446485D02*
X151559523Y-75446485D01*
X149012295Y-83271428D02*
X149012295Y-83728571D01*
X149012295Y-83499999D02*
X148212295Y-83499999D01*
X148212295Y-83499999D02*
X148326580Y-83576190D01*
X148326580Y-83576190D02*
X148402771Y-83652380D01*
X148402771Y-83652380D02*
X148440866Y-83728571D01*
X127108333Y-36129819D02*
X126775000Y-35653628D01*
X126536905Y-36129819D02*
X126536905Y-35129819D01*
X126536905Y-35129819D02*
X126917857Y-35129819D01*
X126917857Y-35129819D02*
X127013095Y-35177438D01*
X127013095Y-35177438D02*
X127060714Y-35225057D01*
X127060714Y-35225057D02*
X127108333Y-35320295D01*
X127108333Y-35320295D02*
X127108333Y-35463152D01*
X127108333Y-35463152D02*
X127060714Y-35558390D01*
X127060714Y-35558390D02*
X127013095Y-35606009D01*
X127013095Y-35606009D02*
X126917857Y-35653628D01*
X126917857Y-35653628D02*
X126536905Y-35653628D01*
X127441667Y-35129819D02*
X128060714Y-35129819D01*
X128060714Y-35129819D02*
X127727381Y-35510771D01*
X127727381Y-35510771D02*
X127870238Y-35510771D01*
X127870238Y-35510771D02*
X127965476Y-35558390D01*
X127965476Y-35558390D02*
X128013095Y-35606009D01*
X128013095Y-35606009D02*
X128060714Y-35701247D01*
X128060714Y-35701247D02*
X128060714Y-35939342D01*
X128060714Y-35939342D02*
X128013095Y-36034580D01*
X128013095Y-36034580D02*
X127965476Y-36082200D01*
X127965476Y-36082200D02*
X127870238Y-36129819D01*
X127870238Y-36129819D02*
X127584524Y-36129819D01*
X127584524Y-36129819D02*
X127489286Y-36082200D01*
X127489286Y-36082200D02*
X127441667Y-36034580D01*
X70011905Y-56954819D02*
X70011905Y-55954819D01*
X70011905Y-55954819D02*
X70250000Y-55954819D01*
X70250000Y-55954819D02*
X70392857Y-56002438D01*
X70392857Y-56002438D02*
X70488095Y-56097676D01*
X70488095Y-56097676D02*
X70535714Y-56192914D01*
X70535714Y-56192914D02*
X70583333Y-56383390D01*
X70583333Y-56383390D02*
X70583333Y-56526247D01*
X70583333Y-56526247D02*
X70535714Y-56716723D01*
X70535714Y-56716723D02*
X70488095Y-56811961D01*
X70488095Y-56811961D02*
X70392857Y-56907200D01*
X70392857Y-56907200D02*
X70250000Y-56954819D01*
X70250000Y-56954819D02*
X70011905Y-56954819D01*
X70916667Y-55954819D02*
X71535714Y-55954819D01*
X71535714Y-55954819D02*
X71202381Y-56335771D01*
X71202381Y-56335771D02*
X71345238Y-56335771D01*
X71345238Y-56335771D02*
X71440476Y-56383390D01*
X71440476Y-56383390D02*
X71488095Y-56431009D01*
X71488095Y-56431009D02*
X71535714Y-56526247D01*
X71535714Y-56526247D02*
X71535714Y-56764342D01*
X71535714Y-56764342D02*
X71488095Y-56859580D01*
X71488095Y-56859580D02*
X71440476Y-56907200D01*
X71440476Y-56907200D02*
X71345238Y-56954819D01*
X71345238Y-56954819D02*
X71059524Y-56954819D01*
X71059524Y-56954819D02*
X70964286Y-56907200D01*
X70964286Y-56907200D02*
X70916667Y-56859580D01*
X66978571Y-58762295D02*
X66521428Y-58762295D01*
X66750000Y-58762295D02*
X66750000Y-57962295D01*
X66750000Y-57962295D02*
X66673809Y-58076580D01*
X66673809Y-58076580D02*
X66597619Y-58152771D01*
X66597619Y-58152771D02*
X66521428Y-58190866D01*
X162913333Y-57989580D02*
X162865714Y-58037200D01*
X162865714Y-58037200D02*
X162722857Y-58084819D01*
X162722857Y-58084819D02*
X162627619Y-58084819D01*
X162627619Y-58084819D02*
X162484762Y-58037200D01*
X162484762Y-58037200D02*
X162389524Y-57941961D01*
X162389524Y-57941961D02*
X162341905Y-57846723D01*
X162341905Y-57846723D02*
X162294286Y-57656247D01*
X162294286Y-57656247D02*
X162294286Y-57513390D01*
X162294286Y-57513390D02*
X162341905Y-57322914D01*
X162341905Y-57322914D02*
X162389524Y-57227676D01*
X162389524Y-57227676D02*
X162484762Y-57132438D01*
X162484762Y-57132438D02*
X162627619Y-57084819D01*
X162627619Y-57084819D02*
X162722857Y-57084819D01*
X162722857Y-57084819D02*
X162865714Y-57132438D01*
X162865714Y-57132438D02*
X162913333Y-57180057D01*
X163246667Y-57084819D02*
X163865714Y-57084819D01*
X163865714Y-57084819D02*
X163532381Y-57465771D01*
X163532381Y-57465771D02*
X163675238Y-57465771D01*
X163675238Y-57465771D02*
X163770476Y-57513390D01*
X163770476Y-57513390D02*
X163818095Y-57561009D01*
X163818095Y-57561009D02*
X163865714Y-57656247D01*
X163865714Y-57656247D02*
X163865714Y-57894342D01*
X163865714Y-57894342D02*
X163818095Y-57989580D01*
X163818095Y-57989580D02*
X163770476Y-58037200D01*
X163770476Y-58037200D02*
X163675238Y-58084819D01*
X163675238Y-58084819D02*
X163389524Y-58084819D01*
X163389524Y-58084819D02*
X163294286Y-58037200D01*
X163294286Y-58037200D02*
X163246667Y-57989580D01*
X138035714Y-81704819D02*
X138035714Y-80704819D01*
X138035714Y-80704819D02*
X138273809Y-80704819D01*
X138273809Y-80704819D02*
X138416666Y-80752438D01*
X138416666Y-80752438D02*
X138511904Y-80847676D01*
X138511904Y-80847676D02*
X138559523Y-80942914D01*
X138559523Y-80942914D02*
X138607142Y-81133390D01*
X138607142Y-81133390D02*
X138607142Y-81276247D01*
X138607142Y-81276247D02*
X138559523Y-81466723D01*
X138559523Y-81466723D02*
X138511904Y-81561961D01*
X138511904Y-81561961D02*
X138416666Y-81657200D01*
X138416666Y-81657200D02*
X138273809Y-81704819D01*
X138273809Y-81704819D02*
X138035714Y-81704819D01*
X139559523Y-81704819D02*
X138988095Y-81704819D01*
X139273809Y-81704819D02*
X139273809Y-80704819D01*
X139273809Y-80704819D02*
X139178571Y-80847676D01*
X139178571Y-80847676D02*
X139083333Y-80942914D01*
X139083333Y-80942914D02*
X138988095Y-80990533D01*
X139940476Y-80800057D02*
X139988095Y-80752438D01*
X139988095Y-80752438D02*
X140083333Y-80704819D01*
X140083333Y-80704819D02*
X140321428Y-80704819D01*
X140321428Y-80704819D02*
X140416666Y-80752438D01*
X140416666Y-80752438D02*
X140464285Y-80800057D01*
X140464285Y-80800057D02*
X140511904Y-80895295D01*
X140511904Y-80895295D02*
X140511904Y-80990533D01*
X140511904Y-80990533D02*
X140464285Y-81133390D01*
X140464285Y-81133390D02*
X139892857Y-81704819D01*
X139892857Y-81704819D02*
X140511904Y-81704819D01*
X138012295Y-89271428D02*
X138012295Y-89728571D01*
X138012295Y-89499999D02*
X137212295Y-89499999D01*
X137212295Y-89499999D02*
X137326580Y-89576190D01*
X137326580Y-89576190D02*
X137402771Y-89652380D01*
X137402771Y-89652380D02*
X137440866Y-89728571D01*
X119414819Y-48496666D02*
X118938628Y-48829999D01*
X119414819Y-49068094D02*
X118414819Y-49068094D01*
X118414819Y-49068094D02*
X118414819Y-48687142D01*
X118414819Y-48687142D02*
X118462438Y-48591904D01*
X118462438Y-48591904D02*
X118510057Y-48544285D01*
X118510057Y-48544285D02*
X118605295Y-48496666D01*
X118605295Y-48496666D02*
X118748152Y-48496666D01*
X118748152Y-48496666D02*
X118843390Y-48544285D01*
X118843390Y-48544285D02*
X118891009Y-48591904D01*
X118891009Y-48591904D02*
X118938628Y-48687142D01*
X118938628Y-48687142D02*
X118938628Y-49068094D01*
X118510057Y-48115713D02*
X118462438Y-48068094D01*
X118462438Y-48068094D02*
X118414819Y-47972856D01*
X118414819Y-47972856D02*
X118414819Y-47734761D01*
X118414819Y-47734761D02*
X118462438Y-47639523D01*
X118462438Y-47639523D02*
X118510057Y-47591904D01*
X118510057Y-47591904D02*
X118605295Y-47544285D01*
X118605295Y-47544285D02*
X118700533Y-47544285D01*
X118700533Y-47544285D02*
X118843390Y-47591904D01*
X118843390Y-47591904D02*
X119414819Y-48163332D01*
X119414819Y-48163332D02*
X119414819Y-47544285D01*
X79511905Y-31454819D02*
X79511905Y-30454819D01*
X79511905Y-30454819D02*
X79750000Y-30454819D01*
X79750000Y-30454819D02*
X79892857Y-30502438D01*
X79892857Y-30502438D02*
X79988095Y-30597676D01*
X79988095Y-30597676D02*
X80035714Y-30692914D01*
X80035714Y-30692914D02*
X80083333Y-30883390D01*
X80083333Y-30883390D02*
X80083333Y-31026247D01*
X80083333Y-31026247D02*
X80035714Y-31216723D01*
X80035714Y-31216723D02*
X79988095Y-31311961D01*
X79988095Y-31311961D02*
X79892857Y-31407200D01*
X79892857Y-31407200D02*
X79750000Y-31454819D01*
X79750000Y-31454819D02*
X79511905Y-31454819D01*
X80464286Y-30550057D02*
X80511905Y-30502438D01*
X80511905Y-30502438D02*
X80607143Y-30454819D01*
X80607143Y-30454819D02*
X80845238Y-30454819D01*
X80845238Y-30454819D02*
X80940476Y-30502438D01*
X80940476Y-30502438D02*
X80988095Y-30550057D01*
X80988095Y-30550057D02*
X81035714Y-30645295D01*
X81035714Y-30645295D02*
X81035714Y-30740533D01*
X81035714Y-30740533D02*
X80988095Y-30883390D01*
X80988095Y-30883390D02*
X80416667Y-31454819D01*
X80416667Y-31454819D02*
X81035714Y-31454819D01*
X76478571Y-33262295D02*
X76021428Y-33262295D01*
X76250000Y-33262295D02*
X76250000Y-32462295D01*
X76250000Y-32462295D02*
X76173809Y-32576580D01*
X76173809Y-32576580D02*
X76097619Y-32652771D01*
X76097619Y-32652771D02*
X76021428Y-32690866D01*
%TO.C,U3*%
X179975000Y-64300000D02*
X177200000Y-64300000D01*
X179975000Y-67700000D02*
X177025000Y-67700000D01*
D14*
X176880000Y-64590000D02*
X176600000Y-64590000D01*
X176880000Y-64310000D01*
X176880000Y-64590000D01*
G36*
X176880000Y-64590000D02*
G01*
X176600000Y-64590000D01*
X176880000Y-64310000D01*
X176880000Y-64590000D01*
G37*
D11*
%TO.C,U2*%
X86075000Y-64300000D02*
X83300000Y-64300000D01*
X86075000Y-67700000D02*
X83125000Y-67700000D01*
D14*
X82980000Y-64590000D02*
X82700000Y-64590000D01*
X82980000Y-64310000D01*
X82980000Y-64590000D01*
G36*
X82980000Y-64590000D02*
G01*
X82700000Y-64590000D01*
X82980000Y-64310000D01*
X82980000Y-64590000D01*
G37*
%TO.C,D5*%
X95500000Y-64500000D02*
X95500000Y-57500000D01*
X95500000Y-64500000D02*
X101000000Y-64500000D01*
X99150000Y-58300000D02*
X97350000Y-58300000D01*
X99150000Y-63700000D02*
X97350000Y-63700000D01*
X100550000Y-57500000D02*
X95500000Y-57500000D01*
X101000000Y-57950000D02*
X100550000Y-57500000D01*
X101000000Y-64500000D02*
X101000000Y-57950000D01*
D13*
%TO.C,D6*%
X116425000Y-54225000D02*
X116425000Y-54225000D01*
X116425000Y-54325000D02*
X116425000Y-54325000D01*
X116425000Y-54225000D02*
G75*
G02*
X116425000Y-54325000I0J-50000D01*
G01*
X116425000Y-54325000D02*
G75*
G02*
X116425000Y-54225000I0J50000D01*
G01*
D14*
%TO.C,C2*%
X135590580Y-36140000D02*
X135309420Y-36140000D01*
X135590580Y-37160000D02*
X135309420Y-37160000D01*
%TO.C,C1*%
X129584420Y-36690000D02*
X129865580Y-36690000D01*
X129584420Y-37710000D02*
X129865580Y-37710000D01*
%TO.C,J4*%
X125740000Y-31820000D02*
X125740000Y-34480000D01*
X130880000Y-31820000D02*
X125740000Y-31820000D01*
X130880000Y-31820000D02*
X130880000Y-34480000D01*
X130880000Y-34480000D02*
X125740000Y-34480000D01*
X132150000Y-31820000D02*
X133480000Y-31820000D01*
X133480000Y-31820000D02*
X133480000Y-33150000D01*
%TO.C,D13*%
X142000000Y-86000000D02*
X142000000Y-79000000D01*
X142000000Y-86000000D02*
X147500000Y-86000000D01*
X145650000Y-79800000D02*
X143850000Y-79800000D01*
X145650000Y-85200000D02*
X143850000Y-85200000D01*
X147050000Y-79000000D02*
X142000000Y-79000000D01*
X147500000Y-79450000D02*
X147050000Y-79000000D01*
X147500000Y-86000000D02*
X147500000Y-79450000D01*
%TO.C,J3*%
X121980000Y-61780000D02*
X121980000Y-60450000D01*
X123310000Y-61780000D02*
X121980000Y-61780000D01*
X124580000Y-59120000D02*
X134800000Y-59120000D01*
X124580000Y-61780000D02*
X124580000Y-59120000D01*
X124580000Y-61780000D02*
X134800000Y-61780000D01*
X134800000Y-61780000D02*
X134800000Y-59120000D01*
%TO.C,C5*%
X99990580Y-46990000D02*
X99709420Y-46990000D01*
X99990580Y-48010000D02*
X99709420Y-48010000D01*
%TO.C,C4*%
X112469420Y-73300000D02*
X112750580Y-73300000D01*
X112469420Y-74320000D02*
X112750580Y-74320000D01*
%TO.C,D8*%
X114500000Y-86000000D02*
X114500000Y-79000000D01*
X114500000Y-86000000D02*
X120000000Y-86000000D01*
X118150000Y-79800000D02*
X116350000Y-79800000D01*
X118150000Y-85200000D02*
X116350000Y-85200000D01*
X119550000Y-79000000D02*
X114500000Y-79000000D01*
X120000000Y-79450000D02*
X119550000Y-79000000D01*
X120000000Y-86000000D02*
X120000000Y-79450000D01*
%TO.C,D19*%
X158250000Y-39750000D02*
X158250000Y-45250000D01*
X158250000Y-39750000D02*
X165250000Y-39750000D01*
X158250000Y-45250000D02*
X164800000Y-45250000D01*
X159050000Y-43400000D02*
X159050000Y-41600000D01*
X164450000Y-43400000D02*
X164450000Y-41600000D01*
X164800000Y-45250000D02*
X165250000Y-44800000D01*
X165250000Y-44800000D02*
X165250000Y-39750000D01*
%TO.C,D9*%
X120000000Y-89000000D02*
X120000000Y-82000000D01*
X120000000Y-89000000D02*
X125500000Y-89000000D01*
X123650000Y-82800000D02*
X121850000Y-82800000D01*
X123650000Y-88200000D02*
X121850000Y-88200000D01*
X125050000Y-82000000D02*
X120000000Y-82000000D01*
X125500000Y-82450000D02*
X125050000Y-82000000D01*
X125500000Y-89000000D02*
X125500000Y-82450000D01*
%TO.C,D18*%
X178250000Y-31750000D02*
X178250000Y-37250000D01*
X178250000Y-31750000D02*
X185250000Y-31750000D01*
X178250000Y-37250000D02*
X184800000Y-37250000D01*
X179050000Y-35400000D02*
X179050000Y-33600000D01*
X184450000Y-35400000D02*
X184450000Y-33600000D01*
X184800000Y-37250000D02*
X185250000Y-36800000D01*
X185250000Y-36800000D02*
X185250000Y-31750000D01*
%TO.C,C9*%
X152810580Y-73000000D02*
X152529420Y-73000000D01*
X152810580Y-74020000D02*
X152529420Y-74020000D01*
%TO.C,D15*%
X161250000Y-58700000D02*
X161250000Y-63750000D01*
X161700000Y-58250000D02*
X161250000Y-58700000D01*
X162050000Y-60100000D02*
X162050000Y-61900000D01*
X167450000Y-60100000D02*
X167450000Y-61900000D01*
X168250000Y-58250000D02*
X161700000Y-58250000D01*
X168250000Y-63750000D02*
X161250000Y-63750000D01*
X168250000Y-63750000D02*
X168250000Y-58250000D01*
%TO.C,D11*%
X131000000Y-90000000D02*
X131000000Y-83000000D01*
X131000000Y-90000000D02*
X136500000Y-90000000D01*
X134650000Y-83800000D02*
X132850000Y-83800000D01*
X134650000Y-89200000D02*
X132850000Y-89200000D01*
X136050000Y-83000000D02*
X131000000Y-83000000D01*
X136500000Y-83450000D02*
X136050000Y-83000000D01*
X136500000Y-90000000D02*
X136500000Y-83450000D01*
%TO.C,D7*%
X109000000Y-83000000D02*
X109000000Y-76000000D01*
X109000000Y-83000000D02*
X114500000Y-83000000D01*
X112650000Y-76800000D02*
X110850000Y-76800000D01*
X112650000Y-82200000D02*
X110850000Y-82200000D01*
X114050000Y-76000000D02*
X109000000Y-76000000D01*
X114500000Y-76450000D02*
X114050000Y-76000000D01*
X114500000Y-83000000D02*
X114500000Y-76450000D01*
%TO.C,J2*%
X114195000Y-53330000D02*
X114195000Y-52000000D01*
X115525000Y-53330000D02*
X114195000Y-53330000D01*
X116795000Y-50670000D02*
X119395000Y-50670000D01*
X116795000Y-53330000D02*
X116795000Y-50670000D01*
X116795000Y-53330000D02*
X119395000Y-53330000D01*
X119395000Y-53330000D02*
X119395000Y-50670000D01*
%TO.C,D10*%
X125500000Y-90000000D02*
X125500000Y-83000000D01*
X125500000Y-90000000D02*
X131000000Y-90000000D01*
X129150000Y-83800000D02*
X127350000Y-83800000D01*
X129150000Y-89200000D02*
X127350000Y-89200000D01*
X130550000Y-83000000D02*
X125500000Y-83000000D01*
X131000000Y-83450000D02*
X130550000Y-83000000D01*
X131000000Y-90000000D02*
X131000000Y-83450000D01*
%TO.C,D16*%
X181250000Y-67200000D02*
X181250000Y-72250000D01*
X181700000Y-66750000D02*
X181250000Y-67200000D01*
X182050000Y-68600000D02*
X182050000Y-70400000D01*
X187450000Y-68600000D02*
X187450000Y-70400000D01*
X188250000Y-66750000D02*
X181700000Y-66750000D01*
X188250000Y-72250000D02*
X181250000Y-72250000D01*
X188250000Y-72250000D02*
X188250000Y-66750000D01*
%TO.C,D1*%
X98000000Y-39000000D02*
X98000000Y-45550000D01*
X98000000Y-45550000D02*
X98450000Y-46000000D01*
X98450000Y-46000000D02*
X103500000Y-46000000D01*
X99850000Y-39800000D02*
X101650000Y-39800000D01*
X99850000Y-45200000D02*
X101650000Y-45200000D01*
X103500000Y-39000000D02*
X98000000Y-39000000D01*
X103500000Y-39000000D02*
X103500000Y-46000000D01*
%TO.C,D17*%
X188750000Y-57700000D02*
X188750000Y-62750000D01*
X189200000Y-57250000D02*
X188750000Y-57700000D01*
X189550000Y-59100000D02*
X189550000Y-60900000D01*
X194950000Y-59100000D02*
X194950000Y-60900000D01*
X195750000Y-57250000D02*
X189200000Y-57250000D01*
X195750000Y-62750000D02*
X188750000Y-62750000D01*
X195750000Y-62750000D02*
X195750000Y-57250000D01*
%TO.C,J1*%
X142420000Y-37730000D02*
X143750000Y-37730000D01*
X142420000Y-39060000D02*
X142420000Y-37730000D01*
X142420000Y-40330000D02*
X142420000Y-48010000D01*
X142420000Y-40330000D02*
X145080000Y-40330000D01*
X142420000Y-48010000D02*
X145080000Y-48010000D01*
X145080000Y-40330000D02*
X145080000Y-48010000D01*
%TO.C,D4*%
X74750000Y-67200000D02*
X74750000Y-72250000D01*
X75200000Y-66750000D02*
X74750000Y-67200000D01*
X75550000Y-68600000D02*
X75550000Y-70400000D01*
X80950000Y-68600000D02*
X80950000Y-70400000D01*
X81750000Y-66750000D02*
X75200000Y-66750000D01*
X81750000Y-72250000D02*
X74750000Y-72250000D01*
X81750000Y-72250000D02*
X81750000Y-66750000D01*
%TO.C,U1*%
X129700000Y-38120000D02*
X127750000Y-38120000D01*
X129700000Y-38120000D02*
X131650000Y-38120000D01*
X129700000Y-43240000D02*
X127750000Y-43240000D01*
X129700000Y-43240000D02*
X131650000Y-43240000D01*
X127000000Y-38215000D02*
X126760000Y-37885000D01*
X127240000Y-37885000D01*
X127000000Y-38215000D01*
G36*
X127000000Y-38215000D02*
G01*
X126760000Y-37885000D01*
X127240000Y-37885000D01*
X127000000Y-38215000D01*
G37*
%TO.C,D21*%
X118740000Y-39820000D02*
X118740000Y-45330000D01*
X122040000Y-39820000D02*
X118740000Y-39820000D01*
X122040000Y-39820000D02*
X122040000Y-45330000D01*
%TO.C,D14*%
X147500000Y-83000000D02*
X147500000Y-76000000D01*
X147500000Y-83000000D02*
X153000000Y-83000000D01*
X151150000Y-76800000D02*
X149350000Y-76800000D01*
X151150000Y-82200000D02*
X149350000Y-82200000D01*
X152550000Y-76000000D02*
X147500000Y-76000000D01*
X153000000Y-76450000D02*
X152550000Y-76000000D01*
X153000000Y-83000000D02*
X153000000Y-76450000D01*
%TO.C,R3*%
X129487742Y-35152500D02*
X129962258Y-35152500D01*
X129487742Y-36197500D02*
X129962258Y-36197500D01*
%TO.C,D3*%
X67250000Y-57250000D02*
X67250000Y-62750000D01*
X67250000Y-57250000D02*
X74250000Y-57250000D01*
X67250000Y-62750000D02*
X73800000Y-62750000D01*
X68050000Y-60900000D02*
X68050000Y-59100000D01*
X73450000Y-60900000D02*
X73450000Y-59100000D01*
X73800000Y-62750000D02*
X74250000Y-62300000D01*
X74250000Y-62300000D02*
X74250000Y-57250000D01*
%TO.C,C3*%
X163220580Y-55690000D02*
X162939420Y-55690000D01*
X163220580Y-56710000D02*
X162939420Y-56710000D01*
%TO.C,D12*%
X136500000Y-89000000D02*
X136500000Y-82000000D01*
X136500000Y-89000000D02*
X142000000Y-89000000D01*
X140150000Y-82800000D02*
X138350000Y-82800000D01*
X140150000Y-88200000D02*
X138350000Y-88200000D01*
X141550000Y-82000000D02*
X136500000Y-82000000D01*
X142000000Y-82450000D02*
X141550000Y-82000000D01*
X142000000Y-89000000D02*
X142000000Y-82450000D01*
%TO.C,R2*%
X119867500Y-48567258D02*
X119867500Y-48092742D01*
X120912500Y-48567258D02*
X120912500Y-48092742D01*
%TO.C,D2*%
X76750000Y-31750000D02*
X76750000Y-37250000D01*
X76750000Y-31750000D02*
X83750000Y-31750000D01*
X76750000Y-37250000D02*
X83300000Y-37250000D01*
X77550000Y-35400000D02*
X77550000Y-33600000D01*
X82950000Y-35400000D02*
X82950000Y-33600000D01*
X83300000Y-37250000D02*
X83750000Y-36800000D01*
X83750000Y-36800000D02*
X83750000Y-31750000D01*
%TD*%
M02*
