%TF.GenerationSoftware,KiCad,Pcbnew,9.0.1*%
%TF.CreationDate,2025-05-09T16:18:32+02:00*%
%TF.ProjectId,hoofd nieuw V3,686f6f66-6420-46e6-9965-75772056332e,rev?*%
%TF.SameCoordinates,Original*%
%TF.FileFunction,Soldermask,Top*%
%TF.FilePolarity,Negative*%
%FSLAX46Y46*%
G04 Gerber Fmt 4.6, Leading zero omitted, Abs format (unit mm)*
G04 Created by KiCad (PCBNEW 9.0.1) date 2025-05-09 16:18:32*
%MOMM*%
%LPD*%
G01*
G04 APERTURE LIST*
G04 Aperture macros list*
%AMRoundRect*
0 Rectangle with rounded corners*
0 $1 Rounding radius*
0 $2 $3 $4 $5 $6 $7 $8 $9 X,Y pos of 4 corners*
0 Add a 4 corners polygon primitive as box body*
4,1,4,$2,$3,$4,$5,$6,$7,$8,$9,$2,$3,0*
0 Add four circle primitives for the rounded corners*
1,1,$1+$1,$2,$3*
1,1,$1+$1,$4,$5*
1,1,$1+$1,$6,$7*
1,1,$1+$1,$8,$9*
0 Add four rect primitives between the rounded corners*
20,1,$1+$1,$2,$3,$4,$5,0*
20,1,$1+$1,$4,$5,$6,$7,0*
20,1,$1+$1,$6,$7,$8,$9,0*
20,1,$1+$1,$8,$9,$2,$3,0*%
G04 Aperture macros list end*
%ADD10RoundRect,0.090000X0.360000X-0.660000X0.360000X0.660000X-0.360000X0.660000X-0.360000X-0.660000X0*%
%ADD11R,0.200000X0.280000*%
%ADD12RoundRect,0.225000X0.225000X0.250000X-0.225000X0.250000X-0.225000X-0.250000X0.225000X-0.250000X0*%
%ADD13RoundRect,0.225000X-0.225000X-0.250000X0.225000X-0.250000X0.225000X0.250000X-0.225000X0.250000X0*%
%ADD14R,1.700000X1.700000*%
%ADD15O,1.700000X1.700000*%
%ADD16RoundRect,0.090000X-0.660000X-0.360000X0.660000X-0.360000X0.660000X0.360000X-0.660000X0.360000X0*%
%ADD17RoundRect,0.090000X0.660000X0.360000X-0.660000X0.360000X-0.660000X-0.360000X0.660000X-0.360000X0*%
%ADD18RoundRect,0.250000X-0.250000X-0.750000X0.250000X-0.750000X0.250000X0.750000X-0.250000X0.750000X0*%
%ADD19RoundRect,0.165000X0.485000X0.385000X-0.485000X0.385000X-0.485000X-0.385000X0.485000X-0.385000X0*%
%ADD20RoundRect,0.090000X-0.360000X0.660000X-0.360000X-0.660000X0.360000X-0.660000X0.360000X0.660000X0*%
%ADD21C,3.500000*%
%ADD22RoundRect,0.150000X-0.825000X-0.150000X0.825000X-0.150000X0.825000X0.150000X-0.825000X0.150000X0*%
%ADD23RoundRect,0.250000X0.750000X-0.250000X0.750000X0.250000X-0.750000X0.250000X-0.750000X-0.250000X0*%
%ADD24RoundRect,0.250000X-0.650000X1.000000X-0.650000X-1.000000X0.650000X-1.000000X0.650000X1.000000X0*%
%ADD25RoundRect,0.100000X-0.200000X-0.100000X0.200000X-0.100000X0.200000X0.100000X-0.200000X0.100000X0*%
%ADD26R,1.500000X2.400000*%
%ADD27RoundRect,0.200000X-0.200000X-0.275000X0.200000X-0.275000X0.200000X0.275000X-0.200000X0.275000X0*%
%ADD28RoundRect,0.150000X-0.512500X-0.150000X0.512500X-0.150000X0.512500X0.150000X-0.512500X0.150000X0*%
%ADD29RoundRect,0.200000X0.275000X-0.200000X0.275000X0.200000X-0.275000X0.200000X-0.275000X-0.200000X0*%
G04 APERTURE END LIST*
D10*
%TO.C,D5*%
X96600000Y-63450000D03*
X99900000Y-63450000D03*
X99900000Y-58550000D03*
X96600000Y-58550000D03*
%TD*%
D11*
%TO.C,D6*%
X116075000Y-54275000D03*
X115675000Y-54275000D03*
%TD*%
D12*
%TO.C,C2*%
X136225000Y-36650000D03*
X134675000Y-36650000D03*
%TD*%
D13*
%TO.C,C1*%
X128950000Y-37200000D03*
X130500000Y-37200000D03*
%TD*%
D14*
%TO.C,J4*%
X132150000Y-33150000D03*
D15*
X129610000Y-33150000D03*
X127070000Y-33150000D03*
%TD*%
D10*
%TO.C,D13*%
X143100000Y-84950000D03*
X146400000Y-84950000D03*
X146400000Y-80050000D03*
X143100000Y-80050000D03*
%TD*%
D14*
%TO.C,J3*%
X123310000Y-60450000D03*
D15*
X125850000Y-60450000D03*
X128390000Y-60450000D03*
X130930000Y-60450000D03*
X133470000Y-60450000D03*
%TD*%
D12*
%TO.C,C5*%
X100625000Y-47500000D03*
X99075000Y-47500000D03*
%TD*%
D13*
%TO.C,C4*%
X111835000Y-73810000D03*
X113385000Y-73810000D03*
%TD*%
D10*
%TO.C,D8*%
X115600000Y-84950000D03*
X118900000Y-84950000D03*
X118900000Y-80050000D03*
X115600000Y-80050000D03*
%TD*%
D16*
%TO.C,D19*%
X159300000Y-40850000D03*
X159300000Y-44150000D03*
X164200000Y-44150000D03*
X164200000Y-40850000D03*
%TD*%
D10*
%TO.C,D9*%
X121100000Y-87950000D03*
X124400000Y-87950000D03*
X124400000Y-83050000D03*
X121100000Y-83050000D03*
%TD*%
D16*
%TO.C,D18*%
X179300000Y-32850000D03*
X179300000Y-36150000D03*
X184200000Y-36150000D03*
X184200000Y-32850000D03*
%TD*%
D12*
%TO.C,C9*%
X153445000Y-73510000D03*
X151895000Y-73510000D03*
%TD*%
D17*
%TO.C,D15*%
X167200000Y-62650000D03*
X167200000Y-59350000D03*
X162300000Y-59350000D03*
X162300000Y-62650000D03*
%TD*%
D10*
%TO.C,D11*%
X132100000Y-88950000D03*
X135400000Y-88950000D03*
X135400000Y-84050000D03*
X132100000Y-84050000D03*
%TD*%
%TO.C,D7*%
X110100000Y-81950000D03*
X113400000Y-81950000D03*
X113400000Y-77050000D03*
X110100000Y-77050000D03*
%TD*%
D18*
%TO.C,J7*%
X87700000Y-65300000D03*
%TD*%
D14*
%TO.C,J2*%
X115525000Y-52000000D03*
D15*
X118065000Y-52000000D03*
%TD*%
D18*
%TO.C,J8*%
X181200000Y-65200000D03*
%TD*%
D10*
%TO.C,D10*%
X126600000Y-88950000D03*
X129900000Y-88950000D03*
X129900000Y-84050000D03*
X126600000Y-84050000D03*
%TD*%
D19*
%TO.C,Y1*%
X136850000Y-38150000D03*
X134550000Y-38150000D03*
X134550000Y-40050000D03*
X136850000Y-40050000D03*
%TD*%
D17*
%TO.C,D16*%
X187200000Y-71150000D03*
X187200000Y-67850000D03*
X182300000Y-67850000D03*
X182300000Y-71150000D03*
%TD*%
D20*
%TO.C,D1*%
X102400000Y-40050000D03*
X99100000Y-40050000D03*
X99100000Y-44950000D03*
X102400000Y-44950000D03*
%TD*%
D21*
%TO.C,H1*%
X52250000Y-49250000D03*
%TD*%
D17*
%TO.C,D17*%
X194700000Y-61650000D03*
X194700000Y-58350000D03*
X189800000Y-58350000D03*
X189800000Y-61650000D03*
%TD*%
D21*
%TO.C,H2*%
X213260000Y-49750000D03*
%TD*%
D14*
%TO.C,J1*%
X143750000Y-39060000D03*
D15*
X143750000Y-41600000D03*
X143750000Y-44140000D03*
X143750000Y-46680000D03*
%TD*%
D17*
%TO.C,D4*%
X80700000Y-71150000D03*
X80700000Y-67850000D03*
X75800000Y-67850000D03*
X75800000Y-71150000D03*
%TD*%
D22*
%TO.C,U1*%
X127225000Y-38775000D03*
X127225000Y-40045000D03*
X127225000Y-41315000D03*
X127225000Y-42585000D03*
X132175000Y-42585000D03*
X132175000Y-41315000D03*
X132175000Y-40045000D03*
X132175000Y-38775000D03*
%TD*%
D23*
%TO.C,J6*%
X124170000Y-40040000D03*
%TD*%
%TO.C,J5*%
X156610000Y-44140000D03*
%TD*%
D24*
%TO.C,D21*%
X120390000Y-41330000D03*
X120390000Y-45330000D03*
%TD*%
D25*
%TO.C,U3*%
X177100000Y-65050000D03*
X177100000Y-66000000D03*
X177100000Y-66950000D03*
X179900000Y-66950000D03*
X179900000Y-66000000D03*
X179900000Y-65050000D03*
D26*
X178500000Y-66000000D03*
%TD*%
D10*
%TO.C,D14*%
X148600000Y-81950000D03*
X151900000Y-81950000D03*
X151900000Y-77050000D03*
X148600000Y-77050000D03*
%TD*%
D27*
%TO.C,R3*%
X128900000Y-35675000D03*
X130550000Y-35675000D03*
%TD*%
D16*
%TO.C,D3*%
X68300000Y-58350000D03*
X68300000Y-61650000D03*
X73200000Y-61650000D03*
X73200000Y-58350000D03*
%TD*%
D12*
%TO.C,C3*%
X163855000Y-56200000D03*
X162305000Y-56200000D03*
%TD*%
D10*
%TO.C,D12*%
X137600000Y-87950000D03*
X140900000Y-87950000D03*
X140900000Y-83050000D03*
X137600000Y-83050000D03*
%TD*%
D28*
%TO.C,U4*%
X138762500Y-42400000D03*
X138762500Y-43350000D03*
X138762500Y-44300000D03*
X141037500Y-44300000D03*
X141037500Y-43350000D03*
X141037500Y-42400000D03*
%TD*%
D25*
%TO.C,U2*%
X83200000Y-65050000D03*
X83200000Y-66000000D03*
X83200000Y-66950000D03*
X86000000Y-66950000D03*
X86000000Y-66000000D03*
X86000000Y-65050000D03*
D26*
X84600000Y-66000000D03*
%TD*%
D29*
%TO.C,R2*%
X120390000Y-49155000D03*
X120390000Y-47505000D03*
%TD*%
D16*
%TO.C,D2*%
X77800000Y-32850000D03*
X77800000Y-36150000D03*
X82700000Y-36150000D03*
X82700000Y-32850000D03*
%TD*%
M02*
