%TF.GenerationSoftware,KiCad,Pcbnew,9.0.1*%
%TF.CreationDate,2025-05-07T21:08:06+02:00*%
%TF.ProjectId,hoofd nieuw V3,686f6f66-6420-46e6-9965-75772056332e,rev?*%
%TF.SameCoordinates,Original*%
%TF.FileFunction,Legend,Bot*%
%TF.FilePolarity,Positive*%
%FSLAX46Y46*%
G04 Gerber Fmt 4.6, Leading zero omitted, Abs format (unit mm)*
G04 Created by KiCad (PCBNEW 9.0.1) date 2025-05-07 21:08:06*
%MOMM*%
%LPD*%
G01*
G04 APERTURE LIST*
%ADD10C,0.375000*%
G04 APERTURE END LIST*
D10*
X155610432Y-52283525D02*
X155896147Y-52140668D01*
X155896147Y-52140668D02*
X156039004Y-51997810D01*
X156039004Y-51997810D02*
X156181861Y-51712096D01*
X156181861Y-51712096D02*
X156181861Y-50854953D01*
X156181861Y-50854953D02*
X156039004Y-50569239D01*
X156039004Y-50569239D02*
X155896147Y-50426382D01*
X155896147Y-50426382D02*
X155610432Y-50283525D01*
X155610432Y-50283525D02*
X155181861Y-50283525D01*
X155181861Y-50283525D02*
X154896147Y-50426382D01*
X154896147Y-50426382D02*
X154753290Y-50569239D01*
X154753290Y-50569239D02*
X154610432Y-50854953D01*
X154610432Y-50854953D02*
X154610432Y-51712096D01*
X154610432Y-51712096D02*
X154753290Y-51997810D01*
X154753290Y-51997810D02*
X154896147Y-52140668D01*
X154896147Y-52140668D02*
X155181861Y-52283525D01*
X155181861Y-52283525D02*
X155610432Y-52283525D01*
X153324718Y-50283525D02*
X153324718Y-52283525D01*
X153324718Y-50569239D02*
X153181861Y-50426382D01*
X153181861Y-50426382D02*
X152896146Y-50283525D01*
X152896146Y-50283525D02*
X152467575Y-50283525D01*
X152467575Y-50283525D02*
X152181861Y-50426382D01*
X152181861Y-50426382D02*
X152039004Y-50712096D01*
X152039004Y-50712096D02*
X152039004Y-52283525D01*
X151039003Y-50283525D02*
X149896146Y-50283525D01*
X150610432Y-49283525D02*
X150610432Y-51854953D01*
X150610432Y-51854953D02*
X150467575Y-52140668D01*
X150467575Y-52140668D02*
X150181860Y-52283525D01*
X150181860Y-52283525D02*
X149896146Y-52283525D01*
X149181860Y-50283525D02*
X148610432Y-52283525D01*
X148610432Y-52283525D02*
X148039003Y-50854953D01*
X148039003Y-50854953D02*
X147467574Y-52283525D01*
X147467574Y-52283525D02*
X146896146Y-50283525D01*
X145324717Y-52283525D02*
X145610432Y-52140668D01*
X145610432Y-52140668D02*
X145753289Y-51997810D01*
X145753289Y-51997810D02*
X145896146Y-51712096D01*
X145896146Y-51712096D02*
X145896146Y-50854953D01*
X145896146Y-50854953D02*
X145753289Y-50569239D01*
X145753289Y-50569239D02*
X145610432Y-50426382D01*
X145610432Y-50426382D02*
X145324717Y-50283525D01*
X145324717Y-50283525D02*
X144896146Y-50283525D01*
X144896146Y-50283525D02*
X144610432Y-50426382D01*
X144610432Y-50426382D02*
X144467575Y-50569239D01*
X144467575Y-50569239D02*
X144324717Y-50854953D01*
X144324717Y-50854953D02*
X144324717Y-51712096D01*
X144324717Y-51712096D02*
X144467575Y-51997810D01*
X144467575Y-51997810D02*
X144610432Y-52140668D01*
X144610432Y-52140668D02*
X144896146Y-52283525D01*
X144896146Y-52283525D02*
X145324717Y-52283525D01*
X143039003Y-52283525D02*
X143039003Y-50283525D01*
X143039003Y-50854953D02*
X142896146Y-50569239D01*
X142896146Y-50569239D02*
X142753289Y-50426382D01*
X142753289Y-50426382D02*
X142467574Y-50283525D01*
X142467574Y-50283525D02*
X142181860Y-50283525D01*
X141181860Y-50283525D02*
X141181860Y-53283525D01*
X141181860Y-50426382D02*
X140896146Y-50283525D01*
X140896146Y-50283525D02*
X140324717Y-50283525D01*
X140324717Y-50283525D02*
X140039003Y-50426382D01*
X140039003Y-50426382D02*
X139896146Y-50569239D01*
X139896146Y-50569239D02*
X139753288Y-50854953D01*
X139753288Y-50854953D02*
X139753288Y-51712096D01*
X139753288Y-51712096D02*
X139896146Y-51997810D01*
X139896146Y-51997810D02*
X140039003Y-52140668D01*
X140039003Y-52140668D02*
X140324717Y-52283525D01*
X140324717Y-52283525D02*
X140896146Y-52283525D01*
X140896146Y-52283525D02*
X141181860Y-52140668D01*
X137324717Y-52140668D02*
X137610431Y-52283525D01*
X137610431Y-52283525D02*
X138181860Y-52283525D01*
X138181860Y-52283525D02*
X138467574Y-52140668D01*
X138467574Y-52140668D02*
X138610431Y-51854953D01*
X138610431Y-51854953D02*
X138610431Y-50712096D01*
X138610431Y-50712096D02*
X138467574Y-50426382D01*
X138467574Y-50426382D02*
X138181860Y-50283525D01*
X138181860Y-50283525D02*
X137610431Y-50283525D01*
X137610431Y-50283525D02*
X137324717Y-50426382D01*
X137324717Y-50426382D02*
X137181860Y-50712096D01*
X137181860Y-50712096D02*
X137181860Y-50997810D01*
X137181860Y-50997810D02*
X138610431Y-51283525D01*
X135896145Y-50283525D02*
X135896145Y-52283525D01*
X135896145Y-50569239D02*
X135753288Y-50426382D01*
X135753288Y-50426382D02*
X135467573Y-50283525D01*
X135467573Y-50283525D02*
X135039002Y-50283525D01*
X135039002Y-50283525D02*
X134753288Y-50426382D01*
X134753288Y-50426382D02*
X134610431Y-50712096D01*
X134610431Y-50712096D02*
X134610431Y-52283525D01*
X129610431Y-52283525D02*
X129610431Y-49283525D01*
X129610431Y-52140668D02*
X129896145Y-52283525D01*
X129896145Y-52283525D02*
X130467573Y-52283525D01*
X130467573Y-52283525D02*
X130753288Y-52140668D01*
X130753288Y-52140668D02*
X130896145Y-51997810D01*
X130896145Y-51997810D02*
X131039002Y-51712096D01*
X131039002Y-51712096D02*
X131039002Y-50854953D01*
X131039002Y-50854953D02*
X130896145Y-50569239D01*
X130896145Y-50569239D02*
X130753288Y-50426382D01*
X130753288Y-50426382D02*
X130467573Y-50283525D01*
X130467573Y-50283525D02*
X129896145Y-50283525D01*
X129896145Y-50283525D02*
X129610431Y-50426382D01*
X127753287Y-52283525D02*
X128039002Y-52140668D01*
X128039002Y-52140668D02*
X128181859Y-51997810D01*
X128181859Y-51997810D02*
X128324716Y-51712096D01*
X128324716Y-51712096D02*
X128324716Y-50854953D01*
X128324716Y-50854953D02*
X128181859Y-50569239D01*
X128181859Y-50569239D02*
X128039002Y-50426382D01*
X128039002Y-50426382D02*
X127753287Y-50283525D01*
X127753287Y-50283525D02*
X127324716Y-50283525D01*
X127324716Y-50283525D02*
X127039002Y-50426382D01*
X127039002Y-50426382D02*
X126896145Y-50569239D01*
X126896145Y-50569239D02*
X126753287Y-50854953D01*
X126753287Y-50854953D02*
X126753287Y-51712096D01*
X126753287Y-51712096D02*
X126896145Y-51997810D01*
X126896145Y-51997810D02*
X127039002Y-52140668D01*
X127039002Y-52140668D02*
X127324716Y-52283525D01*
X127324716Y-52283525D02*
X127753287Y-52283525D01*
X125039001Y-52283525D02*
X125324716Y-52140668D01*
X125324716Y-52140668D02*
X125467573Y-51997810D01*
X125467573Y-51997810D02*
X125610430Y-51712096D01*
X125610430Y-51712096D02*
X125610430Y-50854953D01*
X125610430Y-50854953D02*
X125467573Y-50569239D01*
X125467573Y-50569239D02*
X125324716Y-50426382D01*
X125324716Y-50426382D02*
X125039001Y-50283525D01*
X125039001Y-50283525D02*
X124610430Y-50283525D01*
X124610430Y-50283525D02*
X124324716Y-50426382D01*
X124324716Y-50426382D02*
X124181859Y-50569239D01*
X124181859Y-50569239D02*
X124039001Y-50854953D01*
X124039001Y-50854953D02*
X124039001Y-51712096D01*
X124039001Y-51712096D02*
X124181859Y-51997810D01*
X124181859Y-51997810D02*
X124324716Y-52140668D01*
X124324716Y-52140668D02*
X124610430Y-52283525D01*
X124610430Y-52283525D02*
X125039001Y-52283525D01*
X122753287Y-52283525D02*
X122753287Y-50283525D01*
X122753287Y-50854953D02*
X122610430Y-50569239D01*
X122610430Y-50569239D02*
X122467573Y-50426382D01*
X122467573Y-50426382D02*
X122181858Y-50283525D01*
X122181858Y-50283525D02*
X121896144Y-50283525D01*
X156181861Y-56970500D02*
X155753290Y-57113357D01*
X155753290Y-57113357D02*
X155039004Y-57113357D01*
X155039004Y-57113357D02*
X154753290Y-56970500D01*
X154753290Y-56970500D02*
X154610432Y-56827642D01*
X154610432Y-56827642D02*
X154467575Y-56541928D01*
X154467575Y-56541928D02*
X154467575Y-56256214D01*
X154467575Y-56256214D02*
X154610432Y-55970500D01*
X154610432Y-55970500D02*
X154753290Y-55827642D01*
X154753290Y-55827642D02*
X155039004Y-55684785D01*
X155039004Y-55684785D02*
X155610432Y-55541928D01*
X155610432Y-55541928D02*
X155896147Y-55399071D01*
X155896147Y-55399071D02*
X156039004Y-55256214D01*
X156039004Y-55256214D02*
X156181861Y-54970500D01*
X156181861Y-54970500D02*
X156181861Y-54684785D01*
X156181861Y-54684785D02*
X156039004Y-54399071D01*
X156039004Y-54399071D02*
X155896147Y-54256214D01*
X155896147Y-54256214D02*
X155610432Y-54113357D01*
X155610432Y-54113357D02*
X154896147Y-54113357D01*
X154896147Y-54113357D02*
X154467575Y-54256214D01*
X153610432Y-55113357D02*
X152467575Y-55113357D01*
X153181861Y-54113357D02*
X153181861Y-56684785D01*
X153181861Y-56684785D02*
X153039004Y-56970500D01*
X153039004Y-56970500D02*
X152753289Y-57113357D01*
X152753289Y-57113357D02*
X152467575Y-57113357D01*
X150181861Y-57113357D02*
X150181861Y-55541928D01*
X150181861Y-55541928D02*
X150324718Y-55256214D01*
X150324718Y-55256214D02*
X150610432Y-55113357D01*
X150610432Y-55113357D02*
X151181861Y-55113357D01*
X151181861Y-55113357D02*
X151467575Y-55256214D01*
X150181861Y-56970500D02*
X150467575Y-57113357D01*
X150467575Y-57113357D02*
X151181861Y-57113357D01*
X151181861Y-57113357D02*
X151467575Y-56970500D01*
X151467575Y-56970500D02*
X151610432Y-56684785D01*
X151610432Y-56684785D02*
X151610432Y-56399071D01*
X151610432Y-56399071D02*
X151467575Y-56113357D01*
X151467575Y-56113357D02*
X151181861Y-55970500D01*
X151181861Y-55970500D02*
X150467575Y-55970500D01*
X150467575Y-55970500D02*
X150181861Y-55827642D01*
X148753289Y-55113357D02*
X148753289Y-57113357D01*
X148753289Y-55399071D02*
X148610432Y-55256214D01*
X148610432Y-55256214D02*
X148324717Y-55113357D01*
X148324717Y-55113357D02*
X147896146Y-55113357D01*
X147896146Y-55113357D02*
X147610432Y-55256214D01*
X147610432Y-55256214D02*
X147467575Y-55541928D01*
X147467575Y-55541928D02*
X147467575Y-57113357D01*
X143753289Y-57113357D02*
X143753289Y-54113357D01*
X143753289Y-54113357D02*
X143039003Y-54113357D01*
X143039003Y-54113357D02*
X142610432Y-54256214D01*
X142610432Y-54256214D02*
X142324717Y-54541928D01*
X142324717Y-54541928D02*
X142181860Y-54827642D01*
X142181860Y-54827642D02*
X142039003Y-55399071D01*
X142039003Y-55399071D02*
X142039003Y-55827642D01*
X142039003Y-55827642D02*
X142181860Y-56399071D01*
X142181860Y-56399071D02*
X142324717Y-56684785D01*
X142324717Y-56684785D02*
X142610432Y-56970500D01*
X142610432Y-56970500D02*
X143039003Y-57113357D01*
X143039003Y-57113357D02*
X143753289Y-57113357D01*
X139610432Y-56970500D02*
X139896146Y-57113357D01*
X139896146Y-57113357D02*
X140467575Y-57113357D01*
X140467575Y-57113357D02*
X140753289Y-56970500D01*
X140753289Y-56970500D02*
X140896146Y-56684785D01*
X140896146Y-56684785D02*
X140896146Y-55541928D01*
X140896146Y-55541928D02*
X140753289Y-55256214D01*
X140753289Y-55256214D02*
X140467575Y-55113357D01*
X140467575Y-55113357D02*
X139896146Y-55113357D01*
X139896146Y-55113357D02*
X139610432Y-55256214D01*
X139610432Y-55256214D02*
X139467575Y-55541928D01*
X139467575Y-55541928D02*
X139467575Y-55827642D01*
X139467575Y-55827642D02*
X140896146Y-56113357D01*
X138181860Y-57113357D02*
X138181860Y-54113357D01*
X138181860Y-55256214D02*
X137896146Y-55113357D01*
X137896146Y-55113357D02*
X137324717Y-55113357D01*
X137324717Y-55113357D02*
X137039003Y-55256214D01*
X137039003Y-55256214D02*
X136896146Y-55399071D01*
X136896146Y-55399071D02*
X136753288Y-55684785D01*
X136753288Y-55684785D02*
X136753288Y-56541928D01*
X136753288Y-56541928D02*
X136896146Y-56827642D01*
X136896146Y-56827642D02*
X137039003Y-56970500D01*
X137039003Y-56970500D02*
X137324717Y-57113357D01*
X137324717Y-57113357D02*
X137896146Y-57113357D01*
X137896146Y-57113357D02*
X138181860Y-56970500D01*
X134181860Y-57113357D02*
X134181860Y-55541928D01*
X134181860Y-55541928D02*
X134324717Y-55256214D01*
X134324717Y-55256214D02*
X134610431Y-55113357D01*
X134610431Y-55113357D02*
X135181860Y-55113357D01*
X135181860Y-55113357D02*
X135467574Y-55256214D01*
X134181860Y-56970500D02*
X134467574Y-57113357D01*
X134467574Y-57113357D02*
X135181860Y-57113357D01*
X135181860Y-57113357D02*
X135467574Y-56970500D01*
X135467574Y-56970500D02*
X135610431Y-56684785D01*
X135610431Y-56684785D02*
X135610431Y-56399071D01*
X135610431Y-56399071D02*
X135467574Y-56113357D01*
X135467574Y-56113357D02*
X135181860Y-55970500D01*
X135181860Y-55970500D02*
X134467574Y-55970500D01*
X134467574Y-55970500D02*
X134181860Y-55827642D01*
X132753288Y-57113357D02*
X132753288Y-54113357D01*
X132467574Y-55970500D02*
X131610431Y-57113357D01*
X131610431Y-55113357D02*
X132753288Y-56256214D01*
X130324717Y-57113357D02*
X130324717Y-54113357D01*
X130039003Y-55970500D02*
X129181860Y-57113357D01*
X129181860Y-55113357D02*
X130324717Y-56256214D01*
X126753289Y-56970500D02*
X127039003Y-57113357D01*
X127039003Y-57113357D02*
X127610432Y-57113357D01*
X127610432Y-57113357D02*
X127896146Y-56970500D01*
X127896146Y-56970500D02*
X128039003Y-56684785D01*
X128039003Y-56684785D02*
X128039003Y-55541928D01*
X128039003Y-55541928D02*
X127896146Y-55256214D01*
X127896146Y-55256214D02*
X127610432Y-55113357D01*
X127610432Y-55113357D02*
X127039003Y-55113357D01*
X127039003Y-55113357D02*
X126753289Y-55256214D01*
X126753289Y-55256214D02*
X126610432Y-55541928D01*
X126610432Y-55541928D02*
X126610432Y-55827642D01*
X126610432Y-55827642D02*
X128039003Y-56113357D01*
X125324717Y-57113357D02*
X125324717Y-55113357D01*
X125324717Y-55684785D02*
X125181860Y-55399071D01*
X125181860Y-55399071D02*
X125039003Y-55256214D01*
X125039003Y-55256214D02*
X124753288Y-55113357D01*
X124753288Y-55113357D02*
X124467574Y-55113357D01*
M02*
