%TF.GenerationSoftware,KiCad,Pcbnew,9.0.1*%
%TF.CreationDate,2025-05-07T21:08:06+02:00*%
%TF.ProjectId,hoofd nieuw V3,686f6f66-6420-46e6-9965-75772056332e,rev?*%
%TF.SameCoordinates,Original*%
%TF.FileFunction,Copper,L1,Top*%
%TF.FilePolarity,Positive*%
%FSLAX46Y46*%
G04 Gerber Fmt 4.6, Leading zero omitted, Abs format (unit mm)*
G04 Created by KiCad (PCBNEW 9.0.1) date 2025-05-07 21:08:06*
%MOMM*%
%LPD*%
G01*
G04 APERTURE LIST*
G04 Aperture macros list*
%AMRoundRect*
0 Rectangle with rounded corners*
0 $1 Rounding radius*
0 $2 $3 $4 $5 $6 $7 $8 $9 X,Y pos of 4 corners*
0 Add a 4 corners polygon primitive as box body*
4,1,4,$2,$3,$4,$5,$6,$7,$8,$9,$2,$3,0*
0 Add four circle primitives for the rounded corners*
1,1,$1+$1,$2,$3*
1,1,$1+$1,$4,$5*
1,1,$1+$1,$6,$7*
1,1,$1+$1,$8,$9*
0 Add four rect primitives between the rounded corners*
20,1,$1+$1,$2,$3,$4,$5,0*
20,1,$1+$1,$4,$5,$6,$7,0*
20,1,$1+$1,$6,$7,$8,$9,0*
20,1,$1+$1,$8,$9,$2,$3,0*%
G04 Aperture macros list end*
%TA.AperFunction,SMDPad,CuDef*%
%ADD10RoundRect,0.100000X-0.200000X-0.100000X0.200000X-0.100000X0.200000X0.100000X-0.200000X0.100000X0*%
%TD*%
%TA.AperFunction,SMDPad,CuDef*%
%ADD11R,1.500000X2.400000*%
%TD*%
%TA.AperFunction,SMDPad,CuDef*%
%ADD12RoundRect,0.250000X-0.250000X-0.750000X0.250000X-0.750000X0.250000X0.750000X-0.250000X0.750000X0*%
%TD*%
%TA.AperFunction,SMDPad,CuDef*%
%ADD13RoundRect,0.090000X0.360000X-0.660000X0.360000X0.660000X-0.360000X0.660000X-0.360000X-0.660000X0*%
%TD*%
%TA.AperFunction,SMDPad,CuDef*%
%ADD14R,0.200000X0.280000*%
%TD*%
%TA.AperFunction,SMDPad,CuDef*%
%ADD15RoundRect,0.225000X0.225000X0.250000X-0.225000X0.250000X-0.225000X-0.250000X0.225000X-0.250000X0*%
%TD*%
%TA.AperFunction,SMDPad,CuDef*%
%ADD16RoundRect,0.225000X-0.225000X-0.250000X0.225000X-0.250000X0.225000X0.250000X-0.225000X0.250000X0*%
%TD*%
%TA.AperFunction,ComponentPad*%
%ADD17R,1.700000X1.700000*%
%TD*%
%TA.AperFunction,ComponentPad*%
%ADD18O,1.700000X1.700000*%
%TD*%
%TA.AperFunction,SMDPad,CuDef*%
%ADD19RoundRect,0.090000X-0.660000X-0.360000X0.660000X-0.360000X0.660000X0.360000X-0.660000X0.360000X0*%
%TD*%
%TA.AperFunction,SMDPad,CuDef*%
%ADD20RoundRect,0.090000X0.660000X0.360000X-0.660000X0.360000X-0.660000X-0.360000X0.660000X-0.360000X0*%
%TD*%
%TA.AperFunction,SMDPad,CuDef*%
%ADD21RoundRect,0.165000X0.485000X0.385000X-0.485000X0.385000X-0.485000X-0.385000X0.485000X-0.385000X0*%
%TD*%
%TA.AperFunction,SMDPad,CuDef*%
%ADD22RoundRect,0.090000X-0.360000X0.660000X-0.360000X-0.660000X0.360000X-0.660000X0.360000X0.660000X0*%
%TD*%
%TA.AperFunction,SMDPad,CuDef*%
%ADD23RoundRect,0.150000X-0.825000X-0.150000X0.825000X-0.150000X0.825000X0.150000X-0.825000X0.150000X0*%
%TD*%
%TA.AperFunction,SMDPad,CuDef*%
%ADD24RoundRect,0.250000X0.750000X-0.250000X0.750000X0.250000X-0.750000X0.250000X-0.750000X-0.250000X0*%
%TD*%
%TA.AperFunction,SMDPad,CuDef*%
%ADD25RoundRect,0.250000X-0.650000X1.000000X-0.650000X-1.000000X0.650000X-1.000000X0.650000X1.000000X0*%
%TD*%
%TA.AperFunction,SMDPad,CuDef*%
%ADD26RoundRect,0.200000X-0.200000X-0.275000X0.200000X-0.275000X0.200000X0.275000X-0.200000X0.275000X0*%
%TD*%
%TA.AperFunction,SMDPad,CuDef*%
%ADD27RoundRect,0.200000X0.275000X-0.200000X0.275000X0.200000X-0.275000X0.200000X-0.275000X-0.200000X0*%
%TD*%
%TA.AperFunction,ViaPad*%
%ADD28C,0.600000*%
%TD*%
%TA.AperFunction,Conductor*%
%ADD29C,0.250000*%
%TD*%
%TA.AperFunction,Conductor*%
%ADD30C,0.500000*%
%TD*%
%TA.AperFunction,Conductor*%
%ADD31C,0.550000*%
%TD*%
%TA.AperFunction,Conductor*%
%ADD32C,1.700000*%
%TD*%
%TA.AperFunction,Conductor*%
%ADD33C,0.300000*%
%TD*%
%TA.AperFunction,Conductor*%
%ADD34C,0.600000*%
%TD*%
G04 APERTURE END LIST*
D10*
%TO.P,U3,1,VDD*%
%TO.N,+3.3V*%
X177100000Y-65050000D03*
%TO.P,U3,2,ADDR*%
%TO.N,GND*%
X177100000Y-66000000D03*
%TO.P,U3,3,GND*%
X177100000Y-66950000D03*
%TO.P,U3,4,SCL*%
%TO.N,/SCL*%
X179900000Y-66950000D03*
%TO.P,U3,5,~{INT}*%
%TO.N,Net-(J8-Pin_1)*%
X179900000Y-66000000D03*
%TO.P,U3,6,SDA*%
%TO.N,/SDA*%
X179900000Y-65050000D03*
D11*
%TO.P,U3,7,Epad*%
%TO.N,GND*%
X178500000Y-66000000D03*
%TD*%
D10*
%TO.P,U2,1,VDD*%
%TO.N,+3.3V*%
X83200000Y-65050000D03*
%TO.P,U2,2,ADDR*%
X83200000Y-66000000D03*
%TO.P,U2,3,GND*%
%TO.N,GND*%
X83200000Y-66950000D03*
%TO.P,U2,4,SCL*%
%TO.N,/SCL*%
X86000000Y-66950000D03*
%TO.P,U2,5,~{INT}*%
%TO.N,Net-(J7-Pin_1)*%
X86000000Y-66000000D03*
%TO.P,U2,6,SDA*%
%TO.N,/SDA*%
X86000000Y-65050000D03*
D11*
%TO.P,U2,7,Epad*%
%TO.N,GND*%
X84600000Y-66000000D03*
%TD*%
D12*
%TO.P,J8,1,Pin_1*%
%TO.N,Net-(J8-Pin_1)*%
X181200000Y-65200000D03*
%TD*%
%TO.P,J7,1,Pin_1*%
%TO.N,Net-(J7-Pin_1)*%
X87700000Y-65300000D03*
%TD*%
D13*
%TO.P,D5,1,VDD*%
%TO.N,+5V*%
X96600000Y-63450000D03*
%TO.P,D5,2,DOUT*%
%TO.N,Net-(D5-DOUT)*%
X99900000Y-63450000D03*
%TO.P,D5,3,VSS*%
%TO.N,GND*%
X99900000Y-58550000D03*
%TO.P,D5,4,DIN*%
%TO.N,Net-(D4-DOUT)*%
X96600000Y-58550000D03*
%TD*%
D14*
%TO.P,D6,1,K1*%
%TO.N,GND*%
X116075000Y-54275000D03*
%TO.P,D6,2,K2*%
%TO.N,+5V*%
X115675000Y-54275000D03*
%TD*%
D15*
%TO.P,C2,1*%
%TO.N,+3.3V*%
X136225000Y-36650000D03*
%TO.P,C2,2*%
%TO.N,GND*%
X134675000Y-36650000D03*
%TD*%
D16*
%TO.P,C1,1*%
%TO.N,+3.3V*%
X128950000Y-37200000D03*
%TO.P,C1,2*%
%TO.N,GND*%
X130500000Y-37200000D03*
%TD*%
D17*
%TO.P,J4,1,Pin_1*%
%TO.N,GND*%
X132150000Y-33150000D03*
D18*
%TO.P,J4,2,Pin_2*%
%TO.N,Net-(J4-Pin_2)*%
X129610000Y-33150000D03*
%TO.P,J4,3,Pin_3*%
%TO.N,+3.3V*%
X127070000Y-33150000D03*
%TD*%
D13*
%TO.P,D13,1,VDD*%
%TO.N,+5V*%
X143100000Y-84950000D03*
%TO.P,D13,2,DOUT*%
%TO.N,Net-(D13-DOUT)*%
X146400000Y-84950000D03*
%TO.P,D13,3,VSS*%
%TO.N,GND*%
X146400000Y-80050000D03*
%TO.P,D13,4,DIN*%
%TO.N,Net-(D12-DOUT)*%
X143100000Y-80050000D03*
%TD*%
D17*
%TO.P,J3,1,Pin_1*%
%TO.N,+3.3V*%
X123310000Y-60450000D03*
D18*
%TO.P,J3,2,Pin_2*%
%TO.N,/SDA*%
X125850000Y-60450000D03*
%TO.P,J3,3,Pin_3*%
%TO.N,/SCL*%
X128390000Y-60450000D03*
%TO.P,J3,4,Pin_4*%
%TO.N,/mode*%
X130930000Y-60450000D03*
%TO.P,J3,5,Pin_5*%
%TO.N,GND*%
X133470000Y-60450000D03*
%TD*%
D15*
%TO.P,C5,1*%
%TO.N,+5V*%
X100625000Y-47500000D03*
%TO.P,C5,2*%
%TO.N,GND*%
X99075000Y-47500000D03*
%TD*%
D16*
%TO.P,C4,1*%
%TO.N,+5V*%
X111835000Y-73810000D03*
%TO.P,C4,2*%
%TO.N,GND*%
X113385000Y-73810000D03*
%TD*%
D13*
%TO.P,D8,1,VDD*%
%TO.N,+5V*%
X115600000Y-84950000D03*
%TO.P,D8,2,DOUT*%
%TO.N,Net-(D8-DOUT)*%
X118900000Y-84950000D03*
%TO.P,D8,3,VSS*%
%TO.N,GND*%
X118900000Y-80050000D03*
%TO.P,D8,4,DIN*%
%TO.N,Net-(D7-DOUT)*%
X115600000Y-80050000D03*
%TD*%
D19*
%TO.P,D19,1,VDD*%
%TO.N,+5V*%
X159300000Y-40850000D03*
%TO.P,D19,2,DOUT*%
%TO.N,Net-(D19-DOUT)*%
X159300000Y-44150000D03*
%TO.P,D19,3,VSS*%
%TO.N,GND*%
X164200000Y-44150000D03*
%TO.P,D19,4,DIN*%
%TO.N,Net-(D18-DOUT)*%
X164200000Y-40850000D03*
%TD*%
D13*
%TO.P,D9,1,VDD*%
%TO.N,+5V*%
X121100000Y-87950000D03*
%TO.P,D9,2,DOUT*%
%TO.N,Net-(D10-DIN)*%
X124400000Y-87950000D03*
%TO.P,D9,3,VSS*%
%TO.N,GND*%
X124400000Y-83050000D03*
%TO.P,D9,4,DIN*%
%TO.N,Net-(D8-DOUT)*%
X121100000Y-83050000D03*
%TD*%
D19*
%TO.P,D18,1,VDD*%
%TO.N,+5V*%
X179300000Y-32850000D03*
%TO.P,D18,2,DOUT*%
%TO.N,Net-(D18-DOUT)*%
X179300000Y-36150000D03*
%TO.P,D18,3,VSS*%
%TO.N,GND*%
X184200000Y-36150000D03*
%TO.P,D18,4,DIN*%
%TO.N,Net-(D17-DOUT)*%
X184200000Y-32850000D03*
%TD*%
D15*
%TO.P,C9,1*%
%TO.N,+5V*%
X153445000Y-73510000D03*
%TO.P,C9,2*%
%TO.N,GND*%
X151895000Y-73510000D03*
%TD*%
D20*
%TO.P,D15,1,VDD*%
%TO.N,+5V*%
X167200000Y-62650000D03*
%TO.P,D15,2,DOUT*%
%TO.N,Net-(D15-DOUT)*%
X167200000Y-59350000D03*
%TO.P,D15,3,VSS*%
%TO.N,GND*%
X162300000Y-59350000D03*
%TO.P,D15,4,DIN*%
%TO.N,Net-(D14-DOUT)*%
X162300000Y-62650000D03*
%TD*%
D13*
%TO.P,D11,1,VDD*%
%TO.N,+5V*%
X132100000Y-88950000D03*
%TO.P,D11,2,DOUT*%
%TO.N,Net-(D11-DOUT)*%
X135400000Y-88950000D03*
%TO.P,D11,3,VSS*%
%TO.N,GND*%
X135400000Y-84050000D03*
%TO.P,D11,4,DIN*%
%TO.N,Net-(D10-DOUT)*%
X132100000Y-84050000D03*
%TD*%
%TO.P,D7,1,VDD*%
%TO.N,+5V*%
X110100000Y-81950000D03*
%TO.P,D7,2,DOUT*%
%TO.N,Net-(D7-DOUT)*%
X113400000Y-81950000D03*
%TO.P,D7,3,VSS*%
%TO.N,GND*%
X113400000Y-77050000D03*
%TO.P,D7,4,DIN*%
%TO.N,Net-(D5-DOUT)*%
X110100000Y-77050000D03*
%TD*%
D17*
%TO.P,J2,1,Pin_1*%
%TO.N,+5V*%
X115525000Y-52000000D03*
D18*
%TO.P,J2,2,Pin_2*%
%TO.N,GND*%
X118065000Y-52000000D03*
%TD*%
D13*
%TO.P,D10,1,VDD*%
%TO.N,+5V*%
X126600000Y-88950000D03*
%TO.P,D10,2,DOUT*%
%TO.N,Net-(D10-DOUT)*%
X129900000Y-88950000D03*
%TO.P,D10,3,VSS*%
%TO.N,GND*%
X129900000Y-84050000D03*
%TO.P,D10,4,DIN*%
%TO.N,Net-(D10-DIN)*%
X126600000Y-84050000D03*
%TD*%
D21*
%TO.P,Y1,1,Tri-State*%
%TO.N,+3.3V*%
X136850000Y-38150000D03*
%TO.P,Y1,2,GND*%
%TO.N,GND*%
X134550000Y-38150000D03*
%TO.P,Y1,3,OUT*%
%TO.N,/XTAL*%
X134550000Y-40050000D03*
%TO.P,Y1,4,VDD*%
%TO.N,+3.3V*%
X136850000Y-40050000D03*
%TD*%
D20*
%TO.P,D16,1,VDD*%
%TO.N,+5V*%
X187200000Y-71150000D03*
%TO.P,D16,2,DOUT*%
%TO.N,Net-(D16-DOUT)*%
X187200000Y-67850000D03*
%TO.P,D16,3,VSS*%
%TO.N,GND*%
X182300000Y-67850000D03*
%TO.P,D16,4,DIN*%
%TO.N,Net-(D15-DOUT)*%
X182300000Y-71150000D03*
%TD*%
D22*
%TO.P,D1,1,VDD*%
%TO.N,+5V*%
X102400000Y-40050000D03*
%TO.P,D1,2,DOUT*%
%TO.N,Net-(D1-DOUT)*%
X99100000Y-40050000D03*
%TO.P,D1,3,VSS*%
%TO.N,GND*%
X99100000Y-44950000D03*
%TO.P,D1,4,DIN*%
%TO.N,Net-(D1-DIN)*%
X102400000Y-44950000D03*
%TD*%
D20*
%TO.P,D17,1,VDD*%
%TO.N,+5V*%
X194700000Y-61650000D03*
%TO.P,D17,2,DOUT*%
%TO.N,Net-(D17-DOUT)*%
X194700000Y-58350000D03*
%TO.P,D17,3,VSS*%
%TO.N,GND*%
X189800000Y-58350000D03*
%TO.P,D17,4,DIN*%
%TO.N,Net-(D16-DOUT)*%
X189800000Y-61650000D03*
%TD*%
D17*
%TO.P,J1,1,Pin_1*%
%TO.N,+3.3V*%
X143750000Y-39060000D03*
D18*
%TO.P,J1,2,Pin_2*%
%TO.N,/SCL*%
X143750000Y-41600000D03*
%TO.P,J1,3,Pin_3*%
%TO.N,/SDA*%
X143750000Y-44140000D03*
%TO.P,J1,4,Pin_4*%
%TO.N,GND*%
X143750000Y-46680000D03*
%TD*%
D20*
%TO.P,D4,1,VDD*%
%TO.N,+5V*%
X80700000Y-71150000D03*
%TO.P,D4,2,DOUT*%
%TO.N,Net-(D4-DOUT)*%
X80700000Y-67850000D03*
%TO.P,D4,3,VSS*%
%TO.N,GND*%
X75800000Y-67850000D03*
%TO.P,D4,4,DIN*%
%TO.N,Net-(D3-DOUT)*%
X75800000Y-71150000D03*
%TD*%
D23*
%TO.P,U1,1,VCC*%
%TO.N,+3.3V*%
X127225000Y-38775000D03*
%TO.P,U1,2,PA6*%
%TO.N,Net-(J6-Pin_1)*%
X127225000Y-40045000D03*
%TO.P,U1,3,PA7*%
%TO.N,Net-(D21-K)*%
X127225000Y-41315000D03*
%TO.P,U1,4,PA1*%
%TO.N,/SDA*%
X127225000Y-42585000D03*
%TO.P,U1,5,PA2*%
%TO.N,/SCL*%
X132175000Y-42585000D03*
%TO.P,U1,6,~{RESET}/PA0*%
%TO.N,/UPDI{slash}~{RESET}*%
X132175000Y-41315000D03*
%TO.P,U1,7,PA3*%
%TO.N,/XTAL*%
X132175000Y-40045000D03*
%TO.P,U1,8,GND*%
%TO.N,GND*%
X132175000Y-38775000D03*
%TD*%
D24*
%TO.P,J6,1,Pin_1*%
%TO.N,Net-(J6-Pin_1)*%
X124170000Y-40040000D03*
%TD*%
%TO.P,J5,1,Pin_1*%
%TO.N,Net-(D19-DOUT)*%
X156610000Y-44140000D03*
%TD*%
D25*
%TO.P,D21,1,K*%
%TO.N,Net-(D21-K)*%
X120390000Y-41330000D03*
%TO.P,D21,2,A*%
%TO.N,Net-(D1-DIN)*%
X120390000Y-45330000D03*
%TD*%
D13*
%TO.P,D14,1,VDD*%
%TO.N,+5V*%
X148600000Y-81950000D03*
%TO.P,D14,2,DOUT*%
%TO.N,Net-(D14-DOUT)*%
X151900000Y-81950000D03*
%TO.P,D14,3,VSS*%
%TO.N,GND*%
X151900000Y-77050000D03*
%TO.P,D14,4,DIN*%
%TO.N,Net-(D13-DOUT)*%
X148600000Y-77050000D03*
%TD*%
D26*
%TO.P,R3,1*%
%TO.N,Net-(J4-Pin_2)*%
X128900000Y-35675000D03*
%TO.P,R3,2*%
%TO.N,/UPDI{slash}~{RESET}*%
X130550000Y-35675000D03*
%TD*%
D19*
%TO.P,D3,1,VDD*%
%TO.N,+5V*%
X68300000Y-58350000D03*
%TO.P,D3,2,DOUT*%
%TO.N,Net-(D3-DOUT)*%
X68300000Y-61650000D03*
%TO.P,D3,3,VSS*%
%TO.N,GND*%
X73200000Y-61650000D03*
%TO.P,D3,4,DIN*%
%TO.N,Net-(D2-DOUT)*%
X73200000Y-58350000D03*
%TD*%
D15*
%TO.P,C3,1*%
%TO.N,+5V*%
X163855000Y-56200000D03*
%TO.P,C3,2*%
%TO.N,GND*%
X162305000Y-56200000D03*
%TD*%
D13*
%TO.P,D12,1,VDD*%
%TO.N,+5V*%
X137600000Y-87950000D03*
%TO.P,D12,2,DOUT*%
%TO.N,Net-(D12-DOUT)*%
X140900000Y-87950000D03*
%TO.P,D12,3,VSS*%
%TO.N,GND*%
X140900000Y-83050000D03*
%TO.P,D12,4,DIN*%
%TO.N,Net-(D11-DOUT)*%
X137600000Y-83050000D03*
%TD*%
D27*
%TO.P,R2,1*%
%TO.N,+5V*%
X120390000Y-49155000D03*
%TO.P,R2,2*%
%TO.N,Net-(D1-DIN)*%
X120390000Y-47505000D03*
%TD*%
D19*
%TO.P,D2,1,VDD*%
%TO.N,+5V*%
X77800000Y-32850000D03*
%TO.P,D2,2,DOUT*%
%TO.N,Net-(D2-DOUT)*%
X77800000Y-36150000D03*
%TO.P,D2,3,VSS*%
%TO.N,GND*%
X82700000Y-36150000D03*
%TO.P,D2,4,DIN*%
%TO.N,Net-(D1-DOUT)*%
X82700000Y-32850000D03*
%TD*%
D28*
%TO.N,/SDA*%
X91715657Y-65415657D03*
X86700000Y-64600000D03*
%TO.N,/SCL*%
X90100000Y-67100000D03*
X87100000Y-67100000D03*
%TO.N,GND*%
X145500000Y-41500000D03*
X114300000Y-73200000D03*
X216000000Y-40000000D03*
X60675113Y-70000534D03*
X46000000Y-45000000D03*
X101000000Y-65000000D03*
X186000000Y-45000000D03*
X76000000Y-80000000D03*
X191000000Y-60000000D03*
X76000000Y-25000000D03*
X146000000Y-70000000D03*
X136000000Y-80000000D03*
X71000000Y-65000000D03*
X176000000Y-25000000D03*
X46000000Y-50000000D03*
X71000000Y-75000000D03*
X151000000Y-40000000D03*
X181000000Y-60000000D03*
X91000000Y-45000000D03*
X206000000Y-35000000D03*
X111000000Y-55000000D03*
X201000000Y-45000000D03*
X101000000Y-57500000D03*
X86000000Y-45000000D03*
X171000000Y-75000000D03*
X96000000Y-40000000D03*
X126000000Y-25000000D03*
X116000000Y-35000000D03*
X121000000Y-25000000D03*
X146000000Y-35000000D03*
X99800000Y-46600000D03*
X161000000Y-80000000D03*
X114400000Y-73800000D03*
X101000000Y-80000000D03*
X51000000Y-35000000D03*
X56000000Y-55000000D03*
X211000000Y-55000000D03*
X91000000Y-40000000D03*
X66000000Y-40000000D03*
X96000000Y-55000000D03*
X206000000Y-40000000D03*
X76000000Y-70000000D03*
X51000000Y-45000000D03*
X71000000Y-25000000D03*
X86000000Y-55000000D03*
X81000000Y-30000000D03*
X111000000Y-30000000D03*
X121000000Y-85000000D03*
X196000000Y-70000000D03*
X181000000Y-35000000D03*
X66000000Y-35000000D03*
X141000000Y-65000000D03*
X121000000Y-80000000D03*
X211000000Y-65000000D03*
X96000000Y-45000000D03*
X96000000Y-70000000D03*
X111000000Y-35000000D03*
X91000000Y-35000000D03*
X96000000Y-80000000D03*
X81000000Y-60000000D03*
X161000000Y-30000000D03*
X56000000Y-60000000D03*
X181000000Y-55000000D03*
X86000000Y-85000000D03*
X51000000Y-40000000D03*
X206000000Y-55000000D03*
X66000000Y-65000000D03*
X106000000Y-25000000D03*
X161000000Y-55000000D03*
X106000000Y-30000000D03*
X91000000Y-30000000D03*
X141000000Y-75000000D03*
X60675113Y-60000534D03*
X216000000Y-55000000D03*
X106000000Y-50000000D03*
X66000000Y-55000000D03*
X101000000Y-70000000D03*
X81000000Y-55000000D03*
X106000000Y-70000000D03*
X81000000Y-45000000D03*
X171000000Y-25000000D03*
X113800000Y-74800000D03*
X71000000Y-70000000D03*
X176000000Y-30000000D03*
X206000000Y-30000000D03*
X176000000Y-80000000D03*
X206000000Y-65000000D03*
X101000000Y-35000000D03*
X121660000Y-42820000D03*
X111000000Y-57500000D03*
X151000000Y-70000000D03*
X71000000Y-55000000D03*
X146000000Y-30000000D03*
X81000000Y-85000000D03*
X60675113Y-40000534D03*
X201000000Y-35000000D03*
X191000000Y-85000000D03*
X101000000Y-25000000D03*
X98800000Y-48500000D03*
X211000000Y-60000000D03*
X161000000Y-35000000D03*
X171000000Y-85000000D03*
X96000000Y-50000000D03*
X86000000Y-70000000D03*
X129700000Y-42800000D03*
X51000000Y-60000000D03*
X56000000Y-50000000D03*
X106000000Y-35000000D03*
X186000000Y-50000000D03*
X191000000Y-30000000D03*
X176000000Y-40000000D03*
X96000000Y-25000000D03*
X191000000Y-50000000D03*
X156000000Y-80000000D03*
X60675113Y-35000534D03*
X151000000Y-85000000D03*
X161000000Y-65000000D03*
X151000000Y-75000000D03*
X111000000Y-50000000D03*
X98200000Y-47000000D03*
X191000000Y-45000000D03*
X76000000Y-50000000D03*
X186000000Y-40000000D03*
X86000000Y-40000000D03*
X186000000Y-70000000D03*
X201000000Y-40000000D03*
X196000000Y-80000000D03*
X161300000Y-56200000D03*
X131000000Y-25000000D03*
X146000000Y-65000000D03*
X116400000Y-64500000D03*
X156000000Y-65000000D03*
X51000000Y-65000000D03*
X166000000Y-60000000D03*
X66000000Y-30000000D03*
X118990000Y-44300000D03*
X191000000Y-35000000D03*
X111000000Y-65000000D03*
X106000000Y-75000000D03*
X116000000Y-30000000D03*
X171000000Y-40000000D03*
X96000000Y-85000000D03*
X71000000Y-35000000D03*
X201000000Y-55000000D03*
X91000000Y-60000000D03*
X142450000Y-43270000D03*
X111000000Y-25000000D03*
X216000000Y-50000000D03*
X121000000Y-75000000D03*
X136000000Y-25000000D03*
X98200000Y-62700000D03*
X151000000Y-35000000D03*
X146500000Y-44000000D03*
X116000000Y-75000000D03*
X86000000Y-75000000D03*
X96000000Y-30000000D03*
X186000000Y-30000000D03*
X191000000Y-70000000D03*
X116000000Y-90000000D03*
X134000000Y-41500000D03*
X116300000Y-59630000D03*
X61000000Y-25000000D03*
X171000000Y-45000000D03*
X91000000Y-75000000D03*
X98300000Y-48200000D03*
X60675113Y-65000534D03*
X186000000Y-80000000D03*
X136000000Y-45000000D03*
X181000000Y-25000000D03*
X111000000Y-85000000D03*
X121000000Y-50000000D03*
X201000000Y-70000000D03*
X76000000Y-40000000D03*
X161000000Y-25000000D03*
X101000000Y-75000000D03*
X146000000Y-75000000D03*
X181000000Y-85000000D03*
X171000000Y-50000000D03*
X141000000Y-25000000D03*
X141000000Y-60000000D03*
X151000000Y-25000000D03*
X166000000Y-75000000D03*
X171000000Y-70000000D03*
X161000000Y-50000000D03*
X56000000Y-35000000D03*
X91000000Y-85000000D03*
X166000000Y-80000000D03*
X181000000Y-45000000D03*
X166000000Y-70000000D03*
X201000000Y-25000000D03*
X71000000Y-50000000D03*
X98600000Y-46500000D03*
X171000000Y-30000000D03*
X129700000Y-41300000D03*
X181000000Y-30000000D03*
X211000000Y-35000000D03*
X99200000Y-46500000D03*
X201000000Y-65000000D03*
X106000000Y-55000000D03*
X121000000Y-70000000D03*
X114300000Y-74400000D03*
X146500000Y-45000000D03*
X106000000Y-57500000D03*
X206000000Y-60000000D03*
X141000000Y-90000000D03*
X106000000Y-85000000D03*
X176000000Y-45000000D03*
X161000000Y-70000000D03*
X98100000Y-47600000D03*
X116000000Y-50000000D03*
X81000000Y-70000000D03*
X181000000Y-40000000D03*
X161000000Y-45000000D03*
X91000000Y-55000000D03*
X156000000Y-70000000D03*
X141000000Y-50000000D03*
X125100000Y-64200000D03*
X76000000Y-55000000D03*
X60675113Y-55000534D03*
X151000000Y-30000000D03*
X156000000Y-50000000D03*
X46000000Y-55000000D03*
X196000000Y-65000000D03*
X166000000Y-45000000D03*
X211000000Y-45000000D03*
X146820000Y-48220000D03*
X81000000Y-40000000D03*
X116000000Y-25000000D03*
X161900000Y-57200000D03*
X91000000Y-50000000D03*
X126000000Y-50000000D03*
X118990000Y-45600000D03*
X156000000Y-35000000D03*
X151000000Y-45000000D03*
X66000000Y-60000000D03*
X161400000Y-55600000D03*
X162500000Y-55200000D03*
X56000000Y-30000000D03*
X101430000Y-44790000D03*
X206000000Y-70000000D03*
X56000000Y-45000000D03*
X56000000Y-70000000D03*
X131000000Y-50000000D03*
X81000000Y-75000000D03*
X136000000Y-85000000D03*
X133290000Y-43380000D03*
X176000000Y-75000000D03*
X121000000Y-30000000D03*
X60675113Y-30000534D03*
X71000000Y-80000000D03*
X186000000Y-55000000D03*
X141000000Y-30000000D03*
X161000000Y-75000000D03*
X181000000Y-75000000D03*
X129600000Y-61100000D03*
X186000000Y-75000000D03*
X166000000Y-50000000D03*
X166000000Y-25000000D03*
X151000000Y-55000000D03*
X114710000Y-59620000D03*
X156000000Y-40000000D03*
X96000000Y-75000000D03*
X60675113Y-50000534D03*
X116000000Y-40000000D03*
X171000000Y-80000000D03*
X211000000Y-40000000D03*
X101000000Y-30000000D03*
X201000000Y-50000000D03*
X151000000Y-65000000D03*
X186000000Y-65000000D03*
X111000000Y-40000000D03*
X163000000Y-55500000D03*
X161400000Y-56800000D03*
X181000000Y-80000000D03*
X101000000Y-40000000D03*
X114260000Y-53200000D03*
X186000000Y-60000000D03*
X56000000Y-75000000D03*
X75160000Y-37200000D03*
X60675113Y-45000534D03*
X66000000Y-80000000D03*
X123200000Y-73400000D03*
X146000000Y-55000000D03*
X111000000Y-70000000D03*
X121000000Y-65000000D03*
X56000000Y-65000000D03*
X81000000Y-35000000D03*
X191000000Y-55000000D03*
X86000000Y-50000000D03*
X126000000Y-55000000D03*
X216000000Y-45000000D03*
X101000000Y-50000000D03*
X71000000Y-60000000D03*
X66000000Y-45000000D03*
X191000000Y-65000000D03*
X113200000Y-74800000D03*
X126000000Y-45000000D03*
X191000000Y-80000000D03*
X86000000Y-30000000D03*
X121000000Y-90000000D03*
X121000000Y-55000000D03*
X151000000Y-60000000D03*
X196000000Y-30000000D03*
X113800000Y-72800000D03*
X201000000Y-75000000D03*
X206000000Y-75000000D03*
X206000000Y-50000000D03*
X126000000Y-80000000D03*
X86000000Y-25000000D03*
X76000000Y-45000000D03*
X124700000Y-59600000D03*
X166000000Y-30000000D03*
X51000000Y-55000000D03*
X176000000Y-55000000D03*
X86000000Y-60000000D03*
X176000000Y-60000000D03*
X216000000Y-60000000D03*
X136000000Y-50000000D03*
X181000000Y-50000000D03*
X211000000Y-30000000D03*
X71000000Y-45000000D03*
X181000000Y-70000000D03*
X141000000Y-45000000D03*
X76000000Y-65000000D03*
X60675113Y-75000534D03*
X66000000Y-50000000D03*
X139710000Y-73630000D03*
X146000000Y-25000000D03*
X76000000Y-75000000D03*
X121790000Y-45150000D03*
X176000000Y-50000000D03*
X191000000Y-75000000D03*
X196000000Y-75000000D03*
X101000000Y-55000000D03*
X166000000Y-85000000D03*
X156000000Y-25000000D03*
X211000000Y-70000000D03*
X156000000Y-60000000D03*
X91000000Y-25000000D03*
X201000000Y-80000000D03*
X116400000Y-69100000D03*
X131000000Y-55000000D03*
X141000000Y-80000000D03*
X186000000Y-25000000D03*
X121000000Y-35000000D03*
X156000000Y-85000000D03*
X131000000Y-80000000D03*
X141000000Y-35000000D03*
X71000000Y-30000000D03*
X141000000Y-70000000D03*
X156000000Y-30000000D03*
X146000000Y-60000000D03*
X76000000Y-85000000D03*
X142000000Y-41500000D03*
X86000000Y-80000000D03*
X106000000Y-40000000D03*
X166000000Y-40000000D03*
X81000000Y-80000000D03*
X131000000Y-45000000D03*
X66000000Y-70000000D03*
X125500000Y-61900000D03*
X76000000Y-30000000D03*
X191000000Y-25000000D03*
X186000000Y-85000000D03*
X166000000Y-65000000D03*
X156000000Y-75000000D03*
X66000000Y-25000000D03*
X146000000Y-90000000D03*
X201000000Y-60000000D03*
X106000000Y-80000000D03*
X81000000Y-50000000D03*
X206000000Y-45000000D03*
X71000000Y-85000000D03*
X201000000Y-30000000D03*
X141000000Y-85000000D03*
X146000000Y-80000000D03*
X96000000Y-35000000D03*
X86000000Y-35000000D03*
X56000000Y-40000000D03*
X156000000Y-55000000D03*
X111000000Y-75000000D03*
X176000000Y-85000000D03*
X81000000Y-25000000D03*
X76000000Y-60000000D03*
X46000000Y-40000000D03*
X171000000Y-55000000D03*
X196000000Y-35000000D03*
X161900000Y-55200000D03*
X196000000Y-25000000D03*
X66000000Y-75000000D03*
X161000000Y-60000000D03*
X106000000Y-65000000D03*
X91000000Y-80000000D03*
X136000000Y-55000000D03*
%TO.N,+3.3V*%
X114775000Y-60450000D03*
X116275000Y-60450000D03*
%TO.N,/SDA*%
X152640523Y-52029477D03*
X131525000Y-44140000D03*
X154786105Y-52025000D03*
X114775000Y-61860000D03*
X132825000Y-44140000D03*
X116275000Y-61860000D03*
%TO.N,/SCL*%
X154131185Y-51398815D03*
X116275000Y-62660003D03*
X114775000Y-62660003D03*
X152010523Y-51399477D03*
%TD*%
D29*
%TO.N,/SCL*%
X90900000Y-67100000D02*
X90100000Y-67100000D01*
X91974955Y-66041657D02*
X91958343Y-66041657D01*
X92341657Y-65674955D02*
X91974955Y-66041657D01*
X91958343Y-66041657D02*
X90900000Y-67100000D01*
X96217124Y-61552000D02*
X92341657Y-65427467D01*
X113395751Y-61552000D02*
X96217124Y-61552000D01*
X92341657Y-65427467D02*
X92341657Y-65674955D01*
X114503754Y-62660003D02*
X113395751Y-61552000D01*
X114775000Y-62660003D02*
X114503754Y-62660003D01*
%TO.N,Net-(J7-Pin_1)*%
X87000000Y-66000000D02*
X87700000Y-65300000D01*
X86000000Y-66000000D02*
X87000000Y-66000000D01*
%TO.N,/SCL*%
X86150000Y-67100000D02*
X86000000Y-66950000D01*
X87100000Y-67100000D02*
X86150000Y-67100000D01*
%TO.N,Net-(J8-Pin_1)*%
X180400000Y-66000000D02*
X181200000Y-65200000D01*
X179900000Y-66000000D02*
X180400000Y-66000000D01*
%TO.N,/SCL*%
X155650815Y-51398815D02*
X154131185Y-51398815D01*
X165250398Y-51748000D02*
X156000000Y-51748000D01*
X182026000Y-64204486D02*
X181695514Y-63874000D01*
X182026000Y-66195514D02*
X182026000Y-64204486D01*
X181271514Y-66950000D02*
X182026000Y-66195514D01*
X179900000Y-66950000D02*
X181271514Y-66950000D01*
X177376398Y-63874000D02*
X165250398Y-51748000D01*
X156000000Y-51748000D02*
X155650815Y-51398815D01*
X181695514Y-63874000D02*
X177376398Y-63874000D01*
%TO.N,/SDA*%
X179576000Y-64474000D02*
X179900000Y-64798000D01*
X177338588Y-64474000D02*
X179576000Y-64474000D01*
X165063588Y-52199000D02*
X177338588Y-64474000D01*
X154960105Y-52199000D02*
X165063588Y-52199000D01*
X154786105Y-52025000D02*
X154960105Y-52199000D01*
X179900000Y-64798000D02*
X179900000Y-65050000D01*
D30*
%TO.N,+3.3V*%
X164825000Y-52775000D02*
X177100000Y-65050000D01*
X154446708Y-52775000D02*
X164825000Y-52775000D01*
X154440107Y-52769815D02*
X154441523Y-52769815D01*
X154000182Y-52329890D02*
X154440107Y-52769815D01*
X154441523Y-52769815D02*
X154446708Y-52775000D01*
X154000182Y-52328474D02*
X154000182Y-52329890D01*
X148426000Y-46754292D02*
X154000182Y-52328474D01*
X145885000Y-39060000D02*
X148426000Y-41601000D01*
X143750000Y-39060000D02*
X145885000Y-39060000D01*
X148426000Y-41601000D02*
X148426000Y-46754292D01*
D31*
X83200000Y-65050000D02*
X83200000Y-66000000D01*
X79875000Y-65050000D02*
X83200000Y-65050000D01*
X79474000Y-68446938D02*
X79474000Y-65451000D01*
X95585298Y-60450000D02*
X87259298Y-68776000D01*
X87259298Y-68776000D02*
X79803062Y-68776000D01*
X79803062Y-68776000D02*
X79474000Y-68446938D01*
X114775000Y-60450000D02*
X95585298Y-60450000D01*
X79474000Y-65451000D02*
X79875000Y-65050000D01*
D29*
%TO.N,/SDA*%
X86250000Y-65050000D02*
X86700000Y-64600000D01*
X86000000Y-65050000D02*
X86250000Y-65050000D01*
X96080314Y-61051000D02*
X91715657Y-65415657D01*
D30*
%TO.N,+3.3V*%
X120758292Y-43050000D02*
X119461708Y-43050000D01*
X119039000Y-42627292D02*
X119039000Y-40032708D01*
X123310000Y-60450000D02*
X123310000Y-45601708D01*
X119461708Y-43050000D02*
X119039000Y-42627292D01*
D32*
X143750000Y-39060000D02*
X137760000Y-39060000D01*
X137760000Y-39060000D02*
X136850000Y-38150000D01*
D30*
X119039000Y-40032708D02*
X120296708Y-38775000D01*
X123310000Y-45601708D02*
X120758292Y-43050000D01*
D31*
X116275000Y-60450000D02*
X123310000Y-60450000D01*
D30*
X120296708Y-38775000D02*
X127225000Y-38775000D01*
%TO.N,+5V*%
X100625000Y-47500000D02*
X100625000Y-41825000D01*
X153445000Y-78515000D02*
X153445000Y-73510000D01*
X100625000Y-41825000D02*
X102400000Y-40050000D01*
X68300000Y-42350000D02*
X77800000Y-32850000D01*
X105125000Y-52000000D02*
X100625000Y-47500000D01*
X94299000Y-31949000D02*
X78701000Y-31949000D01*
X126600000Y-88950000D02*
X127801000Y-90151000D01*
X150010000Y-81950000D02*
X153445000Y-78515000D01*
X195901000Y-60449000D02*
X195901000Y-42763416D01*
X121100000Y-87950000D02*
X122549999Y-89399999D01*
X176601000Y-72051000D02*
X167200000Y-62650000D01*
X148600000Y-81950000D02*
X150010000Y-81950000D01*
X115600000Y-84950000D02*
X118600000Y-87950000D01*
X180201000Y-31949000D02*
X179300000Y-32850000D01*
X148600000Y-84537584D02*
X145600000Y-87537584D01*
X88900000Y-71150000D02*
X96600000Y-63450000D01*
X67099000Y-59551000D02*
X68300000Y-58350000D01*
X185086584Y-31949000D02*
X180201000Y-31949000D01*
X130899000Y-90151000D02*
X132100000Y-88950000D01*
X166299000Y-61749000D02*
X152651000Y-61749000D01*
X110100000Y-81950000D02*
X111835000Y-80215000D01*
X115525000Y-69905000D02*
X115525000Y-52000000D01*
X133301000Y-90151000D02*
X135986584Y-90151000D01*
X118370000Y-49155000D02*
X120390000Y-49155000D01*
X195901000Y-42763416D02*
X185086584Y-31949000D01*
X187200000Y-71150000D02*
X194700000Y-63650000D01*
X78701000Y-31949000D02*
X77800000Y-32850000D01*
X111835000Y-73595000D02*
X115525000Y-69905000D01*
X115165000Y-51640000D02*
X115525000Y-52000000D01*
X127800000Y-79200000D02*
X118505000Y-69905000D01*
X115525000Y-52000000D02*
X105125000Y-52000000D01*
X115525000Y-52000000D02*
X118370000Y-49155000D01*
X135986584Y-90151000D02*
X137600000Y-88537584D01*
X80700000Y-71150000D02*
X88900000Y-71150000D01*
X143100000Y-87537584D02*
X143100000Y-84950000D01*
X163855000Y-59305000D02*
X167200000Y-62650000D01*
X187200000Y-71150000D02*
X186299000Y-72051000D01*
X163855000Y-56200000D02*
X163855000Y-59305000D01*
X102400000Y-40050000D02*
X94299000Y-31949000D01*
X111835000Y-80215000D02*
X111835000Y-73810000D01*
X137600000Y-88537584D02*
X137600000Y-87950000D01*
X194700000Y-63650000D02*
X194700000Y-61650000D01*
X127801000Y-90151000D02*
X130899000Y-90151000D01*
X74913416Y-72051000D02*
X67099000Y-64236584D01*
X111835000Y-73810000D02*
X111835000Y-73595000D01*
X111835000Y-80215000D02*
X111835000Y-82172584D01*
X137600000Y-87950000D02*
X138801000Y-89151000D01*
X68300000Y-58350000D02*
X68300000Y-42350000D01*
X126150001Y-89399999D02*
X126600000Y-88950000D01*
X132100000Y-88950000D02*
X133301000Y-90151000D01*
X80700000Y-71150000D02*
X79799000Y-72051000D01*
X114612416Y-84950000D02*
X115600000Y-84950000D01*
X145600000Y-87537584D02*
X143100000Y-87537584D01*
X194700000Y-61650000D02*
X195901000Y-60449000D01*
X141486584Y-89151000D02*
X143100000Y-87537584D01*
X74913416Y-72051000D02*
X79799000Y-72051000D01*
X164601000Y-35549000D02*
X159300000Y-40850000D01*
X152651000Y-61749000D02*
X135199000Y-79201000D01*
X111835000Y-82172584D02*
X114612416Y-84950000D01*
X118600000Y-87950000D02*
X121100000Y-87950000D01*
X135198000Y-79200000D02*
X135199000Y-79201000D01*
X122549999Y-89399999D02*
X126150001Y-89399999D01*
X148600000Y-81950000D02*
X148600000Y-84537584D01*
X167200000Y-62650000D02*
X166299000Y-61749000D01*
X138801000Y-89151000D02*
X141486584Y-89151000D01*
X176601000Y-35549000D02*
X164601000Y-35549000D01*
X179300000Y-32850000D02*
X176601000Y-35549000D01*
X127800000Y-79200000D02*
X135198000Y-79200000D01*
X118505000Y-69905000D02*
X115525000Y-69905000D01*
X186299000Y-72051000D02*
X176601000Y-72051000D01*
X67099000Y-59551000D02*
X67099000Y-64236584D01*
D33*
%TO.N,Net-(D1-DOUT)*%
X99100000Y-40050000D02*
X91900000Y-32850000D01*
X91900000Y-32850000D02*
X82700000Y-32850000D01*
%TO.N,Net-(D1-DIN)*%
X120010000Y-44950000D02*
X102400000Y-44950000D01*
X120390000Y-47505000D02*
X120390000Y-45330000D01*
X120390000Y-45330000D02*
X120010000Y-44950000D01*
%TO.N,Net-(D2-DOUT)*%
X77800000Y-36150000D02*
X73200000Y-40750000D01*
X73200000Y-40750000D02*
X73200000Y-58350000D01*
%TO.N,Net-(D3-DOUT)*%
X68300000Y-63650000D02*
X75800000Y-71150000D01*
X68300000Y-61650000D02*
X68300000Y-63650000D01*
%TO.N,Net-(D4-DOUT)*%
X80700000Y-67850000D02*
X87300000Y-67850000D01*
X87300000Y-67850000D02*
X96600000Y-58550000D01*
%TO.N,Net-(D5-DOUT)*%
X99900000Y-66850000D02*
X110100000Y-77050000D01*
X99900000Y-63450000D02*
X99900000Y-66850000D01*
%TO.N,Net-(D7-DOUT)*%
X113700000Y-81950000D02*
X115600000Y-80050000D01*
X113400000Y-81950000D02*
X113700000Y-81950000D01*
%TO.N,Net-(D8-DOUT)*%
X118900000Y-84950000D02*
X119200000Y-84950000D01*
X119200000Y-84950000D02*
X121100000Y-83050000D01*
%TO.N,Net-(D10-DIN)*%
X124400000Y-87950000D02*
X124400000Y-86250000D01*
X124400000Y-86250000D02*
X126600000Y-84050000D01*
%TO.N,Net-(D10-DOUT)*%
X129900000Y-86250000D02*
X132100000Y-84050000D01*
X129900000Y-88950000D02*
X129900000Y-86250000D01*
%TO.N,Net-(D11-DOUT)*%
X135400000Y-88200001D02*
X137600000Y-86000001D01*
X137600000Y-86000001D02*
X137600000Y-83050000D01*
X135400000Y-88950000D02*
X135400000Y-88200001D01*
%TO.N,Net-(D12-DOUT)*%
X141701000Y-87149000D02*
X141701000Y-81449000D01*
X141701000Y-81449000D02*
X143100000Y-80050000D01*
X140900000Y-87950000D02*
X141701000Y-87149000D01*
%TO.N,Net-(D13-DOUT)*%
X146400000Y-81696162D02*
X148600000Y-79496162D01*
X148600000Y-79496162D02*
X148600000Y-77050000D01*
X146400000Y-84950000D02*
X146400000Y-81696162D01*
%TO.N,Net-(D14-DOUT)*%
X151900000Y-81950000D02*
X162300000Y-71550000D01*
X162300000Y-71550000D02*
X162300000Y-62650000D01*
%TO.N,Net-(D15-DOUT)*%
X177346162Y-71150000D02*
X182300000Y-71150000D01*
X167200000Y-61003838D02*
X177346162Y-71150000D01*
X167200000Y-59350000D02*
X167200000Y-61003838D01*
%TO.N,Net-(D16-DOUT)*%
X187200000Y-67850000D02*
X189800000Y-65250000D01*
X189800000Y-65250000D02*
X189800000Y-61650000D01*
%TO.N,Net-(D17-DOUT)*%
X194700000Y-58350000D02*
X194700000Y-43350000D01*
X194700000Y-43350000D02*
X184200000Y-32850000D01*
%TO.N,Net-(D18-DOUT)*%
X179300000Y-36150000D02*
X168900000Y-36150000D01*
X168900000Y-36150000D02*
X164200000Y-40850000D01*
D34*
%TO.N,Net-(D21-K)*%
X127225000Y-41315000D02*
X120405000Y-41315000D01*
X120405000Y-41315000D02*
X120390000Y-41330000D01*
D33*
%TO.N,/SDA*%
X131525000Y-44130000D02*
X127225000Y-44130000D01*
D29*
X124430000Y-61870000D02*
X125850000Y-60450000D01*
X96080314Y-61051000D02*
X113966000Y-61051000D01*
X113966000Y-61051000D02*
X114775000Y-61860000D01*
X152640523Y-52029477D02*
X151639477Y-52029477D01*
D33*
X127225000Y-59075000D02*
X127225000Y-44130000D01*
X143750000Y-44140000D02*
X132825000Y-44140000D01*
X127225000Y-44130000D02*
X127225000Y-42585000D01*
X125850000Y-60450000D02*
X127225000Y-59075000D01*
D29*
X151639477Y-52029477D02*
X143750000Y-44140000D01*
X116275000Y-61870000D02*
X124430000Y-61870000D01*
%TO.N,/SCL*%
X116275000Y-62670003D02*
X126169997Y-62670003D01*
D33*
X132175000Y-56665000D02*
X132175000Y-42585000D01*
X144951000Y-44339954D02*
X144951000Y-42801000D01*
X128390000Y-60450000D02*
X132175000Y-56665000D01*
D29*
X126169997Y-62670003D02*
X128390000Y-60450000D01*
D33*
X142765000Y-42585000D02*
X143750000Y-41600000D01*
X132175000Y-42585000D02*
X142765000Y-42585000D01*
X144951000Y-42801000D02*
X143750000Y-41600000D01*
D29*
%TO.N,GND*%
X178829456Y-65500000D02*
X178419728Y-65090272D01*
%TO.N,/SCL*%
X152010523Y-51399477D02*
X144951000Y-44339954D01*
%TO.N,/UPDI{slash}~{RESET}*%
X129725000Y-36500000D02*
X130550000Y-35675000D01*
X130785000Y-41315000D02*
X129725000Y-40255000D01*
X129725000Y-40255000D02*
X129725000Y-36500000D01*
X132175000Y-41315000D02*
X130785000Y-41315000D01*
D33*
%TO.N,Net-(D19-DOUT)*%
X159300000Y-44150000D02*
X156620000Y-44150000D01*
D34*
%TO.N,/XTAL*%
X134545000Y-40045000D02*
X134550000Y-40050000D01*
X132175000Y-40045000D02*
X134545000Y-40045000D01*
%TO.N,Net-(J6-Pin_1)*%
X127225000Y-40045000D02*
X124175000Y-40045000D01*
D33*
X124175000Y-40045000D02*
X124170000Y-40040000D01*
D29*
%TO.N,Net-(J4-Pin_2)*%
X129610000Y-34965000D02*
X128900000Y-35675000D01*
X129610000Y-33150000D02*
X129610000Y-34965000D01*
%TD*%
%TA.AperFunction,Conductor*%
%TO.N,GND*%
G36*
X135287539Y-32025185D02*
G01*
X135333294Y-32077989D01*
X135344500Y-32129500D01*
X135344500Y-39126000D01*
X135324815Y-39193039D01*
X135272011Y-39238794D01*
X135220500Y-39250000D01*
X130050500Y-39250000D01*
X130050500Y-36686188D01*
X130070185Y-36619149D01*
X130086815Y-36598511D01*
X130298508Y-36386817D01*
X130359831Y-36353333D01*
X130386189Y-36350499D01*
X130781517Y-36350499D01*
X130781518Y-36350499D01*
X130875304Y-36335646D01*
X130988342Y-36278050D01*
X131078050Y-36188342D01*
X131135646Y-36075304D01*
X131135646Y-36075302D01*
X131135647Y-36075301D01*
X131150499Y-35981524D01*
X131150500Y-35981519D01*
X131150499Y-35368482D01*
X131135646Y-35274696D01*
X131078050Y-35161658D01*
X131078046Y-35161654D01*
X131078045Y-35161652D01*
X130988347Y-35071954D01*
X130988344Y-35071952D01*
X130988342Y-35071950D01*
X130897827Y-35025830D01*
X130875301Y-35014352D01*
X130781524Y-34999500D01*
X130318482Y-34999500D01*
X130237519Y-35012323D01*
X130224696Y-35014354D01*
X130115794Y-35069842D01*
X130113092Y-35070349D01*
X130111015Y-35072150D01*
X130078963Y-35076759D01*
X130047126Y-35082738D01*
X130044577Y-35081703D01*
X130041857Y-35082095D01*
X130012403Y-35068645D01*
X129982386Y-35056462D01*
X129980801Y-35054214D01*
X129978300Y-35053072D01*
X129960792Y-35025830D01*
X129942129Y-34999355D01*
X129941556Y-34995898D01*
X129940525Y-34994294D01*
X129935501Y-34959357D01*
X129935501Y-34959354D01*
X129935501Y-34922147D01*
X129935500Y-34922143D01*
X129935500Y-34235080D01*
X129955185Y-34168041D01*
X130007989Y-34122286D01*
X130012048Y-34120519D01*
X130021830Y-34116466D01*
X130107598Y-34080941D01*
X130279655Y-33965977D01*
X130425977Y-33819655D01*
X130540941Y-33647598D01*
X130620130Y-33456420D01*
X130660500Y-33253465D01*
X130660500Y-33046535D01*
X130620130Y-32843580D01*
X130540941Y-32652402D01*
X130425977Y-32480345D01*
X130425975Y-32480342D01*
X130279658Y-32334025D01*
X130279650Y-32334019D01*
X130127868Y-32232602D01*
X130083062Y-32178990D01*
X130074355Y-32109665D01*
X130104509Y-32046638D01*
X130163952Y-32009918D01*
X130196758Y-32005500D01*
X135220500Y-32005500D01*
X135287539Y-32025185D01*
G37*
%TD.AperFunction*%
%TD*%
%TA.AperFunction,Conductor*%
%TO.N,+3.3V*%
G36*
X138143039Y-28819685D02*
G01*
X138188794Y-28872489D01*
X138200000Y-28924000D01*
X138200000Y-41226000D01*
X138180315Y-41293039D01*
X138127511Y-41338794D01*
X138076000Y-41350000D01*
X135674000Y-41350000D01*
X135606961Y-41330315D01*
X135561206Y-41277511D01*
X135550000Y-41226000D01*
X135550000Y-31800000D01*
X129699957Y-31800000D01*
X129700110Y-31975392D01*
X129680484Y-32042448D01*
X129627720Y-32088249D01*
X129576110Y-32099500D01*
X129506530Y-32099500D01*
X129303587Y-32139868D01*
X129303579Y-32139870D01*
X129112403Y-32219058D01*
X128940342Y-32334024D01*
X128794024Y-32480342D01*
X128679058Y-32652403D01*
X128599870Y-32843579D01*
X128599868Y-32843587D01*
X128559500Y-33046530D01*
X128559500Y-33253469D01*
X128599868Y-33456412D01*
X128599870Y-33456420D01*
X128679058Y-33647596D01*
X128794024Y-33819657D01*
X128940342Y-33965975D01*
X128940345Y-33965977D01*
X129112402Y-34080941D01*
X129185409Y-34111181D01*
X129207952Y-34120519D01*
X129262356Y-34164359D01*
X129284421Y-34230653D01*
X129284500Y-34235080D01*
X129284500Y-34778811D01*
X129275855Y-34808250D01*
X129269332Y-34838238D01*
X129265577Y-34843253D01*
X129264815Y-34845850D01*
X129248185Y-34866487D01*
X129192530Y-34922143D01*
X129151491Y-34963182D01*
X129090167Y-34996666D01*
X129063810Y-34999500D01*
X128668482Y-34999500D01*
X128587519Y-35012323D01*
X128574696Y-35014354D01*
X128461658Y-35071950D01*
X128461657Y-35071951D01*
X128461652Y-35071954D01*
X128371954Y-35161652D01*
X128371951Y-35161657D01*
X128371950Y-35161658D01*
X128352751Y-35199337D01*
X128314352Y-35274698D01*
X128299500Y-35368475D01*
X128299500Y-35981517D01*
X128310292Y-36049657D01*
X128314354Y-36075304D01*
X128371950Y-36188342D01*
X128371952Y-36188344D01*
X128371954Y-36188347D01*
X128461652Y-36278045D01*
X128461654Y-36278046D01*
X128461658Y-36278050D01*
X128568779Y-36332631D01*
X128574698Y-36335647D01*
X128668475Y-36350499D01*
X128668481Y-36350500D01*
X129131518Y-36350499D01*
X129225304Y-36335646D01*
X129225307Y-36335644D01*
X129234582Y-36332631D01*
X129235573Y-36335682D01*
X129287846Y-36325853D01*
X129352592Y-36352114D01*
X129392862Y-36409211D01*
X129399500Y-36449237D01*
X129399500Y-39126000D01*
X129379815Y-39193039D01*
X129327011Y-39238794D01*
X129275500Y-39250000D01*
X125124000Y-39250000D01*
X125056961Y-39230315D01*
X125011206Y-39177511D01*
X125000000Y-39126000D01*
X125000000Y-28924000D01*
X125019685Y-28856961D01*
X125072489Y-28811206D01*
X125124000Y-28800000D01*
X138076000Y-28800000D01*
X138143039Y-28819685D01*
G37*
%TD.AperFunction*%
%TD*%
%TA.AperFunction,Conductor*%
%TO.N,GND*%
G36*
X161275000Y-62219462D02*
G01*
X161329538Y-62274000D01*
X161349500Y-62348500D01*
X161349500Y-63053374D01*
X161352317Y-63077661D01*
X161352318Y-63077663D01*
X161396186Y-63177015D01*
X161396187Y-63177016D01*
X161472984Y-63253813D01*
X161572338Y-63297682D01*
X161572341Y-63297682D01*
X161572343Y-63297683D01*
X161581855Y-63298786D01*
X161596627Y-63300500D01*
X161800500Y-63300499D01*
X161874999Y-63320461D01*
X161929537Y-63374998D01*
X161949500Y-63449498D01*
X161949500Y-71343099D01*
X161929538Y-71417599D01*
X161905859Y-71448458D01*
X152398458Y-80955859D01*
X152331663Y-80994423D01*
X152293099Y-80999500D01*
X151957320Y-80999500D01*
X151882820Y-80979538D01*
X151828282Y-80925000D01*
X151808320Y-80850500D01*
X151828282Y-80776000D01*
X151851961Y-80745141D01*
X153805490Y-78791614D01*
X153864799Y-78688886D01*
X153895500Y-78574309D01*
X153895500Y-74197966D01*
X153915462Y-74123466D01*
X153939141Y-74092607D01*
X154018528Y-74013220D01*
X154079719Y-73893126D01*
X154095500Y-73793488D01*
X154095500Y-73226512D01*
X154079719Y-73126874D01*
X154018528Y-73006780D01*
X153923220Y-72911472D01*
X153864982Y-72881798D01*
X153803127Y-72850281D01*
X153786519Y-72847650D01*
X153703488Y-72834500D01*
X153186512Y-72834500D01*
X153115342Y-72845772D01*
X153086872Y-72850281D01*
X152966779Y-72911472D01*
X152871472Y-73006779D01*
X152810281Y-73126872D01*
X152810281Y-73126874D01*
X152794500Y-73226512D01*
X152794500Y-73793488D01*
X152807378Y-73874800D01*
X152810281Y-73893127D01*
X152871472Y-74013220D01*
X152950859Y-74092607D01*
X152989423Y-74159402D01*
X152994500Y-74197966D01*
X152994500Y-78266678D01*
X152974538Y-78341178D01*
X152950859Y-78372037D01*
X149867038Y-81455859D01*
X149800243Y-81494423D01*
X149761679Y-81499500D01*
X149399499Y-81499500D01*
X149324999Y-81479538D01*
X149270461Y-81425000D01*
X149250499Y-81350500D01*
X149250499Y-81246625D01*
X149247682Y-81222338D01*
X149247681Y-81222336D01*
X149203813Y-81122984D01*
X149127015Y-81046186D01*
X149027665Y-81002319D01*
X149027656Y-81002316D01*
X149003375Y-80999500D01*
X148196625Y-80999500D01*
X148172338Y-81002317D01*
X148172336Y-81002318D01*
X148072984Y-81046186D01*
X147996186Y-81122984D01*
X147952319Y-81222334D01*
X147952316Y-81222343D01*
X147949500Y-81246624D01*
X147949500Y-82653374D01*
X147952317Y-82677661D01*
X147952318Y-82677663D01*
X147996186Y-82777015D01*
X148072985Y-82853814D01*
X148084373Y-82861615D01*
X148081796Y-82865376D01*
X148120740Y-82896689D01*
X148148629Y-82968598D01*
X148149500Y-82984686D01*
X148149500Y-84289261D01*
X148129538Y-84363761D01*
X148105859Y-84394620D01*
X147304858Y-85195621D01*
X147238063Y-85234185D01*
X147160935Y-85234185D01*
X147094140Y-85195621D01*
X147055576Y-85128826D01*
X147050499Y-85090262D01*
X147050499Y-84246625D01*
X147047682Y-84222338D01*
X147047681Y-84222336D01*
X147045589Y-84217599D01*
X147003813Y-84122984D01*
X146927016Y-84046187D01*
X146895626Y-84032327D01*
X146839315Y-84007463D01*
X146779226Y-83959109D01*
X146751365Y-83887189D01*
X146750500Y-83871159D01*
X146750500Y-81903062D01*
X146770462Y-81828562D01*
X146794141Y-81797703D01*
X147836528Y-80755316D01*
X148880470Y-79711374D01*
X148926614Y-79631450D01*
X148950500Y-79542306D01*
X148950500Y-79450018D01*
X148950500Y-78128840D01*
X148970462Y-78054340D01*
X149025000Y-77999802D01*
X149039296Y-77992544D01*
X149127016Y-77953813D01*
X149203813Y-77877016D01*
X149247682Y-77777662D01*
X149250500Y-77753373D01*
X149250499Y-76346628D01*
X149247682Y-76322338D01*
X149203813Y-76222984D01*
X149127016Y-76146187D01*
X149127015Y-76146186D01*
X149027665Y-76102319D01*
X149027656Y-76102316D01*
X149003375Y-76099500D01*
X148196625Y-76099500D01*
X148172338Y-76102317D01*
X148172336Y-76102318D01*
X148072984Y-76146186D01*
X147996186Y-76222984D01*
X147952319Y-76322334D01*
X147952316Y-76322343D01*
X147949500Y-76346624D01*
X147949500Y-77753374D01*
X147952317Y-77777661D01*
X147952318Y-77777663D01*
X147996186Y-77877015D01*
X147996187Y-77877016D01*
X148072984Y-77953813D01*
X148160687Y-77992537D01*
X148220773Y-78040889D01*
X148248635Y-78112808D01*
X148249500Y-78128840D01*
X148249500Y-79289262D01*
X148229538Y-79363762D01*
X148205859Y-79394621D01*
X146119530Y-81480949D01*
X146091095Y-81530201D01*
X146091094Y-81530200D01*
X146073387Y-81560870D01*
X146049500Y-81650017D01*
X146049500Y-83871159D01*
X146029538Y-83945659D01*
X145975000Y-84000197D01*
X145960685Y-84007463D01*
X145872983Y-84046187D01*
X145796186Y-84122984D01*
X145752319Y-84222334D01*
X145752316Y-84222343D01*
X145749500Y-84246624D01*
X145749500Y-85653374D01*
X145752317Y-85677661D01*
X145752318Y-85677663D01*
X145796186Y-85777015D01*
X145796187Y-85777016D01*
X145872984Y-85853813D01*
X145972338Y-85897682D01*
X145972341Y-85897682D01*
X145972343Y-85897683D01*
X145981855Y-85898786D01*
X145996627Y-85900500D01*
X146240263Y-85900499D01*
X146314761Y-85920461D01*
X146369299Y-85974998D01*
X146389262Y-86049498D01*
X146369300Y-86123998D01*
X146345621Y-86154858D01*
X145457038Y-87043443D01*
X145390243Y-87082007D01*
X145351679Y-87087084D01*
X143699500Y-87087084D01*
X143625000Y-87067122D01*
X143570462Y-87012584D01*
X143550500Y-86938084D01*
X143550500Y-85984686D01*
X143570462Y-85910186D01*
X143617011Y-85863636D01*
X143615627Y-85861615D01*
X143627014Y-85853814D01*
X143627014Y-85853813D01*
X143627016Y-85853813D01*
X143703813Y-85777016D01*
X143747682Y-85677662D01*
X143750500Y-85653373D01*
X143750499Y-84246628D01*
X143747682Y-84222338D01*
X143703813Y-84122984D01*
X143627016Y-84046187D01*
X143627015Y-84046186D01*
X143527665Y-84002319D01*
X143527656Y-84002316D01*
X143503375Y-83999500D01*
X142696625Y-83999500D01*
X142672338Y-84002317D01*
X142672336Y-84002318D01*
X142572984Y-84046186D01*
X142496186Y-84122984D01*
X142452319Y-84222334D01*
X142452316Y-84222343D01*
X142449500Y-84246624D01*
X142449500Y-85653374D01*
X142452317Y-85677661D01*
X142452318Y-85677663D01*
X142496186Y-85777015D01*
X142572985Y-85853814D01*
X142584373Y-85861615D01*
X142581796Y-85865376D01*
X142620740Y-85896689D01*
X142648629Y-85968598D01*
X142649500Y-85984686D01*
X142649500Y-87289261D01*
X142629538Y-87363761D01*
X142605859Y-87394620D01*
X141804858Y-88195621D01*
X141787870Y-88205428D01*
X141773999Y-88219300D01*
X141755050Y-88224377D01*
X141738063Y-88234185D01*
X141718447Y-88234185D01*
X141699499Y-88239262D01*
X141680551Y-88234185D01*
X141660935Y-88234185D01*
X141643947Y-88224377D01*
X141624999Y-88219300D01*
X141611127Y-88205428D01*
X141594140Y-88195621D01*
X141584332Y-88178633D01*
X141570461Y-88164762D01*
X141565383Y-88145813D01*
X141555576Y-88128826D01*
X141550499Y-88090262D01*
X141550499Y-87856900D01*
X141570461Y-87782400D01*
X141594140Y-87751541D01*
X141750393Y-87595288D01*
X141981470Y-87364212D01*
X142027614Y-87284288D01*
X142051500Y-87195144D01*
X142051500Y-81655899D01*
X142071462Y-81581399D01*
X142095137Y-81550543D01*
X142601542Y-81044138D01*
X142668335Y-81005576D01*
X142706891Y-81000499D01*
X143503372Y-81000499D01*
X143503375Y-81000499D01*
X143521589Y-80998386D01*
X143527662Y-80997682D01*
X143627016Y-80953813D01*
X143703813Y-80877016D01*
X143747682Y-80777662D01*
X143750500Y-80753373D01*
X143750499Y-79346628D01*
X143747682Y-79322338D01*
X143703813Y-79222984D01*
X143627016Y-79146187D01*
X143627015Y-79146186D01*
X143527665Y-79102319D01*
X143527656Y-79102316D01*
X143503375Y-79099500D01*
X142696625Y-79099500D01*
X142672338Y-79102317D01*
X142672336Y-79102318D01*
X142572984Y-79146186D01*
X142496186Y-79222984D01*
X142452319Y-79322334D01*
X142452316Y-79322343D01*
X142449500Y-79346624D01*
X142449500Y-80143099D01*
X142429538Y-80217599D01*
X142405859Y-80248458D01*
X141420530Y-81233787D01*
X141374386Y-81313710D01*
X141350500Y-81402855D01*
X141350500Y-86850500D01*
X141330538Y-86925000D01*
X141276000Y-86979538D01*
X141201500Y-86999500D01*
X140496625Y-86999500D01*
X140472338Y-87002317D01*
X140472336Y-87002318D01*
X140372984Y-87046186D01*
X140296186Y-87122984D01*
X140252319Y-87222334D01*
X140252316Y-87222343D01*
X140249500Y-87246624D01*
X140249500Y-87246627D01*
X140249500Y-87945659D01*
X140249501Y-88551500D01*
X140229539Y-88626000D01*
X140175001Y-88680538D01*
X140100501Y-88700500D01*
X139049321Y-88700500D01*
X138974821Y-88680538D01*
X138943962Y-88656859D01*
X138294140Y-88007037D01*
X138255576Y-87940242D01*
X138250499Y-87901678D01*
X138250499Y-87246625D01*
X138247682Y-87222338D01*
X138247681Y-87222336D01*
X138203813Y-87122984D01*
X138127015Y-87046186D01*
X138027665Y-87002319D01*
X138027656Y-87002316D01*
X138003376Y-86999500D01*
X137455900Y-86999500D01*
X137381400Y-86979538D01*
X137326862Y-86925000D01*
X137306900Y-86850500D01*
X137326862Y-86776000D01*
X137350537Y-86745145D01*
X137880470Y-86215213D01*
X137926614Y-86135289D01*
X137950500Y-86046145D01*
X137950500Y-85953857D01*
X137950500Y-84128840D01*
X137970462Y-84054340D01*
X138025000Y-83999802D01*
X138039296Y-83992544D01*
X138127016Y-83953813D01*
X138203813Y-83877016D01*
X138247682Y-83777662D01*
X138250500Y-83753373D01*
X138250499Y-82346628D01*
X138250480Y-82346467D01*
X138247682Y-82322338D01*
X138247681Y-82322336D01*
X138203813Y-82222984D01*
X138127015Y-82146186D01*
X138027665Y-82102319D01*
X138027656Y-82102316D01*
X138003375Y-82099500D01*
X137196625Y-82099500D01*
X137172338Y-82102317D01*
X137172336Y-82102318D01*
X137072984Y-82146186D01*
X136996186Y-82222984D01*
X136952319Y-82322334D01*
X136952316Y-82322343D01*
X136949500Y-82346624D01*
X136949500Y-83753374D01*
X136952317Y-83777661D01*
X136952318Y-83777663D01*
X136996186Y-83877015D01*
X136996187Y-83877016D01*
X137072984Y-83953813D01*
X137160687Y-83992537D01*
X137220773Y-84040889D01*
X137248635Y-84112808D01*
X137249500Y-84128840D01*
X137249500Y-85793101D01*
X137229538Y-85867601D01*
X137205859Y-85898460D01*
X135148459Y-87955859D01*
X135081664Y-87994423D01*
X135043103Y-87999500D01*
X134996626Y-87999500D01*
X134972338Y-88002317D01*
X134972336Y-88002318D01*
X134872984Y-88046186D01*
X134796186Y-88122984D01*
X134752319Y-88222334D01*
X134752316Y-88222343D01*
X134750354Y-88239262D01*
X134749500Y-88246627D01*
X134749500Y-88949499D01*
X134749501Y-89551500D01*
X134729539Y-89626000D01*
X134675001Y-89680538D01*
X134600501Y-89700500D01*
X133549321Y-89700500D01*
X133474821Y-89680538D01*
X133443962Y-89656859D01*
X132794140Y-89007037D01*
X132755576Y-88940242D01*
X132750499Y-88901678D01*
X132750499Y-88246625D01*
X132747682Y-88222338D01*
X132747681Y-88222336D01*
X132746340Y-88219300D01*
X132703813Y-88122984D01*
X132627016Y-88046187D01*
X132627015Y-88046186D01*
X132527665Y-88002319D01*
X132527656Y-88002316D01*
X132503375Y-87999500D01*
X131696625Y-87999500D01*
X131672338Y-88002317D01*
X131672336Y-88002318D01*
X131572984Y-88046186D01*
X131496186Y-88122984D01*
X131452319Y-88222334D01*
X131452316Y-88222343D01*
X131449500Y-88246624D01*
X131449500Y-88901678D01*
X131429538Y-88976178D01*
X131405859Y-89007037D01*
X130804858Y-89608037D01*
X130738063Y-89646601D01*
X130660935Y-89646601D01*
X130594140Y-89608037D01*
X130555576Y-89541242D01*
X130550499Y-89502684D01*
X130550499Y-88246628D01*
X130547682Y-88222338D01*
X130503813Y-88122984D01*
X130427016Y-88046187D01*
X130342773Y-88008990D01*
X130339315Y-88007463D01*
X130279226Y-87959109D01*
X130251365Y-87887189D01*
X130250500Y-87871159D01*
X130250500Y-86456899D01*
X130270462Y-86382399D01*
X130294137Y-86351544D01*
X131601542Y-85044138D01*
X131668335Y-85005576D01*
X131706891Y-85000499D01*
X132503372Y-85000499D01*
X132503375Y-85000499D01*
X132521589Y-84998386D01*
X132527662Y-84997682D01*
X132627016Y-84953813D01*
X132703813Y-84877016D01*
X132747682Y-84777662D01*
X132750500Y-84753373D01*
X132750499Y-83346628D01*
X132747682Y-83322338D01*
X132703813Y-83222984D01*
X132627016Y-83146187D01*
X132627015Y-83146186D01*
X132527665Y-83102319D01*
X132527656Y-83102316D01*
X132503375Y-83099500D01*
X131696625Y-83099500D01*
X131672338Y-83102317D01*
X131672336Y-83102318D01*
X131572984Y-83146186D01*
X131496186Y-83222984D01*
X131452319Y-83322334D01*
X131452316Y-83322343D01*
X131449500Y-83346624D01*
X131449500Y-84143099D01*
X131429538Y-84217599D01*
X131405859Y-84248458D01*
X129619530Y-86034787D01*
X129573386Y-86114710D01*
X129549500Y-86203855D01*
X129549500Y-87871159D01*
X129529538Y-87945659D01*
X129475000Y-88000197D01*
X129460685Y-88007463D01*
X129372983Y-88046187D01*
X129296186Y-88122984D01*
X129252319Y-88222334D01*
X129252316Y-88222343D01*
X129250354Y-88239262D01*
X129249500Y-88246627D01*
X129249500Y-88949499D01*
X129249501Y-89551500D01*
X129229539Y-89626000D01*
X129175001Y-89680538D01*
X129100501Y-89700500D01*
X128049321Y-89700500D01*
X127974821Y-89680538D01*
X127943962Y-89656859D01*
X127294140Y-89007037D01*
X127255576Y-88940242D01*
X127250499Y-88901678D01*
X127250499Y-88246625D01*
X127247682Y-88222338D01*
X127247681Y-88222336D01*
X127246340Y-88219300D01*
X127203813Y-88122984D01*
X127127016Y-88046187D01*
X127127015Y-88046186D01*
X127027665Y-88002319D01*
X127027656Y-88002316D01*
X127003375Y-87999500D01*
X126196625Y-87999500D01*
X126172338Y-88002317D01*
X126172336Y-88002318D01*
X126072984Y-88046186D01*
X125996186Y-88122984D01*
X125952319Y-88222334D01*
X125952316Y-88222343D01*
X125949500Y-88246624D01*
X125949500Y-88800499D01*
X125929538Y-88874999D01*
X125875000Y-88929537D01*
X125800500Y-88949499D01*
X125156322Y-88949499D01*
X125081822Y-88929537D01*
X125027284Y-88874999D01*
X125007322Y-88800499D01*
X125020018Y-88740314D01*
X125047682Y-88677662D01*
X125050500Y-88653373D01*
X125050499Y-87246628D01*
X125047682Y-87222338D01*
X125003813Y-87122984D01*
X124927016Y-87046187D01*
X124920801Y-87043443D01*
X124839315Y-87007463D01*
X124779226Y-86959109D01*
X124751365Y-86887189D01*
X124750500Y-86871159D01*
X124750500Y-86456899D01*
X124770462Y-86382399D01*
X124794137Y-86351544D01*
X126101542Y-85044138D01*
X126168335Y-85005576D01*
X126206891Y-85000499D01*
X127003372Y-85000499D01*
X127003375Y-85000499D01*
X127021589Y-84998386D01*
X127027662Y-84997682D01*
X127127016Y-84953813D01*
X127203813Y-84877016D01*
X127247682Y-84777662D01*
X127250500Y-84753373D01*
X127250499Y-83346628D01*
X127247682Y-83322338D01*
X127203813Y-83222984D01*
X127127016Y-83146187D01*
X127127015Y-83146186D01*
X127027665Y-83102319D01*
X127027656Y-83102316D01*
X127003375Y-83099500D01*
X126196625Y-83099500D01*
X126172338Y-83102317D01*
X126172336Y-83102318D01*
X126072984Y-83146186D01*
X125996186Y-83222984D01*
X125952319Y-83322334D01*
X125952316Y-83322343D01*
X125949500Y-83346624D01*
X125949500Y-84143099D01*
X125929538Y-84217599D01*
X125905859Y-84248458D01*
X124119530Y-86034787D01*
X124073386Y-86114710D01*
X124049500Y-86203855D01*
X124049500Y-86871159D01*
X124029538Y-86945659D01*
X123975000Y-87000197D01*
X123960685Y-87007463D01*
X123872983Y-87046187D01*
X123796186Y-87122984D01*
X123752319Y-87222334D01*
X123752316Y-87222343D01*
X123749500Y-87246624D01*
X123749500Y-88653374D01*
X123752317Y-88677661D01*
X123779982Y-88740314D01*
X123791813Y-88816529D01*
X123763952Y-88888449D01*
X123703863Y-88936803D01*
X123643678Y-88949499D01*
X122798320Y-88949499D01*
X122723820Y-88929537D01*
X122692961Y-88905858D01*
X121794140Y-88007037D01*
X121755576Y-87940242D01*
X121750499Y-87901678D01*
X121750499Y-87246625D01*
X121747682Y-87222338D01*
X121747681Y-87222336D01*
X121703813Y-87122984D01*
X121627015Y-87046186D01*
X121527665Y-87002319D01*
X121527656Y-87002316D01*
X121503375Y-86999500D01*
X120696625Y-86999500D01*
X120672338Y-87002317D01*
X120672336Y-87002318D01*
X120572984Y-87046186D01*
X120496186Y-87122984D01*
X120452319Y-87222334D01*
X120452316Y-87222343D01*
X120449500Y-87246624D01*
X120449500Y-87350500D01*
X120429538Y-87425000D01*
X120375000Y-87479538D01*
X120300500Y-87499500D01*
X118848322Y-87499500D01*
X118773822Y-87479538D01*
X118742963Y-87455859D01*
X116294140Y-85007036D01*
X116255576Y-84940241D01*
X116250499Y-84901677D01*
X116250499Y-84246625D01*
X116250499Y-84246624D01*
X118249500Y-84246624D01*
X118249500Y-85653374D01*
X118252317Y-85677661D01*
X118252318Y-85677663D01*
X118296186Y-85777015D01*
X118296187Y-85777016D01*
X118372984Y-85853813D01*
X118472338Y-85897682D01*
X118472341Y-85897682D01*
X118472343Y-85897683D01*
X118481855Y-85898786D01*
X118496627Y-85900500D01*
X119303372Y-85900499D01*
X119303374Y-85900499D01*
X119319565Y-85898621D01*
X119327662Y-85897682D01*
X119427016Y-85853813D01*
X119503813Y-85777016D01*
X119547682Y-85677662D01*
X119550500Y-85653373D01*
X119550499Y-85156898D01*
X119570461Y-85082399D01*
X119594136Y-85051544D01*
X120601542Y-84044138D01*
X120668335Y-84005576D01*
X120706891Y-84000499D01*
X121503372Y-84000499D01*
X121503375Y-84000499D01*
X121521589Y-83998386D01*
X121527662Y-83997682D01*
X121627016Y-83953813D01*
X121703813Y-83877016D01*
X121747682Y-83777662D01*
X121750500Y-83753373D01*
X121750499Y-82346628D01*
X121750480Y-82346467D01*
X121747682Y-82322338D01*
X121747681Y-82322336D01*
X121703813Y-82222984D01*
X121627015Y-82146186D01*
X121527665Y-82102319D01*
X121527656Y-82102316D01*
X121503375Y-82099500D01*
X120696625Y-82099500D01*
X120672338Y-82102317D01*
X120672336Y-82102318D01*
X120572984Y-82146186D01*
X120496186Y-82222984D01*
X120452319Y-82322334D01*
X120452316Y-82322343D01*
X120449500Y-82346624D01*
X120449500Y-83143099D01*
X120429538Y-83217599D01*
X120405859Y-83248458D01*
X119621989Y-84032327D01*
X119555194Y-84070891D01*
X119478066Y-84070891D01*
X119432423Y-84049891D01*
X119427015Y-84046186D01*
X119327665Y-84002319D01*
X119327656Y-84002316D01*
X119303375Y-83999500D01*
X118496625Y-83999500D01*
X118472338Y-84002317D01*
X118472336Y-84002318D01*
X118372984Y-84046186D01*
X118296186Y-84122984D01*
X118252319Y-84222334D01*
X118252316Y-84222343D01*
X118249500Y-84246624D01*
X116250499Y-84246624D01*
X116247682Y-84222338D01*
X116247681Y-84222336D01*
X116245589Y-84217599D01*
X116203813Y-84122984D01*
X116127016Y-84046187D01*
X116127015Y-84046186D01*
X116027665Y-84002319D01*
X116027656Y-84002316D01*
X116003375Y-83999500D01*
X115196625Y-83999500D01*
X115172338Y-84002317D01*
X115172336Y-84002318D01*
X115072984Y-84046186D01*
X114996186Y-84122984D01*
X114952319Y-84222334D01*
X114952316Y-84222343D01*
X114949500Y-84246624D01*
X114949500Y-84290263D01*
X114929538Y-84364763D01*
X114875000Y-84419301D01*
X114800500Y-84439263D01*
X114726000Y-84419301D01*
X114695141Y-84395622D01*
X113454377Y-83154858D01*
X113415813Y-83088063D01*
X113415813Y-83010935D01*
X113454377Y-82944140D01*
X113521172Y-82905576D01*
X113559736Y-82900499D01*
X113803375Y-82900499D01*
X113821589Y-82898386D01*
X113827662Y-82897682D01*
X113927016Y-82853813D01*
X114003813Y-82777016D01*
X114047682Y-82677662D01*
X114050500Y-82653373D01*
X114050499Y-82156898D01*
X114070461Y-82082399D01*
X114094136Y-82051544D01*
X115101542Y-81044138D01*
X115168335Y-81005576D01*
X115206891Y-81000499D01*
X116003372Y-81000499D01*
X116003375Y-81000499D01*
X116021589Y-80998386D01*
X116027662Y-80997682D01*
X116127016Y-80953813D01*
X116203813Y-80877016D01*
X116247682Y-80777662D01*
X116250500Y-80753373D01*
X116250499Y-79346628D01*
X116247682Y-79322338D01*
X116203813Y-79222984D01*
X116127016Y-79146187D01*
X116127015Y-79146186D01*
X116027665Y-79102319D01*
X116027656Y-79102316D01*
X116003375Y-79099500D01*
X115196625Y-79099500D01*
X115172338Y-79102317D01*
X115172336Y-79102318D01*
X115072984Y-79146186D01*
X114996186Y-79222984D01*
X114952319Y-79322334D01*
X114952316Y-79322343D01*
X114949500Y-79346624D01*
X114949500Y-80143099D01*
X114929538Y-80217599D01*
X114905859Y-80248458D01*
X114121989Y-81032327D01*
X114055194Y-81070891D01*
X113978066Y-81070891D01*
X113932423Y-81049891D01*
X113927015Y-81046186D01*
X113827665Y-81002319D01*
X113827656Y-81002316D01*
X113803375Y-80999500D01*
X112996625Y-80999500D01*
X112972338Y-81002317D01*
X112972336Y-81002318D01*
X112872984Y-81046186D01*
X112796186Y-81122984D01*
X112752319Y-81222334D01*
X112752316Y-81222343D01*
X112749500Y-81246624D01*
X112749500Y-82090263D01*
X112744423Y-82109210D01*
X112744423Y-82128827D01*
X112734615Y-82145814D01*
X112729538Y-82164763D01*
X112715666Y-82178634D01*
X112705859Y-82195622D01*
X112688871Y-82205429D01*
X112675000Y-82219301D01*
X112656051Y-82224378D01*
X112639064Y-82234186D01*
X112619448Y-82234186D01*
X112600500Y-82239263D01*
X112581552Y-82234186D01*
X112561936Y-82234186D01*
X112544948Y-82224378D01*
X112526000Y-82219301D01*
X112495141Y-82195622D01*
X112329141Y-82029622D01*
X112290577Y-81962827D01*
X112285500Y-81924263D01*
X112285500Y-74497966D01*
X112305462Y-74423466D01*
X112329141Y-74392607D01*
X112408528Y-74313220D01*
X112469719Y-74193126D01*
X112485500Y-74093488D01*
X112485500Y-73643321D01*
X112505462Y-73568821D01*
X112529141Y-73537962D01*
X115667962Y-70399141D01*
X115734757Y-70360577D01*
X115773321Y-70355500D01*
X118256679Y-70355500D01*
X118331179Y-70375462D01*
X118362038Y-70399141D01*
X127523386Y-79560489D01*
X127523388Y-79560490D01*
X127523389Y-79560491D01*
X127626115Y-79619800D01*
X127640424Y-79623633D01*
X127650317Y-79626283D01*
X127650324Y-79626287D01*
X127650325Y-79626286D01*
X127669601Y-79631451D01*
X127740691Y-79650500D01*
X135122337Y-79650500D01*
X135137577Y-79651499D01*
X135139691Y-79651499D01*
X135258307Y-79651499D01*
X135258309Y-79651499D01*
X135258311Y-79651498D01*
X135258314Y-79651498D01*
X135372884Y-79620800D01*
X135372884Y-79620799D01*
X135372887Y-79620799D01*
X135475614Y-79561489D01*
X135559489Y-79477614D01*
X152793962Y-62243141D01*
X152860757Y-62204577D01*
X152899321Y-62199500D01*
X161200500Y-62199500D01*
X161275000Y-62219462D01*
G37*
%TD.AperFunction*%
%TA.AperFunction,Conductor*%
G36*
X131114917Y-44485577D02*
G01*
X131134533Y-44485577D01*
X131151520Y-44495384D01*
X131170469Y-44500462D01*
X131201323Y-44524137D01*
X131217686Y-44540500D01*
X131331814Y-44606392D01*
X131459108Y-44640500D01*
X131590892Y-44640500D01*
X131590897Y-44640499D01*
X131619839Y-44632743D01*
X131636934Y-44628162D01*
X131714062Y-44628161D01*
X131780857Y-44666724D01*
X131819422Y-44733519D01*
X131824500Y-44772085D01*
X131824500Y-56458099D01*
X131804538Y-56532599D01*
X131780859Y-56563458D01*
X128913915Y-59430401D01*
X128847120Y-59468965D01*
X128769992Y-59468965D01*
X128751536Y-59462700D01*
X128730081Y-59453813D01*
X128696420Y-59439870D01*
X128696418Y-59439869D01*
X128696417Y-59439869D01*
X128493465Y-59399500D01*
X128286535Y-59399500D01*
X128083582Y-59439869D01*
X127892403Y-59519057D01*
X127720345Y-59634022D01*
X127574022Y-59780345D01*
X127459057Y-59952403D01*
X127379869Y-60143582D01*
X127339500Y-60346534D01*
X127339500Y-60553465D01*
X127379869Y-60756417D01*
X127379870Y-60756421D01*
X127413055Y-60836537D01*
X127423122Y-60913005D01*
X127393606Y-60984262D01*
X127380756Y-60998915D01*
X126078811Y-62300862D01*
X126012016Y-62339426D01*
X125973452Y-62344503D01*
X124775541Y-62344503D01*
X124701041Y-62324541D01*
X124646503Y-62270003D01*
X124626541Y-62195503D01*
X124646503Y-62121003D01*
X124670178Y-62090148D01*
X125301085Y-61459240D01*
X125367878Y-61420678D01*
X125445006Y-61420678D01*
X125463447Y-61426937D01*
X125543580Y-61460130D01*
X125543583Y-61460130D01*
X125543584Y-61460131D01*
X125746535Y-61500500D01*
X125953465Y-61500500D01*
X126156420Y-61460130D01*
X126347598Y-61380941D01*
X126519655Y-61265977D01*
X126665977Y-61119655D01*
X126780941Y-60947598D01*
X126860130Y-60756420D01*
X126900500Y-60553465D01*
X126900500Y-60346535D01*
X126892444Y-60306037D01*
X126860130Y-60143581D01*
X126860130Y-60143580D01*
X126837299Y-60088461D01*
X126827232Y-60011993D01*
X126856747Y-59940736D01*
X126869590Y-59926090D01*
X127505470Y-59290212D01*
X127551614Y-59210288D01*
X127575500Y-59121143D01*
X127575500Y-59028856D01*
X127575500Y-44629500D01*
X127595462Y-44555000D01*
X127650000Y-44500462D01*
X127724500Y-44480500D01*
X131095969Y-44480500D01*
X131114917Y-44485577D01*
G37*
%TD.AperFunction*%
%TA.AperFunction,Conductor*%
G36*
X126299620Y-41835462D02*
G01*
X126354158Y-41890000D01*
X126374120Y-41964500D01*
X126354158Y-42039000D01*
X126299620Y-42093538D01*
X126290560Y-42098360D01*
X126193518Y-42145800D01*
X126110800Y-42228518D01*
X126059426Y-42333605D01*
X126059426Y-42333606D01*
X126049500Y-42401731D01*
X126049500Y-42768268D01*
X126059426Y-42836393D01*
X126059426Y-42836394D01*
X126110800Y-42941481D01*
X126193518Y-43024199D01*
X126298605Y-43075573D01*
X126366731Y-43085499D01*
X126366737Y-43085499D01*
X126366740Y-43085500D01*
X126725500Y-43085500D01*
X126800000Y-43105462D01*
X126854538Y-43160000D01*
X126874500Y-43234500D01*
X126874500Y-58868099D01*
X126854538Y-58942599D01*
X126830859Y-58973458D01*
X126373915Y-59430401D01*
X126307120Y-59468965D01*
X126229992Y-59468965D01*
X126211536Y-59462700D01*
X126190081Y-59453813D01*
X126156420Y-59439870D01*
X126156418Y-59439869D01*
X126156417Y-59439869D01*
X125953465Y-59399500D01*
X125746535Y-59399500D01*
X125543582Y-59439869D01*
X125352403Y-59519057D01*
X125180345Y-59634022D01*
X125034022Y-59780345D01*
X124919057Y-59952403D01*
X124839869Y-60143582D01*
X124799500Y-60346534D01*
X124799500Y-60553465D01*
X124839869Y-60756417D01*
X124839870Y-60756421D01*
X124873055Y-60836537D01*
X124883122Y-60913005D01*
X124853606Y-60984262D01*
X124840756Y-60998915D01*
X124614859Y-61224813D01*
X124548064Y-61263377D01*
X124470936Y-61263377D01*
X124404141Y-61224813D01*
X124365577Y-61158018D01*
X124360500Y-61119454D01*
X124360500Y-59580251D01*
X124348867Y-59521769D01*
X124338047Y-59505576D01*
X124304552Y-59455448D01*
X124238231Y-59411133D01*
X124238230Y-59411132D01*
X124179748Y-59399500D01*
X123909500Y-59399500D01*
X123835000Y-59379538D01*
X123780462Y-59325000D01*
X123760500Y-59250500D01*
X123760500Y-45542399D01*
X123760499Y-45542397D01*
X123745144Y-45485092D01*
X123729799Y-45427822D01*
X123729799Y-45427821D01*
X123670489Y-45325094D01*
X121274799Y-42929404D01*
X121236235Y-42862609D01*
X121236235Y-42785481D01*
X121274799Y-42718686D01*
X121291679Y-42704160D01*
X121343774Y-42665712D01*
X121362150Y-42652150D01*
X121442793Y-42542882D01*
X121487646Y-42414699D01*
X121490500Y-42384266D01*
X121490500Y-41964500D01*
X121510462Y-41890000D01*
X121565000Y-41835462D01*
X121639500Y-41815500D01*
X126225120Y-41815500D01*
X126299620Y-41835462D01*
G37*
%TD.AperFunction*%
%TA.AperFunction,Conductor*%
G36*
X145711179Y-39530462D02*
G01*
X145742038Y-39554141D01*
X147931859Y-41743962D01*
X147970423Y-41810757D01*
X147975500Y-41849321D01*
X147975500Y-46544409D01*
X147955538Y-46618909D01*
X147901000Y-46673447D01*
X147826500Y-46693409D01*
X147752000Y-46673447D01*
X147721141Y-46649768D01*
X145345141Y-44273768D01*
X145306577Y-44206973D01*
X145301500Y-44168409D01*
X145301500Y-42754855D01*
X145283211Y-42686601D01*
X145277614Y-42665712D01*
X145277612Y-42665709D01*
X145277612Y-42665707D01*
X145257657Y-42631145D01*
X145257656Y-42631144D01*
X145231471Y-42585790D01*
X145231470Y-42585789D01*
X145231469Y-42585787D01*
X144769598Y-42123916D01*
X144731034Y-42057121D01*
X144731034Y-41979993D01*
X144737300Y-41961535D01*
X144747002Y-41938112D01*
X144760130Y-41906420D01*
X144800500Y-41703465D01*
X144800500Y-41496535D01*
X144800015Y-41494099D01*
X144771539Y-41350936D01*
X144760130Y-41293580D01*
X144693094Y-41131741D01*
X144680942Y-41102403D01*
X144565977Y-40930345D01*
X144419654Y-40784022D01*
X144247596Y-40669057D01*
X144076820Y-40598320D01*
X144056420Y-40589870D01*
X144056418Y-40589869D01*
X144056417Y-40589869D01*
X143853465Y-40549500D01*
X143646535Y-40549500D01*
X143443582Y-40589869D01*
X143252403Y-40669057D01*
X143080345Y-40784022D01*
X142934022Y-40930345D01*
X142819057Y-41102403D01*
X142739869Y-41293582D01*
X142699500Y-41496534D01*
X142699500Y-41703465D01*
X142739869Y-41906417D01*
X142739869Y-41906418D01*
X142739870Y-41906420D01*
X142741808Y-41911098D01*
X142762700Y-41961536D01*
X142763996Y-41971386D01*
X142768964Y-41979990D01*
X142768964Y-42009123D01*
X142772767Y-42038005D01*
X142768965Y-42047181D01*
X142768966Y-42057118D01*
X142754398Y-42082349D01*
X142743251Y-42109262D01*
X142730402Y-42123913D01*
X142663460Y-42190857D01*
X142596666Y-42229422D01*
X142558100Y-42234500D01*
X133356899Y-42234500D01*
X133282399Y-42214538D01*
X133251540Y-42190859D01*
X133206481Y-42145800D01*
X133101398Y-42094429D01*
X133101395Y-42094428D01*
X133101393Y-42094427D01*
X133101390Y-42094426D01*
X133094702Y-42092360D01*
X133029416Y-42051294D01*
X132993408Y-41983087D01*
X132996328Y-41906014D01*
X133037394Y-41840728D01*
X133094702Y-41807640D01*
X133101384Y-41805574D01*
X133101393Y-41805573D01*
X133206483Y-41754198D01*
X133289198Y-41671483D01*
X133336138Y-41575465D01*
X133340573Y-41566394D01*
X133340573Y-41566393D01*
X133350499Y-41498268D01*
X133350500Y-41498258D01*
X133350500Y-41131741D01*
X133350499Y-41131731D01*
X133340573Y-41063607D01*
X133316537Y-41014439D01*
X133301752Y-40938742D01*
X133326796Y-40865793D01*
X133384959Y-40815139D01*
X133450398Y-40800000D01*
X134018018Y-40800000D01*
X134028782Y-40800389D01*
X134030310Y-40800499D01*
X134030312Y-40800500D01*
X134030314Y-40800500D01*
X135069686Y-40800500D01*
X135069688Y-40800500D01*
X135069689Y-40800499D01*
X135071218Y-40800389D01*
X135081982Y-40800000D01*
X135195500Y-40800000D01*
X135270000Y-40819962D01*
X135324538Y-40874500D01*
X135344500Y-40949000D01*
X135344500Y-41226013D01*
X135349195Y-41269676D01*
X135360409Y-41321224D01*
X135362887Y-41331365D01*
X135362891Y-41331376D01*
X135405900Y-41412085D01*
X135442057Y-41453813D01*
X135451655Y-41464889D01*
X135469246Y-41482843D01*
X135549063Y-41527490D01*
X135616102Y-41547175D01*
X135635686Y-41549990D01*
X135673991Y-41555499D01*
X135673997Y-41555499D01*
X135674000Y-41555500D01*
X135674001Y-41555500D01*
X138075996Y-41555500D01*
X138076000Y-41555500D01*
X138076004Y-41555499D01*
X138076013Y-41555499D01*
X138119676Y-41550804D01*
X138119677Y-41550803D01*
X138119684Y-41550803D01*
X138171195Y-41539597D01*
X138181373Y-41537110D01*
X138262085Y-41494100D01*
X138314889Y-41448345D01*
X138332843Y-41430754D01*
X138377490Y-41350937D01*
X138397175Y-41283898D01*
X138405500Y-41226000D01*
X138405500Y-40259500D01*
X138425462Y-40185000D01*
X138480000Y-40130462D01*
X138554500Y-40110500D01*
X144619748Y-40110500D01*
X144678231Y-40098867D01*
X144744552Y-40054552D01*
X144788867Y-39988231D01*
X144800500Y-39929748D01*
X144800500Y-39659500D01*
X144820462Y-39585000D01*
X144875000Y-39530462D01*
X144949500Y-39510500D01*
X145636679Y-39510500D01*
X145711179Y-39530462D01*
G37*
%TD.AperFunction*%
%TA.AperFunction,Conductor*%
G36*
X144259261Y-42606746D02*
G01*
X144273916Y-42619598D01*
X144556859Y-42902541D01*
X144566666Y-42919528D01*
X144580538Y-42933400D01*
X144585615Y-42952348D01*
X144595423Y-42969336D01*
X144600500Y-43007900D01*
X144600500Y-43166100D01*
X144580538Y-43240600D01*
X144526000Y-43295138D01*
X144451500Y-43315100D01*
X144377000Y-43295138D01*
X144368721Y-43289990D01*
X144337898Y-43269395D01*
X144247598Y-43209059D01*
X144247595Y-43209057D01*
X144247594Y-43209057D01*
X144068293Y-43134788D01*
X144056420Y-43129870D01*
X144056418Y-43129869D01*
X144056417Y-43129869D01*
X143853465Y-43089500D01*
X143646535Y-43089500D01*
X143443582Y-43129869D01*
X143252403Y-43209057D01*
X143080345Y-43324022D01*
X142934022Y-43470345D01*
X142819062Y-43642397D01*
X142819058Y-43642404D01*
X142796228Y-43697521D01*
X142749275Y-43758710D01*
X142678017Y-43788225D01*
X142658570Y-43789500D01*
X133244031Y-43789500D01*
X133169531Y-43769538D01*
X133138676Y-43745862D01*
X133132314Y-43739500D01*
X133132311Y-43739498D01*
X133132310Y-43739497D01*
X133024265Y-43677118D01*
X133018186Y-43673608D01*
X132890892Y-43639500D01*
X132759108Y-43639500D01*
X132759104Y-43639500D01*
X132713064Y-43651837D01*
X132693448Y-43651837D01*
X132674500Y-43656914D01*
X132655552Y-43651837D01*
X132635936Y-43651837D01*
X132618948Y-43642029D01*
X132600000Y-43636952D01*
X132586128Y-43623080D01*
X132569141Y-43613273D01*
X132559333Y-43596285D01*
X132545462Y-43582414D01*
X132540384Y-43563465D01*
X132530577Y-43546478D01*
X132525500Y-43507914D01*
X132525500Y-43234500D01*
X132545462Y-43160000D01*
X132600000Y-43105462D01*
X132674500Y-43085500D01*
X133033259Y-43085500D01*
X133033260Y-43085500D01*
X133033263Y-43085499D01*
X133033268Y-43085499D01*
X133101393Y-43075573D01*
X133101394Y-43075573D01*
X133206481Y-43024199D01*
X133206481Y-43024198D01*
X133206483Y-43024198D01*
X133251540Y-42979141D01*
X133318335Y-42940577D01*
X133356899Y-42935500D01*
X142811144Y-42935500D01*
X142900288Y-42911614D01*
X142980212Y-42865470D01*
X143226084Y-42619596D01*
X143292877Y-42581034D01*
X143370005Y-42581034D01*
X143388461Y-42587299D01*
X143411383Y-42596793D01*
X143443580Y-42610130D01*
X143646535Y-42650500D01*
X143853465Y-42650500D01*
X144056420Y-42610130D01*
X144111535Y-42587299D01*
X144188004Y-42577231D01*
X144259261Y-42606746D01*
G37*
%TD.AperFunction*%
%TA.AperFunction,Conductor*%
G36*
X129325000Y-39475462D02*
G01*
X129379538Y-39530000D01*
X129399500Y-39604500D01*
X129399500Y-40297855D01*
X129411387Y-40342219D01*
X129420090Y-40374699D01*
X129421683Y-40380641D01*
X129464532Y-40454858D01*
X129464533Y-40454859D01*
X129464535Y-40454862D01*
X130524534Y-41514861D01*
X130524535Y-41514862D01*
X130585138Y-41575465D01*
X130659362Y-41618318D01*
X130742147Y-41640500D01*
X130968101Y-41640500D01*
X131042601Y-41660462D01*
X131050170Y-41665139D01*
X131062778Y-41673459D01*
X131143517Y-41754198D01*
X131248607Y-41805573D01*
X131267044Y-41808259D01*
X131293380Y-41825639D01*
X131305334Y-41839114D01*
X131320585Y-41848707D01*
X131330487Y-41867466D01*
X131344565Y-41883334D01*
X131348180Y-41900983D01*
X131356591Y-41916915D01*
X131355787Y-41938112D01*
X131360045Y-41958893D01*
X131354352Y-41975984D01*
X131353670Y-41993988D01*
X131342374Y-42011944D01*
X131335672Y-42032069D01*
X131322196Y-42044023D01*
X131312604Y-42059274D01*
X131290849Y-42071833D01*
X131277977Y-42083254D01*
X131267269Y-42085447D01*
X131255299Y-42092359D01*
X131248604Y-42094427D01*
X131143518Y-42145800D01*
X131060800Y-42228518D01*
X131009426Y-42333605D01*
X131009426Y-42333606D01*
X130999500Y-42401731D01*
X130999500Y-42768268D01*
X131009426Y-42836393D01*
X131009426Y-42836394D01*
X131060800Y-42941481D01*
X131143518Y-43024199D01*
X131248605Y-43075573D01*
X131316731Y-43085499D01*
X131316737Y-43085499D01*
X131316740Y-43085500D01*
X131675500Y-43085500D01*
X131750000Y-43105462D01*
X131804538Y-43160000D01*
X131824500Y-43234500D01*
X131824500Y-43507914D01*
X131804538Y-43582414D01*
X131750000Y-43636952D01*
X131675500Y-43656914D01*
X131636936Y-43651837D01*
X131590895Y-43639500D01*
X131590892Y-43639500D01*
X131459108Y-43639500D01*
X131331814Y-43673608D01*
X131331812Y-43673608D01*
X131331812Y-43673609D01*
X131217689Y-43739497D01*
X131209945Y-43745441D01*
X131208344Y-43743355D01*
X131154533Y-43774423D01*
X131115969Y-43779500D01*
X127724500Y-43779500D01*
X127650000Y-43759538D01*
X127595462Y-43705000D01*
X127575500Y-43630500D01*
X127575500Y-43234500D01*
X127595462Y-43160000D01*
X127650000Y-43105462D01*
X127724500Y-43085500D01*
X128083259Y-43085500D01*
X128083260Y-43085500D01*
X128083263Y-43085499D01*
X128083268Y-43085499D01*
X128151393Y-43075573D01*
X128151394Y-43075573D01*
X128256481Y-43024199D01*
X128256481Y-43024198D01*
X128256483Y-43024198D01*
X128339198Y-42941483D01*
X128357572Y-42903899D01*
X128390573Y-42836394D01*
X128390573Y-42836393D01*
X128400499Y-42768268D01*
X128400500Y-42768258D01*
X128400500Y-42401741D01*
X128400499Y-42401731D01*
X128390573Y-42333606D01*
X128390573Y-42333605D01*
X128339199Y-42228518D01*
X128256481Y-42145800D01*
X128151398Y-42094429D01*
X128151395Y-42094428D01*
X128151393Y-42094427D01*
X128151390Y-42094426D01*
X128144702Y-42092360D01*
X128079416Y-42051294D01*
X128043408Y-41983087D01*
X128046328Y-41906014D01*
X128087394Y-41840728D01*
X128144702Y-41807640D01*
X128151384Y-41805574D01*
X128151393Y-41805573D01*
X128256483Y-41754198D01*
X128339198Y-41671483D01*
X128386138Y-41575465D01*
X128390573Y-41566394D01*
X128390573Y-41566393D01*
X128400499Y-41498268D01*
X128400500Y-41498258D01*
X128400500Y-41131741D01*
X128400499Y-41131731D01*
X128390573Y-41063606D01*
X128390573Y-41063605D01*
X128339199Y-40958518D01*
X128256481Y-40875800D01*
X128151398Y-40824429D01*
X128151395Y-40824428D01*
X128151393Y-40824427D01*
X128151390Y-40824426D01*
X128144702Y-40822360D01*
X128079416Y-40781294D01*
X128043408Y-40713087D01*
X128046328Y-40636014D01*
X128087394Y-40570728D01*
X128144702Y-40537640D01*
X128151384Y-40535574D01*
X128151393Y-40535573D01*
X128256483Y-40484198D01*
X128339198Y-40401483D01*
X128352294Y-40374695D01*
X128390573Y-40296394D01*
X128390573Y-40296393D01*
X128400499Y-40228268D01*
X128400500Y-40228258D01*
X128400500Y-39861741D01*
X128400499Y-39861731D01*
X128390573Y-39793606D01*
X128390573Y-39793605D01*
X128333776Y-39677425D01*
X128335584Y-39676540D01*
X128313984Y-39618847D01*
X128326680Y-39542771D01*
X128375714Y-39483235D01*
X128447945Y-39456192D01*
X128462292Y-39455500D01*
X129250500Y-39455500D01*
X129325000Y-39475462D01*
G37*
%TD.AperFunction*%
%TA.AperFunction,Conductor*%
G36*
X130450000Y-40159955D02*
G01*
X130444923Y-40178902D01*
X130444923Y-40198519D01*
X130435115Y-40215506D01*
X130430038Y-40234455D01*
X130416166Y-40248326D01*
X130406359Y-40265314D01*
X130389371Y-40275121D01*
X130375500Y-40288993D01*
X130356551Y-40294070D01*
X130339564Y-40303878D01*
X130319948Y-40303878D01*
X130301000Y-40308955D01*
X130282052Y-40303878D01*
X130262436Y-40303878D01*
X130245448Y-40294070D01*
X130226500Y-40288993D01*
X130195641Y-40265314D01*
X130094141Y-40163814D01*
X130055577Y-40097019D01*
X130050500Y-40058455D01*
X130050500Y-39250000D01*
X130450000Y-39250000D01*
X130450000Y-40159955D01*
G37*
%TD.AperFunction*%
%TA.AperFunction,Conductor*%
G36*
X191501390Y-20500526D02*
G01*
X192506785Y-20519329D01*
X192512280Y-20519534D01*
X193514936Y-20575842D01*
X193520435Y-20576254D01*
X194520222Y-20670007D01*
X194525743Y-20670630D01*
X195521332Y-20801701D01*
X195526753Y-20802518D01*
X196516803Y-20970735D01*
X196522230Y-20971762D01*
X197505243Y-21176868D01*
X197510638Y-21178099D01*
X198485297Y-21419819D01*
X198490640Y-21421251D01*
X199455606Y-21699252D01*
X199460868Y-21700876D01*
X200414726Y-22014752D01*
X200419952Y-22016580D01*
X201361449Y-22365918D01*
X201366574Y-22367929D01*
X202294307Y-22752209D01*
X202299407Y-22754433D01*
X203212111Y-23173129D01*
X203217131Y-23175547D01*
X204113541Y-23628075D01*
X204118446Y-23630667D01*
X204997333Y-24116411D01*
X205002103Y-24119165D01*
X205862228Y-24637441D01*
X205866896Y-24640373D01*
X206454493Y-25025095D01*
X206707029Y-25190440D01*
X206711633Y-25193579D01*
X207530582Y-25774654D01*
X207535065Y-25777963D01*
X208331708Y-26389249D01*
X208336065Y-26392724D01*
X209109271Y-27033350D01*
X209113495Y-27036984D01*
X209862255Y-27706117D01*
X209866339Y-27709907D01*
X210589522Y-28406536D01*
X210593463Y-28410477D01*
X211290092Y-29133660D01*
X211293882Y-29137744D01*
X211963015Y-29886504D01*
X211966649Y-29890728D01*
X212607275Y-30663934D01*
X212610750Y-30668291D01*
X213222036Y-31464934D01*
X213225345Y-31469417D01*
X213806420Y-32288366D01*
X213809559Y-32292970D01*
X213997078Y-32579373D01*
X214339050Y-33101677D01*
X214359610Y-33133078D01*
X214362567Y-33137785D01*
X214773433Y-33819654D01*
X214880818Y-33997868D01*
X214883598Y-34002683D01*
X214945190Y-34114125D01*
X215369320Y-34881531D01*
X215371924Y-34886458D01*
X215824452Y-35782868D01*
X215826870Y-35787888D01*
X216245562Y-36700585D01*
X216247790Y-36705692D01*
X216632057Y-37633394D01*
X216634093Y-37638581D01*
X216983413Y-38580030D01*
X216985253Y-38585290D01*
X217299113Y-39539099D01*
X217300756Y-39544424D01*
X217578743Y-40509340D01*
X217580185Y-40514722D01*
X217821895Y-41489342D01*
X217823135Y-41494775D01*
X218028232Y-42477745D01*
X218029268Y-42483219D01*
X218197474Y-43473202D01*
X218198304Y-43478713D01*
X218329368Y-44474248D01*
X218329992Y-44479785D01*
X218423742Y-45479535D01*
X218424159Y-45485092D01*
X218480463Y-46487683D01*
X218480671Y-46493251D01*
X218499452Y-47497451D01*
X218499460Y-47502552D01*
X218479982Y-48756016D01*
X218479838Y-48760644D01*
X218421415Y-50013107D01*
X218421128Y-50017728D01*
X218323816Y-51267812D01*
X218323385Y-51272422D01*
X218187281Y-52518862D01*
X218186707Y-52523456D01*
X218011940Y-53765082D01*
X218011223Y-53769656D01*
X217797970Y-55005208D01*
X217797112Y-55009758D01*
X217545567Y-56238117D01*
X217544568Y-56242638D01*
X217254972Y-57462615D01*
X217253832Y-57467103D01*
X216926486Y-58677441D01*
X216925208Y-58681891D01*
X216560413Y-59881480D01*
X216558998Y-59885888D01*
X216157086Y-61073630D01*
X216155533Y-61077992D01*
X215716949Y-62252570D01*
X215715263Y-62256882D01*
X215240361Y-63417350D01*
X215238541Y-63421607D01*
X214727824Y-64566737D01*
X214725872Y-64570936D01*
X214179830Y-65699629D01*
X214177749Y-65703765D01*
X213596900Y-66814948D01*
X213594692Y-66819017D01*
X212979591Y-67911633D01*
X212977257Y-67915632D01*
X212328530Y-68988567D01*
X212326074Y-68992492D01*
X211644277Y-70044827D01*
X211641699Y-70048673D01*
X210927565Y-71079271D01*
X210924869Y-71083035D01*
X210179058Y-72090950D01*
X210176246Y-72094629D01*
X209399479Y-73078882D01*
X209396555Y-73082471D01*
X208589574Y-74042127D01*
X208586539Y-74045624D01*
X207750155Y-74979716D01*
X207747014Y-74983117D01*
X206881982Y-75890802D01*
X206878736Y-75894104D01*
X205985922Y-76774472D01*
X205982575Y-76777671D01*
X205062854Y-77629860D01*
X205059409Y-77632954D01*
X204113646Y-78456163D01*
X204110107Y-78459148D01*
X203139234Y-79252566D01*
X203135604Y-79255440D01*
X202140515Y-80018335D01*
X202136797Y-80021094D01*
X201118527Y-80752673D01*
X201114725Y-80755316D01*
X200074189Y-81454921D01*
X200070307Y-81457444D01*
X199008573Y-82124361D01*
X199004615Y-82126763D01*
X197922621Y-82760399D01*
X197918590Y-82762676D01*
X196817461Y-83362371D01*
X196813361Y-83364522D01*
X195694135Y-83929714D01*
X195689970Y-83931737D01*
X194553696Y-84461895D01*
X194549470Y-84463787D01*
X193397305Y-84958370D01*
X193393023Y-84960130D01*
X192226027Y-85418686D01*
X192221692Y-85420312D01*
X191041026Y-85842381D01*
X191036642Y-85843872D01*
X189843425Y-86229056D01*
X189838997Y-86230410D01*
X188634373Y-86578340D01*
X188629906Y-86579555D01*
X187415076Y-86889883D01*
X187410573Y-86890959D01*
X186186689Y-87163392D01*
X186182154Y-87164328D01*
X184950373Y-87398607D01*
X184945812Y-87399401D01*
X183707392Y-87595289D01*
X183702808Y-87595942D01*
X182458829Y-87753266D01*
X182454227Y-87753775D01*
X181206008Y-87872367D01*
X181201393Y-87872733D01*
X179950101Y-87952487D01*
X179945476Y-87952710D01*
X178692287Y-87993546D01*
X178687658Y-87993625D01*
X177433808Y-87995506D01*
X177429178Y-87995441D01*
X176175872Y-87958363D01*
X176171247Y-87958154D01*
X174919725Y-87882155D01*
X174915108Y-87881803D01*
X173666505Y-87766951D01*
X173661902Y-87766455D01*
X172417493Y-87612868D01*
X172412907Y-87612229D01*
X171173911Y-87420058D01*
X171169347Y-87419278D01*
X169936861Y-87188693D01*
X169932324Y-87187771D01*
X168707611Y-86919007D01*
X168703104Y-86917944D01*
X167487351Y-86611261D01*
X167482880Y-86610059D01*
X166277247Y-86265753D01*
X166272815Y-86264413D01*
X165078408Y-85882796D01*
X165074021Y-85881318D01*
X163892125Y-85462804D01*
X163887784Y-85461191D01*
X162719407Y-85006133D01*
X162715120Y-85004386D01*
X161561462Y-84513255D01*
X161557230Y-84511375D01*
X160429667Y-83989394D01*
X160427894Y-83988559D01*
X160424556Y-83986960D01*
X160380410Y-83963052D01*
X160368902Y-83960301D01*
X160358011Y-83955085D01*
X160357929Y-83955057D01*
X160308344Y-83945659D01*
X160301468Y-83944187D01*
X160252232Y-83932423D01*
X160240219Y-83932750D01*
X160228455Y-83930521D01*
X160174650Y-83934536D01*
X160171114Y-83934633D01*
X160171105Y-83934634D01*
X160120492Y-83936015D01*
X160108975Y-83939439D01*
X160097037Y-83940331D01*
X160046118Y-83958131D01*
X160042717Y-83959143D01*
X160042710Y-83959146D01*
X159994180Y-83973578D01*
X159994177Y-83973579D01*
X159983937Y-83979868D01*
X159972635Y-83983821D01*
X159928022Y-84014217D01*
X159925019Y-84016062D01*
X152787396Y-88400499D01*
X149254265Y-90570800D01*
X142894436Y-94477460D01*
X142820507Y-94499445D01*
X142816448Y-94499500D01*
X120183551Y-94499500D01*
X120109051Y-94479538D01*
X120105563Y-94477460D01*
X103075060Y-84016115D01*
X103072064Y-84014274D01*
X103027367Y-83983820D01*
X103016036Y-83979858D01*
X103012114Y-83977449D01*
X103005817Y-83973581D01*
X102957385Y-83959178D01*
X102950717Y-83957023D01*
X102902965Y-83940330D01*
X102902963Y-83940329D01*
X102902958Y-83940328D01*
X102890991Y-83939434D01*
X102879501Y-83936018D01*
X102825509Y-83934546D01*
X102821985Y-83934283D01*
X102821959Y-83934282D01*
X102774802Y-83930763D01*
X102771547Y-83930520D01*
X102771546Y-83930520D01*
X102771537Y-83930520D01*
X102759754Y-83932752D01*
X102747766Y-83932427D01*
X102695211Y-83944984D01*
X102691742Y-83945642D01*
X102691727Y-83945646D01*
X102642067Y-83955057D01*
X102641998Y-83955080D01*
X102631083Y-83960308D01*
X102619589Y-83963055D01*
X102575482Y-83986941D01*
X102572147Y-83988539D01*
X102571972Y-83988571D01*
X102570375Y-83989373D01*
X101442771Y-84511373D01*
X101438539Y-84513253D01*
X100284881Y-85004384D01*
X100280594Y-85006131D01*
X99112216Y-85461189D01*
X99107875Y-85462802D01*
X97925980Y-85881316D01*
X97921593Y-85882794D01*
X96727186Y-86264412D01*
X96722754Y-86265752D01*
X95517121Y-86610058D01*
X95512650Y-86611260D01*
X94296896Y-86917942D01*
X94292389Y-86919005D01*
X93067677Y-87187769D01*
X93063140Y-87188691D01*
X91830654Y-87419277D01*
X91826090Y-87420057D01*
X90587094Y-87612228D01*
X90582508Y-87612867D01*
X89338099Y-87766454D01*
X89333496Y-87766950D01*
X88084892Y-87881802D01*
X88080275Y-87882154D01*
X86828754Y-87958153D01*
X86824129Y-87958362D01*
X85570823Y-87995440D01*
X85566193Y-87995505D01*
X84312342Y-87993624D01*
X84307713Y-87993545D01*
X83054522Y-87952709D01*
X83049900Y-87952486D01*
X82964591Y-87947048D01*
X81798609Y-87872733D01*
X81793994Y-87872367D01*
X80545773Y-87753774D01*
X80541171Y-87753265D01*
X79297193Y-87595941D01*
X79292609Y-87595288D01*
X78054189Y-87399400D01*
X78049628Y-87398606D01*
X76817846Y-87164327D01*
X76813311Y-87163391D01*
X75589427Y-86890958D01*
X75584924Y-86889882D01*
X74370103Y-86579557D01*
X74365636Y-86578342D01*
X73160995Y-86230407D01*
X73156567Y-86229053D01*
X71963359Y-85843871D01*
X71958975Y-85842380D01*
X70778309Y-85420311D01*
X70773974Y-85418685D01*
X69606977Y-84960130D01*
X69602695Y-84958370D01*
X68450530Y-84463787D01*
X68446304Y-84461895D01*
X67310030Y-83931737D01*
X67305865Y-83929714D01*
X66186640Y-83364523D01*
X66182540Y-83362372D01*
X66182538Y-83362371D01*
X65699871Y-83099501D01*
X65081411Y-82762675D01*
X65077380Y-82760398D01*
X64028552Y-82146186D01*
X63995382Y-82126761D01*
X63991427Y-82124361D01*
X63956334Y-82102318D01*
X63790769Y-81998320D01*
X62929693Y-81457444D01*
X62925811Y-81454921D01*
X61885275Y-80755316D01*
X61881473Y-80752673D01*
X61870989Y-80745141D01*
X60952310Y-80085113D01*
X60863203Y-80021094D01*
X60859485Y-80018335D01*
X59864396Y-79255440D01*
X59860766Y-79252566D01*
X58889893Y-78459147D01*
X58886354Y-78456162D01*
X58106841Y-77777661D01*
X57940586Y-77632950D01*
X57937146Y-77629860D01*
X57767717Y-77472872D01*
X57017423Y-76777669D01*
X57014078Y-76774472D01*
X56121264Y-75894104D01*
X56118018Y-75890802D01*
X55497821Y-75240024D01*
X55252957Y-74983086D01*
X55249905Y-74979782D01*
X54413431Y-74045590D01*
X54410427Y-74042127D01*
X54075068Y-73643321D01*
X53603453Y-73082482D01*
X53600536Y-73078902D01*
X53543617Y-73006779D01*
X52823728Y-72094594D01*
X52820928Y-72090929D01*
X52631873Y-71835434D01*
X52075115Y-71083014D01*
X52072450Y-71079292D01*
X51358275Y-70048634D01*
X51355748Y-70044864D01*
X50673912Y-68992471D01*
X50671484Y-68988590D01*
X50374667Y-68497682D01*
X50022737Y-67915623D01*
X50020409Y-67911633D01*
X49845253Y-67600500D01*
X49405301Y-66819005D01*
X49403100Y-66814948D01*
X49397970Y-66805135D01*
X48822246Y-65703754D01*
X48820171Y-65699629D01*
X48798357Y-65654538D01*
X48274115Y-64570909D01*
X48272188Y-64566764D01*
X47761457Y-63421604D01*
X47759639Y-63417350D01*
X47284720Y-62256840D01*
X47283068Y-62252613D01*
X46844452Y-61077950D01*
X46842928Y-61073671D01*
X46440996Y-59885870D01*
X46439587Y-59881480D01*
X46439457Y-59881051D01*
X46321052Y-59491691D01*
X66648500Y-59491691D01*
X66648500Y-59500235D01*
X66648500Y-64295893D01*
X66664018Y-64353809D01*
X66664021Y-64353815D01*
X66679201Y-64410473D01*
X66738506Y-64513191D01*
X66738509Y-64513195D01*
X66738511Y-64513198D01*
X74636802Y-72411489D01*
X74636804Y-72411490D01*
X74636805Y-72411491D01*
X74739531Y-72470800D01*
X74753840Y-72474633D01*
X74763733Y-72477283D01*
X74763740Y-72477287D01*
X74763741Y-72477286D01*
X74787955Y-72483774D01*
X74854107Y-72501500D01*
X74854110Y-72501500D01*
X79858306Y-72501500D01*
X79858309Y-72501500D01*
X79948673Y-72477286D01*
X79972887Y-72470799D01*
X80075614Y-72411489D01*
X80642962Y-71844139D01*
X80709757Y-71805576D01*
X80748321Y-71800499D01*
X81403375Y-71800499D01*
X81421589Y-71798386D01*
X81427662Y-71797682D01*
X81527016Y-71753813D01*
X81603813Y-71677016D01*
X81603814Y-71677014D01*
X81611615Y-71665627D01*
X81615376Y-71668203D01*
X81646689Y-71629260D01*
X81718598Y-71601371D01*
X81734686Y-71600500D01*
X88959306Y-71600500D01*
X88959309Y-71600500D01*
X89049673Y-71576286D01*
X89073887Y-71569799D01*
X89176614Y-71510489D01*
X96242962Y-64444139D01*
X96309757Y-64405576D01*
X96348321Y-64400499D01*
X97003375Y-64400499D01*
X97021589Y-64398386D01*
X97027662Y-64397682D01*
X97127016Y-64353813D01*
X97203813Y-64277016D01*
X97247682Y-64177662D01*
X97250500Y-64153373D01*
X97250499Y-62746628D01*
X97250499Y-62746624D01*
X99249500Y-62746624D01*
X99249500Y-64153374D01*
X99252317Y-64177661D01*
X99252318Y-64177663D01*
X99296186Y-64277015D01*
X99296187Y-64277016D01*
X99372984Y-64353813D01*
X99460687Y-64392537D01*
X99520773Y-64440889D01*
X99548635Y-64512808D01*
X99549500Y-64528840D01*
X99549500Y-66896144D01*
X99573386Y-66985289D01*
X99619530Y-67065212D01*
X109405859Y-76851540D01*
X109444423Y-76918335D01*
X109449500Y-76956899D01*
X109449500Y-77753374D01*
X109452317Y-77777661D01*
X109452318Y-77777663D01*
X109496186Y-77877015D01*
X109496187Y-77877016D01*
X109572984Y-77953813D01*
X109672338Y-77997682D01*
X109672341Y-77997682D01*
X109672343Y-77997683D01*
X109681855Y-77998786D01*
X109696627Y-78000500D01*
X110503372Y-78000499D01*
X110503374Y-78000499D01*
X110519565Y-77998621D01*
X110527662Y-77997682D01*
X110627016Y-77953813D01*
X110703813Y-77877016D01*
X110747682Y-77777662D01*
X110750500Y-77753373D01*
X110750499Y-76346628D01*
X110747682Y-76322338D01*
X110703813Y-76222984D01*
X110627016Y-76146187D01*
X110627015Y-76146186D01*
X110527665Y-76102319D01*
X110527656Y-76102316D01*
X110503376Y-76099500D01*
X109706900Y-76099500D01*
X109632400Y-76079538D01*
X109601541Y-76055859D01*
X100294141Y-66748459D01*
X100255577Y-66681664D01*
X100250500Y-66643100D01*
X100250500Y-64528840D01*
X100270462Y-64454340D01*
X100325000Y-64399802D01*
X100339296Y-64392544D01*
X100427016Y-64353813D01*
X100503813Y-64277016D01*
X100547682Y-64177662D01*
X100550500Y-64153373D01*
X100550499Y-62746628D01*
X100547682Y-62722338D01*
X100503813Y-62622984D01*
X100427016Y-62546187D01*
X100427015Y-62546186D01*
X100327665Y-62502319D01*
X100327656Y-62502316D01*
X100303375Y-62499500D01*
X99496625Y-62499500D01*
X99472338Y-62502317D01*
X99472336Y-62502318D01*
X99372984Y-62546186D01*
X99296186Y-62622984D01*
X99252319Y-62722334D01*
X99252316Y-62722343D01*
X99249500Y-62746624D01*
X97250499Y-62746624D01*
X97247682Y-62722338D01*
X97203813Y-62622984D01*
X97127016Y-62546187D01*
X97127015Y-62546186D01*
X97027665Y-62502319D01*
X97027656Y-62502316D01*
X97003375Y-62499500D01*
X96196625Y-62499500D01*
X96172338Y-62502317D01*
X96129774Y-62521111D01*
X96129772Y-62521112D01*
X96072984Y-62546187D01*
X95996187Y-62622984D01*
X95971112Y-62679772D01*
X95971111Y-62679774D01*
X95952318Y-62722337D01*
X95952316Y-62722343D01*
X95949500Y-62746624D01*
X95949500Y-63401678D01*
X95929538Y-63476178D01*
X95905859Y-63507037D01*
X88757038Y-70655859D01*
X88690243Y-70694423D01*
X88651679Y-70699500D01*
X81734686Y-70699500D01*
X81660186Y-70679538D01*
X81613636Y-70632988D01*
X81611615Y-70634373D01*
X81603814Y-70622985D01*
X81527015Y-70546186D01*
X81427665Y-70502319D01*
X81427656Y-70502316D01*
X81403375Y-70499500D01*
X79996625Y-70499500D01*
X79972338Y-70502317D01*
X79972336Y-70502318D01*
X79872984Y-70546186D01*
X79796186Y-70622984D01*
X79752319Y-70722334D01*
X79752316Y-70722343D01*
X79749500Y-70746624D01*
X79749500Y-71401678D01*
X79744423Y-71420625D01*
X79744423Y-71440241D01*
X79734615Y-71457228D01*
X79729538Y-71476178D01*
X79705860Y-71507036D01*
X79656039Y-71556858D01*
X79589244Y-71595423D01*
X79550679Y-71600500D01*
X76899500Y-71600500D01*
X76825000Y-71580538D01*
X76770462Y-71526000D01*
X76750500Y-71451500D01*
X76750499Y-70746625D01*
X76747682Y-70722338D01*
X76747681Y-70722336D01*
X76703813Y-70622984D01*
X76627015Y-70546186D01*
X76527665Y-70502319D01*
X76527656Y-70502316D01*
X76503376Y-70499500D01*
X76503373Y-70499500D01*
X75706900Y-70499500D01*
X75632400Y-70479538D01*
X75601541Y-70455859D01*
X68694141Y-63548459D01*
X68655577Y-63481664D01*
X68650500Y-63443100D01*
X68650500Y-62449499D01*
X68670462Y-62374999D01*
X68725000Y-62320461D01*
X68799500Y-62300499D01*
X69003375Y-62300499D01*
X69021589Y-62298386D01*
X69027662Y-62297682D01*
X69127016Y-62253813D01*
X69203813Y-62177016D01*
X69247682Y-62077662D01*
X69250500Y-62053373D01*
X69250499Y-61246628D01*
X69247682Y-61222338D01*
X69203813Y-61122984D01*
X69127016Y-61046187D01*
X69127015Y-61046186D01*
X69027665Y-61002319D01*
X69027656Y-61002316D01*
X69003376Y-60999500D01*
X67698500Y-60999500D01*
X67624000Y-60979538D01*
X67569462Y-60925000D01*
X67549500Y-60850500D01*
X67549500Y-59799320D01*
X67569462Y-59724820D01*
X67593137Y-59693965D01*
X68242962Y-59044139D01*
X68309757Y-59005576D01*
X68348321Y-59000499D01*
X69003375Y-59000499D01*
X69021589Y-58998386D01*
X69027662Y-58997682D01*
X69127016Y-58953813D01*
X69203813Y-58877016D01*
X69247682Y-58777662D01*
X69250500Y-58753373D01*
X69250499Y-57946628D01*
X69250499Y-57946624D01*
X72249500Y-57946624D01*
X72249500Y-58753374D01*
X72252317Y-58777661D01*
X72252318Y-58777663D01*
X72296186Y-58877015D01*
X72296187Y-58877016D01*
X72372984Y-58953813D01*
X72472338Y-58997682D01*
X72472341Y-58997682D01*
X72472343Y-58997683D01*
X72481855Y-58998786D01*
X72496627Y-59000500D01*
X73903372Y-59000499D01*
X73903374Y-59000499D01*
X73919565Y-58998621D01*
X73927662Y-58997682D01*
X74027016Y-58953813D01*
X74103813Y-58877016D01*
X74147682Y-58777662D01*
X74150500Y-58753373D01*
X74150499Y-57946628D01*
X74147682Y-57922338D01*
X74103813Y-57822984D01*
X74027016Y-57746187D01*
X74027015Y-57746186D01*
X73927665Y-57702319D01*
X73927656Y-57702316D01*
X73903376Y-57699500D01*
X73903373Y-57699500D01*
X73699500Y-57699500D01*
X73625000Y-57679538D01*
X73570462Y-57625000D01*
X73550500Y-57550500D01*
X73550500Y-40956898D01*
X73570462Y-40882398D01*
X73594137Y-40851543D01*
X77601540Y-36844139D01*
X77668335Y-36805576D01*
X77706899Y-36800499D01*
X78503375Y-36800499D01*
X78521589Y-36798386D01*
X78527662Y-36797682D01*
X78627016Y-36753813D01*
X78703813Y-36677016D01*
X78747682Y-36577662D01*
X78750500Y-36553373D01*
X78750499Y-35746628D01*
X78747682Y-35722338D01*
X78703813Y-35622984D01*
X78627016Y-35546187D01*
X78627015Y-35546186D01*
X78527665Y-35502319D01*
X78527656Y-35502316D01*
X78503375Y-35499500D01*
X77096625Y-35499500D01*
X77072338Y-35502317D01*
X77072336Y-35502318D01*
X76972984Y-35546186D01*
X76896186Y-35622984D01*
X76852319Y-35722334D01*
X76852316Y-35722343D01*
X76849500Y-35746624D01*
X76849500Y-36543098D01*
X76829538Y-36617598D01*
X76805859Y-36648457D01*
X72919530Y-40534787D01*
X72919528Y-40534790D01*
X72874863Y-40612153D01*
X72873387Y-40614709D01*
X72873385Y-40614714D01*
X72849500Y-40703852D01*
X72849500Y-57550500D01*
X72829538Y-57625000D01*
X72775000Y-57679538D01*
X72700501Y-57699500D01*
X72496625Y-57699500D01*
X72472338Y-57702317D01*
X72472336Y-57702318D01*
X72372984Y-57746186D01*
X72296186Y-57822984D01*
X72252319Y-57922334D01*
X72252316Y-57922343D01*
X72249500Y-57946624D01*
X69250499Y-57946624D01*
X69247682Y-57922338D01*
X69203813Y-57822984D01*
X69127016Y-57746187D01*
X69127015Y-57746186D01*
X69027665Y-57702319D01*
X69027656Y-57702316D01*
X69003376Y-57699500D01*
X69003373Y-57699500D01*
X68899500Y-57699500D01*
X68825000Y-57679538D01*
X68770462Y-57625000D01*
X68750500Y-57550500D01*
X68750500Y-42598321D01*
X68770462Y-42523821D01*
X68794141Y-42492962D01*
X77742963Y-33544140D01*
X77809758Y-33505576D01*
X77848322Y-33500499D01*
X78503375Y-33500499D01*
X78521589Y-33498386D01*
X78527662Y-33497682D01*
X78627016Y-33453813D01*
X78703813Y-33377016D01*
X78747682Y-33277662D01*
X78750500Y-33253373D01*
X78750499Y-32598320D01*
X78755576Y-32579373D01*
X78755576Y-32559756D01*
X78765384Y-32542768D01*
X78770461Y-32523821D01*
X78794141Y-32492961D01*
X78843963Y-32443140D01*
X78910758Y-32404577D01*
X78949321Y-32399500D01*
X81600500Y-32399500D01*
X81675000Y-32419462D01*
X81729538Y-32474000D01*
X81749500Y-32548500D01*
X81749500Y-33253374D01*
X81752317Y-33277661D01*
X81752318Y-33277663D01*
X81796186Y-33377015D01*
X81796187Y-33377016D01*
X81872984Y-33453813D01*
X81972338Y-33497682D01*
X81972341Y-33497682D01*
X81972343Y-33497683D01*
X81981855Y-33498786D01*
X81996627Y-33500500D01*
X83403372Y-33500499D01*
X83403374Y-33500499D01*
X83419565Y-33498621D01*
X83427662Y-33497682D01*
X83527016Y-33453813D01*
X83603813Y-33377016D01*
X83638415Y-33298650D01*
X83642537Y-33289315D01*
X83690891Y-33229226D01*
X83762811Y-33201365D01*
X83778841Y-33200500D01*
X91693100Y-33200500D01*
X91767600Y-33220462D01*
X91798459Y-33244141D01*
X98405859Y-39851541D01*
X98444423Y-39918336D01*
X98449500Y-39956900D01*
X98449500Y-40753374D01*
X98452317Y-40777661D01*
X98452318Y-40777663D01*
X98496186Y-40877015D01*
X98496187Y-40877016D01*
X98572984Y-40953813D01*
X98672338Y-40997682D01*
X98672341Y-40997682D01*
X98672343Y-40997683D01*
X98681855Y-40998786D01*
X98696627Y-41000500D01*
X99503372Y-41000499D01*
X99503374Y-41000499D01*
X99519565Y-40998621D01*
X99527662Y-40997682D01*
X99627016Y-40953813D01*
X99703813Y-40877016D01*
X99747682Y-40777662D01*
X99750500Y-40753373D01*
X99750499Y-39346628D01*
X99750003Y-39342354D01*
X99747682Y-39322338D01*
X99747681Y-39322336D01*
X99703813Y-39222984D01*
X99627015Y-39146186D01*
X99527665Y-39102319D01*
X99527656Y-39102316D01*
X99503376Y-39099500D01*
X98706900Y-39099500D01*
X98632400Y-39079538D01*
X98601541Y-39055859D01*
X92199541Y-32653859D01*
X92160977Y-32587064D01*
X92160977Y-32509936D01*
X92199541Y-32443141D01*
X92266336Y-32404577D01*
X92304900Y-32399500D01*
X94050679Y-32399500D01*
X94125179Y-32419462D01*
X94156038Y-32443141D01*
X101657537Y-39944640D01*
X101696101Y-40011435D01*
X101696101Y-40088563D01*
X101657537Y-40155358D01*
X100264509Y-41548388D01*
X100264508Y-41548389D01*
X100205201Y-41651111D01*
X100203704Y-41656697D01*
X100191174Y-41703465D01*
X100174500Y-41765690D01*
X100174500Y-46812034D01*
X100154538Y-46886534D01*
X100130859Y-46917393D01*
X100051472Y-46996779D01*
X99990281Y-47116872D01*
X99990281Y-47116874D01*
X99974500Y-47216512D01*
X99974500Y-47783488D01*
X99985288Y-47851600D01*
X99990281Y-47883127D01*
X100025352Y-47951957D01*
X100051472Y-48003220D01*
X100146780Y-48098528D01*
X100266874Y-48159719D01*
X100366512Y-48175500D01*
X100601679Y-48175500D01*
X100676179Y-48195462D01*
X100707038Y-48219141D01*
X104848386Y-52360489D01*
X104848388Y-52360490D01*
X104848392Y-52360493D01*
X104951110Y-52419798D01*
X104951112Y-52419798D01*
X104951113Y-52419799D01*
X104972386Y-52425499D01*
X104972390Y-52425501D01*
X104972390Y-52425500D01*
X105065691Y-52450500D01*
X114325500Y-52450500D01*
X114400000Y-52470462D01*
X114454538Y-52525000D01*
X114474500Y-52599500D01*
X114474500Y-52869748D01*
X114486132Y-52928230D01*
X114486133Y-52928231D01*
X114530448Y-52994552D01*
X114596769Y-53038867D01*
X114655252Y-53050500D01*
X114925500Y-53050500D01*
X115000000Y-53070462D01*
X115054538Y-53125000D01*
X115074500Y-53199500D01*
X115074500Y-59817914D01*
X115054538Y-59892414D01*
X115000000Y-59946952D01*
X114925500Y-59966914D01*
X114886936Y-59961837D01*
X114840895Y-59949500D01*
X114840892Y-59949500D01*
X114709108Y-59949500D01*
X114709104Y-59949500D01*
X114634753Y-59969423D01*
X114596189Y-59974500D01*
X96030899Y-59974500D01*
X96011951Y-59969423D01*
X95992335Y-59969423D01*
X95975347Y-59959615D01*
X95956399Y-59954538D01*
X95942527Y-59940666D01*
X95925540Y-59930859D01*
X95915732Y-59913871D01*
X95901861Y-59900000D01*
X95896783Y-59881051D01*
X95886976Y-59864064D01*
X95886976Y-59844447D01*
X95881899Y-59825500D01*
X95886976Y-59806552D01*
X95886976Y-59786936D01*
X95896783Y-59769948D01*
X95901861Y-59751000D01*
X95925540Y-59720141D01*
X96011659Y-59634022D01*
X96101542Y-59544138D01*
X96168335Y-59505576D01*
X96206891Y-59500499D01*
X97003372Y-59500499D01*
X97003375Y-59500499D01*
X97021589Y-59498386D01*
X97027662Y-59497682D01*
X97127016Y-59453813D01*
X97203813Y-59377016D01*
X97247682Y-59277662D01*
X97250500Y-59253373D01*
X97250499Y-57846628D01*
X97247682Y-57822338D01*
X97203813Y-57722984D01*
X97127016Y-57646187D01*
X97127015Y-57646186D01*
X97027665Y-57602319D01*
X97027656Y-57602316D01*
X97003375Y-57599500D01*
X96196625Y-57599500D01*
X96172338Y-57602317D01*
X96172336Y-57602318D01*
X96072984Y-57646186D01*
X95996186Y-57722984D01*
X95952319Y-57822334D01*
X95952316Y-57822343D01*
X95949500Y-57846624D01*
X95949500Y-58643099D01*
X95929538Y-58717599D01*
X95905859Y-58748458D01*
X88654859Y-65999458D01*
X88588064Y-66038022D01*
X88510936Y-66038022D01*
X88444141Y-65999458D01*
X88405577Y-65932663D01*
X88400500Y-65894099D01*
X88400500Y-64495741D01*
X88400499Y-64495724D01*
X88397646Y-64465304D01*
X88397646Y-64465301D01*
X88352793Y-64337118D01*
X88308435Y-64277015D01*
X88272151Y-64227851D01*
X88272148Y-64227848D01*
X88162883Y-64147207D01*
X88103042Y-64126268D01*
X88034699Y-64102354D01*
X88034697Y-64102353D01*
X88034695Y-64102353D01*
X88004275Y-64099500D01*
X88004266Y-64099500D01*
X87395734Y-64099500D01*
X87395724Y-64099500D01*
X87365304Y-64102353D01*
X87237117Y-64147207D01*
X87174989Y-64193059D01*
X87103192Y-64221236D01*
X87026926Y-64209740D01*
X87012012Y-64202211D01*
X86893189Y-64133609D01*
X86893186Y-64133608D01*
X86765892Y-64099500D01*
X86634108Y-64099500D01*
X86506814Y-64133608D01*
X86506812Y-64133608D01*
X86506812Y-64133609D01*
X86392689Y-64199497D01*
X86299497Y-64292689D01*
X86233608Y-64406812D01*
X86198171Y-64539065D01*
X86159606Y-64605860D01*
X86092811Y-64644423D01*
X86054248Y-64649500D01*
X85755133Y-64649500D01*
X85730010Y-64652414D01*
X85730007Y-64652415D01*
X85627235Y-64697793D01*
X85547793Y-64777235D01*
X85502416Y-64880005D01*
X85502415Y-64880008D01*
X85502415Y-64880009D01*
X85499500Y-64905135D01*
X85499500Y-64905136D01*
X85499500Y-64905140D01*
X85499500Y-65194866D01*
X85502414Y-65219989D01*
X85502415Y-65219992D01*
X85547793Y-65322764D01*
X85636998Y-65411969D01*
X85636202Y-65412764D01*
X85677226Y-65460651D01*
X85691396Y-65536466D01*
X85665760Y-65609209D01*
X85636968Y-65638001D01*
X85636998Y-65638031D01*
X85547793Y-65727235D01*
X85502416Y-65830005D01*
X85502415Y-65830008D01*
X85502415Y-65830009D01*
X85499500Y-65855135D01*
X85499500Y-65855136D01*
X85499500Y-65855140D01*
X85499500Y-66144866D01*
X85502414Y-66169989D01*
X85502415Y-66169992D01*
X85547793Y-66272764D01*
X85636998Y-66361969D01*
X85636202Y-66362764D01*
X85677226Y-66410651D01*
X85691396Y-66486466D01*
X85665760Y-66559209D01*
X85636968Y-66588001D01*
X85636998Y-66588031D01*
X85547793Y-66677235D01*
X85502416Y-66780005D01*
X85502415Y-66780008D01*
X85502415Y-66780009D01*
X85499500Y-66805135D01*
X85499500Y-66805139D01*
X85499500Y-66805140D01*
X85499500Y-67094866D01*
X85502414Y-67119989D01*
X85502415Y-67119992D01*
X85547793Y-67222764D01*
X85570170Y-67245141D01*
X85608734Y-67311936D01*
X85608734Y-67389064D01*
X85570170Y-67455859D01*
X85503375Y-67494423D01*
X85464811Y-67499500D01*
X81778841Y-67499500D01*
X81704341Y-67479538D01*
X81649803Y-67425000D01*
X81642537Y-67410685D01*
X81620362Y-67360465D01*
X81603813Y-67322984D01*
X81527016Y-67246187D01*
X81527015Y-67246186D01*
X81427665Y-67202319D01*
X81427656Y-67202316D01*
X81403376Y-67199500D01*
X80098500Y-67199500D01*
X80024000Y-67179538D01*
X79969462Y-67125000D01*
X79949500Y-67050500D01*
X79949500Y-65709676D01*
X79954577Y-65690728D01*
X79954577Y-65671112D01*
X79964384Y-65654124D01*
X79969462Y-65635176D01*
X79993141Y-65604317D01*
X80028317Y-65569141D01*
X80095112Y-65530577D01*
X80133676Y-65525500D01*
X82575500Y-65525500D01*
X82650000Y-65545462D01*
X82704538Y-65600000D01*
X82724500Y-65674500D01*
X82724500Y-65748560D01*
X82711804Y-65808744D01*
X82702416Y-65830005D01*
X82702415Y-65830008D01*
X82702415Y-65830009D01*
X82699500Y-65855135D01*
X82699500Y-65855136D01*
X82699500Y-65855140D01*
X82699500Y-66144866D01*
X82702414Y-66169989D01*
X82702415Y-66169992D01*
X82747793Y-66272764D01*
X82827235Y-66352206D01*
X82940263Y-66402113D01*
X82940131Y-66402410D01*
X82961170Y-66411171D01*
X83016464Y-66443095D01*
X83137399Y-66475500D01*
X83137404Y-66475500D01*
X83262596Y-66475500D01*
X83262601Y-66475500D01*
X83383536Y-66443095D01*
X83438828Y-66411172D01*
X83459868Y-66402410D01*
X83459737Y-66402113D01*
X83527596Y-66372150D01*
X83572765Y-66352206D01*
X83652206Y-66272765D01*
X83697585Y-66169991D01*
X83700500Y-66144865D01*
X83700499Y-65855136D01*
X83697585Y-65830009D01*
X83688196Y-65808744D01*
X83675500Y-65748560D01*
X83675500Y-65301439D01*
X83688197Y-65241252D01*
X83692245Y-65232085D01*
X83697585Y-65219991D01*
X83700500Y-65194865D01*
X83700499Y-64905136D01*
X83697585Y-64880009D01*
X83652206Y-64777235D01*
X83572765Y-64697794D01*
X83572763Y-64697793D01*
X83459739Y-64647888D01*
X83459869Y-64647591D01*
X83438829Y-64638827D01*
X83383536Y-64606905D01*
X83262601Y-64574500D01*
X83262600Y-64574500D01*
X79946746Y-64574500D01*
X79946730Y-64574499D01*
X79937601Y-64574499D01*
X79812399Y-64574499D01*
X79782165Y-64582600D01*
X79691461Y-64606905D01*
X79583036Y-64669504D01*
X79093504Y-65159036D01*
X79030906Y-65267461D01*
X79030905Y-65267463D01*
X79030905Y-65267464D01*
X78998500Y-65388399D01*
X78998500Y-68384337D01*
X78998500Y-68509539D01*
X79030905Y-68630474D01*
X79093505Y-68738902D01*
X79511098Y-69156495D01*
X79619526Y-69219095D01*
X79740461Y-69251500D01*
X79740466Y-69251500D01*
X87321894Y-69251500D01*
X87321899Y-69251500D01*
X87442834Y-69219095D01*
X87551262Y-69156495D01*
X89416130Y-67291626D01*
X89482923Y-67253064D01*
X89560051Y-67253064D01*
X89626846Y-67291628D01*
X89650525Y-67322487D01*
X89699497Y-67407310D01*
X89699498Y-67407311D01*
X89699500Y-67407314D01*
X89792686Y-67500500D01*
X89906814Y-67566392D01*
X90034108Y-67600500D01*
X90165892Y-67600500D01*
X90293186Y-67566392D01*
X90407314Y-67500500D01*
X90438674Y-67469139D01*
X90505467Y-67430577D01*
X90544031Y-67425500D01*
X90942851Y-67425500D01*
X90942853Y-67425500D01*
X91025639Y-67403318D01*
X91099862Y-67360465D01*
X92121644Y-66338681D01*
X92152500Y-66315006D01*
X92174817Y-66302122D01*
X92602122Y-65874817D01*
X92644975Y-65800594D01*
X92667157Y-65717808D01*
X92667157Y-65632102D01*
X92667157Y-65624012D01*
X92687119Y-65549512D01*
X92710798Y-65518653D01*
X94224827Y-64004624D01*
X96308310Y-61921141D01*
X96375105Y-61882577D01*
X96413669Y-61877500D01*
X113199206Y-61877500D01*
X113273706Y-61897462D01*
X113304565Y-61921141D01*
X114303892Y-62920468D01*
X114343121Y-62943117D01*
X114373975Y-62966793D01*
X114446327Y-63039144D01*
X114467686Y-63060503D01*
X114581814Y-63126395D01*
X114709108Y-63160503D01*
X114840892Y-63160503D01*
X114840897Y-63160502D01*
X114869839Y-63152746D01*
X114886934Y-63148165D01*
X114964062Y-63148164D01*
X115030857Y-63186727D01*
X115069422Y-63253522D01*
X115074500Y-63292088D01*
X115074500Y-69656679D01*
X115054538Y-69731179D01*
X115030859Y-69762038D01*
X111702038Y-73090859D01*
X111635243Y-73129423D01*
X111596679Y-73134500D01*
X111576512Y-73134500D01*
X111505342Y-73145772D01*
X111476872Y-73150281D01*
X111356779Y-73211472D01*
X111261472Y-73306779D01*
X111200281Y-73426872D01*
X111200281Y-73426874D01*
X111184500Y-73526512D01*
X111184500Y-74093488D01*
X111194940Y-74159402D01*
X111200281Y-74193127D01*
X111261472Y-74313220D01*
X111340859Y-74392607D01*
X111379423Y-74459402D01*
X111384500Y-74497966D01*
X111384500Y-79966678D01*
X111364538Y-80041178D01*
X111340859Y-80072037D01*
X110457036Y-80955859D01*
X110390241Y-80994423D01*
X110351677Y-80999500D01*
X109696625Y-80999500D01*
X109672338Y-81002317D01*
X109672336Y-81002318D01*
X109572984Y-81046186D01*
X109496186Y-81122984D01*
X109452319Y-81222334D01*
X109452316Y-81222343D01*
X109449500Y-81246624D01*
X109449500Y-82653374D01*
X109452317Y-82677661D01*
X109452318Y-82677663D01*
X109496186Y-82777015D01*
X109496187Y-82777016D01*
X109572984Y-82853813D01*
X109672338Y-82897682D01*
X109672341Y-82897682D01*
X109672343Y-82897683D01*
X109681855Y-82898786D01*
X109696627Y-82900500D01*
X110503372Y-82900499D01*
X110503374Y-82900499D01*
X110519565Y-82898621D01*
X110527662Y-82897682D01*
X110627016Y-82853813D01*
X110703813Y-82777016D01*
X110747682Y-82677662D01*
X110750500Y-82653373D01*
X110750499Y-81998319D01*
X110770461Y-81923820D01*
X110794136Y-81892965D01*
X111130142Y-81556960D01*
X111196936Y-81518397D01*
X111274064Y-81518397D01*
X111340859Y-81556961D01*
X111379423Y-81623756D01*
X111384500Y-81662320D01*
X111384500Y-82231893D01*
X111405560Y-82310488D01*
X111405560Y-82310491D01*
X111415199Y-82346467D01*
X111415202Y-82346474D01*
X111474506Y-82449191D01*
X111474509Y-82449195D01*
X111474511Y-82449198D01*
X114335802Y-85310489D01*
X114395112Y-85344731D01*
X114438530Y-85369799D01*
X114553107Y-85400500D01*
X114800501Y-85400500D01*
X114875001Y-85420462D01*
X114929539Y-85475000D01*
X114949501Y-85549500D01*
X114949501Y-85653374D01*
X114952317Y-85677661D01*
X114952318Y-85677663D01*
X114996186Y-85777015D01*
X114996187Y-85777016D01*
X115072984Y-85853813D01*
X115172338Y-85897682D01*
X115172341Y-85897682D01*
X115172343Y-85897683D01*
X115181855Y-85898786D01*
X115196627Y-85900500D01*
X115851677Y-85900499D01*
X115926177Y-85920461D01*
X115957036Y-85944140D01*
X118323386Y-88310490D01*
X118426113Y-88369799D01*
X118450317Y-88376283D01*
X118450324Y-88376287D01*
X118450325Y-88376286D01*
X118474539Y-88382774D01*
X118540691Y-88400500D01*
X120300501Y-88400500D01*
X120375001Y-88420462D01*
X120429539Y-88475000D01*
X120449501Y-88549500D01*
X120449501Y-88653374D01*
X120452317Y-88677661D01*
X120452318Y-88677663D01*
X120496186Y-88777015D01*
X120496187Y-88777016D01*
X120572984Y-88853813D01*
X120672338Y-88897682D01*
X120672341Y-88897682D01*
X120672343Y-88897683D01*
X120681855Y-88898786D01*
X120696627Y-88900500D01*
X121351678Y-88900499D01*
X121426178Y-88920461D01*
X121457037Y-88944140D01*
X122273385Y-89760488D01*
X122273387Y-89760489D01*
X122273388Y-89760490D01*
X122376114Y-89819799D01*
X122390423Y-89823632D01*
X122400316Y-89826282D01*
X122400323Y-89826286D01*
X122400324Y-89826285D01*
X122424538Y-89832773D01*
X122490690Y-89850499D01*
X126034048Y-89850499D01*
X126094232Y-89863195D01*
X126172338Y-89897682D01*
X126172341Y-89897682D01*
X126172343Y-89897683D01*
X126181855Y-89898786D01*
X126196627Y-89900500D01*
X126851678Y-89900499D01*
X126926178Y-89920461D01*
X126957037Y-89944140D01*
X127524386Y-90511489D01*
X127583696Y-90545731D01*
X127627114Y-90570799D01*
X127741691Y-90601500D01*
X130958306Y-90601500D01*
X130958309Y-90601500D01*
X131048673Y-90577286D01*
X131072887Y-90570799D01*
X131175614Y-90511489D01*
X131742962Y-89944139D01*
X131809757Y-89905576D01*
X131848321Y-89900499D01*
X132351678Y-89900499D01*
X132426178Y-89920461D01*
X132457037Y-89944140D01*
X133024386Y-90511489D01*
X133083696Y-90545731D01*
X133127114Y-90570799D01*
X133241691Y-90601500D01*
X136045890Y-90601500D01*
X136045893Y-90601500D01*
X136136257Y-90577286D01*
X136160471Y-90570799D01*
X136263198Y-90511489D01*
X137788436Y-88986250D01*
X137855227Y-88947689D01*
X137932355Y-88947689D01*
X137999150Y-88986253D01*
X138524386Y-89511489D01*
X138583696Y-89545731D01*
X138627114Y-89570799D01*
X138741691Y-89601500D01*
X141545890Y-89601500D01*
X141545893Y-89601500D01*
X141636257Y-89577286D01*
X141660471Y-89570799D01*
X141763198Y-89511489D01*
X143242963Y-88031725D01*
X143309758Y-87993161D01*
X143348322Y-87988084D01*
X145659306Y-87988084D01*
X145659309Y-87988084D01*
X145749673Y-87963870D01*
X145773887Y-87957383D01*
X145876614Y-87898073D01*
X148960490Y-84814198D01*
X149019799Y-84711471D01*
X149030003Y-84673387D01*
X149050500Y-84596893D01*
X149050500Y-82984686D01*
X149070462Y-82910186D01*
X149117011Y-82863636D01*
X149115627Y-82861615D01*
X149127014Y-82853814D01*
X149127014Y-82853813D01*
X149127016Y-82853813D01*
X149203813Y-82777016D01*
X149247682Y-82677662D01*
X149250500Y-82653373D01*
X149250500Y-82549500D01*
X149270462Y-82475000D01*
X149325000Y-82420462D01*
X149399500Y-82400500D01*
X150069306Y-82400500D01*
X150069309Y-82400500D01*
X150159673Y-82376286D01*
X150183887Y-82369799D01*
X150286614Y-82310489D01*
X150995143Y-81601959D01*
X151061936Y-81563397D01*
X151139064Y-81563397D01*
X151205859Y-81601961D01*
X151244423Y-81668756D01*
X151249500Y-81707320D01*
X151249500Y-82653374D01*
X151252317Y-82677661D01*
X151252318Y-82677663D01*
X151296186Y-82777015D01*
X151296187Y-82777016D01*
X151372984Y-82853813D01*
X151472338Y-82897682D01*
X151472341Y-82897682D01*
X151472343Y-82897683D01*
X151481855Y-82898786D01*
X151496627Y-82900500D01*
X152303372Y-82900499D01*
X152303374Y-82900499D01*
X152319565Y-82898621D01*
X152327662Y-82897682D01*
X152427016Y-82853813D01*
X152503813Y-82777016D01*
X152547682Y-82677662D01*
X152550500Y-82653373D01*
X152550499Y-81856898D01*
X152570461Y-81782399D01*
X152594136Y-81751544D01*
X162580470Y-71765212D01*
X162626614Y-71685288D01*
X162628829Y-71677020D01*
X162628830Y-71677018D01*
X162649099Y-71601371D01*
X162650500Y-71596144D01*
X162650500Y-63449498D01*
X162670462Y-63374999D01*
X162725000Y-63320461D01*
X162799500Y-63300499D01*
X163003375Y-63300499D01*
X163021589Y-63298386D01*
X163027662Y-63297682D01*
X163127016Y-63253813D01*
X163203813Y-63177016D01*
X163247682Y-63077662D01*
X163250500Y-63053373D01*
X163250499Y-62348499D01*
X163270461Y-62274000D01*
X163324999Y-62219462D01*
X163399499Y-62199500D01*
X166050679Y-62199500D01*
X166069627Y-62204577D01*
X166089243Y-62204577D01*
X166106230Y-62214384D01*
X166125179Y-62219462D01*
X166156038Y-62243141D01*
X166205859Y-62292962D01*
X166244423Y-62359757D01*
X166249500Y-62398321D01*
X166249500Y-63053374D01*
X166252317Y-63077661D01*
X166252318Y-63077663D01*
X166296186Y-63177015D01*
X166296187Y-63177016D01*
X166372984Y-63253813D01*
X166472338Y-63297682D01*
X166472341Y-63297682D01*
X166472343Y-63297683D01*
X166481855Y-63298786D01*
X166496627Y-63300500D01*
X167151678Y-63300499D01*
X167226178Y-63320461D01*
X167257036Y-63344139D01*
X176324386Y-72411490D01*
X176427113Y-72470799D01*
X176451317Y-72477283D01*
X176451324Y-72477287D01*
X176451325Y-72477286D01*
X176475539Y-72483774D01*
X176541691Y-72501500D01*
X176541694Y-72501500D01*
X186358306Y-72501500D01*
X186358309Y-72501500D01*
X186448673Y-72477286D01*
X186472887Y-72470799D01*
X186575614Y-72411489D01*
X187142962Y-71844139D01*
X187209757Y-71805576D01*
X187248321Y-71800499D01*
X187903375Y-71800499D01*
X187921589Y-71798386D01*
X187927662Y-71797682D01*
X188027016Y-71753813D01*
X188103813Y-71677016D01*
X188147682Y-71577662D01*
X188150500Y-71553373D01*
X188150499Y-70898319D01*
X188170461Y-70823820D01*
X188194136Y-70792965D01*
X195060490Y-63926614D01*
X195119799Y-63823887D01*
X195130141Y-63785288D01*
X195130143Y-63785283D01*
X195140035Y-63748364D01*
X195150500Y-63709309D01*
X195150500Y-62449498D01*
X195170462Y-62374999D01*
X195225000Y-62320461D01*
X195299500Y-62300499D01*
X195403375Y-62300499D01*
X195421589Y-62298386D01*
X195427662Y-62297682D01*
X195527016Y-62253813D01*
X195603813Y-62177016D01*
X195647682Y-62077662D01*
X195650500Y-62053373D01*
X195650499Y-61398319D01*
X195670461Y-61323820D01*
X195694136Y-61292965D01*
X196261489Y-60725614D01*
X196305224Y-60649862D01*
X196320799Y-60622886D01*
X196351500Y-60508309D01*
X196351500Y-49618876D01*
X211259500Y-49618876D01*
X211259500Y-49881123D01*
X211293728Y-50141107D01*
X211293728Y-50141110D01*
X211361600Y-50394415D01*
X211361600Y-50394416D01*
X211461959Y-50636701D01*
X211593078Y-50863806D01*
X211593078Y-50863807D01*
X211752715Y-51071848D01*
X211938151Y-51257284D01*
X212096590Y-51378859D01*
X212146197Y-51416924D01*
X212373303Y-51548043D01*
X212577809Y-51632752D01*
X212615583Y-51648399D01*
X212703332Y-51671910D01*
X212868884Y-51716270D01*
X212868890Y-51716270D01*
X212868891Y-51716271D01*
X212905834Y-51721134D01*
X213128877Y-51750499D01*
X213128878Y-51750500D01*
X213128880Y-51750500D01*
X213391122Y-51750500D01*
X213391122Y-51750499D01*
X213651108Y-51716271D01*
X213651110Y-51716271D01*
X213651111Y-51716270D01*
X213651116Y-51716270D01*
X213904415Y-51648399D01*
X213904416Y-51648399D01*
X213904417Y-51648398D01*
X213904419Y-51648398D01*
X214146697Y-51548043D01*
X214373803Y-51416924D01*
X214581848Y-51257284D01*
X214581849Y-51257284D01*
X214767284Y-51071849D01*
X214767284Y-51071848D01*
X214785551Y-51048043D01*
X214926924Y-50863803D01*
X215058043Y-50636697D01*
X215158398Y-50394419D01*
X215226270Y-50141116D01*
X215260500Y-49881120D01*
X215260500Y-49618880D01*
X215226270Y-49358884D01*
X215162515Y-49120945D01*
X215158399Y-49105584D01*
X215158399Y-49105583D01*
X215142752Y-49067809D01*
X215058043Y-48863303D01*
X214926924Y-48636197D01*
X214926921Y-48636193D01*
X214926921Y-48636192D01*
X214767284Y-48428151D01*
X214581848Y-48242715D01*
X214373806Y-48083078D01*
X214146701Y-47951959D01*
X214146699Y-47951958D01*
X214146697Y-47951957D01*
X214071154Y-47920666D01*
X213904416Y-47851600D01*
X213678255Y-47791002D01*
X213651116Y-47783730D01*
X213651114Y-47783729D01*
X213651108Y-47783728D01*
X213391123Y-47749500D01*
X213391120Y-47749500D01*
X213128880Y-47749500D01*
X213128876Y-47749500D01*
X212868892Y-47783728D01*
X212868889Y-47783728D01*
X212615584Y-47851600D01*
X212615583Y-47851600D01*
X212373298Y-47951959D01*
X212146193Y-48083078D01*
X212146192Y-48083078D01*
X211938151Y-48242715D01*
X211938151Y-48242716D01*
X211938149Y-48242718D01*
X211752718Y-48428149D01*
X211752716Y-48428151D01*
X211752715Y-48428151D01*
X211593078Y-48636192D01*
X211593078Y-48636193D01*
X211461959Y-48863298D01*
X211361600Y-49105583D01*
X211361600Y-49105584D01*
X211293728Y-49358889D01*
X211293728Y-49358892D01*
X211259500Y-49618876D01*
X196351500Y-49618876D01*
X196351500Y-42704107D01*
X196337578Y-42652151D01*
X196323471Y-42599501D01*
X196323471Y-42599500D01*
X196320799Y-42589529D01*
X196313699Y-42577231D01*
X196261490Y-42486802D01*
X185363198Y-31588511D01*
X185363195Y-31588509D01*
X185363191Y-31588506D01*
X185260474Y-31529202D01*
X185260471Y-31529201D01*
X185236257Y-31522713D01*
X185145893Y-31498500D01*
X180141691Y-31498500D01*
X180027110Y-31529202D01*
X179983695Y-31554267D01*
X179983696Y-31554268D01*
X179924389Y-31588508D01*
X179924388Y-31588509D01*
X179357037Y-32155859D01*
X179290242Y-32194423D01*
X179251678Y-32199500D01*
X178596625Y-32199500D01*
X178572338Y-32202317D01*
X178572336Y-32202318D01*
X178472984Y-32246186D01*
X178396186Y-32322984D01*
X178352319Y-32422334D01*
X178352316Y-32422343D01*
X178349500Y-32446624D01*
X178349500Y-33101678D01*
X178329538Y-33176178D01*
X178305859Y-33207037D01*
X176458038Y-35054859D01*
X176391243Y-35093423D01*
X176352679Y-35098500D01*
X164541687Y-35098500D01*
X164451326Y-35122712D01*
X164451326Y-35122713D01*
X164427113Y-35129201D01*
X164324389Y-35188508D01*
X164324388Y-35188509D01*
X159357036Y-40155859D01*
X159290241Y-40194423D01*
X159251677Y-40199500D01*
X158596625Y-40199500D01*
X158572338Y-40202317D01*
X158572336Y-40202318D01*
X158472984Y-40246186D01*
X158396186Y-40322984D01*
X158352319Y-40422334D01*
X158352316Y-40422343D01*
X158349500Y-40446624D01*
X158349500Y-41253374D01*
X158352317Y-41277661D01*
X158352318Y-41277663D01*
X158396186Y-41377015D01*
X158396187Y-41377016D01*
X158472984Y-41453813D01*
X158572338Y-41497682D01*
X158572341Y-41497682D01*
X158572343Y-41497683D01*
X158581855Y-41498786D01*
X158596627Y-41500500D01*
X160003372Y-41500499D01*
X160003374Y-41500499D01*
X160022695Y-41498258D01*
X160027662Y-41497682D01*
X160127016Y-41453813D01*
X160203813Y-41377016D01*
X160247682Y-41277662D01*
X160250500Y-41253373D01*
X160250499Y-40598319D01*
X160270461Y-40523820D01*
X160294136Y-40492965D01*
X164743962Y-36043141D01*
X164810757Y-36004577D01*
X164849321Y-35999500D01*
X168195100Y-35999500D01*
X168269600Y-36019462D01*
X168324138Y-36074000D01*
X168344100Y-36148500D01*
X168324138Y-36223000D01*
X168300459Y-36253859D01*
X164398457Y-40155859D01*
X164331662Y-40194423D01*
X164293098Y-40199500D01*
X163496625Y-40199500D01*
X163472338Y-40202317D01*
X163472336Y-40202318D01*
X163372984Y-40246186D01*
X163296186Y-40322984D01*
X163252319Y-40422334D01*
X163252316Y-40422343D01*
X163249500Y-40446624D01*
X163249500Y-41253374D01*
X163252317Y-41277661D01*
X163252318Y-41277663D01*
X163296186Y-41377015D01*
X163296187Y-41377016D01*
X163372984Y-41453813D01*
X163472338Y-41497682D01*
X163472341Y-41497682D01*
X163472343Y-41497683D01*
X163481855Y-41498786D01*
X163496627Y-41500500D01*
X164903372Y-41500499D01*
X164903374Y-41500499D01*
X164922695Y-41498258D01*
X164927662Y-41497682D01*
X165027016Y-41453813D01*
X165103813Y-41377016D01*
X165147682Y-41277662D01*
X165150500Y-41253373D01*
X165150499Y-40456898D01*
X165170461Y-40382399D01*
X165194136Y-40351544D01*
X169001541Y-36544141D01*
X169068336Y-36505577D01*
X169106900Y-36500500D01*
X178221159Y-36500500D01*
X178295659Y-36520462D01*
X178350197Y-36575000D01*
X178357463Y-36589315D01*
X178377559Y-36634827D01*
X178396187Y-36677016D01*
X178472984Y-36753813D01*
X178572338Y-36797682D01*
X178572341Y-36797682D01*
X178572343Y-36797683D01*
X178581855Y-36798786D01*
X178596627Y-36800500D01*
X180003372Y-36800499D01*
X180003374Y-36800499D01*
X180019565Y-36798621D01*
X180027662Y-36797682D01*
X180127016Y-36753813D01*
X180203813Y-36677016D01*
X180247682Y-36577662D01*
X180250500Y-36553373D01*
X180250499Y-35746628D01*
X180247682Y-35722338D01*
X180203813Y-35622984D01*
X180127016Y-35546187D01*
X180127015Y-35546186D01*
X180027665Y-35502319D01*
X180027656Y-35502316D01*
X180003375Y-35499500D01*
X178596625Y-35499500D01*
X178572338Y-35502317D01*
X178572336Y-35502318D01*
X178472984Y-35546186D01*
X178396187Y-35622983D01*
X178357463Y-35710685D01*
X178309109Y-35770774D01*
X178237189Y-35798635D01*
X178221159Y-35799500D01*
X177347321Y-35799500D01*
X177272821Y-35779538D01*
X177218283Y-35725000D01*
X177198321Y-35650500D01*
X177218283Y-35576000D01*
X177241962Y-35545141D01*
X179242962Y-33544140D01*
X179309757Y-33505576D01*
X179348321Y-33500499D01*
X180003375Y-33500499D01*
X180021589Y-33498386D01*
X180027662Y-33497682D01*
X180127016Y-33453813D01*
X180203813Y-33377016D01*
X180247682Y-33277662D01*
X180250500Y-33253373D01*
X180250499Y-32598320D01*
X180255576Y-32579373D01*
X180255576Y-32559756D01*
X180265384Y-32542768D01*
X180270461Y-32523821D01*
X180294141Y-32492961D01*
X180343963Y-32443140D01*
X180410758Y-32404577D01*
X180449321Y-32399500D01*
X183100500Y-32399500D01*
X183175000Y-32419462D01*
X183229538Y-32474000D01*
X183249500Y-32548500D01*
X183249500Y-33253374D01*
X183252317Y-33277661D01*
X183252318Y-33277663D01*
X183296186Y-33377015D01*
X183296187Y-33377016D01*
X183372984Y-33453813D01*
X183472338Y-33497682D01*
X183472341Y-33497682D01*
X183472343Y-33497683D01*
X183481855Y-33498786D01*
X183496627Y-33500500D01*
X184293099Y-33500499D01*
X184367599Y-33520461D01*
X184398458Y-33544140D01*
X194305859Y-43451540D01*
X194344423Y-43518335D01*
X194349500Y-43556899D01*
X194349500Y-57550500D01*
X194329538Y-57625000D01*
X194275000Y-57679538D01*
X194200501Y-57699500D01*
X193996625Y-57699500D01*
X193972338Y-57702317D01*
X193972336Y-57702318D01*
X193872984Y-57746186D01*
X193796186Y-57822984D01*
X193752319Y-57922334D01*
X193752316Y-57922343D01*
X193749500Y-57946624D01*
X193749500Y-58753374D01*
X193752317Y-58777661D01*
X193752318Y-58777663D01*
X193796186Y-58877015D01*
X193796187Y-58877016D01*
X193872984Y-58953813D01*
X193972338Y-58997682D01*
X193972341Y-58997682D01*
X193972343Y-58997683D01*
X193981855Y-58998786D01*
X193996627Y-59000500D01*
X195301500Y-59000499D01*
X195376000Y-59020461D01*
X195430538Y-59074999D01*
X195450500Y-59149499D01*
X195450500Y-60200678D01*
X195430538Y-60275178D01*
X195406859Y-60306037D01*
X194757036Y-60955859D01*
X194690241Y-60994423D01*
X194651677Y-60999500D01*
X193996625Y-60999500D01*
X193972338Y-61002317D01*
X193972336Y-61002318D01*
X193872984Y-61046186D01*
X193796186Y-61122984D01*
X193752319Y-61222334D01*
X193752316Y-61222343D01*
X193749500Y-61246624D01*
X193749500Y-62053374D01*
X193752317Y-62077661D01*
X193752318Y-62077663D01*
X193796186Y-62177015D01*
X193796187Y-62177016D01*
X193872984Y-62253813D01*
X193972338Y-62297682D01*
X193972341Y-62297682D01*
X193972343Y-62297683D01*
X193981855Y-62298786D01*
X193996627Y-62300500D01*
X194100501Y-62300499D01*
X194174999Y-62320461D01*
X194229537Y-62374998D01*
X194249500Y-62449498D01*
X194249500Y-63401678D01*
X194229538Y-63476178D01*
X194205859Y-63507037D01*
X187257036Y-70455859D01*
X187190241Y-70494423D01*
X187151677Y-70499500D01*
X186496625Y-70499500D01*
X186472338Y-70502317D01*
X186472336Y-70502318D01*
X186372984Y-70546186D01*
X186296186Y-70622984D01*
X186252319Y-70722334D01*
X186252316Y-70722343D01*
X186249500Y-70746624D01*
X186249500Y-71401678D01*
X186244423Y-71420625D01*
X186244423Y-71440241D01*
X186234615Y-71457228D01*
X186229538Y-71476178D01*
X186205860Y-71507036D01*
X186156039Y-71556858D01*
X186089244Y-71595423D01*
X186050679Y-71600500D01*
X183399500Y-71600500D01*
X183325000Y-71580538D01*
X183270462Y-71526000D01*
X183250500Y-71451500D01*
X183250499Y-70746625D01*
X183247682Y-70722338D01*
X183247681Y-70722336D01*
X183203813Y-70622984D01*
X183127015Y-70546186D01*
X183027665Y-70502319D01*
X183027656Y-70502316D01*
X183003375Y-70499500D01*
X181596625Y-70499500D01*
X181572338Y-70502317D01*
X181572336Y-70502318D01*
X181472984Y-70546186D01*
X181396187Y-70622983D01*
X181357463Y-70710685D01*
X181309109Y-70770774D01*
X181237189Y-70798635D01*
X181221159Y-70799500D01*
X177553062Y-70799500D01*
X177478562Y-70779538D01*
X177447703Y-70755859D01*
X174138468Y-67446624D01*
X186249500Y-67446624D01*
X186249500Y-68253374D01*
X186252317Y-68277661D01*
X186252318Y-68277663D01*
X186296186Y-68377015D01*
X186296187Y-68377016D01*
X186372984Y-68453813D01*
X186472338Y-68497682D01*
X186472341Y-68497682D01*
X186472343Y-68497683D01*
X186481855Y-68498786D01*
X186496627Y-68500500D01*
X187903372Y-68500499D01*
X187903374Y-68500499D01*
X187919565Y-68498621D01*
X187927662Y-68497682D01*
X188027016Y-68453813D01*
X188103813Y-68377016D01*
X188147682Y-68277662D01*
X188150500Y-68253373D01*
X188150499Y-67456898D01*
X188170461Y-67382399D01*
X188194136Y-67351544D01*
X190080469Y-65465212D01*
X190126614Y-65385288D01*
X190137984Y-65342853D01*
X190150500Y-65296144D01*
X190150500Y-62449498D01*
X190170462Y-62374999D01*
X190225000Y-62320461D01*
X190299500Y-62300499D01*
X190503375Y-62300499D01*
X190521589Y-62298386D01*
X190527662Y-62297682D01*
X190627016Y-62253813D01*
X190703813Y-62177016D01*
X190747682Y-62077662D01*
X190750500Y-62053373D01*
X190750499Y-61246628D01*
X190747682Y-61222338D01*
X190703813Y-61122984D01*
X190627016Y-61046187D01*
X190627015Y-61046186D01*
X190527665Y-61002319D01*
X190527656Y-61002316D01*
X190503375Y-60999500D01*
X189096625Y-60999500D01*
X189072338Y-61002317D01*
X189072336Y-61002318D01*
X188972984Y-61046186D01*
X188896186Y-61122984D01*
X188852319Y-61222334D01*
X188852316Y-61222343D01*
X188849500Y-61246624D01*
X188849500Y-62053374D01*
X188852317Y-62077661D01*
X188852318Y-62077663D01*
X188896186Y-62177015D01*
X188896187Y-62177016D01*
X188972984Y-62253813D01*
X189072338Y-62297682D01*
X189072341Y-62297682D01*
X189072343Y-62297683D01*
X189081855Y-62298786D01*
X189096627Y-62300500D01*
X189300500Y-62300499D01*
X189374999Y-62320461D01*
X189429537Y-62374998D01*
X189449500Y-62449498D01*
X189449500Y-65043099D01*
X189429538Y-65117599D01*
X189405859Y-65148458D01*
X187398457Y-67155859D01*
X187331662Y-67194423D01*
X187293098Y-67199500D01*
X186496625Y-67199500D01*
X186472338Y-67202317D01*
X186472336Y-67202318D01*
X186372984Y-67246186D01*
X186296186Y-67322984D01*
X186252319Y-67422334D01*
X186252316Y-67422343D01*
X186249500Y-67446624D01*
X174138468Y-67446624D01*
X167594141Y-60902297D01*
X167555577Y-60835502D01*
X167550500Y-60796938D01*
X167550500Y-60149499D01*
X167570462Y-60074999D01*
X167625000Y-60020461D01*
X167699500Y-60000499D01*
X167903375Y-60000499D01*
X167921589Y-59998386D01*
X167927662Y-59997682D01*
X168027016Y-59953813D01*
X168103813Y-59877016D01*
X168147682Y-59777662D01*
X168150500Y-59753373D01*
X168150499Y-58946628D01*
X168148549Y-58929818D01*
X168147682Y-58922338D01*
X168147681Y-58922336D01*
X168103813Y-58822984D01*
X168027015Y-58746186D01*
X167927665Y-58702319D01*
X167927656Y-58702316D01*
X167903375Y-58699500D01*
X166496625Y-58699500D01*
X166472338Y-58702317D01*
X166472336Y-58702318D01*
X166372984Y-58746186D01*
X166296186Y-58822984D01*
X166252319Y-58922334D01*
X166252316Y-58922343D01*
X166249500Y-58946624D01*
X166249500Y-59753374D01*
X166252317Y-59777661D01*
X166252318Y-59777663D01*
X166296186Y-59877015D01*
X166296187Y-59877016D01*
X166372984Y-59953813D01*
X166472338Y-59997682D01*
X166472341Y-59997682D01*
X166472343Y-59997683D01*
X166481855Y-59998786D01*
X166496627Y-60000500D01*
X166700500Y-60000499D01*
X166774999Y-60020461D01*
X166829537Y-60074998D01*
X166849500Y-60149498D01*
X166849500Y-61049982D01*
X166866944Y-61115084D01*
X166868115Y-61119454D01*
X166873387Y-61139128D01*
X166919530Y-61219050D01*
X167445621Y-61745141D01*
X167455428Y-61762128D01*
X167469300Y-61776000D01*
X167474377Y-61794948D01*
X167484185Y-61811936D01*
X167484185Y-61831552D01*
X167489262Y-61850500D01*
X167484185Y-61869447D01*
X167484185Y-61889064D01*
X167474377Y-61906051D01*
X167469300Y-61925000D01*
X167455428Y-61938871D01*
X167445621Y-61955859D01*
X167428633Y-61965666D01*
X167414762Y-61979538D01*
X167395813Y-61984615D01*
X167378826Y-61994423D01*
X167340262Y-61999500D01*
X167248321Y-61999500D01*
X167173821Y-61979538D01*
X167142962Y-61955859D01*
X164349141Y-59162038D01*
X164310577Y-59095243D01*
X164305500Y-59056679D01*
X164305500Y-56887966D01*
X164325462Y-56813466D01*
X164349141Y-56782607D01*
X164428528Y-56703220D01*
X164489719Y-56583126D01*
X164505500Y-56483488D01*
X164505500Y-55916512D01*
X164489719Y-55816874D01*
X164428528Y-55696780D01*
X164333220Y-55601472D01*
X164213127Y-55540281D01*
X164196519Y-55537650D01*
X164113488Y-55524500D01*
X163596512Y-55524500D01*
X163525342Y-55535772D01*
X163496872Y-55540281D01*
X163376779Y-55601472D01*
X163281472Y-55696779D01*
X163220281Y-55816872D01*
X163220281Y-55816874D01*
X163204500Y-55916512D01*
X163204500Y-56483488D01*
X163217166Y-56563458D01*
X163220281Y-56583127D01*
X163281472Y-56703220D01*
X163360859Y-56782607D01*
X163399423Y-56849402D01*
X163404500Y-56887966D01*
X163404500Y-59364311D01*
X163424745Y-59439865D01*
X163424748Y-59439872D01*
X163435201Y-59478887D01*
X163494508Y-59581610D01*
X163494509Y-59581611D01*
X163494511Y-59581614D01*
X164259431Y-60346534D01*
X164957038Y-61044141D01*
X164995602Y-61110936D01*
X164995602Y-61188064D01*
X164957038Y-61254859D01*
X164890243Y-61293423D01*
X164851679Y-61298500D01*
X152591691Y-61298500D01*
X152512393Y-61319748D01*
X152499476Y-61323208D01*
X152477110Y-61329201D01*
X152374392Y-61388506D01*
X152374388Y-61388509D01*
X139344276Y-74418619D01*
X139277481Y-74457183D01*
X139200353Y-74457183D01*
X139133558Y-74418619D01*
X139094994Y-74351824D01*
X139094994Y-74274696D01*
X139105281Y-74247363D01*
X139246946Y-73960096D01*
X139459930Y-73445906D01*
X139638829Y-72918887D01*
X139782876Y-72381296D01*
X139891455Y-71835435D01*
X139912312Y-71677014D01*
X139964100Y-71283644D01*
X139977248Y-71083035D01*
X140000500Y-70728278D01*
X140000500Y-70171722D01*
X139964100Y-69616359D01*
X139964100Y-69616355D01*
X139891455Y-69064565D01*
X139876738Y-68990578D01*
X139782876Y-68518704D01*
X139638829Y-67981113D01*
X139459930Y-67454094D01*
X139246946Y-66939904D01*
X139074228Y-66589666D01*
X139000794Y-66440756D01*
X139000792Y-66440753D01*
X139000791Y-66440752D01*
X139000788Y-66440745D01*
X138748318Y-66003455D01*
X138722509Y-65958752D01*
X138722508Y-65958750D01*
X138552132Y-65703765D01*
X138413305Y-65495996D01*
X138074496Y-65054451D01*
X137707533Y-64636011D01*
X137313989Y-64242467D01*
X136895549Y-63875504D01*
X136777974Y-63785286D01*
X136498297Y-63570682D01*
X136454004Y-63536695D01*
X136212009Y-63374999D01*
X135991249Y-63227491D01*
X135991247Y-63227490D01*
X135589433Y-62995503D01*
X135509255Y-62949212D01*
X135509252Y-62949210D01*
X135509246Y-62949207D01*
X135509243Y-62949205D01*
X135098447Y-62746624D01*
X135010096Y-62703054D01*
X134495906Y-62490070D01*
X134495904Y-62490069D01*
X133968881Y-62311169D01*
X133968878Y-62311168D01*
X133468213Y-62177016D01*
X133431296Y-62167124D01*
X133247000Y-62130465D01*
X132885434Y-62058544D01*
X132333644Y-61985899D01*
X131807116Y-61951390D01*
X131778278Y-61949500D01*
X131221722Y-61949500D01*
X130666355Y-61985899D01*
X130114565Y-62058544D01*
X129661319Y-62148701D01*
X129568704Y-62167124D01*
X129568701Y-62167124D01*
X129568700Y-62167125D01*
X129568696Y-62167126D01*
X129031121Y-62311168D01*
X129031118Y-62311169D01*
X128504095Y-62490069D01*
X128504093Y-62490070D01*
X127989913Y-62703050D01*
X127989902Y-62703055D01*
X127490756Y-62949205D01*
X127490753Y-62949207D01*
X127008752Y-63227490D01*
X127008750Y-63227491D01*
X126545990Y-63536699D01*
X126104455Y-63875500D01*
X126104449Y-63875505D01*
X125686006Y-64242471D01*
X125292471Y-64636006D01*
X124925505Y-65054449D01*
X124925500Y-65054455D01*
X124586699Y-65495990D01*
X124277491Y-65958750D01*
X124277490Y-65958752D01*
X123999207Y-66440753D01*
X123999205Y-66440756D01*
X123753055Y-66939902D01*
X123753050Y-66939913D01*
X123540070Y-67454093D01*
X123540069Y-67454095D01*
X123361169Y-67981118D01*
X123361168Y-67981121D01*
X123217126Y-68518696D01*
X123217125Y-68518700D01*
X123108544Y-69064565D01*
X123035899Y-69616355D01*
X122999500Y-70171722D01*
X122999500Y-70728277D01*
X123035899Y-71283644D01*
X123108544Y-71835434D01*
X123159740Y-72092808D01*
X123217124Y-72381296D01*
X123225215Y-72411491D01*
X123361168Y-72918878D01*
X123361169Y-72918881D01*
X123533609Y-73426874D01*
X123540070Y-73445906D01*
X123753054Y-73960096D01*
X123779252Y-74013220D01*
X123894717Y-74247361D01*
X123909764Y-74323007D01*
X123884972Y-74396042D01*
X123826984Y-74446896D01*
X123751338Y-74461943D01*
X123678303Y-74437151D01*
X123655724Y-74418621D01*
X121328032Y-72090929D01*
X118781614Y-69544511D01*
X118781611Y-69544509D01*
X118781607Y-69544506D01*
X118678890Y-69485202D01*
X118678887Y-69485201D01*
X118654673Y-69478713D01*
X118564309Y-69454500D01*
X116124500Y-69454500D01*
X116050000Y-69434538D01*
X115995462Y-69380000D01*
X115975500Y-69305500D01*
X115975500Y-63292088D01*
X115995462Y-63217588D01*
X116050000Y-63163050D01*
X116124500Y-63143088D01*
X116163064Y-63148165D01*
X116174493Y-63151228D01*
X116209102Y-63160502D01*
X116209108Y-63160503D01*
X116340892Y-63160503D01*
X116468186Y-63126395D01*
X116582314Y-63060503D01*
X116603674Y-63039142D01*
X116670467Y-63000580D01*
X116709031Y-62995503D01*
X126212848Y-62995503D01*
X126212850Y-62995503D01*
X126295636Y-62973321D01*
X126369859Y-62930468D01*
X127841085Y-61459240D01*
X127907878Y-61420678D01*
X127985006Y-61420678D01*
X128003447Y-61426937D01*
X128083580Y-61460130D01*
X128083583Y-61460130D01*
X128083584Y-61460131D01*
X128286535Y-61500500D01*
X128493465Y-61500500D01*
X128696420Y-61460130D01*
X128887598Y-61380941D01*
X129059655Y-61265977D01*
X129205977Y-61119655D01*
X129320941Y-60947598D01*
X129400130Y-60756420D01*
X129440500Y-60553465D01*
X129440500Y-60346535D01*
X129440500Y-60346534D01*
X129879500Y-60346534D01*
X129879500Y-60553465D01*
X129893308Y-60622886D01*
X129919870Y-60756420D01*
X129933455Y-60789219D01*
X129999057Y-60947596D01*
X130114022Y-61119654D01*
X130260345Y-61265977D01*
X130432403Y-61380942D01*
X130474358Y-61398320D01*
X130623580Y-61460130D01*
X130826535Y-61500500D01*
X131033465Y-61500500D01*
X131236420Y-61460130D01*
X131427598Y-61380941D01*
X131599655Y-61265977D01*
X131745977Y-61119655D01*
X131860941Y-60947598D01*
X131940130Y-60756420D01*
X131980500Y-60553465D01*
X131980500Y-60346535D01*
X131972444Y-60306037D01*
X131940130Y-60143582D01*
X131940130Y-60143581D01*
X131940130Y-60143580D01*
X131879697Y-59997682D01*
X131860942Y-59952403D01*
X131745977Y-59780345D01*
X131599654Y-59634022D01*
X131427596Y-59519057D01*
X131269219Y-59453455D01*
X131236420Y-59439870D01*
X131236418Y-59439869D01*
X131236417Y-59439869D01*
X131033465Y-59399500D01*
X130826535Y-59399500D01*
X130623582Y-59439869D01*
X130432403Y-59519057D01*
X130260345Y-59634022D01*
X130114022Y-59780345D01*
X129999057Y-59952403D01*
X129919869Y-60143582D01*
X129879500Y-60346534D01*
X129440500Y-60346534D01*
X129432444Y-60306037D01*
X129400130Y-60143581D01*
X129400130Y-60143580D01*
X129377299Y-60088461D01*
X129367232Y-60011993D01*
X129396747Y-59940736D01*
X129409590Y-59926090D01*
X132455469Y-56880212D01*
X132501614Y-56800288D01*
X132502086Y-56798528D01*
X132525500Y-56711144D01*
X132525500Y-44772085D01*
X132545462Y-44697585D01*
X132600000Y-44643047D01*
X132674500Y-44623085D01*
X132713064Y-44628162D01*
X132724493Y-44631225D01*
X132759102Y-44640499D01*
X132759108Y-44640500D01*
X132890892Y-44640500D01*
X133018186Y-44606392D01*
X133132314Y-44540500D01*
X133138674Y-44534139D01*
X133205467Y-44495577D01*
X133244031Y-44490500D01*
X142658570Y-44490500D01*
X142733070Y-44510462D01*
X142787608Y-44565000D01*
X142796227Y-44582478D01*
X142819059Y-44637598D01*
X142845397Y-44677016D01*
X142934022Y-44809654D01*
X143080345Y-44955977D01*
X143252403Y-45070942D01*
X143331591Y-45103742D01*
X143443580Y-45150130D01*
X143646535Y-45190500D01*
X143853465Y-45190500D01*
X144056420Y-45150130D01*
X144136537Y-45116943D01*
X144213005Y-45106877D01*
X144284262Y-45136392D01*
X144298916Y-45149243D01*
X151379011Y-52229338D01*
X151379012Y-52229339D01*
X151439615Y-52289942D01*
X151513839Y-52332795D01*
X151596624Y-52354977D01*
X151682330Y-52354977D01*
X152196492Y-52354977D01*
X152270992Y-52374939D01*
X152301846Y-52398614D01*
X152333209Y-52429977D01*
X152447337Y-52495869D01*
X152574631Y-52529977D01*
X152706415Y-52529977D01*
X152833709Y-52495869D01*
X152947837Y-52429977D01*
X153041023Y-52336791D01*
X153064857Y-52295508D01*
X153119393Y-52240971D01*
X153193893Y-52221008D01*
X153268393Y-52240969D01*
X153299251Y-52264646D01*
X153389581Y-52354976D01*
X153628117Y-52593512D01*
X153638208Y-52605019D01*
X153639693Y-52606504D01*
X154163493Y-53130304D01*
X154166841Y-53132237D01*
X154170094Y-53135490D01*
X154272821Y-53194799D01*
X154284951Y-53198049D01*
X154387399Y-53225500D01*
X164576679Y-53225500D01*
X164651179Y-53245462D01*
X164682038Y-53269141D01*
X176563011Y-65150114D01*
X176597648Y-65209842D01*
X176597887Y-65209737D01*
X176598843Y-65211904D01*
X176601425Y-65216355D01*
X176602413Y-65219989D01*
X176647793Y-65322764D01*
X176647794Y-65322765D01*
X176727235Y-65402206D01*
X176830009Y-65447585D01*
X176855135Y-65450500D01*
X176855143Y-65450499D01*
X176855152Y-65450501D01*
X176859436Y-65450749D01*
X176859347Y-65452280D01*
X176916469Y-65467554D01*
X176917089Y-65466060D01*
X176926110Y-65469797D01*
X176926112Y-65469797D01*
X176926113Y-65469798D01*
X177040690Y-65500499D01*
X177159309Y-65500499D01*
X177273886Y-65469798D01*
X177273888Y-65469797D01*
X177282910Y-65466060D01*
X177283535Y-65467569D01*
X177340663Y-65452259D01*
X177340576Y-65450747D01*
X177344863Y-65450499D01*
X177344864Y-65450499D01*
X177369991Y-65447585D01*
X177472765Y-65402206D01*
X177552206Y-65322765D01*
X177597585Y-65219991D01*
X177600500Y-65194865D01*
X177600499Y-64948500D01*
X177620461Y-64874001D01*
X177674998Y-64819463D01*
X177749498Y-64799500D01*
X179250500Y-64799500D01*
X179325000Y-64819462D01*
X179379538Y-64874000D01*
X179399500Y-64948499D01*
X179399500Y-65194866D01*
X179402414Y-65219989D01*
X179402415Y-65219992D01*
X179447793Y-65322764D01*
X179536998Y-65411969D01*
X179536202Y-65412764D01*
X179577226Y-65460651D01*
X179591396Y-65536466D01*
X179565760Y-65609209D01*
X179536968Y-65638001D01*
X179536998Y-65638031D01*
X179447793Y-65727235D01*
X179402416Y-65830005D01*
X179402415Y-65830008D01*
X179402415Y-65830009D01*
X179399500Y-65855135D01*
X179399500Y-65855136D01*
X179399500Y-65855140D01*
X179399500Y-66144866D01*
X179402414Y-66169989D01*
X179402415Y-66169992D01*
X179447793Y-66272764D01*
X179536998Y-66361969D01*
X179536202Y-66362764D01*
X179577226Y-66410651D01*
X179591396Y-66486466D01*
X179565760Y-66559209D01*
X179536968Y-66588001D01*
X179536998Y-66588031D01*
X179447793Y-66677235D01*
X179402416Y-66780005D01*
X179402415Y-66780008D01*
X179402415Y-66780009D01*
X179399500Y-66805135D01*
X179399500Y-66805139D01*
X179399500Y-66805140D01*
X179399500Y-67094866D01*
X179402414Y-67119989D01*
X179402415Y-67119992D01*
X179447793Y-67222764D01*
X179447794Y-67222765D01*
X179527235Y-67302206D01*
X179630009Y-67347585D01*
X179655135Y-67350500D01*
X180144864Y-67350499D01*
X180144866Y-67350499D01*
X180157427Y-67349042D01*
X180169991Y-67347585D01*
X180272765Y-67302206D01*
X180275344Y-67299626D01*
X180288032Y-67292892D01*
X180317705Y-67286062D01*
X180346431Y-67275941D01*
X180357891Y-67275500D01*
X181314365Y-67275500D01*
X181314367Y-67275500D01*
X181397153Y-67253318D01*
X181471376Y-67210465D01*
X182286465Y-66395376D01*
X182315564Y-66344975D01*
X182329318Y-66321152D01*
X182351500Y-66238367D01*
X182351500Y-64161633D01*
X182351500Y-64161631D01*
X182349288Y-64153376D01*
X182343991Y-64133608D01*
X182329318Y-64078847D01*
X182289851Y-64010489D01*
X182286465Y-64004624D01*
X182225862Y-63944021D01*
X182225860Y-63944019D01*
X181895376Y-63613535D01*
X181895373Y-63613533D01*
X181895372Y-63613532D01*
X181821155Y-63570683D01*
X181821154Y-63570682D01*
X181821153Y-63570682D01*
X181782733Y-63560387D01*
X181738369Y-63548500D01*
X181738367Y-63548500D01*
X177572942Y-63548500D01*
X177498442Y-63528538D01*
X177467583Y-63504859D01*
X171513224Y-57550500D01*
X165450260Y-51487535D01*
X165450257Y-51487533D01*
X165450256Y-51487532D01*
X165376039Y-51444683D01*
X165376038Y-51444682D01*
X165376037Y-51444682D01*
X165337617Y-51434387D01*
X165293253Y-51422500D01*
X165293251Y-51422500D01*
X156196545Y-51422500D01*
X156122045Y-51402538D01*
X156091186Y-51378859D01*
X155980139Y-51267812D01*
X155850677Y-51138350D01*
X155850674Y-51138348D01*
X155850673Y-51138347D01*
X155776456Y-51095498D01*
X155776455Y-51095497D01*
X155776454Y-51095497D01*
X155738034Y-51085202D01*
X155693670Y-51073315D01*
X155693668Y-51073315D01*
X154575216Y-51073315D01*
X154500716Y-51053353D01*
X154469861Y-51029677D01*
X154438499Y-50998315D01*
X154438496Y-50998313D01*
X154438495Y-50998312D01*
X154353949Y-50949500D01*
X154324371Y-50932423D01*
X154197077Y-50898315D01*
X154065293Y-50898315D01*
X153937999Y-50932423D01*
X153937997Y-50932423D01*
X153937997Y-50932424D01*
X153823874Y-50998312D01*
X153730683Y-51091503D01*
X153730678Y-51091510D01*
X153706848Y-51132784D01*
X153652310Y-51187321D01*
X153577809Y-51207282D01*
X153503310Y-51187318D01*
X153472453Y-51163641D01*
X148920141Y-46611329D01*
X148881577Y-46544534D01*
X148876500Y-46505970D01*
X148876500Y-43835724D01*
X155409500Y-43835724D01*
X155409500Y-44444275D01*
X155412353Y-44474695D01*
X155412353Y-44474697D01*
X155412354Y-44474699D01*
X155429955Y-44525000D01*
X155457207Y-44602883D01*
X155537848Y-44712148D01*
X155537851Y-44712151D01*
X155647116Y-44792792D01*
X155647117Y-44792792D01*
X155647118Y-44792793D01*
X155775301Y-44837646D01*
X155805734Y-44840500D01*
X155805741Y-44840500D01*
X157414259Y-44840500D01*
X157414266Y-44840500D01*
X157444699Y-44837646D01*
X157572882Y-44792793D01*
X157682150Y-44712150D01*
X157762793Y-44602882D01*
X157763699Y-44600293D01*
X157765758Y-44597272D01*
X157768011Y-44593010D01*
X157768491Y-44593263D01*
X157807145Y-44536565D01*
X157876634Y-44503098D01*
X157904339Y-44500500D01*
X158221159Y-44500500D01*
X158295659Y-44520462D01*
X158350197Y-44575000D01*
X158357463Y-44589315D01*
X158370357Y-44618517D01*
X158396187Y-44677016D01*
X158472984Y-44753813D01*
X158572338Y-44797682D01*
X158572341Y-44797682D01*
X158572343Y-44797683D01*
X158581855Y-44798786D01*
X158596627Y-44800500D01*
X160003372Y-44800499D01*
X160003374Y-44800499D01*
X160019565Y-44798621D01*
X160027662Y-44797682D01*
X160127016Y-44753813D01*
X160203813Y-44677016D01*
X160247682Y-44577662D01*
X160250500Y-44553373D01*
X160250499Y-43746628D01*
X160250361Y-43745441D01*
X160247682Y-43722338D01*
X160247681Y-43722336D01*
X160240026Y-43705000D01*
X160203813Y-43622984D01*
X160127016Y-43546187D01*
X160127015Y-43546186D01*
X160027665Y-43502319D01*
X160027656Y-43502316D01*
X160003375Y-43499500D01*
X158596625Y-43499500D01*
X158572338Y-43502317D01*
X158572336Y-43502318D01*
X158472984Y-43546186D01*
X158396187Y-43622983D01*
X158357463Y-43710685D01*
X158309109Y-43770774D01*
X158237189Y-43798635D01*
X158221159Y-43799500D01*
X157911338Y-43799500D01*
X157836838Y-43779538D01*
X157782300Y-43725000D01*
X157770700Y-43699713D01*
X157762793Y-43677117D01*
X157682151Y-43567851D01*
X157682148Y-43567848D01*
X157572883Y-43487207D01*
X157513042Y-43466268D01*
X157444699Y-43442354D01*
X157444697Y-43442353D01*
X157444695Y-43442353D01*
X157414275Y-43439500D01*
X157414266Y-43439500D01*
X155805734Y-43439500D01*
X155805724Y-43439500D01*
X155775304Y-43442353D01*
X155647116Y-43487207D01*
X155537851Y-43567848D01*
X155537848Y-43567851D01*
X155457207Y-43677116D01*
X155412353Y-43805304D01*
X155409500Y-43835724D01*
X148876500Y-43835724D01*
X148876500Y-41541691D01*
X148876499Y-41541687D01*
X148849423Y-41440638D01*
X148849423Y-41440637D01*
X148845799Y-41427113D01*
X148801819Y-41350937D01*
X148786490Y-41324386D01*
X146161614Y-38699511D01*
X146161611Y-38699509D01*
X146161607Y-38699506D01*
X146058890Y-38640202D01*
X146058887Y-38640201D01*
X146034673Y-38633713D01*
X145944309Y-38609500D01*
X144949500Y-38609500D01*
X144875000Y-38589538D01*
X144820462Y-38535000D01*
X144800500Y-38460500D01*
X144800500Y-38190251D01*
X144788867Y-38131769D01*
X144744552Y-38065448D01*
X144678231Y-38021133D01*
X144678230Y-38021132D01*
X144619748Y-38009500D01*
X143853465Y-38009500D01*
X138554500Y-38009500D01*
X138480000Y-37989538D01*
X138425462Y-37935000D01*
X138405500Y-37860500D01*
X138405500Y-28924004D01*
X138405499Y-28923986D01*
X138400804Y-28880323D01*
X138400803Y-28880320D01*
X138400803Y-28880316D01*
X138389597Y-28828805D01*
X138387110Y-28818627D01*
X138344100Y-28737915D01*
X138298345Y-28685111D01*
X138280754Y-28667157D01*
X138280753Y-28667156D01*
X138245583Y-28647483D01*
X138200937Y-28622510D01*
X138200935Y-28622509D01*
X138174716Y-28614810D01*
X138133898Y-28602825D01*
X138133893Y-28602824D01*
X138133889Y-28602823D01*
X138076008Y-28594500D01*
X138076000Y-28594500D01*
X125124000Y-28594500D01*
X125123986Y-28594500D01*
X125080323Y-28599195D01*
X125028775Y-28610409D01*
X125018634Y-28612887D01*
X125018623Y-28612891D01*
X124937914Y-28655900D01*
X124885119Y-28701647D01*
X124885103Y-28701662D01*
X124867156Y-28719246D01*
X124822510Y-28799063D01*
X124822509Y-28799064D01*
X124802823Y-28866110D01*
X124794500Y-28923991D01*
X124794500Y-38175500D01*
X124774538Y-38250000D01*
X124720000Y-38304538D01*
X124645500Y-38324500D01*
X120237395Y-38324500D01*
X120147034Y-38348712D01*
X120147034Y-38348713D01*
X120134927Y-38351957D01*
X120122820Y-38355201D01*
X120020093Y-38414510D01*
X118678509Y-39756096D01*
X118678506Y-39756100D01*
X118619202Y-39858817D01*
X118614604Y-39875978D01*
X118588500Y-39973395D01*
X118588500Y-39973399D01*
X118588500Y-42686601D01*
X118606789Y-42754856D01*
X118612934Y-42777788D01*
X118619202Y-42801183D01*
X118678506Y-42903899D01*
X118678509Y-42903903D01*
X118678511Y-42903906D01*
X119185094Y-43410489D01*
X119235343Y-43439500D01*
X119235344Y-43439501D01*
X119287818Y-43469797D01*
X119287819Y-43469797D01*
X119287822Y-43469799D01*
X119402399Y-43500500D01*
X120509971Y-43500500D01*
X120528919Y-43505577D01*
X120548535Y-43505577D01*
X120565522Y-43515384D01*
X120584471Y-43520462D01*
X120615330Y-43544141D01*
X120696330Y-43625141D01*
X120734894Y-43691936D01*
X120734894Y-43769064D01*
X120696330Y-43835859D01*
X120629535Y-43874423D01*
X120590971Y-43879500D01*
X119685724Y-43879500D01*
X119655304Y-43882353D01*
X119527116Y-43927207D01*
X119417851Y-44007848D01*
X119417848Y-44007851D01*
X119337207Y-44117116D01*
X119292353Y-44245304D01*
X119289500Y-44275724D01*
X119289500Y-44450500D01*
X119269538Y-44525000D01*
X119215000Y-44579538D01*
X119140500Y-44599500D01*
X103199499Y-44599500D01*
X103124999Y-44579538D01*
X103070461Y-44525000D01*
X103050499Y-44450500D01*
X103050499Y-44246625D01*
X103047682Y-44222338D01*
X103047681Y-44222336D01*
X103003813Y-44122984D01*
X102927015Y-44046186D01*
X102827665Y-44002319D01*
X102827656Y-44002316D01*
X102803375Y-43999500D01*
X101996625Y-43999500D01*
X101972338Y-44002317D01*
X101972336Y-44002318D01*
X101872984Y-44046186D01*
X101796186Y-44122984D01*
X101752319Y-44222334D01*
X101752316Y-44222343D01*
X101749500Y-44246624D01*
X101749500Y-45653374D01*
X101752317Y-45677661D01*
X101752318Y-45677663D01*
X101796186Y-45777015D01*
X101796187Y-45777016D01*
X101872984Y-45853813D01*
X101972338Y-45897682D01*
X101972341Y-45897682D01*
X101972343Y-45897683D01*
X101981855Y-45898786D01*
X101996627Y-45900500D01*
X102803372Y-45900499D01*
X102803374Y-45900499D01*
X102819565Y-45898621D01*
X102827662Y-45897682D01*
X102927016Y-45853813D01*
X103003813Y-45777016D01*
X103047682Y-45677662D01*
X103050500Y-45653373D01*
X103050500Y-45449500D01*
X103070462Y-45375000D01*
X103125000Y-45320462D01*
X103199500Y-45300500D01*
X119140500Y-45300500D01*
X119215000Y-45320462D01*
X119269538Y-45375000D01*
X119289500Y-45449500D01*
X119289500Y-46384275D01*
X119292353Y-46414695D01*
X119337207Y-46542883D01*
X119417848Y-46652148D01*
X119417851Y-46652151D01*
X119527116Y-46732792D01*
X119527117Y-46732792D01*
X119527118Y-46732793D01*
X119655301Y-46777646D01*
X119685734Y-46780500D01*
X119713390Y-46780500D01*
X119787890Y-46800462D01*
X119842428Y-46855000D01*
X119862390Y-46929500D01*
X119842428Y-47004000D01*
X119818749Y-47034859D01*
X119786950Y-47066657D01*
X119729354Y-47179694D01*
X119729354Y-47179696D01*
X119714500Y-47273481D01*
X119714500Y-47273482D01*
X119714500Y-47273485D01*
X119714500Y-47736518D01*
X119721978Y-47783730D01*
X119729354Y-47830304D01*
X119786950Y-47943342D01*
X119876658Y-48033050D01*
X119989696Y-48090646D01*
X120083481Y-48105500D01*
X120696518Y-48105499D01*
X120790304Y-48090646D01*
X120903342Y-48033050D01*
X120993050Y-47943342D01*
X121050646Y-47830304D01*
X121065500Y-47736519D01*
X121065499Y-47273482D01*
X121050646Y-47179696D01*
X120993050Y-47066658D01*
X120961251Y-47034859D01*
X120922687Y-46968064D01*
X120922687Y-46890936D01*
X120961251Y-46824141D01*
X121028046Y-46785577D01*
X121066610Y-46780500D01*
X121094259Y-46780500D01*
X121094266Y-46780500D01*
X121124699Y-46777646D01*
X121252882Y-46732793D01*
X121362150Y-46652150D01*
X121442793Y-46542882D01*
X121487646Y-46414699D01*
X121490500Y-46384266D01*
X121490500Y-44779029D01*
X121510462Y-44704529D01*
X121565000Y-44649991D01*
X121639500Y-44630029D01*
X121714000Y-44649991D01*
X121744859Y-44673670D01*
X122815859Y-45744670D01*
X122854423Y-45811465D01*
X122859500Y-45850029D01*
X122859500Y-59250500D01*
X122839538Y-59325000D01*
X122785000Y-59379538D01*
X122710500Y-59399500D01*
X122440252Y-59399500D01*
X122381769Y-59411132D01*
X122315448Y-59455448D01*
X122271132Y-59521769D01*
X122259500Y-59580251D01*
X122259500Y-59825500D01*
X122239538Y-59900000D01*
X122185000Y-59954538D01*
X122110500Y-59974500D01*
X116453811Y-59974500D01*
X116415247Y-59969423D01*
X116340895Y-59949500D01*
X116340892Y-59949500D01*
X116209108Y-59949500D01*
X116209104Y-59949500D01*
X116163064Y-59961837D01*
X116085936Y-59961837D01*
X116019141Y-59923273D01*
X115980577Y-59856478D01*
X115975500Y-59817914D01*
X115975500Y-53199500D01*
X115995462Y-53125000D01*
X116050000Y-53070462D01*
X116124500Y-53050500D01*
X116394748Y-53050500D01*
X116453231Y-53038867D01*
X116519552Y-52994552D01*
X116563867Y-52928231D01*
X116575500Y-52869748D01*
X116575500Y-51648321D01*
X116595462Y-51573821D01*
X116619141Y-51542962D01*
X118512963Y-49649141D01*
X118579758Y-49610577D01*
X118618322Y-49605500D01*
X119737390Y-49605500D01*
X119811890Y-49625462D01*
X119842749Y-49649141D01*
X119876658Y-49683050D01*
X119989696Y-49740646D01*
X120083481Y-49755500D01*
X120696518Y-49755499D01*
X120790304Y-49740646D01*
X120903342Y-49683050D01*
X120993050Y-49593342D01*
X121050646Y-49480304D01*
X121065500Y-49386519D01*
X121065499Y-48923482D01*
X121050646Y-48829696D01*
X120993050Y-48716658D01*
X120903342Y-48626950D01*
X120861407Y-48605583D01*
X120790305Y-48569354D01*
X120774673Y-48566878D01*
X120696519Y-48554500D01*
X120696514Y-48554500D01*
X120083481Y-48554500D01*
X119989695Y-48569354D01*
X119989693Y-48569355D01*
X119876657Y-48626950D01*
X119842749Y-48660859D01*
X119775954Y-48699423D01*
X119737390Y-48704500D01*
X118310691Y-48704500D01*
X118196110Y-48735202D01*
X118093386Y-48794509D01*
X115982038Y-50905859D01*
X115915243Y-50944423D01*
X115876679Y-50949500D01*
X114655252Y-50949500D01*
X114596769Y-50961132D01*
X114530448Y-51005448D01*
X114486132Y-51071769D01*
X114474500Y-51130251D01*
X114474500Y-51400500D01*
X114454538Y-51475000D01*
X114400000Y-51529538D01*
X114325500Y-51549500D01*
X105373321Y-51549500D01*
X105298821Y-51529538D01*
X105267962Y-51505859D01*
X101319141Y-47557038D01*
X101280577Y-47490243D01*
X101275500Y-47451679D01*
X101275500Y-47216516D01*
X101275500Y-47216512D01*
X101259719Y-47116874D01*
X101198528Y-46996780D01*
X101119141Y-46917393D01*
X101080577Y-46850598D01*
X101075500Y-46812034D01*
X101075500Y-42073320D01*
X101095462Y-41998820D01*
X101119137Y-41967965D01*
X102042962Y-41044139D01*
X102109757Y-41005576D01*
X102148321Y-41000499D01*
X102803375Y-41000499D01*
X102821589Y-40998386D01*
X102827662Y-40997682D01*
X102927016Y-40953813D01*
X103003813Y-40877016D01*
X103047682Y-40777662D01*
X103050500Y-40753373D01*
X103050499Y-39346628D01*
X103050003Y-39342354D01*
X103047682Y-39322338D01*
X103047681Y-39322336D01*
X103003813Y-39222984D01*
X102927015Y-39146186D01*
X102827665Y-39102319D01*
X102827656Y-39102316D01*
X102803376Y-39099500D01*
X102803373Y-39099500D01*
X102148321Y-39099500D01*
X102073821Y-39079538D01*
X102042962Y-39055859D01*
X98327287Y-35340184D01*
X94575614Y-31588511D01*
X94575611Y-31588509D01*
X94575607Y-31588506D01*
X94472890Y-31529202D01*
X94472887Y-31529201D01*
X94448673Y-31522713D01*
X94358309Y-31498500D01*
X78641691Y-31498500D01*
X78527110Y-31529202D01*
X78483695Y-31554267D01*
X78483696Y-31554268D01*
X78424389Y-31588508D01*
X78424388Y-31588509D01*
X77857037Y-32155859D01*
X77790242Y-32194423D01*
X77751678Y-32199500D01*
X77096625Y-32199500D01*
X77072338Y-32202317D01*
X77072336Y-32202318D01*
X76972984Y-32246186D01*
X76896186Y-32322984D01*
X76852319Y-32422334D01*
X76852316Y-32422343D01*
X76849500Y-32446624D01*
X76849500Y-33101677D01*
X76829538Y-33176177D01*
X76805859Y-33207036D01*
X67939509Y-42073388D01*
X67939508Y-42073389D01*
X67880201Y-42176111D01*
X67880202Y-42176111D01*
X67880201Y-42176115D01*
X67849500Y-42290689D01*
X67849500Y-57550500D01*
X67829538Y-57625000D01*
X67775000Y-57679538D01*
X67700501Y-57699500D01*
X67596625Y-57699500D01*
X67572338Y-57702317D01*
X67572336Y-57702318D01*
X67472984Y-57746186D01*
X67396186Y-57822984D01*
X67352319Y-57922334D01*
X67352316Y-57922343D01*
X67349500Y-57946624D01*
X67349500Y-58601678D01*
X67329538Y-58676178D01*
X67305859Y-58707037D01*
X66738509Y-59274388D01*
X66738508Y-59274389D01*
X66679241Y-59377042D01*
X66679240Y-59377045D01*
X66679201Y-59377113D01*
X66679201Y-59377114D01*
X66648500Y-59491691D01*
X46321052Y-59491691D01*
X46074792Y-58681891D01*
X46073514Y-58677441D01*
X45875859Y-57946625D01*
X45746165Y-57467093D01*
X45745028Y-57462615D01*
X45455419Y-56242582D01*
X45454445Y-56238173D01*
X45202883Y-55009733D01*
X45202030Y-55005208D01*
X45106790Y-54453402D01*
X44988770Y-53769616D01*
X44988066Y-53765121D01*
X44813288Y-52523417D01*
X44812724Y-52518902D01*
X44676613Y-51272405D01*
X44676184Y-51267812D01*
X44578870Y-50017711D01*
X44578585Y-50013107D01*
X44573048Y-49894415D01*
X44536872Y-49118878D01*
X44536872Y-49118876D01*
X50249500Y-49118876D01*
X50249500Y-49381123D01*
X50283728Y-49641107D01*
X50283728Y-49641110D01*
X50351600Y-49894415D01*
X50351600Y-49894416D01*
X50451959Y-50136701D01*
X50583078Y-50363806D01*
X50583078Y-50363807D01*
X50742715Y-50571848D01*
X50928151Y-50757284D01*
X51066969Y-50863803D01*
X51136197Y-50916924D01*
X51363303Y-51048043D01*
X51561770Y-51130251D01*
X51605583Y-51148399D01*
X51693332Y-51171910D01*
X51858884Y-51216270D01*
X51858890Y-51216270D01*
X51858891Y-51216271D01*
X51895834Y-51221134D01*
X52118877Y-51250499D01*
X52118878Y-51250500D01*
X52118880Y-51250500D01*
X52381122Y-51250500D01*
X52381122Y-51250499D01*
X52641108Y-51216271D01*
X52641110Y-51216271D01*
X52641111Y-51216270D01*
X52641116Y-51216270D01*
X52894415Y-51148399D01*
X52894416Y-51148399D01*
X52894417Y-51148398D01*
X52894419Y-51148398D01*
X53136697Y-51048043D01*
X53363803Y-50916924D01*
X53571848Y-50757284D01*
X53571849Y-50757284D01*
X53757284Y-50571849D01*
X53757284Y-50571848D01*
X53916921Y-50363807D01*
X53916921Y-50363806D01*
X53916924Y-50363803D01*
X54048043Y-50136697D01*
X54148398Y-49894419D01*
X54216270Y-49641116D01*
X54250500Y-49381120D01*
X54250500Y-49118880D01*
X54216270Y-48858884D01*
X54163210Y-48660859D01*
X54148399Y-48605584D01*
X54148399Y-48605583D01*
X54127240Y-48554501D01*
X54048043Y-48363303D01*
X53916924Y-48136197D01*
X53916921Y-48136193D01*
X53916921Y-48136192D01*
X53757284Y-47928151D01*
X53571848Y-47742715D01*
X53363806Y-47583078D01*
X53318703Y-47557038D01*
X53224261Y-47502512D01*
X53136701Y-47451959D01*
X53136699Y-47451958D01*
X53136697Y-47451957D01*
X53061154Y-47420666D01*
X52894416Y-47351600D01*
X52668255Y-47291002D01*
X52641116Y-47283730D01*
X52641114Y-47283729D01*
X52641108Y-47283728D01*
X52381123Y-47249500D01*
X52381120Y-47249500D01*
X52118880Y-47249500D01*
X52118876Y-47249500D01*
X51858892Y-47283728D01*
X51858889Y-47283728D01*
X51605584Y-47351600D01*
X51605583Y-47351600D01*
X51363298Y-47451959D01*
X51136193Y-47583078D01*
X51136192Y-47583078D01*
X50928151Y-47742715D01*
X50928151Y-47742716D01*
X50928149Y-47742718D01*
X50742718Y-47928149D01*
X50742716Y-47928151D01*
X50742715Y-47928151D01*
X50583078Y-48136192D01*
X50583078Y-48136193D01*
X50451959Y-48363298D01*
X50351600Y-48605583D01*
X50351600Y-48605584D01*
X50283728Y-48858889D01*
X50283728Y-48858892D01*
X50249500Y-49118876D01*
X44536872Y-49118876D01*
X44520162Y-48760644D01*
X44520018Y-48756016D01*
X44519406Y-48716658D01*
X44500540Y-47502510D01*
X44500548Y-47497411D01*
X44501398Y-47451959D01*
X44519329Y-46493212D01*
X44519534Y-46487721D01*
X44575842Y-45485059D01*
X44576254Y-45479568D01*
X44670008Y-44479771D01*
X44670631Y-44474248D01*
X44801702Y-43478659D01*
X44802517Y-43473254D01*
X44970737Y-42483186D01*
X44971760Y-42477778D01*
X45176870Y-41494744D01*
X45178097Y-41489372D01*
X45419822Y-40514689D01*
X45421247Y-40509372D01*
X45699257Y-39544378D01*
X45700871Y-39539146D01*
X46014757Y-38585256D01*
X46016574Y-38580063D01*
X46365925Y-37638531D01*
X46367922Y-37633443D01*
X46752220Y-36705666D01*
X46754425Y-36700612D01*
X47173138Y-35787867D01*
X47175547Y-35782868D01*
X47295029Y-35546187D01*
X47628087Y-34886434D01*
X47630655Y-34881575D01*
X48116424Y-34002643D01*
X48119151Y-33997919D01*
X48637456Y-33137746D01*
X48640358Y-33133127D01*
X49190451Y-32292952D01*
X49193579Y-32288366D01*
X49774677Y-31469385D01*
X49777939Y-31464965D01*
X50389270Y-30668264D01*
X50392702Y-30663960D01*
X51033369Y-29890705D01*
X51036965Y-29886525D01*
X51706141Y-29137717D01*
X51709881Y-29133687D01*
X52406554Y-28410458D01*
X52410458Y-28406554D01*
X53133687Y-27709881D01*
X53137717Y-27706141D01*
X53886525Y-27036965D01*
X53890705Y-27033369D01*
X54663960Y-26392702D01*
X54668264Y-26389270D01*
X55464965Y-25777939D01*
X55469385Y-25774677D01*
X56288383Y-25193566D01*
X56292952Y-25190451D01*
X57133127Y-24640358D01*
X57137746Y-24637456D01*
X57997919Y-24119151D01*
X58002643Y-24116424D01*
X58881575Y-23630655D01*
X58886434Y-23628087D01*
X59782868Y-23175546D01*
X59787867Y-23173138D01*
X60700612Y-22754425D01*
X60705666Y-22752220D01*
X61633443Y-22367922D01*
X61638531Y-22365925D01*
X62580063Y-22016574D01*
X62585256Y-22014757D01*
X63539146Y-21700871D01*
X63544378Y-21699257D01*
X64509372Y-21421247D01*
X64514689Y-21419822D01*
X65489372Y-21178097D01*
X65494744Y-21176870D01*
X66477778Y-20971760D01*
X66483186Y-20970737D01*
X67473254Y-20802517D01*
X67478659Y-20801702D01*
X68474262Y-20670629D01*
X68479771Y-20670008D01*
X69479568Y-20576254D01*
X69485059Y-20575842D01*
X70487721Y-20519534D01*
X70493212Y-20519329D01*
X71498610Y-20500526D01*
X71501396Y-20500500D01*
X71565892Y-20500500D01*
X119934108Y-20500500D01*
X191434108Y-20500500D01*
X191498604Y-20500500D01*
X191501390Y-20500526D01*
G37*
%TD.AperFunction*%
%TD*%
M02*
