M48
; DRILL file {KiCad 9.0.1} date 2025-05-09T16:18:26+0200
; FORMAT={-:-/ absolute / metric / decimal}
; #@! TF.CreationDate,2025-05-09T16:18:26+02:00
; #@! TF.GenerationSoftware,Kicad,Pcbnew,9.0.1
; #@! TF.FileFunction,Plated,1,2,PTH
FMAT,2
METRIC
; #@! TA.AperFunction,Plated,PTH,ViaDrill
T1C0.300
; #@! TA.AperFunction,Plated,PTH,ComponentDrill
T2C1.000
%
G90
G05
T1
X46.0Y-40.0
X46.0Y-45.0
X46.0Y-50.0
X46.0Y-55.0
X51.0Y-35.0
X51.0Y-40.0
X51.0Y-45.0
X51.0Y-55.0
X51.0Y-60.0
X51.0Y-65.0
X56.0Y-30.0
X56.0Y-35.0
X56.0Y-40.0
X56.0Y-45.0
X56.0Y-50.0
X56.0Y-55.0
X56.0Y-60.0
X56.0Y-65.0
X56.0Y-70.0
X56.0Y-75.0
X60.675Y-30.001
X60.675Y-35.001
X60.675Y-40.001
X60.675Y-45.001
X60.675Y-50.001
X60.675Y-55.001
X60.675Y-60.001
X60.675Y-65.001
X60.675Y-70.001
X60.675Y-75.001
X61.0Y-25.0
X66.0Y-25.0
X66.0Y-30.0
X66.0Y-35.0
X66.0Y-40.0
X66.0Y-45.0
X66.0Y-50.0
X66.0Y-55.0
X66.0Y-60.0
X66.0Y-65.0
X66.0Y-70.0
X66.0Y-75.0
X66.0Y-80.0
X71.0Y-25.0
X71.0Y-30.0
X71.0Y-35.0
X71.0Y-45.0
X71.0Y-50.0
X71.0Y-55.0
X71.0Y-60.0
X71.0Y-65.0
X71.0Y-70.0
X71.0Y-75.0
X71.0Y-80.0
X71.0Y-85.0
X75.16Y-37.2
X76.0Y-25.0
X76.0Y-30.0
X76.0Y-40.0
X76.0Y-45.0
X76.0Y-50.0
X76.0Y-55.0
X76.0Y-60.0
X76.0Y-65.0
X76.0Y-70.0
X76.0Y-75.0
X76.0Y-80.0
X76.0Y-85.0
X81.0Y-25.0
X81.0Y-30.0
X81.0Y-35.0
X81.0Y-40.0
X81.0Y-45.0
X81.0Y-50.0
X81.0Y-55.0
X81.0Y-60.0
X81.0Y-70.0
X81.0Y-75.0
X81.0Y-80.0
X81.0Y-85.0
X86.0Y-25.0
X86.0Y-30.0
X86.0Y-35.0
X86.0Y-40.0
X86.0Y-45.0
X86.0Y-50.0
X86.0Y-55.0
X86.0Y-60.0
X86.0Y-70.0
X86.0Y-75.0
X86.0Y-80.0
X86.0Y-85.0
X86.7Y-64.6
X87.1Y-67.1
X90.1Y-67.1
X91.0Y-25.0
X91.0Y-30.0
X91.0Y-35.0
X91.0Y-40.0
X91.0Y-45.0
X91.0Y-50.0
X91.0Y-55.0
X91.0Y-60.0
X91.0Y-75.0
X91.0Y-80.0
X91.0Y-85.0
X91.716Y-65.416
X96.0Y-25.0
X96.0Y-30.0
X96.0Y-35.0
X96.0Y-40.0
X96.0Y-45.0
X96.0Y-50.0
X96.0Y-55.0
X96.0Y-70.0
X96.0Y-75.0
X96.0Y-80.0
X96.0Y-85.0
X98.1Y-47.6
X98.2Y-47.0
X98.2Y-62.7
X98.3Y-48.2
X98.6Y-46.5
X98.8Y-48.5
X99.2Y-46.5
X99.8Y-46.6
X101.0Y-25.0
X101.0Y-30.0
X101.0Y-35.0
X101.0Y-40.0
X101.0Y-50.0
X101.0Y-55.0
X101.0Y-57.5
X101.0Y-65.0
X101.0Y-70.0
X101.0Y-75.0
X101.0Y-80.0
X101.43Y-44.79
X106.0Y-25.0
X106.0Y-30.0
X106.0Y-35.0
X106.0Y-40.0
X106.0Y-50.0
X106.0Y-55.0
X106.0Y-57.5
X106.0Y-65.0
X106.0Y-70.0
X106.0Y-75.0
X106.0Y-80.0
X106.0Y-85.0
X111.0Y-25.0
X111.0Y-30.0
X111.0Y-35.0
X111.0Y-40.0
X111.0Y-50.0
X111.0Y-55.0
X111.0Y-57.5
X111.0Y-65.0
X111.0Y-70.0
X111.0Y-75.0
X111.0Y-85.0
X113.2Y-74.8
X113.8Y-72.8
X113.8Y-74.8
X114.26Y-53.2
X114.3Y-73.2
X114.3Y-74.4
X114.4Y-73.8
X114.71Y-59.62
X114.775Y-60.45
X114.775Y-61.7
X114.775Y-62.5
X116.0Y-25.0
X116.0Y-30.0
X116.0Y-35.0
X116.0Y-40.0
X116.0Y-50.0
X116.0Y-75.0
X116.0Y-90.0
X116.275Y-60.45
X116.275Y-61.7
X116.275Y-62.5
X116.3Y-59.63
X116.4Y-64.5
X116.4Y-69.1
X118.99Y-44.3
X118.99Y-45.6
X121.0Y-25.0
X121.0Y-30.0
X121.0Y-35.0
X121.0Y-50.0
X121.0Y-55.0
X121.0Y-65.0
X121.0Y-70.0
X121.0Y-75.0
X121.0Y-80.0
X121.0Y-85.0
X121.0Y-90.0
X121.66Y-42.82
X121.79Y-45.15
X123.2Y-73.4
X124.7Y-59.6
X125.1Y-64.2
X125.5Y-61.9
X126.0Y-25.0
X126.0Y-45.0
X126.0Y-50.0
X126.0Y-55.0
X126.0Y-80.0
X129.6Y-61.1
X129.7Y-41.3
X129.7Y-42.8
X131.0Y-25.0
X131.0Y-45.0
X131.0Y-50.0
X131.0Y-55.0
X131.0Y-80.0
X131.525Y-44.14
X133.29Y-43.38
X134.0Y-41.5
X134.025Y-44.15
X134.2Y-43.35
X134.8Y-43.35
X135.4Y-43.35
X136.0Y-25.0
X136.0Y-43.35
X136.0Y-45.0
X136.0Y-50.0
X136.0Y-55.0
X136.0Y-60.0
X136.0Y-80.0
X136.0Y-85.0
X136.6Y-43.35
X137.2Y-43.35
X137.8Y-43.35
X139.71Y-73.63
X140.07Y-43.35
X141.0Y-25.0
X141.0Y-30.0
X141.0Y-35.0
X141.0Y-45.0
X141.0Y-50.0
X141.0Y-55.0
X141.0Y-60.0
X141.0Y-65.0
X141.0Y-70.0
X141.0Y-75.0
X141.0Y-80.0
X141.0Y-85.0
X141.0Y-90.0
X142.05Y-43.34
X142.688Y-43.307
X145.5Y-41.5
X146.0Y-25.0
X146.0Y-30.0
X146.0Y-35.0
X146.0Y-50.0
X146.0Y-55.0
X146.0Y-60.0
X146.0Y-65.0
X146.0Y-70.0
X146.0Y-75.0
X146.0Y-80.0
X146.0Y-90.0
X146.5Y-44.0
X146.5Y-45.0
X146.82Y-48.22
X151.0Y-25.0
X151.0Y-30.0
X151.0Y-35.0
X151.0Y-40.0
X151.0Y-45.0
X151.0Y-55.0
X151.0Y-60.0
X151.0Y-65.0
X151.0Y-70.0
X151.0Y-75.0
X151.0Y-85.0
X152.011Y-51.399
X152.641Y-52.029
X154.131Y-51.399
X154.786Y-52.025
X156.0Y-25.0
X156.0Y-30.0
X156.0Y-35.0
X156.0Y-40.0
X156.0Y-50.0
X156.0Y-55.0
X156.0Y-60.0
X156.0Y-65.0
X156.0Y-70.0
X156.0Y-75.0
X156.0Y-80.0
X156.0Y-85.0
X161.0Y-25.0
X161.0Y-30.0
X161.0Y-35.0
X161.0Y-45.0
X161.0Y-50.0
X161.0Y-55.0
X161.0Y-60.0
X161.0Y-65.0
X161.0Y-70.0
X161.0Y-75.0
X161.0Y-80.0
X161.3Y-56.2
X161.4Y-55.6
X161.4Y-56.8
X161.9Y-55.2
X161.9Y-57.2
X162.5Y-55.2
X163.0Y-55.5
X166.0Y-25.0
X166.0Y-30.0
X166.0Y-40.0
X166.0Y-45.0
X166.0Y-50.0
X166.0Y-60.0
X166.0Y-65.0
X166.0Y-70.0
X166.0Y-75.0
X166.0Y-80.0
X166.0Y-85.0
X171.0Y-25.0
X171.0Y-30.0
X171.0Y-40.0
X171.0Y-45.0
X171.0Y-50.0
X171.0Y-55.0
X171.0Y-70.0
X171.0Y-75.0
X171.0Y-80.0
X171.0Y-85.0
X176.0Y-25.0
X176.0Y-30.0
X176.0Y-40.0
X176.0Y-45.0
X176.0Y-50.0
X176.0Y-55.0
X176.0Y-60.0
X176.0Y-75.0
X176.0Y-80.0
X176.0Y-85.0
X181.0Y-25.0
X181.0Y-30.0
X181.0Y-35.0
X181.0Y-40.0
X181.0Y-45.0
X181.0Y-50.0
X181.0Y-55.0
X181.0Y-60.0
X181.0Y-70.0
X181.0Y-75.0
X181.0Y-80.0
X181.0Y-85.0
X186.0Y-25.0
X186.0Y-30.0
X186.0Y-40.0
X186.0Y-45.0
X186.0Y-50.0
X186.0Y-55.0
X186.0Y-60.0
X186.0Y-65.0
X186.0Y-70.0
X186.0Y-75.0
X186.0Y-80.0
X186.0Y-85.0
X191.0Y-25.0
X191.0Y-30.0
X191.0Y-35.0
X191.0Y-45.0
X191.0Y-50.0
X191.0Y-55.0
X191.0Y-60.0
X191.0Y-65.0
X191.0Y-70.0
X191.0Y-75.0
X191.0Y-80.0
X191.0Y-85.0
X196.0Y-25.0
X196.0Y-30.0
X196.0Y-35.0
X196.0Y-65.0
X196.0Y-70.0
X196.0Y-75.0
X196.0Y-80.0
X201.0Y-25.0
X201.0Y-30.0
X201.0Y-35.0
X201.0Y-40.0
X201.0Y-45.0
X201.0Y-50.0
X201.0Y-55.0
X201.0Y-60.0
X201.0Y-65.0
X201.0Y-70.0
X201.0Y-75.0
X201.0Y-80.0
X206.0Y-30.0
X206.0Y-35.0
X206.0Y-40.0
X206.0Y-45.0
X206.0Y-50.0
X206.0Y-55.0
X206.0Y-60.0
X206.0Y-65.0
X206.0Y-70.0
X206.0Y-75.0
X211.0Y-30.0
X211.0Y-35.0
X211.0Y-40.0
X211.0Y-45.0
X211.0Y-55.0
X211.0Y-60.0
X211.0Y-65.0
X211.0Y-70.0
X216.0Y-40.0
X216.0Y-45.0
X216.0Y-50.0
X216.0Y-55.0
X216.0Y-60.0
T2
X115.525Y-52.0
X118.065Y-52.0
X123.31Y-60.45
X125.85Y-60.45
X127.07Y-33.15
X128.39Y-60.45
X129.61Y-33.15
X130.93Y-60.45
X132.15Y-33.15
X133.47Y-60.45
X143.75Y-39.06
X143.75Y-41.6
X143.75Y-44.14
X143.75Y-46.68
M30
