%TF.GenerationSoftware,KiCad,Pcbnew,8.0.5*%
%TF.CreationDate,2025-02-08T11:35:46+01:00*%
%TF.ProjectId,ESP32 adon,45535033-3220-4616-946f-6e2e6b696361,rev?*%
%TF.SameCoordinates,Original*%
%TF.FileFunction,Copper,L2,Bot*%
%TF.FilePolarity,Positive*%
%FSLAX46Y46*%
G04 Gerber Fmt 4.6, Leading zero omitted, Abs format (unit mm)*
G04 Created by KiCad (PCBNEW 8.0.5) date 2025-02-08 11:35:46*
%MOMM*%
%LPD*%
G01*
G04 APERTURE LIST*
%TA.AperFunction,ComponentPad*%
%ADD10R,1.350000X1.350000*%
%TD*%
%TA.AperFunction,ComponentPad*%
%ADD11O,1.350000X1.350000*%
%TD*%
%TA.AperFunction,ComponentPad*%
%ADD12R,1.000000X2.000000*%
%TD*%
%TA.AperFunction,ComponentPad*%
%ADD13R,1.600000X1.000000*%
%TD*%
%TA.AperFunction,ComponentPad*%
%ADD14R,1.000000X2.300000*%
%TD*%
%TA.AperFunction,ComponentPad*%
%ADD15R,1.100000X2.400000*%
%TD*%
%TA.AperFunction,ComponentPad*%
%ADD16C,2.000000*%
%TD*%
%TA.AperFunction,ViaPad*%
%ADD17C,0.600000*%
%TD*%
%TA.AperFunction,ViaPad*%
%ADD18C,0.500000*%
%TD*%
%TA.AperFunction,Conductor*%
%ADD19C,0.200000*%
%TD*%
%TA.AperFunction,Conductor*%
%ADD20C,0.300000*%
%TD*%
%TA.AperFunction,Conductor*%
%ADD21C,1.000000*%
%TD*%
%TA.AperFunction,Conductor*%
%ADD22C,0.750000*%
%TD*%
%TA.AperFunction,Conductor*%
%ADD23C,2.000000*%
%TD*%
%TA.AperFunction,Conductor*%
%ADD24C,0.600000*%
%TD*%
G04 APERTURE END LIST*
D10*
%TO.P,J2,1,Pin_1*%
%TO.N,Net-(J2-Pin_1)*%
X51500000Y-89000000D03*
D11*
%TO.P,J2,2,Pin_2*%
%TO.N,Net-(J2-Pin_2)*%
X51500000Y-91000000D03*
%TO.P,J2,3,Pin_3*%
%TO.N,Net-(J2-Pin_3)*%
X51500000Y-93000000D03*
%TO.P,J2,4,Pin_4*%
%TO.N,Net-(J2-Pin_4)*%
X51500000Y-95000000D03*
%TO.P,J2,5,Pin_5*%
%TO.N,Net-(J2-Pin_5)*%
X51500000Y-97000000D03*
%TO.P,J2,6,Pin_6*%
%TO.N,Net-(J2-Pin_6)*%
X51500000Y-99000000D03*
%TO.P,J2,7,Pin_7*%
%TO.N,Net-(J2-Pin_7)*%
X51500000Y-101000000D03*
%TO.P,J2,8,Pin_8*%
%TO.N,Net-(J2-Pin_8)*%
X51500000Y-103000000D03*
%TD*%
D10*
%TO.P,J4,1,Pin_1*%
%TO.N,unconnected-(J4-Pin_1-Pad1)*%
X90500000Y-89000000D03*
D11*
%TO.P,J4,2,Pin_2*%
%TO.N,unconnected-(J4-Pin_2-Pad2)*%
X90500000Y-91000000D03*
%TO.P,J4,3,Pin_3*%
%TO.N,unconnected-(J4-Pin_3-Pad3)*%
X90500000Y-93000000D03*
%TO.P,J4,4,Pin_4*%
%TO.N,unconnected-(J4-Pin_4-Pad4)*%
X90500000Y-95000000D03*
%TO.P,J4,5,Pin_5*%
%TO.N,/RX*%
X90500000Y-97000000D03*
%TO.P,J4,6,Pin_6*%
%TO.N,/TX*%
X90500000Y-99000000D03*
%TO.P,J4,7,Pin_7*%
%TO.N,/SCL_{5V}*%
X90500000Y-101000000D03*
%TO.P,J4,8,Pin_8*%
%TO.N,/SDA_{5V}*%
X90500000Y-103000000D03*
%TD*%
D12*
%TO.P,J6,SH1,SHIELD*%
%TO.N,GND*%
X56315000Y-102225000D03*
D13*
X56615000Y-102725000D03*
%TO.P,J6,SH2,SHIELD*%
X64655000Y-102725000D03*
D12*
X64955000Y-102225000D03*
D14*
%TO.P,J6,SH3,SHIELD*%
X56315000Y-106775000D03*
D15*
%TO.P,J6,SH4,SHIELD*%
X64955000Y-106775000D03*
%TD*%
D10*
%TO.P,J5,1,Pin_1*%
%TO.N,Net-(J5-Pin_1)*%
X90500000Y-55000000D03*
D11*
%TO.P,J5,2,Pin_2*%
%TO.N,Net-(J5-Pin_2)*%
X90500000Y-57000000D03*
%TO.P,J5,3,Pin_3*%
%TO.N,Net-(J5-Pin_3)*%
X90500000Y-59000000D03*
%TO.P,J5,4,Pin_4*%
%TO.N,Net-(J5-Pin_4)*%
X90500000Y-61000000D03*
%TO.P,J5,5,Pin_5*%
%TO.N,unconnected-(J5-Pin_5-Pad5)*%
X90500000Y-63000000D03*
%TO.P,J5,6,Pin_6*%
%TO.N,unconnected-(J5-Pin_6-Pad6)*%
X90500000Y-65000000D03*
%TO.P,J5,7,Pin_7*%
%TO.N,unconnected-(J5-Pin_7-Pad7)*%
X90500000Y-67000000D03*
%TO.P,J5,8,Pin_8*%
%TO.N,unconnected-(J5-Pin_8-Pad8)*%
X90500000Y-69000000D03*
%TD*%
D16*
%TO.P,SW2,1,1*%
%TO.N,GND*%
X55000000Y-61750000D03*
X55000000Y-55250000D03*
%TO.P,SW2,2,2*%
%TO.N,Net-(U1-EN{slash}CHIP_PU)*%
X59500000Y-61750000D03*
X59500000Y-55250000D03*
%TD*%
D10*
%TO.P,J3,1,Pin_1*%
%TO.N,+5V*%
X72000000Y-107000000D03*
D11*
%TO.P,J3,2,Pin_2*%
%TO.N,GND*%
X70000000Y-107000000D03*
%TD*%
D10*
%TO.P,J1,1,Pin_1*%
%TO.N,Net-(J1-Pin_1)*%
X52000000Y-55000000D03*
D11*
%TO.P,J1,2,Pin_2*%
%TO.N,Net-(J1-Pin_2)*%
X52000000Y-57000000D03*
%TO.P,J1,3,Pin_3*%
%TO.N,Net-(J1-Pin_3)*%
X52000000Y-59000000D03*
%TO.P,J1,4,Pin_4*%
%TO.N,Net-(J1-Pin_4)*%
X52000000Y-61000000D03*
%TO.P,J1,5,Pin_5*%
%TO.N,Net-(J1-Pin_5)*%
X52000000Y-63000000D03*
%TO.P,J1,6,Pin_6*%
%TO.N,Net-(J1-Pin_6)*%
X52000000Y-65000000D03*
%TO.P,J1,7,Pin_7*%
%TO.N,Net-(J1-Pin_7)*%
X52000000Y-67000000D03*
%TO.P,J1,8,Pin_8*%
%TO.N,Net-(J1-Pin_8)*%
X52000000Y-69000000D03*
%TD*%
D10*
%TO.P,J7,1,Pin_1*%
%TO.N,+3.3V*%
X75955000Y-86215000D03*
D11*
%TO.P,J7,2,Pin_2*%
%TO.N,/SCL_{3.3V}*%
X75955000Y-88215000D03*
%TO.P,J7,3,Pin_3*%
%TO.N,/SDA_{3.3V}*%
X75955000Y-90215000D03*
%TO.P,J7,4,Pin_4*%
%TO.N,GND*%
X75955000Y-92215000D03*
%TD*%
D17*
%TO.N,GND*%
X87375000Y-94050000D03*
X63045000Y-86145000D03*
X86580000Y-93330000D03*
X67360000Y-97640000D03*
X81275000Y-88040000D03*
X78515000Y-100120000D03*
X63000000Y-93020000D03*
X72250000Y-85750000D03*
X78465000Y-63835000D03*
X57550000Y-77940000D03*
X64190000Y-66490000D03*
X61305000Y-83485000D03*
X75335000Y-81130000D03*
X90952500Y-82202500D03*
X65115000Y-79675000D03*
X85340000Y-92290000D03*
X88920000Y-69380000D03*
X74150000Y-84850000D03*
X69120000Y-57180000D03*
X85675000Y-57640000D03*
X79620000Y-86215000D03*
X64615000Y-50900000D03*
X59135000Y-94210000D03*
X61075000Y-77055000D03*
X89745000Y-71170000D03*
X62035000Y-83545000D03*
X82780000Y-75545000D03*
X84830000Y-94580000D03*
X78395000Y-59030000D03*
X74355000Y-68580000D03*
X65015000Y-77435000D03*
X61405000Y-50800000D03*
X61970000Y-79775000D03*
X59680000Y-85210000D03*
X63980000Y-62350000D03*
X63165000Y-104250000D03*
X74610000Y-73720000D03*
X59500000Y-68770000D03*
X86390000Y-106730000D03*
X72250000Y-88500000D03*
X56850000Y-81165000D03*
X63015000Y-83715000D03*
X55490000Y-81355000D03*
X76925000Y-62795000D03*
X57985000Y-104215000D03*
X74410000Y-62330000D03*
X79920000Y-105230000D03*
X60890000Y-88400000D03*
X63115000Y-79395000D03*
X63015000Y-76255000D03*
X86910000Y-84005000D03*
X63170000Y-90240000D03*
X78705000Y-51460000D03*
X63045000Y-87645000D03*
X78515000Y-102700000D03*
X87960000Y-90725000D03*
X83900000Y-58970000D03*
X70370000Y-57180000D03*
X76420000Y-63790000D03*
X68450000Y-95885000D03*
X84475000Y-69590000D03*
X77435000Y-63690000D03*
X65170000Y-92560000D03*
X70920000Y-91200000D03*
X84345000Y-74205000D03*
X71715000Y-91145000D03*
X69745000Y-57805000D03*
X81555000Y-51550000D03*
X88925000Y-61990000D03*
X85595000Y-71890000D03*
X72250000Y-89750000D03*
X81855000Y-74600000D03*
X58200000Y-78010000D03*
X75290000Y-100320000D03*
X85150000Y-51805000D03*
X57700000Y-87130000D03*
X64185000Y-98330000D03*
X58695000Y-75635000D03*
X58845000Y-80065000D03*
X76435000Y-61780000D03*
X66420000Y-87930000D03*
X55335000Y-98055000D03*
X76360000Y-72265000D03*
X82920000Y-100120000D03*
X60350000Y-97155000D03*
X88010000Y-63895000D03*
X82025000Y-88910000D03*
X69965000Y-97375000D03*
X59910000Y-87315000D03*
X72280000Y-70915000D03*
X57465000Y-50935000D03*
X85370000Y-87950000D03*
X81225000Y-72960000D03*
X70895000Y-93660000D03*
X76480000Y-73405000D03*
X65170000Y-89185000D03*
X77310000Y-59390000D03*
X65170000Y-86230000D03*
X63925000Y-57920000D03*
X75055000Y-79805000D03*
X60470000Y-92880000D03*
X90670000Y-83905000D03*
X90245000Y-52695000D03*
X87175000Y-56795000D03*
X70370000Y-55930000D03*
X63070000Y-85310000D03*
X72250000Y-87000000D03*
X78620000Y-57890000D03*
X72230000Y-80045000D03*
X70995000Y-57805000D03*
X71760000Y-73500000D03*
X58545000Y-99960000D03*
X60970000Y-79880000D03*
X65620000Y-79025000D03*
X83530000Y-73405000D03*
X69080000Y-67905000D03*
X74835000Y-76820000D03*
X81000000Y-74500000D03*
X85435000Y-70000000D03*
X68181325Y-100818675D03*
X65085000Y-87505000D03*
X60135000Y-83400000D03*
X59375000Y-65115000D03*
X71000000Y-82250000D03*
X74580000Y-66670000D03*
X57805000Y-95135000D03*
X74250000Y-96000000D03*
X65010000Y-100175000D03*
X88545000Y-85150000D03*
X59885000Y-79795000D03*
X74565000Y-75395000D03*
X73325000Y-98315000D03*
X50805000Y-76985000D03*
X86949277Y-75983589D03*
X70825000Y-96000000D03*
X90925000Y-85755000D03*
X70370000Y-58430000D03*
X63185000Y-88895000D03*
X69120000Y-58430000D03*
X73050000Y-62380000D03*
X88840000Y-91605000D03*
X87170000Y-71890000D03*
X82630000Y-69935000D03*
X74430000Y-58850000D03*
X71835000Y-75110000D03*
X69185000Y-90930000D03*
X57640000Y-85165000D03*
X72270000Y-91120000D03*
X79895000Y-82685000D03*
X70000000Y-102750000D03*
X78215000Y-70070000D03*
X84515000Y-103680000D03*
X73660000Y-81915000D03*
X65140000Y-91050000D03*
X69120000Y-55930000D03*
X59625000Y-73425000D03*
X88545000Y-83160000D03*
X90105000Y-75200000D03*
X69745000Y-56555000D03*
X69175000Y-96520000D03*
X85000000Y-77025000D03*
X57145000Y-100475000D03*
X56380000Y-99850000D03*
X70120000Y-73310000D03*
X72250000Y-84750000D03*
X87920000Y-53590000D03*
X62975000Y-91615000D03*
X86225000Y-95750000D03*
X82705000Y-72510000D03*
X89710000Y-82540000D03*
X89195000Y-52165000D03*
X70000000Y-81250000D03*
X78625000Y-52350000D03*
X64815000Y-96925000D03*
X88785000Y-56670000D03*
X71700000Y-93770000D03*
X68495000Y-57805000D03*
X87090000Y-89625000D03*
X74430000Y-63600000D03*
X81470000Y-92630000D03*
X82730000Y-106495000D03*
X65030000Y-85060000D03*
X65125000Y-83590000D03*
X81105000Y-70750000D03*
X72750000Y-102500000D03*
X85305000Y-58207500D03*
X63070000Y-77645000D03*
X89935000Y-83775000D03*
X76100000Y-57015000D03*
X80905000Y-98340000D03*
X88675000Y-58295000D03*
X57735000Y-97195000D03*
X68475000Y-95050000D03*
X78155000Y-84715000D03*
X85355000Y-101340000D03*
X65160000Y-95520000D03*
X86315000Y-58605000D03*
X57750000Y-91830000D03*
X55340000Y-97130000D03*
X90455000Y-80045000D03*
X70995000Y-56555000D03*
X82015000Y-84660000D03*
X82705000Y-71510000D03*
X81795000Y-103730000D03*
X69840000Y-88025000D03*
X86840000Y-57975000D03*
X63495000Y-100075000D03*
X88920000Y-65925000D03*
X90750000Y-79500000D03*
X74430000Y-60725000D03*
X86670000Y-75400000D03*
X75160000Y-57870000D03*
X57710000Y-88845000D03*
X82800000Y-52850000D03*
X78635000Y-72140000D03*
X84035000Y-86875000D03*
X79230000Y-77450000D03*
X87195000Y-69795000D03*
X76585000Y-71645000D03*
X82605000Y-60510000D03*
X59700000Y-91005000D03*
X67250000Y-79250000D03*
X76495000Y-60370000D03*
X84060000Y-90895000D03*
X77870000Y-54655000D03*
X67412650Y-100050000D03*
X85615000Y-73055000D03*
X69431325Y-102068675D03*
X51515000Y-78345000D03*
X73000000Y-99750000D03*
X74470000Y-89505000D03*
X72545000Y-93715000D03*
X76690000Y-66390000D03*
X68495000Y-56555000D03*
X51615000Y-75775000D03*
X77350000Y-55705000D03*
X56380000Y-95960000D03*
X77220000Y-85255000D03*
X81555000Y-52340000D03*
X82820000Y-89550000D03*
X90450000Y-84815000D03*
X59485000Y-50950000D03*
X80240000Y-86950000D03*
X76385000Y-104900000D03*
X88920000Y-72965000D03*
%TO.N,+5V*%
X84500000Y-62500000D03*
X85125000Y-56500000D03*
X73500000Y-76500000D03*
X67500000Y-82500000D03*
%TO.N,+5Vin*%
X59385000Y-100181765D03*
D18*
X63018261Y-96112498D03*
D17*
%TO.N,/D+*%
X61447431Y-104690452D03*
X61427867Y-98197867D03*
X63701228Y-68201137D03*
%TO.N,/D-*%
X64302270Y-67600095D03*
X60846389Y-105291494D03*
X62028909Y-98798909D03*
%TO.N,Net-(J1-Pin_2)*%
X56200000Y-75500000D03*
%TO.N,Net-(J1-Pin_1)*%
X57000000Y-75500000D03*
%TO.N,/RX*%
X76500000Y-80500000D03*
%TO.N,/TX*%
X73500000Y-80500000D03*
%TO.N,/SDA_{5V}*%
X81850000Y-63500000D03*
X67500000Y-81500000D03*
%TO.N,/SCL_{3.3V}*%
X77885421Y-65512149D03*
X84911120Y-75492370D03*
X64000000Y-65300003D03*
X81250000Y-69600000D03*
X88087500Y-72412500D03*
X81400000Y-80000000D03*
%TO.N,/SDA_{3.3V}*%
X78500000Y-65000000D03*
X82000000Y-81000000D03*
X84714191Y-76267754D03*
X64000000Y-64500000D03*
%TO.N,/SCL_{5V}*%
X67475737Y-80675734D03*
X83900000Y-60500000D03*
X88151472Y-99934315D03*
%TO.N,Net-(J6-CC2)*%
X61330000Y-103792582D03*
X57302500Y-99117500D03*
%TD*%
D19*
%TO.N,GND*%
X80650000Y-69030000D02*
X80680000Y-69000000D01*
D20*
X68055000Y-97640000D02*
X69175000Y-96520000D01*
D21*
X58635000Y-104455000D02*
X56315000Y-106775000D01*
D19*
X88920000Y-72965000D02*
X88920000Y-74012866D01*
D22*
X64277043Y-104605749D02*
X63520749Y-104605749D01*
D23*
X56315000Y-102225000D02*
X55335000Y-101245000D01*
D20*
X67360000Y-97640000D02*
X68055000Y-97640000D01*
D19*
X80680000Y-69000000D02*
X85523529Y-69000000D01*
D20*
X69890000Y-106890000D02*
X70000000Y-107000000D01*
D23*
X65560000Y-104206676D02*
X65560000Y-102830000D01*
X56850000Y-63600000D02*
X56850000Y-63690000D01*
D19*
X88920000Y-72396471D02*
X88920000Y-72965000D01*
D23*
X56850000Y-63690000D02*
X57950000Y-63690000D01*
D20*
X57465000Y-52785000D02*
X55000000Y-55250000D01*
D23*
X56315000Y-102225000D02*
X56315000Y-100616060D01*
X55000000Y-55250000D02*
X55000000Y-52590000D01*
D20*
X67360000Y-97640000D02*
X67360000Y-104360000D01*
D24*
X63165000Y-104250000D02*
X63165000Y-102995431D01*
D23*
X56315000Y-102225000D02*
X56428324Y-102225000D01*
D21*
X58855000Y-104455000D02*
X58635000Y-104455000D01*
D23*
X65560000Y-102830000D02*
X64955000Y-102225000D01*
D22*
X64935000Y-103202208D02*
X64935000Y-103947792D01*
D19*
X81555000Y-52340000D02*
X81555000Y-51550000D01*
X86949277Y-76050723D02*
X86000000Y-77000000D01*
X86000000Y-77000000D02*
X85025000Y-77000000D01*
D23*
X65180000Y-107000000D02*
X64955000Y-106775000D01*
D21*
X58855000Y-103745431D02*
X58855000Y-104455000D01*
D23*
X57010000Y-55871270D02*
X59058730Y-57920000D01*
D19*
X81555000Y-56485000D02*
X81555000Y-52340000D01*
D23*
X63830000Y-101100000D02*
X63830000Y-100075000D01*
D19*
X81470000Y-92630000D02*
X77580000Y-96520000D01*
D24*
X63165000Y-102995431D02*
X63330000Y-102830431D01*
D23*
X59058730Y-57920000D02*
X63925000Y-57920000D01*
X69431325Y-102068675D02*
X68181325Y-100818675D01*
D21*
X63610431Y-102550000D02*
X63330000Y-102830431D01*
D23*
X57010000Y-55285000D02*
X57010000Y-55871270D01*
D20*
X57465000Y-50935000D02*
X57465000Y-52785000D01*
D23*
X56428324Y-102225000D02*
X56603324Y-102050000D01*
D22*
X63205000Y-104290000D02*
X63205000Y-104250000D01*
D23*
X56315000Y-100616060D02*
X56002500Y-100303560D01*
X70000000Y-107000000D02*
X65180000Y-107000000D01*
D19*
X88920000Y-74012866D02*
X86949277Y-75983589D01*
X83900000Y-58970000D02*
X81485000Y-56555000D01*
D23*
X57950000Y-63690000D02*
X59375000Y-65115000D01*
X56105000Y-61750000D02*
X59935000Y-57920000D01*
X64955000Y-106775000D02*
X64938506Y-106791494D01*
X68181325Y-100818675D02*
X67412650Y-100050000D01*
D22*
X63485431Y-102675000D02*
X64407792Y-102675000D01*
D23*
X55000000Y-61750000D02*
X56850000Y-63600000D01*
X67412650Y-104317350D02*
X67412650Y-100050000D01*
X55000000Y-61750000D02*
X56105000Y-61750000D01*
X56315000Y-106775000D02*
X56331494Y-106791494D01*
X64955000Y-106775000D02*
X64770452Y-106590452D01*
D19*
X81485000Y-56555000D02*
X81555000Y-56485000D01*
D21*
X56790000Y-102550000D02*
X57659569Y-102550000D01*
D19*
X81000000Y-74500000D02*
X80650000Y-74150000D01*
X80650000Y-74150000D02*
X80650000Y-69030000D01*
D21*
X56615000Y-102725000D02*
X56790000Y-102550000D01*
D23*
X62975182Y-106791494D02*
X65560000Y-104206676D01*
X55335000Y-101245000D02*
X55335000Y-98055000D01*
X55710000Y-106170000D02*
X55710000Y-102830000D01*
D21*
X64480000Y-102550000D02*
X63610431Y-102550000D01*
D23*
X64955000Y-106775000D02*
X67412650Y-104317350D01*
D19*
X86949277Y-75983589D02*
X86949277Y-76050723D01*
D22*
X63520749Y-104605749D02*
X63205000Y-104290000D01*
D23*
X65630000Y-52440000D02*
X69120000Y-55930000D01*
X62234438Y-106590452D02*
X62033396Y-106791494D01*
X58294818Y-106791494D02*
X55710000Y-104206676D01*
X64938506Y-106791494D02*
X62975182Y-106791494D01*
D21*
X57659569Y-102550000D02*
X58855000Y-103745431D01*
D23*
X59935000Y-57920000D02*
X63925000Y-57920000D01*
X56975000Y-55250000D02*
X57010000Y-55285000D01*
X56315000Y-106775000D02*
X55710000Y-106170000D01*
X55710000Y-104206676D02*
X55710000Y-102830000D01*
X70000000Y-107000000D02*
X70000000Y-102750000D01*
D19*
X77580000Y-96520000D02*
X69175000Y-96520000D01*
X81485000Y-56555000D02*
X70995000Y-56555000D01*
D20*
X67360000Y-104360000D02*
X70000000Y-107000000D01*
D19*
X85025000Y-77000000D02*
X85000000Y-77025000D01*
D23*
X56331494Y-106791494D02*
X62975182Y-106791494D01*
X55000000Y-55250000D02*
X56975000Y-55250000D01*
D22*
X63330000Y-102830431D02*
X63485431Y-102675000D01*
D23*
X70000000Y-102750000D02*
X70000000Y-102637350D01*
D22*
X64935000Y-103947792D02*
X64277043Y-104605749D01*
D23*
X64955000Y-102225000D02*
X63830000Y-101100000D01*
D21*
X64655000Y-102725000D02*
X64480000Y-102550000D01*
D23*
X70000000Y-102637350D02*
X69431325Y-102068675D01*
D19*
X85523529Y-69000000D02*
X88920000Y-72396471D01*
D23*
X54850000Y-52440000D02*
X65630000Y-52440000D01*
X55000000Y-52590000D02*
X54850000Y-52440000D01*
X62033396Y-106791494D02*
X58294818Y-106791494D01*
X64770452Y-106590452D02*
X62234438Y-106590452D01*
D22*
X64407792Y-102675000D02*
X64935000Y-103202208D01*
D19*
%TO.N,+5V*%
X84500000Y-62500000D02*
X73500000Y-73500000D01*
X85125000Y-56500000D02*
X84500000Y-57125000D01*
X84500000Y-57125000D02*
X84500000Y-62500000D01*
X73500000Y-76500000D02*
X67500000Y-82500000D01*
X73500000Y-73500000D02*
X73500000Y-76500000D01*
D20*
%TO.N,+5Vin*%
X62809873Y-96320886D02*
X62385610Y-96320886D01*
X62712386Y-96320886D02*
X62385610Y-96320886D01*
X59385000Y-100181765D02*
X59385000Y-99321496D01*
X63018261Y-96112498D02*
X62809873Y-96320886D01*
X59385000Y-99321496D02*
X62385610Y-96320886D01*
D19*
%TO.N,/D+*%
X61428909Y-98835307D02*
X61427867Y-98834265D01*
X61780380Y-99398909D02*
X61428909Y-99047438D01*
X61710710Y-98197867D02*
X61427867Y-98197867D01*
X62078320Y-104059563D02*
X62080000Y-104057883D01*
X63852269Y-68352178D02*
X63852269Y-96056308D01*
X61447431Y-104690452D02*
X61679195Y-104458688D01*
X62080000Y-104057883D02*
X62080000Y-99486398D01*
X61992511Y-99398909D02*
X61780380Y-99398909D01*
X61679195Y-104458688D02*
X61726849Y-104458688D01*
X63852269Y-96056308D02*
X61710710Y-98197867D01*
X63701228Y-68201137D02*
X63852269Y-68352178D01*
X62078320Y-104107217D02*
X62078320Y-104059563D01*
X61428909Y-99047438D02*
X61428909Y-98835307D01*
X61726849Y-104458688D02*
X62078320Y-104107217D01*
X62080000Y-99486398D02*
X61992511Y-99398909D01*
X61427867Y-98834265D02*
X61427867Y-98197867D01*
%TO.N,/D-*%
X60846389Y-105291494D02*
X61482787Y-105291494D01*
X64302270Y-67600095D02*
X64302270Y-96242705D01*
X61483829Y-105290452D02*
X61695960Y-105290452D01*
X62528300Y-104245981D02*
X62530000Y-104244281D01*
X61482787Y-105291494D02*
X61483829Y-105290452D01*
X62047431Y-104774474D02*
X62528300Y-104293605D01*
X62028909Y-98516066D02*
X62028909Y-98798909D01*
X62528300Y-104293605D02*
X62528300Y-104245981D01*
X62530000Y-99300000D02*
X62028909Y-98798909D01*
X62047431Y-104938981D02*
X62047431Y-104774474D01*
X61695960Y-105290452D02*
X62047431Y-104938981D01*
X64302270Y-96242705D02*
X62028909Y-98516066D01*
X62530000Y-104244281D02*
X62530000Y-99300000D01*
%TO.N,Net-(J1-Pin_2)*%
X53000000Y-58000000D02*
X52000000Y-57000000D01*
X52975000Y-58025000D02*
X53000000Y-58000000D01*
X56200000Y-75500000D02*
X56200000Y-65700000D01*
X52975000Y-62475000D02*
X52975000Y-58025000D01*
X56200000Y-65700000D02*
X52975000Y-62475000D01*
%TO.N,Net-(J1-Pin_1)*%
X57000000Y-75500000D02*
X57000000Y-65934315D01*
X53500000Y-56500000D02*
X52000000Y-55000000D01*
X53500000Y-62434315D02*
X53500000Y-56500000D01*
X57000000Y-65934315D02*
X53500000Y-62434315D01*
%TO.N,/RX*%
X89525000Y-96025000D02*
X89525000Y-93365000D01*
X89525000Y-93365000D02*
X76660000Y-80500000D01*
X90500000Y-97000000D02*
X89525000Y-96025000D01*
X76660000Y-80500000D02*
X76500000Y-80500000D01*
%TO.N,/TX*%
X73500000Y-80500000D02*
X75651471Y-80500000D01*
X89125000Y-93590000D02*
X89125000Y-97625000D01*
X75651471Y-80500000D02*
X76251471Y-81100000D01*
X76251471Y-81100000D02*
X76635000Y-81100000D01*
X76635000Y-81100000D02*
X89125000Y-93590000D01*
X89125000Y-97625000D02*
X90500000Y-99000000D01*
%TO.N,/SDA_{5V}*%
X88751472Y-100182844D02*
X88725000Y-100209316D01*
X78535000Y-83565686D02*
X88725000Y-93755686D01*
X72900000Y-76500000D02*
X72500000Y-76500000D01*
X66900000Y-82900000D02*
X67565686Y-83565686D01*
X88725000Y-99659314D02*
X88751472Y-99685786D01*
X67500000Y-81500000D02*
X66900000Y-82100000D01*
X88725000Y-100209316D02*
X88725000Y-101225000D01*
X88725000Y-101225000D02*
X90500000Y-103000000D01*
X72900000Y-72450000D02*
X72900000Y-76500000D01*
X88751472Y-99685786D02*
X88751472Y-100182844D01*
X88725000Y-93755686D02*
X88725000Y-99659314D01*
X67565686Y-83565686D02*
X78535000Y-83565686D01*
X66900000Y-82100000D02*
X66900000Y-82900000D01*
X81850000Y-63500000D02*
X72900000Y-72450000D01*
X72500000Y-76500000D02*
X67500000Y-81500000D01*
%TO.N,/SCL_{3.3V}*%
X84444320Y-75492370D02*
X81400000Y-78536690D01*
X82000000Y-70350000D02*
X82000000Y-73048050D01*
X88087500Y-72412500D02*
X85007630Y-75492370D01*
X84911120Y-75492370D02*
X84444320Y-75492370D01*
X64000000Y-65300003D02*
X77673275Y-65300003D01*
X82000000Y-73048050D02*
X84444320Y-75492370D01*
X81250000Y-69600000D02*
X82000000Y-70350000D01*
X77673275Y-65300003D02*
X77885421Y-65512149D01*
X81400000Y-78536690D02*
X81400000Y-80000000D01*
X85007630Y-75492370D02*
X84911120Y-75492370D01*
%TO.N,/SDA_{3.3V}*%
X84714191Y-76267754D02*
X84714190Y-76267754D01*
X64000000Y-64500000D02*
X78000000Y-64500000D01*
X84714190Y-76267754D02*
X82000000Y-78981944D01*
X78000000Y-64500000D02*
X78500000Y-65000000D01*
X82000000Y-78981944D02*
X82000000Y-81000000D01*
%TO.N,/SCL_{5V}*%
X88151472Y-93747844D02*
X78403628Y-84000000D01*
X72151471Y-76000000D02*
X72500000Y-76000000D01*
X88151472Y-99934315D02*
X88151472Y-93747844D01*
X66500000Y-81651471D02*
X67475737Y-80675734D01*
X78403628Y-84000000D02*
X67434314Y-84000000D01*
X72500000Y-76000000D02*
X72500000Y-71900000D01*
X72500000Y-71900000D02*
X83900000Y-60500000D01*
X67434314Y-84000000D02*
X66500000Y-83065686D01*
X66500000Y-83065686D02*
X66500000Y-81651471D01*
X67475737Y-80675734D02*
X72151471Y-76000000D01*
%TO.N,Net-(J6-CC2)*%
X57302500Y-99765082D02*
X57302500Y-99117500D01*
X61330000Y-103792582D02*
X57302500Y-99765082D01*
%TD*%
%TA.AperFunction,Conductor*%
%TO.N,GND*%
G36*
X91442539Y-50520185D02*
G01*
X91488294Y-50572989D01*
X91499500Y-50624500D01*
X91499500Y-54008562D01*
X91479815Y-54075601D01*
X91427011Y-54121356D01*
X91357853Y-54131300D01*
X91306610Y-54111665D01*
X91272739Y-54089033D01*
X91272735Y-54089032D01*
X91199677Y-54074500D01*
X91199674Y-54074500D01*
X89800326Y-54074500D01*
X89800323Y-54074500D01*
X89727264Y-54089032D01*
X89727260Y-54089033D01*
X89644399Y-54144399D01*
X89589033Y-54227260D01*
X89589032Y-54227264D01*
X89574500Y-54300321D01*
X89574500Y-55699678D01*
X89589032Y-55772735D01*
X89589033Y-55772739D01*
X89589034Y-55772740D01*
X89644399Y-55855601D01*
X89689807Y-55885941D01*
X89727260Y-55910966D01*
X89727264Y-55910967D01*
X89800321Y-55925499D01*
X89800324Y-55925500D01*
X90054563Y-55925500D01*
X90121602Y-55945185D01*
X90167357Y-55997989D01*
X90177301Y-56067147D01*
X90148276Y-56130703D01*
X90104998Y-56162780D01*
X90034702Y-56194076D01*
X89877305Y-56308433D01*
X89877302Y-56308435D01*
X89747129Y-56453009D01*
X89649857Y-56621488D01*
X89649856Y-56621489D01*
X89589738Y-56806516D01*
X89569402Y-57000000D01*
X89589738Y-57193483D01*
X89649856Y-57378510D01*
X89649857Y-57378511D01*
X89696415Y-57459151D01*
X89747130Y-57546992D01*
X89779183Y-57582590D01*
X89877302Y-57691564D01*
X89877305Y-57691566D01*
X89877308Y-57691569D01*
X89995352Y-57777333D01*
X90034702Y-57805923D01*
X90216178Y-57886720D01*
X90269415Y-57931970D01*
X90289737Y-57998819D01*
X90270692Y-58066043D01*
X90218326Y-58112299D01*
X90216178Y-58113280D01*
X90034702Y-58194076D01*
X89877305Y-58308433D01*
X89877302Y-58308435D01*
X89747129Y-58453009D01*
X89649857Y-58621488D01*
X89649856Y-58621489D01*
X89589738Y-58806516D01*
X89569402Y-59000000D01*
X89589738Y-59193483D01*
X89649856Y-59378510D01*
X89649857Y-59378511D01*
X89696415Y-59459151D01*
X89747130Y-59546992D01*
X89779183Y-59582590D01*
X89877302Y-59691564D01*
X89877305Y-59691566D01*
X89877308Y-59691569D01*
X89995352Y-59777333D01*
X90034702Y-59805923D01*
X90216178Y-59886720D01*
X90269415Y-59931970D01*
X90289737Y-59998819D01*
X90270692Y-60066043D01*
X90218326Y-60112299D01*
X90216178Y-60113280D01*
X90034702Y-60194076D01*
X89877305Y-60308433D01*
X89877302Y-60308435D01*
X89747129Y-60453009D01*
X89649857Y-60621488D01*
X89649856Y-60621489D01*
X89589738Y-60806516D01*
X89569402Y-61000000D01*
X89589738Y-61193483D01*
X89649856Y-61378510D01*
X89649857Y-61378511D01*
X89669361Y-61412292D01*
X89747130Y-61546992D01*
X89779183Y-61582590D01*
X89877302Y-61691564D01*
X89877305Y-61691566D01*
X89877308Y-61691569D01*
X89957734Y-61750002D01*
X90034702Y-61805923D01*
X90216178Y-61886720D01*
X90269415Y-61931970D01*
X90289737Y-61998819D01*
X90270692Y-62066043D01*
X90218326Y-62112299D01*
X90216178Y-62113280D01*
X90034702Y-62194076D01*
X89877305Y-62308433D01*
X89877302Y-62308435D01*
X89747129Y-62453009D01*
X89649857Y-62621488D01*
X89649856Y-62621489D01*
X89589738Y-62806516D01*
X89569402Y-63000000D01*
X89589738Y-63193483D01*
X89649856Y-63378510D01*
X89649857Y-63378511D01*
X89696415Y-63459151D01*
X89747130Y-63546992D01*
X89779183Y-63582590D01*
X89877302Y-63691564D01*
X89877305Y-63691566D01*
X89877308Y-63691569D01*
X89995352Y-63777333D01*
X90034702Y-63805923D01*
X90216178Y-63886720D01*
X90269415Y-63931970D01*
X90289737Y-63998819D01*
X90270692Y-64066043D01*
X90218326Y-64112299D01*
X90216178Y-64113280D01*
X90034702Y-64194076D01*
X89877305Y-64308433D01*
X89877302Y-64308435D01*
X89747129Y-64453009D01*
X89649857Y-64621488D01*
X89649856Y-64621489D01*
X89589738Y-64806516D01*
X89569402Y-65000000D01*
X89589738Y-65193483D01*
X89649856Y-65378510D01*
X89649857Y-65378511D01*
X89687501Y-65443712D01*
X89747130Y-65546992D01*
X89774712Y-65577625D01*
X89877302Y-65691564D01*
X89877305Y-65691566D01*
X89877308Y-65691569D01*
X89995352Y-65777333D01*
X90034702Y-65805923D01*
X90216178Y-65886720D01*
X90269415Y-65931970D01*
X90289737Y-65998819D01*
X90270692Y-66066043D01*
X90218326Y-66112299D01*
X90216178Y-66113280D01*
X90034702Y-66194076D01*
X89877305Y-66308433D01*
X89877302Y-66308435D01*
X89747129Y-66453009D01*
X89649857Y-66621488D01*
X89649856Y-66621489D01*
X89589738Y-66806516D01*
X89569402Y-67000000D01*
X89589738Y-67193483D01*
X89649856Y-67378510D01*
X89649857Y-67378511D01*
X89694819Y-67456387D01*
X89747130Y-67546992D01*
X89779183Y-67582590D01*
X89877302Y-67691564D01*
X89877305Y-67691566D01*
X89877308Y-67691569D01*
X89995352Y-67777333D01*
X90034702Y-67805923D01*
X90216178Y-67886720D01*
X90269415Y-67931970D01*
X90289737Y-67998819D01*
X90270692Y-68066043D01*
X90218326Y-68112299D01*
X90216178Y-68113280D01*
X90034702Y-68194076D01*
X89877305Y-68308433D01*
X89877302Y-68308435D01*
X89747129Y-68453009D01*
X89649857Y-68621488D01*
X89649856Y-68621489D01*
X89589738Y-68806516D01*
X89569402Y-69000000D01*
X89589738Y-69193483D01*
X89649856Y-69378510D01*
X89649857Y-69378511D01*
X89694764Y-69456291D01*
X89747130Y-69546992D01*
X89779183Y-69582590D01*
X89877302Y-69691564D01*
X89877305Y-69691566D01*
X89877308Y-69691569D01*
X89995352Y-69777333D01*
X90034702Y-69805923D01*
X90102926Y-69836297D01*
X90212429Y-69885051D01*
X90402726Y-69925500D01*
X90597274Y-69925500D01*
X90787571Y-69885051D01*
X90965299Y-69805922D01*
X91122692Y-69691569D01*
X91252870Y-69546992D01*
X91268113Y-69520589D01*
X91318679Y-69472375D01*
X91387285Y-69459151D01*
X91452151Y-69485118D01*
X91492680Y-69542032D01*
X91499500Y-69582590D01*
X91499500Y-88008562D01*
X91479815Y-88075601D01*
X91427011Y-88121356D01*
X91357853Y-88131300D01*
X91306610Y-88111665D01*
X91272739Y-88089033D01*
X91272735Y-88089032D01*
X91199677Y-88074500D01*
X91199674Y-88074500D01*
X89800326Y-88074500D01*
X89800323Y-88074500D01*
X89727264Y-88089032D01*
X89727260Y-88089033D01*
X89644399Y-88144399D01*
X89589033Y-88227260D01*
X89589032Y-88227264D01*
X89574500Y-88300321D01*
X89574500Y-89699678D01*
X89589032Y-89772735D01*
X89589033Y-89772739D01*
X89589034Y-89772740D01*
X89644399Y-89855601D01*
X89689807Y-89885941D01*
X89727260Y-89910966D01*
X89727264Y-89910967D01*
X89800321Y-89925499D01*
X89800324Y-89925500D01*
X90054563Y-89925500D01*
X90121602Y-89945185D01*
X90167357Y-89997989D01*
X90177301Y-90067147D01*
X90148276Y-90130703D01*
X90104998Y-90162780D01*
X90034702Y-90194076D01*
X89877305Y-90308433D01*
X89877302Y-90308435D01*
X89747129Y-90453009D01*
X89649857Y-90621488D01*
X89649856Y-90621489D01*
X89589738Y-90806516D01*
X89569402Y-91000000D01*
X89589738Y-91193483D01*
X89649856Y-91378510D01*
X89649857Y-91378511D01*
X89673819Y-91420014D01*
X89747130Y-91546992D01*
X89779183Y-91582590D01*
X89877302Y-91691564D01*
X89877305Y-91691566D01*
X89877308Y-91691569D01*
X89995352Y-91777333D01*
X90034702Y-91805923D01*
X90216178Y-91886720D01*
X90269415Y-91931970D01*
X90289737Y-91998819D01*
X90270692Y-92066043D01*
X90218326Y-92112299D01*
X90216178Y-92113280D01*
X90034702Y-92194076D01*
X89877305Y-92308433D01*
X89877302Y-92308435D01*
X89747129Y-92453009D01*
X89649857Y-92621488D01*
X89649856Y-92621490D01*
X89620990Y-92710333D01*
X89581553Y-92768008D01*
X89517194Y-92795207D01*
X89448348Y-92783293D01*
X89415378Y-92759696D01*
X77068740Y-80413058D01*
X77040135Y-80363512D01*
X77039441Y-80363800D01*
X77037256Y-80358526D01*
X77036645Y-80357467D01*
X77036328Y-80356285D01*
X76986936Y-80237042D01*
X76980861Y-80222375D01*
X76892621Y-80107379D01*
X76777625Y-80019139D01*
X76777624Y-80019138D01*
X76777622Y-80019137D01*
X76643712Y-79963671D01*
X76643710Y-79963670D01*
X76643709Y-79963670D01*
X76571854Y-79954210D01*
X76500001Y-79944750D01*
X76499999Y-79944750D01*
X76356291Y-79963670D01*
X76356287Y-79963671D01*
X76222377Y-80019137D01*
X76164877Y-80063259D01*
X76107379Y-80107379D01*
X76107378Y-80107380D01*
X76107377Y-80107381D01*
X76039500Y-80195839D01*
X75983072Y-80237042D01*
X75913326Y-80241196D01*
X75874200Y-80222763D01*
X75873721Y-80223593D01*
X75786762Y-80173387D01*
X75786758Y-80173385D01*
X75781397Y-80171949D01*
X75781397Y-80171948D01*
X75712947Y-80153608D01*
X75697615Y-80149500D01*
X75697614Y-80149500D01*
X73986092Y-80149500D01*
X73919053Y-80129815D01*
X73899587Y-80111913D01*
X73898372Y-80113129D01*
X73892627Y-80107384D01*
X73892621Y-80107379D01*
X73777625Y-80019139D01*
X73777624Y-80019138D01*
X73777622Y-80019137D01*
X73643712Y-79963671D01*
X73643710Y-79963670D01*
X73643709Y-79963670D01*
X73571854Y-79954210D01*
X73500001Y-79944750D01*
X73499999Y-79944750D01*
X73356291Y-79963670D01*
X73356287Y-79963671D01*
X73222377Y-80019137D01*
X73107379Y-80107379D01*
X73019137Y-80222377D01*
X72963671Y-80356287D01*
X72963670Y-80356291D01*
X72947270Y-80480862D01*
X72944750Y-80500000D01*
X72961567Y-80627739D01*
X72963670Y-80643708D01*
X72963671Y-80643712D01*
X73019137Y-80777622D01*
X73019138Y-80777624D01*
X73019139Y-80777625D01*
X73107379Y-80892621D01*
X73222375Y-80980861D01*
X73356291Y-81036330D01*
X73483280Y-81053048D01*
X73499999Y-81055250D01*
X73500000Y-81055250D01*
X73500001Y-81055250D01*
X73514977Y-81053278D01*
X73643709Y-81036330D01*
X73777625Y-80980861D01*
X73892621Y-80892621D01*
X73892623Y-80892617D01*
X73892627Y-80892615D01*
X73898372Y-80886871D01*
X73900888Y-80889387D01*
X73944183Y-80857797D01*
X73986092Y-80850500D01*
X75454927Y-80850500D01*
X75521966Y-80870185D01*
X75542608Y-80886819D01*
X76036259Y-81380470D01*
X76036261Y-81380471D01*
X76036265Y-81380474D01*
X76079593Y-81405489D01*
X76079595Y-81405490D01*
X76079599Y-81405492D01*
X76116183Y-81426614D01*
X76205327Y-81450500D01*
X76438456Y-81450500D01*
X76505495Y-81470185D01*
X76526137Y-81486819D01*
X78042823Y-83003505D01*
X78076308Y-83064828D01*
X78071324Y-83134520D01*
X78029452Y-83190453D01*
X77963988Y-83214870D01*
X77955142Y-83215186D01*
X67834536Y-83215186D01*
X67767497Y-83195501D01*
X67721742Y-83142697D01*
X67711798Y-83073539D01*
X67740823Y-83009983D01*
X67772537Y-82983798D01*
X67777617Y-82980863D01*
X67777625Y-82980861D01*
X67892621Y-82892621D01*
X67980861Y-82777625D01*
X68036330Y-82643709D01*
X68055250Y-82500000D01*
X68055250Y-82499999D01*
X68055250Y-82491871D01*
X68059013Y-82491871D01*
X68066492Y-82440188D01*
X68091556Y-82404123D01*
X73404122Y-77091557D01*
X73465443Y-77058074D01*
X73491871Y-77057117D01*
X73491871Y-77055250D01*
X73500000Y-77055250D01*
X73643709Y-77036330D01*
X73777625Y-76980861D01*
X73892621Y-76892621D01*
X73980861Y-76777625D01*
X74036330Y-76643709D01*
X74055250Y-76500000D01*
X74036330Y-76356291D01*
X73980861Y-76222375D01*
X73892621Y-76107379D01*
X73892619Y-76107377D01*
X73892615Y-76107372D01*
X73886871Y-76101628D01*
X73889387Y-76099111D01*
X73857797Y-76055817D01*
X73850500Y-76013908D01*
X73850500Y-73696543D01*
X73870185Y-73629504D01*
X73886814Y-73608867D01*
X77895682Y-69599999D01*
X80694750Y-69599999D01*
X80694750Y-69600000D01*
X80713670Y-69743708D01*
X80713671Y-69743712D01*
X80769137Y-69877622D01*
X80769138Y-69877624D01*
X80769139Y-69877625D01*
X80857379Y-69992621D01*
X80972375Y-70080861D01*
X81106291Y-70136330D01*
X81250000Y-70155250D01*
X81258129Y-70155250D01*
X81258129Y-70158828D01*
X81310970Y-70167031D01*
X81345878Y-70191560D01*
X81613181Y-70458863D01*
X81646666Y-70520186D01*
X81649500Y-70546544D01*
X81649500Y-73094193D01*
X81670719Y-73173385D01*
X81673385Y-73183336D01*
X81719529Y-73263260D01*
X81719531Y-73263263D01*
X83860957Y-75404689D01*
X83894442Y-75466012D01*
X83889458Y-75535704D01*
X83860957Y-75580051D01*
X81119531Y-78321476D01*
X81119527Y-78321481D01*
X81073387Y-78401399D01*
X81073386Y-78401402D01*
X81049500Y-78490546D01*
X81049500Y-79513908D01*
X81029815Y-79580947D01*
X81011913Y-79600412D01*
X81013129Y-79601628D01*
X81007384Y-79607372D01*
X80919137Y-79722377D01*
X80863671Y-79856287D01*
X80863670Y-79856291D01*
X80844750Y-79999999D01*
X80844750Y-80000000D01*
X80863670Y-80143708D01*
X80863671Y-80143712D01*
X80919137Y-80277622D01*
X80919138Y-80277624D01*
X80919139Y-80277625D01*
X81007379Y-80392621D01*
X81122375Y-80480861D01*
X81122376Y-80480861D01*
X81122377Y-80480862D01*
X81167013Y-80499350D01*
X81256291Y-80536330D01*
X81383280Y-80553048D01*
X81399999Y-80555250D01*
X81402785Y-80555250D01*
X81405049Y-80555914D01*
X81408058Y-80556311D01*
X81407996Y-80556780D01*
X81469824Y-80574935D01*
X81515579Y-80627739D01*
X81525523Y-80696897D01*
X81517346Y-80726702D01*
X81463671Y-80856287D01*
X81463670Y-80856291D01*
X81444750Y-80999999D01*
X81444750Y-81000000D01*
X81463670Y-81143708D01*
X81463671Y-81143712D01*
X81519137Y-81277622D01*
X81519138Y-81277624D01*
X81519139Y-81277625D01*
X81607379Y-81392621D01*
X81722375Y-81480861D01*
X81856291Y-81536330D01*
X81983280Y-81553048D01*
X81999999Y-81555250D01*
X82000000Y-81555250D01*
X82000001Y-81555250D01*
X82014977Y-81553278D01*
X82143709Y-81536330D01*
X82277625Y-81480861D01*
X82392621Y-81392621D01*
X82480861Y-81277625D01*
X82536330Y-81143709D01*
X82555250Y-81000000D01*
X82536330Y-80856291D01*
X82480861Y-80722375D01*
X82392621Y-80607379D01*
X82392619Y-80607377D01*
X82392615Y-80607372D01*
X82386871Y-80601628D01*
X82389387Y-80599111D01*
X82357797Y-80555817D01*
X82350500Y-80513908D01*
X82350500Y-79178486D01*
X82370185Y-79111447D01*
X82386814Y-79090810D01*
X84618312Y-76859311D01*
X84679633Y-76825828D01*
X84706062Y-76824845D01*
X84706062Y-76823004D01*
X84714191Y-76823004D01*
X84857900Y-76804084D01*
X84991816Y-76748615D01*
X85106812Y-76660375D01*
X85195052Y-76545379D01*
X85250521Y-76411463D01*
X85269441Y-76267754D01*
X85250521Y-76124045D01*
X85224629Y-76061536D01*
X85217161Y-75992071D01*
X85248436Y-75929591D01*
X85263698Y-75915716D01*
X85303741Y-75884991D01*
X85391981Y-75769995D01*
X85447450Y-75636079D01*
X85455274Y-75576642D01*
X85483540Y-75512748D01*
X85490520Y-75505160D01*
X87991623Y-73004057D01*
X88052944Y-72970574D01*
X88079371Y-72969644D01*
X88079371Y-72967750D01*
X88087500Y-72967750D01*
X88231209Y-72948830D01*
X88365125Y-72893361D01*
X88480121Y-72805121D01*
X88568361Y-72690125D01*
X88623830Y-72556209D01*
X88642750Y-72412500D01*
X88623830Y-72268791D01*
X88568361Y-72134875D01*
X88480121Y-72019879D01*
X88365125Y-71931639D01*
X88365124Y-71931638D01*
X88365122Y-71931637D01*
X88231212Y-71876171D01*
X88231210Y-71876170D01*
X88231209Y-71876170D01*
X88159354Y-71866710D01*
X88087501Y-71857250D01*
X88087499Y-71857250D01*
X87943791Y-71876170D01*
X87943787Y-71876171D01*
X87809877Y-71931637D01*
X87694879Y-72019879D01*
X87606637Y-72134877D01*
X87551171Y-72268787D01*
X87551170Y-72268791D01*
X87532250Y-72412500D01*
X87532250Y-72420628D01*
X87528956Y-72420628D01*
X87519692Y-72475088D01*
X87495939Y-72508377D01*
X85092279Y-74912037D01*
X85030956Y-74945522D01*
X84988414Y-74947295D01*
X84911123Y-74937120D01*
X84911119Y-74937120D01*
X84767411Y-74956040D01*
X84767407Y-74956041D01*
X84633495Y-75011508D01*
X84621111Y-75021011D01*
X84555941Y-75046203D01*
X84487497Y-75032163D01*
X84457946Y-75010314D01*
X82386819Y-72939187D01*
X82353334Y-72877864D01*
X82350500Y-72851506D01*
X82350500Y-70303858D01*
X82350500Y-70303856D01*
X82326614Y-70214712D01*
X82299085Y-70167031D01*
X82280472Y-70134791D01*
X82280468Y-70134786D01*
X81841560Y-69695878D01*
X81808075Y-69634555D01*
X81806983Y-69608129D01*
X81805250Y-69608129D01*
X81805250Y-69600000D01*
X81794795Y-69520591D01*
X81786330Y-69456291D01*
X81730861Y-69322375D01*
X81642621Y-69207379D01*
X81527625Y-69119139D01*
X81527624Y-69119138D01*
X81527622Y-69119137D01*
X81393712Y-69063671D01*
X81393710Y-69063670D01*
X81393709Y-69063670D01*
X81321854Y-69054210D01*
X81250001Y-69044750D01*
X81249999Y-69044750D01*
X81106291Y-69063670D01*
X81106287Y-69063671D01*
X80972377Y-69119137D01*
X80857379Y-69207379D01*
X80769137Y-69322377D01*
X80713671Y-69456287D01*
X80713670Y-69456291D01*
X80694750Y-69599999D01*
X77895682Y-69599999D01*
X84404123Y-63091557D01*
X84465444Y-63058074D01*
X84491871Y-63057144D01*
X84491871Y-63055250D01*
X84500000Y-63055250D01*
X84643709Y-63036330D01*
X84777625Y-62980861D01*
X84892621Y-62892621D01*
X84980861Y-62777625D01*
X85036330Y-62643709D01*
X85055250Y-62500000D01*
X85036330Y-62356291D01*
X84980861Y-62222375D01*
X84892621Y-62107379D01*
X84892619Y-62107377D01*
X84892615Y-62107372D01*
X84886871Y-62101628D01*
X84889387Y-62099111D01*
X84857797Y-62055817D01*
X84850500Y-62013908D01*
X84850500Y-57321543D01*
X84870185Y-57254504D01*
X84886810Y-57233871D01*
X85029124Y-57091556D01*
X85090443Y-57058074D01*
X85116871Y-57057144D01*
X85116871Y-57055250D01*
X85125000Y-57055250D01*
X85268709Y-57036330D01*
X85402625Y-56980861D01*
X85517621Y-56892621D01*
X85605861Y-56777625D01*
X85661330Y-56643709D01*
X85680250Y-56500000D01*
X85661330Y-56356291D01*
X85605861Y-56222375D01*
X85517621Y-56107379D01*
X85402625Y-56019139D01*
X85402624Y-56019138D01*
X85402622Y-56019137D01*
X85268712Y-55963671D01*
X85268710Y-55963670D01*
X85268709Y-55963670D01*
X85196854Y-55954210D01*
X85125001Y-55944750D01*
X85124999Y-55944750D01*
X84981291Y-55963670D01*
X84981287Y-55963671D01*
X84847377Y-56019137D01*
X84732379Y-56107379D01*
X84644137Y-56222377D01*
X84588671Y-56356287D01*
X84588670Y-56356291D01*
X84569750Y-56500000D01*
X84569750Y-56508128D01*
X84566456Y-56508128D01*
X84557192Y-56562588D01*
X84533440Y-56595877D01*
X84351696Y-56777622D01*
X84219530Y-56909788D01*
X84178496Y-56980861D01*
X84175638Y-56985810D01*
X84173386Y-56989711D01*
X84173386Y-56989712D01*
X84149500Y-57078856D01*
X84149500Y-59836202D01*
X84129815Y-59903241D01*
X84077011Y-59948996D01*
X84009315Y-59959141D01*
X83900002Y-59944750D01*
X83899999Y-59944750D01*
X83756291Y-59963670D01*
X83756287Y-59963671D01*
X83622377Y-60019137D01*
X83507379Y-60107379D01*
X83419137Y-60222377D01*
X83363671Y-60356287D01*
X83363670Y-60356291D01*
X83344750Y-60500000D01*
X83344750Y-60508128D01*
X83341456Y-60508128D01*
X83332192Y-60562588D01*
X83308439Y-60595877D01*
X79168146Y-64736170D01*
X79106823Y-64769655D01*
X79037131Y-64764671D01*
X78982090Y-64723976D01*
X78903447Y-64621488D01*
X78892621Y-64607379D01*
X78777625Y-64519139D01*
X78777624Y-64519138D01*
X78777622Y-64519137D01*
X78643712Y-64463671D01*
X78643710Y-64463670D01*
X78643709Y-64463670D01*
X78552638Y-64451680D01*
X78500001Y-64444750D01*
X78491873Y-64444750D01*
X78491873Y-64441243D01*
X78438613Y-64432772D01*
X78404122Y-64408440D01*
X78215213Y-64219531D01*
X78215208Y-64219527D01*
X78135291Y-64173387D01*
X78135287Y-64173385D01*
X78129926Y-64171949D01*
X78129926Y-64171948D01*
X78061476Y-64153608D01*
X78046144Y-64149500D01*
X78046143Y-64149500D01*
X64486092Y-64149500D01*
X64419053Y-64129815D01*
X64399587Y-64111913D01*
X64398372Y-64113129D01*
X64392627Y-64107384D01*
X64392621Y-64107379D01*
X64277625Y-64019139D01*
X64277624Y-64019138D01*
X64277622Y-64019137D01*
X64143712Y-63963671D01*
X64143710Y-63963670D01*
X64143709Y-63963670D01*
X64071854Y-63954210D01*
X64000001Y-63944750D01*
X63999999Y-63944750D01*
X63856291Y-63963670D01*
X63856287Y-63963671D01*
X63722377Y-64019137D01*
X63607379Y-64107379D01*
X63519137Y-64222377D01*
X63463671Y-64356287D01*
X63463670Y-64356291D01*
X63451112Y-64451680D01*
X63444750Y-64500000D01*
X63460744Y-64621488D01*
X63463670Y-64643708D01*
X63463671Y-64643712D01*
X63519137Y-64777622D01*
X63519138Y-64777624D01*
X63519139Y-64777625D01*
X63555119Y-64824515D01*
X63580313Y-64889684D01*
X63566275Y-64958128D01*
X63555119Y-64975487D01*
X63519139Y-65022377D01*
X63519138Y-65022379D01*
X63463671Y-65156290D01*
X63463670Y-65156294D01*
X63444750Y-65300002D01*
X63444750Y-65300003D01*
X63463670Y-65443711D01*
X63463671Y-65443715D01*
X63519137Y-65577625D01*
X63519138Y-65577627D01*
X63519139Y-65577628D01*
X63607379Y-65692624D01*
X63722375Y-65780864D01*
X63856291Y-65836333D01*
X63983280Y-65853051D01*
X63999999Y-65855253D01*
X64000000Y-65855253D01*
X64000001Y-65855253D01*
X64014977Y-65853281D01*
X64143709Y-65836333D01*
X64277625Y-65780864D01*
X64392621Y-65692624D01*
X64392623Y-65692620D01*
X64392627Y-65692618D01*
X64398372Y-65686874D01*
X64400888Y-65689390D01*
X64444183Y-65657800D01*
X64486092Y-65650503D01*
X77264018Y-65650503D01*
X77331057Y-65670188D01*
X77376812Y-65722992D01*
X77378579Y-65727050D01*
X77404560Y-65789774D01*
X77492800Y-65904770D01*
X77607796Y-65993010D01*
X77621820Y-65998819D01*
X77650957Y-66010888D01*
X77705361Y-66054729D01*
X77727426Y-66121023D01*
X77710147Y-66188722D01*
X77691186Y-66213130D01*
X72219531Y-71684786D01*
X72219527Y-71684791D01*
X72173387Y-71764709D01*
X72173386Y-71764712D01*
X72149500Y-71853856D01*
X72149500Y-75542515D01*
X72129815Y-75609554D01*
X72077011Y-75655309D01*
X72057595Y-75662289D01*
X72016184Y-75673385D01*
X72016183Y-75673385D01*
X71936258Y-75719531D01*
X71936255Y-75719533D01*
X67571614Y-80084173D01*
X67510291Y-80117658D01*
X67483865Y-80118942D01*
X67483865Y-80120484D01*
X67475737Y-80120484D01*
X67332028Y-80139404D01*
X67332024Y-80139405D01*
X67198114Y-80194871D01*
X67083116Y-80283113D01*
X66994874Y-80398111D01*
X66939408Y-80532021D01*
X66939407Y-80532025D01*
X66920487Y-80675734D01*
X66920487Y-80683862D01*
X66917193Y-80683862D01*
X66907929Y-80738322D01*
X66884176Y-80771611D01*
X66219532Y-81436256D01*
X66219528Y-81436262D01*
X66182729Y-81499999D01*
X66182729Y-81500000D01*
X66173386Y-81516183D01*
X66173385Y-81516186D01*
X66149500Y-81605327D01*
X66149500Y-83111829D01*
X66167877Y-83180414D01*
X66167893Y-83180471D01*
X66173386Y-83200975D01*
X66219527Y-83280894D01*
X66219529Y-83280897D01*
X66219530Y-83280898D01*
X67219102Y-84280470D01*
X67299026Y-84326614D01*
X67388170Y-84350500D01*
X67388171Y-84350500D01*
X67480458Y-84350500D01*
X78207084Y-84350500D01*
X78274123Y-84370185D01*
X78294765Y-84386819D01*
X87764653Y-93856707D01*
X87798138Y-93918030D01*
X87800972Y-93944388D01*
X87800972Y-99448223D01*
X87781287Y-99515262D01*
X87763385Y-99534727D01*
X87764601Y-99535943D01*
X87758856Y-99541687D01*
X87670609Y-99656692D01*
X87615143Y-99790602D01*
X87615142Y-99790606D01*
X87597383Y-99925500D01*
X87596222Y-99934315D01*
X87609879Y-100038052D01*
X87615142Y-100078023D01*
X87615143Y-100078027D01*
X87670609Y-100211937D01*
X87670610Y-100211939D01*
X87670611Y-100211940D01*
X87758851Y-100326936D01*
X87873847Y-100415176D01*
X88007763Y-100470645D01*
X88134752Y-100487363D01*
X88151471Y-100489565D01*
X88151472Y-100489565D01*
X88151473Y-100489565D01*
X88170507Y-100487058D01*
X88234315Y-100478658D01*
X88303349Y-100489423D01*
X88355605Y-100535803D01*
X88374500Y-100601597D01*
X88374500Y-101271144D01*
X88384409Y-101308122D01*
X88384410Y-101308128D01*
X88398384Y-101360284D01*
X88398385Y-101360286D01*
X88398386Y-101360288D01*
X88406829Y-101374912D01*
X88444527Y-101440208D01*
X88444531Y-101440213D01*
X89590228Y-102585910D01*
X89623713Y-102647233D01*
X89620478Y-102711908D01*
X89589740Y-102806511D01*
X89589738Y-102806516D01*
X89569402Y-103000000D01*
X89589738Y-103193483D01*
X89649856Y-103378510D01*
X89649857Y-103378511D01*
X89667417Y-103408925D01*
X89747130Y-103546992D01*
X89779183Y-103582590D01*
X89877302Y-103691564D01*
X89877305Y-103691566D01*
X89877308Y-103691569D01*
X89995352Y-103777333D01*
X90034702Y-103805923D01*
X90102926Y-103836297D01*
X90212429Y-103885051D01*
X90402726Y-103925500D01*
X90597274Y-103925500D01*
X90787571Y-103885051D01*
X90965299Y-103805922D01*
X91122692Y-103691569D01*
X91252870Y-103546992D01*
X91268113Y-103520589D01*
X91318679Y-103472375D01*
X91387285Y-103459151D01*
X91452151Y-103485118D01*
X91492680Y-103542032D01*
X91499500Y-103582590D01*
X91499500Y-108875500D01*
X91479815Y-108942539D01*
X91427011Y-108988294D01*
X91375500Y-108999500D01*
X50624500Y-108999500D01*
X50557461Y-108979815D01*
X50511706Y-108927011D01*
X50500500Y-108875500D01*
X50500500Y-105577155D01*
X55315000Y-105577155D01*
X55315000Y-106525000D01*
X56015000Y-106525000D01*
X56015000Y-107025000D01*
X55315000Y-107025000D01*
X55315000Y-107972844D01*
X55321401Y-108032372D01*
X55321403Y-108032379D01*
X55371645Y-108167086D01*
X55371649Y-108167093D01*
X55457809Y-108282187D01*
X55457812Y-108282190D01*
X55572906Y-108368350D01*
X55572913Y-108368354D01*
X55707620Y-108418596D01*
X55707627Y-108418598D01*
X55767155Y-108424999D01*
X55767172Y-108425000D01*
X56065000Y-108425000D01*
X56065000Y-107591988D01*
X56074940Y-107609205D01*
X56130795Y-107665060D01*
X56199204Y-107704556D01*
X56275504Y-107725000D01*
X56354496Y-107725000D01*
X56430796Y-107704556D01*
X56499205Y-107665060D01*
X56555060Y-107609205D01*
X56565000Y-107591988D01*
X56565000Y-108425000D01*
X56862828Y-108425000D01*
X56862844Y-108424999D01*
X56922372Y-108418598D01*
X56922379Y-108418596D01*
X57057086Y-108368354D01*
X57057093Y-108368350D01*
X57172187Y-108282190D01*
X57172190Y-108282187D01*
X57258350Y-108167093D01*
X57258354Y-108167086D01*
X57308596Y-108032379D01*
X57308598Y-108032372D01*
X57314999Y-107972844D01*
X57315000Y-107972827D01*
X57315000Y-107025000D01*
X56615000Y-107025000D01*
X56615000Y-106525000D01*
X57315000Y-106525000D01*
X57315000Y-105577172D01*
X57314999Y-105577155D01*
X57308598Y-105517627D01*
X57308596Y-105517620D01*
X57258354Y-105382913D01*
X57258350Y-105382906D01*
X57172190Y-105267812D01*
X57172187Y-105267809D01*
X57057093Y-105181649D01*
X57057086Y-105181645D01*
X56922379Y-105131403D01*
X56922372Y-105131401D01*
X56862844Y-105125000D01*
X56565000Y-105125000D01*
X56565000Y-105958011D01*
X56555060Y-105940795D01*
X56499205Y-105884940D01*
X56430796Y-105845444D01*
X56354496Y-105825000D01*
X56275504Y-105825000D01*
X56199204Y-105845444D01*
X56130795Y-105884940D01*
X56074940Y-105940795D01*
X56065000Y-105958011D01*
X56065000Y-105125000D01*
X55767155Y-105125000D01*
X55707627Y-105131401D01*
X55707620Y-105131403D01*
X55572913Y-105181645D01*
X55572906Y-105181649D01*
X55457812Y-105267809D01*
X55457809Y-105267812D01*
X55371649Y-105382906D01*
X55371645Y-105382913D01*
X55321403Y-105517620D01*
X55321401Y-105517627D01*
X55315000Y-105577155D01*
X50500500Y-105577155D01*
X50500500Y-103582590D01*
X50520185Y-103515551D01*
X50572989Y-103469796D01*
X50642147Y-103459852D01*
X50705703Y-103488877D01*
X50731886Y-103520588D01*
X50744266Y-103542032D01*
X50747130Y-103546992D01*
X50877302Y-103691564D01*
X50877305Y-103691566D01*
X50877308Y-103691569D01*
X50995352Y-103777333D01*
X51034702Y-103805923D01*
X51102926Y-103836297D01*
X51212429Y-103885051D01*
X51402726Y-103925500D01*
X51597274Y-103925500D01*
X51787571Y-103885051D01*
X51965299Y-103805922D01*
X52122692Y-103691569D01*
X52252870Y-103546992D01*
X52350144Y-103378508D01*
X52384476Y-103272844D01*
X55315000Y-103272844D01*
X55321401Y-103332372D01*
X55321403Y-103332379D01*
X55371645Y-103467086D01*
X55371649Y-103467093D01*
X55457809Y-103582187D01*
X55457812Y-103582190D01*
X55572906Y-103668350D01*
X55572913Y-103668354D01*
X55707620Y-103718596D01*
X55707627Y-103718598D01*
X55767155Y-103724999D01*
X55767172Y-103725000D01*
X56065000Y-103725000D01*
X56065000Y-102975000D01*
X55315000Y-102975000D01*
X55315000Y-103272844D01*
X52384476Y-103272844D01*
X52410262Y-103193482D01*
X52430598Y-103000000D01*
X52410262Y-102806518D01*
X52350144Y-102621492D01*
X52350143Y-102621491D01*
X52350143Y-102621489D01*
X52350142Y-102621488D01*
X52303554Y-102540795D01*
X52252870Y-102453008D01*
X52201882Y-102396381D01*
X52122697Y-102308435D01*
X52122694Y-102308433D01*
X52122693Y-102308432D01*
X52122692Y-102308431D01*
X51965299Y-102194078D01*
X51787571Y-102114949D01*
X51787568Y-102114948D01*
X51783821Y-102113280D01*
X51730584Y-102068030D01*
X51710262Y-102001181D01*
X51729307Y-101933957D01*
X51781672Y-101887701D01*
X51783821Y-101886720D01*
X51787568Y-101885051D01*
X51787571Y-101885051D01*
X51965299Y-101805922D01*
X52122692Y-101691569D01*
X52252870Y-101546992D01*
X52350144Y-101378508D01*
X52410262Y-101193482D01*
X52411978Y-101177155D01*
X55315000Y-101177155D01*
X55315000Y-101975000D01*
X56015000Y-101975000D01*
X56015000Y-102685504D01*
X56015000Y-102764496D01*
X56035444Y-102840796D01*
X56074940Y-102909205D01*
X56130795Y-102965060D01*
X56199204Y-103004556D01*
X56275504Y-103025000D01*
X56865000Y-103025000D01*
X56865000Y-103150468D01*
X56845315Y-103217507D01*
X56828681Y-103238149D01*
X56814496Y-103252333D01*
X56814492Y-103252338D01*
X56745313Y-103372161D01*
X56745312Y-103372164D01*
X56709500Y-103505817D01*
X56709500Y-103644183D01*
X56731155Y-103724999D01*
X56745312Y-103777835D01*
X56745313Y-103777838D01*
X56814492Y-103897661D01*
X56814494Y-103897664D01*
X56814495Y-103897665D01*
X56912335Y-103995505D01*
X57032164Y-104064688D01*
X57165817Y-104100500D01*
X57165819Y-104100500D01*
X57304181Y-104100500D01*
X57304183Y-104100500D01*
X57437836Y-104064688D01*
X57557665Y-103995505D01*
X57655505Y-103897665D01*
X57724688Y-103777836D01*
X57760500Y-103644183D01*
X57760500Y-103639075D01*
X57780185Y-103572036D01*
X57785234Y-103564764D01*
X57858350Y-103467093D01*
X57858354Y-103467086D01*
X57908596Y-103332379D01*
X57908598Y-103332372D01*
X57914999Y-103272844D01*
X57915000Y-103272827D01*
X57915000Y-102975000D01*
X57081988Y-102975000D01*
X57099205Y-102965060D01*
X57155060Y-102909205D01*
X57194556Y-102840796D01*
X57215000Y-102764496D01*
X57215000Y-102685504D01*
X57194556Y-102609204D01*
X57155060Y-102540795D01*
X57099205Y-102484940D01*
X57081988Y-102475000D01*
X57915000Y-102475000D01*
X57915000Y-102177172D01*
X57914999Y-102177155D01*
X57908598Y-102117627D01*
X57908596Y-102117620D01*
X57858354Y-101982913D01*
X57858350Y-101982906D01*
X57772190Y-101867812D01*
X57772187Y-101867809D01*
X57657093Y-101781649D01*
X57657086Y-101781645D01*
X57522379Y-101731403D01*
X57522372Y-101731401D01*
X57462844Y-101725000D01*
X57439000Y-101725000D01*
X57371961Y-101705315D01*
X57326206Y-101652511D01*
X57315000Y-101601000D01*
X57315000Y-101177172D01*
X57314999Y-101177155D01*
X57308598Y-101117627D01*
X57308596Y-101117620D01*
X57258354Y-100982913D01*
X57258350Y-100982906D01*
X57172190Y-100867812D01*
X57172187Y-100867809D01*
X57057093Y-100781649D01*
X57057086Y-100781645D01*
X56922379Y-100731403D01*
X56922372Y-100731401D01*
X56862844Y-100725000D01*
X56565000Y-100725000D01*
X56565000Y-101558011D01*
X56555060Y-101540795D01*
X56499205Y-101484940D01*
X56430796Y-101445444D01*
X56354496Y-101425000D01*
X56275504Y-101425000D01*
X56199204Y-101445444D01*
X56130795Y-101484940D01*
X56074940Y-101540795D01*
X56065000Y-101558011D01*
X56065000Y-100725000D01*
X55767155Y-100725000D01*
X55707627Y-100731401D01*
X55707620Y-100731403D01*
X55572913Y-100781645D01*
X55572906Y-100781649D01*
X55457812Y-100867809D01*
X55457809Y-100867812D01*
X55371649Y-100982906D01*
X55371645Y-100982913D01*
X55321403Y-101117620D01*
X55321401Y-101117627D01*
X55315000Y-101177155D01*
X52411978Y-101177155D01*
X52430598Y-101000000D01*
X52410262Y-100806518D01*
X52350144Y-100621492D01*
X52350143Y-100621491D01*
X52350143Y-100621489D01*
X52350142Y-100621488D01*
X52303584Y-100540848D01*
X52252870Y-100453008D01*
X52201882Y-100396381D01*
X52122697Y-100308435D01*
X52122694Y-100308433D01*
X52122693Y-100308432D01*
X52122692Y-100308431D01*
X51965299Y-100194078D01*
X51787571Y-100114949D01*
X51787568Y-100114948D01*
X51783821Y-100113280D01*
X51730584Y-100068030D01*
X51710262Y-100001181D01*
X51729307Y-99933957D01*
X51781672Y-99887701D01*
X51783821Y-99886720D01*
X51787568Y-99885051D01*
X51787571Y-99885051D01*
X51965299Y-99805922D01*
X52122692Y-99691569D01*
X52252870Y-99546992D01*
X52350144Y-99378508D01*
X52410262Y-99193482D01*
X52418248Y-99117499D01*
X56747250Y-99117499D01*
X56747250Y-99117500D01*
X56766170Y-99261208D01*
X56766171Y-99261212D01*
X56821638Y-99395123D01*
X56821639Y-99395125D01*
X56909880Y-99510123D01*
X56915626Y-99515869D01*
X56913074Y-99518420D01*
X56944591Y-99561373D01*
X56952000Y-99603592D01*
X56952000Y-99811226D01*
X56951999Y-99811226D01*
X56958878Y-99836893D01*
X56958879Y-99836898D01*
X56975884Y-99900367D01*
X56975885Y-99900368D01*
X57022027Y-99980290D01*
X57022031Y-99980295D01*
X60738440Y-103696704D01*
X60771925Y-103758027D01*
X60773067Y-103784455D01*
X60774750Y-103784455D01*
X60774750Y-103792582D01*
X60793670Y-103936290D01*
X60793671Y-103936294D01*
X60849137Y-104070204D01*
X60849138Y-104070206D01*
X60849139Y-104070207D01*
X60937379Y-104185203D01*
X60967311Y-104208171D01*
X61008512Y-104264597D01*
X61012667Y-104334343D01*
X60990201Y-104382029D01*
X60966569Y-104412827D01*
X60966569Y-104412828D01*
X60911102Y-104546739D01*
X60911101Y-104546744D01*
X60899273Y-104636583D01*
X60871006Y-104700479D01*
X60812681Y-104738950D01*
X60792520Y-104743336D01*
X60749671Y-104748977D01*
X60702680Y-104755164D01*
X60702679Y-104755164D01*
X60702676Y-104755165D01*
X60568766Y-104810631D01*
X60453768Y-104898873D01*
X60365526Y-105013871D01*
X60310060Y-105147781D01*
X60310059Y-105147785D01*
X60291139Y-105291493D01*
X60291139Y-105291494D01*
X60310059Y-105435202D01*
X60310060Y-105435206D01*
X60365526Y-105569116D01*
X60365527Y-105569118D01*
X60365528Y-105569119D01*
X60453768Y-105684115D01*
X60568764Y-105772355D01*
X60568765Y-105772355D01*
X60568766Y-105772356D01*
X60613402Y-105790844D01*
X60702680Y-105827824D01*
X60829669Y-105844542D01*
X60846388Y-105846744D01*
X60846389Y-105846744D01*
X60846390Y-105846744D01*
X60861366Y-105844772D01*
X60990098Y-105827824D01*
X61124014Y-105772355D01*
X61239010Y-105684115D01*
X61239012Y-105684111D01*
X61239016Y-105684109D01*
X61244761Y-105678365D01*
X61247277Y-105680881D01*
X61290572Y-105649291D01*
X61332481Y-105641994D01*
X61529069Y-105641994D01*
X61544975Y-105640952D01*
X61742102Y-105640952D01*
X61742104Y-105640952D01*
X61831248Y-105617066D01*
X61911172Y-105570922D01*
X61954939Y-105527155D01*
X63905000Y-105527155D01*
X63905000Y-106525000D01*
X64605000Y-106525000D01*
X64605000Y-107025000D01*
X63905000Y-107025000D01*
X63905000Y-108022844D01*
X63911401Y-108082372D01*
X63911403Y-108082379D01*
X63961645Y-108217086D01*
X63961649Y-108217093D01*
X64047809Y-108332187D01*
X64047812Y-108332190D01*
X64162906Y-108418350D01*
X64162913Y-108418354D01*
X64297620Y-108468596D01*
X64297627Y-108468598D01*
X64357155Y-108474999D01*
X64357172Y-108475000D01*
X64705000Y-108475000D01*
X64705000Y-107669975D01*
X64740095Y-107705070D01*
X64819905Y-107751148D01*
X64908922Y-107775000D01*
X65001078Y-107775000D01*
X65090095Y-107751148D01*
X65169905Y-107705070D01*
X65205000Y-107669975D01*
X65205000Y-108475000D01*
X65552828Y-108475000D01*
X65552844Y-108474999D01*
X65612372Y-108468598D01*
X65612379Y-108468596D01*
X65747086Y-108418354D01*
X65747093Y-108418350D01*
X65862187Y-108332190D01*
X65862190Y-108332187D01*
X65948350Y-108217093D01*
X65948354Y-108217086D01*
X65998596Y-108082379D01*
X65998598Y-108082372D01*
X66004999Y-108022844D01*
X66005000Y-108022827D01*
X66005000Y-107025000D01*
X65305000Y-107025000D01*
X65305000Y-106749999D01*
X68849494Y-106749999D01*
X68849495Y-106750000D01*
X69684314Y-106750000D01*
X69679920Y-106754394D01*
X69627259Y-106845606D01*
X69600000Y-106947339D01*
X69600000Y-107052661D01*
X69627259Y-107154394D01*
X69679920Y-107245606D01*
X69684314Y-107250000D01*
X68849495Y-107250000D01*
X68899651Y-107426280D01*
X68996715Y-107621208D01*
X69127945Y-107794985D01*
X69288868Y-107941685D01*
X69474012Y-108056322D01*
X69474023Y-108056327D01*
X69677060Y-108134984D01*
X69750000Y-108148619D01*
X69750000Y-107315686D01*
X69754394Y-107320080D01*
X69845606Y-107372741D01*
X69947339Y-107400000D01*
X70052661Y-107400000D01*
X70154394Y-107372741D01*
X70245606Y-107320080D01*
X70250000Y-107315686D01*
X70250000Y-108148619D01*
X70322939Y-108134984D01*
X70525976Y-108056327D01*
X70525987Y-108056322D01*
X70711130Y-107941685D01*
X70711131Y-107941685D01*
X70872055Y-107794984D01*
X70889926Y-107771320D01*
X70946034Y-107729683D01*
X71015746Y-107724990D01*
X71076929Y-107758732D01*
X71091983Y-107777155D01*
X71144397Y-107855599D01*
X71144398Y-107855599D01*
X71144399Y-107855601D01*
X71227260Y-107910966D01*
X71227264Y-107910967D01*
X71300321Y-107925499D01*
X71300324Y-107925500D01*
X71300326Y-107925500D01*
X72699676Y-107925500D01*
X72699677Y-107925499D01*
X72772740Y-107910966D01*
X72855601Y-107855601D01*
X72910966Y-107772740D01*
X72925500Y-107699674D01*
X72925500Y-106300326D01*
X72925500Y-106300323D01*
X72925499Y-106300321D01*
X72910967Y-106227264D01*
X72910966Y-106227260D01*
X72896102Y-106205014D01*
X72855601Y-106144399D01*
X72772740Y-106089034D01*
X72772739Y-106089033D01*
X72772735Y-106089032D01*
X72699677Y-106074500D01*
X72699674Y-106074500D01*
X71300326Y-106074500D01*
X71300323Y-106074500D01*
X71227264Y-106089032D01*
X71227260Y-106089033D01*
X71144398Y-106144399D01*
X71091983Y-106222845D01*
X71038371Y-106267650D01*
X70969046Y-106276357D01*
X70906018Y-106246202D01*
X70889927Y-106228681D01*
X70872054Y-106205014D01*
X70711131Y-106058314D01*
X70525987Y-105943677D01*
X70525985Y-105943676D01*
X70322931Y-105865013D01*
X70322921Y-105865010D01*
X70250001Y-105851378D01*
X70250000Y-105851379D01*
X70250000Y-106684314D01*
X70245606Y-106679920D01*
X70154394Y-106627259D01*
X70052661Y-106600000D01*
X69947339Y-106600000D01*
X69845606Y-106627259D01*
X69754394Y-106679920D01*
X69750000Y-106684314D01*
X69750000Y-105851379D01*
X69749998Y-105851378D01*
X69677078Y-105865010D01*
X69677068Y-105865013D01*
X69474014Y-105943676D01*
X69474012Y-105943677D01*
X69288869Y-106058314D01*
X69288868Y-106058314D01*
X69127945Y-106205014D01*
X68996715Y-106378791D01*
X68899651Y-106573719D01*
X68849494Y-106749999D01*
X65305000Y-106749999D01*
X65305000Y-106525000D01*
X66005000Y-106525000D01*
X66005000Y-105527172D01*
X66004999Y-105527155D01*
X65998598Y-105467627D01*
X65998596Y-105467620D01*
X65948354Y-105332913D01*
X65948350Y-105332906D01*
X65862190Y-105217812D01*
X65862187Y-105217809D01*
X65747093Y-105131649D01*
X65747086Y-105131645D01*
X65612379Y-105081403D01*
X65612372Y-105081401D01*
X65552844Y-105075000D01*
X65205000Y-105075000D01*
X65205000Y-105880025D01*
X65169905Y-105844930D01*
X65090095Y-105798852D01*
X65001078Y-105775000D01*
X64908922Y-105775000D01*
X64819905Y-105798852D01*
X64740095Y-105844930D01*
X64705000Y-105880025D01*
X64705000Y-105075000D01*
X64357155Y-105075000D01*
X64297627Y-105081401D01*
X64297620Y-105081403D01*
X64162913Y-105131645D01*
X64162906Y-105131649D01*
X64047812Y-105217809D01*
X64047809Y-105217812D01*
X63961649Y-105332906D01*
X63961645Y-105332913D01*
X63911403Y-105467620D01*
X63911401Y-105467627D01*
X63905000Y-105527155D01*
X61954939Y-105527155D01*
X62327901Y-105154193D01*
X62374045Y-105074269D01*
X62379703Y-105053152D01*
X62397931Y-104985125D01*
X62397931Y-104971018D01*
X62417616Y-104903979D01*
X62434250Y-104883337D01*
X62617108Y-104700479D01*
X62808769Y-104508818D01*
X62854914Y-104428893D01*
X62859960Y-104410062D01*
X62878800Y-104339749D01*
X62878800Y-104311464D01*
X62879861Y-104295277D01*
X62880500Y-104290423D01*
X62880500Y-102177155D01*
X63355000Y-102177155D01*
X63355000Y-102475000D01*
X64188012Y-102475000D01*
X64170795Y-102484940D01*
X64114940Y-102540795D01*
X64075444Y-102609204D01*
X64055000Y-102685504D01*
X64055000Y-102764496D01*
X64075444Y-102840796D01*
X64114940Y-102909205D01*
X64170795Y-102965060D01*
X64188012Y-102975000D01*
X63355000Y-102975000D01*
X63355000Y-103272844D01*
X63361401Y-103332372D01*
X63361403Y-103332379D01*
X63411645Y-103467086D01*
X63411649Y-103467093D01*
X63484766Y-103564764D01*
X63509184Y-103630228D01*
X63509500Y-103639075D01*
X63509500Y-103644183D01*
X63531155Y-103724999D01*
X63545312Y-103777835D01*
X63545313Y-103777838D01*
X63614492Y-103897661D01*
X63614494Y-103897664D01*
X63614495Y-103897665D01*
X63712335Y-103995505D01*
X63832164Y-104064688D01*
X63965817Y-104100500D01*
X63965819Y-104100500D01*
X64104181Y-104100500D01*
X64104183Y-104100500D01*
X64237836Y-104064688D01*
X64357665Y-103995505D01*
X64455505Y-103897665D01*
X64524688Y-103777836D01*
X64538845Y-103725000D01*
X65205000Y-103725000D01*
X65502828Y-103725000D01*
X65502844Y-103724999D01*
X65562372Y-103718598D01*
X65562379Y-103718596D01*
X65697086Y-103668354D01*
X65697093Y-103668350D01*
X65812187Y-103582190D01*
X65812190Y-103582187D01*
X65898350Y-103467093D01*
X65898354Y-103467086D01*
X65948596Y-103332379D01*
X65948598Y-103332372D01*
X65954999Y-103272844D01*
X65955000Y-103272827D01*
X65955000Y-102975000D01*
X65205000Y-102975000D01*
X65205000Y-103725000D01*
X64538845Y-103725000D01*
X64560500Y-103644183D01*
X64560500Y-103505817D01*
X64524688Y-103372164D01*
X64467336Y-103272827D01*
X64455507Y-103252338D01*
X64455503Y-103252333D01*
X64441319Y-103238149D01*
X64407834Y-103176826D01*
X64405000Y-103150468D01*
X64405000Y-103025000D01*
X64915504Y-103025000D01*
X64994496Y-103025000D01*
X65070796Y-103004556D01*
X65139205Y-102965060D01*
X65195060Y-102909205D01*
X65234556Y-102840796D01*
X65255000Y-102764496D01*
X65255000Y-101975000D01*
X65955000Y-101975000D01*
X65955000Y-101177172D01*
X65954999Y-101177155D01*
X65948598Y-101117627D01*
X65948596Y-101117620D01*
X65898354Y-100982913D01*
X65898350Y-100982906D01*
X65812190Y-100867812D01*
X65812187Y-100867809D01*
X65697093Y-100781649D01*
X65697086Y-100781645D01*
X65562379Y-100731403D01*
X65562372Y-100731401D01*
X65502844Y-100725000D01*
X65205000Y-100725000D01*
X65205000Y-101558011D01*
X65195060Y-101540795D01*
X65139205Y-101484940D01*
X65070796Y-101445444D01*
X64994496Y-101425000D01*
X64915504Y-101425000D01*
X64839204Y-101445444D01*
X64770795Y-101484940D01*
X64714940Y-101540795D01*
X64705000Y-101558011D01*
X64705000Y-100725000D01*
X64407155Y-100725000D01*
X64347627Y-100731401D01*
X64347620Y-100731403D01*
X64212913Y-100781645D01*
X64212906Y-100781649D01*
X64097812Y-100867809D01*
X64097809Y-100867812D01*
X64011649Y-100982906D01*
X64011645Y-100982913D01*
X63961403Y-101117620D01*
X63961401Y-101117627D01*
X63955000Y-101177155D01*
X63955000Y-101601000D01*
X63935315Y-101668039D01*
X63882511Y-101713794D01*
X63831000Y-101725000D01*
X63807155Y-101725000D01*
X63747627Y-101731401D01*
X63747620Y-101731403D01*
X63612913Y-101781645D01*
X63612906Y-101781649D01*
X63497812Y-101867809D01*
X63497809Y-101867812D01*
X63411649Y-101982906D01*
X63411645Y-101982913D01*
X63361403Y-102117620D01*
X63361401Y-102117627D01*
X63355000Y-102177155D01*
X62880500Y-102177155D01*
X62880500Y-99253858D01*
X62880500Y-99253856D01*
X62856614Y-99164712D01*
X62833988Y-99125523D01*
X62810470Y-99084788D01*
X62620469Y-98894787D01*
X62586984Y-98833464D01*
X62585892Y-98807038D01*
X62584159Y-98807038D01*
X62584159Y-98798909D01*
X62565239Y-98655200D01*
X62544287Y-98604618D01*
X62536819Y-98535152D01*
X62568094Y-98472672D01*
X62571139Y-98469516D01*
X64582740Y-96457917D01*
X64628884Y-96377993D01*
X64628885Y-96377990D01*
X64635952Y-96351616D01*
X64635952Y-96351615D01*
X64638885Y-96340664D01*
X64652770Y-96288849D01*
X64652770Y-91964999D01*
X74804494Y-91964999D01*
X74804495Y-91965000D01*
X75639314Y-91965000D01*
X75634920Y-91969394D01*
X75582259Y-92060606D01*
X75555000Y-92162339D01*
X75555000Y-92267661D01*
X75582259Y-92369394D01*
X75634920Y-92460606D01*
X75639314Y-92465000D01*
X74804495Y-92465000D01*
X74854651Y-92641280D01*
X74951715Y-92836208D01*
X75082945Y-93009985D01*
X75243868Y-93156685D01*
X75429012Y-93271322D01*
X75429023Y-93271327D01*
X75632060Y-93349984D01*
X75705000Y-93363619D01*
X75705000Y-92530686D01*
X75709394Y-92535080D01*
X75800606Y-92587741D01*
X75902339Y-92615000D01*
X76007661Y-92615000D01*
X76109394Y-92587741D01*
X76200606Y-92535080D01*
X76205000Y-92530686D01*
X76205000Y-93363619D01*
X76277939Y-93349984D01*
X76480976Y-93271327D01*
X76480987Y-93271322D01*
X76666130Y-93156685D01*
X76666131Y-93156685D01*
X76827054Y-93009985D01*
X76958284Y-92836208D01*
X77055348Y-92641280D01*
X77105505Y-92465000D01*
X76270686Y-92465000D01*
X76275080Y-92460606D01*
X76327741Y-92369394D01*
X76355000Y-92267661D01*
X76355000Y-92162339D01*
X76327741Y-92060606D01*
X76275080Y-91969394D01*
X76270686Y-91965000D01*
X77105505Y-91965000D01*
X77105505Y-91964999D01*
X77055348Y-91788719D01*
X76958284Y-91593791D01*
X76827054Y-91420014D01*
X76666131Y-91273314D01*
X76502851Y-91172215D01*
X76456216Y-91120187D01*
X76445112Y-91051205D01*
X76473065Y-90987171D01*
X76495233Y-90966478D01*
X76577692Y-90906569D01*
X76707870Y-90761992D01*
X76805144Y-90593508D01*
X76865262Y-90408482D01*
X76885598Y-90215000D01*
X76865262Y-90021518D01*
X76805144Y-89836492D01*
X76805143Y-89836491D01*
X76805143Y-89836489D01*
X76805142Y-89836488D01*
X76768334Y-89772735D01*
X76707870Y-89668008D01*
X76656882Y-89611381D01*
X76577697Y-89523435D01*
X76577694Y-89523433D01*
X76577693Y-89523432D01*
X76577692Y-89523431D01*
X76420299Y-89409078D01*
X76242571Y-89329949D01*
X76242568Y-89329948D01*
X76238821Y-89328280D01*
X76185584Y-89283030D01*
X76165262Y-89216181D01*
X76184307Y-89148957D01*
X76236672Y-89102701D01*
X76238821Y-89101720D01*
X76242568Y-89100051D01*
X76242571Y-89100051D01*
X76420299Y-89020922D01*
X76577692Y-88906569D01*
X76707870Y-88761992D01*
X76805144Y-88593508D01*
X76865262Y-88408482D01*
X76885598Y-88215000D01*
X76865262Y-88021518D01*
X76805144Y-87836492D01*
X76805143Y-87836491D01*
X76805143Y-87836489D01*
X76805142Y-87836488D01*
X76771202Y-87777703D01*
X76707870Y-87668008D01*
X76656882Y-87611381D01*
X76577697Y-87523435D01*
X76577694Y-87523433D01*
X76577693Y-87523432D01*
X76577692Y-87523431D01*
X76498995Y-87466254D01*
X76420297Y-87409076D01*
X76350002Y-87377780D01*
X76296765Y-87332530D01*
X76276443Y-87265681D01*
X76295488Y-87198457D01*
X76347853Y-87152201D01*
X76400437Y-87140500D01*
X76654676Y-87140500D01*
X76654677Y-87140499D01*
X76727740Y-87125966D01*
X76810601Y-87070601D01*
X76865966Y-86987740D01*
X76880500Y-86914674D01*
X76880500Y-85515326D01*
X76880500Y-85515323D01*
X76880499Y-85515321D01*
X76865967Y-85442264D01*
X76865966Y-85442260D01*
X76810601Y-85359399D01*
X76727740Y-85304034D01*
X76727739Y-85304033D01*
X76727735Y-85304032D01*
X76654677Y-85289500D01*
X76654674Y-85289500D01*
X75255326Y-85289500D01*
X75255323Y-85289500D01*
X75182264Y-85304032D01*
X75182260Y-85304033D01*
X75099399Y-85359399D01*
X75044033Y-85442260D01*
X75044032Y-85442264D01*
X75029500Y-85515321D01*
X75029500Y-86914678D01*
X75044032Y-86987735D01*
X75044033Y-86987739D01*
X75044034Y-86987740D01*
X75099399Y-87070601D01*
X75182260Y-87125966D01*
X75182264Y-87125967D01*
X75255321Y-87140499D01*
X75255324Y-87140500D01*
X75509563Y-87140500D01*
X75576602Y-87160185D01*
X75622357Y-87212989D01*
X75632301Y-87282147D01*
X75603276Y-87345703D01*
X75559998Y-87377780D01*
X75489702Y-87409076D01*
X75332305Y-87523433D01*
X75332302Y-87523435D01*
X75202129Y-87668009D01*
X75104857Y-87836488D01*
X75104856Y-87836489D01*
X75044738Y-88021516D01*
X75024402Y-88215000D01*
X75044738Y-88408483D01*
X75104856Y-88593510D01*
X75104857Y-88593511D01*
X75185159Y-88732597D01*
X75202130Y-88761992D01*
X75247476Y-88812354D01*
X75332302Y-88906564D01*
X75332305Y-88906566D01*
X75332308Y-88906569D01*
X75450352Y-88992333D01*
X75489702Y-89020923D01*
X75671178Y-89101720D01*
X75724415Y-89146970D01*
X75744737Y-89213819D01*
X75725692Y-89281043D01*
X75673326Y-89327299D01*
X75671178Y-89328280D01*
X75489702Y-89409076D01*
X75332305Y-89523433D01*
X75332302Y-89523435D01*
X75202129Y-89668009D01*
X75104857Y-89836488D01*
X75104856Y-89836489D01*
X75044738Y-90021516D01*
X75024402Y-90215000D01*
X75044738Y-90408483D01*
X75104856Y-90593510D01*
X75104857Y-90593511D01*
X75185159Y-90732597D01*
X75202130Y-90761992D01*
X75247476Y-90812354D01*
X75332302Y-90906564D01*
X75332306Y-90906566D01*
X75332308Y-90906569D01*
X75414755Y-90966470D01*
X75457421Y-91021799D01*
X75463400Y-91091413D01*
X75430795Y-91153208D01*
X75407148Y-91172215D01*
X75243869Y-91273314D01*
X75243868Y-91273314D01*
X75082945Y-91420014D01*
X74951715Y-91593791D01*
X74854651Y-91788719D01*
X74804494Y-91964999D01*
X64652770Y-91964999D01*
X64652770Y-68086187D01*
X64672455Y-68019148D01*
X64690384Y-67999704D01*
X64689144Y-67998464D01*
X64694889Y-67992718D01*
X64694891Y-67992716D01*
X64783131Y-67877720D01*
X64838600Y-67743804D01*
X64857520Y-67600095D01*
X64838600Y-67456386D01*
X64783131Y-67322470D01*
X64694891Y-67207474D01*
X64579895Y-67119234D01*
X64579894Y-67119233D01*
X64579892Y-67119232D01*
X64445982Y-67063766D01*
X64445980Y-67063765D01*
X64445979Y-67063765D01*
X64374124Y-67054305D01*
X64302271Y-67044845D01*
X64302269Y-67044845D01*
X64158561Y-67063765D01*
X64158557Y-67063766D01*
X64024647Y-67119232D01*
X63909649Y-67207474D01*
X63821407Y-67322472D01*
X63765941Y-67456382D01*
X63765940Y-67456387D01*
X63754112Y-67546226D01*
X63725845Y-67610122D01*
X63667520Y-67648593D01*
X63647359Y-67652979D01*
X63604510Y-67658620D01*
X63557519Y-67664807D01*
X63557518Y-67664807D01*
X63557515Y-67664808D01*
X63423605Y-67720274D01*
X63308607Y-67808516D01*
X63220365Y-67923514D01*
X63164899Y-68057424D01*
X63164898Y-68057428D01*
X63145978Y-68201136D01*
X63145978Y-68201137D01*
X63164898Y-68344845D01*
X63164899Y-68344849D01*
X63220365Y-68478759D01*
X63220366Y-68478761D01*
X63220367Y-68478762D01*
X63308607Y-68593758D01*
X63423603Y-68681998D01*
X63425223Y-68682669D01*
X63426379Y-68683600D01*
X63430638Y-68686059D01*
X63430254Y-68686723D01*
X63479624Y-68726508D01*
X63501690Y-68792802D01*
X63501769Y-68797229D01*
X63501769Y-95601194D01*
X63482084Y-95668233D01*
X63429280Y-95713988D01*
X63360122Y-95723932D01*
X63310730Y-95705510D01*
X63228311Y-95652543D01*
X63090224Y-95611998D01*
X63090222Y-95611998D01*
X62946300Y-95611998D01*
X62946297Y-95611998D01*
X62808210Y-95652543D01*
X62687134Y-95730354D01*
X62592884Y-95839124D01*
X62592882Y-95839127D01*
X62588876Y-95847900D01*
X62543120Y-95900703D01*
X62476083Y-95920386D01*
X62332883Y-95920386D01*
X62231023Y-95947679D01*
X62231022Y-95947679D01*
X62231020Y-95947680D01*
X62231017Y-95947681D01*
X62192292Y-95970040D01*
X62192291Y-95970041D01*
X62165994Y-95985223D01*
X62139698Y-96000405D01*
X62139695Y-96000407D01*
X59064522Y-99075580D01*
X59064520Y-99075583D01*
X59011792Y-99166908D01*
X59011792Y-99166909D01*
X59006728Y-99185805D01*
X59006729Y-99185806D01*
X58984500Y-99268767D01*
X58984500Y-99757318D01*
X58964815Y-99824357D01*
X58958876Y-99832804D01*
X58904139Y-99904139D01*
X58904138Y-99904141D01*
X58848671Y-100038052D01*
X58848670Y-100038056D01*
X58838896Y-100112299D01*
X58829750Y-100181765D01*
X58847703Y-100318132D01*
X58848670Y-100325473D01*
X58848671Y-100325477D01*
X58904137Y-100459387D01*
X58904138Y-100459389D01*
X58904139Y-100459390D01*
X58992379Y-100574386D01*
X59107375Y-100662626D01*
X59241291Y-100718095D01*
X59368280Y-100734813D01*
X59384999Y-100737015D01*
X59385000Y-100737015D01*
X59385001Y-100737015D01*
X59399977Y-100735043D01*
X59528709Y-100718095D01*
X59662625Y-100662626D01*
X59777621Y-100574386D01*
X59865861Y-100459390D01*
X59921330Y-100325474D01*
X59940250Y-100181765D01*
X59921330Y-100038056D01*
X59865861Y-99904140D01*
X59852494Y-99886720D01*
X59811124Y-99832804D01*
X59785930Y-99767634D01*
X59785500Y-99757318D01*
X59785500Y-99538750D01*
X59805185Y-99471711D01*
X59821814Y-99451073D01*
X60782068Y-98490819D01*
X60843391Y-98457335D01*
X60913083Y-98462319D01*
X60968125Y-98503015D01*
X61035247Y-98590490D01*
X61040993Y-98596236D01*
X61038441Y-98598787D01*
X61069958Y-98641740D01*
X61077367Y-98683959D01*
X61077367Y-98880560D01*
X61078409Y-98896449D01*
X61078409Y-99093583D01*
X61097467Y-99164710D01*
X61102294Y-99182724D01*
X61102296Y-99182729D01*
X61148436Y-99262646D01*
X61148438Y-99262649D01*
X61148439Y-99262650D01*
X61565168Y-99679379D01*
X61565169Y-99679380D01*
X61565171Y-99679381D01*
X61638983Y-99721996D01*
X61645092Y-99725523D01*
X61645094Y-99725523D01*
X61652604Y-99728635D01*
X61651270Y-99731853D01*
X61697243Y-99759867D01*
X61727780Y-99822710D01*
X61729500Y-99843289D01*
X61729500Y-103176624D01*
X61709815Y-103243663D01*
X61657011Y-103289418D01*
X61587853Y-103299362D01*
X61558049Y-103291186D01*
X61513725Y-103272827D01*
X61473709Y-103256252D01*
X61378088Y-103243663D01*
X61330001Y-103237332D01*
X61321873Y-103237332D01*
X61321873Y-103233825D01*
X61268613Y-103225354D01*
X61234122Y-103201022D01*
X57706064Y-99672964D01*
X57672579Y-99611641D01*
X57677563Y-99541949D01*
X57695370Y-99509796D01*
X57714307Y-99485118D01*
X57783361Y-99395125D01*
X57838830Y-99261209D01*
X57857750Y-99117500D01*
X57838830Y-98973791D01*
X57783361Y-98839875D01*
X57695121Y-98724879D01*
X57580125Y-98636639D01*
X57580124Y-98636638D01*
X57580122Y-98636637D01*
X57446212Y-98581171D01*
X57446210Y-98581170D01*
X57446209Y-98581170D01*
X57374354Y-98571710D01*
X57302501Y-98562250D01*
X57302499Y-98562250D01*
X57158791Y-98581170D01*
X57158787Y-98581171D01*
X57024877Y-98636637D01*
X56909879Y-98724879D01*
X56821637Y-98839877D01*
X56766171Y-98973787D01*
X56766170Y-98973791D01*
X56747250Y-99117499D01*
X52418248Y-99117499D01*
X52430598Y-99000000D01*
X52410262Y-98806518D01*
X52350144Y-98621492D01*
X52350143Y-98621491D01*
X52350143Y-98621489D01*
X52350142Y-98621488D01*
X52303584Y-98540848D01*
X52252870Y-98453008D01*
X52177861Y-98369702D01*
X52122697Y-98308435D01*
X52122694Y-98308433D01*
X52122693Y-98308432D01*
X52122692Y-98308431D01*
X51965299Y-98194078D01*
X51787571Y-98114949D01*
X51787568Y-98114948D01*
X51783821Y-98113280D01*
X51730584Y-98068030D01*
X51710262Y-98001181D01*
X51729307Y-97933957D01*
X51781672Y-97887701D01*
X51783821Y-97886720D01*
X51787568Y-97885051D01*
X51787571Y-97885051D01*
X51965299Y-97805922D01*
X52122692Y-97691569D01*
X52252870Y-97546992D01*
X52350144Y-97378508D01*
X52410262Y-97193482D01*
X52430598Y-97000000D01*
X52410262Y-96806518D01*
X52350144Y-96621492D01*
X52350143Y-96621491D01*
X52350143Y-96621489D01*
X52350142Y-96621488D01*
X52303584Y-96540848D01*
X52252870Y-96453008D01*
X52185326Y-96377993D01*
X52122697Y-96308435D01*
X52122694Y-96308433D01*
X52122693Y-96308432D01*
X52122692Y-96308431D01*
X51965299Y-96194078D01*
X51787571Y-96114949D01*
X51787568Y-96114948D01*
X51783821Y-96113280D01*
X51730584Y-96068030D01*
X51710262Y-96001181D01*
X51729307Y-95933957D01*
X51781672Y-95887701D01*
X51783821Y-95886720D01*
X51787568Y-95885051D01*
X51787571Y-95885051D01*
X51965299Y-95805922D01*
X52122692Y-95691569D01*
X52252870Y-95546992D01*
X52350144Y-95378508D01*
X52410262Y-95193482D01*
X52430598Y-95000000D01*
X52410262Y-94806518D01*
X52350144Y-94621492D01*
X52350143Y-94621491D01*
X52350143Y-94621489D01*
X52350142Y-94621488D01*
X52303584Y-94540848D01*
X52252870Y-94453008D01*
X52201882Y-94396381D01*
X52122697Y-94308435D01*
X52122694Y-94308433D01*
X52122693Y-94308432D01*
X52122692Y-94308431D01*
X51965299Y-94194078D01*
X51787571Y-94114949D01*
X51787568Y-94114948D01*
X51783821Y-94113280D01*
X51730584Y-94068030D01*
X51710262Y-94001181D01*
X51729307Y-93933957D01*
X51781672Y-93887701D01*
X51783821Y-93886720D01*
X51787568Y-93885051D01*
X51787571Y-93885051D01*
X51965299Y-93805922D01*
X52122692Y-93691569D01*
X52252870Y-93546992D01*
X52350144Y-93378508D01*
X52410262Y-93193482D01*
X52430598Y-93000000D01*
X52410262Y-92806518D01*
X52350144Y-92621492D01*
X52350143Y-92621490D01*
X52350143Y-92621489D01*
X52350142Y-92621488D01*
X52303584Y-92540848D01*
X52252870Y-92453008D01*
X52201882Y-92396381D01*
X52122697Y-92308435D01*
X52122694Y-92308433D01*
X52122693Y-92308432D01*
X52122692Y-92308431D01*
X51965299Y-92194078D01*
X51787571Y-92114949D01*
X51787568Y-92114948D01*
X51783821Y-92113280D01*
X51730584Y-92068030D01*
X51710262Y-92001181D01*
X51729307Y-91933957D01*
X51781672Y-91887701D01*
X51783821Y-91886720D01*
X51787568Y-91885051D01*
X51787571Y-91885051D01*
X51965299Y-91805922D01*
X52122692Y-91691569D01*
X52252870Y-91546992D01*
X52350144Y-91378508D01*
X52410262Y-91193482D01*
X52430598Y-91000000D01*
X52410262Y-90806518D01*
X52350144Y-90621492D01*
X52350143Y-90621491D01*
X52350143Y-90621489D01*
X52350142Y-90621488D01*
X52303584Y-90540848D01*
X52252870Y-90453008D01*
X52201882Y-90396381D01*
X52122697Y-90308435D01*
X52122694Y-90308433D01*
X52122693Y-90308432D01*
X52122692Y-90308431D01*
X51994096Y-90215000D01*
X51965297Y-90194076D01*
X51895002Y-90162780D01*
X51841765Y-90117530D01*
X51821443Y-90050681D01*
X51840488Y-89983457D01*
X51892853Y-89937201D01*
X51945437Y-89925500D01*
X52199676Y-89925500D01*
X52199677Y-89925499D01*
X52272740Y-89910966D01*
X52355601Y-89855601D01*
X52410966Y-89772740D01*
X52425500Y-89699674D01*
X52425500Y-88300326D01*
X52425500Y-88300323D01*
X52425499Y-88300321D01*
X52410967Y-88227264D01*
X52410966Y-88227260D01*
X52402774Y-88215000D01*
X52355601Y-88144399D01*
X52272740Y-88089034D01*
X52272739Y-88089033D01*
X52272735Y-88089032D01*
X52199677Y-88074500D01*
X52199674Y-88074500D01*
X50800326Y-88074500D01*
X50800323Y-88074500D01*
X50727264Y-88089032D01*
X50727260Y-88089033D01*
X50693390Y-88111665D01*
X50626712Y-88132542D01*
X50559332Y-88114057D01*
X50512643Y-88062078D01*
X50500500Y-88008562D01*
X50500500Y-57000000D01*
X51069402Y-57000000D01*
X51089738Y-57193483D01*
X51149856Y-57378510D01*
X51149857Y-57378511D01*
X51196415Y-57459151D01*
X51247130Y-57546992D01*
X51279183Y-57582590D01*
X51377302Y-57691564D01*
X51377305Y-57691566D01*
X51377308Y-57691569D01*
X51495352Y-57777333D01*
X51534702Y-57805923D01*
X51716178Y-57886720D01*
X51769415Y-57931970D01*
X51789737Y-57998819D01*
X51770692Y-58066043D01*
X51718326Y-58112299D01*
X51716178Y-58113280D01*
X51534702Y-58194076D01*
X51377305Y-58308433D01*
X51377302Y-58308435D01*
X51247129Y-58453009D01*
X51149857Y-58621488D01*
X51149856Y-58621489D01*
X51089738Y-58806516D01*
X51069402Y-59000000D01*
X51089738Y-59193483D01*
X51149856Y-59378510D01*
X51149857Y-59378511D01*
X51196415Y-59459151D01*
X51247130Y-59546992D01*
X51279183Y-59582590D01*
X51377302Y-59691564D01*
X51377305Y-59691566D01*
X51377308Y-59691569D01*
X51495352Y-59777333D01*
X51534702Y-59805923D01*
X51716178Y-59886720D01*
X51769415Y-59931970D01*
X51789737Y-59998819D01*
X51770692Y-60066043D01*
X51718326Y-60112299D01*
X51716178Y-60113280D01*
X51534702Y-60194076D01*
X51377305Y-60308433D01*
X51377302Y-60308435D01*
X51247129Y-60453009D01*
X51149857Y-60621488D01*
X51149856Y-60621489D01*
X51089738Y-60806516D01*
X51069402Y-61000000D01*
X51089738Y-61193483D01*
X51149856Y-61378510D01*
X51149857Y-61378511D01*
X51169361Y-61412292D01*
X51247130Y-61546992D01*
X51279183Y-61582590D01*
X51377302Y-61691564D01*
X51377305Y-61691566D01*
X51377308Y-61691569D01*
X51457734Y-61750002D01*
X51534702Y-61805923D01*
X51716178Y-61886720D01*
X51769415Y-61931970D01*
X51789737Y-61998819D01*
X51770692Y-62066043D01*
X51718326Y-62112299D01*
X51716178Y-62113280D01*
X51534702Y-62194076D01*
X51377305Y-62308433D01*
X51377302Y-62308435D01*
X51247129Y-62453009D01*
X51149857Y-62621488D01*
X51149856Y-62621489D01*
X51089738Y-62806516D01*
X51069402Y-63000000D01*
X51089738Y-63193483D01*
X51149856Y-63378510D01*
X51149857Y-63378511D01*
X51196415Y-63459151D01*
X51247130Y-63546992D01*
X51279183Y-63582590D01*
X51377302Y-63691564D01*
X51377305Y-63691566D01*
X51377308Y-63691569D01*
X51495352Y-63777333D01*
X51534702Y-63805923D01*
X51716178Y-63886720D01*
X51769415Y-63931970D01*
X51789737Y-63998819D01*
X51770692Y-64066043D01*
X51718326Y-64112299D01*
X51716178Y-64113280D01*
X51534702Y-64194076D01*
X51377305Y-64308433D01*
X51377302Y-64308435D01*
X51247129Y-64453009D01*
X51149857Y-64621488D01*
X51149856Y-64621489D01*
X51089738Y-64806516D01*
X51069402Y-65000000D01*
X51089738Y-65193483D01*
X51149856Y-65378510D01*
X51149857Y-65378511D01*
X51187501Y-65443712D01*
X51247130Y-65546992D01*
X51274712Y-65577625D01*
X51377302Y-65691564D01*
X51377305Y-65691566D01*
X51377308Y-65691569D01*
X51495352Y-65777333D01*
X51534702Y-65805923D01*
X51716178Y-65886720D01*
X51769415Y-65931970D01*
X51789737Y-65998819D01*
X51770692Y-66066043D01*
X51718326Y-66112299D01*
X51716178Y-66113280D01*
X51534702Y-66194076D01*
X51377305Y-66308433D01*
X51377302Y-66308435D01*
X51247129Y-66453009D01*
X51149857Y-66621488D01*
X51149856Y-66621489D01*
X51089738Y-66806516D01*
X51069402Y-67000000D01*
X51089738Y-67193483D01*
X51149856Y-67378510D01*
X51149857Y-67378511D01*
X51194819Y-67456387D01*
X51247130Y-67546992D01*
X51279183Y-67582590D01*
X51377302Y-67691564D01*
X51377305Y-67691566D01*
X51377308Y-67691569D01*
X51495352Y-67777333D01*
X51534702Y-67805923D01*
X51716178Y-67886720D01*
X51769415Y-67931970D01*
X51789737Y-67998819D01*
X51770692Y-68066043D01*
X51718326Y-68112299D01*
X51716178Y-68113280D01*
X51534702Y-68194076D01*
X51377305Y-68308433D01*
X51377302Y-68308435D01*
X51247129Y-68453009D01*
X51149857Y-68621488D01*
X51149856Y-68621489D01*
X51089738Y-68806516D01*
X51069402Y-69000000D01*
X51089738Y-69193483D01*
X51149856Y-69378510D01*
X51149857Y-69378511D01*
X51194764Y-69456291D01*
X51247130Y-69546992D01*
X51279183Y-69582590D01*
X51377302Y-69691564D01*
X51377305Y-69691566D01*
X51377308Y-69691569D01*
X51495352Y-69777333D01*
X51534702Y-69805923D01*
X51602926Y-69836297D01*
X51712429Y-69885051D01*
X51902726Y-69925500D01*
X52097274Y-69925500D01*
X52287571Y-69885051D01*
X52465299Y-69805922D01*
X52622692Y-69691569D01*
X52752870Y-69546992D01*
X52850144Y-69378508D01*
X52910262Y-69193482D01*
X52930598Y-69000000D01*
X52910262Y-68806518D01*
X52850144Y-68621492D01*
X52850143Y-68621491D01*
X52850143Y-68621489D01*
X52850142Y-68621488D01*
X52816202Y-68562703D01*
X52752870Y-68453008D01*
X52701882Y-68396381D01*
X52622697Y-68308435D01*
X52622694Y-68308433D01*
X52622693Y-68308432D01*
X52622692Y-68308431D01*
X52465299Y-68194078D01*
X52287571Y-68114949D01*
X52287568Y-68114948D01*
X52283821Y-68113280D01*
X52230584Y-68068030D01*
X52210262Y-68001181D01*
X52229307Y-67933957D01*
X52281672Y-67887701D01*
X52283821Y-67886720D01*
X52287568Y-67885051D01*
X52287571Y-67885051D01*
X52465299Y-67805922D01*
X52622692Y-67691569D01*
X52752870Y-67546992D01*
X52850144Y-67378508D01*
X52910262Y-67193482D01*
X52930598Y-67000000D01*
X52910262Y-66806518D01*
X52850144Y-66621492D01*
X52850143Y-66621491D01*
X52850143Y-66621489D01*
X52850142Y-66621488D01*
X52816202Y-66562703D01*
X52752870Y-66453008D01*
X52701882Y-66396381D01*
X52622697Y-66308435D01*
X52622694Y-66308433D01*
X52622693Y-66308432D01*
X52622692Y-66308431D01*
X52465299Y-66194078D01*
X52287571Y-66114949D01*
X52287568Y-66114948D01*
X52283821Y-66113280D01*
X52230584Y-66068030D01*
X52210262Y-66001181D01*
X52229307Y-65933957D01*
X52281672Y-65887701D01*
X52283821Y-65886720D01*
X52287568Y-65885051D01*
X52287571Y-65885051D01*
X52465299Y-65805922D01*
X52622692Y-65691569D01*
X52626920Y-65686874D01*
X52659668Y-65650503D01*
X52752870Y-65546992D01*
X52850144Y-65378508D01*
X52910262Y-65193482D01*
X52930598Y-65000000D01*
X52910262Y-64806518D01*
X52850144Y-64621492D01*
X52850143Y-64621491D01*
X52850143Y-64621489D01*
X52850142Y-64621488D01*
X52816202Y-64562703D01*
X52752870Y-64453008D01*
X52701882Y-64396381D01*
X52622697Y-64308435D01*
X52622694Y-64308433D01*
X52622693Y-64308432D01*
X52622692Y-64308431D01*
X52465299Y-64194078D01*
X52287571Y-64114949D01*
X52287568Y-64114948D01*
X52283821Y-64113280D01*
X52230584Y-64068030D01*
X52210262Y-64001181D01*
X52229307Y-63933957D01*
X52281672Y-63887701D01*
X52283821Y-63886720D01*
X52287568Y-63885051D01*
X52287571Y-63885051D01*
X52465299Y-63805922D01*
X52622692Y-63691569D01*
X52752870Y-63546992D01*
X52850144Y-63378508D01*
X52910262Y-63193482D01*
X52910434Y-63191838D01*
X52910800Y-63190949D01*
X52911613Y-63187126D01*
X52912312Y-63187274D01*
X52937017Y-63127225D01*
X52994313Y-63087239D01*
X53064132Y-63084577D01*
X53121436Y-63117118D01*
X55813181Y-65808863D01*
X55846666Y-65870186D01*
X55849500Y-65896544D01*
X55849500Y-75013908D01*
X55829815Y-75080947D01*
X55811913Y-75100412D01*
X55813129Y-75101628D01*
X55807384Y-75107372D01*
X55719137Y-75222377D01*
X55663671Y-75356287D01*
X55663670Y-75356291D01*
X55645755Y-75492370D01*
X55644750Y-75500000D01*
X55662665Y-75636079D01*
X55663670Y-75643708D01*
X55663671Y-75643712D01*
X55719137Y-75777622D01*
X55719138Y-75777624D01*
X55719139Y-75777625D01*
X55807379Y-75892621D01*
X55922375Y-75980861D01*
X56056291Y-76036330D01*
X56183280Y-76053048D01*
X56199999Y-76055250D01*
X56200000Y-76055250D01*
X56200001Y-76055250D01*
X56214977Y-76053278D01*
X56343709Y-76036330D01*
X56477625Y-75980861D01*
X56524514Y-75944881D01*
X56589682Y-75919687D01*
X56658127Y-75933725D01*
X56675483Y-75944880D01*
X56722375Y-75980861D01*
X56856291Y-76036330D01*
X56983280Y-76053048D01*
X56999999Y-76055250D01*
X57000000Y-76055250D01*
X57000001Y-76055250D01*
X57014977Y-76053278D01*
X57143709Y-76036330D01*
X57277625Y-75980861D01*
X57392621Y-75892621D01*
X57480861Y-75777625D01*
X57536330Y-75643709D01*
X57555250Y-75500000D01*
X57554245Y-75492370D01*
X57550775Y-75466012D01*
X57536330Y-75356291D01*
X57480861Y-75222375D01*
X57392621Y-75107379D01*
X57392619Y-75107377D01*
X57392615Y-75107372D01*
X57386871Y-75101628D01*
X57389387Y-75099111D01*
X57357797Y-75055817D01*
X57350500Y-75013908D01*
X57350500Y-65888173D01*
X57350500Y-65888171D01*
X57326614Y-65799027D01*
X57321272Y-65789774D01*
X57280469Y-65719102D01*
X55023048Y-63461681D01*
X54989563Y-63400358D01*
X54994547Y-63330666D01*
X55036419Y-63274733D01*
X55101883Y-63250316D01*
X55110729Y-63250000D01*
X55124293Y-63250000D01*
X55369493Y-63209083D01*
X55604603Y-63128369D01*
X55604614Y-63128364D01*
X55823228Y-63010057D01*
X55823231Y-63010055D01*
X55870056Y-62973609D01*
X55170234Y-62273787D01*
X55212292Y-62262518D01*
X55337708Y-62190110D01*
X55440110Y-62087708D01*
X55512518Y-61962292D01*
X55523787Y-61920234D01*
X56223434Y-62619882D01*
X56323731Y-62466369D01*
X56423587Y-62238717D01*
X56484612Y-61997738D01*
X56484614Y-61997729D01*
X56505141Y-61750005D01*
X56505141Y-61749997D01*
X58244723Y-61749997D01*
X58244723Y-61750002D01*
X58263793Y-61967975D01*
X58263793Y-61967979D01*
X58320422Y-62179322D01*
X58320424Y-62179326D01*
X58320425Y-62179330D01*
X58340498Y-62222377D01*
X58412897Y-62377638D01*
X58412898Y-62377639D01*
X58538402Y-62556877D01*
X58693123Y-62711598D01*
X58872361Y-62837102D01*
X59070670Y-62929575D01*
X59282023Y-62986207D01*
X59464926Y-63002208D01*
X59499998Y-63005277D01*
X59500000Y-63005277D01*
X59500002Y-63005277D01*
X59528254Y-63002805D01*
X59717977Y-62986207D01*
X59929330Y-62929575D01*
X60127639Y-62837102D01*
X60306877Y-62711598D01*
X60461598Y-62556877D01*
X60587102Y-62377639D01*
X60679575Y-62179330D01*
X60736207Y-61967977D01*
X60755277Y-61750000D01*
X60755276Y-61749994D01*
X60747606Y-61662319D01*
X60736207Y-61532023D01*
X60701548Y-61402675D01*
X60679577Y-61320677D01*
X60679576Y-61320676D01*
X60679575Y-61320670D01*
X60587102Y-61122362D01*
X60587100Y-61122359D01*
X60587099Y-61122357D01*
X60461599Y-60943124D01*
X60398591Y-60880116D01*
X60306877Y-60788402D01*
X60127639Y-60662898D01*
X60127640Y-60662898D01*
X60127638Y-60662897D01*
X60022217Y-60613739D01*
X59929330Y-60570425D01*
X59929326Y-60570424D01*
X59929322Y-60570422D01*
X59717977Y-60513793D01*
X59500002Y-60494723D01*
X59499998Y-60494723D01*
X59354682Y-60507436D01*
X59282023Y-60513793D01*
X59282020Y-60513793D01*
X59070677Y-60570422D01*
X59070668Y-60570426D01*
X58872361Y-60662898D01*
X58872357Y-60662900D01*
X58693121Y-60788402D01*
X58538402Y-60943121D01*
X58412900Y-61122357D01*
X58412898Y-61122361D01*
X58320426Y-61320668D01*
X58320422Y-61320677D01*
X58263793Y-61532020D01*
X58263793Y-61532024D01*
X58244723Y-61749997D01*
X56505141Y-61749997D01*
X56505141Y-61749994D01*
X56484614Y-61502270D01*
X56484612Y-61502261D01*
X56423587Y-61261282D01*
X56323731Y-61033630D01*
X56223434Y-60880116D01*
X55523787Y-61579764D01*
X55512518Y-61537708D01*
X55440110Y-61412292D01*
X55337708Y-61309890D01*
X55212292Y-61237482D01*
X55170234Y-61226212D01*
X55870057Y-60526389D01*
X55823229Y-60489943D01*
X55604614Y-60371635D01*
X55604603Y-60371630D01*
X55369493Y-60290916D01*
X55124293Y-60250000D01*
X54875707Y-60250000D01*
X54630506Y-60290916D01*
X54395396Y-60371630D01*
X54395385Y-60371635D01*
X54176771Y-60489942D01*
X54176769Y-60489943D01*
X54050662Y-60588097D01*
X53985668Y-60613739D01*
X53917128Y-60600172D01*
X53866803Y-60551704D01*
X53850500Y-60490243D01*
X53850500Y-56509756D01*
X53870185Y-56442717D01*
X53922989Y-56396962D01*
X53992147Y-56387018D01*
X54050663Y-56411903D01*
X54176768Y-56510055D01*
X54176771Y-56510057D01*
X54395385Y-56628364D01*
X54395396Y-56628369D01*
X54630506Y-56709083D01*
X54875707Y-56750000D01*
X55124293Y-56750000D01*
X55369493Y-56709083D01*
X55604603Y-56628369D01*
X55604614Y-56628364D01*
X55823228Y-56510057D01*
X55823231Y-56510055D01*
X55870056Y-56473609D01*
X55170234Y-55773787D01*
X55212292Y-55762518D01*
X55337708Y-55690110D01*
X55440110Y-55587708D01*
X55512518Y-55462292D01*
X55523787Y-55420234D01*
X56223434Y-56119882D01*
X56323731Y-55966369D01*
X56423587Y-55738717D01*
X56484612Y-55497738D01*
X56484614Y-55497729D01*
X56505141Y-55250005D01*
X56505141Y-55249997D01*
X58244723Y-55249997D01*
X58244723Y-55250002D01*
X58263793Y-55467975D01*
X58263793Y-55467979D01*
X58320422Y-55679322D01*
X58320424Y-55679326D01*
X58320425Y-55679330D01*
X58348118Y-55738717D01*
X58412897Y-55877638D01*
X58418711Y-55885941D01*
X58538402Y-56056877D01*
X58693123Y-56211598D01*
X58872361Y-56337102D01*
X59070670Y-56429575D01*
X59282023Y-56486207D01*
X59464926Y-56502208D01*
X59499998Y-56505277D01*
X59500000Y-56505277D01*
X59500002Y-56505277D01*
X59528254Y-56502805D01*
X59717977Y-56486207D01*
X59929330Y-56429575D01*
X60127639Y-56337102D01*
X60306877Y-56211598D01*
X60461598Y-56056877D01*
X60587102Y-55877639D01*
X60679575Y-55679330D01*
X60736207Y-55467977D01*
X60755277Y-55250000D01*
X60755276Y-55249994D01*
X60748942Y-55177591D01*
X60736207Y-55032023D01*
X60679575Y-54820670D01*
X60587102Y-54622362D01*
X60587100Y-54622359D01*
X60587099Y-54622357D01*
X60461599Y-54443124D01*
X60398591Y-54380116D01*
X60306877Y-54288402D01*
X60127639Y-54162898D01*
X60127640Y-54162898D01*
X60127638Y-54162897D01*
X60017769Y-54111665D01*
X59929330Y-54070425D01*
X59929326Y-54070424D01*
X59929322Y-54070422D01*
X59717977Y-54013793D01*
X59500002Y-53994723D01*
X59499998Y-53994723D01*
X59354682Y-54007436D01*
X59282023Y-54013793D01*
X59282020Y-54013793D01*
X59070677Y-54070422D01*
X59070668Y-54070426D01*
X58872361Y-54162898D01*
X58872357Y-54162900D01*
X58693121Y-54288402D01*
X58538402Y-54443121D01*
X58412900Y-54622357D01*
X58412898Y-54622361D01*
X58320426Y-54820668D01*
X58320422Y-54820677D01*
X58263793Y-55032020D01*
X58263793Y-55032024D01*
X58244723Y-55249997D01*
X56505141Y-55249997D01*
X56505141Y-55249994D01*
X56484614Y-55002270D01*
X56484612Y-55002261D01*
X56423587Y-54761282D01*
X56323731Y-54533630D01*
X56223434Y-54380116D01*
X55523787Y-55079764D01*
X55512518Y-55037708D01*
X55440110Y-54912292D01*
X55337708Y-54809890D01*
X55212292Y-54737482D01*
X55170235Y-54726212D01*
X55870057Y-54026390D01*
X55870056Y-54026389D01*
X55823229Y-53989943D01*
X55604614Y-53871635D01*
X55604603Y-53871630D01*
X55369493Y-53790916D01*
X55124293Y-53750000D01*
X54875707Y-53750000D01*
X54630506Y-53790916D01*
X54395396Y-53871630D01*
X54395390Y-53871632D01*
X54176761Y-53989949D01*
X54129942Y-54026388D01*
X54129942Y-54026390D01*
X54829765Y-54726212D01*
X54787708Y-54737482D01*
X54662292Y-54809890D01*
X54559890Y-54912292D01*
X54487482Y-55037708D01*
X54476212Y-55079765D01*
X53776564Y-54380116D01*
X53676267Y-54533632D01*
X53576412Y-54761282D01*
X53515387Y-55002261D01*
X53515385Y-55002270D01*
X53494859Y-55249994D01*
X53494859Y-55250005D01*
X53515385Y-55497729D01*
X53515387Y-55497738D01*
X53576412Y-55738718D01*
X53576412Y-55738720D01*
X53578981Y-55744576D01*
X53587880Y-55813877D01*
X53557899Y-55876987D01*
X53498557Y-55913870D01*
X53428695Y-55912815D01*
X53377741Y-55882060D01*
X53309558Y-55813877D01*
X52961819Y-55466137D01*
X52928334Y-55404814D01*
X52925500Y-55378456D01*
X52925500Y-54300323D01*
X52925499Y-54300321D01*
X52910967Y-54227264D01*
X52910966Y-54227260D01*
X52855601Y-54144399D01*
X52772740Y-54089034D01*
X52772739Y-54089033D01*
X52772735Y-54089032D01*
X52699677Y-54074500D01*
X52699674Y-54074500D01*
X51300326Y-54074500D01*
X51300323Y-54074500D01*
X51227264Y-54089032D01*
X51227260Y-54089033D01*
X51144399Y-54144399D01*
X51089033Y-54227260D01*
X51089032Y-54227264D01*
X51074500Y-54300321D01*
X51074500Y-55699678D01*
X51089032Y-55772735D01*
X51089033Y-55772739D01*
X51089034Y-55772740D01*
X51144399Y-55855601D01*
X51189807Y-55885941D01*
X51227260Y-55910966D01*
X51227264Y-55910967D01*
X51300321Y-55925499D01*
X51300324Y-55925500D01*
X51300326Y-55925500D01*
X51554563Y-55925500D01*
X51621602Y-55945185D01*
X51667357Y-55997989D01*
X51677301Y-56067147D01*
X51648276Y-56130703D01*
X51604998Y-56162780D01*
X51534702Y-56194076D01*
X51377305Y-56308433D01*
X51377302Y-56308435D01*
X51247129Y-56453009D01*
X51149857Y-56621488D01*
X51149856Y-56621489D01*
X51089738Y-56806516D01*
X51069402Y-57000000D01*
X50500500Y-57000000D01*
X50500500Y-50624500D01*
X50520185Y-50557461D01*
X50572989Y-50511706D01*
X50624500Y-50500500D01*
X91375500Y-50500500D01*
X91442539Y-50520185D01*
G37*
%TD.AperFunction*%
%TD*%
M02*
