M48
; DRILL file {KiCad 8.0.5} date 2025-02-08T11:39:41+0100
; FORMAT={-:-/ absolute / inch / decimal}
; #@! TF.CreationDate,2025-02-08T11:39:41+01:00
; #@! TF.GenerationSoftware,Kicad,Pcbnew,8.0.5
; #@! TF.FileFunction,Plated,1,2,PTH
FMAT,2
INCH
; #@! TA.AperFunction,Plated,PTH,ViaDrill
T1C0.0118
; #@! TA.AperFunction,Plated,PTH,ComponentDrill
T2C0.0236
; #@! TA.AperFunction,Plated,PTH,ComponentDrill
T3C0.0276
; #@! TA.AperFunction,Plated,PTH,ComponentDrill
T4C0.0315
; #@! TA.AperFunction,Plated,PTH,ComponentDrill
T5C0.0433
%
G90
G05
T1
X2.0002Y-3.0309
X2.0281Y-3.0844
X2.0321Y-2.9833
X2.1785Y-3.8604
X2.1787Y-3.824
X2.1846Y-3.203
X2.2126Y-2.9724
X2.2197Y-3.778
X2.2197Y-3.9311
X2.2382Y-3.1955
X2.2441Y-2.9724
X2.2498Y-3.9557
X2.256Y-3.9023
X2.2624Y-2.0053
X2.2657Y-3.0685
X2.2693Y-3.353
X2.2717Y-3.4303
X2.272Y-3.4978
X2.273Y-3.8266
X2.2736Y-3.6154
X2.2758Y-3.7455
X2.2829Y-4.103
X2.2913Y-3.0713
X2.3049Y-3.9354
X2.3108Y-2.9778
X2.3167Y-3.1522
X2.3281Y-3.7091
X2.3376Y-2.5636
X2.338Y-3.9442
X2.3419Y-2.0059
X2.3425Y-2.7075
X2.3474Y-2.8907
X2.3496Y-3.3547
X2.3504Y-3.5829
X2.3577Y-3.1415
X2.3587Y-3.4376
X2.3675Y-3.2835
X2.376Y-3.825
X2.3807Y-3.6567
X2.3955Y-4.1453
X2.3972Y-3.4803
X2.4004Y-3.1449
X2.4045Y-3.0337
X2.4136Y-3.2868
X2.4146Y-4.0863
X2.4175Y-2.0
X2.4184Y-3.8661
X2.4192Y-4.1217
X2.4398Y-3.1407
X2.4421Y-3.8897
X2.4423Y-3.2892
X2.4793Y-3.6069
X2.4803Y-3.6622
X2.4809Y-3.0022
X2.4809Y-3.2959
X2.481Y-3.784
X2.4821Y-3.3915
X2.4821Y-3.4506
X2.4831Y-3.0569
X2.4831Y-3.3587
X2.4848Y-3.1258
X2.4868Y-4.1043
X2.487Y-3.5528
X2.4876Y-3.4998
X2.4998Y-3.94
X2.5079Y-2.6851
X2.5167Y-2.2803
X2.5189Y-2.4547
X2.5197Y-2.5394
X2.5197Y-2.5709
X2.527Y-3.8713
X2.5272Y-2.6177
X2.5316Y-2.6614
X2.5439Y-2.0039
X2.5518Y-3.8159
X2.5594Y-3.9439
X2.5596Y-3.0486
X2.5602Y-3.3488
X2.5624Y-3.4451
X2.5636Y-3.1368
X2.564Y-3.2909
X2.5646Y-3.5846
X2.5654Y-3.7606
X2.5657Y-3.3949
X2.5657Y-3.5112
X2.5657Y-3.6441
X2.5835Y-3.1112
X2.615Y-3.4618
X2.6476Y-3.1201
X2.652Y-3.8441
X2.654Y-3.939
X2.6565Y-3.1762
X2.6575Y-3.2087
X2.6575Y-3.248
X2.6843Y-3.9692
X2.6949Y-3.775
X2.6959Y-3.7421
X2.6967Y-2.2266
X2.6967Y-2.2758
X2.7197Y-2.6734
X2.7213Y-2.202
X2.7213Y-2.2512
X2.7213Y-2.3004
X2.7234Y-3.8
X2.7238Y-3.5799
X2.7335Y-4.0185
X2.7459Y-2.2266
X2.7459Y-2.2758
X2.7496Y-3.4656
X2.7545Y-3.8337
X2.7559Y-3.1988
X2.7559Y-4.0453
X2.7606Y-2.8862
X2.7705Y-2.202
X2.7705Y-2.2512
X2.7705Y-2.3004
X2.7884Y-3.7795
X2.7911Y-3.6874
X2.7921Y-3.5906
X2.7951Y-2.2266
X2.7951Y-2.2758
X2.7953Y-3.2382
X2.8228Y-3.6917
X2.8234Y-3.5884
X2.8252Y-2.8937
X2.8281Y-2.9571
X2.8437Y-3.1514
X2.8445Y-3.3366
X2.8445Y-3.376
X2.8445Y-3.4252
X2.8445Y-3.4843
X2.8445Y-3.5335
X2.8453Y-3.5874
X2.8457Y-2.7919
X2.8561Y-3.6896
X2.8642Y-4.0354
X2.874Y-3.9272
X2.876Y-2.4559
X2.8868Y-3.8707
X2.8937Y-3.0118
X2.8937Y-3.1693
X2.9Y-3.225
X2.9193Y-3.3406
X2.9232Y-3.7795
X2.9274Y-2.7
X2.9295Y-2.4539
X2.9303Y-2.3169
X2.9303Y-2.3907
X2.9303Y-2.5039
X2.9319Y-3.5238
X2.9356Y-2.9683
X2.9362Y-2.6248
X2.9374Y-2.9024
X2.9463Y-3.0244
X2.9549Y-3.1419
X2.9591Y-2.2783
X2.9642Y-3.9496
X2.9659Y-3.1941
X2.9961Y-2.2447
X3.0063Y-2.8451
X3.0073Y-4.1299
X3.0087Y-2.5114
X3.0093Y-2.4323
X3.011Y-2.89
X3.0116Y-2.3768
X3.0118Y-3.1693
X3.0152Y-2.8207
X3.0193Y-2.6138
X3.0285Y-2.4722
X3.0402Y-3.3565
X3.0437Y-2.3382
X3.0453Y-2.1931
X3.0486Y-2.5075
X3.0657Y-2.1518
X3.0664Y-2.5792
X3.077Y-3.3352
X3.0793Y-2.7587
X3.0864Y-2.324
X3.0892Y-2.5132
X3.0906Y-2.5591
X3.0911Y-3.9417
X3.0911Y-4.0433
X3.0953Y-2.2791
X3.0955Y-2.061
X3.0959Y-2.8402
X3.0986Y-2.026
X3.1193Y-3.0492
X3.1346Y-3.3943
X3.1455Y-3.2553
X3.1465Y-4.1429
X3.1591Y-3.4232
X3.1852Y-3.8717
X3.189Y-2.9331
X3.1931Y-2.7854
X3.1978Y-2.8724
X3.1988Y-2.7402
X3.1998Y-3.4661
X3.2047Y-3.1496
X3.2075Y-3.6469
X3.2108Y-2.0295
X3.2108Y-2.0606
X3.2203Y-4.0839
X3.2224Y-2.5
X3.2226Y-2.937
X3.2283Y-3.189
X3.2289Y-3.3331
X3.2293Y-3.5004
X3.2522Y-2.3823
X3.2531Y-2.7533
X3.2561Y-2.8154
X3.2561Y-2.8547
X3.2571Y-4.1927
X3.2591Y-2.9742
X3.2598Y-2.0807
X3.2606Y-3.5256
X3.2646Y-3.9417
X3.2886Y-2.89
X3.3031Y-2.3217
X3.3031Y-2.3819
X3.3085Y-3.4203
X3.3094Y-3.5785
X3.3207Y-2.9215
X3.3258Y-2.7398
X3.3268Y-2.4606
X3.3274Y-4.0819
X3.3352Y-3.0027
X3.3398Y-3.7236
X3.343Y-2.9721
X3.3465Y-3.0325
X3.3514Y-2.2244
X3.3524Y-2.0396
X3.3585Y-2.2916
X3.3598Y-3.6335
X3.3604Y-3.9898
X3.361Y-3.4626
X3.3636Y-2.7559
X3.3699Y-2.8303
X3.3707Y-2.8762
X3.373Y-2.2693
X3.3947Y-3.7697
X3.3982Y-2.3073
X3.4012Y-4.202
X3.4087Y-3.6744
X3.4122Y-2.9685
X3.4189Y-2.2825
X3.4217Y-3.3073
X3.4232Y-2.9915
X3.4287Y-3.5285
X3.4319Y-2.8303
X3.4321Y-2.236
X3.4329Y-2.7478
X3.44Y-3.7028
X3.4614Y-2.1098
X3.463Y-3.5719
X3.465Y-2.5156
X3.468Y-2.8509
X3.4705Y-3.9344
X3.486Y-3.274
X3.486Y-3.3524
X3.4911Y-2.2951
X3.4955Y-2.2311
X3.4976Y-3.6065
X3.5008Y-2.5955
X3.5008Y-2.7315
X3.5008Y-2.8726
X3.501Y-2.4406
X3.5116Y-2.0537
X3.5319Y-3.2496
X3.5333Y-2.802
X3.5407Y-3.2982
X3.5474Y-2.9606
X3.553Y-2.0746
X3.561Y-3.3392
X3.5612Y-3.1514
X3.5697Y-3.3033
X3.5728Y-3.1299
X3.5797Y-3.3762
X3.5808Y-3.2363
T4
X2.0276Y-3.5039
X2.0276Y-3.5827
X2.0276Y-3.6614
X2.0276Y-3.7402
X2.0276Y-3.8189
X2.0276Y-3.8976
X2.0276Y-3.9764
X2.0276Y-4.0551
X2.0472Y-2.1654
X2.0472Y-2.2441
X2.0472Y-2.3228
X2.0472Y-2.4016
X2.0472Y-2.4803
X2.0472Y-2.5591
X2.0472Y-2.6378
X2.0472Y-2.7165
X2.7559Y-4.2126
X2.8346Y-4.2126
X2.9904Y-3.3943
X2.9904Y-3.473
X2.9904Y-3.5518
X2.9904Y-3.6305
X3.563Y-2.1654
X3.563Y-2.2441
X3.563Y-2.3228
X3.563Y-2.4016
X3.563Y-2.4803
X3.563Y-2.5591
X3.563Y-2.6378
X3.563Y-2.7165
X3.563Y-3.5039
X3.563Y-3.5827
X3.563Y-3.6614
X3.563Y-3.7402
X3.563Y-3.8189
X3.563Y-3.8976
X3.563Y-3.9764
X3.563Y-4.0551
T5
X2.1654Y-2.1752
X2.1654Y-2.4311
X2.3425Y-2.1752
X2.3425Y-2.4311
T2
G00X2.2171Y-4.0049
M15
G01X2.2171Y-4.0443
M16
G05
G00X2.2171Y-4.1781
M15
G01X2.2171Y-4.2293
M16
G05
G00X2.2171Y-4.0443
M15
G01X2.2407Y-4.0443
M16
G05
G00X2.5337Y-4.0443
M15
G01X2.5573Y-4.0443
M16
G05
G00X2.5573Y-4.0049
M15
G01X2.5573Y-4.0443
M16
G05
T3
G00X2.5573Y-4.1781
M15
G01X2.5573Y-4.2293
M16
G05
M30
