%TF.GenerationSoftware,KiCad,Pcbnew,8.0.5*%
%TF.CreationDate,2025-02-08T11:35:47+01:00*%
%TF.ProjectId,ESP32 adon,45535033-3220-4616-946f-6e2e6b696361,rev?*%
%TF.SameCoordinates,Original*%
%TF.FileFunction,Soldermask,Bot*%
%TF.FilePolarity,Negative*%
%FSLAX46Y46*%
G04 Gerber Fmt 4.6, Leading zero omitted, Abs format (unit mm)*
G04 Created by KiCad (PCBNEW 8.0.5) date 2025-02-08 11:35:47*
%MOMM*%
%LPD*%
G01*
G04 APERTURE LIST*
%ADD10R,1.350000X1.350000*%
%ADD11O,1.350000X1.350000*%
%ADD12C,0.550000*%
%ADD13C,2.000000*%
G04 APERTURE END LIST*
D10*
%TO.C,J2*%
X51500000Y-89000000D03*
D11*
X51500000Y-91000000D03*
X51500000Y-93000000D03*
X51500000Y-95000000D03*
X51500000Y-97000000D03*
X51500000Y-99000000D03*
X51500000Y-101000000D03*
X51500000Y-103000000D03*
%TD*%
D10*
%TO.C,J4*%
X90500000Y-89000000D03*
D11*
X90500000Y-91000000D03*
X90500000Y-93000000D03*
X90500000Y-95000000D03*
X90500000Y-97000000D03*
X90500000Y-99000000D03*
X90500000Y-101000000D03*
X90500000Y-103000000D03*
%TD*%
D12*
%TO.C,J6*%
X57235000Y-103575000D03*
X64035000Y-103575000D03*
%TD*%
D10*
%TO.C,J5*%
X90500000Y-55000000D03*
D11*
X90500000Y-57000000D03*
X90500000Y-59000000D03*
X90500000Y-61000000D03*
X90500000Y-63000000D03*
X90500000Y-65000000D03*
X90500000Y-67000000D03*
X90500000Y-69000000D03*
%TD*%
D13*
%TO.C,SW2*%
X55000000Y-61750000D03*
X55000000Y-55250000D03*
X59500000Y-61750000D03*
X59500000Y-55250000D03*
%TD*%
D10*
%TO.C,J3*%
X72000000Y-107000000D03*
D11*
X70000000Y-107000000D03*
%TD*%
D10*
%TO.C,J1*%
X52000000Y-55000000D03*
D11*
X52000000Y-57000000D03*
X52000000Y-59000000D03*
X52000000Y-61000000D03*
X52000000Y-63000000D03*
X52000000Y-65000000D03*
X52000000Y-67000000D03*
X52000000Y-69000000D03*
%TD*%
D10*
%TO.C,J7*%
X75955000Y-86215000D03*
D11*
X75955000Y-88215000D03*
X75955000Y-90215000D03*
X75955000Y-92215000D03*
%TD*%
M02*
