%TF.GenerationSoftware,KiCad,Pcbnew,8.0.5*%
%TF.CreationDate,2025-02-08T11:35:47+01:00*%
%TF.ProjectId,ESP32 adon,45535033-3220-4616-946f-6e2e6b696361,rev?*%
%TF.SameCoordinates,Original*%
%TF.FileFunction,Legend,Bot*%
%TF.FilePolarity,Positive*%
%FSLAX46Y46*%
G04 Gerber Fmt 4.6, Leading zero omitted, Abs format (unit mm)*
G04 Created by KiCad (PCBNEW 8.0.5) date 2025-02-08 11:35:47*
%MOMM*%
%LPD*%
G01*
G04 APERTURE LIST*
%ADD10C,0.400000*%
G04 APERTURE END LIST*
D10*
X61931216Y-72596490D02*
X63550264Y-72596490D01*
X63550264Y-72596490D02*
X63740740Y-72501252D01*
X63740740Y-72501252D02*
X63835978Y-72406014D01*
X63835978Y-72406014D02*
X63931216Y-72215537D01*
X63931216Y-72215537D02*
X63931216Y-71929823D01*
X63931216Y-71929823D02*
X63835978Y-71739347D01*
X63169312Y-72596490D02*
X63264550Y-72406014D01*
X63264550Y-72406014D02*
X63264550Y-72025061D01*
X63264550Y-72025061D02*
X63169312Y-71834585D01*
X63169312Y-71834585D02*
X63074073Y-71739347D01*
X63074073Y-71739347D02*
X62883597Y-71644109D01*
X62883597Y-71644109D02*
X62312169Y-71644109D01*
X62312169Y-71644109D02*
X62121692Y-71739347D01*
X62121692Y-71739347D02*
X62026454Y-71834585D01*
X62026454Y-71834585D02*
X61931216Y-72025061D01*
X61931216Y-72025061D02*
X61931216Y-72406014D01*
X61931216Y-72406014D02*
X62026454Y-72596490D01*
X63169312Y-74310776D02*
X63264550Y-74120300D01*
X63264550Y-74120300D02*
X63264550Y-73739347D01*
X63264550Y-73739347D02*
X63169312Y-73548871D01*
X63169312Y-73548871D02*
X62978835Y-73453633D01*
X62978835Y-73453633D02*
X62216931Y-73453633D01*
X62216931Y-73453633D02*
X62026454Y-73548871D01*
X62026454Y-73548871D02*
X61931216Y-73739347D01*
X61931216Y-73739347D02*
X61931216Y-74120300D01*
X61931216Y-74120300D02*
X62026454Y-74310776D01*
X62026454Y-74310776D02*
X62216931Y-74406014D01*
X62216931Y-74406014D02*
X62407407Y-74406014D01*
X62407407Y-74406014D02*
X62597883Y-73453633D01*
X63264550Y-75263157D02*
X61931216Y-75263157D01*
X62121692Y-75263157D02*
X62026454Y-75358395D01*
X62026454Y-75358395D02*
X61931216Y-75548871D01*
X61931216Y-75548871D02*
X61931216Y-75834586D01*
X61931216Y-75834586D02*
X62026454Y-76025062D01*
X62026454Y-76025062D02*
X62216931Y-76120300D01*
X62216931Y-76120300D02*
X63264550Y-76120300D01*
X62216931Y-76120300D02*
X62026454Y-76215538D01*
X62026454Y-76215538D02*
X61931216Y-76406014D01*
X61931216Y-76406014D02*
X61931216Y-76691728D01*
X61931216Y-76691728D02*
X62026454Y-76882205D01*
X62026454Y-76882205D02*
X62216931Y-76977443D01*
X62216931Y-76977443D02*
X63264550Y-76977443D01*
X63264550Y-78786967D02*
X62216931Y-78786967D01*
X62216931Y-78786967D02*
X62026454Y-78691729D01*
X62026454Y-78691729D02*
X61931216Y-78501253D01*
X61931216Y-78501253D02*
X61931216Y-78120300D01*
X61931216Y-78120300D02*
X62026454Y-77929824D01*
X63169312Y-78786967D02*
X63264550Y-78596491D01*
X63264550Y-78596491D02*
X63264550Y-78120300D01*
X63264550Y-78120300D02*
X63169312Y-77929824D01*
X63169312Y-77929824D02*
X62978835Y-77834586D01*
X62978835Y-77834586D02*
X62788359Y-77834586D01*
X62788359Y-77834586D02*
X62597883Y-77929824D01*
X62597883Y-77929824D02*
X62502645Y-78120300D01*
X62502645Y-78120300D02*
X62502645Y-78596491D01*
X62502645Y-78596491D02*
X62407407Y-78786967D01*
X63264550Y-80596491D02*
X62216931Y-80596491D01*
X62216931Y-80596491D02*
X62026454Y-80501253D01*
X62026454Y-80501253D02*
X61931216Y-80310777D01*
X61931216Y-80310777D02*
X61931216Y-79929824D01*
X61931216Y-79929824D02*
X62026454Y-79739348D01*
X63169312Y-80596491D02*
X63264550Y-80406015D01*
X63264550Y-80406015D02*
X63264550Y-79929824D01*
X63264550Y-79929824D02*
X63169312Y-79739348D01*
X63169312Y-79739348D02*
X62978835Y-79644110D01*
X62978835Y-79644110D02*
X62788359Y-79644110D01*
X62788359Y-79644110D02*
X62597883Y-79739348D01*
X62597883Y-79739348D02*
X62502645Y-79929824D01*
X62502645Y-79929824D02*
X62502645Y-80406015D01*
X62502645Y-80406015D02*
X62407407Y-80596491D01*
X63264550Y-81548872D02*
X61264550Y-81548872D01*
X62502645Y-81739348D02*
X63264550Y-82310777D01*
X61931216Y-82310777D02*
X62693121Y-81548872D01*
X61931216Y-82882206D02*
X61931216Y-83644110D01*
X61264550Y-83167920D02*
X62978835Y-83167920D01*
X62978835Y-83167920D02*
X63169312Y-83263158D01*
X63169312Y-83263158D02*
X63264550Y-83453634D01*
X63264550Y-83453634D02*
X63264550Y-83644110D01*
X63264550Y-86691730D02*
X61264550Y-86691730D01*
X63169312Y-86691730D02*
X63264550Y-86501254D01*
X63264550Y-86501254D02*
X63264550Y-86120301D01*
X63264550Y-86120301D02*
X63169312Y-85929825D01*
X63169312Y-85929825D02*
X63074073Y-85834587D01*
X63074073Y-85834587D02*
X62883597Y-85739349D01*
X62883597Y-85739349D02*
X62312169Y-85739349D01*
X62312169Y-85739349D02*
X62121692Y-85834587D01*
X62121692Y-85834587D02*
X62026454Y-85929825D01*
X62026454Y-85929825D02*
X61931216Y-86120301D01*
X61931216Y-86120301D02*
X61931216Y-86501254D01*
X61931216Y-86501254D02*
X62026454Y-86691730D01*
X63264550Y-87929825D02*
X63169312Y-87739349D01*
X63169312Y-87739349D02*
X63074073Y-87644111D01*
X63074073Y-87644111D02*
X62883597Y-87548873D01*
X62883597Y-87548873D02*
X62312169Y-87548873D01*
X62312169Y-87548873D02*
X62121692Y-87644111D01*
X62121692Y-87644111D02*
X62026454Y-87739349D01*
X62026454Y-87739349D02*
X61931216Y-87929825D01*
X61931216Y-87929825D02*
X61931216Y-88215540D01*
X61931216Y-88215540D02*
X62026454Y-88406016D01*
X62026454Y-88406016D02*
X62121692Y-88501254D01*
X62121692Y-88501254D02*
X62312169Y-88596492D01*
X62312169Y-88596492D02*
X62883597Y-88596492D01*
X62883597Y-88596492D02*
X63074073Y-88501254D01*
X63074073Y-88501254D02*
X63169312Y-88406016D01*
X63169312Y-88406016D02*
X63264550Y-88215540D01*
X63264550Y-88215540D02*
X63264550Y-87929825D01*
X63264550Y-89739349D02*
X63169312Y-89548873D01*
X63169312Y-89548873D02*
X63074073Y-89453635D01*
X63074073Y-89453635D02*
X62883597Y-89358397D01*
X62883597Y-89358397D02*
X62312169Y-89358397D01*
X62312169Y-89358397D02*
X62121692Y-89453635D01*
X62121692Y-89453635D02*
X62026454Y-89548873D01*
X62026454Y-89548873D02*
X61931216Y-89739349D01*
X61931216Y-89739349D02*
X61931216Y-90025064D01*
X61931216Y-90025064D02*
X62026454Y-90215540D01*
X62026454Y-90215540D02*
X62121692Y-90310778D01*
X62121692Y-90310778D02*
X62312169Y-90406016D01*
X62312169Y-90406016D02*
X62883597Y-90406016D01*
X62883597Y-90406016D02*
X63074073Y-90310778D01*
X63074073Y-90310778D02*
X63169312Y-90215540D01*
X63169312Y-90215540D02*
X63264550Y-90025064D01*
X63264550Y-90025064D02*
X63264550Y-89739349D01*
X63264550Y-91263159D02*
X61931216Y-91263159D01*
X62312169Y-91263159D02*
X62121692Y-91358397D01*
X62121692Y-91358397D02*
X62026454Y-91453635D01*
X62026454Y-91453635D02*
X61931216Y-91644111D01*
X61931216Y-91644111D02*
X61931216Y-91834588D01*
X66389200Y-71644109D02*
X66484438Y-71929823D01*
X66484438Y-71929823D02*
X66484438Y-72406014D01*
X66484438Y-72406014D02*
X66389200Y-72596490D01*
X66389200Y-72596490D02*
X66293961Y-72691728D01*
X66293961Y-72691728D02*
X66103485Y-72786966D01*
X66103485Y-72786966D02*
X65913009Y-72786966D01*
X65913009Y-72786966D02*
X65722533Y-72691728D01*
X65722533Y-72691728D02*
X65627295Y-72596490D01*
X65627295Y-72596490D02*
X65532057Y-72406014D01*
X65532057Y-72406014D02*
X65436819Y-72025061D01*
X65436819Y-72025061D02*
X65341580Y-71834585D01*
X65341580Y-71834585D02*
X65246342Y-71739347D01*
X65246342Y-71739347D02*
X65055866Y-71644109D01*
X65055866Y-71644109D02*
X64865390Y-71644109D01*
X64865390Y-71644109D02*
X64674914Y-71739347D01*
X64674914Y-71739347D02*
X64579676Y-71834585D01*
X64579676Y-71834585D02*
X64484438Y-72025061D01*
X64484438Y-72025061D02*
X64484438Y-72501252D01*
X64484438Y-72501252D02*
X64579676Y-72786966D01*
X65151104Y-73358395D02*
X65151104Y-74120299D01*
X64484438Y-73644109D02*
X66198723Y-73644109D01*
X66198723Y-73644109D02*
X66389200Y-73739347D01*
X66389200Y-73739347D02*
X66484438Y-73929823D01*
X66484438Y-73929823D02*
X66484438Y-74120299D01*
X66484438Y-75644109D02*
X65436819Y-75644109D01*
X65436819Y-75644109D02*
X65246342Y-75548871D01*
X65246342Y-75548871D02*
X65151104Y-75358395D01*
X65151104Y-75358395D02*
X65151104Y-74977442D01*
X65151104Y-74977442D02*
X65246342Y-74786966D01*
X66389200Y-75644109D02*
X66484438Y-75453633D01*
X66484438Y-75453633D02*
X66484438Y-74977442D01*
X66484438Y-74977442D02*
X66389200Y-74786966D01*
X66389200Y-74786966D02*
X66198723Y-74691728D01*
X66198723Y-74691728D02*
X66008247Y-74691728D01*
X66008247Y-74691728D02*
X65817771Y-74786966D01*
X65817771Y-74786966D02*
X65722533Y-74977442D01*
X65722533Y-74977442D02*
X65722533Y-75453633D01*
X65722533Y-75453633D02*
X65627295Y-75644109D01*
X65151104Y-76596490D02*
X66484438Y-76596490D01*
X65341580Y-76596490D02*
X65246342Y-76691728D01*
X65246342Y-76691728D02*
X65151104Y-76882204D01*
X65151104Y-76882204D02*
X65151104Y-77167919D01*
X65151104Y-77167919D02*
X65246342Y-77358395D01*
X65246342Y-77358395D02*
X65436819Y-77453633D01*
X65436819Y-77453633D02*
X66484438Y-77453633D01*
X66484438Y-79929824D02*
X64484438Y-79929824D01*
X64484438Y-79929824D02*
X64484438Y-80406014D01*
X64484438Y-80406014D02*
X64579676Y-80691729D01*
X64579676Y-80691729D02*
X64770152Y-80882205D01*
X64770152Y-80882205D02*
X64960628Y-80977443D01*
X64960628Y-80977443D02*
X65341580Y-81072681D01*
X65341580Y-81072681D02*
X65627295Y-81072681D01*
X65627295Y-81072681D02*
X66008247Y-80977443D01*
X66008247Y-80977443D02*
X66198723Y-80882205D01*
X66198723Y-80882205D02*
X66389200Y-80691729D01*
X66389200Y-80691729D02*
X66484438Y-80406014D01*
X66484438Y-80406014D02*
X66484438Y-79929824D01*
X66389200Y-82691729D02*
X66484438Y-82501253D01*
X66484438Y-82501253D02*
X66484438Y-82120300D01*
X66484438Y-82120300D02*
X66389200Y-81929824D01*
X66389200Y-81929824D02*
X66198723Y-81834586D01*
X66198723Y-81834586D02*
X65436819Y-81834586D01*
X65436819Y-81834586D02*
X65246342Y-81929824D01*
X65246342Y-81929824D02*
X65151104Y-82120300D01*
X65151104Y-82120300D02*
X65151104Y-82501253D01*
X65151104Y-82501253D02*
X65246342Y-82691729D01*
X65246342Y-82691729D02*
X65436819Y-82786967D01*
X65436819Y-82786967D02*
X65627295Y-82786967D01*
X65627295Y-82786967D02*
X65817771Y-81834586D01*
X66484438Y-83644110D02*
X64484438Y-83644110D01*
X65246342Y-83644110D02*
X65151104Y-83834586D01*
X65151104Y-83834586D02*
X65151104Y-84215539D01*
X65151104Y-84215539D02*
X65246342Y-84406015D01*
X65246342Y-84406015D02*
X65341580Y-84501253D01*
X65341580Y-84501253D02*
X65532057Y-84596491D01*
X65532057Y-84596491D02*
X66103485Y-84596491D01*
X66103485Y-84596491D02*
X66293961Y-84501253D01*
X66293961Y-84501253D02*
X66389200Y-84406015D01*
X66389200Y-84406015D02*
X66484438Y-84215539D01*
X66484438Y-84215539D02*
X66484438Y-83834586D01*
X66484438Y-83834586D02*
X66389200Y-83644110D01*
X66484438Y-86310777D02*
X65436819Y-86310777D01*
X65436819Y-86310777D02*
X65246342Y-86215539D01*
X65246342Y-86215539D02*
X65151104Y-86025063D01*
X65151104Y-86025063D02*
X65151104Y-85644110D01*
X65151104Y-85644110D02*
X65246342Y-85453634D01*
X66389200Y-86310777D02*
X66484438Y-86120301D01*
X66484438Y-86120301D02*
X66484438Y-85644110D01*
X66484438Y-85644110D02*
X66389200Y-85453634D01*
X66389200Y-85453634D02*
X66198723Y-85358396D01*
X66198723Y-85358396D02*
X66008247Y-85358396D01*
X66008247Y-85358396D02*
X65817771Y-85453634D01*
X65817771Y-85453634D02*
X65722533Y-85644110D01*
X65722533Y-85644110D02*
X65722533Y-86120301D01*
X65722533Y-86120301D02*
X65627295Y-86310777D01*
X66484438Y-87263158D02*
X64484438Y-87263158D01*
X65722533Y-87453634D02*
X66484438Y-88025063D01*
X65151104Y-88025063D02*
X65913009Y-87263158D01*
X66484438Y-88882206D02*
X64484438Y-88882206D01*
X65722533Y-89072682D02*
X66484438Y-89644111D01*
X65151104Y-89644111D02*
X65913009Y-88882206D01*
X66389200Y-91263159D02*
X66484438Y-91072683D01*
X66484438Y-91072683D02*
X66484438Y-90691730D01*
X66484438Y-90691730D02*
X66389200Y-90501254D01*
X66389200Y-90501254D02*
X66198723Y-90406016D01*
X66198723Y-90406016D02*
X65436819Y-90406016D01*
X65436819Y-90406016D02*
X65246342Y-90501254D01*
X65246342Y-90501254D02*
X65151104Y-90691730D01*
X65151104Y-90691730D02*
X65151104Y-91072683D01*
X65151104Y-91072683D02*
X65246342Y-91263159D01*
X65246342Y-91263159D02*
X65436819Y-91358397D01*
X65436819Y-91358397D02*
X65627295Y-91358397D01*
X65627295Y-91358397D02*
X65817771Y-90406016D01*
X66484438Y-92215540D02*
X65151104Y-92215540D01*
X65532057Y-92215540D02*
X65341580Y-92310778D01*
X65341580Y-92310778D02*
X65246342Y-92406016D01*
X65246342Y-92406016D02*
X65151104Y-92596492D01*
X65151104Y-92596492D02*
X65151104Y-92786969D01*
M02*
