M48
; DRILL file {KiCad 9.0.1} date 2025-05-06T09:20:33+0200
; FORMAT={-:-/ absolute / metric / decimal}
; #@! TF.CreationDate,2025-05-06T09:20:33+02:00
; #@! TF.GenerationSoftware,Kicad,Pcbnew,9.0.1
; #@! TF.FileFunction,Plated,1,2,PTH
FMAT,2
METRIC
; #@! TA.AperFunction,Plated,PTH,ViaDrill
T1C0.300
; #@! TA.AperFunction,Plated,PTH,ComponentDrill
T2C1.000
%
G90
G05
T1
X50.987Y-126.931
X50.987Y-129.013
X50.999Y-115.003
X50.999Y-122.977
X50.999Y-124.904
X50.999Y-125.967
X51.0Y-114.0
X51.0Y-116.0
X51.0Y-117.0
X51.0Y-118.0
X51.0Y-119.0
X51.0Y-120.0
X51.0Y-121.0
X51.0Y-122.0
X51.0Y-124.0
X51.0Y-128.0
X51.0Y-130.0
X51.0Y-131.0
X51.0Y-132.0
X51.0Y-133.0
X51.0Y-134.0
X51.0Y-135.0
X51.0Y-136.0
X51.0Y-137.0
X51.0Y-138.0
X51.0Y-139.0
X51.0Y-140.0
X51.0Y-141.0
X51.0Y-142.0
X51.0Y-143.0
X51.0Y-144.0
X51.0Y-145.0
X51.0Y-146.0
X51.0Y-147.0
X51.0Y-148.0
X51.0Y-149.0
X51.0Y-150.0
X51.0Y-151.0
X51.987Y-126.931
X51.987Y-129.013
X51.999Y-115.003
X51.999Y-122.977
X51.999Y-124.904
X51.999Y-125.967
X52.0Y-110.0
X52.0Y-111.0
X52.0Y-112.0
X52.0Y-113.0
X52.0Y-114.0
X52.0Y-116.0
X52.0Y-117.0
X52.0Y-118.0
X52.0Y-119.0
X52.0Y-120.0
X52.0Y-121.0
X52.0Y-122.0
X52.0Y-124.0
X52.0Y-128.0
X52.0Y-130.0
X52.0Y-131.0
X52.0Y-132.0
X52.0Y-133.0
X52.0Y-134.0
X52.0Y-135.0
X52.0Y-136.0
X52.0Y-137.0
X52.0Y-138.0
X52.0Y-139.0
X52.0Y-140.0
X52.0Y-141.0
X52.0Y-142.0
X52.0Y-143.0
X52.0Y-144.0
X52.0Y-145.0
X52.0Y-146.0
X52.0Y-147.0
X52.0Y-153.0
X53.0Y-136.0
X53.0Y-137.0
X53.0Y-138.0
X53.0Y-142.0
X53.0Y-143.0
X53.0Y-144.0
X53.0Y-145.0
X53.0Y-146.0
X53.0Y-154.0
X53.987Y-126.931
X53.987Y-129.013
X53.999Y-115.003
X53.999Y-122.977
X53.999Y-124.904
X53.999Y-125.967
X54.0Y-110.0
X54.0Y-111.0
X54.0Y-112.0
X54.0Y-113.0
X54.0Y-114.0
X54.0Y-116.0
X54.0Y-117.0
X54.0Y-118.0
X54.0Y-119.0
X54.0Y-120.0
X54.0Y-121.0
X54.0Y-122.0
X54.0Y-124.0
X54.0Y-128.0
X54.0Y-130.0
X54.0Y-131.0
X54.0Y-132.0
X54.0Y-133.0
X54.0Y-134.0
X54.0Y-142.0
X54.0Y-143.0
X54.0Y-144.0
X54.0Y-145.0
X54.625Y-139.6
X54.725Y-107.6
X54.987Y-126.931
X54.987Y-129.013
X54.999Y-115.003
X54.999Y-122.977
X54.999Y-124.904
X54.999Y-125.967
X55.0Y-111.0
X55.0Y-112.0
X55.0Y-113.0
X55.0Y-114.0
X55.0Y-116.0
X55.0Y-117.0
X55.0Y-118.0
X55.0Y-119.0
X55.0Y-120.0
X55.0Y-121.0
X55.0Y-122.0
X55.0Y-124.0
X55.0Y-128.0
X55.0Y-130.0
X55.0Y-131.0
X55.0Y-132.0
X55.0Y-133.0
X55.0Y-134.0
X55.0Y-135.0
X55.0Y-142.0
X55.0Y-143.0
X55.0Y-144.0
X55.0Y-145.0
X55.0Y-155.0
X55.5Y-110.0
X55.987Y-126.931
X55.987Y-129.013
X55.999Y-115.003
X55.999Y-122.977
X55.999Y-124.904
X55.999Y-125.967
X56.0Y-111.0
X56.0Y-112.0
X56.0Y-113.0
X56.0Y-114.0
X56.0Y-116.0
X56.0Y-117.0
X56.0Y-118.0
X56.0Y-119.0
X56.0Y-120.0
X56.0Y-121.0
X56.0Y-122.0
X56.0Y-124.0
X56.0Y-128.0
X56.0Y-130.0
X56.0Y-131.0
X56.0Y-132.0
X56.0Y-133.0
X56.0Y-134.0
X56.0Y-135.0
X56.0Y-136.0
X56.0Y-141.9
X56.0Y-143.0
X56.0Y-144.0
X56.0Y-145.0
X56.0Y-155.0
X56.1Y-109.9
X56.6Y-142.0
X56.7Y-110.0
X57.0Y-103.0
X57.0Y-104.0
X57.0Y-111.0
X57.0Y-143.0
X57.0Y-144.0
X57.0Y-145.0
X57.0Y-155.0
X57.2Y-141.9
X57.263Y-138.175
X57.288Y-106.175
X57.3Y-109.8
X57.5Y-109.2
X57.5Y-141.3
X58.0Y-102.0
X58.0Y-103.0
X58.0Y-110.0
X58.0Y-142.0
X58.0Y-143.0
X58.0Y-144.0
X58.0Y-145.0
X59.0Y-101.0
X59.0Y-102.0
X59.0Y-108.0
X59.0Y-109.0
X59.0Y-140.0
X59.0Y-141.0
X59.0Y-142.0
X59.0Y-143.0
X59.0Y-144.0
X59.0Y-145.0
X59.0Y-146.0
X59.0Y-154.0
X59.987Y-126.931
X59.987Y-129.013
X59.999Y-115.003
X59.999Y-122.977
X59.999Y-124.904
X59.999Y-125.967
X60.0Y-99.0
X60.0Y-100.0
X60.0Y-101.0
X60.0Y-106.0
X60.0Y-107.0
X60.0Y-108.0
X60.0Y-113.0
X60.0Y-114.0
X60.0Y-116.0
X60.0Y-117.0
X60.0Y-118.0
X60.0Y-119.0
X60.0Y-120.0
X60.0Y-121.0
X60.0Y-122.0
X60.0Y-124.0
X60.0Y-128.0
X60.0Y-130.0
X60.0Y-131.0
X60.0Y-132.0
X60.0Y-133.0
X60.0Y-134.0
X60.0Y-135.0
X60.0Y-136.0
X60.0Y-137.0
X60.0Y-138.0
X60.0Y-139.0
X60.0Y-140.0
X60.0Y-141.0
X60.0Y-142.0
X60.0Y-143.0
X60.0Y-144.0
X60.0Y-145.0
X60.0Y-146.0
X60.0Y-147.0
X60.0Y-153.0
X60.987Y-126.931
X60.987Y-129.013
X60.999Y-115.003
X60.999Y-122.977
X60.999Y-124.904
X60.999Y-125.967
X61.0Y-98.0
X61.0Y-99.0
X61.0Y-100.0
X61.0Y-112.0
X61.0Y-113.0
X61.0Y-114.0
X61.0Y-116.0
X61.0Y-117.0
X61.0Y-118.0
X61.0Y-119.0
X61.0Y-120.0
X61.0Y-121.0
X61.0Y-122.0
X61.0Y-124.0
X61.0Y-128.0
X61.0Y-130.0
X61.0Y-131.0
X61.0Y-132.0
X61.0Y-133.0
X61.0Y-134.0
X61.0Y-135.0
X61.0Y-136.0
X61.0Y-137.0
X61.0Y-138.0
X61.0Y-139.0
X61.0Y-140.0
X61.0Y-141.0
X61.0Y-142.0
X61.0Y-143.0
X61.0Y-144.0
X61.0Y-145.0
X61.0Y-146.0
X61.0Y-147.0
X61.0Y-148.0
X61.0Y-149.0
X61.0Y-150.0
X61.0Y-151.0
X62.0Y-97.0
X62.0Y-98.0
X62.0Y-99.0
X62.0Y-111.0
X62.0Y-112.0
X63.0Y-95.0
X63.0Y-96.0
X63.0Y-97.0
X63.0Y-98.0
X63.0Y-110.0
X64.0Y-94.0
X64.0Y-95.0
X64.0Y-96.0
X64.0Y-97.0
X64.0Y-104.0
X64.0Y-105.0
X64.0Y-106.0
X64.0Y-107.0
X64.0Y-108.0
X64.0Y-109.0
X65.0Y-93.0
X65.0Y-94.0
X65.0Y-95.0
X65.0Y-96.0
X65.0Y-103.0
X65.0Y-104.0
X65.0Y-105.0
X65.0Y-106.0
X65.0Y-107.0
X66.0Y-92.0
X66.0Y-93.0
X66.0Y-94.0
X66.0Y-95.0
X66.0Y-102.0
X66.0Y-103.0
X66.0Y-104.0
X66.0Y-105.0
X66.0Y-106.0
X67.0Y-90.0
X67.0Y-91.0
X67.0Y-92.0
X67.0Y-93.0
X67.0Y-94.0
X67.0Y-101.0
X67.0Y-102.0
X67.0Y-103.0
X67.0Y-104.0
X67.0Y-105.0
X68.0Y-89.0
X68.0Y-90.0
X68.0Y-91.0
X68.0Y-92.0
X68.0Y-93.0
X68.0Y-100.0
X68.0Y-101.0
X68.0Y-102.0
X68.0Y-103.0
X69.0Y-88.0
X69.0Y-89.0
X69.0Y-90.0
X69.0Y-91.0
X69.0Y-92.0
X69.0Y-99.0
X69.0Y-100.0
X69.0Y-101.0
X69.0Y-102.0
X70.0Y-86.0
X70.0Y-87.0
X70.0Y-88.0
X70.0Y-89.0
X70.0Y-90.0
X70.0Y-91.0
X70.0Y-98.0
X70.0Y-99.0
X70.0Y-100.0
X70.0Y-101.0
X71.0Y-85.0
X71.0Y-86.0
X71.0Y-87.0
X71.0Y-88.0
X71.0Y-89.0
X71.0Y-90.0
X71.0Y-97.0
X71.0Y-98.0
X71.0Y-99.0
X71.0Y-100.0
X72.0Y-86.0
X72.0Y-87.0
X72.0Y-88.0
X72.0Y-89.0
X72.0Y-96.0
X72.0Y-97.0
X72.0Y-98.0
X72.327Y-83.407
X73.0Y-85.0
X73.0Y-86.0
X73.0Y-87.0
X73.0Y-88.0
X73.0Y-95.0
X73.0Y-96.0
X73.0Y-97.0
X74.0Y-84.9
X74.0Y-86.0
X74.0Y-87.0
X74.0Y-94.0
X74.0Y-95.0
X74.0Y-96.0
X74.6Y-85.0
X75.0Y-86.0
X75.0Y-93.0
X75.0Y-94.0
X75.2Y-84.9
X75.5Y-83.8
X75.5Y-84.4
X76.0Y-81.5
X76.0Y-85.0
X76.0Y-92.0
X76.0Y-93.0
X77.0Y-83.0
X77.0Y-84.0
X77.0Y-91.0
X77.0Y-92.0
X78.0Y-79.0
X78.0Y-80.0
X78.0Y-81.0
X78.0Y-82.0
X78.0Y-83.0
X78.0Y-90.0
X78.0Y-91.0
X79.0Y-89.0
X80.0Y-88.0
X81.0Y-87.0
X82.0Y-86.0
X84.0Y-56.0
X84.0Y-78.0
X84.0Y-79.0
X84.0Y-80.0
X84.0Y-81.0
X84.0Y-82.0
X84.0Y-83.0
X85.0Y-54.0
X85.0Y-55.0
X85.0Y-58.0
X85.0Y-77.0
X85.0Y-78.0
X85.0Y-79.0
X85.0Y-80.0
X85.0Y-81.0
X85.0Y-82.0
X85.954Y-60.553
X86.0Y-53.0
X86.0Y-54.0
X86.0Y-57.0
X86.0Y-58.0
X86.0Y-76.0
X86.0Y-77.0
X86.0Y-78.0
X86.0Y-79.0
X86.0Y-80.0
X86.0Y-81.0
X87.0Y-53.0
X87.0Y-75.0
X87.0Y-76.0
X87.0Y-77.0
X87.0Y-78.0
X87.0Y-79.0
X87.776Y-61.906
X88.0Y-52.0
X88.0Y-72.0
X88.0Y-75.0
X88.0Y-76.0
X88.0Y-77.0
X88.0Y-78.0
X89.0Y-75.0
X89.0Y-76.0
X89.0Y-77.0
X89.636Y-63.377
X90.0Y-75.0
X91.0Y-64.0
X91.0Y-65.0
X91.0Y-66.0
X91.0Y-75.0
X92.0Y-64.0
X92.0Y-65.0
X92.0Y-66.0
X92.0Y-75.0
X93.0Y-58.0
X93.0Y-64.0
X93.0Y-65.0
X93.0Y-66.0
X93.0Y-75.0
X93.25Y-52.601
X94.0Y-56.0
X94.0Y-57.0
X94.0Y-58.0
X94.0Y-64.0
X94.0Y-65.0
X94.0Y-66.0
X94.0Y-67.0
X94.0Y-68.0
X94.0Y-73.0
X94.0Y-74.0
X94.0Y-75.0
X95.0Y-56.0
X95.0Y-57.0
X95.0Y-58.0
X95.0Y-64.0
X95.0Y-65.0
X95.0Y-66.0
X95.0Y-67.0
X95.0Y-68.0
X95.0Y-69.0
X95.0Y-70.0
X95.0Y-71.0
X95.0Y-72.0
X95.0Y-73.0
X95.0Y-74.0
X95.0Y-75.0
X96.0Y-57.0
X96.0Y-58.0
X96.0Y-64.0
X96.0Y-65.0
X96.0Y-66.0
X96.0Y-67.0
X96.0Y-68.0
X96.0Y-69.0
X96.0Y-70.0
X96.0Y-71.0
X96.0Y-72.0
X96.0Y-73.0
X96.0Y-74.0
X96.0Y-75.0
X97.0Y-58.0
X97.0Y-64.0
X97.0Y-65.0
X97.0Y-66.0
X97.0Y-67.0
X97.0Y-68.0
X97.0Y-69.0
X97.0Y-70.0
X97.0Y-71.0
X97.0Y-72.0
X97.0Y-73.0
X97.0Y-74.0
X97.0Y-75.0
X98.0Y-56.0
X98.0Y-65.0
X98.0Y-66.0
X98.0Y-67.0
X98.0Y-68.0
X98.0Y-69.0
X98.0Y-70.0
X98.0Y-71.0
X98.0Y-72.0
X98.0Y-73.0
X98.0Y-74.0
X98.0Y-75.0
X98.198Y-57.553
X99.0Y-65.0
X99.0Y-66.0
X99.0Y-67.0
X99.0Y-68.0
X99.0Y-69.0
X99.0Y-70.0
X99.0Y-71.0
X99.0Y-72.0
X99.0Y-73.0
X99.0Y-74.0
X99.0Y-75.0
X99.438Y-57.737
X100.0Y-65.0
X100.0Y-66.0
X100.0Y-67.0
X100.0Y-68.0
X100.0Y-69.0
X100.0Y-70.0
X100.0Y-71.0
X100.0Y-72.0
X100.0Y-73.0
X100.0Y-74.0
X100.0Y-75.0
X100.5Y-60.0
X101.0Y-65.0
X101.0Y-66.0
X101.0Y-67.0
X101.0Y-68.0
X101.0Y-69.0
X101.0Y-70.0
X101.0Y-71.0
X101.0Y-72.0
X101.0Y-73.0
X101.0Y-74.0
X101.0Y-75.0
X101.6Y-60.0
X102.0Y-65.0
X102.0Y-66.0
X102.0Y-67.0
X102.0Y-68.0
X102.0Y-69.0
X102.0Y-70.0
X102.0Y-71.0
X102.0Y-72.0
X102.0Y-73.0
X102.0Y-74.0
X102.0Y-75.0
X102.2Y-60.0
X102.388Y-56.365
X102.4Y-59.4
X102.5Y-57.25
X102.5Y-58.8
X102.753Y-58.009
X103.0Y-65.0
X103.0Y-66.0
X103.0Y-67.0
X103.0Y-68.0
X103.0Y-69.0
X103.0Y-70.0
X103.0Y-71.0
X103.0Y-72.0
X103.0Y-73.0
X103.0Y-74.0
X103.0Y-75.0
X103.999Y-64.991
X103.999Y-65.991
X103.999Y-66.991
X103.999Y-67.991
X103.999Y-68.991
X103.999Y-69.991
X103.999Y-70.991
X103.999Y-71.991
X103.999Y-72.991
X103.999Y-73.991
X103.999Y-74.991
X104.0Y-57.0
X104.0Y-58.0
X105.0Y-57.0
X105.0Y-65.0
X105.0Y-66.0
X105.0Y-67.0
X105.0Y-68.0
X105.0Y-69.0
X105.0Y-70.0
X105.0Y-71.0
X105.0Y-72.0
X105.0Y-73.0
X105.0Y-74.0
X105.0Y-75.0
X105.75Y-58.875
X106.0Y-64.0
X106.0Y-65.0
X106.0Y-66.0
X106.0Y-67.0
X106.0Y-68.0
X106.0Y-69.0
X106.0Y-70.0
X106.0Y-71.0
X106.0Y-72.0
X106.0Y-73.0
X106.0Y-74.0
X106.0Y-75.0
X107.0Y-64.0
X107.0Y-65.0
X107.0Y-66.0
X107.0Y-67.0
X107.0Y-68.0
X107.0Y-69.0
X107.0Y-70.0
X107.0Y-71.0
X107.0Y-72.0
X107.0Y-73.0
X107.0Y-74.0
X107.0Y-75.0
X107.078Y-59.953
X108.0Y-63.0
X108.0Y-64.0
X108.0Y-65.0
X108.0Y-66.0
X108.0Y-67.0
X108.0Y-68.0
X108.0Y-69.0
X108.0Y-70.0
X108.0Y-71.0
X108.0Y-72.0
X108.0Y-73.0
X108.0Y-74.0
X108.0Y-75.0
X108.573Y-60.948
X109.0Y-62.0
X109.0Y-63.0
X109.0Y-64.0
X109.0Y-65.0
X109.0Y-66.0
X109.0Y-67.0
X109.0Y-68.0
X109.0Y-69.0
X109.0Y-70.0
X109.0Y-71.0
X109.0Y-72.0
X109.0Y-73.0
X109.0Y-74.0
X109.0Y-75.0
X110.0Y-61.0
X110.0Y-62.0
X110.0Y-63.0
X110.0Y-64.0
X110.0Y-65.0
X110.0Y-66.0
X110.0Y-67.0
X110.0Y-68.0
X110.0Y-69.0
X110.0Y-70.0
X110.0Y-71.0
X110.0Y-72.0
X110.0Y-73.0
X110.0Y-74.0
X110.0Y-75.0
X111.0Y-62.0
X111.0Y-63.0
X111.0Y-64.0
X111.0Y-65.0
X111.0Y-66.0
X111.0Y-67.0
X111.0Y-68.0
X111.0Y-69.0
X111.0Y-70.0
X111.0Y-71.0
X111.0Y-72.0
X111.0Y-73.0
X111.0Y-74.0
X111.0Y-75.0
X112.0Y-59.5
X112.0Y-65.0
X112.0Y-66.0
X112.0Y-67.0
X112.0Y-68.0
X112.0Y-69.0
X112.0Y-70.0
X112.0Y-73.0
X112.0Y-74.0
X112.0Y-75.0
X113.0Y-58.4
X113.0Y-59.5
X113.0Y-60.6
X113.0Y-66.0
X113.0Y-67.0
X113.0Y-68.0
X113.0Y-69.0
X113.0Y-70.0
X113.0Y-73.0
X113.0Y-74.0
X113.0Y-75.0
X114.0Y-59.5
X114.0Y-66.0
X114.0Y-67.0
X114.0Y-73.0
X114.0Y-74.0
X114.0Y-75.0
X114.088Y-52.601
X115.0Y-73.0
X115.0Y-74.0
X115.0Y-75.0
X115.835Y-54.537
X115.999Y-72.991
X115.999Y-73.991
X115.999Y-74.991
X116.0Y-62.0
X116.0Y-63.0
X116.2Y-69.6
X116.2Y-70.2
X116.25Y-64.905
X116.7Y-69.3
X116.7Y-69.9
X116.7Y-70.5
X117.0Y-61.0
X117.0Y-62.0
X117.0Y-63.0
X117.0Y-73.0
X117.0Y-74.0
X117.0Y-75.0
X117.049Y-63.915
X117.2Y-69.6
X117.2Y-70.2
X118.0Y-61.0
X118.0Y-62.0
X118.0Y-73.0
X118.0Y-74.0
X118.0Y-75.0
X118.275Y-64.9
X119.0Y-62.0
X119.0Y-70.0
X119.0Y-73.0
X119.0Y-74.0
X119.0Y-75.0
X119.078Y-57.279
X119.093Y-64.467
X119.5Y-60.5
X119.558Y-59.655
X119.566Y-58.78
X119.576Y-57.905
X120.0Y-62.0
X120.0Y-70.0
X120.0Y-73.0
X120.0Y-74.0
X120.0Y-75.0
X121.0Y-73.0
X121.0Y-74.0
X121.0Y-75.0
X121.125Y-61.253
X121.256Y-57.619
X121.46Y-68.55
X121.462Y-66.65
X122.0Y-59.5
X122.0Y-72.0
X122.0Y-73.0
X122.0Y-74.0
X122.0Y-75.0
X122.07Y-65.21
X122.641Y-62.655
X123.0Y-58.4
X123.0Y-59.5
X123.0Y-60.6
X123.0Y-65.0
X123.0Y-70.0
X123.0Y-73.0
X123.0Y-74.0
X123.0Y-75.0
X123.738Y-56.741
X123.9Y-59.5
X124.0Y-63.0
X124.0Y-64.0
X124.0Y-65.0
X124.0Y-70.0
X124.0Y-73.0
X124.0Y-74.0
X124.0Y-75.0
X124.55Y-56.984
X125.0Y-62.0
X125.0Y-63.0
X125.0Y-64.0
X125.0Y-65.0
X125.0Y-69.0
X125.0Y-70.0
X125.0Y-71.0
X125.0Y-72.0
X125.0Y-73.0
X125.0Y-74.0
X125.0Y-75.0
X125.05Y-57.608
X125.862Y-58.434
X126.0Y-63.0
X126.0Y-64.0
X126.0Y-65.0
X126.0Y-69.0
X126.0Y-70.0
X126.0Y-71.0
X126.0Y-72.0
X126.0Y-73.0
X126.0Y-74.0
X126.0Y-75.0
X126.5Y-53.19
X126.658Y-58.516
X126.98Y-56.003
X127.0Y-64.0
X127.0Y-67.0
X127.0Y-68.0
X127.0Y-69.0
X127.0Y-70.0
X127.0Y-71.0
X127.0Y-72.0
X127.0Y-73.0
X127.0Y-74.0
X127.0Y-75.0
X127.033Y-54.792
X127.289Y-53.325
X127.631Y-52.602
X127.7Y-54.202
X127.7Y-55.403
X127.7Y-56.603
X127.7Y-57.5
X127.7Y-58.3
X127.7Y-61.0
X127.7Y-61.8
X127.7Y-62.6
X128.0Y-66.0
X128.0Y-67.0
X128.0Y-68.0
X128.0Y-69.0
X128.0Y-70.0
X128.0Y-71.0
X128.0Y-72.0
X128.0Y-73.0
X128.0Y-74.0
X128.0Y-75.0
X129.0Y-65.0
X129.0Y-66.0
X129.0Y-67.0
X129.0Y-68.0
X129.0Y-69.0
X129.0Y-70.0
X129.0Y-71.0
X129.0Y-72.0
X129.0Y-73.0
X129.0Y-74.0
X129.0Y-75.0
X129.3Y-53.401
X129.3Y-54.201
X129.3Y-55.403
X129.3Y-56.603
X129.3Y-61.5
X129.3Y-62.349
X129.301Y-63.199
X129.38Y-58.1
X129.75Y-52.602
X129.757Y-57.26
X129.934Y-56.003
X129.966Y-54.801
X130.0Y-65.0
X130.0Y-66.0
X130.0Y-67.0
X130.0Y-68.0
X130.0Y-69.0
X130.0Y-70.0
X130.0Y-71.0
X130.0Y-72.0
X130.0Y-73.0
X130.0Y-74.0
X130.0Y-75.0
X130.908Y-60.842
X131.0Y-66.0
X131.0Y-67.0
X131.0Y-68.0
X131.0Y-69.0
X131.0Y-70.0
X131.0Y-71.0
X131.0Y-72.0
X131.0Y-73.0
X131.0Y-74.0
X131.0Y-75.0
X132.0Y-67.0
X132.0Y-68.0
X132.0Y-69.0
X132.0Y-70.0
X132.0Y-71.0
X132.0Y-72.0
X132.0Y-73.0
X132.0Y-74.0
X132.0Y-75.0
X133.0Y-68.0
X133.0Y-69.0
X133.0Y-70.0
X133.0Y-71.0
X133.0Y-72.0
X133.0Y-73.0
X133.0Y-74.0
X133.0Y-75.0
X134.0Y-69.0
X134.0Y-70.0
X134.0Y-71.0
X134.0Y-72.0
X134.0Y-73.0
X134.0Y-74.0
X134.0Y-75.0
X135.0Y-60.0
X135.0Y-69.0
X135.0Y-70.0
X135.0Y-71.0
X135.0Y-72.0
X135.0Y-73.0
X135.0Y-74.0
X135.0Y-75.0
X136.0Y-59.8
X136.0Y-61.0
X136.0Y-69.0
X136.0Y-70.0
X136.0Y-71.0
X136.0Y-72.0
X136.0Y-73.0
X136.0Y-74.0
X136.0Y-75.0
X136.25Y-54.25
X136.6Y-60.0
X137.0Y-53.0
X137.0Y-61.0
X137.0Y-62.0
X137.0Y-69.0
X137.0Y-70.0
X137.0Y-71.0
X137.0Y-72.0
X137.0Y-73.0
X137.0Y-74.0
X137.0Y-75.0
X137.2Y-59.9
X137.425Y-56.943
X137.5Y-58.0
X137.5Y-58.8
X137.5Y-59.4
X138.0Y-53.0
X138.0Y-54.0
X138.0Y-55.0
X138.0Y-56.0
X138.0Y-60.0
X138.0Y-61.0
X138.0Y-62.0
X138.0Y-69.0
X138.0Y-70.0
X138.0Y-71.0
X138.0Y-72.0
X138.0Y-73.0
X138.0Y-74.0
X138.0Y-75.0
X139.0Y-53.0
X139.0Y-54.0
X139.0Y-55.0
X139.0Y-56.0
X139.0Y-57.0
X139.0Y-58.0
X139.0Y-59.0
X139.0Y-60.0
X139.0Y-61.0
X139.0Y-62.0
X139.0Y-69.0
X139.0Y-70.0
X139.0Y-71.0
X139.0Y-72.0
X139.0Y-73.0
X139.0Y-74.0
X139.0Y-75.0
X140.0Y-53.0
X140.0Y-54.0
X140.0Y-55.0
X140.0Y-56.0
X140.0Y-57.0
X140.0Y-58.0
X140.0Y-59.0
X140.0Y-60.0
X140.0Y-61.0
X140.0Y-62.0
X140.0Y-69.0
X140.0Y-70.0
X140.0Y-71.0
X140.0Y-72.0
X140.0Y-73.0
X140.0Y-74.0
X140.0Y-75.0
X141.0Y-53.0
X141.0Y-54.0
X141.0Y-55.0
X141.0Y-56.0
X141.0Y-57.0
X141.0Y-58.0
X141.0Y-59.0
X141.0Y-60.0
X141.0Y-61.0
X141.0Y-62.0
X141.0Y-70.0
X141.0Y-71.0
X141.0Y-72.0
X141.0Y-73.0
X141.0Y-74.0
X141.0Y-75.0
X142.0Y-53.0
X142.0Y-54.0
X142.0Y-55.0
X142.0Y-56.0
X142.0Y-57.0
X142.0Y-58.0
X142.0Y-59.0
X142.0Y-60.0
X142.0Y-61.0
X142.0Y-62.0
X142.0Y-68.0
X142.0Y-73.0
X142.0Y-74.0
X142.0Y-75.0
X143.0Y-53.0
X143.0Y-54.0
X143.0Y-59.0
X143.0Y-60.0
X143.0Y-61.0
X143.0Y-62.0
X143.0Y-68.0
X143.0Y-74.0
X143.0Y-75.0
X144.0Y-53.0
X144.0Y-60.0
X144.0Y-61.0
X144.0Y-62.0
X144.0Y-74.0
X144.0Y-75.0
X145.0Y-53.0
X145.0Y-60.0
X145.0Y-61.0
X145.0Y-62.0
X145.0Y-74.0
X145.0Y-75.0
X146.0Y-54.0
X146.0Y-59.0
X146.0Y-60.0
X146.0Y-61.0
X146.0Y-62.0
X146.0Y-74.0
X146.0Y-75.0
X147.0Y-52.0
X147.0Y-55.0
X147.0Y-58.0
X147.0Y-59.0
X147.0Y-60.0
X147.0Y-61.0
X147.0Y-62.0
X147.0Y-74.0
X147.0Y-75.0
X147.0Y-76.0
X147.0Y-77.0
X148.0Y-52.0
X148.0Y-53.0
X148.0Y-56.0
X148.0Y-57.0
X148.0Y-58.0
X148.0Y-59.0
X148.0Y-60.0
X148.0Y-61.0
X148.0Y-62.0
X148.0Y-63.0
X148.0Y-75.0
X148.0Y-76.0
X148.0Y-77.0
X148.0Y-78.0
X149.0Y-53.0
X149.0Y-54.0
X149.0Y-57.0
X149.0Y-58.0
X149.0Y-59.0
X149.0Y-60.0
X149.0Y-61.0
X149.0Y-62.0
X149.0Y-63.0
X149.0Y-64.0
X149.0Y-76.0
X149.0Y-77.0
X149.0Y-78.0
X149.0Y-79.0
X150.0Y-53.0
X150.0Y-54.0
X150.0Y-55.0
X150.0Y-58.0
X150.0Y-59.0
X150.0Y-60.0
X150.0Y-61.0
X150.0Y-62.0
X150.0Y-63.0
X150.0Y-64.0
X150.0Y-65.0
X150.0Y-77.0
X150.0Y-78.0
X150.0Y-79.0
X150.0Y-80.0
X150.0Y-81.0
X151.0Y-54.0
X151.0Y-55.0
X151.0Y-56.0
X151.0Y-59.0
X151.0Y-60.0
X151.0Y-61.0
X151.0Y-62.0
X151.0Y-63.0
X151.0Y-64.0
X151.0Y-65.0
X151.0Y-66.0
X151.0Y-78.0
X151.0Y-79.0
X151.0Y-80.0
X151.0Y-81.0
X151.0Y-82.0
X152.0Y-56.0
X152.0Y-57.0
X152.0Y-79.0
X152.0Y-80.0
X152.0Y-81.0
X152.0Y-82.0
X152.0Y-83.0
X153.0Y-70.0
X153.0Y-80.0
X153.0Y-81.0
X153.0Y-82.0
X153.0Y-83.0
X153.0Y-84.0
X154.0Y-70.0
X154.0Y-71.0
X154.0Y-81.0
X154.0Y-82.0
X154.0Y-83.0
X154.0Y-84.0
X154.0Y-85.0
X154.0Y-86.0
X155.0Y-71.0
X155.0Y-72.0
X155.0Y-83.0
X155.0Y-84.0
X155.0Y-85.0
X155.0Y-86.0
X155.0Y-87.0
X156.0Y-72.0
X156.0Y-73.0
X156.0Y-87.0
X156.0Y-88.0
X156.068Y-81.017
X156.852Y-79.536
X157.0Y-74.0
X157.0Y-88.0
X157.0Y-89.0
X158.0Y-75.0
X158.0Y-89.0
X158.0Y-90.0
X158.0Y-91.0
X159.0Y-76.0
X159.0Y-90.0
X159.0Y-91.0
X159.0Y-92.0
X159.66Y-81.4
X159.86Y-79.14
X160.0Y-77.0
X160.0Y-91.0
X160.0Y-92.0
X160.0Y-93.0
X161.0Y-92.0
X161.0Y-93.0
X161.0Y-94.0
X161.6Y-82.7
X161.675Y-79.291
X162.0Y-85.0
X162.0Y-93.0
X162.0Y-94.0
X162.0Y-95.0
X162.0Y-96.0
X163.0Y-84.9
X163.0Y-86.0
X163.0Y-94.0
X163.0Y-95.0
X163.0Y-96.0
X163.0Y-97.0
X163.6Y-85.0
X164.0Y-86.0
X164.0Y-87.0
X164.0Y-95.0
X164.0Y-96.0
X164.0Y-97.0
X164.0Y-98.0
X164.2Y-85.0
X164.25Y-82.5
X164.5Y-83.9
X164.5Y-84.5
X164.816Y-83.066
X165.0Y-85.0
X165.0Y-86.0
X165.0Y-87.0
X165.0Y-88.0
X165.0Y-96.0
X165.0Y-97.0
X165.0Y-98.0
X165.0Y-99.0
X166.0Y-85.0
X166.0Y-86.0
X166.0Y-87.0
X166.0Y-88.0
X166.0Y-89.0
X166.0Y-97.0
X166.0Y-98.0
X166.0Y-99.0
X166.0Y-100.0
X166.0Y-101.0
X167.0Y-86.0
X167.0Y-87.0
X167.0Y-88.0
X167.0Y-89.0
X167.0Y-90.0
X167.0Y-98.0
X167.0Y-99.0
X167.0Y-100.0
X167.0Y-101.0
X167.0Y-102.0
X168.0Y-88.0
X168.0Y-89.0
X168.0Y-90.0
X168.0Y-91.0
X168.0Y-99.0
X168.0Y-100.0
X168.0Y-101.0
X168.0Y-102.0
X168.0Y-103.0
X169.0Y-89.0
X169.0Y-90.0
X169.0Y-91.0
X169.0Y-92.0
X169.0Y-100.0
X169.0Y-101.0
X169.0Y-102.0
X169.0Y-103.0
X169.0Y-104.0
X170.0Y-90.0
X170.0Y-91.0
X170.0Y-92.0
X170.0Y-93.0
X170.0Y-101.0
X170.0Y-102.0
X170.0Y-103.0
X170.0Y-104.0
X170.0Y-105.0
X170.0Y-106.0
X171.0Y-92.0
X171.0Y-93.0
X171.0Y-94.0
X171.0Y-102.0
X171.0Y-103.0
X171.0Y-104.0
X171.0Y-105.0
X171.0Y-106.0
X171.0Y-107.0
X172.0Y-93.0
X172.0Y-94.0
X172.0Y-95.0
X172.0Y-103.0
X172.0Y-104.0
X172.0Y-105.0
X172.0Y-106.0
X172.0Y-107.0
X172.0Y-108.0
X173.0Y-94.0
X173.0Y-95.0
X173.0Y-96.0
X173.0Y-104.0
X173.0Y-105.0
X173.0Y-106.0
X173.0Y-107.0
X173.0Y-108.0
X173.0Y-109.0
X173.0Y-110.0
X174.0Y-95.0
X174.0Y-96.0
X174.0Y-97.0
X174.0Y-105.0
X174.0Y-106.0
X174.0Y-107.0
X174.0Y-108.0
X174.0Y-109.0
X174.0Y-110.0
X174.0Y-111.0
X175.0Y-96.0
X175.0Y-97.0
X175.0Y-98.0
X175.0Y-107.0
X175.0Y-108.0
X175.0Y-109.0
X175.0Y-110.0
X175.0Y-111.0
X175.0Y-112.0
X175.0Y-113.0
X175.78Y-105.803
X175.997Y-146.071
X176.0Y-98.0
X176.0Y-99.0
X176.0Y-138.0
X176.0Y-139.0
X176.0Y-140.0
X176.0Y-141.0
X176.0Y-142.0
X176.0Y-143.0
X176.0Y-144.0
X176.0Y-145.0
X176.0Y-147.0
X176.0Y-148.0
X176.0Y-149.0
X176.0Y-150.0
X176.0Y-151.0
X176.199Y-104.523
X176.997Y-146.071
X177.0Y-99.0
X177.0Y-100.0
X177.0Y-139.0
X177.0Y-140.0
X177.0Y-141.0
X177.0Y-142.0
X177.0Y-143.0
X177.0Y-144.0
X177.0Y-145.0
X177.0Y-147.0
X177.0Y-153.0
X177.362Y-135.868
X177.362Y-136.668
X177.362Y-137.5
X177.997Y-146.071
X178.0Y-100.0
X178.0Y-101.0
X178.0Y-142.0
X178.0Y-143.0
X178.0Y-144.0
X178.0Y-145.0
X178.0Y-154.0
X178.093Y-105.273
X178.722Y-104.778
X178.993Y-111.981
X178.993Y-124.973
X178.993Y-128.96
X179.0Y-101.0
X179.0Y-102.0
X179.0Y-110.0
X179.0Y-111.0
X179.0Y-113.0
X179.0Y-114.0
X179.0Y-115.0
X179.0Y-116.0
X179.0Y-117.0
X179.0Y-118.0
X179.0Y-119.0
X179.0Y-120.0
X179.0Y-121.0
X179.0Y-122.0
X179.0Y-123.0
X179.0Y-124.0
X179.0Y-126.0
X179.0Y-127.0
X179.0Y-128.0
X179.0Y-130.0
X179.0Y-131.0
X179.0Y-132.0
X179.0Y-133.0
X179.0Y-134.0
X179.0Y-142.0
X179.0Y-143.0
X179.0Y-144.0
X179.0Y-145.0
X179.6Y-107.9
X179.8Y-140.4
X179.993Y-111.981
X179.993Y-124.973
X179.993Y-128.96
X180.0Y-103.0
X180.0Y-111.0
X180.0Y-113.0
X180.0Y-114.0
X180.0Y-115.0
X180.0Y-116.0
X180.0Y-117.0
X180.0Y-118.0
X180.0Y-119.0
X180.0Y-120.0
X180.0Y-121.0
X180.0Y-122.0
X180.0Y-123.0
X180.0Y-124.0
X180.0Y-126.0
X180.0Y-127.0
X180.0Y-128.0
X180.0Y-130.0
X180.0Y-131.0
X180.0Y-132.0
X180.0Y-133.0
X180.0Y-134.0
X180.0Y-135.0
X180.0Y-142.0
X180.0Y-143.0
X180.0Y-144.0
X180.0Y-145.0
X180.0Y-155.0
X180.5Y-110.0
X180.993Y-111.981
X180.993Y-124.973
X180.993Y-128.96
X181.0Y-104.0
X181.0Y-111.0
X181.0Y-113.0
X181.0Y-114.0
X181.0Y-115.0
X181.0Y-116.0
X181.0Y-117.0
X181.0Y-118.0
X181.0Y-119.0
X181.0Y-120.0
X181.0Y-121.0
X181.0Y-122.0
X181.0Y-123.0
X181.0Y-124.0
X181.0Y-126.0
X181.0Y-127.0
X181.0Y-128.0
X181.0Y-130.0
X181.0Y-131.0
X181.0Y-132.0
X181.0Y-133.0
X181.0Y-134.0
X181.0Y-135.0
X181.0Y-141.9
X181.0Y-143.0
X181.0Y-144.0
X181.0Y-145.0
X181.0Y-155.0
X181.25Y-106.0
X181.4Y-137.2
X181.6Y-110.0
X181.6Y-142.0
X181.993Y-111.981
X181.993Y-124.973
X181.993Y-128.96
X182.0Y-111.0
X182.0Y-113.0
X182.0Y-114.0
X182.0Y-115.0
X182.0Y-116.0
X182.0Y-117.0
X182.0Y-118.0
X182.0Y-119.0
X182.0Y-120.0
X182.0Y-121.0
X182.0Y-122.0
X182.0Y-123.0
X182.0Y-124.0
X182.0Y-126.0
X182.0Y-127.0
X182.0Y-128.0
X182.0Y-130.0
X182.0Y-131.0
X182.0Y-132.0
X182.0Y-133.0
X182.0Y-134.0
X182.0Y-135.0
X182.0Y-136.0
X182.0Y-143.0
X182.0Y-144.0
X182.0Y-145.0
X182.0Y-155.0
X182.2Y-109.9
X182.2Y-141.9
X182.4Y-141.3
X182.426Y-107.0
X182.5Y-108.8
X182.5Y-109.4
X182.5Y-139.0
X182.5Y-139.9
X182.5Y-140.7
X182.593Y-108.005
X182.993Y-111.981
X182.993Y-124.973
X182.993Y-128.96
X183.0Y-110.0
X183.0Y-111.0
X183.0Y-113.0
X183.0Y-114.0
X183.0Y-115.0
X183.0Y-116.0
X183.0Y-117.0
X183.0Y-118.0
X183.0Y-119.0
X183.0Y-120.0
X183.0Y-121.0
X183.0Y-122.0
X183.0Y-123.0
X183.0Y-124.0
X183.0Y-126.0
X183.0Y-127.0
X183.0Y-128.0
X183.0Y-130.0
X183.0Y-131.0
X183.0Y-132.0
X183.0Y-133.0
X183.0Y-134.0
X183.0Y-135.0
X183.0Y-136.0
X183.0Y-137.0
X183.0Y-138.0
X183.0Y-141.0
X183.0Y-142.0
X183.0Y-143.0
X183.0Y-144.0
X183.0Y-145.0
X183.993Y-111.981
X183.993Y-124.973
X183.993Y-128.96
X183.997Y-146.071
X184.0Y-109.0
X184.0Y-110.0
X184.0Y-111.0
X184.0Y-113.0
X184.0Y-114.0
X184.0Y-115.0
X184.0Y-116.0
X184.0Y-117.0
X184.0Y-118.0
X184.0Y-119.0
X184.0Y-120.0
X184.0Y-121.0
X184.0Y-122.0
X184.0Y-123.0
X184.0Y-124.0
X184.0Y-126.0
X184.0Y-127.0
X184.0Y-128.0
X184.0Y-130.0
X184.0Y-131.0
X184.0Y-132.0
X184.0Y-133.0
X184.0Y-134.0
X184.0Y-135.0
X184.0Y-136.0
X184.0Y-137.0
X184.0Y-138.0
X184.0Y-139.0
X184.0Y-140.0
X184.0Y-141.0
X184.0Y-142.0
X184.0Y-143.0
X184.0Y-144.0
X184.0Y-145.0
X184.0Y-154.0
X184.993Y-111.981
X184.993Y-124.973
X184.993Y-128.96
X184.997Y-146.071
X185.0Y-111.0
X185.0Y-113.0
X185.0Y-114.0
X185.0Y-115.0
X185.0Y-116.0
X185.0Y-117.0
X185.0Y-118.0
X185.0Y-119.0
X185.0Y-120.0
X185.0Y-121.0
X185.0Y-122.0
X185.0Y-123.0
X185.0Y-124.0
X185.0Y-126.0
X185.0Y-127.0
X185.0Y-128.0
X185.0Y-130.0
X185.0Y-131.0
X185.0Y-132.0
X185.0Y-133.0
X185.0Y-134.0
X185.0Y-135.0
X185.0Y-136.0
X185.0Y-137.0
X185.0Y-138.0
X185.0Y-139.0
X185.0Y-140.0
X185.0Y-141.0
X185.0Y-142.0
X185.0Y-143.0
X185.0Y-144.0
X185.0Y-145.0
X185.0Y-147.0
X185.0Y-153.0
X185.993Y-124.973
X185.993Y-128.96
X185.997Y-146.071
X186.0Y-115.0
X186.0Y-116.0
X186.0Y-117.0
X186.0Y-118.0
X186.0Y-119.0
X186.0Y-120.0
X186.0Y-121.0
X186.0Y-122.0
X186.0Y-123.0
X186.0Y-124.0
X186.0Y-126.0
X186.0Y-127.0
X186.0Y-128.0
X186.0Y-130.0
X186.0Y-131.0
X186.0Y-132.0
X186.0Y-133.0
X186.0Y-134.0
X186.0Y-135.0
X186.0Y-136.0
X186.0Y-137.0
X186.0Y-138.0
X186.0Y-139.0
X186.0Y-140.0
X186.0Y-141.0
X186.0Y-142.0
X186.0Y-143.0
X186.0Y-144.0
X186.0Y-145.0
X186.0Y-147.0
X186.0Y-148.0
X186.0Y-149.0
X186.0Y-150.0
X186.0Y-151.0
T2
X112.92Y-71.5
X115.46Y-71.5
X118.0Y-71.5
X120.54Y-71.5
X123.08Y-71.5
M30
